<svg id="Layer_1" data-name="Layer 1" xmlns="http://www.w3.org/2000/svg" xmlns:xlink="http://www.w3.org/1999/xlink" viewBox="0 0 140 50"><defs><style>.cls-1{fill:none;}.cls-2{clip-path:url(#clip-path);}.cls-3{fill:#1b2d45;}</style><clipPath id="clip-path"><rect class="cls-1" width="140" height="50"/></clipPath></defs><g class="cls-2"><path class="cls-3" d="M29.905,10.424c-1.005.083-1.037-.648-1.353-1.179a3.429,3.429,0,0,0-2.353-1.9,3.212,3.212,0,0,1-2.055-1.4H22.667a10.437,10.437,0,0,0-5.346,6.445c-.43,1.622-1.194,2.55-2.855,2.768-1.444.189-1.962,1.067-2.133,2.508q-1.015,8.6-2.278,17.163c-.184,1.254.054,1.64,1.324,1.868q8.33,1.5,16.611,3.252c1.112.234.917-.349.948-.948q.3-5.706.6-11.41.413-8.007.8-16.015C30.356,11.154,30.649,10.362,29.905,10.424ZM27,11.157c-1.373-.49-.127-1.8-.9-2.537a2.035,2.035,0,0,1,1.729,2.058C27.86,11.11,27.259,11.25,27,11.157Zm-10.3,19.8c.977.282,2.055,1.052,2.822-.1.744-1.111-.16-1.912-.956-2.633-2.537-2.3-3.04-3.887-2.05-6.424a6.642,6.642,0,0,1,6.313-3.946,2.394,2.394,0,0,1,.549.005c.739.179,2-.026,2.016.824a7.566,7.566,0,0,1-1.07,3.071c-.171.365-.684.077-1.013-.013a4.125,4.125,0,0,0-2.174-.156c-1.423.379-1.781,1.576-.747,2.612a20.59,20.59,0,0,0,1.737,1.35,5.471,5.471,0,0,1,.855,7.832c-1.8,2.016-5.8,2.075-7.912.176-1.119-1.006-.3-2.016.06-2.84C15.6,29.621,16.178,30.8,16.7,30.953Zm5.4-18.474a5.405,5.405,0,0,1,2.612-3.763C25.971,12.144,25.222,12.038,22.1,12.479ZM24.23,7.433a7.633,7.633,0,0,0-3.377,4.958c-.344,1.386-1.6,1.075-2.462,1.557A6.488,6.488,0,0,1,24.23,7.433Z"/><path class="cls-3" d="M127.432,18.825c-1.431-.218-2.052.417-2.49,1.71-.843,2.5-1.835,4.958-2.921,7.834l-.109.288c-.01-.109-.023-.215-.033-.322-.27-2.513-.514-4.61-.71-6.711-.3-3.219.254-2.719-3.035-2.776a3.474,3.474,0,0,1-.368,0c-.98-.111-1.091.342-.922,1.2.678,3.426,1.166,6.891,1.974,10.283a4.1,4.1,0,0,1-1.86,4.721c-.542.392-1.195.635-1.731,1.032-1.351.995.095,1.912.171,2.863.072.928.8.656,1.388.4a11.36,11.36,0,0,0,4.587-3.864c2.789-3.78,4.429-8.16,6.458-12.337.65-1.34.972-2.882,2.169-3.924v-.37A16.908,16.908,0,0,1,127.432,18.825Z"/><path class="cls-3" d="M92.72,19.123a13.844,13.844,0,0,0-2.291,1.736c-.562-.588.861-1.98-.7-1.938-.983.026-2.587-1.057-2.96.99-1.083,5.913-2.138,11.835-3.257,17.743-.21,1.107.054,1.366,1.166,1.291,3.434-.229,2.459.526,3.263-2.8a11.134,11.134,0,0,0,.349-1.8c.063-.9.4-1.143,1.3-.907a5.946,5.946,0,0,0,5.786-1.562,10.449,10.449,0,0,0,3.175-9.907C98.064,19.136,95.392,17.975,92.72,19.123ZM92.4,29.665a2.36,2.36,0,0,1-2.693.6c-1.171-.464-.409-1.35-.332-2.047A10.465,10.465,0,0,1,90.9,23.181c.572-.814,1.35-1.539,2.464-1.145,1.039.368,1.091,1.363,1.164,2.329A8.5,8.5,0,0,1,92.4,29.665Z"/><path class="cls-3" d="M65.855,18.732c-1.43.09-2.508.855-3.887,1.99.469-2.382.915-4.294,1.177-6.23.07-.521.927-1.749-.407-1.658-1.143.075-3.014-1.034-3.431.971-1.272,6.126-2.361,12.291-3.535,18.438-.1.531-.21.881.544,1.029,2.421.472,3.294-.041,3.753-2.382.223-1.142.394-2.3.642-3.438a9.993,9.993,0,0,1,1.636-4.444c.552-.677,1.22-1.33,2.192-.983,1.068.381.93,1.35.788,2.2-.418,2.483-.931,4.947-1.3,7.435-.067.477-.9,1.552.358,1.534,1.145-.018,3,.894,3.379-.679.824-3.444,1.78-6.914,1.78-10.5C69.551,19.688,68.18,18.581,65.855,18.732Z"/><path class="cls-3" d="M77,18.838c-3.869,1-6.484,4.807-6.357,9.251a5.345,5.345,0,0,0,6.227,5.388c4.263-.511,7.23-4.128,7.339-8.951C84.309,20.349,81.062,17.786,77,18.838Zm1.762,10.249a2.253,2.253,0,0,1-2.454,1.249c-1.182-.267-1.452-1.259-1.48-2.275a8.514,8.514,0,0,1,1.309-4.908,2.284,2.284,0,0,1,2.6-1.312c1.233.348,1.355,1.444,1.4,2.625A10.178,10.178,0,0,1,78.766,29.087Z"/><path class="cls-3" d="M115.646,19.7c.283-1.059-.585-.9-1.127-.837-1.723.192-1.459-.723-.974-1.71a2.394,2.394,0,0,1,2.477-1.544c1.817.158,1.1-1.426,1.407-2.211.4-1.042-.637-.959-1.236-1.039-3.213-.43-5.888,1.469-6.782,4.872-.246.943-.324,1.645-1.643,1.695-1.072.041-.707,1.35-.961,2.093-.225.659.2.825.79.848,1.237.047.692.979.607,1.5-.441,2.662-.861,5.331-1.5,7.945-.406,1.659-.067,2.286,1.708,1.884,1.692.568,2.159-.4,2.384-1.9.366-2.42.936-4.812,1.288-7.235.215-1.5.57-2.434,2.433-2.27C115.887,21.917,115.439,20.489,115.646,19.7Z"/><path class="cls-3" d="M53.9,18.835a11.263,11.263,0,0,0-1.526-.163,15.365,15.365,0,0,0-1.949.21,4.837,4.837,0,0,0-4.056,3.781c-.435,2.055.775,3.345,2.33,4.405a10.6,10.6,0,0,1,1.2.853c.461.414.881.894.619,1.6a1.6,1.6,0,0,1-1.443.985,4.736,4.736,0,0,1-2.5-.454c-1.446-.635-1.241.7-1.6,1.319-.428.747-.431,1.337.588,1.656a8.52,8.52,0,0,0,6.623-.285,4.224,4.224,0,0,0,.708-7.38c-.575-.456-1.226-.814-1.819-1.247-.462-.336-.871-.774-.684-1.389a1.39,1.39,0,0,1,1.409-.982,4.426,4.426,0,0,1,1.643.109c1.9.749,1.625-.951,1.907-1.767C55.783,18.8,54.578,19.006,53.9,18.835Z"/><path class="cls-3" d="M102.153,18.877c-.892.005-.772.834-.876,1.376-.715,3.672-1.311,7.37-2.115,11.021-.362,1.653-.054,2.33,2.084,1.855.316-.248,1.55.809,1.832-.767.762-4.224,1.581-8.437,2.369-12.656.041-.223.059-.64-.019-.669A9.29,9.29,0,0,0,102.153,18.877Z"/><path class="cls-3" d="M36.733,19.133l0-.007q-.349-2.73-.7-5.46c-.065-.475-.047-1.154-.7-1.1-1.744.148-3.1-.583-4.4-2.2-.127,2.78-.243,5.032-.329,7.281-.275,7.166-.9,14.315-.935,21.491-.12.6.07.751.686.611,2.742-.624,5.5-1.2,8.243-1.814.527-.116,1.053-.235.92-1.059C38.568,30.966,37.658,25.049,36.733,19.133Z"/><path class="cls-3" d="M104.527,12.914a2.127,2.127,0,0,0-2.283,2.291,1.776,1.776,0,0,0,1.964,2.081c1.423-.06,2.151-.969,2.228-2.462C106.335,13.71,105.786,12.9,104.527,12.914Z"/></g></svg>