<svg id="Layer_1" data-name="Layer 1" xmlns="http://www.w3.org/2000/svg" xmlns:xlink="http://www.w3.org/1999/xlink" viewBox="0 0 260 50"><defs><style>.cls-1{fill:none;}.cls-2{clip-path:url(#clip-path);}.cls-3{fill:#1b2d45;}</style><clipPath id="clip-path"><rect class="cls-1" width="260" height="50"/></clipPath></defs><g class="cls-2"><path class="cls-3" d="M21.2,20.55h9.932a8.2,8.2,0,0,1,.141.9,9.887,9.887,0,0,1,.057,1.059,13.469,13.469,0,0,1-.594,4.045,9.582,9.582,0,0,1-1.868,3.392,9.4,9.4,0,0,1-3.254,2.459,10.273,10.273,0,0,1-4.33.871,10.1,10.1,0,0,1-4.159-.871,10.307,10.307,0,0,1-3.4-2.428,11.745,11.745,0,0,1-2.292-3.688,12.454,12.454,0,0,1-.849-4.652,12.461,12.461,0,0,1,.849-4.652A11.756,11.756,0,0,1,13.729,13.3a10.336,10.336,0,0,1,3.4-2.428A10.1,10.1,0,0,1,21.284,10a10.025,10.025,0,0,1,4.4.934,9.919,9.919,0,0,1,3.325,2.583l-2.632,2.832a7.089,7.089,0,0,0-2.207-1.759,6.975,6.975,0,0,0-5.546-.062,6.548,6.548,0,0,0-2.179,1.541A7.408,7.408,0,0,0,14.96,18.48a8.634,8.634,0,0,0-.552,3.159A8.625,8.625,0,0,0,14.96,24.8a7.288,7.288,0,0,0,1.5,2.413,6.714,6.714,0,0,0,2.193,1.54,6.562,6.562,0,0,0,2.66.544,6.529,6.529,0,0,0,2.731-.513,6.376,6.376,0,0,0,1.91-1.322,5.056,5.056,0,0,0,.976-1.416,8.653,8.653,0,0,0,.637-1.914H21.2Z"/><path class="cls-3" d="M40.47,17.033a7.1,7.1,0,0,1,2.958.607,7.012,7.012,0,0,1,2.32,1.68,7.782,7.782,0,0,1,1.528,2.568,9.947,9.947,0,0,1,0,6.535,7.772,7.772,0,0,1-1.528,2.568,7,7,0,0,1-2.32,1.68,7.506,7.506,0,0,1-5.914,0,6.981,6.981,0,0,1-2.321-1.68,7.772,7.772,0,0,1-1.528-2.568,9.964,9.964,0,0,1,0-6.535,7.782,7.782,0,0,1,1.528-2.568,7,7,0,0,1,2.321-1.68A7.089,7.089,0,0,1,40.47,17.033Zm0,12.479a3.346,3.346,0,0,0,1.373-.3,3.482,3.482,0,0,0,1.174-.856,4.108,4.108,0,0,0,.807-1.369,5.823,5.823,0,0,0,0-3.672,4.1,4.1,0,0,0-.807-1.37,3.493,3.493,0,0,0-1.174-.855,3.362,3.362,0,0,0-2.759,0,3.532,3.532,0,0,0-1.16.855,4.1,4.1,0,0,0-.806,1.37,5.8,5.8,0,0,0,0,3.672,4.106,4.106,0,0,0,.806,1.369,3.521,3.521,0,0,0,1.16.856A3.314,3.314,0,0,0,40.47,29.512Z"/><path class="cls-3" d="M56.769,17.033a7.1,7.1,0,0,1,2.958.607,7.012,7.012,0,0,1,2.32,1.68,7.782,7.782,0,0,1,1.528,2.568,9.947,9.947,0,0,1,0,6.535,7.772,7.772,0,0,1-1.528,2.568,7,7,0,0,1-2.32,1.68,7.506,7.506,0,0,1-5.914,0,6.981,6.981,0,0,1-2.321-1.68,7.772,7.772,0,0,1-1.528-2.568,9.947,9.947,0,0,1,0-6.535,7.782,7.782,0,0,1,1.528-2.568,7,7,0,0,1,2.321-1.68A7.089,7.089,0,0,1,56.769,17.033Zm0,12.479a3.346,3.346,0,0,0,1.373-.3,3.482,3.482,0,0,0,1.174-.856,4.108,4.108,0,0,0,.807-1.369,5.823,5.823,0,0,0,0-3.672,4.1,4.1,0,0,0-.807-1.37,3.493,3.493,0,0,0-1.174-.855,3.362,3.362,0,0,0-2.759,0,3.532,3.532,0,0,0-1.16.855,4.1,4.1,0,0,0-.807,1.37,5.823,5.823,0,0,0,0,3.672,4.108,4.108,0,0,0,.807,1.369,3.521,3.521,0,0,0,1.16.856A3.314,3.314,0,0,0,56.769,29.512Z"/><path class="cls-3" d="M72.9,40a7.584,7.584,0,0,1-2.618-.42,7.2,7.2,0,0,1-2-1.09,6.979,6.979,0,0,1-1.414-1.478,5.942,5.942,0,0,1-.821-1.618l3.537-1.556a3.681,3.681,0,0,0,1.3,1.883,3.3,3.3,0,0,0,2.009.669,3.387,3.387,0,0,0,2.773-1.252,5.314,5.314,0,0,0,1.019-3.447V30.633h-.227A4.661,4.661,0,0,1,74.752,32.2a5.171,5.171,0,0,1-2.5.576,5.615,5.615,0,0,1-2.42-.554,6.366,6.366,0,0,1-2.079-1.587,8.318,8.318,0,0,1-1.472-2.481,8.837,8.837,0,0,1-.566-3.236,8.957,8.957,0,0,1,.566-3.251,8.263,8.263,0,0,1,1.472-2.5,6.366,6.366,0,0,1,2.079-1.587,5.6,5.6,0,0,1,2.42-.555,5.171,5.171,0,0,1,2.5.576,4.678,4.678,0,0,1,1.712,1.571h.227V17.531h3.537v14.16a10.5,10.5,0,0,1-.538,3.47,7.648,7.648,0,0,1-1.5,2.614,6.494,6.494,0,0,1-2.306,1.649A7.506,7.506,0,0,1,72.9,40Zm.141-10.892a3.475,3.475,0,0,0,1.344-.275,3.414,3.414,0,0,0,1.175-.809,4.077,4.077,0,0,0,.82-1.314,4.786,4.786,0,0,0,.312-1.788,4.9,4.9,0,0,0-.312-1.8,4.033,4.033,0,0,0-.82-1.329,3.414,3.414,0,0,0-1.175-.809,3.477,3.477,0,0,0-1.344-.276,3.391,3.391,0,0,0-2.49,1.1,4.268,4.268,0,0,0-.82,1.33,5.276,5.276,0,0,0,0,3.575,4.077,4.077,0,0,0,.82,1.314,3.443,3.443,0,0,0,1.16.809A3.375,3.375,0,0,0,73.04,29.108Z"/><path class="cls-3" d="M83.4,32.78V10.5H87.1V32.78Z"/><path class="cls-3" d="M103.261,29.108a8.269,8.269,0,0,1-2.589,3.018A6.707,6.707,0,0,1,96.7,33.278a6.981,6.981,0,0,1-5.263-2.3,7.826,7.826,0,0,1-1.542-2.567,9.234,9.234,0,0,1-.552-3.252,9.087,9.087,0,0,1,.537-3.128,8.1,8.1,0,0,1,1.5-2.583,7.288,7.288,0,0,1,2.278-1.758,6.424,6.424,0,0,1,2.9-.654,6.953,6.953,0,0,1,2.972.607,6.119,6.119,0,0,1,2.179,1.68,7.466,7.466,0,0,1,1.33,2.537,10.717,10.717,0,0,1,.452,3.174V25.4a2.289,2.289,0,0,0-.028.343,1.909,1.909,0,0,0-.028.342H92.989a4.577,4.577,0,0,0,.467,1.6,3.784,3.784,0,0,0,.877,1.12,3.313,3.313,0,0,0,1.146.654,4.088,4.088,0,0,0,1.273.2,3.377,3.377,0,0,0,2.109-.638,4.532,4.532,0,0,0,1.316-1.6ZM99.894,23.2a2.837,2.837,0,0,0-.241-.9,3.188,3.188,0,0,0-.622-.934,3.251,3.251,0,0,0-1.019-.716,3.464,3.464,0,0,0-1.458-.28,3.191,3.191,0,0,0-2.093.747A3.977,3.977,0,0,0,93.187,23.2Z"/><path class="cls-3" d="M112.542,32.78V10.5h6.2a9.615,9.615,0,0,1,7.456,3.081,11.483,11.483,0,0,1,2.816,8.06,11.47,11.47,0,0,1-2.816,8.076,9.641,9.641,0,0,1-7.456,3.065Zm2.6-19.543v16.8h3.594a7.185,7.185,0,0,0,5.575-2.224,8.811,8.811,0,0,0,2.037-6.178,8.821,8.821,0,0,0-2.037-6.162,7.162,7.162,0,0,0-5.575-2.24Z"/><path class="cls-3" d="M136.905,17.033a6.107,6.107,0,0,1,4.557,1.7,6.346,6.346,0,0,1,1.67,4.653v9.4h-2.491V30.664h-.114a4.877,4.877,0,0,1-4.3,2.614,5.294,5.294,0,0,1-3.835-1.494,4.984,4.984,0,0,1-1.542-3.734,4.713,4.713,0,0,1,1.628-3.766,6.429,6.429,0,0,1,4.343-1.4,7.126,7.126,0,0,1,3.82.933v-.653a3.4,3.4,0,0,0-1.075-2.536,3.506,3.506,0,0,0-2.518-1.043,3.908,3.908,0,0,0-3.453,2.023L131.3,20.021A6.213,6.213,0,0,1,136.905,17.033Zm-3.366,11.079a2.365,2.365,0,0,0,.863,1.867,2.994,2.994,0,0,0,2.023.747,3.968,3.968,0,0,0,2.929-1.338,4.387,4.387,0,0,0,1.287-3.143,5.01,5.01,0,0,0-3.4-1.058,4.133,4.133,0,0,0-2.646.84A2.566,2.566,0,0,0,133.539,28.112Z"/><path class="cls-3" d="M151.28,33.029a3.76,3.76,0,0,1-2.815-1.151,4.5,4.5,0,0,1-1.146-3.206V20.145h-2.434V17.531h2.434V12.863h2.6v4.668h3.4v2.614h-3.4v7.594a2.977,2.977,0,0,0,.538,2.069,1.671,1.671,0,0,0,1.217.545,2.385,2.385,0,0,0,.608-.078,3.006,3.006,0,0,0,.552-.2l.82,2.552A6.428,6.428,0,0,1,151.28,33.029Z"/><path class="cls-3" d="M160.789,17.033a6.1,6.1,0,0,1,4.555,1.7,6.346,6.346,0,0,1,1.67,4.653v9.4h-2.49V30.664h-.113a4.877,4.877,0,0,1-4.3,2.614,5.29,5.29,0,0,1-3.834-1.494,4.981,4.981,0,0,1-1.543-3.734,4.715,4.715,0,0,1,1.627-3.766,6.433,6.433,0,0,1,4.343-1.4,7.127,7.127,0,0,1,3.821.933v-.653a3.4,3.4,0,0,0-1.075-2.536,3.5,3.5,0,0,0-2.519-1.043,3.907,3.907,0,0,0-3.452,2.023l-2.293-1.587A6.215,6.215,0,0,1,160.789,17.033Zm-3.368,11.079a2.369,2.369,0,0,0,.863,1.867,3,3,0,0,0,2.024.747,3.97,3.97,0,0,0,2.929-1.338,4.387,4.387,0,0,0,1.287-3.143,5.009,5.009,0,0,0-3.4-1.058,4.127,4.127,0,0,0-2.646.84A2.562,2.562,0,0,0,157.421,28.112Z"/><path class="cls-3" d="M188.292,26.836a6.041,6.041,0,0,1-1.952,4.7,7.026,7.026,0,0,1-4.81,1.743,6.7,6.7,0,0,1-4.442-1.618,8.368,8.368,0,0,1-2.662-4.419l2.491-1.121a7.487,7.487,0,0,0,.708,1.8,5.723,5.723,0,0,0,1.061,1.385,4.753,4.753,0,0,0,1.344.9,3.782,3.782,0,0,0,1.556.326,4.213,4.213,0,0,0,2.915-1.011,3.435,3.435,0,0,0,1.132-2.692,3.376,3.376,0,0,0-.934-2.4,8.657,8.657,0,0,0-3.283-1.867,31.2,31.2,0,0,1-3.027-1.308,5.764,5.764,0,0,1-3.226-5.321,5.665,5.665,0,0,1,1.782-4.2A6.166,6.166,0,0,1,181.388,10a6.4,6.4,0,0,1,4.019,1.307,6.079,6.079,0,0,1,2.263,3.206l-2.434,1.12a3.967,3.967,0,0,0-1.344-2.07,4.03,4.03,0,0,0-5.023.109,2.817,2.817,0,0,0-1.046,2.272,2.755,2.755,0,0,0,.82,1.992,13.6,13.6,0,0,0,3.934,1.991,9.9,9.9,0,0,1,4.4,2.817A6.4,6.4,0,0,1,188.292,26.836Z"/><path class="cls-3" d="M195.764,33.029a3.76,3.76,0,0,1-2.816-1.151,4.5,4.5,0,0,1-1.146-3.206V20.145h-2.434V17.531H191.8V12.863h2.6v4.668h3.4v2.614h-3.4v7.594a2.977,2.977,0,0,0,.538,2.069,1.671,1.671,0,0,0,1.217.545,2.385,2.385,0,0,0,.608-.078,2.979,2.979,0,0,0,.552-.2l.821,2.552A6.435,6.435,0,0,1,195.764,33.029Z"/><path class="cls-3" d="M212.459,32.78h-2.49V30.664h-.113a5.236,5.236,0,0,1-8.306,1.011,6.806,6.806,0,0,1-1.372-4.559V17.531h2.6v9.4q.085,3.733,3.425,3.734a3.152,3.152,0,0,0,2.6-1.385,5.335,5.335,0,0,0,1.048-3.314V17.531h2.6Z"/><path class="cls-3" d="M221.287,33.278a5.88,5.88,0,0,1-4.669-2.365,8.914,8.914,0,0,1-1.924-5.757,8.915,8.915,0,0,1,1.924-5.758,5.883,5.883,0,0,1,4.669-2.365,5.547,5.547,0,0,1,2.789.716,5.071,5.071,0,0,1,1.937,1.9h.114l-.114-2.116V10.5h2.6V32.78h-2.49V30.664h-.114a5.064,5.064,0,0,1-1.937,1.9A5.547,5.547,0,0,1,221.287,33.278Zm.426-2.614a3.836,3.836,0,0,0,3.14-1.525,6.006,6.006,0,0,0,1.274-3.983,6.038,6.038,0,0,0-1.274-3.953,3.861,3.861,0,0,0-3.14-1.556,3.912,3.912,0,0,0-3.142,1.556,6.038,6.038,0,0,0-1.273,3.953,5.957,5.957,0,0,0,1.273,3.952A3.912,3.912,0,0,0,221.713,30.664Z"/><path class="cls-3" d="M235.153,12.272a2.047,2.047,0,0,1-.538,1.431,1.727,1.727,0,0,1-2.6,0,2.177,2.177,0,0,1,0-2.863,1.729,1.729,0,0,1,2.6,0A2.053,2.053,0,0,1,235.153,12.272Zm-.538,5.259V32.78h-2.6V17.531Z"/><path class="cls-3" d="M237.077,25.156a8.528,8.528,0,0,1,2.01-5.82,6.547,6.547,0,0,1,5.121-2.3,6.468,6.468,0,0,1,5.094,2.3,8.463,8.463,0,0,1,2.037,5.82,8.386,8.386,0,0,1-2.037,5.819,6.465,6.465,0,0,1-5.094,2.3,6.544,6.544,0,0,1-5.121-2.3A8.523,8.523,0,0,1,237.077,25.156Zm2.6,0a5.919,5.919,0,0,0,1.3,3.983,4.175,4.175,0,0,0,6.452,0,5.924,5.924,0,0,0,1.3-3.983,5.88,5.88,0,0,0-1.3-3.953,4.122,4.122,0,0,0-6.452,0A5.875,5.875,0,0,0,239.68,25.156Z"/></g></svg>