<svg id="Layer_1" data-name="Layer 1" xmlns="http://www.w3.org/2000/svg" xmlns:xlink="http://www.w3.org/1999/xlink" viewBox="0 0 119.882 50"><defs><style>.cls-1{fill:none;}.cls-2{clip-path:url(#clip-path);}.cls-3{fill:#1b2d45;fill-rule:evenodd;}</style><clipPath id="clip-path"><rect class="cls-1" width="120" height="50"/></clipPath></defs><g class="cls-2"><path class="cls-3" d="M71.457,30.123h-.032c.015,0,.024.014.038.017h.01Zm.006.017c-.146,0-.515.077-.9.077-1.228,0-1.653-.566-1.653-1.306V23.984h2.5a.273.273,0,0,0,.252-.3V21.009a.274.274,0,0,0-.252-.268h-2.5V17.42a.2.2,0,0,0-.221-.205h-3.4a.2.2,0,0,0-.22.205v3.416s-1.716.425-1.826.44a.271.271,0,0,0-.205.268v2.141a.284.284,0,0,0,.268.3H65.05v5.163c0,3.841,2.676,4.234,4.5,4.234a6.723,6.723,0,0,0,2-.346.252.252,0,0,0,.142-.252V30.422A.278.278,0,0,0,71.463,30.14Zm37.3-3.464c0-2.849-1.149-3.227-2.361-3.1a4.088,4.088,0,0,0-1.7.535v5.541a3.819,3.819,0,0,0,1.92.566C108.244,30.265,108.763,29.682,108.763,26.676Zm3.825-.252c0,5.4-1.747,6.942-4.8,6.942a6.027,6.027,0,0,1-3.967-1.307,3.706,3.706,0,0,1-.141.819.224.224,0,0,1-.221.126h-2.329a.294.294,0,0,1-.3-.268l.031-17.488a.276.276,0,0,1,.268-.268h3.353a.276.276,0,0,1,.267.268v5.934a6.339,6.339,0,0,1,3.18-.834l-.016-.032C109.8,20.316,112.588,21.025,112.588,26.424ZM98.862,20.741H95.556a.265.265,0,0,0-.267.3V29.6a3.867,3.867,0,0,1-2.047.614c-1.18,0-1.526-.535-1.526-1.715V21.025a.276.276,0,0,0-.268-.268H88.079a.276.276,0,0,0-.267.268v8.043c0,3.463,1.936,4.329,4.6,4.329a7.846,7.846,0,0,0,3.967-1.212,5.726,5.726,0,0,0,.126.708.278.278,0,0,0,.252.142h2.109a.256.256,0,0,0,.268-.268l.031-11.758A.284.284,0,0,0,98.862,20.741Zm-37.306-.015H58.2a.3.3,0,0,0-.268.314V32.594c0,.315.2.425.473.425H61.43c.315,0,.393-.141.393-.425v-11.6A.275.275,0,0,0,61.556,20.726ZM59.9,15.405a2.173,2.173,0,1,0,2.141,2.172A2.156,2.156,0,0,0,59.9,15.405Zm25.957-.393H82.539a.275.275,0,0,0-.268.267v6.438h-5.21V15.279a.275.275,0,0,0-.268-.267H73.44a.275.275,0,0,0-.267.267V32.767a.287.287,0,0,0,.267.268h3.353a.276.276,0,0,0,.268-.268V25.29h5.21l-.031,7.477a.275.275,0,0,0,.267.268H85.86a.276.276,0,0,0,.268-.268V15.279A.275.275,0,0,0,85.86,15.012Zm-29.7,7.744v9.036c0,.062-.016.173-.095.2a9.568,9.568,0,0,1-5.21,1.4c-3.92,0-8.563-1.228-8.563-9.319s4.061-9.759,8.028-9.743c3.431,0,4.816.771,5.037.913a.336.336,0,0,1,.094.22l-.661,2.8a.271.271,0,0,1-.315.268,9.413,9.413,0,0,0-3.416-.52c-2.313,0-4.8.661-4.8,5.871s2.362,5.825,4.062,5.825a7.214,7.214,0,0,0,1.967-.173V25.92H49.97a.284.284,0,0,1-.3-.268v-2.9a.283.283,0,0,1,.3-.267h5.888A.283.283,0,0,1,56.157,22.756Z"/><path class="cls-3" d="M23.181,10A12.593,12.593,0,0,0,19.2,34.54c.629.11.865-.267.865-.6,0-.3-.015-1.291-.015-2.345-3.164.582-3.983-.772-4.235-1.48a4.565,4.565,0,0,0-1.291-1.779c-.44-.236-1.07-.818-.015-.834A2.52,2.52,0,0,1,16.444,28.8a2.693,2.693,0,0,0,3.668,1.039,2.649,2.649,0,0,1,.8-1.685c-2.8-.314-5.729-1.4-5.729-6.217a4.906,4.906,0,0,1,1.29-3.385A4.527,4.527,0,0,1,16.6,15.21s1.055-.33,3.463,1.291a11.875,11.875,0,0,1,6.3,0c2.408-1.637,3.463-1.291,3.463-1.291a4.527,4.527,0,0,1,.126,3.337,4.872,4.872,0,0,1,1.29,3.385c0,4.832-2.943,5.9-5.745,6.217a2.986,2.986,0,0,1,.85,2.33c0,1.684-.016,3.038-.016,3.463,0,.331.236.724.866.6A12.6,12.6,0,0,0,23.181,10Z"/></g></svg>