<svg id="Layer_1" data-name="Layer 1" xmlns="http://www.w3.org/2000/svg" xmlns:xlink="http://www.w3.org/1999/xlink" viewBox="0 0 110 50"><defs><style>.cls-1{fill:none;}.cls-2{clip-path:url(#clip-path);}.cls-3{fill:#1b2d45;}.cls-4{opacity:0.8;}.cls-5{opacity:0.7;}</style><clipPath id="clip-path"><rect class="cls-1" width="110" height="50"/></clipPath></defs><g class="cls-2"><path class="cls-3" d="M40.052,27.551v5.5h-1.5V20.222h6.811V21.8H40.052V26.01h4.791v1.541Z"/><path class="cls-3" d="M48.574,21.243a1.18,1.18,0,0,1-.31.825,1,1,0,0,1-1.5,0,1.255,1.255,0,0,1,0-1.649.994.994,0,0,1,1.5,0A1.18,1.18,0,0,1,48.574,21.243Zm-.31,3.029v8.781h-1.5V24.272Z"/><path class="cls-3" d="M51.719,33.053h-1.5V24.272h1.433v1.434h.066a2.329,2.329,0,0,1,.937-1.192,2.433,2.433,0,0,1,1.393-.493,2.591,2.591,0,0,1,1.108.215L54.7,25.831a2.291,2.291,0,0,0-.88-.125,1.871,1.871,0,0,0-1.475.752,2.661,2.661,0,0,0-.627,1.756Z"/><path class="cls-3" d="M59.231,33.34a3.655,3.655,0,0,1-2.9-1.327,4.956,4.956,0,0,1-1.14-3.351A5.057,5.057,0,0,1,56.3,25.32a3.734,3.734,0,0,1,5.662-.071,5.378,5.378,0,0,1,1.051,3.539L63,28.967H56.721a3.015,3.015,0,0,0,.782,2.079,2.386,2.386,0,0,0,1.793.788,2.484,2.484,0,0,0,2.248-1.577l1.337.717a4.241,4.241,0,0,1-1.491,1.738A3.837,3.837,0,0,1,59.231,33.34Zm-2.4-5.735h4.579a2.277,2.277,0,0,0-.676-1.514,2.237,2.237,0,0,0-1.638-.6,2.057,2.057,0,0,0-1.458.573A2.815,2.815,0,0,0,56.835,27.605Z"/><path class="cls-3" d="M68.6,33.34a3.187,3.187,0,0,1-1.6-.413,2.917,2.917,0,0,1-1.116-1.093h-.065v1.219H64.38V20.222h1.5v4.05l-.065,1.219h.065A2.92,2.92,0,0,1,67,24.4a3.2,3.2,0,0,1,1.6-.412,3.312,3.312,0,0,1,2.673,1.362,5.452,5.452,0,0,1,0,6.631A3.312,3.312,0,0,1,68.6,33.34Zm-.244-1.506a2.252,2.252,0,0,0,1.809-.9,3.435,3.435,0,0,0,.733-2.276,3.479,3.479,0,0,0-.733-2.275,2.29,2.29,0,0,0-3.634,0,3.527,3.527,0,0,0-.717,2.275,3.556,3.556,0,0,0,.717,2.294A2.281,2.281,0,0,0,68.356,31.834Z"/><path class="cls-3" d="M76.8,23.985a3.516,3.516,0,0,1,2.624.977,3.652,3.652,0,0,1,.961,2.679v5.412H78.947V31.834h-.065a2.809,2.809,0,0,1-2.477,1.506,3.047,3.047,0,0,1-2.208-.861,2.869,2.869,0,0,1-.888-2.15,2.712,2.712,0,0,1,.937-2.168,3.7,3.7,0,0,1,2.5-.807,4.1,4.1,0,0,1,2.2.538v-.376a1.957,1.957,0,0,0-.619-1.461,2.017,2.017,0,0,0-1.45-.6A2.248,2.248,0,0,0,74.89,26.62l-1.32-.914A3.576,3.576,0,0,1,76.8,23.985Zm-1.939,6.38a1.365,1.365,0,0,0,.5,1.075,1.723,1.723,0,0,0,1.165.43,2.288,2.288,0,0,0,1.687-.77,2.527,2.527,0,0,0,.741-1.81,2.885,2.885,0,0,0-1.955-.61,2.382,2.382,0,0,0-1.524.484A1.478,1.478,0,0,0,74.857,30.365Z"/><path class="cls-3" d="M88.105,30.616a2.461,2.461,0,0,1-.913,1.935,3.67,3.67,0,0,1-4.416.1,3.775,3.775,0,0,1-1.3-1.819l1.336-.627a2.722,2.722,0,0,0,.855,1.227,1.955,1.955,0,0,0,1.231.439,2.022,2.022,0,0,0,1.2-.34.98.98,0,0,0,.48-.807q0-.841-1.173-1.236l-1.369-.377q-2.33-.645-2.33-2.473a2.363,2.363,0,0,1,.888-1.926,3.475,3.475,0,0,1,2.273-.726,3.436,3.436,0,0,1,1.915.556,2.953,2.953,0,0,1,1.2,1.487l-1.337.609a1.792,1.792,0,0,0-.741-.869,2.159,2.159,0,0,0-1.149-.313,1.8,1.8,0,0,0-1.051.322.94.94,0,0,0-.464.789q0,.753,1.287,1.075l1.206.34Q88.1,28.627,88.105,30.616Z"/><path class="cls-3" d="M93.074,33.34a3.655,3.655,0,0,1-2.9-1.327,4.957,4.957,0,0,1-1.141-3.351,5.062,5.062,0,0,1,1.108-3.342,3.522,3.522,0,0,1,2.836-1.335A3.486,3.486,0,0,1,95.8,25.249a5.378,5.378,0,0,1,1.051,3.539l-.016.179H90.565a3.01,3.01,0,0,0,.782,2.079,2.386,2.386,0,0,0,1.793.788,2.484,2.484,0,0,0,2.248-1.577l1.337.717a4.241,4.241,0,0,1-1.491,1.738A3.838,3.838,0,0,1,93.074,33.34Zm-2.395-5.735h4.579a2.272,2.272,0,0,0-.676-1.514,2.235,2.235,0,0,0-1.638-.6,2.057,2.057,0,0,0-1.458.573A2.809,2.809,0,0,0,90.679,27.605Z"/><g class="cls-4"><path class="cls-3" d="M24.458,20.228l-2.909,2.893-.141.141h0L10.663,33.953h0a.46.46,0,0,1-.029-.059l7.281-14.147.992-1.929,1.587-3.083a.725.725,0,0,1,1.3.014L24.4,20.117Z"/></g><g class="cls-5"><path class="cls-3" d="M21.549,23.121l-.141.141h0L10.663,33.953h0a.46.46,0,0,1-.029-.059,1.036,1.036,0,0,1-.046-.116l2.453-15.162,1.34-8.285a.394.394,0,0,1,.74-.113l3.786,7.6,2.6,5.218Z"/></g><path class="cls-3" d="M32.024,33.951a1.012,1.012,0,0,1-.379.4l-2.639,1.566-6.24,3.707a2.7,2.7,0,0,1-2.745.008l-6.358-3.725-2.62-1.556a1.031,1.031,0,0,1-.38-.4h0L21.344,23.2l.162-.163,2.9-2.918,3.682-3.706a.74.74,0,0,1,1.255.4l2.793,16.484A1.026,1.026,0,0,1,32.024,33.951Z"/></g></svg>