<svg id="Layer_1" data-name="Layer 1" xmlns="http://www.w3.org/2000/svg" xmlns:xlink="http://www.w3.org/1999/xlink" viewBox="0 0 230 50"><defs><style>.cls-1{fill:none;}.cls-2{clip-path:url(#clip-path);}.cls-3{fill:#1b2d45;}</style><clipPath id="clip-path"><rect class="cls-1" width="230" height="50"/></clipPath></defs><g class="cls-2"><path class="cls-3" d="M21.2,20.55h9.932a8.2,8.2,0,0,1,.141.9,9.887,9.887,0,0,1,.057,1.059,13.469,13.469,0,0,1-.594,4.045,9.582,9.582,0,0,1-1.868,3.392,9.4,9.4,0,0,1-3.254,2.459,10.273,10.273,0,0,1-4.33.871,10.1,10.1,0,0,1-4.159-.871,10.307,10.307,0,0,1-3.4-2.428,11.745,11.745,0,0,1-2.292-3.688,12.454,12.454,0,0,1-.849-4.652,12.461,12.461,0,0,1,.849-4.652A11.756,11.756,0,0,1,13.729,13.3a10.336,10.336,0,0,1,3.4-2.428A10.1,10.1,0,0,1,21.284,10a10.025,10.025,0,0,1,4.4.934,9.919,9.919,0,0,1,3.325,2.583l-2.632,2.832a7.089,7.089,0,0,0-2.207-1.759,6.975,6.975,0,0,0-5.546-.062,6.548,6.548,0,0,0-2.179,1.541A7.408,7.408,0,0,0,14.96,18.48a8.634,8.634,0,0,0-.552,3.159A8.625,8.625,0,0,0,14.96,24.8a7.288,7.288,0,0,0,1.5,2.413,6.714,6.714,0,0,0,2.193,1.54,6.562,6.562,0,0,0,2.66.544,6.529,6.529,0,0,0,2.731-.513,6.376,6.376,0,0,0,1.91-1.322,5.056,5.056,0,0,0,.976-1.416,8.653,8.653,0,0,0,.637-1.914H21.2Z"/><path class="cls-3" d="M40.47,17.033a7.1,7.1,0,0,1,2.958.607,7.012,7.012,0,0,1,2.32,1.68,7.782,7.782,0,0,1,1.528,2.568,9.947,9.947,0,0,1,0,6.535,7.772,7.772,0,0,1-1.528,2.568,7,7,0,0,1-2.32,1.68,7.506,7.506,0,0,1-5.914,0,6.981,6.981,0,0,1-2.321-1.68,7.772,7.772,0,0,1-1.528-2.568,9.964,9.964,0,0,1,0-6.535,7.782,7.782,0,0,1,1.528-2.568,7,7,0,0,1,2.321-1.68A7.089,7.089,0,0,1,40.47,17.033Zm0,12.479a3.346,3.346,0,0,0,1.373-.3,3.482,3.482,0,0,0,1.174-.856,4.108,4.108,0,0,0,.807-1.369,5.823,5.823,0,0,0,0-3.672,4.1,4.1,0,0,0-.807-1.37,3.493,3.493,0,0,0-1.174-.855,3.362,3.362,0,0,0-2.759,0,3.532,3.532,0,0,0-1.16.855,4.1,4.1,0,0,0-.806,1.37,5.8,5.8,0,0,0,0,3.672,4.106,4.106,0,0,0,.806,1.369,3.521,3.521,0,0,0,1.16.856A3.314,3.314,0,0,0,40.47,29.512Z"/><path class="cls-3" d="M56.769,17.033a7.1,7.1,0,0,1,2.958.607,7.012,7.012,0,0,1,2.32,1.68,7.782,7.782,0,0,1,1.528,2.568,9.947,9.947,0,0,1,0,6.535,7.772,7.772,0,0,1-1.528,2.568,7,7,0,0,1-2.32,1.68,7.506,7.506,0,0,1-5.914,0,6.981,6.981,0,0,1-2.321-1.68,7.772,7.772,0,0,1-1.528-2.568,9.947,9.947,0,0,1,0-6.535,7.782,7.782,0,0,1,1.528-2.568,7,7,0,0,1,2.321-1.68A7.089,7.089,0,0,1,56.769,17.033Zm0,12.479a3.346,3.346,0,0,0,1.373-.3,3.482,3.482,0,0,0,1.174-.856,4.108,4.108,0,0,0,.807-1.369,5.823,5.823,0,0,0,0-3.672,4.1,4.1,0,0,0-.807-1.37,3.493,3.493,0,0,0-1.174-.855,3.362,3.362,0,0,0-2.759,0,3.532,3.532,0,0,0-1.16.855,4.1,4.1,0,0,0-.807,1.37,5.823,5.823,0,0,0,0,3.672,4.108,4.108,0,0,0,.807,1.369,3.521,3.521,0,0,0,1.16.856A3.314,3.314,0,0,0,56.769,29.512Z"/><path class="cls-3" d="M72.9,40a7.584,7.584,0,0,1-2.618-.42,7.2,7.2,0,0,1-2-1.09,6.979,6.979,0,0,1-1.414-1.478,5.942,5.942,0,0,1-.821-1.618l3.537-1.556a3.681,3.681,0,0,0,1.3,1.883,3.3,3.3,0,0,0,2.009.669,3.387,3.387,0,0,0,2.773-1.252,5.314,5.314,0,0,0,1.019-3.447V30.633h-.227A4.661,4.661,0,0,1,74.752,32.2a5.171,5.171,0,0,1-2.5.576,5.615,5.615,0,0,1-2.42-.554,6.366,6.366,0,0,1-2.079-1.587,8.318,8.318,0,0,1-1.472-2.481,8.837,8.837,0,0,1-.566-3.236,8.957,8.957,0,0,1,.566-3.251,8.263,8.263,0,0,1,1.472-2.5,6.366,6.366,0,0,1,2.079-1.587,5.6,5.6,0,0,1,2.42-.555,5.171,5.171,0,0,1,2.5.576,4.678,4.678,0,0,1,1.712,1.571h.227V17.531h3.537v14.16a10.5,10.5,0,0,1-.538,3.47,7.648,7.648,0,0,1-1.5,2.614,6.494,6.494,0,0,1-2.306,1.649A7.506,7.506,0,0,1,72.9,40Zm.141-10.892a3.475,3.475,0,0,0,1.344-.275,3.414,3.414,0,0,0,1.175-.809,4.077,4.077,0,0,0,.82-1.314,4.786,4.786,0,0,0,.312-1.788,4.9,4.9,0,0,0-.312-1.8,4.033,4.033,0,0,0-.82-1.329,3.414,3.414,0,0,0-1.175-.809,3.477,3.477,0,0,0-1.344-.276,3.391,3.391,0,0,0-2.49,1.1,4.268,4.268,0,0,0-.82,1.33,5.276,5.276,0,0,0,0,3.575,4.077,4.077,0,0,0,.82,1.314,3.443,3.443,0,0,0,1.16.809A3.375,3.375,0,0,0,73.04,29.108Z"/><path class="cls-3" d="M83.4,32.78V10.5H87.1V32.78Z"/><path class="cls-3" d="M103.261,29.108a8.269,8.269,0,0,1-2.589,3.018A6.707,6.707,0,0,1,96.7,33.278a6.981,6.981,0,0,1-5.263-2.3,7.826,7.826,0,0,1-1.542-2.567,9.234,9.234,0,0,1-.552-3.252,9.087,9.087,0,0,1,.537-3.128,8.1,8.1,0,0,1,1.5-2.583,7.288,7.288,0,0,1,2.278-1.758,6.424,6.424,0,0,1,2.9-.654,6.953,6.953,0,0,1,2.972.607,6.119,6.119,0,0,1,2.179,1.68,7.466,7.466,0,0,1,1.33,2.537,10.717,10.717,0,0,1,.452,3.174V25.4a2.289,2.289,0,0,0-.028.343,1.909,1.909,0,0,0-.028.342H92.989a4.577,4.577,0,0,0,.467,1.6,3.784,3.784,0,0,0,.877,1.12,3.313,3.313,0,0,0,1.146.654,4.088,4.088,0,0,0,1.273.2,3.377,3.377,0,0,0,2.109-.638,4.532,4.532,0,0,0,1.316-1.6ZM99.894,23.2a2.837,2.837,0,0,0-.241-.9,3.188,3.188,0,0,0-.622-.934,3.251,3.251,0,0,0-1.019-.716,3.464,3.464,0,0,0-1.458-.28,3.191,3.191,0,0,0-2.093.747A3.977,3.977,0,0,0,93.187,23.2Z"/><path class="cls-3" d="M113.73,32.78h-2.886L118.485,10.5h2.942l7.641,22.282h-2.886l-1.953-6.038h-8.517ZM119.9,14.014l-3.31,10.052h6.734l-3.311-10.052Z"/><path class="cls-3" d="M136.368,33.278a5.879,5.879,0,0,1-4.669-2.365,8.908,8.908,0,0,1-1.924-5.757A8.909,8.909,0,0,1,131.7,19.4a5.881,5.881,0,0,1,4.669-2.365,5.546,5.546,0,0,1,2.788.716,5.074,5.074,0,0,1,1.938,1.9h.113l-.113-2.116V10.5h2.6V32.78h-2.49V30.664h-.113a5.066,5.066,0,0,1-1.938,1.9A5.546,5.546,0,0,1,136.368,33.278Zm.425-2.614a3.833,3.833,0,0,0,3.14-1.525,6.006,6.006,0,0,0,1.274-3.983,6.038,6.038,0,0,0-1.274-3.953,3.858,3.858,0,0,0-3.14-1.556,3.912,3.912,0,0,0-3.141,1.556,6.038,6.038,0,0,0-1.274,3.953,5.958,5.958,0,0,0,1.274,3.952A3.912,3.912,0,0,0,136.793,30.664Z"/><path class="cls-3" d="M159.826,26.836a6.038,6.038,0,0,1-1.953,4.7,7.024,7.024,0,0,1-4.809,1.743,6.7,6.7,0,0,1-4.443-1.618,8.36,8.36,0,0,1-2.661-4.419l2.49-1.121a7.488,7.488,0,0,0,.709,1.8,5.723,5.723,0,0,0,1.061,1.385,4.753,4.753,0,0,0,1.344.9,3.782,3.782,0,0,0,1.556.326,4.213,4.213,0,0,0,2.915-1.011,3.435,3.435,0,0,0,1.132-2.692,3.377,3.377,0,0,0-.935-2.4,8.651,8.651,0,0,0-3.282-1.867,31.381,31.381,0,0,1-3.028-1.308,5.763,5.763,0,0,1-3.225-5.321,5.665,5.665,0,0,1,1.782-4.2A6.166,6.166,0,0,1,152.922,10a6.4,6.4,0,0,1,4.019,1.307,6.079,6.079,0,0,1,2.263,3.206l-2.434,1.12a3.967,3.967,0,0,0-1.344-2.07,4.03,4.03,0,0,0-5.023.109,2.818,2.818,0,0,0-1.047,2.272,2.756,2.756,0,0,0,.821,1.992,13.6,13.6,0,0,0,3.934,1.991,9.9,9.9,0,0,1,4.4,2.817A6.4,6.4,0,0,1,159.826,26.836Z"/><path class="cls-3" d="M168.74,33.278a6.35,6.35,0,0,1-5.037-2.3,8.609,8.609,0,0,1-1.98-5.819,8.782,8.782,0,0,1,1.924-5.8,6.486,6.486,0,0,1,9.833-.125,9.345,9.345,0,0,1,1.825,6.146l-.028.312H164.383a5.218,5.218,0,0,0,1.358,3.609,4.141,4.141,0,0,0,3.113,1.37q2.488,0,3.9-2.739l2.32,1.245a7.351,7.351,0,0,1-2.588,3.019A6.672,6.672,0,0,1,168.74,33.278Zm-4.16-9.958h7.951a3.945,3.945,0,0,0-1.173-2.63,3.883,3.883,0,0,0-2.844-1.043,3.577,3.577,0,0,0-2.533,1A4.88,4.88,0,0,0,164.58,23.32Z"/><path class="cls-3" d="M177.683,17.531h2.49v2.116h.113a5.235,5.235,0,0,1,8.305-1.011,6.808,6.808,0,0,1,1.372,4.559V32.78h-2.6v-9.4q-.086-3.735-3.425-3.735a3.155,3.155,0,0,0-2.6,1.385,5.336,5.336,0,0,0-1.046,3.314V32.78h-2.6Z"/><path class="cls-3" d="M203.49,28.548a4.277,4.277,0,0,1-1.585,3.361,6.377,6.377,0,0,1-7.669.171,6.554,6.554,0,0,1-2.264-3.159l2.321-1.089a4.719,4.719,0,0,0,1.485,2.132,3.4,3.4,0,0,0,2.137.762,3.509,3.509,0,0,0,2.08-.591,1.7,1.7,0,0,0,.834-1.4q0-1.462-2.036-2.148l-2.378-.653q-4.046-1.12-4.046-4.3a4.1,4.1,0,0,1,1.542-3.345,6.524,6.524,0,0,1,7.272-.3,5.113,5.113,0,0,1,2.08,2.583l-2.32,1.058a3.108,3.108,0,0,0-1.288-1.509,3.749,3.749,0,0,0-1.994-.545,3.128,3.128,0,0,0-1.826.56,1.638,1.638,0,0,0-.807,1.369q0,1.308,2.236,1.868l2.095.591Q203.489,25.094,203.49,28.548Z"/><path class="cls-3" d="M212.119,33.278a6.35,6.35,0,0,1-5.037-2.3,8.609,8.609,0,0,1-1.98-5.819,8.782,8.782,0,0,1,1.924-5.8,6.486,6.486,0,0,1,9.833-.125,9.345,9.345,0,0,1,1.825,6.146l-.028.312H207.762a5.218,5.218,0,0,0,1.358,3.609,4.141,4.141,0,0,0,3.113,1.37q2.488,0,3.9-2.739l2.321,1.245a7.36,7.36,0,0,1-2.589,3.019A6.672,6.672,0,0,1,212.119,33.278Zm-4.16-9.958h7.951a3.945,3.945,0,0,0-1.173-2.63,3.883,3.883,0,0,0-2.844-1.043,3.577,3.577,0,0,0-2.533,1A4.88,4.88,0,0,0,207.959,23.32Z"/></g></svg>