<svg id="Layer_1" data-name="Layer 1" xmlns="http://www.w3.org/2000/svg" xmlns:xlink="http://www.w3.org/1999/xlink" viewBox="0 0 100 50"><defs><style>.cls-1{fill:none;}.cls-2{clip-path:url(#clip-path);}.cls-3,.cls-4{fill:#1b2d45;}.cls-3{fill-rule:evenodd;}</style><clipPath id="clip-path"><rect class="cls-1" width="100" height="50"/></clipPath></defs><g class="cls-2"><g id="Page-1"><g id="logo-hotjar"><path id="Path" class="cls-3" d="M14.684,21.918a4.979,4.979,0,0,1,2.6-.724c1.247,0,1.633.734,1.633,1.814v8.063a1.185,1.185,0,0,0,.336,1,1.171,1.171,0,0,0,1,.33h2.028a1.173,1.173,0,0,0,1.01-.325,1.186,1.186,0,0,0,.339-1.01V22.305c0-2.8-1.146-4.9-5.071-4.9a7.8,7.8,0,0,0-3.784.938V11.816a1.2,1.2,0,0,0-.362-1.052,1.183,1.183,0,0,0-1.068-.294H11.317a1.178,1.178,0,0,0-.979.352,1.19,1.19,0,0,0-.32.994V31.03a1.192,1.192,0,0,0,.317,1.035,1.173,1.173,0,0,0,1.022.341h2.029a1.171,1.171,0,0,0,.993-.36,1.188,1.188,0,0,0,.3-1.016Z"/><path id="Shape" class="cls-3" d="M32.552,21.178c1.6,0,2.171,1.015,2.171,3.948s-.575,3.949-2.171,3.949-2.181-1.015-2.181-3.949S30.957,21.178,32.552,21.178Zm0,11.622c5.372,0,6.816-3.136,6.816-7.674s-1.444-7.673-6.816-7.673-6.826,3.136-6.826,7.673S27.18,32.8,32.552,32.8Z"/><path id="Path-2" data-name="Path" class="cls-3" d="M42.633,18.036l-1.324.355c-.845.232-1.171.617-1.171,1.367v.658a1.179,1.179,0,0,0,.341,1,1.194,1.194,0,0,0,1.014.331h1.14v5.914c0,3.423,1.5,5.134,5.653,5.134a7.147,7.147,0,0,0,1.314-.122,1.419,1.419,0,0,0,1.182-1.448v-.951a1.191,1.191,0,0,0-.366-.881,1.21,1.21,0,0,0-.9-.335h-.285c-1.5,0-1.936-.648-1.936-1.772V21.752H49.56a1.183,1.183,0,0,0,1.014-.323,1.168,1.168,0,0,0,.34-1V19.271a1.179,1.179,0,0,0-.34-1.005,1.2,1.2,0,0,0-1.014-.331H47.278v-2.43c0-.9-.53-1.509-1.762-1.185l-1.518.4c-1.018.283-1.4.607-1.4,1.448Z"/><path id="Path-3" data-name="Path" class="cls-3" d="M58.682,19.184a1.184,1.184,0,0,0-.329-1.008,1.157,1.157,0,0,0-1-.331H55.416a1.158,1.158,0,0,0-1,.331,1.186,1.186,0,0,0-.328,1.008V34.137a1.742,1.742,0,0,1-.425,1.324,1.71,1.71,0,0,1-1.253.583c-1.005.121-1.3.679-1.3,1.318v1.329c0,.873.663,1.309,1.728,1.309,3.014,0,5.838-1.572,5.838-5.519Z"/><path id="Shape-2" data-name="Shape" class="cls-3" d="M68.939,25.683V28.9a3.036,3.036,0,0,1-2.1.7,1.6,1.6,0,0,1-1.693-1.715c0-1.137.527-1.766,1.845-1.949Zm-1.723-4.475c1.257,0,1.723.345,1.723,1.015v.923l-2.656.264c-2.615.264-5.5.842-5.5,4.77,0,2.182,1.257,4.618,4.957,4.618a6.356,6.356,0,0,0,4.278-1.512l.121.213c.375.67.639.893,1.369.893h.618a1.167,1.167,0,0,0,1.338-1.33V22.943c0-3.247-1.014-5.49-6.244-5.49a15.97,15.97,0,0,0-4.481.669,1.442,1.442,0,0,0-1.013,1.543v.782a1.358,1.358,0,0,0,1.834,1.309,17.386,17.386,0,0,1,3.67-.548Z"/><path id="Path-4" data-name="Path" class="cls-3" d="M85.215,18.76c0-.811-.4-1.307-1.711-1.307A6.825,6.825,0,0,0,79.315,18.9c-.413-.72-.5-1.014-1.309-1.014h-.725a1.166,1.166,0,0,0-1.005.334,1.18,1.18,0,0,0-.324,1.014V31.091a1.178,1.178,0,0,0,.338.992,1.163,1.163,0,0,0,.991.325H79.3a1.164,1.164,0,0,0,1-.328,1.181,1.181,0,0,0,.334-1V22.164a5.928,5.928,0,0,1,3.292-.9,1.182,1.182,0,0,0,.957-.344,1.2,1.2,0,0,0,.342-.963Z"/><path id="Path-5" data-name="Path" class="cls-4" d="M60.6,7.765C58.891,4.676,53.876,4,53.876,4a2.958,2.958,0,0,1-.636,4.613c-1.867,1.282-2.6,2.948-1.806,4.775a3.926,3.926,0,0,0,3.35,2.17,3.951,3.951,0,0,1-.182-2.7l.091-.313a1.585,1.585,0,0,0,1.665.787,1.857,1.857,0,0,0,1.07-2.261,2.411,2.411,0,0,0-.253-.656h.1c1.07.3,1.585,1.908,1.161,3.583a4.485,4.485,0,0,1-.646,1.413,5.1,5.1,0,0,0,3.4-3.391,5.957,5.957,0,0,0-.6-4.25Z"/></g></g></g></svg>