<svg id="Layer_1" data-name="Layer 1" xmlns="http://www.w3.org/2000/svg" xmlns:xlink="http://www.w3.org/1999/xlink" viewBox="0 0 110 50"><defs><style>.cls-1{fill:none;}.cls-2{clip-path:url(#clip-path);}.cls-3{fill:#1b2d45;}</style><clipPath id="clip-path"><rect class="cls-1" width="110" height="50"/></clipPath></defs><g class="cls-2"><path class="cls-3" d="M39.3,25.985a.878.878,0,0,0-.043.165c-.008.1,0,.2,0,.294V37.031c0,.188,0,.376-.01.564a2.447,2.447,0,0,1-.843,1.721,2.128,2.128,0,0,1-.838.525,2.438,2.438,0,0,1-.7.154c-.3,0-.605,0-.907,0q-11.577,0-23.154,0a3.037,3.037,0,0,1-1.184-.213,2.3,2.3,0,0,1-.882-.642,2.366,2.366,0,0,1-.475-.729,4.331,4.331,0,0,1-.177-.6,8.276,8.276,0,0,1-.069-1.588q0-11.628,0-23.258a3.993,3.993,0,0,1,.094-.946,2.656,2.656,0,0,1,.639-1.21,2.961,2.961,0,0,1,1.2-.767.686.686,0,0,1,.192-.028c.237-.009.473-.02.71-.02h23.57c.18,0,.36,0,.539.013a2.349,2.349,0,0,1,1.476.667,2.408,2.408,0,0,1,.656.951,1.647,1.647,0,0,1,.161.628c-.006.2.009.392.009.588q0,3.7,0,7.4c0,.487.008.494.491.494h.488c.077.192.156.375.223.563q.348.972.689,1.947c.154.44.294.884.448,1.323.118.335.252.665.373,1,.078.214.142.433.22.646.132.364.274.725.405,1.09.079.219.142.444.216.665.11.33.22.661.336.99.091.26.19.519.286.778.05.135.1.27.174.466,1.145-3.18,2.218-6.326,3.358-9.448h2.8c.044.191-.072.337-.128.488-.178.479-.382.948-.572,1.423q-.358.9-.711,1.8-.272.69-.537,1.382c-.208.542-.408,1.087-.623,1.626-.223.564-.466,1.121-.689,1.685-.281.714-.549,1.434-.828,2.149-.159.406-.328.807-.49,1.212-.108.269-.217.538-.312.812a.179.179,0,0,1-.2.137c-.718,0-1.437,0-2.156,0a.2.2,0,0,1-.207-.135c-.08-.193-.168-.382-.245-.576-.158-.4-.308-.8-.467-1.2-.216-.541-.442-1.079-.654-1.621-.154-.391-.287-.79-.439-1.181s-.312-.75-.461-1.128c-.157-.4-.294-.8-.464-1.2C39.51,26.288,39.5,26.086,39.3,25.985ZM27.336,21.324c-.1-.007-.176-.015-.248-.015q-2.058,0-4.116,0c-.266,0-.3.039-.374.313-.12.439-.254.874-.377,1.312-.067.239-.122.481-.193.764l2.085.013a.89.89,0,0,1,0,.175c-.088.337-.185.672-.27,1.01-.12.473-.233.948-.35,1.422-.04.157-.085.313-.126.47q-.129.492-.256.984c-.034.133-.065.266-.1.4a3.8,3.8,0,0,1-.161.606,3.65,3.65,0,0,1-.689,1.113,4.493,4.493,0,0,1-.741.629,2.716,2.716,0,0,1-1.647.507.643.643,0,0,1-.617-.623,5.933,5.933,0,0,1,.271-1.5c.077-.324.176-.642.256-.966s.138-.65.222-.972c.116-.452.25-.9.371-1.351.1-.392.2-.786.3-1.18.15-.607.3-1.216.449-1.823.043-.172.108-.338.154-.51s.093-.36.128-.542a1.049,1.049,0,0,0-.009-.226c-.1-.006-.18-.015-.259-.015H16.431c-.254,0-.289.025-.356.272-.112.413-.216.829-.329,1.242-.049.178-.12.351-.17.53a2.844,2.844,0,0,0-.049.335c.7.044,1.372-.009,2.07.032-.016.111-.022.2-.042.282-.057.245-.12.489-.183.733-.048.188-.1.375-.15.564-.079.3-.16.609-.233.915-.081.338-.149.679-.234,1.015s-.2.668-.271,1.008c-.122.58-.287,1.148-.368,1.74a3.492,3.492,0,0,0,.159,1.583,2.2,2.2,0,0,0,.95,1.133,3.255,3.255,0,0,0,1.464.393,2.154,2.154,0,0,0,.844-.068,5.229,5.229,0,0,0,.981-.349,3.949,3.949,0,0,0,1.237-.933c.176-.2.335-.416.532-.664-.076.335-.132.627-.212.912a3.49,3.49,0,0,0-.183.9c.111.009.19.02.27.021q1.273,0,2.548,0a.347.347,0,0,0,.145-.01.257.257,0,0,0,.131-.117c.075-.229.143-.461.2-.7.08-.322.141-.649.221-.971s.179-.658.27-.987c.044-.156.1-.31.133-.468.078-.331.143-.665.225-1s.181-.669.271-1c.039-.148.077-.3.111-.446.074-.316.12-.641.221-.947a8.041,8.041,0,0,1,.408-1.148A3.234,3.234,0,0,1,27.78,24.1a2.075,2.075,0,0,1,.568-.375,2.12,2.12,0,0,1,1.385-.05,1.228,1.228,0,0,1,.928,1.171,4.546,4.546,0,0,1-.229,1.8c-.032.116-.054.235-.089.351-.128.425-.261.849-.388,1.274-.1.343-.208.685-.293,1.033a7.056,7.056,0,0,0-.128.765c-.018.154,0,.311-.009.466a2.682,2.682,0,0,0,.285,1.268,2.1,2.1,0,0,0,1.06,1c.218.1.466.136.694.218a2.493,2.493,0,0,0,1.256.048,2.918,2.918,0,0,0,1.085-.406A3.578,3.578,0,0,0,34.96,31.7a6.018,6.018,0,0,0,.852-1.794c.025-.089.064-.174.1-.272-.368-.152-.711-.3-1.057-.434-.166-.065-.25-.014-.325.154-.131.3-.254.6-.405.882a1.6,1.6,0,0,1-.692.731.62.62,0,0,1-.642-.067.919.919,0,0,1-.206-.681,6.53,6.53,0,0,1,.154-.861c.027-.126.08-.246.118-.369.122-.4.242-.793.364-1.189.079-.256.178-.506.235-.766.065-.3.168-.588.235-.888a4.954,4.954,0,0,0,.178-1.172c-.006-.351.013-.7-.011-1.053a2.967,2.967,0,0,0-.139-.689,2.652,2.652,0,0,0-.266-.593,3.225,3.225,0,0,0-.551-.765,2.644,2.644,0,0,0-1.292-.68,3.845,3.845,0,0,0-1.124-.092,3.1,3.1,0,0,0-1.137.321,5.817,5.817,0,0,0-2.4,2.083c.055-.36.126-.712.2-1.066A3.889,3.889,0,0,0,27.336,21.324ZM18.3,17.271a1.8,1.8,0,0,0,3.608.023,1.8,1.8,0,1,0-3.608-.023Z"/><path class="cls-3" d="M85.182,27.078c0,.277.017.556,0,.832a4.624,4.624,0,0,1-.127.7,6.262,6.262,0,0,1-.479,1.379,5.921,5.921,0,0,1-.97,1.475c-.214.223-.424.447-.655.652a8.258,8.258,0,0,1-1.2.825,5.508,5.508,0,0,1-1.287.51c-.207.065-.432.072-.641.133a6.305,6.305,0,0,1-1.651.091,1.524,1.524,0,0,1-.6-.075,2.932,2.932,0,0,0-.594-.116,4.353,4.353,0,0,1-1.207-.438,7.106,7.106,0,0,1-.958-.575,5.748,5.748,0,0,1-1.126-1.034,7.075,7.075,0,0,1-.871-1.344,4.63,4.63,0,0,1-.451-1.306c-.033-.183-.084-.362-.125-.544a6.994,6.994,0,0,1-.062-1.878,6.838,6.838,0,0,1,.167-.834,4.1,4.1,0,0,1,.211-.72,6.373,6.373,0,0,1,1.35-2.26,6.312,6.312,0,0,1,1.78-1.34c.34-.149.679-.3,1.022-.439a1.778,1.778,0,0,1,.376-.1c.248-.044.5-.081.747-.115.233-.032.468-.062.7-.081a2.1,2.1,0,0,1,.363.008c.179.016.355.054.534.064a6.129,6.129,0,0,1,1.005.176,4.174,4.174,0,0,1,.935.324,7.777,7.777,0,0,1,1.085.6,9.388,9.388,0,0,1,.982.869,5.953,5.953,0,0,1,1.288,1.989,8.275,8.275,0,0,1,.371,1.262A5.406,5.406,0,0,1,85.182,27.078Zm-2.714,0h0c0-.066,0-.131,0-.2a1.953,1.953,0,0,0-.1-.84,1.667,1.667,0,0,1-.1-.324,3.655,3.655,0,0,0-.471-1.039,3.781,3.781,0,0,0-.741-.864,3.517,3.517,0,0,0-1.952-.858,3.672,3.672,0,0,0-2.047.318,2.97,2.97,0,0,0-1.157.873,4.239,4.239,0,0,0-.859,1.651,5.6,5.6,0,0,0-.182,1.347c.009.235.064.468.081.7a3.039,3.039,0,0,0,.219.87,3.82,3.82,0,0,0,.612,1.07,3.574,3.574,0,0,0,1.158,1.02,4.156,4.156,0,0,0,1.5.45,4.2,4.2,0,0,0,1.515-.188,2.92,2.92,0,0,0,1.02-.549,3.956,3.956,0,0,0,1.248-1.795,3.65,3.65,0,0,0,.1-.377,2.737,2.737,0,0,0,.158-.831C82.462,27.37,82.468,27.223,82.468,27.076Z"/><path class="cls-3" d="M89.761,33.372c-.13.009-.218.02-.3.02q-1.067,0-2.132,0c-.29,0-.3-.007-.3-.308q0-2.425,0-4.852,0-3.553,0-7.107c0-.112.011-.224.017-.328a20.718,20.718,0,0,1,2.7-.01c.006.08.018.166.018.253,0,.433,0,.866,0,1.3a3.341,3.341,0,0,0,.048.354,2.312,2.312,0,0,0,.18-.2,5.111,5.111,0,0,1,1.163-1.207,4.244,4.244,0,0,1,1.554-.718c.086-.02.179-.01.268-.024a4.578,4.578,0,0,1,1.431-.008,4.11,4.11,0,0,1,1.63.581,3.12,3.12,0,0,1,.574.409,4.3,4.3,0,0,1,1.031,1.579,8.616,8.616,0,0,1,.316,1.338,9.568,9.568,0,0,1,.073,1.706c.009,2.287,0,4.574,0,6.861v.355c-.111.01-.189.024-.268.024-.727,0-1.454,0-2.181,0-.04,0-.081,0-.122,0-.114,0-.16-.063-.161-.17,0-.082,0-.163,0-.245,0-2.157.007-4.313-.006-6.47a7.675,7.675,0,0,0-.153-1.4,2.8,2.8,0,0,0-.334-.9,2.319,2.319,0,0,0-1.107-.952,2.924,2.924,0,0,0-1.558-.184,2.471,2.471,0,0,0-1.594.821,3.145,3.145,0,0,0-.683,1.33,5.031,5.031,0,0,0-.1,1.215q0,3.284,0,6.568Z"/><path class="cls-3" d="M55.837,31.819a2.7,2.7,0,0,1,1.18-1,1.627,1.627,0,0,1,1.2-.087q.531.2,1.068.385a6.013,6.013,0,0,0,1.719.332,2.351,2.351,0,0,0,1.339-.3,1.213,1.213,0,0,0,.643-.915,1.582,1.582,0,0,0-.044-.641,1.117,1.117,0,0,0-.5-.609,8.807,8.807,0,0,0-2.053-.8c-.389-.134-.771-.29-1.165-.407a6.107,6.107,0,0,1-1.108-.484,3.172,3.172,0,0,1-1.449-1.49,2.2,2.2,0,0,1-.233-.915c0-.285-.008-.571,0-.857a3.37,3.37,0,0,1,.534-1.667,3.26,3.26,0,0,1,1.409-1.269,5.059,5.059,0,0,1,1.376-.455,6.971,6.971,0,0,1,1.512-.066c.329.014.655.109.984.15a5.022,5.022,0,0,1,.818.214,7.923,7.923,0,0,1,1.385.577,6.287,6.287,0,0,1,.582.356c.148.1.157.141.057.276a2.809,2.809,0,0,1-1.3,1.024,1.926,1.926,0,0,1-1.333-.051c-.184-.06-.371-.117-.559-.161a8.5,8.5,0,0,0-.876-.178,2.515,2.515,0,0,0-.9.035,2.307,2.307,0,0,0-.681.238,1.109,1.109,0,0,0-.611,1.083,1.044,1.044,0,0,0,.412.792,5.414,5.414,0,0,0,1.408.714c.589.22,1.19.407,1.783.615a6.749,6.749,0,0,1,1.753.889,3.15,3.15,0,0,1,1.242,1.837c.057.228.089.462.129.694a.391.391,0,0,1-.009.122c-.03.218-.065.435-.091.654a3.087,3.087,0,0,1-.53,1.4,3.947,3.947,0,0,1-.4.546,4.965,4.965,0,0,1-.584.473,3.188,3.188,0,0,1-.779.394,6.14,6.14,0,0,1-1.466.335,5.51,5.51,0,0,1-.992.074,3.237,3.237,0,0,1-.335-.053,1.254,1.254,0,0,0-.241-.036,3.9,3.9,0,0,1-1.29-.226,8.279,8.279,0,0,1-2.143-.959Z"/><path class="cls-3" d="M51.355,20.766h2.693c.01.1.026.187.026.274q0,6.027,0,12.056c0,.049,0,.1,0,.147a.14.14,0,0,1-.157.148l-.146,0H51.66c-.318,0-.32,0-.32-.332V23.97q0-1.446,0-2.891C51.341,20.982,51.349,20.886,51.355,20.766Z"/><path class="cls-3" d="M67.494,20.767h2.638l.022.026a.063.063,0,0,1,.013.02.461.461,0,0,1,.017.1q0,6.135,0,12.269a.827.827,0,0,1-.012.122.152.152,0,0,1-.02.043,18.207,18.207,0,0,1-2.645.011C67.462,33.173,67.443,21.162,67.494,20.767Z"/></g></svg>