<svg id="Layer_1" data-name="Layer 1" xmlns="http://www.w3.org/2000/svg" xmlns:xlink="http://www.w3.org/1999/xlink" viewBox="0 0 280 50"><defs><style>.cls-1{fill:none;}.cls-2{clip-path:url(#clip-path);}.cls-3{fill:#1b2d45;}</style><clipPath id="clip-path"><rect class="cls-1" width="280" height="50"/></clipPath></defs><g class="cls-2"><path class="cls-3" d="M20.612,20.55h9.932a7.892,7.892,0,0,1,.142.9,10.119,10.119,0,0,1,.056,1.058,13.48,13.48,0,0,1-.594,4.046,9.578,9.578,0,0,1-1.868,3.391,9.388,9.388,0,0,1-3.254,2.459,10.273,10.273,0,0,1-4.33.872,10.105,10.105,0,0,1-4.159-.872,10.293,10.293,0,0,1-3.4-2.428,11.751,11.751,0,0,1-2.292-3.687A12.463,12.463,0,0,1,10,21.639a12.461,12.461,0,0,1,.849-4.652A11.761,11.761,0,0,1,13.141,13.3a10.3,10.3,0,0,1,3.4-2.426A10.089,10.089,0,0,1,20.7,10a10.025,10.025,0,0,1,4.4.934,9.919,9.919,0,0,1,3.325,2.583L25.79,16.349a7.1,7.1,0,0,0-2.207-1.759,6.964,6.964,0,0,0-5.546-.062,6.562,6.562,0,0,0-2.18,1.541,7.434,7.434,0,0,0-1.485,2.411,8.638,8.638,0,0,0-.552,3.159,8.634,8.634,0,0,0,.552,3.159,7.283,7.283,0,0,0,1.5,2.412,6.7,6.7,0,0,0,2.193,1.54,6.563,6.563,0,0,0,2.66.545,6.529,6.529,0,0,0,2.731-.513,6.4,6.4,0,0,0,1.91-1.323,5.027,5.027,0,0,0,.976-1.416,8.635,8.635,0,0,0,.637-1.914H20.612Z"/><path class="cls-3" d="M39.883,17.034a7.1,7.1,0,0,1,2.957.607,6.974,6.974,0,0,1,2.32,1.68,7.767,7.767,0,0,1,1.528,2.567,9.95,9.95,0,0,1,0,6.536,7.777,7.777,0,0,1-1.528,2.567,6.99,6.99,0,0,1-2.32,1.681,7.506,7.506,0,0,1-5.914,0,6.98,6.98,0,0,1-2.32-1.681,7.779,7.779,0,0,1-1.529-2.567,9.967,9.967,0,0,1,0-6.536,7.769,7.769,0,0,1,1.529-2.567,6.964,6.964,0,0,1,2.32-1.68A7.093,7.093,0,0,1,39.883,17.034Zm0,12.479a3.346,3.346,0,0,0,1.372-.3,3.5,3.5,0,0,0,1.174-.856,4.1,4.1,0,0,0,.807-1.369,5.823,5.823,0,0,0,0-3.672,4.113,4.113,0,0,0-.807-1.37,3.493,3.493,0,0,0-1.174-.855,3.362,3.362,0,0,0-2.759,0,3.542,3.542,0,0,0-1.16.855,4.111,4.111,0,0,0-.806,1.37,5.8,5.8,0,0,0,0,3.672,4.1,4.1,0,0,0,.806,1.369,3.545,3.545,0,0,0,1.16.856A3.316,3.316,0,0,0,39.883,29.513Z"/><path class="cls-3" d="M56.182,17.034a7.093,7.093,0,0,1,2.957.607,6.978,6.978,0,0,1,2.321,1.68,7.767,7.767,0,0,1,1.528,2.567,9.967,9.967,0,0,1,0,6.536,7.777,7.777,0,0,1-1.528,2.567,6.994,6.994,0,0,1-2.321,1.681,7.506,7.506,0,0,1-5.914,0,6.98,6.98,0,0,1-2.32-1.681,7.76,7.76,0,0,1-1.528-2.567,9.95,9.95,0,0,1,0-6.536,7.75,7.75,0,0,1,1.528-2.567,6.964,6.964,0,0,1,2.32-1.68A7.1,7.1,0,0,1,56.182,17.034Zm0,12.479a3.346,3.346,0,0,0,1.372-.3,3.51,3.51,0,0,0,1.175-.856,4.1,4.1,0,0,0,.806-1.369,5.8,5.8,0,0,0,0-3.672,4.111,4.111,0,0,0-.806-1.37,3.507,3.507,0,0,0-1.175-.855,3.362,3.362,0,0,0-2.759,0,3.542,3.542,0,0,0-1.16.855,4.128,4.128,0,0,0-.806,1.37,5.823,5.823,0,0,0,0,3.672,4.113,4.113,0,0,0,.806,1.369,3.545,3.545,0,0,0,1.16.856A3.316,3.316,0,0,0,56.182,29.513Z"/><path class="cls-3" d="M72.312,40a7.58,7.58,0,0,1-2.618-.42,7.2,7.2,0,0,1-2-1.089,6.959,6.959,0,0,1-1.415-1.478,5.952,5.952,0,0,1-.82-1.618L69,33.838a3.673,3.673,0,0,0,1.3,1.883,3.3,3.3,0,0,0,2.01.669,3.385,3.385,0,0,0,2.773-1.252A5.312,5.312,0,0,0,76.1,31.691V30.633h-.226a4.664,4.664,0,0,1-1.712,1.572,5.173,5.173,0,0,1-2.5.575,5.6,5.6,0,0,1-2.42-.554,6.38,6.38,0,0,1-2.08-1.587,8.283,8.283,0,0,1-1.471-2.481,8.813,8.813,0,0,1-.566-3.236,8.94,8.94,0,0,1,.566-3.251,8.241,8.241,0,0,1,1.471-2.5,6.38,6.38,0,0,1,2.08-1.587,5.615,5.615,0,0,1,2.42-.554,5.185,5.185,0,0,1,2.5.575,4.672,4.672,0,0,1,1.712,1.572H76.1v-1.65h3.538v14.16a10.5,10.5,0,0,1-.538,3.47,7.639,7.639,0,0,1-1.5,2.614A6.469,6.469,0,0,1,75.3,39.424,7.506,7.506,0,0,1,72.312,40Zm.141-10.891a3.5,3.5,0,0,0,1.344-.276,3.4,3.4,0,0,0,1.174-.809,4.068,4.068,0,0,0,.821-1.314,4.8,4.8,0,0,0,.311-1.788,4.916,4.916,0,0,0-.311-1.8,4.025,4.025,0,0,0-.821-1.329,3.39,3.39,0,0,0-1.174-.81,3.48,3.48,0,0,0-1.344-.276,3.376,3.376,0,0,0-1.33.276,3.342,3.342,0,0,0-1.16.824,4.24,4.24,0,0,0-.821,1.33,5.292,5.292,0,0,0,0,3.575,4.051,4.051,0,0,0,.821,1.314,3.434,3.434,0,0,0,1.16.809A3.394,3.394,0,0,0,72.453,29.109Z"/><path class="cls-3" d="M82.809,32.78V10.5h3.708V32.78Z"/><path class="cls-3" d="M102.674,29.109a8.276,8.276,0,0,1-2.589,3.018,6.712,6.712,0,0,1-3.976,1.152,6.981,6.981,0,0,1-5.263-2.3A7.841,7.841,0,0,1,89.3,28.408a9.23,9.23,0,0,1-.552-3.252,9.091,9.091,0,0,1,.537-3.128,8.12,8.12,0,0,1,1.5-2.583,7.3,7.3,0,0,1,2.278-1.758,6.427,6.427,0,0,1,2.9-.653,6.949,6.949,0,0,1,2.972.607,6.1,6.1,0,0,1,2.179,1.68,7.451,7.451,0,0,1,1.33,2.536,10.722,10.722,0,0,1,.452,3.174v.374a2.277,2.277,0,0,0-.028.342,1.909,1.909,0,0,0-.028.342H92.4a4.577,4.577,0,0,0,.467,1.6,3.787,3.787,0,0,0,.877,1.12,3.3,3.3,0,0,0,1.146.654,4.088,4.088,0,0,0,1.273.2,3.375,3.375,0,0,0,2.109-.637,4.55,4.55,0,0,0,1.316-1.6ZM99.307,23.2a2.847,2.847,0,0,0-.241-.9,3.2,3.2,0,0,0-.622-.933,3.248,3.248,0,0,0-1.019-.715,3.463,3.463,0,0,0-1.458-.281,3.191,3.191,0,0,0-2.093.747A3.984,3.984,0,0,0,92.6,23.2Z"/><path class="cls-3" d="M118.86,13.237V32.78h-2.6V13.237H110.6V10.5H124.52v2.739Z"/><path class="cls-3" d="M129.924,17.034a6.1,6.1,0,0,1,4.556,1.7,6.346,6.346,0,0,1,1.67,4.653v9.4h-2.49V30.664h-.113a4.879,4.879,0,0,1-4.3,2.615,5.3,5.3,0,0,1-3.834-1.494,4.988,4.988,0,0,1-1.542-3.735,4.713,4.713,0,0,1,1.627-3.765,6.426,6.426,0,0,1,4.343-1.4,7.127,7.127,0,0,1,3.821.934v-.654a3.407,3.407,0,0,0-1.075-2.537,3.508,3.508,0,0,0-2.519-1.041,3.9,3.9,0,0,0-3.452,2.023l-2.292-1.588A6.211,6.211,0,0,1,129.924,17.034Zm-3.367,11.078a2.367,2.367,0,0,0,.863,1.867,3,3,0,0,0,2.023.748,3.97,3.97,0,0,0,2.929-1.338,4.391,4.391,0,0,0,1.288-3.144,5.01,5.01,0,0,0-3.4-1.058,4.125,4.125,0,0,0-2.646.841A2.562,2.562,0,0,0,126.557,28.112Z"/><path class="cls-3" d="M145.092,40a7.065,7.065,0,0,1-2.179-.327,6.764,6.764,0,0,1-1.853-.917,6.254,6.254,0,0,1-1.429-1.4,6.127,6.127,0,0,1-.906-1.8l2.462-1.121a4.267,4.267,0,0,0,1.471,2.147,3.866,3.866,0,0,0,2.434.809,4.11,4.11,0,0,0,3.311-1.4,5.781,5.781,0,0,0,1.188-3.859V30.664h-.113a5.3,5.3,0,0,1-2,1.914,5.522,5.522,0,0,1-2.73.7,5.906,5.906,0,0,1-4.669-2.335,8.952,8.952,0,0,1-1.924-5.788,8.825,8.825,0,0,1,1.924-5.757,5.877,5.877,0,0,1,4.669-2.365,5.51,5.51,0,0,1,2.73.7,5.3,5.3,0,0,1,2,1.913h.113V17.531h2.491v14.6a8.246,8.246,0,0,1-1.9,5.757A6.557,6.557,0,0,1,145.092,40Zm.085-9.336a3.84,3.84,0,0,0,3.142-1.525,6,6,0,0,0,1.272-3.983,6.033,6.033,0,0,0-1.272-3.952,3.863,3.863,0,0,0-3.142-1.557,3.909,3.909,0,0,0-3.141,1.557,6.033,6.033,0,0,0-1.273,3.952,5.962,5.962,0,0,0,1.273,3.953A3.91,3.91,0,0,0,145.177,30.664Z"/><path class="cls-3" d="M164.533,32.78h-2.6V10.5h2.6l7.045,13.568h.114L178.738,10.5h2.6V32.78h-2.6V19.554l.113-3.734h-.113L172.4,28.05h-1.527l-6.338-12.23h-.114l.114,3.734Z"/><path class="cls-3" d="M189.8,17.034a6.107,6.107,0,0,1,4.557,1.7,6.346,6.346,0,0,1,1.669,4.653v9.4h-2.49V30.664h-.114a4.878,4.878,0,0,1-4.3,2.615,5.3,5.3,0,0,1-3.835-1.494,4.988,4.988,0,0,1-1.542-3.735,4.713,4.713,0,0,1,1.627-3.765,6.427,6.427,0,0,1,4.344-1.4,7.126,7.126,0,0,1,3.82.934v-.654a3.407,3.407,0,0,0-1.075-2.537,3.508,3.508,0,0,0-2.519-1.041,3.906,3.906,0,0,0-3.453,2.023L184.2,20.021A6.212,6.212,0,0,1,189.8,17.034Zm-3.367,11.078a2.365,2.365,0,0,0,.864,1.867,2.992,2.992,0,0,0,2.022.748,3.969,3.969,0,0,0,2.929-1.338,4.386,4.386,0,0,0,1.288-3.144,5.01,5.01,0,0,0-3.4-1.058,4.127,4.127,0,0,0-2.646.841A2.562,2.562,0,0,0,186.434,28.112Z"/><path class="cls-3" d="M198.97,17.531h2.49v2.116h.114a5.236,5.236,0,0,1,8.3-1.011,6.806,6.806,0,0,1,1.374,4.56V32.78h-2.605v-9.4q-.085-3.735-3.423-3.735a3.158,3.158,0,0,0-2.6,1.385,5.335,5.335,0,0,0-1.046,3.315V32.78h-2.6Z"/><path class="cls-3" d="M219.429,17.034a6.1,6.1,0,0,1,4.556,1.7,6.346,6.346,0,0,1,1.669,4.653v9.4h-2.49V30.664h-.113a4.878,4.878,0,0,1-4.3,2.615,5.3,5.3,0,0,1-3.834-1.494,4.985,4.985,0,0,1-1.543-3.735A4.713,4.713,0,0,1,215,24.285a6.428,6.428,0,0,1,4.343-1.4,7.127,7.127,0,0,1,3.821.934v-.654a3.4,3.4,0,0,0-1.075-2.537,3.507,3.507,0,0,0-2.519-1.041,3.9,3.9,0,0,0-3.452,2.023l-2.293-1.588A6.215,6.215,0,0,1,219.429,17.034Zm-3.368,11.078a2.367,2.367,0,0,0,.863,1.867,3,3,0,0,0,2.024.748,3.972,3.972,0,0,0,2.929-1.338,4.39,4.39,0,0,0,1.287-3.144,5.009,5.009,0,0,0-3.395-1.058,4.122,4.122,0,0,0-2.646.841A2.56,2.56,0,0,0,216.061,28.112Z"/><path class="cls-3" d="M234.6,40a7.065,7.065,0,0,1-2.179-.327,6.764,6.764,0,0,1-1.853-.917,6.254,6.254,0,0,1-1.429-1.4,6.127,6.127,0,0,1-.906-1.8l2.463-1.121a4.267,4.267,0,0,0,1.471,2.147,3.863,3.863,0,0,0,2.433.809,4.112,4.112,0,0,0,3.312-1.4,5.781,5.781,0,0,0,1.188-3.859V30.664h-.113a5.3,5.3,0,0,1-2,1.914,5.522,5.522,0,0,1-2.73.7,5.907,5.907,0,0,1-4.669-2.335,8.952,8.952,0,0,1-1.924-5.788,8.825,8.825,0,0,1,1.924-5.757,5.879,5.879,0,0,1,4.669-2.365,5.51,5.51,0,0,1,2.73.7,5.3,5.3,0,0,1,2,1.913h.113V17.531h2.49v14.6a8.246,8.246,0,0,1-1.9,5.757A6.557,6.557,0,0,1,234.6,40Zm.085-9.336a3.84,3.84,0,0,0,3.142-1.525,6.005,6.005,0,0,0,1.273-3.983,6.033,6.033,0,0,0-1.273-3.952,3.862,3.862,0,0,0-3.142-1.557,3.907,3.907,0,0,0-3.14,1.557,6.034,6.034,0,0,0-1.274,3.952,5.963,5.963,0,0,0,1.274,3.953A3.908,3.908,0,0,0,234.681,30.664Z"/><path class="cls-3" d="M250.84,33.279a6.352,6.352,0,0,1-5.037-2.3,8.612,8.612,0,0,1-1.981-5.82,8.789,8.789,0,0,1,1.924-5.8,6.116,6.116,0,0,1,4.924-2.318,6.054,6.054,0,0,1,4.909,2.194,9.335,9.335,0,0,1,1.826,6.145l-.029.312H246.482a5.221,5.221,0,0,0,1.359,3.61,4.142,4.142,0,0,0,3.112,1.369q2.488,0,3.9-2.739l2.322,1.245a7.368,7.368,0,0,1-2.589,3.019A6.673,6.673,0,0,1,250.84,33.279Zm-4.16-9.959h7.951a3.953,3.953,0,0,0-1.174-2.63,3.883,3.883,0,0,0-2.844-1.043,3.577,3.577,0,0,0-2.533,1A4.878,4.878,0,0,0,246.68,23.32Z"/><path class="cls-3" d="M262.385,32.78h-2.6V17.531h2.49v2.49h.113a4.05,4.05,0,0,1,1.628-2.07,4.237,4.237,0,0,1,2.419-.856,4.485,4.485,0,0,1,1.924.374l-.792,2.77a3.959,3.959,0,0,0-1.528-.218,3.252,3.252,0,0,0-2.561,1.307,4.615,4.615,0,0,0-1.09,3.05Z"/></g></svg>