<svg id="Layer_1" data-name="Layer 1" xmlns="http://www.w3.org/2000/svg" viewBox="0 0 72 72"><defs><style>.cls-1{fill:#1b2d45;}</style></defs><path class="cls-1" d="M59.447,63.3a35.931,35.931,0,0,1-48.538-1.506l1.88-3.534a17.44,17.44,0,0,1,23.6-7.219Z"/><path class="cls-1" d="M72,36A35.868,35.868,0,0,1,61.789,61.091l-11.24-5.978a8.724,8.724,0,0,1-3.611-11.8l16.356-30.76A35.823,35.823,0,0,1,72,36Z"/><path class="cls-1" d="M60.92,10.044l-1.913,3.6A17.45,17.45,0,0,1,43.582,22.9,17.365,17.365,0,0,1,35.4,20.855L12.553,8.705A35.933,35.933,0,0,1,60.92,10.044Z"/><path class="cls-1" d="M25.062,28.687,8.706,59.447a35.93,35.93,0,0,1,1.505-48.538l11.24,5.978A8.724,8.724,0,0,1,25.062,28.687Z"/></svg>