<svg id="Layer_1" data-name="Layer 1" xmlns="http://www.w3.org/2000/svg" xmlns:xlink="http://www.w3.org/1999/xlink" viewBox="0 0 177.941 50"><defs><style>.cls-1{fill:none;}.cls-2{clip-path:url(#clip-path);}.cls-3{fill:#1b2d45;}</style><clipPath id="clip-path"><rect class="cls-1" width="178" height="50"/></clipPath></defs><g class="cls-2"><path class="cls-3" d="M33.68,37.782c-3.166.11-6.338.034-9.508.035-1.835,0-1.835,0-1.765,1.783.006.133.007.267.011.4H35.324a2.791,2.791,0,0,1,0-.533C35.574,38.117,35.047,37.734,33.68,37.782Z"/><path class="cls-3" d="M168.134,38.924q.03-14.383.016-28.77l-.277.009.008-.009a2.923,2.923,0,0,0-1.45-.122q-39.284-.011-78.571,0a2.836,2.836,0,0,0-1.45.126q.011,14.781.017,29.561h.006l81.448.28h0C168.437,39.758,168.133,39.273,168.134,38.924ZM87.727,12.779c-.007-1.123.376-1.3,1.372-1.3q19.026.045,38.043.02c12.636,0,25.271.021,37.9-.03,1.28-.007,1.526.385,1.516,1.57q-.072,11.96,0,23.922c0,1.11-.171,1.54-1.437,1.536q-37.974-.061-75.946-.01c-1.072,0-1.458-.212-1.451-1.379Q87.809,24.943,87.727,12.779Z"/><path class="cls-3" d="M18.905,17.414c-2.8-1.119-5.615-.686-8.424,0-.573.14-.474.573-.474.959q.019,10.674.051,21.353,1.054-.01,2.109-.018V31.992a13.973,13.973,0,0,0,5.011.263,7.313,7.313,0,0,0,6.314-6.206C23.983,21.943,22.321,18.779,18.905,17.414Zm1.856,9.366c-1.157,3.853-5.386,4.225-8.222,3.242-.478-.163-.331-.583-.331-.911-.014-1.526-.007-3.048-.007-4.57,0-1.57.021-3.14-.013-4.707-.011-.539.136-.795.7-.9,2.345-.427,4.683-.67,6.55,1.208S21.475,24.394,20.761,26.78Z"/><path class="cls-3" d="M44.4,17.36a6.943,6.943,0,0,0-9.95,4.972,10.738,10.738,0,0,0-.2,2.67c.11,2.928,1.171,5.389,3.95,6.648a7.98,7.98,0,0,0,8.382-.788c.359-.259,1.253-.444.57-1.277-.512-.628-.85-1.047-1.744-.307a5.555,5.555,0,0,1-5.946.734c-1.873-.781-2.628-2.433-2.935-4.352-.095-.6.055-.781.659-.771,1.655.031,3.314.01,4.973.01s3.314,0,4.973,0c.379,0,.751.106.843-.536C48.357,21.79,46.66,18.4,44.4,17.36Zm.44,5.672c-1.249-.058-2.5-.017-3.754-.017s-2.5-.027-3.755.014c-.624.017-.761-.2-.648-.785a4.47,4.47,0,0,1,4.529-3.618,4.1,4.1,0,0,1,4.447,3.406C45.824,22.817,45.647,23.066,44.841,23.032Z"/><path class="cls-3" d="M79.74,16.964c-2.586-.259-2.548-.222-4.275,1.574-1.787,1.859-3.659,3.636-5.68,5.633,0-4.272-.025-8.254.02-12.235.01-.866-.2-1.163-1.1-1.141-.825.02-1.144.16-1.137,1.1q.069,9.666,0,19.333c-.008.981.385,1.015,1.157,1.054.916.046,1.108-.284,1.085-1.13-.057-2.122-.019-4.246-.019-6.717,2.131,2.317,4.154,4.272,5.87,6.466,1.218,1.557,2.593,1.44,4.3,1.246l-7.333-7.8Q76.247,20.585,79.74,16.964Z"/><path class="cls-3" d="M61.67,24.558a12.226,12.226,0,0,0-2.337-.987,12.807,12.807,0,0,1-3.342-1.342,1.83,1.83,0,0,1-.836-1.965,1.8,1.8,0,0,1,1.528-1.494A4.646,4.646,0,0,1,61.376,20c.952,1.059,1.234-.106,1.746-.43.886-.559.036-.881-.256-1.173a7.252,7.252,0,0,0-8.224-.948A3.621,3.621,0,0,0,52.8,20.537c-.087,2.06.674,3.273,2.745,4.1,1.444.577,2.962.971,4.4,1.561a2.074,2.074,0,0,1,1.394,2.35,2.183,2.183,0,0,1-1.968,1.761A5.267,5.267,0,0,1,54.2,28.851c-.965-1.017-1.218.268-1.75.55-.779.413-.167.775.157,1.084a7.321,7.321,0,0,0,5.266,1.95,6.994,6.994,0,0,0,3.727-.918A3.99,3.99,0,0,0,61.67,24.558Z"/><path class="cls-3" d="M27.8,21.588c0,3.217.031,6.435-.021,9.652-.014.833.207,1.092,1.035,1.028.694-.054,1.222.075,1.212-1-.06-6.479-.046-12.959-.011-19.438,0-.871-.22-1.139-1.108-1.126-.841.012-1.146.184-1.13,1.1C27.83,15.063,27.8,18.326,27.8,21.588Z"/><path class="cls-3" d="M102.69,32.5c4.765,0,7.943-3.062,7.95-7.67.01-4.764-3.137-7.956-7.844-7.959-4.669,0-8,3.2-8.014,7.7A7.517,7.517,0,0,0,102.69,32.5Zm.028-13.441c3.259.02,5.225,2.15,5.232,5.662s-1.942,5.6-5.249,5.594c-3.175,0-5.27-2.28-5.233-5.683C97.509,21.309,99.646,19.039,102.718,19.063Z"/><path class="cls-3" d="M114.333,31.063c0,.82-.034,1.417,1.146,1.42,1.257,0,1.079-.727,1.079-1.478V21.421c.4.434.614.642.8.874,2.5,3.092,5.024,6.174,7.485,9.3a1.838,1.838,0,0,0,2.1.785c.775-.242.5-1.058.509-1.628.03-4.117,0-8.236.027-12.352.007-.925-.061-1.485-1.266-1.489-1.243,0-1.089.7-1.086,1.465,0,3.109,0,6.215,0,9.734-1.163-1.451-2.075-2.587-2.986-3.72-1.826-2.26-3.673-4.5-5.471-6.786a1.848,1.848,0,0,0-1.953-.542c-.689.126-.358.9-.361,1.375C114.329,22.647,114.35,26.855,114.333,31.063Z"/><path class="cls-3" d="M145.1,32.292c1.8.454,3.024.092,3.915-1.522s2.045-3.12,3.174-4.8a51.582,51.582,0,0,1,2.792,4.43,3.177,3.177,0,0,0,4.3,1.853c-1.512-2.276-2.935-4.536-4.491-6.7a1.663,1.663,0,0,1,.068-2.341c1.321-1.748,2.546-3.564,3.785-5.369.178-.26.693-.765-.089-.847-1.1-.119-2.2-.225-2.925,1.031-.774,1.355-1.761,2.587-2.58,3.918-.529.857-.891,1.147-1.5.062-.639-1.126-1.563-2.106-2.093-3.273-.856-1.888-2.314-1.912-4.191-1.69,1.512,2.229,2.864,4.369,4.383,6.386a1.543,1.543,0,0,1-.021,2.2C148.075,27.79,146.621,30.026,145.1,32.292Z"/><path class="cls-3" d="M133.4,22.472a11.123,11.123,0,0,1,2.454,8.721c-.15,1.024.283,1.256,1.27,1.287,1.13.037,1.4-.451,1.375-1.406-.02-.987.062-1.977-.017-2.956a5.205,5.205,0,0,1,.956-3.386c1.444-2.208,2.809-4.464,4.184-6.714.2-.317.738-.836-.126-.966-1.061-.153-2.1-.242-2.771,1-1.12,2.079-2.362,4.1-3.588,6.2-1.215-2.065-2.45-3.983-3.5-6-.631-1.219-1.577-1.27-2.679-1.219-.775.034-.779.345-.42.915C131.494,19.445,132.31,21.063,133.4,22.472Z"/></g></svg>