<svg id="Layer_1" data-name="Layer 1" xmlns="http://www.w3.org/2000/svg" xmlns:xlink="http://www.w3.org/1999/xlink" viewBox="0 0 156.294 50"><defs><style>.cls-1{fill:none;}.cls-2{clip-path:url(#clip-path);}.cls-3{fill:#1b2d45;}</style><clipPath id="clip-path"><rect class="cls-1" width="157" height="50"/></clipPath></defs><g class="cls-2"><path class="cls-3" d="M24.751,29.647a2.458,2.458,0,0,1-2.264,3.115,50.514,50.514,0,0,1-6.053-.077,6.816,6.816,0,0,1-4.676-2.5,7.552,7.552,0,0,1-1.727-3.8A2.265,2.265,0,0,1,10.019,26q0-2.691,0-5.38c0-1.731.045-3.463-.018-5.191a2.6,2.6,0,0,1,1.939-2.393,2.5,2.5,0,0,1,3.07,2.432c.014,1.036.018,2.071,0,3.107-.009.354.066.466.446.463,2.16-.017,4.32-.006,6.479,0a2.286,2.286,0,0,1,2.353,2.3,2.263,2.263,0,0,1-2.328,2.315q-3.277.024-6.555,0c-.339,0-.435.087-.4.425.047.514.04,1.032.062,1.549a2.343,2.343,0,0,0,2.48,2.185c1.629,0,3.258-.01,4.887.01A2.4,2.4,0,0,1,24.751,29.647Z"/><path class="cls-3" d="M48.735,21.014c.025,1.679.049,3.361,0,5.04a6.829,6.829,0,0,1-6.043,6.7,6.515,6.515,0,0,1-5.223-1.484c-.223-.172-.347-.185-.569,0a6.934,6.934,0,0,1-8.673,0,6.709,6.709,0,0,1-2.529-4.582c-.117-1.032-.032-2.069-.058-2.7,0-1.229,0-2.05,0-2.871a2.345,2.345,0,1,1,4.688-.014c.009,1.579,0,3.158,0,4.738a2.255,2.255,0,0,0,2.006,2.278,2.28,2.28,0,0,0,2.427-1.733,4.142,4.142,0,0,0,.06-.944c.022-1.5-.041-3.005.036-4.508a2.268,2.268,0,0,1,2.3-2.227,2.238,2.238,0,0,1,2.348,2.172c.106,1.639.02,3.283.044,4.924a2.248,2.248,0,1,0,4.494.053c.012-1.592.005-3.184.012-4.777a2.368,2.368,0,0,1,1.4-2.2A2.342,2.342,0,0,1,48.735,21.014Z"/><path class="cls-3" d="M50.437,14.948a2.389,2.389,0,0,1,2.49-2.478,2.459,2.459,0,0,1,2.5,2.45A2.492,2.492,0,0,1,52.9,17.43,2.443,2.443,0,0,1,50.437,14.948Z"/><path class="cls-3" d="M55.43,25.735h-.009c0,1.528,0,3.056,0,4.584a2.494,2.494,0,0,1-4.874.723,3.431,3.431,0,0,1-.12-1.01q0-4.414-.007-8.828a2.513,2.513,0,0,1,2.468-2.5,2.431,2.431,0,0,1,2.534,2.481c0,.758.007,1.517.008,2.274S55.43,24.976,55.43,25.735Z"/><path class="cls-3" d="M69.239,29.891a2.39,2.39,0,0,1-2.094,2.843,13.969,13.969,0,0,1-4.294-.129,7.423,7.423,0,0,1-5.613-5.891,17.766,17.766,0,0,1-.126-2.757c0-1.162,0-2.324,0-3.486q0-2.349,0-4.7a2.619,2.619,0,0,1,.787-2.126,2.419,2.419,0,0,1,2.639-.483,2.3,2.3,0,0,1,1.55,2.175c.03,1.1.022,2.2.006,3.3-.005.307.067.41.392.405,1.275-.019,2.552-.017,3.827,0a2.31,2.31,0,0,1,.2,4.616c-1.275.033-2.552.011-3.827.014-.611,0-.51-.041-.517.492-.005.467-.017.935-.005,1.4a2.267,2.267,0,0,0,1.963,2.2,22.258,22.258,0,0,0,2.684.061A2.465,2.465,0,0,1,69.239,29.891Z"/><path class="cls-3" d="M82.149,29.659a2.564,2.564,0,0,1-1.05,2.754,2.038,2.038,0,0,1-.922.322,15.086,15.086,0,0,1-4.222-.11,7.268,7.268,0,0,1-5.231-4.184,8.365,8.365,0,0,1-.661-3.8c0-2.956.012-5.912.009-8.868a2.535,2.535,0,0,1,1.11-2.384,2.467,2.467,0,0,1,2.592-.092,2.32,2.32,0,0,1,1.285,2.122q.023,1.631,0,3.259c0,.286.083.364.365.361q1.971-.017,3.942.006a2.306,2.306,0,0,1,0,4.611c-.644.01-1.289,0-1.932,0v.009c-.67,0-1.34.008-2.009,0-.229,0-.313.065-.306.3.015.527-.036,1.054-.022,1.586a2.377,2.377,0,0,0,2.419,2.267c.807.022,1.618-.013,2.425.018A2.449,2.449,0,0,1,82.149,29.659Z"/><path class="cls-3" d="M88.21,27.121l7.122-.045c.227,0,.455,0,.682-.012a1.724,1.724,0,0,0,1.62-1.151,4.141,4.141,0,0,0,.052-1.8A6.287,6.287,0,0,0,93.7,19.333a9.913,9.913,0,0,0-4.866-.577,6.811,6.811,0,0,0-2.5.658c-3.038,1.513-4.021,4.538-3.491,7.625A6.615,6.615,0,0,0,85.277,31.1a7.169,7.169,0,0,0,4.253,1.667c.961.052,1.92.016,2.879.043.984-.023,1.969.026,2.954-.046a1.981,1.981,0,0,0,1.9-1.977,1.955,1.955,0,0,0-1.853-1.978c-1.551-.031-3.1-.041-4.654-.066a5.162,5.162,0,0,1-2.158-.48,1.166,1.166,0,0,1-.684-.714C87.8,27.2,87.846,27.123,88.21,27.121Zm-.257-3.6a1.172,1.172,0,0,1,.632-.762,3.584,3.584,0,0,1,3.5,0,1.158,1.158,0,0,1,.631.8c.045.208.011.326-.255.32-.718-.017-1.437-.006-2.156-.006-.693,0-1.387-.013-2.08.006C87.916,23.9,87.894,23.751,87.953,23.522Z"/><path class="cls-3" d="M109.405,23.657c-.555.014-1.111,0-1.709,0-.676.042-1.4-.053-2.113.058a2.132,2.132,0,0,0-1.809,1.866,16.58,16.58,0,0,0-.009,2.079c-.008.971-.019,1.943-.049,2.915a2.315,2.315,0,0,1-4.625-.039c-.011-.77.026-1.542-.009-2.312a19.7,19.7,0,0,1,.158-3.577,6.754,6.754,0,0,1,5.238-5.471,17.531,17.531,0,0,1,3.285-.142,10.08,10.08,0,0,1,2.04.058,2.286,2.286,0,0,1,1.871,2.575A2.312,2.312,0,0,1,109.405,23.657Z"/><path class="cls-3" d="M145,21.6a1.392,1.392,0,0,1-.491.534,5.27,5.27,0,0,1-3.018,1.061c-.594.039-.754.163-.931.744a13.3,13.3,0,0,1-3.677,5.9,18.754,18.754,0,0,1-9.21,4.785,19.2,19.2,0,0,1-11.818-1.035,16.563,16.563,0,0,1-6.776-5.3A1.393,1.393,0,0,1,109,28.11a9.693,9.693,0,0,0,13.021-.473,4.05,4.05,0,0,0-.832-.188,2.288,2.288,0,0,1-1.124-.5,1.268,1.268,0,0,1-.035-1.907,6.87,6.87,0,0,1,.813-.61,7.09,7.09,0,0,1-1.7-.163,3.98,3.98,0,0,1-2.329-1.7c-.25-.371-.2-.552.212-.733.5-.218,1-.424,1.522-.648-.547-.3-1.069-.594-1.6-.869a3.433,3.433,0,0,1-1.867-2.476c-.046-.22-.049-.33.235-.358.536-.053,1.067-.161,1.673-.257-.423-.341-.848-.6-1.215-.925a4.457,4.457,0,0,1-1.612-3.18c-.021-.424-.021-.423.365-.287,1.833.649,3.569,1.52,5.342,2.3,1.037.46,2.06.95,3.1,1.4a10.084,10.084,0,0,1,2.89,2.1c.277.266.356.2.5-.107.709-1.547,1.4-3.1,2.218-4.6a10.273,10.273,0,0,1,2.908-3.391c.12-.089.247-.168.374-.253.156.18-.109.346.035.526.569-.238,1.146-.481,1.725-.721a1.746,1.746,0,0,1,.321-.105.281.281,0,0,1,.216.03c.083.083-.023.158-.061.227-.111.2-.233.385-.39.642.365-.089.664-.151.957-.237a2.475,2.475,0,0,1,.75-.073c.2.005.4.047.445.271a.459.459,0,0,1-.245.509,5.283,5.283,0,0,1-1.248.53,6.225,6.225,0,0,0-1.067.345,13.965,13.965,0,0,1,2.243.531,8.187,8.187,0,0,1,4.946,5.732c.219.785.354.878,1.157.907a7.9,7.9,0,0,0,3.322-.632,4.545,4.545,0,0,1-3.558,2.38,4.2,4.2,0,0,0,1.746.422C143.753,21.617,144.359,21.6,145,21.6Z"/><path class="cls-3" d="M145,21.6a1.392,1.392,0,0,1-.491.534,5.27,5.27,0,0,1-3.018,1.061c-.594.039-.754.163-.931.744a13.3,13.3,0,0,1-3.677,5.9,18.754,18.754,0,0,1-9.21,4.785,19.2,19.2,0,0,1-11.818-1.035,16.563,16.563,0,0,1-6.776-5.3A1.393,1.393,0,0,1,109,28.11a9.693,9.693,0,0,0,13.021-.473,4.05,4.05,0,0,0-.832-.188,2.288,2.288,0,0,1-1.124-.5,1.268,1.268,0,0,1-.035-1.907,6.87,6.87,0,0,1,.813-.61,7.09,7.09,0,0,1-1.7-.163,3.98,3.98,0,0,1-2.329-1.7c-.25-.371-.2-.552.212-.733.5-.218,1-.424,1.522-.648-.547-.3-1.069-.594-1.6-.869a3.433,3.433,0,0,1-1.867-2.476c-.046-.22-.049-.33.235-.358.536-.053,1.067-.161,1.673-.257-.423-.341-.848-.6-1.215-.925a4.457,4.457,0,0,1-1.612-3.18c-.021-.424-.021-.423.365-.287,1.833.649,3.569,1.52,5.342,2.3,1.037.46,2.06.95,3.1,1.4a10.084,10.084,0,0,1,2.89,2.1c.277.266.356.2.5-.107.709-1.547,1.4-3.1,2.218-4.6a10.273,10.273,0,0,1,2.908-3.391c.12-.089.247-.168.374-.253.156.18-.109.346.035.526.569-.238,1.146-.481,1.725-.721a1.746,1.746,0,0,1,.321-.105.281.281,0,0,1,.216.03c.083.083-.023.158-.061.227-.111.2-.233.385-.39.642.365-.089.664-.151.957-.237a2.475,2.475,0,0,1,.75-.073c.2.005.4.047.445.271a.459.459,0,0,1-.245.509,5.283,5.283,0,0,1-1.248.53,6.225,6.225,0,0,0-1.067.345,13.965,13.965,0,0,1,2.243.531,8.187,8.187,0,0,1,4.946,5.732c.219.785.354.878,1.157.907a7.9,7.9,0,0,0,3.322-.632,4.545,4.545,0,0,1-3.558,2.38,4.2,4.2,0,0,0,1.746.422C143.753,21.617,144.359,21.6,145,21.6Z"/><path class="cls-3" d="M48.731,26.054a6.829,6.829,0,0,1-6.043,6.7,6.515,6.515,0,0,1-5.223-1.484c-.223-.172-.347-.185-.569,0a6.934,6.934,0,0,1-8.673,0,6.709,6.709,0,0,1-2.529-4.582c-.117-1.032-.032-2.069-.058-2.7,0-1.229,0-2.05,0-2.871a2.345,2.345,0,1,1,4.688-.014c.009,1.579,0,3.158,0,4.738a2.255,2.255,0,0,0,2.006,2.278,2.28,2.28,0,0,0,2.427-1.733,4.142,4.142,0,0,0,.06-.944c.022-1.5-.041-3.005.036-4.508a2.268,2.268,0,0,1,2.3-2.227,2.238,2.238,0,0,1,2.348,2.172c.106,1.639.02,3.283.044,4.924a2.248,2.248,0,1,0,4.494.053c.012-1.592.005-3.184.012-4.777a2.368,2.368,0,0,1,1.4-2.2,2.342,2.342,0,0,1,3.277,2.135C48.76,22.693,48.784,24.375,48.731,26.054Z"/><path class="cls-3" d="M22.487,32.762a50.514,50.514,0,0,1-6.053-.077,6.816,6.816,0,0,1-4.676-2.5,7.552,7.552,0,0,1-1.727-3.8A2.265,2.265,0,0,1,10.019,26q0-2.691,0-5.38c0-1.731.045-3.463-.018-5.191a2.6,2.6,0,0,1,1.939-2.393,2.5,2.5,0,0,1,3.07,2.432c.014,1.036.018,2.071,0,3.107-.009.354.066.466.446.463,2.16-.017,4.32-.006,6.479,0a2.286,2.286,0,0,1,2.353,2.3,2.263,2.263,0,0,1-2.328,2.315q-3.277.024-6.555,0c-.339,0-.435.087-.4.425.047.514.04,1.032.062,1.549a2.343,2.343,0,0,0,2.48,2.185c1.629,0,3.258-.01,4.887.01a2.4,2.4,0,0,1,2.326,1.821A2.458,2.458,0,0,1,22.487,32.762Z"/><path class="cls-3" d="M88.21,27.121l7.122-.045c.227,0,.455,0,.682-.012a1.724,1.724,0,0,0,1.62-1.151,4.141,4.141,0,0,0,.052-1.8A6.287,6.287,0,0,0,93.7,19.333a9.913,9.913,0,0,0-4.866-.577,6.811,6.811,0,0,0-2.5.658c-3.038,1.513-4.021,4.538-3.491,7.625A6.615,6.615,0,0,0,85.277,31.1a7.169,7.169,0,0,0,4.253,1.667c.961.052,1.92.016,2.879.043.984-.023,1.969.026,2.954-.046a1.981,1.981,0,0,0,1.9-1.977,1.955,1.955,0,0,0-1.853-1.978c-1.551-.031-3.1-.041-4.654-.066a5.162,5.162,0,0,1-2.158-.48,1.166,1.166,0,0,1-.684-.714C87.8,27.2,87.846,27.123,88.21,27.121Zm-.257-3.6a1.172,1.172,0,0,1,.632-.762,3.584,3.584,0,0,1,3.5,0,1.158,1.158,0,0,1,.631.8c.045.208.011.326-.255.32-.718-.017-1.437-.006-2.156-.006-.693,0-1.387-.013-2.08.006C87.916,23.9,87.894,23.751,87.953,23.522Z"/><path class="cls-3" d="M67.145,32.734a13.969,13.969,0,0,1-4.294-.129,7.423,7.423,0,0,1-5.613-5.891,17.766,17.766,0,0,1-.126-2.757c0-1.162,0-2.324,0-3.486q0-2.349,0-4.7a2.619,2.619,0,0,1,.787-2.126,2.419,2.419,0,0,1,2.639-.483,2.3,2.3,0,0,1,1.55,2.175c.03,1.1.022,2.2.006,3.3-.005.307.067.41.392.405,1.275-.019,2.552-.017,3.827,0a2.31,2.31,0,0,1,.2,4.616c-1.275.033-2.552.011-3.827.014-.611,0-.51-.041-.517.492-.005.467-.017.935-.005,1.4a2.267,2.267,0,0,0,1.963,2.2,22.258,22.258,0,0,0,2.684.061,2.465,2.465,0,0,1,2.429,2.075A2.39,2.39,0,0,1,67.145,32.734Z"/><path class="cls-3" d="M81.1,32.413a2.038,2.038,0,0,1-.922.322,15.086,15.086,0,0,1-4.222-.11,7.268,7.268,0,0,1-5.231-4.184,8.365,8.365,0,0,1-.661-3.8c0-2.956.012-5.912.009-8.868a2.535,2.535,0,0,1,1.11-2.384,2.467,2.467,0,0,1,2.592-.092,2.32,2.32,0,0,1,1.285,2.122q.023,1.631,0,3.259c0,.286.083.364.365.361q1.971-.017,3.942.006a2.306,2.306,0,0,1,0,4.611c-.644.01-1.289,0-1.932,0v.009c-.67,0-1.34.008-2.009,0-.229,0-.313.065-.306.3.015.527-.036,1.054-.022,1.586a2.377,2.377,0,0,0,2.419,2.267c.807.022,1.618-.013,2.425.018a2.449,2.449,0,0,1,2.208,1.828A2.564,2.564,0,0,1,81.1,32.413Z"/><path class="cls-3" d="M111.674,21.67a2.312,2.312,0,0,1-2.269,1.987c-.555.014-1.111,0-1.709,0-.676.042-1.4-.053-2.113.058a2.132,2.132,0,0,0-1.809,1.866,16.58,16.58,0,0,0-.009,2.079c-.008.971-.019,1.943-.049,2.915a2.315,2.315,0,0,1-4.625-.039c-.011-.77.026-1.542-.009-2.312a19.7,19.7,0,0,1,.158-3.577,6.754,6.754,0,0,1,5.238-5.471,17.531,17.531,0,0,1,3.285-.142,10.08,10.08,0,0,1,2.04.058A2.286,2.286,0,0,1,111.674,21.67Z"/><path class="cls-3" d="M55.421,25.735c0,1.528,0,3.056,0,4.584a2.494,2.494,0,0,1-4.874.723,3.431,3.431,0,0,1-.12-1.01q0-4.414-.007-8.828a2.513,2.513,0,0,1,2.468-2.5,2.431,2.431,0,0,1,2.534,2.481c0,.758.007,1.517.008,2.274s0,1.515,0,2.274Z"/><path class="cls-3" d="M55.427,14.92A2.492,2.492,0,0,1,52.9,17.43a2.443,2.443,0,0,1-2.464-2.482,2.389,2.389,0,0,1,2.49-2.478A2.459,2.459,0,0,1,55.427,14.92Z"/></g></svg>