<svg id="Layer_1" data-name="Layer 1" xmlns="http://www.w3.org/2000/svg" xmlns:xlink="http://www.w3.org/1999/xlink" viewBox="0 0 150 50"><defs><style>.cls-1{fill:none;}.cls-2{clip-path:url(#clip-path);}.cls-3{fill:#1b2d45;}</style><clipPath id="clip-path"><rect class="cls-1" width="150" height="50"/></clipPath></defs><g class="cls-2"><path class="cls-3" d="M88.064,27.239c-2.029,2.683-4.464,5.345-7.8,6.282-4.812,1.274-9.285-2.378-9.868-7.153-1.055-6.1,2.716-13.169,9.017-14.462,3.778-.9,7.544,3.038,4.593,6.334-.378.548-2.019.93-1.7-.153,3.444-5.62-5-6.367-8.535-.006-1.978,3.616-2.471,8.7.291,12.046,2.157,2.591,6.062,2.363,8.555.386a23.181,23.181,0,0,0,5.372-5.6,59.42,59.42,0,0,1,.945-8.8c.528-2.075,1.125-4.5,3.02-5.742,2.578-1.38,4.072,1.393,3.63,3.686-.328,2.868-1.841,5.424-3.408,7.788-.732,1.167-1.762,2.221-2.412,3.4a17.239,17.239,0,0,0,.347,3.376,8.643,8.643,0,0,1,3.04-4.276,2.122,2.122,0,0,1,3.238,1.128c.589,1.664-.043,3.488.46,5.152.46.969,1.64.122,2.041-.489a15.467,15.467,0,0,0,1.986-4.2c.354-1.037,1.018-3.146,2.325-1.688.584,1.4-1.682,7.331,1.047,6.946,1.852-1.116,2.444-3.459,3.372-5.29.483-.929.624-2.8,2.02-2.644.3.05.506.17.491.541-.133,1.645-.135,3.3-.273,4.943l.051.016c.817-1.539,1.638-3.355,3.348-4.061,2.17-.852,2.9,1.6,3.06,3.266l.053.005c.667-1.3,1.478-2.729,2.958-3.212a2.319,2.319,0,0,1,2.826,1.083c.8,1.737.044,3.66.211,5.479.184,1.033,1.31.237,1.607-.274a18.109,18.109,0,0,0,2.11-4.6c.357-.8.422-2.347,1.644-2.052.554.166,1.172,2.94,1.525,3.641,1-1.3,1.868-2.988,3.53-3.628a3.88,3.88,0,0,1,5.048,3.168,4.54,4.54,0,0,1-7.153,4.819c.313,2.263,1.252,4.59.776,6.926-1.014,4.124-6.766,3.024-5.187-3.256a31.4,31.4,0,0,1,1.978-5.87,13.22,13.22,0,0,0-.979-2.7c-.907,2.209-2.02,6.222-4.978,6.046-1.6-.073-1.907-1.8-1.746-3.095.017-1.212.5-2.607-.108-3.725-.733-.761-1.751.087-2.1.8a17.989,17.989,0,0,0-1.53,4.1c-.268.63-.253,1.925-1.159,1.911a.65.65,0,0,1-.658-.594c-.376-1.214.515-7.581-1.82-6.5C111.342,28,111,30.658,110.21,32.816c-.143.625-1.318,1.039-1.511.209-.267-1.948.073-3.936,0-5.9l-.05-.005a15.958,15.958,0,0,1-3.069,5.074c-2.352,2.122-4.319.116-4.766-2.436a7.1,7.1,0,0,1-2.7,2.74,2.108,2.108,0,0,1-2.987-1.178c-.635-1.608.1-3.351-.356-4.968-.918-1.507-2.482.368-2.874,1.39a35.867,35.867,0,0,0-1.713,5.183.941.941,0,0,1-1.724-.478C88.331,30.712,88.284,28.977,88.064,27.239Zm48.066,1.545c-.214-3.628-3.338-3.84-5.1-.981-.243.464-1.374,1.834-1.071,2.256C131.786,32.478,136.055,32.366,136.13,28.784ZM89.782,22.56l.065.006a27.033,27.033,0,0,0,3.883-7.478c.209-.9.658-2.427-.136-3.113-.6-.395-1.3.254-1.6.794A22.685,22.685,0,0,0,89.782,22.56Zm39.046,9.891-.051.026c-.377,1.585-2.493,6.824-.3,7.494C131.293,40.337,129.307,33.849,128.828,32.451Z"/><path class="cls-3" d="M62.947,31.159c-3.29,3.476-6.912,2.482-7.68-2.3a11.373,11.373,0,0,1-2.607,3.379c-1.747,1.4-3.926.4-4.546-1.629-.959,2.609-4.3,4.471-6.353,1.867-1.887,1.957-5.207,1.754-5.828-1.2-.392-4.069,1.23-8.071,1.282-12.138.107-2.906-2.627-2.3-3.684-.352-2.2,3.576-3.313,7.694-4.815,11.587-.431.918-.461,2.464-1.6,2.77a.711.711,0,0,1-.806-.511,11.808,11.808,0,0,1-.072-3.452c.138-3.5.459-7,.333-10.508,0-4.094-2.563-4.668-4.257-.944-1.772,4.058-2.666,8.422-4,12.631-.405.956-.443,3.017-1.67,3.184-.391,0-.837.1-.921-.436a14.874,14.874,0,0,1,.015-3.233c.165-2.777.3-5.556.474-8.331.021-2.418.666-5.133-.482-7.368-2.289-2.265-4.138,1.472-4.609,3.417-.185.262-.294.4-.611.144-.927-.935-.4-2.461.108-3.488,1.107-2.477,5.055-3.4,6.694-.994,1.841,3.253.174,10.136.259,13.869,1.221-3.687,2.594-12.971,6.939-13.831,5.978-.711,3.416,10.747,3.522,14.29l.046,0c1.216-3.777,2.23-7.881,4.947-10.9,3.265-3,6.527-.791,5.962,3.422-.248,2.3-.7,4.577-1.042,6.866-.134,1.5-.787,3.22,0,4.612.81,1.146,2.417.545,3.169-.362.259-.819-.062-1.8.254-2.66.465-2.845,4.633-6.759,7.053-3.676.177-1.033.535-2.059,1.8-1.834,1.892-.059-1.464,6.078.151,7.659,2.558,1.969,4.409-4.945,5.182-6.538.253-.665,1.79-.716,1.79.12-.132,2.583-.685,9.835,3.772,6.419.336-.45,1.31-.86,1.068-1.495a14.2,14.2,0,0,1-.524-2.711c-.191-4.074-.3-11.652,3.421-14.173,3.3-1.556,4.119,2.659,3.883,5.063a24.511,24.511,0,0,1-2.545,8.644A23.018,23.018,0,0,1,64.7,28.983c-.142.322-.6.607-.555.963A2.32,2.32,0,0,0,68.134,31c.2-.178.4-.366.608-.542.539-.368.87.481.669.9A3.346,3.346,0,0,1,66.2,33.448C64.721,33.448,63.709,32.265,62.947,31.159Zm.654-3.51c2.067-3.245,4.522-9.78,3.087-13.519-1.623-1.408-2.725,3.711-2.947,4.746A26.8,26.8,0,0,0,63.6,27.649ZM42.927,29.932a1.573,1.573,0,0,0,2.611,1.555,7.364,7.364,0,0,0,2.252-3.763,1.673,1.673,0,0,0-2.407-2.176A5.239,5.239,0,0,0,42.927,29.932Z"/><path class="cls-3" d="M101.715,19.5c-.062-1.572,2.7-1.673,2.589.151A1.3,1.3,0,0,1,101.715,19.5Z"/><path class="cls-3" d="M57.231,18.279a1.28,1.28,0,0,1-.028,2.559A1.28,1.28,0,1,1,57.231,18.279Z"/></g></svg>