<svg id="Layer_1" data-name="Layer 1" xmlns="http://www.w3.org/2000/svg" viewBox="0 0 72 72"><defs><style>.cls-1{fill:#c7b28a;}.cls-2{fill:#12141d;}</style></defs><path class="cls-1" d="M68.617,0,63.743,9.153a21.05,21.05,0,0,1-18.6,11.15,20.97,20.97,0,0,1-9.863-2.466L1.67,0Z"/><path class="cls-2" d="M72,2.04V68.863L53.54,59.07a10.5,10.5,0,0,1-4.35-14.207Z"/><path class="cls-2" d="M70.087,72H3.14l4.873-9.153A21.057,21.057,0,0,1,26.61,51.7h0a20.962,20.962,0,0,1,9.864,2.466Z"/><path class="cls-1" d="M22.81,27.267,0,70.09V3.263l18.46,9.8A10.5,10.5,0,0,1,22.81,27.267Z"/></svg>