<svg id="Layer_1" data-name="Layer 1" xmlns="http://www.w3.org/2000/svg" xmlns:xlink="http://www.w3.org/1999/xlink" viewBox="0 0 120 50"><defs><style>.cls-1{fill:none;}.cls-2{clip-path:url(#clip-path);}.cls-3{fill:#1b2d45;}</style><clipPath id="clip-path"><rect class="cls-1" width="120" height="50"/></clipPath></defs><g class="cls-2"><path class="cls-3" d="M80.033,21.847c1.842-1.607,3.668-1.9,5.563-.89a3.705,3.705,0,0,1,1.381,1.2c.264.4.377.474.745.057a4.722,4.722,0,0,1,6.115-1.2,4.884,4.884,0,0,1,2.414,4.429c.073,2.826.026,5.655.042,8.483,0,.294-.074.436-.383.387a.527.527,0,0,0-.069,0c-.689-.012-1.589.234-2.007-.108-.438-.357-.128-1.293-.134-1.975-.017-2.092.008-4.185-.01-6.277a2.753,2.753,0,0,0-2.846-3.008,2.718,2.718,0,0,0-2.7,2.714c-.01,2.691-.016,5.381.01,8.071,0,.49-.128.635-.608.593a8.834,8.834,0,0,0-1.517,0c-.445.039-.526-.124-.523-.537q.029-3.966,0-7.932a2.776,2.776,0,1,0-5.548-.16q-.021,3.966.006,7.933c.005.5-.065.772-.656.7-.629-.082-1.479.263-1.842-.138-.313-.345-.1-1.176-.1-1.793,0-3.679.009-7.358-.014-11.037,0-.486.117-.664.6-.592a4.67,4.67,0,0,0,.69.006C79.85,20.771,79.85,20.771,80.033,21.847Z"/><path class="cls-3" d="M70.74,31.584a5.245,5.245,0,0,1-3.827,1.565,5.412,5.412,0,0,1-5.179-3.419,6.757,6.757,0,0,1,.378-6.614,5.545,5.545,0,0,1,8.307-1.446c.081.068.156.143.237.219.055-.073.1-.1.1-.136.037-.949.036-.949,1-.949,1.61,0,1.61,0,1.61,1.579q0,5.549,0,11.1a6.659,6.659,0,0,1-9.84,5.713c-.3-.165-.5-.321-.181-.648a1.243,1.243,0,0,0,.121-.242,4.417,4.417,0,0,1,.876-1.37c.45-.327.9.287,1.376.409a4.006,4.006,0,0,0,5.02-3.534C70.789,33.111,70.74,32.406,70.74,31.584Zm-7.048-4.809a3.547,3.547,0,1,0,7.074.006,3.548,3.548,0,1,0-7.074-.006Z"/><path class="cls-3" d="M110.075,22.126a.486.486,0,0,0,.05-.127c.061-1.228.061-1.228,1.345-1.228,1.253,0,1.253,0,1.253,1.233,0,3.907-.009,7.814.011,11.72,0,.478-.108.679-.6.6a2.707,2.707,0,0,0-.413,0c-.483,0-1.048.143-1.427-.058-.441-.234-.017-.879-.246-1.362a6.584,6.584,0,0,1-3.839,1.77,6.439,6.439,0,0,1-6.9-4.776,7.365,7.365,0,0,1,2.619-8.373,6.368,6.368,0,0,1,7.479.175C109.615,21.851,109.782,22.09,110.075,22.126Zm.053,5.463c-.019-.273-.029-.479-.048-.684a4.586,4.586,0,0,0-3.358-3.891,4.256,4.256,0,0,0-4.477,2,4.713,4.713,0,0,0,1.942,6.781A4.319,4.319,0,0,0,110.128,27.589Z"/><path class="cls-3" d="M40.6,24.209c0-3.148.014-6.3-.015-9.444-.005-.529.142-.633.644-.629q4.762.036,9.524,0c.459,0,.667.08.62.59-.057.612.186,1.417-.123,1.8-.326.4-1.161.12-1.773.125-1.909.017-3.818.027-5.727-.007-.5-.009-.548.194-.542.6.018,1.447.027,2.9,0,4.343-.011.474.1.621.6.611,1.7-.033,3.405,0,5.107-.024.46-.007.6.127.564.577-.048.637.2,1.476-.121,1.863-.338.407-1.207.113-1.843.123-1.219.02-2.439.031-3.657-.007-.5-.015-.656.1-.65.631.031,2.734-.011,5.47.033,8.2.011.665-.206.824-.8.762a6.826,6.826,0,0,0-1.31,0c-.435.041-.532-.112-.529-.533C40.611,30.6,40.6,27.4,40.6,24.209Z"/><path class="cls-3" d="M54.69,27.507c0-2.061.014-4.122-.01-6.182-.006-.448.109-.6.564-.563.659.05,1.529-.208,1.93.123.423.349.123,1.248.125,1.9.013,3.6-.006,7.206.019,10.809,0,.548-.092.8-.7.724-.627-.083-1.475.271-1.836-.145-.31-.357-.092-1.178-.094-1.794C54.687,30.759,54.69,29.133,54.69,27.507Z"/><path class="cls-3" d="M54.331,16.511a1.7,1.7,0,0,1,3.389-.053,1.7,1.7,0,1,1-3.389.053Z"/><path class="cls-3" d="M30.428,14.9a4.906,4.906,0,0,1-4.9,4.9H15.488a4.9,4.9,0,1,1,0-9.8h10.04A4.907,4.907,0,0,1,30.428,14.9Z"/><path class="cls-3" d="M20.387,30.08v4.9a4.9,4.9,0,1,1-4.9-4.9Z"/><circle class="cls-3" cx="25.528" cy="24.94" r="4.9"/><path class="cls-3" d="M20.387,20.04v9.8h-4.9a4.9,4.9,0,1,1,0-9.8Z"/></g></svg>