<svg id="Layer_1" data-name="Layer 1" xmlns="http://www.w3.org/2000/svg" xmlns:xlink="http://www.w3.org/1999/xlink" viewBox="0 0 250 50"><defs><style>.cls-1{fill:none;}.cls-2{clip-path:url(#clip-path);}.cls-3{fill:#1b2d45;}</style><clipPath id="clip-path"><rect class="cls-1" width="250" height="50"/></clipPath></defs><g class="cls-2"><path class="cls-3" d="M23.274,26.453H15.422L13.161,33a.3.3,0,0,1-.283.22H10.554c-.168,0-.231-.083-.188-.251l6.941-19.38a10.671,10.671,0,0,0,.219-1.384.139.139,0,0,1,.157-.157h3.3a.168.168,0,0,1,.188.126l7.444,20.8c.063.168.021.251-.126.251H25.881a.281.281,0,0,1-.251-.189ZM16.05,24.22h6.627q-.032-.063-1.492-4.326t-1.837-5.553h-.031Q18.939,15.757,16.05,24.22Z"/><path class="cls-3" d="M38.443,33.532a7.932,7.932,0,0,1-5.622-2.013,7.474,7.474,0,0,1-2.166-5.758,7.682,7.682,0,0,1,2.323-5.772,8.306,8.306,0,0,1,6.03-2.25,7.366,7.366,0,0,1,2.45.315V10.472a.167.167,0,0,1,.189-.189h2.481c.1,0,.157.063.157.189v19.82c0,.524.02,1.059.063,1.6.02.1-.032.189-.157.252A11.944,11.944,0,0,1,38.443,33.532Zm3.015-2.7V20.35a4.9,4.9,0,0,0-2.481-.535A5.1,5.1,0,0,0,35,21.42a6.023,6.023,0,0,0-1.46,4.215,5.566,5.566,0,0,0,1.523,4.279,5.184,5.184,0,0,0,3.659,1.416A5.818,5.818,0,0,0,41.458,30.827Z"/><path class="cls-3" d="M55.308,17.739a6.836,6.836,0,0,1,5.324,2.2A8.117,8.117,0,0,1,62.626,25.6a8.05,8.05,0,0,1-2.041,5.773,6.979,6.979,0,0,1-5.308,2.155A6.7,6.7,0,0,1,49.765,31.2a8.527,8.527,0,0,1-1.9-5.569,8,8,0,0,1,2.073-5.662A6.992,6.992,0,0,1,55.308,17.739Zm-.125,2.076a3.913,3.913,0,0,0-3.235,1.558,6.616,6.616,0,0,0-1.225,4.2,6.906,6.906,0,0,0,1.225,4.247,4,4,0,0,0,3.392,1.635,4.046,4.046,0,0,0,3.125-1.462,6.32,6.32,0,0,0,1.3-4.326,7.127,7.127,0,0,0-1.162-4.2A3.916,3.916,0,0,0,55.183,19.815Z"/><path class="cls-3" d="M66.489,10.283h2.418c.146,0,.22.063.22.189v8.085a8.556,8.556,0,0,1,3.706-.818,6.732,6.732,0,0,1,5.151,2.076,7.594,7.594,0,0,1,1.947,5.411A8.027,8.027,0,0,1,77.607,31.3a7.74,7.74,0,0,1-5.559,2.234,12.2,12.2,0,0,1-5.591-1.2.3.3,0,0,1-.188-.282V10.472C66.269,10.346,66.342,10.283,66.489,10.283ZM77.041,25.447a5.924,5.924,0,0,0-1.287-4.027,4.387,4.387,0,0,0-3.486-1.479,6.332,6.332,0,0,0-3.141.755V30.764a6.086,6.086,0,0,0,3.078.691,4.385,4.385,0,0,0,3.439-1.6A6.48,6.48,0,0,0,77.041,25.447Z"/><path class="cls-3" d="M92.273,25.887H85.552a5.414,5.414,0,0,0,1.257,3.9,4.906,4.906,0,0,0,3.863,1.479,8.6,8.6,0,0,0,3.894-.818q.189-.126.189.126v1.73a.269.269,0,0,1-.158.283,9.681,9.681,0,0,1-4.49.944q-3.832,0-5.638-2.249a8.54,8.54,0,0,1-1.806-5.522,8.68,8.68,0,0,1,1.9-5.725,6.317,6.317,0,0,1,5.135-2.3,5.574,5.574,0,0,1,4.632,1.9,6.732,6.732,0,0,1,1.524,4.325,9.5,9.5,0,0,1-.094,1.573.313.313,0,0,1-.252.252A31.855,31.855,0,0,1,92.273,25.887Zm-6.721-1.856h5.591a14.4,14.4,0,0,0,1.978-.063,2.24,2.24,0,0,0,.032-.5,4.363,4.363,0,0,0-.832-2.564,3.127,3.127,0,0,0-2.748-1.18,3.411,3.411,0,0,0-2.795,1.227A5.827,5.827,0,0,0,85.552,24.031Z"/><path class="cls-3" d="M107.065,33.06V12.013c0-.146.052-.22.157-.22q1.821-.063,4.554-.063a8.124,8.124,0,0,1,5.748,1.825,6.176,6.176,0,0,1,1.947,4.719,5.855,5.855,0,0,1-2.324,5.1,9.944,9.944,0,0,1-5.936,1.667q-2.01,0-2.638-.063V33.06a.139.139,0,0,1-.157.157h-1.162C107.128,33.217,107.065,33.165,107.065,33.06Zm1.508-19.977V23.654q1.129.095,2.669.094a8.677,8.677,0,0,0,4.79-1.243,4.606,4.606,0,0,0,1.931-4.2,4.732,4.732,0,0,0-1.7-3.932,6.989,6.989,0,0,0-4.491-1.353Q109.2,13.02,108.573,13.083Z"/><path class="cls-3" d="M123.459,33.028V10.157a.139.139,0,0,1,.157-.157h1.194c.1,0,.157.042.157.126v9.658a7,7,0,0,1,4.867-1.888,5.531,5.531,0,0,1,1.728.268,5.668,5.668,0,0,1,1.633.88,4.128,4.128,0,0,1,1.3,1.857,8.238,8.238,0,0,1,.488,3v9.123c0,.126-.054.189-.157.189h-1.2q-.156,0-.156-.189v-9.06a5.357,5.357,0,0,0-1.036-3.476,3.485,3.485,0,0,0-2.859-1.274,6.34,6.34,0,0,0-4.616,2.013V33.06a.139.139,0,0,1-.157.157h-1.163A.167.167,0,0,1,123.459,33.028Z"/><path class="cls-3" d="M140.858,20.13a6.867,6.867,0,0,1,10.065-.078,8.179,8.179,0,0,1,1.932,5.678,8.136,8.136,0,0,1-1.932,5.647,6.412,6.412,0,0,1-5.009,2.155,6.2,6.2,0,0,1-5.214-2.359,8.715,8.715,0,0,1-1.821-5.475A8.093,8.093,0,0,1,140.858,20.13Zm4.962-.975a4.865,4.865,0,0,0-3.925,1.809,7.047,7.047,0,0,0-1.508,4.671,7.462,7.462,0,0,0,1.491,4.72,4.907,4.907,0,0,0,4.1,1.918,5.1,5.1,0,0,0,3.753-1.651,6.676,6.676,0,0,0,1.618-4.861,7.751,7.751,0,0,0-1.4-4.687A4.783,4.783,0,0,0,145.82,19.155Z"/><path class="cls-3" d="M162.623,31.959v.849a.357.357,0,0,1-.127.252,4.646,4.646,0,0,1-2.166.472,3.141,3.141,0,0,1-2.419-.881,4.356,4.356,0,0,1-.816-2.989V19.469h-2.23c-.105,0-.157-.073-.157-.22v-.881a.139.139,0,0,1,.157-.157h2.23a23.43,23.43,0,0,1,.251-4.184.278.278,0,0,1,.158-.189l1.13-.22c.126-.042.188-.021.188.063a35.92,35.92,0,0,0-.22,4.53h3.581c.1,0,.157.063.157.189v.912a.139.139,0,0,1-.157.157H158.6V29.82q0,2.422,2.073,2.422a4.644,4.644,0,0,0,1.79-.378C162.569,31.8,162.623,31.833,162.623,31.959Z"/><path class="cls-3" d="M166.58,20.13a6.868,6.868,0,0,1,10.066-.078,8.188,8.188,0,0,1,1.932,5.678,8.145,8.145,0,0,1-1.932,5.647,6.417,6.417,0,0,1-5.01,2.155,6.2,6.2,0,0,1-5.213-2.359A8.7,8.7,0,0,1,164.6,25.7,8.093,8.093,0,0,1,166.58,20.13Zm4.962-.975a4.867,4.867,0,0,0-3.926,1.809,7.052,7.052,0,0,0-1.507,4.671,7.456,7.456,0,0,0,1.491,4.72,4.908,4.908,0,0,0,4.1,1.918,5.1,5.1,0,0,0,3.752-1.651,6.672,6.672,0,0,0,1.618-4.861,7.744,7.744,0,0,0-1.4-4.687A4.784,4.784,0,0,0,171.542,19.155Z"/><path class="cls-3" d="M189.788,20.161a5.5,5.5,0,0,0-3.328-1.006,3.412,3.412,0,0,0-2.45.739,2.493,2.493,0,0,0-.079,3.492,7.3,7.3,0,0,0,2.623,1.431,8.909,8.909,0,0,1,3.172,1.857,3.727,3.727,0,0,1,.974,2.705,3.619,3.619,0,0,1-1.429,3.084,5.791,5.791,0,0,1-3.566,1.069,6.939,6.939,0,0,1-3.988-1.069.3.3,0,0,1-.126-.252V30.858c0-.126.053-.157.158-.094a5.8,5.8,0,0,0,3.988,1.478,3.929,3.929,0,0,0,2.576-.755,2.384,2.384,0,0,0,.91-1.919,2.623,2.623,0,0,0-.737-1.935,8.082,8.082,0,0,0-2.654-1.494,8.584,8.584,0,0,1-3.063-1.809,3.534,3.534,0,0,1-.958-2.564,3.493,3.493,0,0,1,1.272-2.784,5.072,5.072,0,0,1,3.408-1.086,6.507,6.507,0,0,1,3.36.724.255.255,0,0,1,.127.252v1.164C189.978,20.245,189.914,20.287,189.788,20.161Z"/><path class="cls-3" d="M194.436,33.028V10.157a.139.139,0,0,1,.158-.157h1.193c.1,0,.156.042.156.126v9.658a7,7,0,0,1,4.869-1.888,5.52,5.52,0,0,1,1.727.268,5.655,5.655,0,0,1,1.633.88,4.128,4.128,0,0,1,1.3,1.857,8.238,8.238,0,0,1,.488,3v9.123c0,.126-.053.189-.158.189h-1.193c-.1,0-.156-.063-.156-.189v-9.06a5.351,5.351,0,0,0-1.037-3.476,3.486,3.486,0,0,0-2.859-1.274,6.347,6.347,0,0,0-4.617,2.013V33.06a.138.138,0,0,1-.156.157h-1.163A.167.167,0,0,1,194.436,33.028Z"/><path class="cls-3" d="M211.835,20.13a6.868,6.868,0,0,1,10.066-.078,8.183,8.183,0,0,1,1.931,5.678,8.14,8.14,0,0,1-1.931,5.647,6.414,6.414,0,0,1-5.01,2.155,6.2,6.2,0,0,1-5.213-2.359,8.709,8.709,0,0,1-1.821-5.475A8.092,8.092,0,0,1,211.835,20.13Zm4.962-.975a4.867,4.867,0,0,0-3.925,1.809,7.047,7.047,0,0,0-1.508,4.671,7.463,7.463,0,0,0,1.492,4.72,4.9,4.9,0,0,0,4.1,1.918,5.1,5.1,0,0,0,3.754-1.651,6.68,6.68,0,0,0,1.617-4.861,7.744,7.744,0,0,0-1.4-4.687A4.784,4.784,0,0,0,216.8,19.155Z"/><path class="cls-3" d="M233.412,17.9a6.545,6.545,0,0,1,5.025,2.061,7.609,7.609,0,0,1,1.916,5.4,7.763,7.763,0,0,1-2.341,6.056,7.85,7.85,0,0,1-5.448,2.124,9.857,9.857,0,0,1-3.361-.5v7.677a.169.169,0,0,1-.125.188,3.063,3.063,0,0,0-.455.048l-.519.078c-.147.021-.23.032-.251.032-.106,0-.158-.042-.158-.126V20.256a6.019,6.019,0,0,0-.062-.944.126.126,0,0,1,.062-.126A14.88,14.88,0,0,1,233.412,17.9Zm-.252,1.322a10.681,10.681,0,0,0-3.957.755V31.55a7.552,7.552,0,0,0,3.423.723,5.969,5.969,0,0,0,4.413-1.824,6.8,6.8,0,0,0,1.806-5,6.522,6.522,0,0,0-1.539-4.5A5.272,5.272,0,0,0,233.16,19.218Z"/></g></svg>