<svg id="Layer_1" data-name="Layer 1" xmlns="http://www.w3.org/2000/svg" xmlns:xlink="http://www.w3.org/1999/xlink" viewBox="0 0 230 50"><defs><style>.cls-1{fill:none;}.cls-2{clip-path:url(#clip-path);}.cls-3{fill:#1b2d45;}</style><clipPath id="clip-path"><rect class="cls-1" width="230" height="50"/></clipPath></defs><g class="cls-2"><path class="cls-3" d="M20.612,20.55h9.932a8.2,8.2,0,0,1,.141.9,9.887,9.887,0,0,1,.057,1.059,13.469,13.469,0,0,1-.594,4.045,9.582,9.582,0,0,1-1.868,3.392,9.409,9.409,0,0,1-3.254,2.459,10.273,10.273,0,0,1-4.33.871,10.109,10.109,0,0,1-4.16-.871,10.314,10.314,0,0,1-3.4-2.428,11.745,11.745,0,0,1-2.292-3.688A12.454,12.454,0,0,1,10,21.639a12.461,12.461,0,0,1,.849-4.652A11.756,11.756,0,0,1,13.141,13.3a10.343,10.343,0,0,1,3.4-2.428A10.109,10.109,0,0,1,20.7,10a10.025,10.025,0,0,1,4.4.934,9.919,9.919,0,0,1,3.325,2.583L25.79,16.349a7.112,7.112,0,0,0-2.207-1.759,6.978,6.978,0,0,0-5.547-.062,6.568,6.568,0,0,0-2.179,1.541,7.423,7.423,0,0,0-1.485,2.411,8.634,8.634,0,0,0-.552,3.159,8.625,8.625,0,0,0,.552,3.158,7.288,7.288,0,0,0,1.5,2.413,6.71,6.71,0,0,0,2.192,1.54,6.571,6.571,0,0,0,2.661.544,6.529,6.529,0,0,0,2.731-.513,6.359,6.359,0,0,0,1.909-1.322,5.058,5.058,0,0,0,.977-1.416,8.6,8.6,0,0,0,.636-1.914H20.612Z"/><path class="cls-3" d="M39.882,17.033a7.1,7.1,0,0,1,2.958.607,7.012,7.012,0,0,1,2.32,1.68,7.782,7.782,0,0,1,1.528,2.568,9.947,9.947,0,0,1,0,6.535,7.772,7.772,0,0,1-1.528,2.568,7,7,0,0,1-2.32,1.68,7.508,7.508,0,0,1-5.915,0,6.988,6.988,0,0,1-2.32-1.68,7.772,7.772,0,0,1-1.528-2.568,9.947,9.947,0,0,1,0-6.535A7.782,7.782,0,0,1,34.6,19.32a7,7,0,0,1,2.32-1.68A7.1,7.1,0,0,1,39.882,17.033Zm0,12.479a3.346,3.346,0,0,0,1.373-.3,3.492,3.492,0,0,0,1.174-.856,4.108,4.108,0,0,0,.807-1.369,5.823,5.823,0,0,0,0-3.672,4.1,4.1,0,0,0-.807-1.37,3.5,3.5,0,0,0-1.174-.855,3.362,3.362,0,0,0-2.759,0,3.532,3.532,0,0,0-1.16.855,4.1,4.1,0,0,0-.807,1.37,5.823,5.823,0,0,0,0,3.672,4.108,4.108,0,0,0,.807,1.369,3.521,3.521,0,0,0,1.16.856A3.314,3.314,0,0,0,39.882,29.512Z"/><path class="cls-3" d="M56.181,17.033a7.1,7.1,0,0,1,2.958.607,7.012,7.012,0,0,1,2.32,1.68,7.782,7.782,0,0,1,1.528,2.568,9.947,9.947,0,0,1,0,6.535,7.772,7.772,0,0,1-1.528,2.568,7,7,0,0,1-2.32,1.68,7.508,7.508,0,0,1-5.915,0,6.988,6.988,0,0,1-2.32-1.68,7.772,7.772,0,0,1-1.528-2.568,9.947,9.947,0,0,1,0-6.535A7.782,7.782,0,0,1,50.9,19.32a7,7,0,0,1,2.32-1.68A7.1,7.1,0,0,1,56.181,17.033Zm0,12.479a3.349,3.349,0,0,0,1.373-.3,3.492,3.492,0,0,0,1.174-.856,4.108,4.108,0,0,0,.807-1.369,5.823,5.823,0,0,0,0-3.672,4.1,4.1,0,0,0-.807-1.37,3.5,3.5,0,0,0-1.174-.855,3.334,3.334,0,0,0-1.373-.3,3.3,3.3,0,0,0-1.386.3,3.532,3.532,0,0,0-1.16.855,4.1,4.1,0,0,0-.807,1.37,5.823,5.823,0,0,0,0,3.672,4.108,4.108,0,0,0,.807,1.369,3.521,3.521,0,0,0,1.16.856A3.314,3.314,0,0,0,56.181,29.512Z"/><path class="cls-3" d="M72.311,40a7.58,7.58,0,0,1-2.618-.42,7.2,7.2,0,0,1-2-1.09,6.959,6.959,0,0,1-1.415-1.478,5.937,5.937,0,0,1-.82-1.618L69,33.838a3.675,3.675,0,0,0,1.3,1.883,3.3,3.3,0,0,0,2.009.669,3.388,3.388,0,0,0,2.773-1.252A5.314,5.314,0,0,0,76.1,31.691V30.633h-.226A4.661,4.661,0,0,1,74.164,32.2a5.174,5.174,0,0,1-2.5.576,5.615,5.615,0,0,1-2.42-.554,6.38,6.38,0,0,1-2.08-1.587,8.3,8.3,0,0,1-1.471-2.481,8.816,8.816,0,0,1-.566-3.236,8.936,8.936,0,0,1,.566-3.251,8.241,8.241,0,0,1,1.471-2.5,6.38,6.38,0,0,1,2.08-1.587,5.6,5.6,0,0,1,2.42-.555,5.174,5.174,0,0,1,2.5.576,4.678,4.678,0,0,1,1.712,1.571H76.1V17.531H79.64v14.16a10.5,10.5,0,0,1-.538,3.47,7.648,7.648,0,0,1-1.5,2.614A6.5,6.5,0,0,1,75.3,39.424,7.506,7.506,0,0,1,72.311,40Zm.141-10.892a3.479,3.479,0,0,0,1.344-.275,3.4,3.4,0,0,0,1.174-.809,4.079,4.079,0,0,0,.821-1.314,4.806,4.806,0,0,0,.311-1.788,4.922,4.922,0,0,0-.311-1.8,4.035,4.035,0,0,0-.821-1.329,3.4,3.4,0,0,0-1.174-.809,3.48,3.48,0,0,0-1.344-.276,3.391,3.391,0,0,0-2.49,1.1,4.252,4.252,0,0,0-.821,1.33,5.292,5.292,0,0,0,0,3.575,4.062,4.062,0,0,0,.821,1.314,3.443,3.443,0,0,0,1.16.809A3.375,3.375,0,0,0,72.452,29.108Z"/><path class="cls-3" d="M82.808,32.78V10.5h3.708V32.78Z"/><path class="cls-3" d="M102.672,29.108a8.257,8.257,0,0,1-2.588,3.018,6.707,6.707,0,0,1-3.976,1.152,6.985,6.985,0,0,1-5.264-2.3A7.86,7.86,0,0,1,89.3,28.408a9.233,9.233,0,0,1-.551-3.252,9.087,9.087,0,0,1,.537-3.128,8.1,8.1,0,0,1,1.5-2.583,7.288,7.288,0,0,1,2.278-1.758,6.424,6.424,0,0,1,2.9-.654,6.945,6.945,0,0,1,2.971.607,6.111,6.111,0,0,1,2.179,1.68,7.448,7.448,0,0,1,1.33,2.537,10.684,10.684,0,0,1,.453,3.174V25.4a2.289,2.289,0,0,0-.028.343,1.905,1.905,0,0,0-.029.342H92.4a4.577,4.577,0,0,0,.467,1.6,3.784,3.784,0,0,0,.877,1.12,3.313,3.313,0,0,0,1.146.654,4.088,4.088,0,0,0,1.273.2,3.372,3.372,0,0,0,2.108-.638,4.522,4.522,0,0,0,1.316-1.6ZM99.305,23.2a2.832,2.832,0,0,0-.24-.9,3.173,3.173,0,0,0-.623-.934,3.239,3.239,0,0,0-1.019-.716,3.456,3.456,0,0,0-1.457-.28,3.2,3.2,0,0,0-2.094.747A3.976,3.976,0,0,0,92.6,23.2Z"/><path class="cls-3" d="M131.79,21.639a11.908,11.908,0,0,1-3,8.278,9.858,9.858,0,0,1-14.828,0,11.909,11.909,0,0,1-3-8.278,11.909,11.909,0,0,1,3-8.278,9.828,9.828,0,0,1,14.828.031A11.866,11.866,0,0,1,131.79,21.639Zm-18.167,0a9.331,9.331,0,0,0,2.208,6.38,7.114,7.114,0,0,0,5.546,2.52,7.034,7.034,0,0,0,5.518-2.52,9.189,9.189,0,0,0,2.236-6.38A9.188,9.188,0,0,0,126.9,15.26a7.032,7.032,0,0,0-5.518-2.522,7.113,7.113,0,0,0-5.546,2.522A9.328,9.328,0,0,0,113.623,21.639Z"/><path class="cls-3" d="M141.638,33.278a5.544,5.544,0,0,1-2.788-.716,5.06,5.06,0,0,1-1.938-1.9H136.8l.113,2.116V39.5h-2.6V17.531H136.8v2.116h.113a5.067,5.067,0,0,1,1.938-1.9,5.544,5.544,0,0,1,2.788-.716,5.754,5.754,0,0,1,4.641,2.365,8.83,8.83,0,0,1,1.952,5.758,8.749,8.749,0,0,1-1.952,5.757A5.751,5.751,0,0,1,141.638,33.278Zm-.425-2.614a3.911,3.911,0,0,0,3.141-1.556,5.957,5.957,0,0,0,1.273-3.952,6.038,6.038,0,0,0-1.273-3.953,3.976,3.976,0,0,0-6.309,0,6.125,6.125,0,0,0-1.246,3.953,6.171,6.171,0,0,0,1.246,3.983A3.965,3.965,0,0,0,141.213,30.664Z"/><path class="cls-3" d="M155.533,33.029a3.762,3.762,0,0,1-2.817-1.151,4.507,4.507,0,0,1-1.146-3.206V20.145h-2.433V17.531h2.433V12.863h2.6v4.668h3.395v2.614h-3.395v7.594a2.972,2.972,0,0,0,.538,2.069,1.667,1.667,0,0,0,1.216.545,2.38,2.38,0,0,0,.608-.078,2.927,2.927,0,0,0,.552-.2l.821,2.552A6.426,6.426,0,0,1,155.533,33.029Z"/><path class="cls-3" d="M163.567,12.272a2.046,2.046,0,0,1-.537,1.431,1.727,1.727,0,0,1-2.6,0,2.177,2.177,0,0,1,0-2.863,1.729,1.729,0,0,1,2.6,0A2.052,2.052,0,0,1,163.567,12.272Zm-.537,5.259V32.78h-2.6V17.531Z"/><path class="cls-3" d="M169.029,32.78h-2.6V17.531h2.49v2.116h.113a4.842,4.842,0,0,1,1.824-1.867,4.7,4.7,0,0,1,5.136.031,4.5,4.5,0,0,1,1.7,2.148,5.321,5.321,0,0,1,4.783-2.926,4.486,4.486,0,0,1,3.707,1.618,7.189,7.189,0,0,1,1.3,4.606V32.78h-2.6V23.693a5.272,5.272,0,0,0-.707-3.1,2.78,2.78,0,0,0-2.378-.949,3.024,3.024,0,0,0-2.517,1.4,5.452,5.452,0,0,0-1.02,3.3V32.78h-2.6V23.693a5.272,5.272,0,0,0-.707-3.1,2.775,2.775,0,0,0-2.377-.949,3.023,3.023,0,0,0-2.518,1.4,5.451,5.451,0,0,0-1.019,3.3Z"/><path class="cls-3" d="M193.9,12.272a2.047,2.047,0,0,1-.538,1.431,1.726,1.726,0,0,1-2.6,0,2.177,2.177,0,0,1,0-2.863,1.727,1.727,0,0,1,2.6,0A2.053,2.053,0,0,1,193.9,12.272Zm-.538,5.259V32.78h-2.6V17.531Z"/><path class="cls-3" d="M207.286,32.78H196.08V30.291l7.895-10.146h-7.668V17.531h10.865v2.49l-7.894,10.145h8.008Z"/><path class="cls-3" d="M215.718,33.278a6.353,6.353,0,0,1-5.037-2.3,8.6,8.6,0,0,1-1.98-5.819,8.776,8.776,0,0,1,1.924-5.8,6.487,6.487,0,0,1,9.834-.125,9.356,9.356,0,0,1,1.824,6.146l-.027.312h-10.9a5.224,5.224,0,0,0,1.359,3.609,4.143,4.143,0,0,0,3.113,1.37q2.49,0,3.905-2.739l2.32,1.245a7.348,7.348,0,0,1-2.59,3.019A6.667,6.667,0,0,1,215.718,33.278Zm-4.16-9.958h7.952a3.938,3.938,0,0,0-1.175-2.63,3.877,3.877,0,0,0-2.843-1.043,3.573,3.573,0,0,0-2.532,1A4.874,4.874,0,0,0,211.558,23.32Z"/></g></svg>