<svg id="Layer_1" data-name="Layer 1" xmlns="http://www.w3.org/2000/svg" xmlns:xlink="http://www.w3.org/1999/xlink" viewBox="0 0 150 50"><defs><style>.cls-1{fill:none;}.cls-2{clip-path:url(#clip-path);}.cls-3{fill:#1b2d45;}</style><clipPath id="clip-path"><rect class="cls-1" width="150" height="50"/></clipPath></defs><g class="cls-2"><path class="cls-3" d="M19.328,10.454h-8.74V33.113H19.2c8.158,0,12.916-4.855,12.916-11.394v-.066C32.115,15.115,27.421,10.454,19.328,10.454Zm6.345,11.362c0,3.657-2.492,5.729-6.247,5.729H16.869V16.021h2.557c3.755,0,6.247,2.1,6.247,5.73Zm10.617,11.3H42.6V10.454H36.29ZM57.17,19c-3.141-.712-3.918-1.165-3.918-2.2v-.066c0-.809.745-1.457,2.266-1.457a11.365,11.365,0,0,1,6.345,2.234L65,13.074a14.265,14.265,0,0,0-9.322-3.01c-5.439,0-8.773,3.042-8.773,7.251v.065c0,4.661,3.723,6.021,8.545,7.121,3.076.711,3.82,1.229,3.82,2.169v.064c0,.971-.906,1.554-2.589,1.554a11.667,11.667,0,0,1-7.348-2.719l-3.5,4.176A15.825,15.825,0,0,0,56.457,33.5c5.5,0,9.161-2.751,9.161-7.381v-.064c0-4.24-3.237-5.924-8.448-7.057ZM93.1,21.783v-.065C93.1,15.212,87.921,10,80.929,10A11.871,11.871,0,0,0,68.693,21.783v.065c0,6.506,5.179,11.718,12.172,11.718a12.593,12.593,0,0,0,6.894-2.007l2.492,2.233,3.173-3.528-2.33-1.974A11.31,11.31,0,0,0,93.1,21.783Zm-6.377.129a6.169,6.169,0,0,1-.388,2.2L83.26,21.329,80.088,24.89l3.14,2.687a6.446,6.446,0,0,1-2.3.421,5.89,5.89,0,0,1-5.794-6.15v-.065a5.83,5.83,0,0,1,5.729-6.118,5.932,5.932,0,0,1,5.86,6.183v.064Zm24.893,1.3c0,3.172-1.651,4.661-4.176,4.661s-4.176-1.553-4.176-4.823V10.454H96.888V23.175c0,7.089,4.046,10.359,10.488,10.359s10.617-3.2,10.617-10.52V10.454h-6.377ZM132.139,19c-3.14-.712-3.917-1.165-3.917-2.2v-.066c0-.809.745-1.457,2.267-1.457a11.367,11.367,0,0,1,6.344,2.234l3.14-4.435a14.263,14.263,0,0,0-9.322-3.01c-5.438,0-8.773,3.042-8.773,7.251v.064c0,4.662,3.723,6.022,8.546,7.121,3.075.713,3.82,1.231,3.82,2.17v.064c0,.971-.907,1.554-2.59,1.554a11.672,11.672,0,0,1-7.348-2.719l-3.5,4.176A15.828,15.828,0,0,0,131.427,33.5c5.5,0,9.161-2.751,9.161-7.38v-.066c0-4.239-3.238-5.923-8.449-7.056Z"/></g></svg>