<svg id="Layer_1" data-name="Layer 1" xmlns="http://www.w3.org/2000/svg" xmlns:xlink="http://www.w3.org/1999/xlink" viewBox="0 0 270 50"><defs><style>.cls-1{fill:none;}.cls-2{clip-path:url(#clip-path);}.cls-3{fill:#1b2d45;}</style><clipPath id="clip-path"><rect class="cls-1" width="270" height="50"/></clipPath></defs><g class="cls-2"><path class="cls-3" d="M21.2,20.545h9.927a7.943,7.943,0,0,1,.142.9,10.134,10.134,0,0,1,.056,1.058,13.487,13.487,0,0,1-.593,4.043,9.583,9.583,0,0,1-1.867,3.391A9.4,9.4,0,0,1,25.607,32.4a10.249,10.249,0,0,1-4.328.871,10.079,10.079,0,0,1-4.157-.871,10.3,10.3,0,0,1-3.394-2.426,11.737,11.737,0,0,1-2.291-3.686,12.447,12.447,0,0,1-.849-4.65,12.456,12.456,0,0,1,.849-4.651A11.737,11.737,0,0,1,13.728,13.3a10.333,10.333,0,0,1,3.394-2.426A10.079,10.079,0,0,1,21.279,10,9.721,9.721,0,0,1,29,13.515l-2.63,2.831a7.108,7.108,0,0,0-2.206-1.758,6.971,6.971,0,0,0-5.544-.062,6.551,6.551,0,0,0-2.178,1.54,7.412,7.412,0,0,0-1.485,2.411,8.619,8.619,0,0,0-.551,3.157,8.623,8.623,0,0,0,.551,3.157,7.286,7.286,0,0,0,1.5,2.411,6.707,6.707,0,0,0,2.192,1.539,6.561,6.561,0,0,0,2.659.544,6.511,6.511,0,0,0,2.73-.513,6.353,6.353,0,0,0,1.909-1.322,5.019,5.019,0,0,0,.975-1.415,8.626,8.626,0,0,0,.637-1.913H21.2Z"/><path class="cls-3" d="M40.457,17.03a7.107,7.107,0,0,1,2.956.606,7.008,7.008,0,0,1,2.319,1.68,7.782,7.782,0,0,1,1.527,2.567,9.935,9.935,0,0,1,0,6.531,7.771,7.771,0,0,1-1.527,2.567,6.994,6.994,0,0,1-2.319,1.68,7.513,7.513,0,0,1-5.912,0,6.974,6.974,0,0,1-2.319-1.68,7.738,7.738,0,0,1-1.527-2.567,9.935,9.935,0,0,1,0-6.531,7.748,7.748,0,0,1,1.527-2.567,6.988,6.988,0,0,1,2.319-1.68A7.1,7.1,0,0,1,40.457,17.03Zm0,12.473a3.34,3.34,0,0,0,1.371-.3A3.482,3.482,0,0,0,43,28.352a4.1,4.1,0,0,0,.807-1.368,5.817,5.817,0,0,0,0-3.67A4.1,4.1,0,0,0,43,21.945a3.51,3.51,0,0,0-1.174-.856,3.368,3.368,0,0,0-2.757,0,3.559,3.559,0,0,0-1.16.856,4.113,4.113,0,0,0-.806,1.369,5.817,5.817,0,0,0,0,3.67,4.118,4.118,0,0,0,.806,1.368,3.531,3.531,0,0,0,1.16.856A3.31,3.31,0,0,0,40.457,29.5Z"/><path class="cls-3" d="M56.748,17.03a7.107,7.107,0,0,1,2.956.606,7.008,7.008,0,0,1,2.319,1.68,7.767,7.767,0,0,1,1.528,2.567,9.952,9.952,0,0,1,0,6.531,7.757,7.757,0,0,1-1.528,2.567,6.994,6.994,0,0,1-2.319,1.68,7.513,7.513,0,0,1-5.912,0,6.994,6.994,0,0,1-2.319-1.68,7.755,7.755,0,0,1-1.527-2.567,9.952,9.952,0,0,1,0-6.531,7.765,7.765,0,0,1,1.527-2.567,7.008,7.008,0,0,1,2.319-1.68A7.107,7.107,0,0,1,56.748,17.03Zm0,12.473a3.344,3.344,0,0,0,1.372-.3,3.492,3.492,0,0,0,1.174-.856,4.118,4.118,0,0,0,.806-1.368,5.817,5.817,0,0,0,0-3.67,4.113,4.113,0,0,0-.806-1.369,3.52,3.52,0,0,0-1.174-.856,3.371,3.371,0,0,0-2.758,0,3.545,3.545,0,0,0-1.159.856,4.1,4.1,0,0,0-.806,1.369,5.817,5.817,0,0,0,0,3.67,4.1,4.1,0,0,0,.806,1.368,3.517,3.517,0,0,0,1.159.856A3.314,3.314,0,0,0,56.748,29.5Z"/><path class="cls-3" d="M72.87,39.986a7.569,7.569,0,0,1-2.616-.42,7.2,7.2,0,0,1-2-1.089A7,7,0,0,1,66.845,37a5.975,5.975,0,0,1-.82-1.617l3.536-1.556a3.671,3.671,0,0,0,1.3,1.882,3.3,3.3,0,0,0,2.008.669,3.385,3.385,0,0,0,2.772-1.252,5.308,5.308,0,0,0,1.018-3.445V30.623h-.226a4.674,4.674,0,0,1-1.711,1.571,5.173,5.173,0,0,1-2.5.575,5.592,5.592,0,0,1-2.418-.554,6.349,6.349,0,0,1-2.079-1.586,8.3,8.3,0,0,1-1.471-2.48,8.823,8.823,0,0,1-.565-3.234,8.946,8.946,0,0,1,.565-3.249,8.273,8.273,0,0,1,1.471-2.5A6.36,6.36,0,0,1,69.8,17.585a5.593,5.593,0,0,1,2.418-.555,5.174,5.174,0,0,1,2.5.576,4.68,4.68,0,0,1,1.711,1.57h.226V17.528H80.2V31.681a10.493,10.493,0,0,1-.538,3.468,7.632,7.632,0,0,1-1.5,2.613,6.484,6.484,0,0,1-2.305,1.648A7.5,7.5,0,0,1,72.87,39.986ZM73.011,29.1a3.5,3.5,0,0,0,1.344-.274,3.414,3.414,0,0,0,1.173-.81,4.063,4.063,0,0,0,.821-1.313,4.8,4.8,0,0,0,.311-1.787,4.92,4.92,0,0,0-.311-1.8,4.03,4.03,0,0,0-.821-1.328,3.4,3.4,0,0,0-1.173-.81,3.5,3.5,0,0,0-1.344-.275,3.381,3.381,0,0,0-2.489,1.1,4.258,4.258,0,0,0-.82,1.328,5.29,5.29,0,0,0,0,3.574,4.061,4.061,0,0,0,.82,1.313,3.461,3.461,0,0,0,1.16.81A3.387,3.387,0,0,0,73.011,29.1Z"/><path class="cls-3" d="M83.363,32.769V10.5h3.7V32.769Z"/><path class="cls-3" d="M103.218,29.1a8.262,8.262,0,0,1-2.588,3.017,6.7,6.7,0,0,1-3.974,1.151,6.976,6.976,0,0,1-5.261-2.3A7.826,7.826,0,0,1,89.854,28.4a9.22,9.22,0,0,1-.552-3.251,9.051,9.051,0,0,1,.538-3.125,8.084,8.084,0,0,1,1.5-2.582,7.3,7.3,0,0,1,2.276-1.758,6.437,6.437,0,0,1,2.9-.653,6.954,6.954,0,0,1,2.969.606,6.107,6.107,0,0,1,2.178,1.68,7.438,7.438,0,0,1,1.33,2.535,10.715,10.715,0,0,1,.452,3.173V25.4a2.287,2.287,0,0,0-.028.342,1.913,1.913,0,0,0-.028.343H92.951a4.578,4.578,0,0,0,.467,1.6,3.794,3.794,0,0,0,.876,1.12,3.327,3.327,0,0,0,1.146.653,4.082,4.082,0,0,0,1.272.2,3.372,3.372,0,0,0,2.108-.638,4.535,4.535,0,0,0,1.315-1.6Zm-3.366-5.91a2.859,2.859,0,0,0-.24-.9,3.171,3.171,0,0,0-.622-.933,3.239,3.239,0,0,0-1.019-.716,3.454,3.454,0,0,0-1.456-.28,3.191,3.191,0,0,0-2.093.747,3.969,3.969,0,0,0-1.273,2.084Z"/><path class="cls-3" d="M115.1,32.769h-2.6V10.5h2.6L122.14,24.06h.113L129.3,10.5h2.6V32.769h-2.6V19.55l.113-3.733H129.3L122.96,28.041h-1.528L115.1,15.817h-.113l.113,3.733Z"/><path class="cls-3" d="M147.623,17.528l-8.683,21.96h-2.687l3.224-7.683-5.713-14.277h2.828l4.13,10.949h.057l4.016-10.949Z"/><path class="cls-3" d="M156,32.769V10.5h7.325a5.6,5.6,0,0,1,4.129,1.742,5.829,5.829,0,0,1,1.726,4.323,4.735,4.735,0,0,1-2.743,4.635v.124a4.971,4.971,0,0,1,2.489,1.945,5.517,5.517,0,0,1,.933,3.157,6.147,6.147,0,0,1-1.81,4.541,5.8,5.8,0,0,1-4.328,1.8Zm2.6-19.534v6.812h4.724a3.007,3.007,0,0,0,2.319-1.026,3.539,3.539,0,0,0,.029-4.759,2.862,2.862,0,0,0-2.235-1.027Zm0,9.487v7.31h5.233a3.132,3.132,0,0,0,2.4-1.088,3.774,3.774,0,0,0,.962-2.582,3.671,3.671,0,0,0-.99-2.551,3.222,3.222,0,0,0-2.489-1.089Z"/><path class="cls-3" d="M184.505,32.769h-2.489V30.654H181.9a5.233,5.233,0,0,1-8.3,1.011,6.8,6.8,0,0,1-1.372-4.557v-9.58h2.6v9.394q.084,3.732,3.422,3.732a3.152,3.152,0,0,0,2.6-1.384,5.33,5.33,0,0,0,1.047-3.313V17.528h2.6Z"/><path class="cls-3" d="M198.138,28.539a4.276,4.276,0,0,1-1.584,3.36,6.375,6.375,0,0,1-7.665.171,6.534,6.534,0,0,1-2.262-3.158l2.319-1.088a4.72,4.72,0,0,0,1.484,2.131,3.4,3.4,0,0,0,2.136.761,3.513,3.513,0,0,0,2.079-.59,1.7,1.7,0,0,0,.835-1.4q0-1.462-2.037-2.146l-2.376-.654q-4.046-1.119-4.045-4.292a4.1,4.1,0,0,1,1.542-3.344,6.524,6.524,0,0,1,7.269-.3,5.118,5.118,0,0,1,2.079,2.582l-2.32,1.058a3.1,3.1,0,0,0-1.287-1.509,3.742,3.742,0,0,0-1.993-.544,3.12,3.12,0,0,0-1.825.56,1.634,1.634,0,0,0-.806,1.368q0,1.306,2.235,1.867l2.093.591Q198.137,25.086,198.138,28.539Z"/><path class="cls-3" d="M203.625,12.271a2.052,2.052,0,0,1-.537,1.431,1.727,1.727,0,0,1-2.6,0,2.175,2.175,0,0,1,0-2.862,1.727,1.727,0,0,1,2.6,0A2.052,2.052,0,0,1,203.625,12.271Zm-.537,5.257V32.769h-2.6V17.528Z"/><path class="cls-3" d="M206.482,17.528h2.489v2.115h.113a5.233,5.233,0,0,1,8.3-1.011,6.807,6.807,0,0,1,1.372,4.557v9.58h-2.6V23.376q-.085-3.734-3.422-3.733a3.154,3.154,0,0,0-2.6,1.384,5.333,5.333,0,0,0-1.046,3.313v8.429h-2.6Z"/><path class="cls-3" d="M228.034,33.267a6.348,6.348,0,0,1-5.035-2.3,8.6,8.6,0,0,1-1.979-5.817,8.776,8.776,0,0,1,1.923-5.8,6.484,6.484,0,0,1,9.829-.124,9.341,9.341,0,0,1,1.823,6.143l-.027.311h-10.89a5.22,5.22,0,0,0,1.358,3.608,4.138,4.138,0,0,0,3.111,1.369q2.489,0,3.9-2.737l2.319,1.244a7.336,7.336,0,0,1-2.587,3.017A6.666,6.666,0,0,1,228.034,33.267Zm-4.158-9.953h7.947a3.945,3.945,0,0,0-1.173-2.629,3.88,3.88,0,0,0-2.843-1.042,3.572,3.572,0,0,0-2.531,1A4.875,4.875,0,0,0,223.876,23.314Z"/><path class="cls-3" d="M247.719,28.539a4.278,4.278,0,0,1-1.583,3.36,6.376,6.376,0,0,1-7.666.171,6.543,6.543,0,0,1-2.263-3.158l2.32-1.088a4.714,4.714,0,0,0,1.485,2.131,3.391,3.391,0,0,0,2.135.761,3.517,3.517,0,0,0,2.079-.59,1.7,1.7,0,0,0,.834-1.4q0-1.462-2.036-2.146l-2.376-.654q-4.046-1.119-4.045-4.292a4.1,4.1,0,0,1,1.542-3.344,6.524,6.524,0,0,1,7.269-.3,5.118,5.118,0,0,1,2.079,2.582l-2.319,1.058a3.116,3.116,0,0,0-1.287-1.509,3.752,3.752,0,0,0-2-.544,3.119,3.119,0,0,0-1.824.56,1.634,1.634,0,0,0-.806,1.368q0,1.306,2.234,1.867l2.094.591Q247.718,25.086,247.719,28.539Z"/><path class="cls-3" d="M260.588,28.539A4.279,4.279,0,0,1,259,31.9a6.375,6.375,0,0,1-7.665.171,6.543,6.543,0,0,1-2.263-3.158l2.319-1.088a4.721,4.721,0,0,0,1.485,2.131,3.394,3.394,0,0,0,2.136.761,3.513,3.513,0,0,0,2.079-.59,1.7,1.7,0,0,0,.834-1.4q0-1.462-2.036-2.146l-2.376-.654q-4.046-1.119-4.045-4.292a4.1,4.1,0,0,1,1.542-3.344,6.523,6.523,0,0,1,7.268-.3,5.108,5.108,0,0,1,2.079,2.582l-2.319,1.058a3.111,3.111,0,0,0-1.287-1.509,3.745,3.745,0,0,0-1.993-.544,3.117,3.117,0,0,0-1.825.56,1.634,1.634,0,0,0-.806,1.368q0,1.306,2.235,1.867l2.093.591Q260.587,25.086,260.588,28.539Z"/></g></svg>