<svg id="Layer_1" data-name="Layer 1" xmlns="http://www.w3.org/2000/svg" xmlns:xlink="http://www.w3.org/1999/xlink" viewBox="0 0 120.235 50"><defs><style>.cls-1{fill:none;}.cls-2{clip-path:url(#clip-path);}.cls-3{fill:#1b2d45;}</style><clipPath id="clip-path"><rect class="cls-1" width="120" height="50"/></clipPath></defs><g class="cls-2"><path class="cls-3" d="M29.516,15.005a4.648,4.648,0,0,0-2.78-4.167,8.682,8.682,0,0,0-3.8-.816c-2.769-.029-5.538-.009-8.307-.009A1.167,1.167,0,0,0,13.3,11.144q-.675,4.188-1.335,8.38-.916,5.8-1.824,11.611c-.016.1,0,.207-.142.226v.6a1.049,1.049,0,0,0,.977.459c1.141-.022,2.282-.005,3.424-.008.821,0,1.17-.286,1.3-1.084.278-1.7.542-3.405.814-5.108.156-.971.531-1.274,1.519-1.294a36.588,36.588,0,0,0,4.068-.1,7.77,7.77,0,0,0,5.253-2.637A10.064,10.064,0,0,0,29.516,15.005Zm-8.174,5.233a7.094,7.094,0,0,1-1.483.227c-.333.023-.67,0-1.005,0v.013h-.7c-.748,0-.738,0-.622-.715.241-1.486.481-2.972.7-4.461.07-.478.282-.823.775-.825a12.227,12.227,0,0,1,2.947.194,1.839,1.839,0,0,1,1.549,1.8C23.583,18.116,23.062,19.745,21.342,20.238Z"/><path class="cls-3" d="M87.142,14.949a4.641,4.641,0,0,0-1.15-2.887,6.384,6.384,0,0,0-4.237-1.946c-1.755-.224-3.522-.043-4.971-.1H72.293a1.189,1.189,0,0,0-1.379,1.141q-.465,2.9-.919,5.807-1.134,7.22-2.267,14.441c-.118.755.095,1.017.876,1.019q1.814.006,3.626,0c.694,0,.956-.208,1.065-.877.261-1.6.506-3.208.759-4.812q.046-.3.1-.595A1.244,1.244,0,0,1,75.6,24.932a23.455,23.455,0,0,0,5.258-.307,7.363,7.363,0,0,0,4.639-3.114A10.545,10.545,0,0,0,87.142,14.949ZM78.96,20.24a7.234,7.234,0,0,1-1.533.228c-.317.021-.637,0-.955,0-.448-.027-1.029.2-1.309-.076s.035-.816.094-1.237c.187-1.341.415-2.675.624-4.013a.694.694,0,0,1,.7-.659,12.069,12.069,0,0,1,3.041.207,1.825,1.825,0,0,1,1.494,1.787C81.207,18.207,80.639,19.754,78.96,20.24Z"/><path class="cls-3" d="M46.542,17.476c-1.208-.015-2.417-.008-3.626,0a.751.751,0,0,0-.811.724,2.322,2.322,0,0,1-.206.827,3.692,3.692,0,0,0-2.074-1.537,8.912,8.912,0,0,0-11.418,9.544,5.925,5.925,0,0,0,2.467,4.643,7.084,7.084,0,0,0,6.3.733,8.6,8.6,0,0,0,2.859-1.641,1.506,1.506,0,0,1-.02.679c-.12.636.14.964.788.969q1.636.012,3.274,0A1.077,1.077,0,0,0,45.234,31.4c.079-.462.145-.926.218-1.389l1.842-11.6A.718.718,0,0,0,46.542,17.476Zm-5.448,8.266a4.366,4.366,0,0,1-5.311,2.811A2.754,2.754,0,0,1,33.645,26a4.408,4.408,0,0,1,4.408-4.8C40.544,21.206,41.926,23.27,41.094,25.742Z"/><path class="cls-3" d="M104.134,17.475q-1.788-.018-3.574,0a.761.761,0,0,0-.841.749,2.359,2.359,0,0,1-.19.794,3.733,3.733,0,0,0-2.073-1.53,8.983,8.983,0,0,0-4.957-.05A9.164,9.164,0,0,0,86,26.517a6.373,6.373,0,0,0,2.062,4.8c1.763,1.553,3.867,1.681,6.056,1.276a8.713,8.713,0,0,0,3.508-1.77l.052.05a4.105,4.105,0,0,1-.022.5c-.119.749.117,1.048.858,1.051,1.057.005,2.114.011,3.171,0a1.119,1.119,0,0,0,1.184-1.054c.359-2.279.725-4.557,1.084-6.836q.485-3.07.959-6.144A.707.707,0,0,0,104.134,17.475Zm-5.2,7.073A4.23,4.23,0,0,1,94.706,28.7c-1.881.109-3.455-.873-3.434-3.089a4.336,4.336,0,0,1,5.673-4.195A2.835,2.835,0,0,1,98.933,24.548Z"/><path class="cls-3" d="M67.845,17.84a.8.8,0,0,0-.819-.37c-1.108,0-2.216.019-3.323-.006a1.533,1.533,0,0,0-1.427.75q-2.223,3.322-4.487,6.619a3.461,3.461,0,0,1-.714.933c-.064-.186-.122-.339-.169-.495Q55.9,21.9,54.891,18.536a1.277,1.277,0,0,0-1.428-1.064c-1.124,0-2.249-.008-3.373,0-.7.007-.972.4-.752,1.049q2.028,5.967,4.067,11.93a.881.881,0,0,1-.142.912c-1.218,1.684-2.415,3.384-3.615,5.081-.4.567-.306.911.307,1.175l-.056.084h4.333l-.078-.093a1.3,1.3,0,0,0,.892-.675q1.45-2.083,2.9-4.167,4.869-7.025,9.737-14.049A.794.794,0,0,0,67.845,17.84Z"/><path class="cls-3" d="M113.127,10.015c-.571-.008-1.142,0-1.713,0h-1.662c-.633,0-.844.167-.946.793-.251,1.554-.488,3.109-.732,4.664q-.834,5.31-1.669,10.619c-.279,1.769-.567,3.537-.841,5.307-.117.758.122,1.023.888,1.026.739,0,1.478,0,2.217,0,1.718,0,1.8-.049,2.075-1.721.51-3.1,1-6.209,1.488-9.315q.829-5.23,1.654-10.461A.709.709,0,0,0,113.127,10.015Z"/></g></svg>