<svg id="Layer_1" data-name="Layer 1" xmlns="http://www.w3.org/2000/svg" xmlns:xlink="http://www.w3.org/1999/xlink" viewBox="0 0 230 50"><defs><style>.cls-1{fill:none;}.cls-2{clip-path:url(#clip-path);}.cls-3{fill:#1b2d45;}</style><clipPath id="clip-path"><rect class="cls-1" width="230" height="50"/></clipPath></defs><g class="cls-2"><path class="cls-3" d="M22.959,26.034H15.084L12.816,32.6a.305.305,0,0,1-.283.221H10.2c-.169,0-.232-.084-.189-.253l6.961-19.436A10.753,10.753,0,0,0,17.2,11.74a.139.139,0,0,1,.157-.157H20.66a.168.168,0,0,1,.188.126l7.466,20.856c.063.169.021.253-.126.253H25.573a.283.283,0,0,1-.251-.19Zm-7.245-2.24h6.647q-.033-.063-1.5-4.339t-1.842-5.569H18.99Q18.612,15.307,15.714,23.794Z"/><path class="cls-3" d="M38.173,33.133a7.952,7.952,0,0,1-5.638-2.019,7.493,7.493,0,0,1-2.174-5.774,7.705,7.705,0,0,1,2.331-5.79,8.332,8.332,0,0,1,6.048-2.256,7.408,7.408,0,0,1,2.457.315v-7.6a.167.167,0,0,1,.189-.189h2.488c.1,0,.158.063.158.189V29.884q0,.787.063,1.609c.021.105-.032.189-.157.252A11.979,11.979,0,0,1,38.173,33.133ZM41.2,30.42V19.913a4.91,4.91,0,0,0-2.489-.537,5.12,5.12,0,0,0-3.984,1.609,6.042,6.042,0,0,0-1.465,4.228,5.583,5.583,0,0,0,1.528,4.292,5.2,5.2,0,0,0,3.67,1.419A5.837,5.837,0,0,0,41.2,30.42Z"/><path class="cls-3" d="M55.088,17.294A6.856,6.856,0,0,1,60.427,19.5a8.136,8.136,0,0,1,2,5.68,8.073,8.073,0,0,1-2.047,5.79,7,7,0,0,1-5.323,2.161A6.72,6.72,0,0,1,49.529,30.8a8.549,8.549,0,0,1-1.906-5.585A8.023,8.023,0,0,1,49.7,19.534,7.013,7.013,0,0,1,55.088,17.294Zm-.126,2.082a3.925,3.925,0,0,0-3.244,1.562,6.633,6.633,0,0,0-1.229,4.212,6.922,6.922,0,0,0,1.229,4.26,4.012,4.012,0,0,0,3.4,1.641,4.059,4.059,0,0,0,3.134-1.467,6.343,6.343,0,0,0,1.307-4.339A7.155,7.155,0,0,0,58.4,21.033,3.931,3.931,0,0,0,54.962,19.376Z"/><path class="cls-3" d="M66.3,9.816h2.425c.147,0,.22.063.22.189v8.109a8.574,8.574,0,0,1,3.717-.82,6.75,6.75,0,0,1,5.166,2.082A7.615,7.615,0,0,1,79.783,24.8a8.049,8.049,0,0,1-2.331,6.09,7.761,7.761,0,0,1-5.575,2.24,12.242,12.242,0,0,1-5.607-1.2.3.3,0,0,1-.189-.284V10.005C66.081,9.879,66.154,9.816,66.3,9.816ZM76.885,25.024a5.942,5.942,0,0,0-1.291-4.039A4.4,4.4,0,0,0,72.1,19.5a6.347,6.347,0,0,0-3.15.758v10.1a6.108,6.108,0,0,0,3.087.694,4.4,4.4,0,0,0,3.449-1.609A6.5,6.5,0,0,0,76.885,25.024Z"/><path class="cls-3" d="M92.161,25.466h-6.74a5.431,5.431,0,0,0,1.26,3.913,4.922,4.922,0,0,0,3.874,1.482,8.632,8.632,0,0,0,3.906-.82q.189-.126.189.126V31.9a.272.272,0,0,1-.158.284,9.714,9.714,0,0,1-4.5.946q-3.843,0-5.654-2.256a8.557,8.557,0,0,1-1.811-5.537A8.711,8.711,0,0,1,84.428,19.6a6.337,6.337,0,0,1,5.15-2.3A5.594,5.594,0,0,1,94.225,19.2a6.759,6.759,0,0,1,1.527,4.338,9.452,9.452,0,0,1-.094,1.578.312.312,0,0,1-.252.252A31.941,31.941,0,0,1,92.161,25.466ZM85.421,23.6h5.607a14.3,14.3,0,0,0,1.984-.063,2.324,2.324,0,0,0,.032-.5,4.374,4.374,0,0,0-.835-2.571,3.137,3.137,0,0,0-2.756-1.183,3.424,3.424,0,0,0-2.8,1.23A5.837,5.837,0,0,0,85.421,23.6Z"/><path class="cls-3" d="M108.509,11.488v21.14c0,.126-.053.19-.158.19h-1.165a.168.168,0,0,1-.189-.19V11.52c0-.126.052-.19.157-.19h1.2A.14.14,0,0,1,108.509,11.488Z"/><path class="cls-3" d="M113.769,30.23V9.658c0-.084.063-.126.188-.126h1.166c.1,0,.157.042.157.126V30.2a1.959,1.959,0,0,0,.315,1.309,1.2,1.2,0,0,0,.914.332,4.264,4.264,0,0,0,.819-.095c.042-.021.068-.021.079,0a.343.343,0,0,1,.015.126v.852a.169.169,0,0,1-.125.189,2.645,2.645,0,0,1-1.261.221Q113.77,33.133,113.769,30.23Z"/><path class="cls-3" d="M120.792,30.23V9.658q0-.126.189-.126h1.165c.105,0,.158.042.158.126V30.2a1.96,1.96,0,0,0,.314,1.309,1.2,1.2,0,0,0,.915.332,4.272,4.272,0,0,0,.818-.095c.042-.021.067-.021.079,0a.343.343,0,0,1,.015.126v.852a.169.169,0,0,1-.126.189,2.641,2.641,0,0,1-1.26.221Q120.791,33.133,120.792,30.23Z"/><path class="cls-3" d="M139.06,17.925V29.568a23.944,23.944,0,0,0,.158,3.092c.021.106-.021.158-.127.158h-1.165a.149.149,0,0,1-.158-.127,6.989,6.989,0,0,1-.157-1.546,6.219,6.219,0,0,1-4.756,1.988A5.356,5.356,0,0,1,129.2,31.84q-1.48-1.294-1.48-4.512v-9.4a.139.139,0,0,1,.157-.158h1.2a.14.14,0,0,1,.158.158V27.17a5.228,5.228,0,0,0,1.007,3.407,3.494,3.494,0,0,0,2.867,1.231,5.466,5.466,0,0,0,4.442-2.082v-11.8a.139.139,0,0,1,.157-.158h1.2A.139.139,0,0,1,139.06,17.925Z"/><path class="cls-3" d="M151.124,19.723a5.522,5.522,0,0,0-3.34-1.009,3.418,3.418,0,0,0-2.456.741,2.5,2.5,0,0,0-.078,3.5,7.291,7.291,0,0,0,2.63,1.436,8.922,8.922,0,0,1,3.18,1.862,3.739,3.739,0,0,1,.978,2.713,3.63,3.63,0,0,1-1.434,3.093,5.8,5.8,0,0,1-3.574,1.072,6.956,6.956,0,0,1-4-1.072.3.3,0,0,1-.127-.253V30.451c0-.126.052-.157.158-.094a5.817,5.817,0,0,0,4,1.483,3.94,3.94,0,0,0,2.583-.758,2.393,2.393,0,0,0,.915-1.924,2.631,2.631,0,0,0-.742-1.941,8.092,8.092,0,0,0-2.661-1.5,8.6,8.6,0,0,1-3.071-1.814,3.547,3.547,0,0,1-.961-2.572A3.507,3.507,0,0,1,144.4,18.54a5.087,5.087,0,0,1,3.418-1.089,6.536,6.536,0,0,1,3.37.726.258.258,0,0,1,.126.253V19.6Q151.313,19.914,151.124,19.723Z"/><path class="cls-3" d="M161.77,31.556v.851a.37.37,0,0,1-.125.253,4.684,4.684,0,0,1-2.175.473,3.147,3.147,0,0,1-2.424-.883,4.367,4.367,0,0,1-.82-3V19.029h-2.237c-.105,0-.157-.073-.157-.221v-.883a.139.139,0,0,1,.157-.158h2.237a23.532,23.532,0,0,1,.252-4.2.286.286,0,0,1,.158-.19l1.134-.22c.126-.043.189-.021.189.063a36.085,36.085,0,0,0-.221,4.543h3.591c.106,0,.158.063.158.189v.916a.139.139,0,0,1-.158.157h-3.591V29.41q0,2.43,2.079,2.43a4.667,4.667,0,0,0,1.8-.379C161.718,31.4,161.77,31.43,161.77,31.556Z"/><path class="cls-3" d="M164.857,17.767h1.134a.176.176,0,0,1,.189.158,11.174,11.174,0,0,1,.219,2.051,6.118,6.118,0,0,1,5.009-2.525c.126,0,.189.053.189.158v1.263c0,.105-.063.157-.189.157a5.909,5.909,0,0,0-2.725.568,5.341,5.341,0,0,0-2,1.609,1.2,1.2,0,0,0-.252.821V32.66a.139.139,0,0,1-.157.158h-1.2a.139.139,0,0,1-.157-.158V21.806a31.519,31.519,0,0,0-.188-3.881C164.731,17.82,164.772,17.767,164.857,17.767Z"/><path class="cls-3" d="M184.007,23.068v7.478q0,.726.032,1.073a.127.127,0,0,1-.063.126,10.413,10.413,0,0,1-5.324,1.388,6.3,6.3,0,0,1-4.031-1.2,4.2,4.2,0,0,1-1.512-3.5,3.771,3.771,0,0,1,1.968-3.5,9.97,9.97,0,0,1,5.025-1.135q1.8,0,2.425.063V22.721a4.9,4.9,0,0,0-.141-1.152,5.822,5.822,0,0,0-.49-1.262,2.608,2.608,0,0,0-1.149-1.1,4.161,4.161,0,0,0-1.968-.426,7.681,7.681,0,0,0-4.189,1.262c-.127.042-.19.011-.19-.1v-1.1a.169.169,0,0,1,.126-.189,8.057,8.057,0,0,1,4.411-1.2A4.621,4.621,0,0,1,182.763,19,6.292,6.292,0,0,1,184.007,23.068Zm-1.48,8.046V25.087q-1.26-.124-2.425-.126a7.791,7.791,0,0,0-4.095.884A2.835,2.835,0,0,0,174.59,28.4a3.3,3.3,0,0,0,1.071,2.477,4.73,4.73,0,0,0,3.37,1.026A8.364,8.364,0,0,0,182.527,31.114Z"/><path class="cls-3" d="M194.591,31.556v.851a.363.363,0,0,1-.126.253,4.673,4.673,0,0,1-2.173.473,3.152,3.152,0,0,1-2.426-.883,4.378,4.378,0,0,1-.819-3V19.029h-2.236c-.106,0-.158-.073-.158-.221v-.883a.14.14,0,0,1,.158-.158h2.236a23.63,23.63,0,0,1,.252-4.2.289.289,0,0,1,.158-.19l1.135-.22c.125-.043.188-.021.188.063a36.085,36.085,0,0,0-.221,4.543h3.591c.1,0,.158.063.158.189v.916a.139.139,0,0,1-.158.157h-3.591V29.41q0,2.43,2.08,2.43a4.658,4.658,0,0,0,1.795-.379C194.539,31.4,194.591,31.43,194.591,31.556Z"/><path class="cls-3" d="M198.561,19.692a6.888,6.888,0,0,1,10.095-.079,8.21,8.21,0,0,1,1.937,5.7,8.163,8.163,0,0,1-1.937,5.664,6.434,6.434,0,0,1-5.025,2.161,6.216,6.216,0,0,1-5.228-2.366,8.739,8.739,0,0,1-1.827-5.49A8.116,8.116,0,0,1,198.561,19.692Zm4.976-.978a4.88,4.88,0,0,0-3.936,1.814,7.065,7.065,0,0,0-1.512,4.685,7.481,7.481,0,0,0,1.5,4.734,4.921,4.921,0,0,0,4.111,1.924,5.114,5.114,0,0,0,3.764-1.656,6.7,6.7,0,0,0,1.622-4.875,7.772,7.772,0,0,0-1.4-4.7A4.8,4.8,0,0,0,203.537,18.714Z"/><path class="cls-3" d="M214.435,17.767h1.134a.176.176,0,0,1,.189.158,11.017,11.017,0,0,1,.222,2.051,6.115,6.115,0,0,1,5.008-2.525c.126,0,.188.053.188.158v1.263c0,.105-.062.157-.188.157a5.906,5.906,0,0,0-2.725.568,5.349,5.349,0,0,0-2,1.609,1.2,1.2,0,0,0-.253.821V32.66a.139.139,0,0,1-.157.158h-1.2a.139.139,0,0,1-.158-.158V21.806a31.687,31.687,0,0,0-.189-3.881C214.31,17.82,214.351,17.767,214.435,17.767Z"/></g></svg>