<svg id="Layer_1" data-name="Layer 1" xmlns="http://www.w3.org/2000/svg" xmlns:xlink="http://www.w3.org/1999/xlink" viewBox="0 0 147.368 50"><defs><style>.cls-1{fill:none;}.cls-2{clip-path:url(#clip-path);}.cls-3{fill:#1b2d45;}</style><clipPath id="clip-path"><rect class="cls-1" width="147" height="50"/></clipPath></defs><g class="cls-2"><path class="cls-3" d="M23.48,32.161a4.576,4.576,0,0,0,4.027,1.473A7.59,7.59,0,0,0,33.268,29.8a10.321,10.321,0,0,0,1.493-5.151,8.374,8.374,0,0,0-4.018-7.7,10.067,10.067,0,0,0-6.917-1.464,9.282,9.282,0,0,0-6.677,3.64,8.56,8.56,0,0,0-1.3,8.186,5.4,5.4,0,0,0,2.418,3.124c.442.247.562.179.751-.278.207-.5.236-1.03.4-1.532a.812.812,0,0,0-.219-.731,6.282,6.282,0,0,1,1.179-8.046,6.4,6.4,0,0,1,4.306-1.611,6.828,6.828,0,0,1,3.838.905,5.518,5.518,0,0,1,2.65,4.2,9.093,9.093,0,0,1-.5,4.352A5.033,5.033,0,0,1,28.005,30.8c-1.186.492-2.739.527-3.491-.913a2.376,2.376,0,0,1-.069-1.814A30.753,30.753,0,0,0,25.6,23.84c.218-1.627-.712-2.666-2.045-2.613a2.489,2.489,0,0,0-2.071,1.358,4.962,4.962,0,0,0-.39,3.955,3.026,3.026,0,0,1,0,1.608c-.409,1.645-.754,3.306-1.165,4.951a13.493,13.493,0,0,0-.586,4.586c.026.264.038.531.084.791.064.366-.141.422-.387.3a16.982,16.982,0,0,1-3.284-1.968,15.13,15.13,0,0,1-3.513-3.945,15.933,15.933,0,0,1-1.856-4.515,15.353,15.353,0,0,1-.248-5.533,13.583,13.583,0,0,1,1.36-4.4,14.789,14.789,0,0,1,4.262-5.242,15.184,15.184,0,0,1,3.194-1.919,19.821,19.821,0,0,1,3.424-1.068,17.419,17.419,0,0,1,2.947-.165,11.808,11.808,0,0,1,4.467.676,15.108,15.108,0,0,1,3.57,1.783,14.973,14.973,0,0,1,6.6,14.466,14.73,14.73,0,0,1-5.23,9.543,13.347,13.347,0,0,1-4.844,2.69,14.625,14.625,0,0,1-6.692.678c-.744-.119-1.474-.3-2.218-.408-.3-.043-.253-.145-.128-.372a22.186,22.186,0,0,0,1.41-2.87,28.9,28.9,0,0,0,.833-3A3.616,3.616,0,0,1,23.48,32.161Z"/><path class="cls-3" d="M45.715,24.413c0-2.694.011-5.388-.011-8.082,0-.478.139-.6.608-.6,2.315.025,4.634-.059,6.946.036a5.641,5.641,0,0,1,5.452,3.608,5.8,5.8,0,0,1,.369,2.787A5.4,5.4,0,0,1,56.764,26.3a5.98,5.98,0,0,1-3.4.964c-1.025.014-2.051.028-3.075,0-.467-.014-.629.119-.621.6.026,1.574-.008,3.15.021,4.724.009.465-.148.58-.583.567-.91-.027-1.823-.036-2.733,0-.513.022-.68-.121-.675-.657C45.729,29.8,45.715,27.108,45.715,24.413Zm3.968-2.846c0,.664.015,1.328-.006,1.991-.011.326.1.418.422.412,1.005-.018,2.011-.028,3.015,0a2.044,2.044,0,0,0,1.33-.5,2.515,2.515,0,0,0,.748-2.605,2.319,2.319,0,0,0-2.232-1.646c-.948-.026-1.9,0-2.845-.016-.326-.007-.439.115-.434.426C49.69,20.278,49.684,20.923,49.683,21.567Z"/><path class="cls-3" d="M64.57,26.951c0-1.879.018-3.758-.013-5.636-.007-.471.148-.566.576-.553.911.029,1.823.024,2.734,0,.383-.01.539.086.531.5-.007.356-.188.822.146,1.033.123.078.4-.451.63-.676A4.587,4.587,0,0,1,72.78,20.4a4.137,4.137,0,0,1,3.881,4.266c0,2.676,0,5.351.021,8.027,0,.348-.108.464-.455.458-.968-.018-1.937-.025-2.905,0-.417.012-.551-.1-.547-.537.022-2.3.017-4.592,0-6.888a1.943,1.943,0,0,0-.931-1.848,2.153,2.153,0,0,0-2.842.633,3.368,3.368,0,0,0-.489,1.889c0,2.049-.015,4.1.01,6.148.006.481-.146.619-.613.6-.968-.031-1.937-.023-2.905,0-.35.008-.449-.1-.446-.45C64.579,30.784,64.57,28.867,64.57,26.951Z"/><path class="cls-3" d="M92.113,27.914c-1.309,0-2.62.019-3.929-.009-.484-.011-.58.158-.51.6a2.721,2.721,0,0,0,1.919,2.11,2.332,2.332,0,0,0,2.82-.844.623.623,0,0,1,.563-.2c.949-.007,1.9,0,2.847-.011.412-.007.524.177.362.523a5.5,5.5,0,0,1-3.435,3.049,7.788,7.788,0,0,1-4.856-.021A5.641,5.641,0,0,1,84.469,30.1a7.206,7.206,0,0,1-.254-5.783,5.814,5.814,0,0,1,2.924-3.25,6.661,6.661,0,0,1,4.612-.529,5.562,5.562,0,0,1,4.178,3.645,8.7,8.7,0,0,1,.665,3.246c0,.373-.122.494-.494.489-1.329-.017-2.658-.007-3.987-.007Zm-2-2.288c.265,0,.53,0,.8,0s.53.008.794,0c1.05-.018,1.1-.091.706-1.08a2.532,2.532,0,0,0-2.414-1.5,2.694,2.694,0,0,0-2.3,2.081c-.059.369.038.519.433.5C88.783,25.607,89.446,25.624,90.108,25.626Z"/><path class="cls-3" d="M112.974,27.913c-1.31,0-2.62.015-3.929-.007-.473-.008-.558.136-.494.6a2.771,2.771,0,0,0,3.454,2.153,2.326,2.326,0,0,0,1.255-.846.609.609,0,0,1,.594-.235c.968-.016,1.936,0,2.9-.016.428-.006.433.217.3.509a5.455,5.455,0,0,1-3.505,3.08,7.749,7.749,0,0,1-4.8-.042,5.774,5.774,0,0,1-3.595-3.382,7.122,7.122,0,0,1-.34-4.56,5.983,5.983,0,0,1,3.2-4.106,6.8,6.8,0,0,1,4.623-.515,5.576,5.576,0,0,1,4.178,3.647,8.346,8.346,0,0,1,.643,3.145c-.006.43-.095.595-.562.584C115.594,27.892,114.284,27.913,112.974,27.913Zm-1.962-2.289v0c.683,0,1.366,0,2.048,0,.255,0,.476-.037.408-.373a2.382,2.382,0,0,0-2.348-2.188,2.441,2.441,0,0,0-2.549,2.081c-.081.35.027.49.392.482C109.646,25.614,110.329,25.624,111.012,25.624Z"/><path class="cls-3" d="M123.576,33.483a7.375,7.375,0,0,1-3.533-.649A4.19,4.19,0,0,1,117.65,29.9c-.06-.261.113-.314.279-.316q1.566-.015,3.132,0a.368.368,0,0,1,.374.285c.31,1.021,1.779,1.315,2.556,1.133.4-.094.844-.016,1.206-.388a1.119,1.119,0,0,0-.258-1.877,2.245,2.245,0,0,0-.852-.294,16.847,16.847,0,0,1-2.342-.42,4.788,4.788,0,0,1-3.177-1.533,3.766,3.766,0,0,1,.722-5.011,7.22,7.22,0,0,1,4.729-1.063,11.6,11.6,0,0,1,2.168.376,4.238,4.238,0,0,1,2.646,2.912c.068.42-.023.611-.513.586-.853-.043-1.709-.022-2.563-.006a.493.493,0,0,1-.525-.32,2.107,2.107,0,0,0-2.728-1.092c-.5.165-.953.346-1.007.981a.821.821,0,0,0,.6.956c.594.16,1.184.335,1.8.44a9.49,9.49,0,0,1,3.846,1.14,3.382,3.382,0,0,1,1.491,3.517,3.833,3.833,0,0,1-3.028,3.274A11.4,11.4,0,0,1,123.576,33.483Z"/><path class="cls-3" d="M81.975,26.435c0,.911-.008,1.822,0,2.733.01.8.313,1.1,1.1,1.117s.79.022.792.811c0,.531-.014,1.063.007,1.594.012.322-.075.478-.425.52a6.879,6.879,0,0,1-3.844-.391A2.469,2.469,0,0,1,78.175,30.5c-.046-2.181-.028-4.365-.034-6.547,0-.829,0-.84-.834-.856-.362-.007-.514-.147-.5-.514a11.207,11.207,0,0,0-.009-1.309c-.032-.418.153-.51.531-.508.81,0,.811-.012.811-.823,0-.911.01-1.822,0-2.733-.006-.373.1-.54.515-.525.93.032,1.862.026,2.792,0,.4-.011.534.138.528.525-.015,1.006.012,2.012-.009,3.018-.009.4.08.56.53.555,1.378-.015,1.378.007,1.378,1.389,0,.171-.007.342,0,.513.013.261-.1.385-.367.381-.3,0-.609.04-.909.01-.488-.048-.664.11-.638.627.045.909.012,1.822.012,2.733Z"/><path class="cls-3" d="M130.435,26.818c0-1.062-.021-2.125.009-3.187.013-.448-.127-.643-.577-.584-.5.065-.7-.139-.632-.643a5,5,0,0,0,.006-.682c0-.854,0-.874.868-.943.359-.028.323-.244.324-.468,0-1.006.022-2.012-.006-3.016-.014-.48.161-.624.626-.609.91.03,1.823.026,2.733,0,.361-.01.459.126.456.453-.01,1.006.013,2.012-.01,3.017-.011.464.141.667.622.621.32-.03.647.018.967-.011.415-.036.531.149.5.531-.027.339-.01.682-.01,1.024,0,.736,0,.745-.761.728-1.6-.035-1.3.026-1.309,1.311-.016,1.517-.007,3.035,0,4.553,0,1.008.369,1.412,1.355,1.369.58-.025.779.143.729.723a15.184,15.184,0,0,0-.009,1.707c.006.266-.049.411-.351.459A6.751,6.751,0,0,1,131.9,32.8a2.89,2.89,0,0,1-1.451-2.733c-.048-1.079-.01-2.162-.01-3.244Z"/><path class="cls-3" d="M101.049,22.654a5.553,5.553,0,0,1,1.623-1.688,1.493,1.493,0,0,1,.4-.186c1.736-.423,1.736-.425,1.731,1.356,0,.418-.022.837,0,1.253s-.093.617-.564.568a2.583,2.583,0,0,0-2.539,1.234,3.278,3.278,0,0,0-.56,1.8c-.021,1.841-.044,3.682-.024,5.523.006.513-.157.655-.649.637-.929-.034-1.861-.021-2.791,0-.345.006-.5-.061-.5-.465q.022-5.724,0-11.448c0-.328.065-.479.435-.47.969.022,1.938.02,2.906,0,.354-.008.459.116.452.458A4.715,4.715,0,0,0,101.049,22.654Z"/><path class="cls-3" d="M63.658,26.954c0,1.878-.016,3.757.012,5.635.007.469-.148.576-.582.562-.93-.03-1.861-.021-2.791,0-.351.007-.506-.075-.5-.47q.019-5.721,0-11.442c0-.386.139-.481.5-.472.949.021,1.9.032,2.848,0,.452-.017.529.155.525.558C63.648,23.2,63.658,25.075,63.658,26.954Z"/><path class="cls-3" d="M61.8,19.564A2.156,2.156,0,0,1,59.4,17.332a2.217,2.217,0,0,1,2.286-2.322,2.3,2.3,0,0,1,2.395,2.231A2.233,2.233,0,0,1,61.8,19.564Z"/></g></svg>