<svg id="Layer_1" data-name="Layer 1" xmlns="http://www.w3.org/2000/svg" xmlns:xlink="http://www.w3.org/1999/xlink" viewBox="0 0 150 50"><defs><style>.cls-1{fill:none;}.cls-2{clip-path:url(#clip-path);}.cls-3{fill:#1b2d45;}</style><clipPath id="clip-path"><rect class="cls-1" width="150" height="50"/></clipPath></defs><g class="cls-2"><path class="cls-3" d="M41.992,17.846h2.992c.45,2.086.922,4.186,1.446,6.264a15.907,15.907,0,0,0,1.045,3.831A21.539,21.539,0,0,0,48.35,24.8c.62-2.315,1.243-4.614,1.783-6.953h2.96c.544,2.178,1.044,4.363,1.629,6.535.228.913.355,1.868.65,2.759.114.284.061.651.372.862.529-.681.469-1.705.751-2.517.522-2.1.972-4.2,1.522-6.288.173-.4,0-1.252.508-1.364.9-.008,1.794,0,2.71,0-1.04,4.942-2.678,9.825-3.882,14.759-.916.087-1.844.014-2.764.035-.342,0-.374-.048-.438-.37q-.765-3.047-1.545-6.09c-.166-.91-.472-1.783-.66-2.688-.1-.345-.106-.691-.408-.941-1.032,3.283-1.676,6.719-2.571,10.062-.943.068-1.867.011-2.809.027-.349,0-.393-.059-.451-.4-.222-.939-.543-1.856-.761-2.8C44.023,25.569,42.717,21.726,41.992,17.846Z"/><path class="cls-3" d="M110.994,17.848c1.875,4.889,3.683,9.776,5.5,14.685a15.988,15.988,0,0,1-3.155.068c-.248-.708-.515-1.455-.76-2.173-.184-.467-.2-1.221-.86-1.212-6.273.284-4.755-1.34-6.451,3.344a20.09,20.09,0,0,1-3.049.009c1.74-4.926,3.677-9.788,5.512-14.686A23.433,23.433,0,0,1,110.994,17.848Zm-1.725,3.578a39.757,39.757,0,0,0-1.841,5.174c-.108.306-.048.433.266.435q1.609.014,3.22,0c.921,0-.22-1.724-.262-2.221C110.318,24.163,109.794,21.558,109.269,21.426Z"/><path class="cls-3" d="M120.242,31.354c-.58.228-.108,4.121-.3,5.016-.911.025-1.792.011-2.662.009-.093-.283-.126-13.864-.037-14.472.832-.032,1.674-.01,2.519-.014.274.515-.208,1.065.381,1.424.825-1.709,3.127-1.858,4.751-1.414,1.913.577,2.869,2.491,3.142,4.341.375,2.609-.674,6.107-3.644,6.539A4.071,4.071,0,0,1,120.242,31.354Zm5.09-4.011c-.008-1.349-.473-3.264-2.055-3.494-2.255-.656-3.31,1.392-3.322,3.356C119.718,32.089,125.427,32.115,125.332,27.343Z"/><path class="cls-3" d="M132.1,31.356a.714.714,0,0,0-.224.624c0,1.437,0,2.884,0,4.319a12.821,12.821,0,0,1-2.653.043c-.091-4.78-.043-9.584-.018-14.368a11.5,11.5,0,0,1,2.618-.022l.037,1.231a.361.361,0,0,0,.41-.243,3.255,3.255,0,0,1,2.758-1.233c3.793-.3,5.324,3.52,4.908,6.752a4.984,4.984,0,0,1-2.831,4.125A4.446,4.446,0,0,1,132.1,31.356Zm5.1-4.006h0c.449-4.359-5.268-5.087-5.322-.517-.048,1.3.077,2.769,1.224,3.586a2.47,2.47,0,0,0,1.511.477A2.977,2.977,0,0,0,137.194,27.35Z"/><path class="cls-3" d="M72.2,32.6H69.445c0-2.18,0-4.349,0-6.527a2.051,2.051,0,0,0-2.111-2.315c-2.339.136-2.428,2.522-2.31,4.335-.025,1.506,0,3-.006,4.506H62.332c-.088-.27-.107-14.315-.017-14.749H65c.051,1.644.006,3.287.021,4.931-.074.586.282.722.57.2.977-1.372,2.967-1.494,4.469-1.082,1.782.459,2.2,2.479,2.151,4.083C72.2,28.186,72.205,30.382,72.2,32.6Z"/><path class="cls-3" d="M76.836,25.1h-2.7c-.011-3.674,5.151-3.826,7.761-3.043a2.552,2.552,0,0,1,1.839,2.4c.132,2.711-.258,5.458.245,8.135H81.361c-.224-.243-.182-.643-.4-.915-1.9,1.541-5.989,1.969-7.026-.749-1.071-4.24,2.64-4.244,5.66-4.677a1.344,1.344,0,0,0,.609-2.565C78.978,23.027,76.911,23.487,76.836,25.1Zm4.156,2.408a.711.711,0,0,0-.64.045c-.431.112-.889.175-1.336.264-1.4.036-2.907.809-2.387,2.449.594.983,1.955,1.009,2.943.674C80.974,30.4,81.038,28.8,80.992,27.51Z"/><path class="cls-3" d="M101.538,24.948c-4.111.17-1.536-.076-3.33-1.22-2.434-1.207-4.656,1.163-1.683,2.058,3.047.838,6.739.975,4.949,5.278-1.1,1.82-3.728,2.007-5.625,1.715a3.788,3.788,0,0,1-3.783-3.407c.877-.052,1.706-.016,2.541-.025a2.473,2.473,0,0,0,2.8,1.752c1.241.084,2.568-1.54,1.174-2.387-1.679-.81-3.633-.791-5.251-1.731-1.032-.584-1.013-1.851-.9-2.879.367-1.806,2.554-2.482,4.191-2.393C98.684,21.492,101.708,22.434,101.538,24.948Z"/><path class="cls-3" d="M91.387,30.623a15.683,15.683,0,0,1,.017,1.961c-1.63.139-4.072.518-4.766-1.4-.079-.986-.026-2-.052-2.991-.01-1.36.011-2.723-.007-4.082-.079-.712-1.273-.278-1.768-.39a6.912,6.912,0,0,1-.031-1.8c2.57-.017,1.635.1,1.8-3.09a9.585,9.585,0,0,1,2.63-.045c.323,3.212-.953,3.142,2.123,3.127a5.409,5.409,0,0,1,.025,1.787c-.649.192-2.267-.443-2.114.667a43.45,43.45,0,0,0,.145,5.628C89.729,30.775,90.658,30.611,91.387,30.623Z"/><path class="cls-3" d="M10,36.342c.7-2.263,1.517-4.507,2.254-6.765A13.45,13.45,0,0,1,11.3,18.212a12.853,12.853,0,1,1,18.059,15.96,13.425,13.425,0,0,1-12.415-.045C14.627,34.865,12.321,35.634,10,36.342Zm4.579-7.215c-.4,1.277-.854,2.541-1.276,3.812-.131.3.263.076.406.05a34.542,34.542,0,0,1,3.766-1.125,10.673,10.673,0,0,0,4.849,1.673c10.231.88,15.769-11.782,8.138-18.681C20.689,6.52,7.351,18.516,14.579,29.127Z"/><path class="cls-3" d="M29.949,26.46c.057,1.72-1.572,2.734-3.133,2.812A11.894,11.894,0,0,1,22.048,27.4c-2.655-1.968-7.123-6.964-4.188-10.195a1.438,1.438,0,0,1,1.244-.633c.354.086.853-.1,1.067.281.429.919.718,1.9,1.1,2.845a.533.533,0,0,1,.014.458c-.3.889-1.683,1.239-.823,2.244a8.936,8.936,0,0,0,4.311,3.765c.647.133,1.077-.891,1.516-1.267.425-.967,2.111.532,2.805.768C29.4,25.888,30.015,25.971,29.949,26.46Z"/></g></svg>