<svg id="Layer_1" data-name="Layer 1" xmlns="http://www.w3.org/2000/svg" xmlns:xlink="http://www.w3.org/1999/xlink" viewBox="0 0 130 50"><defs><style>.cls-1{fill:none;}.cls-2{clip-path:url(#clip-path);}.cls-3{fill:#1b2d45;}</style><clipPath id="clip-path"><rect class="cls-1" width="130" height="50"/></clipPath></defs><g class="cls-2"><path class="cls-3" d="M10,10V40H120V10ZM41.763,32.807H36.054v-.454c0-2.208.01-4.416-.007-6.624a9.617,9.617,0,0,0-.153-1.711,1.918,1.918,0,0,0-1.733-1.7,2.41,2.41,0,0,0-2.7,1.235,3.385,3.385,0,0,0-.333,1.286c-.038,1.694-.016,3.389-.016,5.124h1.749V32.8h-5.7v-.435c0-2.284.008-4.569-.007-6.854A7.223,7.223,0,0,0,27,24a1.9,1.9,0,0,0-1.9-1.688,2.329,2.329,0,0,0-2.61,1.443,4.116,4.116,0,0,0-.273,1.3c-.034,1.581-.016,3.164-.018,4.747a1.593,1.593,0,0,0,.024.171h2.547V32.8H16.483V29.992h1.773V22.558h-1.93V19.727h5.847v1.794a4.875,4.875,0,0,1,4.513-2.073A4.362,4.362,0,0,1,30.8,22.212c.1-.183.179-.319.254-.457,1.691-3.1,6.262-2.847,7.933-.757a4.54,4.54,0,0,1,.972,2.894c.015,1.864.006,3.727.006,5.59v.491h1.8Zm15.629-3.329a6.8,6.8,0,0,1-5.462,3.563c-.432.061-.871.074-1.307.11a8.95,8.95,0,0,1-3.045-.521,5.827,5.827,0,0,1-3.815-4.068,7.663,7.663,0,0,1,.513-5.6,5.944,5.944,0,0,1,3.556-3.056,9.047,9.047,0,0,1,5.822-.045,6.163,6.163,0,0,1,4.408,5.439A6.83,6.83,0,0,1,57.392,29.478Zm15.8.487c-.154.841-.316,1.681-.462,2.522-.04.229-.1.351-.393.35q-5.7-.015-11.4-.007c-.065,0-.13-.008-.232-.014-.121-.615-.256-1.222-.349-1.836-.018-.116.1-.275.2-.381q3.445-3.818,6.9-7.627c.1-.114.2-.232.338-.391H63.561c-.2.646-.4,1.3-.608,2.007l-2.82-.284c.165-1.549.324-3.054.486-4.579H72.631c.091.606.2,1.2.26,1.809a.67.67,0,0,1-.214.419q-3.5,3.848-7.01,7.686c-.084.091-.157.191-.282.344h1.967c.7,0,1.408-.01,2.112.006a.344.344,0,0,0,.408-.3c.139-.5.3-1,.477-1.5a.414.414,0,0,1,.319-.212c.925.066,1.848.159,2.833.249C73.4,28.824,73.3,29.4,73.193,29.965ZM76.4,19.722h4.032v4.667H76.4Zm4.039,13.109H76.409V28.146h4.034Zm5.987.009c-1.113-.026-2.228-.009-3.4-.009l1.342-4.546q2.227-7.552,4.448-15.108a.454.454,0,0,1,.539-.393c.982.023,1.965.008,2.948.008h.48c-.272.933-.521,1.8-.778,2.669q-2.5,8.472-4.992,16.945C86.918,32.733,86.793,32.849,86.43,32.84Zm8.553-.5a.579.579,0,0,1-.7.506c-1.086-.032-2.174-.011-3.315-.011.61-2.074,1.2-4.082,1.79-6.089,1.322-4.482,2.651-8.963,3.958-13.45a.584.584,0,0,1,.7-.511c1.086.034,2.172.011,3.31.011-.175.6-.333,1.164-.5,1.723Q97.6,23.425,94.983,32.336Zm19.425.041a.321.321,0,0,1-.169.221,4.808,4.808,0,0,1-3.32.4,2.554,2.554,0,0,1-1.9-2.064c-.023-.094-.036-.189-.069-.361-.186.253-.324.447-.471.637a5.018,5.018,0,0,1-5.832,1.588,3.51,3.51,0,0,1-2.307-3.584,3.442,3.442,0,0,1,2.361-3.2,9.2,9.2,0,0,1,3.3-.609c.835-.02,1.671.035,2.508.056.129,0,.259,0,.507,0a21.729,21.729,0,0,0-.287-2.161,1.458,1.458,0,0,0-1.223-1.085,4.669,4.669,0,0,0-2.622.185.676.676,0,0,0-.34.363c-.145.38-.242.777-.372,1.213l-3.124-.316c.176-.988.338-1.929.52-2.866a.445.445,0,0,1,.255-.242,13.08,13.08,0,0,1,6.558-1.051,4.821,4.821,0,0,1,4,2.353A4.3,4.3,0,0,1,112.87,24c0,1.813,0,3.625,0,5.437,0,1.039.244,1.243,1.306,1.157.051,0,.1,0,.235,0C114.416,31.188,114.422,31.783,114.408,32.377Z"/><path class="cls-3" d="M53.486,28.667a2.942,2.942,0,0,1-2.914,1.565,2.734,2.734,0,0,1-2.608-1.8,16.459,16.459,0,0,1-.555-2.158,15.453,15.453,0,0,1,.49-2.087,2.786,2.786,0,0,1,2.739-1.855,2.938,2.938,0,0,1,3.029,1.756A5.068,5.068,0,0,1,53.486,28.667Z"/><path class="cls-3" d="M105.95,30.443a1.385,1.385,0,0,1-1.5-.952,1.608,1.608,0,0,1,.668-1.949,4.175,4.175,0,0,1,1.274-.375,6.317,6.317,0,0,1,1.268-.008c.409.023.815.088,1.24.136A2.92,2.92,0,0,1,105.95,30.443Z"/></g></svg>