<svg id="Layer_1" data-name="Layer 1" xmlns="http://www.w3.org/2000/svg" xmlns:xlink="http://www.w3.org/1999/xlink" viewBox="0 0 170 50"><defs><style>.cls-1{fill:none;}.cls-2{clip-path:url(#clip-path);}.cls-3{fill:#1b2d45;}</style><clipPath id="clip-path"><rect class="cls-1" width="170" height="50"/></clipPath></defs><g class="cls-2"><path class="cls-3" d="M158.415,25.543c-.7-.315-1.386-.666-2.076-1.007a6.51,6.51,0,0,1-1.283-.762,1.316,1.316,0,0,1,.371-2.37,2.71,2.71,0,0,1,3.033.823,3.784,3.784,0,0,1,.74,1.732c.059.352.314.191.494.224s.269-.045.268-.248q-.01-1.771,0-3.542c0-.2-.077-.246-.267-.265-.3-.031-.407.1-.5.373-.2.587-.22.57-.754.273a4.362,4.362,0,0,0-3.928-.256,2.9,2.9,0,0,0-1.929,3.189,3.5,3.5,0,0,0,1.96,2.576c.862.466,1.763.858,2.641,1.294a4.564,4.564,0,0,1,1.471,1.042,1.529,1.529,0,0,1-.529,2.459,2.847,2.847,0,0,1-1.735.158,3.675,3.675,0,0,1-3.095-3.183c-.065-.338-.237-.344-.5-.348-.35,0-.245.24-.245.409q-.011,1.953,0,3.906c0,.151-.115.394.2.41.243.013.48.043.53-.311a1.9,1.9,0,0,1,.206-.5c.127-.274.248-.376.559-.142a4.779,4.779,0,0,0,2.605.939,4.182,4.182,0,0,0,4.059-2.278,10.08,10.08,0,0,0,.313-1.13v-.455A4.088,4.088,0,0,0,158.415,25.543Z"/><path class="cls-3" d="M97.13,20.667c-2.37-.2-4.75-.052-7.127-.091-.2,0-.27.052-.3.273-.056.4.179.388.452.407,1.3.085,1.693.469,1.739,1.758.075,2.178.065,4.36,0,6.538a3.593,3.593,0,0,1-.082.582,1.293,1.293,0,0,1-1.26,1.15,3.86,3.86,0,0,1-2.93-.821,29.986,29.986,0,0,1-3.317-3.33,4.973,4.973,0,0,0,2.119-.919,2.934,2.934,0,0,0-.156-4.75,4.552,4.552,0,0,0-2.282-.8c-2.266-.179-4.539-.042-6.808-.081-.192-.007-.257.052-.274.254-.022.306.072.4.388.423,1.406.088,1.738.41,1.807,1.83.1,2.07.075,4.144.016,6.218-.046,1.481-.443,2.025-1.927,2.019-.316,0-.267.185-.28.381-.013.218.062.289.283.286q3.135-.009,6.267,0c.241,0,.277-.11.264-.3-.013-.17.058-.381-.244-.368a3.337,3.337,0,0,1-.5-.036,1.3,1.3,0,0,1-1.368-1.241,14.6,14.6,0,0,1-.1-2.49c0-.114-.052-.283.095-.319a.552.552,0,0,1,.521.055,2.372,2.372,0,0,1,.231.277c1.087,1.361,2.175,2.715,3.255,4.083a.768.768,0,0,0,.674.345c3.119-.013,6.238,0,9.354-.01a11.539,11.539,0,0,0,3.23-.423,5.531,5.531,0,0,0,2.809-8.761A6.221,6.221,0,0,0,97.13,20.667Zm-15.445,5.5c-.241,0-.169-.209-.169-.342-.007-.651,0-1.3,0-1.954,0-.634.007-1.273-.006-1.907,0-.238.036-.365.316-.349.485.03.97,0,1.452.036a1.882,1.882,0,0,1,1.693,1.306,2.345,2.345,0,0,1-1.081,3.027A5.706,5.706,0,0,1,81.685,26.166Zm18.261,1.862A3.575,3.575,0,0,1,96.394,30.9c-.316.016-.635.019-.951.009-.742-.016-1.048-.3-1.1-1.038-.1-1.345-.017-2.693-.046-3.8,0-1.514.01-2.787-.006-4.057,0-.316.084-.423.407-.407a18.78,18.78,0,0,1,2.262.091,3.471,3.471,0,0,1,3,2.817A7.246,7.246,0,0,1,99.946,28.028Z"/><path class="cls-3" d="M139.77,28.751c-.332-.023-.31.241-.352.423-.189.794-.511,1.455-1.423,1.615a10.943,10.943,0,0,1-2.985.081c-.8-.081-1.114-.459-1.244-1.26a12.756,12.756,0,0,1-.084-1.992c0-1.137,0-1.137,1.123-1.078,1.4.075,1.637.29,1.738,1.687.023.28.134.309.365.312s.309-.081.306-.316c-.007-1.5-.01-2.995,0-4.493,0-.254-.094-.312-.319-.3-.2.006-.361,0-.345.276a2.991,2.991,0,0,1-.043.541,1.036,1.036,0,0,1-.963,1.081,9.1,9.1,0,0,1-1.625.13c-.221,0-.241-.108-.241-.28.007-1.091.007-2.178,0-3.269,0-.208.046-.3.274-.29.937.023,1.878-.006,2.813.049,1.214.075,1.615.437,1.934,1.6.032.117.065.235.091.352.065.26.273.2.442.189.225-.01.15-.189.144-.31-.062-.846-.137-1.689-.186-2.536-.016-.306-.127-.394-.439-.391-2.208.013-4.418.007-6.629.007-.892,0-1.787.01-2.679-.007-.284-.006-.368.082-.359.358.01.232.079.32.316.32,1.648.009,1.833.683,1.9,2.038.052,1.1.03,2.21.017,3.314a27.242,27.242,0,0,1-.069,3.22,1.526,1.526,0,0,1-2.083,1.416,4.8,4.8,0,0,1-2.025-1.068,41.775,41.775,0,0,1-2.931-3.041,5.253,5.253,0,0,0,1.6-.569,2.966,2.966,0,0,0,1.631-2.644,2.917,2.917,0,0,0-1.64-2.676,3.7,3.7,0,0,0-1.313-.479,64.334,64.334,0,0,0-7.478-.182c-.156,0-.2.078-.208.221-.02.271,0,.437.361.459,1.442.091,1.742.349,1.827,1.8a57.519,57.519,0,0,1,0,6.352c-.082,1.55-.336,1.751-1.885,1.9-.277.026-.306.14-.309.368s.078.316.312.309c.485-.016.97,0,1.455,0,1.557,0,3.116-.01,4.676.007.3,0,.38-.085.384-.381,0-.313-.183-.284-.378-.3-1.4-.114-1.787-.521-1.826-1.934-.017-.592-.017-1.182-.01-1.771,0-.133-.1-.342.12-.377.179-.033.4-.085.544.113.052.072.114.144.169.212,1.084,1.361,2.178,2.715,3.253,4.083a.812.812,0,0,0,.713.355q6.563-.015,13.123-.007c.092,0,.183-.006.274,0,.163.01.241-.052.254-.231.052-.921.111-1.843.176-2.761C140.053,28.777,139.949,28.764,139.77,28.751Zm-16.614-7.12Zm-1.744.016v0Zm-.014,4.47v-.04l.015-4.43h0l.021,0,1.722-.014A2.1,2.1,0,0,1,125,24.076a1.994,1.994,0,0,1-1.351,1.95A4.341,4.341,0,0,1,121.4,26.117Z"/><path class="cls-3" d="M64.513,17.855c.317.013.32-.136.331-.376.013-.287-.12-.311-.352-.31q-2.861.01-5.722,0c-.26,0-.375.044-.378.343s.124.348.378.343a4.315,4.315,0,0,1,.677.068c.9.13,1.233.59,1.055,1.481a25.726,25.726,0,0,1-.95,3.02c-.539,1.637-1.1,3.267-1.68,4.975-.069-.19-.113-.3-.15-.414q-1.547-4.684-3.091-9.369c-.08-.241-.123-.461-.493-.461s-.387.221-.461.441q-1.559,4.632-3.115,9.264c-.051.151-.055.331-.236.465-.822-2.536-1.639-5.052-2.451-7.571a2.669,2.669,0,0,1-.09-.536,1.018,1.018,0,0,1,.809-1.226,3.052,3.052,0,0,1,.984-.136c.268.006.361-.058.362-.348s-.111-.342-.37-.34c-1.241.012-2.483,0-3.724,0-1.06,0-2.12.01-3.179-.006-.291,0-.344.1-.354.367-.014.337.177.317.4.318a2.463,2.463,0,0,1,2.479,1.693c.132.337.273.671.385,1.015q1.9,5.807,3.788,11.617c.057.174.041.388.34.388s.286-.214.344-.388q1.166-3.5,2.328-7c.355-1.069.712-2.138,1.11-3.334,1.149,3.537,2.252,6.937,3.362,10.335.054.166.045.386.347.386s.293-.216.349-.384c.554-1.645,1.1-3.294,1.649-4.94q1.225-3.648,2.46-7.294A2.7,2.7,0,0,1,64.513,17.855Z"/><path class="cls-3" d="M25.387,9.164a15.393,15.393,0,0,0-.9,30.76h0c0,.025,0,.051.007.076H26.31a.325.325,0,0,1,.006-.076,15.394,15.394,0,0,0-.929-30.76Zm-.026,29.855a14.462,14.462,0,1,1,14.5-14.452A14.441,14.441,0,0,1,25.361,39.019Z"/><path class="cls-3" d="M114.691,18.456a5.419,5.419,0,0,0-3.562-1.257c-2.409-.039-4.815-.022-7.221-.026-.211,0-.452-.084-.459.307-.006.361.163.364.436.377,1.518.062,2.022.534,2.192,2.028.179,1.553.039,3.116.1,4.672-.061,1.6.075,3.21-.11,4.809A1.847,1.847,0,0,1,104,31.28c-.045,0-.091.007-.136,0-.254-.02-.42.006-.414.348s.14.361.41.361c2.348-.009,4.692-.013,7.039,0,.352,0,.43-.108.423-.44-.013-.41-.3-.264-.485-.27-1.341-.046-1.907-.495-2.113-1.768a26.638,26.638,0,0,1-.12-3.672c-.007-.235.13-.225.29-.225.53,0,1.061.01,1.588,0a7.434,7.434,0,0,0,3.256-.674A3.9,3.9,0,0,0,114.691,18.456Zm-1.419,3.715a2.537,2.537,0,0,1-2.563,2.175c-.6.029-1.208,0-1.813.019-.257.007-.293-.1-.293-.322q.009-2.676,0-5.349c0-.235.065-.322.306-.309.315.019.635.006,1.1.006a5.141,5.141,0,0,1,1.387.107,2.62,2.62,0,0,1,1.937,2.459A4.13,4.13,0,0,1,113.272,22.171Z"/><path class="cls-3" d="M64.182,22.428a5.581,5.581,0,0,0-.146,7.521A6.889,6.889,0,0,0,69.3,32.423,7.508,7.508,0,0,0,73.721,31.1a5.706,5.706,0,0,0,.775-8.979A7.349,7.349,0,0,0,64.182,22.428Zm8.3,7.651a4.089,4.089,0,0,1-6.742-1.273,6.563,6.563,0,0,1,.029-5.121A3.846,3.846,0,0,1,69.535,21.2a3.908,3.908,0,0,1,3.753,2.569,6.384,6.384,0,0,1,.476,2.523A5.752,5.752,0,0,1,72.487,30.079Z"/><path class="cls-3" d="M148.636,25.841c-.851-.453-1.728-.858-2.593-1.284a6.151,6.151,0,0,1-1.4-.837,1.291,1.291,0,0,1,.343-2.272,2.688,2.688,0,0,1,3.117.77,3.7,3.7,0,0,1,.741,1.729c.059.372.339.2.534.236.223.037.236-.113.236-.28q0-1.747,0-3.5c0-.184-.053-.271-.256-.277-.248-.006-.406.028-.5.313-.215.642-.23.622-.792.314a4.381,4.381,0,0,0-3.847-.266,2.924,2.924,0,0,0-1.89,3.641,3.717,3.717,0,0,0,1.927,2.188c.841.441,1.711.826,2.562,1.247A4.625,4.625,0,0,1,148.3,28.6a1.528,1.528,0,0,1-.535,2.483,2.857,2.857,0,0,1-1.69.153,3.678,3.678,0,0,1-3.121-3.206c-.067-.358-.273-.319-.518-.326-.32-.008-.223.222-.224.378-.008.666,0,1.332,0,2,0,.651-.006,1.3,0,1.952,0,.152-.111.393.209.4.226,0,.451.044.506-.286a2.427,2.427,0,0,1,.2-.5c.128-.3.253-.391.585-.159a4.638,4.638,0,0,0,4.516.612,3.448,3.448,0,0,0,2.338-3.922A3.522,3.522,0,0,0,148.636,25.841Z"/><path class="cls-3" d="M32.778,20.009a7.792,7.792,0,0,1-.795-1.471,2.709,2.709,0,0,1-.166-1.729,2.175,2.175,0,0,1,2.146-1.739c-5.834-5.479-15.4-3.871-19.209,2.445.433,0,.84.013,1.244,0,.954-.039,1.9-.088,2.858-.14.339-.02.573.117.612.459a.5.5,0,0,1-.494.586c-.375.046-.752.085-1.13.1-.264.013-.29.1-.205.339.267.752.511,1.514.765,2.272q1.88,5.592,3.763,11.187c.108-.043.124-.134.153-.222q1.3-3.9,2.608-7.8a.849.849,0,0,0-.036-.609c-.511-1.387-1.058-2.761-1.5-4.171-.235-.758-.583-1.165-1.4-1.055a.713.713,0,0,1-.182-.019c-.375-.039-.655-.179-.6-.622.056-.417.359-.462.707-.443a35.925,35.925,0,0,0,4.581.105c.664-.043,1.331-.069,2-.108a.5.5,0,0,1,.6.469.5.5,0,0,1-.5.576,8.285,8.285,0,0,1-.905.078c-.41,0-.527.1-.374.544,1.094,3.181,2.158,6.368,3.233,9.555.407,1.215.814,2.429,1.253,3.748.638-2.126,1.312-4.122,1.9-6.147A7.04,7.04,0,0,0,32.778,20.009Z"/><path class="cls-3" d="M27.24,30.128c-.531-1.455-1.058-2.911-1.6-4.4a1.436,1.436,0,0,0-.107.2q-1.837,5.319-3.67,10.637c-.087.254-.009.315.232.381a12.8,12.8,0,0,0,7.23-.183c.307-.1.274-.2.183-.443Q28.363,33.227,27.24,30.128Z"/><path class="cls-3" d="M19.716,36.04c-.065-.377-5.808-16.145-6.062-16.627A12.8,12.8,0,0,0,19.716,36.04Z"/><path class="cls-3" d="M33.25,31.58c-.459,1.318-.909,2.637-1.377,4A12.733,12.733,0,0,0,36.659,18.5a11.176,11.176,0,0,1-.652,5.18C35.093,26.312,34.168,28.946,33.25,31.58Z"/></g></svg>