<svg id="Layer_1" data-name="Layer 1" xmlns="http://www.w3.org/2000/svg" xmlns:xlink="http://www.w3.org/1999/xlink" viewBox="0 0 160 50"><defs><style>.cls-1{fill:none;}.cls-2{clip-path:url(#clip-path);}.cls-3{fill:#1b2d45;}</style><clipPath id="clip-path"><rect class="cls-1" width="160" height="50"/></clipPath></defs><g class="cls-2"><path class="cls-3" d="M25.346,17.181a7.593,7.593,0,1,0,7.711,7.632A7.588,7.588,0,0,0,25.346,17.181Zm.082,12.557a4.962,4.962,0,0,1-.044-9.922,4.961,4.961,0,1,1,.044,9.922Z"/><path class="cls-3" d="M35.173,16.719a1.665,1.665,0,0,1-1.761,1.94,1.747,1.747,0,0,1-1.827-1.676c.063-1.2.623-1.9,1.727-1.937A1.64,1.64,0,0,1,35.173,16.719Z"/><path class="cls-3" d="M40.444,18.643a8.517,8.517,0,0,0-8.431-8.579c-4.349-.081-8.7-.091-13.047,0a8.509,8.509,0,0,0-8.359,8.644c-.019,4.089-.032,8.177,0,12.262a8.5,8.5,0,0,0,8.582,8.575c2.094.026,4.192,0,6.289,0s4.192.019,6.287,0a8.509,8.509,0,0,0,8.676-8.641Q40.515,24.776,40.444,18.643Zm-2.871,12.45c-.132,3.573-2.274,5.67-5.934,5.809-4.076.154-8.17.163-12.246,0-3.89-.158-5.871-2.334-6-6.23-.063-1.988-.012-3.978-.012-5.969H13.4c0-2.091-.079-4.189.018-6.277.167-3.578,1.827-5.393,5.406-5.67A93.562,93.562,0,0,1,32,12.734c3.469.224,5.456,2.28,5.579,5.8C37.727,22.716,37.724,26.911,37.573,31.093Z"/><path class="cls-3" d="M60.293,16.4q.048,6.91-.015,13.821a7.793,7.793,0,0,1-1.23,4.321A2.472,2.472,0,0,1,57.2,35.779c1.2-6.522.292-12.978.657-19.567A7.156,7.156,0,0,0,55.488,24.5c.117.333.673.732.1,1.072-.421.251-.786-.157-1.1-.393a4.844,4.844,0,0,1-1.342-5.3,9.663,9.663,0,0,1,4.239-5.088A1.792,1.792,0,0,1,60.293,16.4Z"/><path class="cls-3" d="M150.434,29.15c-.073.06-.176.1-.2.179-.4.956-.371,2.572-1.742,2.355-1.258-.2-1.063-1.754-1.116-2.8-.1-1.934-.025-3.878-.076-5.815-.028-1.016-.405-1.862-1.56-2.031-1.173-.177-1.522.682-1.836,1.544-.544,1.478-1.079,2.959-1.767,4.858-.12-1.953-.136-3.418-.324-4.862a1.645,1.645,0,0,0-1.6-1.635c-.984-.041-1.352.62-1.651,1.39-.349.906-.723,1.8-1.085,2.7a6.382,6.382,0,0,1-.286-2.28,1.553,1.553,0,0,0-1.7-1.787c-1.371-.018-.685,1.048-.726,1.6-.186,2.5.3,5.038-.33,7.507-.208.814-.472,1.956-1.573,1.877s-1.2-1.2-1.229-2.076c-.085-1.934-.069-3.874-.1-5.811a12.422,12.422,0,0,0-.053-1.569c-.167-1.189-1.189-1.789-2.123-1.082-.5.381-.619.182-.968,0a3.19,3.19,0,0,0-4.717,1.528,10.509,10.509,0,0,0-.96,6.57c.17,1.157-.009,2.148-1.21,2.3-1.28.163-1.371-1.022-1.472-1.96a24.812,24.812,0,0,1,.333-6.1c.255-1.84-.475-2.46-2.214-1.8-.868.333-1.408.481-1.823-.56a1.446,1.446,0,0,0-2.032-.931c-.953.45-1.013,1.353-.67,2.3a6.478,6.478,0,0,1-2.343,6.777c0-2.311.041-4.617-.012-6.918-.035-1.437-1.224-2.07-2.343-1.192-.456.355-.528.248-.893.009-1.73-1.129-3.095-.877-4.305.8a9.314,9.314,0,0,0-1.519,7.032c.185,1.27.248,2.541-1.261,2.663-1.657.132-1.352-1.418-1.387-2.427-.069-2.2,0-4.4-.028-6.6-.019-1.654-.9-2.239-2.353-1.459-.506.273-.509-.1-.685-.227A2.924,2.924,0,0,0,91.9,21.9a9.2,9.2,0,0,0-1.516,4.881,5.977,5.977,0,0,1-.644,3.186c-.441.622-.812,1.547-1.743,1.311-.827-.211-.855-1.16-.883-1.855-.076-1.938-.051-3.878-.038-5.815.006-.988-.242-2.154.2-2.912.409-.714,1.645-.161,2.506-.3a2.32,2.32,0,0,0,.312-.044A1.145,1.145,0,0,0,91,19.219c-.012-.764-.679-.463-1.069-.478-2.556-.11-2.556-.1-2.613-2.645a.914.914,0,0,1,0-.157c.1-1.4-.991-1.676-1.934-1.771-1.117-.113-1.113.834-1.088,1.654.015.472-.044.95.012,1.412.129,1.007-.217,1.444-1.28,1.315-.915-.107-1.984-.1-1.9,1.185.091,1.306,1.246.557,1.853.582.968.041,1.411.208,1.336,1.293-.1,1.462-.013,2.934-.057,4.4a5.68,5.68,0,0,1-1.82,3.918c-.349-2.094-.938-3.308-2.648-4.3-1.541-.89-1.771-1.721-.573-3.01a1.119,1.119,0,0,0,.239-1.311c-.289-.535-.836-.557-1.371-.519a2.6,2.6,0,0,0-2.412,3.431,2.714,2.714,0,0,1-.468,2.871c-.661.94-1.258,1.928-1.931,2.862-.277.383-.415,1.166-1.035.927-.531-.2-.349-.924-.352-1.434-.016-2.094-.044-4.192.009-6.286A1.978,1.978,0,0,0,70.8,21.244a2.34,2.34,0,0,0-3.3,1.129c-.821,1.409-1.534,2.884-2.292,4.33a36.773,36.773,0,0,1-.239-4.434c-.029-.912-.676-1.236-1.491-1.27-1.06-.048-.623.783-.629,1.232-.038,2.985-.022,5.972-.016,8.96a5.522,5.522,0,0,0,.088,1.091A1.333,1.333,0,0,0,64.388,33.4c.943.028.943-.547.987-1.207a9.968,9.968,0,0,1,.252-1.548,15.437,15.437,0,0,1,3.745-7.6c0,2.786-.022,5.179.01,7.572.015,1.076.226,2.18,1.377,2.6,1.126.4,1.862-.431,2.538-1.173a30.647,30.647,0,0,0,3.742-5.718c.984.9,2.072,1.5,2.55,2.689a1.7,1.7,0,0,1-.566,2.23A1.273,1.273,0,0,1,77.1,30.93c-.418-.551-.877-.478-1.337-.066a.979.979,0,0,0-.125,1.519,2.125,2.125,0,0,0,1.019.673c2.544.556,4.613.286,6.217-1.8.459-.6.814-1.28,1.343-2.123.418,1.755.418,3.692,2.5,4.082s2.953-1.252,3.874-2.742c1.836,3.481,4.349,3.755,6.962.871,1.626,2.651,2.6,2.726,5.331.365a3,3,0,0,0,2.83,1.581c1.264-.012,2.094-.864,3.116-1.559,0,.333.066.541-.009.629-.887,1.028-1.764,2.069-2.7,3.053a9.112,9.112,0,0,0-2.356,3.475c-.522,1.67.006,2.78,1.481,3.264a4.351,4.351,0,0,0,5.639-2.858,7.61,7.61,0,0,0,.339-2.95c-.213-2.66-.037-5.167,2.167-7.076a2.081,2.081,0,0,0,.343-.522,20.364,20.364,0,0,0,1.752-4.022c.43-1.248,1.531-1.094,2.364-.874.743.2.151.956.057,1.437a11.068,11.068,0,0,0,.013,5.89c.855,2.453,2.824,2.956,4.685,1.154.507-.487.667-.465,1.167,0a3.468,3.468,0,0,0,4.7.107,17.255,17.255,0,0,0,1.412-1.607c1.321,2.937,2.661,3.217,4.806,1.085.49.2-.054.934.437,1a6.351,6.351,0,0,0,2.324.01c.471-.12.21-.84.232-1.29.035-.679-.037-1.368.019-2.044a10.787,10.787,0,0,1,2.1-5.927,4.188,4.188,0,0,1,.3,2.053,21.352,21.352,0,0,0,.33,4.843c.233.811.487,1.764,1.525,1.723,1.12-.044.9-1.11,1-1.821a17.243,17.243,0,0,1,2.116-6.355c.255,2.443-.179,4.6.321,6.7.484,2.048,1.705,2.906,3.324,2.422C150.1,32.829,150.956,30.779,150.434,29.15Zm-53.369-2.7a8.545,8.545,0,0,1-.922,4.076c-.314.541-.714,1.135-1.412,1.107s-1.019-.683-1.239-1.264a7.873,7.873,0,0,1,.39-6.658c.679-1.321,1.893-1.286,2.632.007A5.087,5.087,0,0,1,97.065,26.445ZM108.7,26.43a8.159,8.159,0,0,1-.991,4.213c-.874,1.387-1.846,1.356-2.5-.125a7.683,7.683,0,0,1,.377-6.934c.61-1.154,1.751-1.123,2.478-.019A4.791,4.791,0,0,1,108.7,26.43Zm0,12.572a2.75,2.75,0,0,1-.915,1.428,1.765,1.765,0,0,1-2.057.135c-.745-.456-.519-1.157-.229-1.814a12.124,12.124,0,0,1,3.72-4.255A13.963,13.963,0,0,1,108.694,39Zm20.45-12.409a7.313,7.313,0,0,1-1.063,4.183c-.8,1.2-1.745,1.166-2.343-.126a7.689,7.689,0,0,1,.315-7.076c.616-1.17,1.754-1.119,2.484,0A5.013,5.013,0,0,1,129.144,26.593Z"/><path class="cls-3" d="M150.434,29.15c-.073.06-.176.1-.2.179-.4.956-.371,2.572-1.742,2.355-1.258-.2-1.063-1.754-1.116-2.8-.1-1.934-.025-3.878-.076-5.815-.028-1.016-.405-1.862-1.56-2.031-1.173-.177-1.522.682-1.836,1.544-.544,1.478-1.079,2.959-1.767,4.858-.12-1.953-.136-3.418-.324-4.862a1.645,1.645,0,0,0-1.6-1.635c-.984-.041-1.352.62-1.651,1.39-.349.906-.723,1.8-1.085,2.7a6.382,6.382,0,0,1-.286-2.28,1.553,1.553,0,0,0-1.7-1.787c-1.371-.018-.685,1.048-.726,1.6-.186,2.5.3,5.038-.33,7.507-.208.814-.472,1.956-1.573,1.877s-1.2-1.2-1.229-2.076c-.085-1.934-.069-3.874-.1-5.811a12.422,12.422,0,0,0-.053-1.569c-.167-1.189-1.189-1.789-2.123-1.082-.5.381-.619.182-.968,0a3.19,3.19,0,0,0-4.717,1.528,10.509,10.509,0,0,0-.96,6.57c.17,1.157-.009,2.148-1.21,2.3-1.28.163-1.371-1.022-1.472-1.96a24.812,24.812,0,0,1,.333-6.1c.255-1.84-.475-2.46-2.214-1.8-.868.333-1.408.481-1.823-.56a1.446,1.446,0,0,0-2.032-.931c-.953.45-1.013,1.353-.67,2.3a6.478,6.478,0,0,1-2.343,6.777c0-2.311.041-4.617-.012-6.918-.035-1.437-1.224-2.07-2.343-1.192-.456.355-.528.248-.893.009-1.73-1.129-3.095-.877-4.305.8a9.314,9.314,0,0,0-1.519,7.032c.185,1.27.248,2.541-1.261,2.663-1.657.132-1.352-1.418-1.387-2.427-.069-2.2,0-4.4-.028-6.6-.019-1.654-.9-2.239-2.353-1.459-.506.273-.509-.1-.685-.227A2.924,2.924,0,0,0,91.9,21.9a9.2,9.2,0,0,0-1.516,4.881,5.977,5.977,0,0,1-.644,3.186c-.441.622-.812,1.547-1.743,1.311-.827-.211-.855-1.16-.883-1.855-.076-1.938-.051-3.878-.038-5.815.006-.988-.242-2.154.2-2.912.409-.714,1.645-.161,2.506-.3a2.32,2.32,0,0,0,.312-.044A1.145,1.145,0,0,0,91,19.219c-.012-.764-.679-.463-1.069-.478-2.556-.11-2.556-.1-2.613-2.645a.914.914,0,0,1,0-.157c.1-1.4-.991-1.676-1.934-1.771-1.117-.113-1.113.834-1.088,1.654.015.472-.044.95.012,1.412.129,1.007-.217,1.444-1.28,1.315-.915-.107-1.984-.1-1.9,1.185.091,1.306,1.246.557,1.853.582.968.041,1.411.208,1.336,1.293-.1,1.462-.013,2.934-.057,4.4a5.68,5.68,0,0,1-1.82,3.918c-.349-2.094-.938-3.308-2.648-4.3-1.541-.89-1.771-1.721-.573-3.01a1.119,1.119,0,0,0,.239-1.311c-.289-.535-.836-.557-1.371-.519a2.6,2.6,0,0,0-2.412,3.431,2.714,2.714,0,0,1-.468,2.871c-.661.94-1.258,1.928-1.931,2.862-.277.383-.415,1.166-1.035.927-.531-.2-.349-.924-.352-1.434-.016-2.094-.044-4.192.009-6.286A1.978,1.978,0,0,0,70.8,21.244a2.34,2.34,0,0,0-3.3,1.129c-.821,1.409-1.534,2.884-2.292,4.33a36.773,36.773,0,0,1-.239-4.434c-.029-.912-.676-1.236-1.491-1.27-1.06-.048-.623.783-.629,1.232-.038,2.985-.022,5.972-.016,8.96a5.522,5.522,0,0,0,.088,1.091A1.333,1.333,0,0,0,64.388,33.4c.943.028.943-.547.987-1.207a9.968,9.968,0,0,1,.252-1.548,15.437,15.437,0,0,1,3.745-7.6c0,2.786-.022,5.179.01,7.572.015,1.076.226,2.18,1.377,2.6,1.126.4,1.862-.431,2.538-1.173a30.647,30.647,0,0,0,3.742-5.718c.984.9,2.072,1.5,2.55,2.689a1.7,1.7,0,0,1-.566,2.23A1.273,1.273,0,0,1,77.1,30.93c-.418-.551-.877-.478-1.337-.066a.979.979,0,0,0-.125,1.519,2.125,2.125,0,0,0,1.019.673c2.544.556,4.613.286,6.217-1.8.459-.6.814-1.28,1.343-2.123.418,1.755.418,3.692,2.5,4.082s2.953-1.252,3.874-2.742c1.836,3.481,4.349,3.755,6.962.871,1.626,2.651,2.6,2.726,5.331.365a3,3,0,0,0,2.83,1.581c1.264-.012,2.094-.864,3.116-1.559,0,.333.066.541-.009.629-.887,1.028-1.764,2.069-2.7,3.053a9.112,9.112,0,0,0-2.356,3.475c-.522,1.67.006,2.78,1.481,3.264a4.351,4.351,0,0,0,5.639-2.858,7.61,7.61,0,0,0,.339-2.95c-.213-2.66-.037-5.167,2.167-7.076a2.081,2.081,0,0,0,.343-.522,20.364,20.364,0,0,0,1.752-4.022c.43-1.248,1.531-1.094,2.364-.874.743.2.151.956.057,1.437a11.068,11.068,0,0,0,.013,5.89c.855,2.453,2.824,2.956,4.685,1.154.507-.487.667-.465,1.167,0a3.468,3.468,0,0,0,4.7.107,17.255,17.255,0,0,0,1.412-1.607c1.321,2.937,2.661,3.217,4.806,1.085.49.2-.054.934.437,1a6.351,6.351,0,0,0,2.324.01c.471-.12.21-.84.232-1.29.035-.679-.037-1.368.019-2.044a10.787,10.787,0,0,1,2.1-5.927,4.188,4.188,0,0,1,.3,2.053,21.352,21.352,0,0,0,.33,4.843c.233.811.487,1.764,1.525,1.723,1.12-.044.9-1.11,1-1.821a17.243,17.243,0,0,1,2.116-6.355c.255,2.443-.179,4.6.321,6.7.484,2.048,1.705,2.906,3.324,2.422C150.1,32.829,150.956,30.779,150.434,29.15Zm-53.369-2.7a8.545,8.545,0,0,1-.922,4.076c-.314.541-.714,1.135-1.412,1.107s-1.019-.683-1.239-1.264a7.873,7.873,0,0,1,.39-6.658c.679-1.321,1.893-1.286,2.632.007A5.087,5.087,0,0,1,97.065,26.445ZM108.7,26.43a8.159,8.159,0,0,1-.991,4.213c-.874,1.387-1.846,1.356-2.5-.125a7.683,7.683,0,0,1,.377-6.934c.61-1.154,1.751-1.123,2.478-.019A4.791,4.791,0,0,1,108.7,26.43Zm0,12.572a2.75,2.75,0,0,1-.915,1.428,1.765,1.765,0,0,1-2.057.135c-.745-.456-.519-1.157-.229-1.814a12.124,12.124,0,0,1,3.72-4.255A13.963,13.963,0,0,1,108.694,39Zm20.45-12.409a7.313,7.313,0,0,1-1.063,4.183c-.8,1.2-1.745,1.166-2.343-.126a7.689,7.689,0,0,1,.315-7.076c.616-1.17,1.754-1.119,2.484,0A5.013,5.013,0,0,1,129.144,26.593Z"/><path class="cls-3" d="M25.346,17.181a7.593,7.593,0,1,0,7.711,7.632A7.588,7.588,0,0,0,25.346,17.181Zm.082,12.557a4.962,4.962,0,0,1-.044-9.922,4.961,4.961,0,1,1,.044,9.922Z"/><path class="cls-3" d="M35.173,16.719a1.665,1.665,0,0,1-1.761,1.94,1.747,1.747,0,0,1-1.827-1.676c.063-1.2.623-1.9,1.727-1.937A1.64,1.64,0,0,1,35.173,16.719Z"/><path class="cls-3" d="M40.444,18.643a8.517,8.517,0,0,0-8.431-8.579c-4.349-.081-8.7-.091-13.047,0a8.509,8.509,0,0,0-8.359,8.644c-.019,4.089-.032,8.177,0,12.262a8.5,8.5,0,0,0,8.582,8.575c2.094.026,4.192,0,6.289,0s4.192.019,6.287,0a8.509,8.509,0,0,0,8.676-8.641Q40.515,24.776,40.444,18.643Zm-2.871,12.45c-.132,3.573-2.274,5.67-5.934,5.809-4.076.154-8.17.163-12.246,0-3.89-.158-5.871-2.334-6-6.23-.063-1.988-.012-3.978-.012-5.969H13.4c0-2.091-.079-4.189.018-6.277.167-3.578,1.827-5.393,5.406-5.67A93.562,93.562,0,0,1,32,12.734c3.469.224,5.456,2.28,5.579,5.8C37.727,22.716,37.724,26.911,37.573,31.093Z"/><path class="cls-3" d="M60.278,30.225a7.793,7.793,0,0,1-1.23,4.321A2.472,2.472,0,0,1,57.2,35.779c1.2-6.522.292-12.978.657-19.567A7.156,7.156,0,0,0,55.488,24.5c.117.333.673.732.1,1.072-.421.251-.786-.157-1.1-.393a4.844,4.844,0,0,1-1.342-5.3,9.663,9.663,0,0,1,4.239-5.088A1.792,1.792,0,0,1,60.293,16.4Q60.341,23.315,60.278,30.225Z"/><path class="cls-3" d="M25.346,17.181a7.593,7.593,0,1,0,7.711,7.632A7.588,7.588,0,0,0,25.346,17.181Zm.082,12.557a4.962,4.962,0,0,1-.044-9.922,4.961,4.961,0,1,1,.044,9.922Z"/><path class="cls-3" d="M35.173,16.719a1.665,1.665,0,0,1-1.761,1.94,1.747,1.747,0,0,1-1.827-1.676c.063-1.2.623-1.9,1.727-1.937A1.64,1.64,0,0,1,35.173,16.719Z"/><path class="cls-3" d="M25.346,17.181a7.593,7.593,0,1,0,7.711,7.632A7.588,7.588,0,0,0,25.346,17.181Zm.082,12.557a4.962,4.962,0,0,1-.044-9.922,4.961,4.961,0,1,1,.044,9.922Z"/><path class="cls-3" d="M35.173,16.719a1.665,1.665,0,0,1-1.761,1.94,1.747,1.747,0,0,1-1.827-1.676c.063-1.2.623-1.9,1.727-1.937A1.64,1.64,0,0,1,35.173,16.719Z"/></g></svg>