<svg id="Layer_1" data-name="Layer 1" xmlns="http://www.w3.org/2000/svg" xmlns:xlink="http://www.w3.org/1999/xlink" viewBox="0 0 150 50"><defs><style>.cls-1{fill:none;}.cls-2{fill:#1b2d45;}.cls-3{clip-path:url(#clip-path);}.cls-4{clip-path:url(#clip-path-2);}.cls-5{clip-path:url(#clip-path-3);}.cls-6{clip-path:url(#clip-path-4);}</style><clipPath id="clip-path"><rect class="cls-1" width="150" height="50"/></clipPath><clipPath id="clip-path-2"><ellipse class="cls-2" cx="23.946" cy="16.075" rx="5.966" ry="5.98"/></clipPath><clipPath id="clip-path-3"><ellipse class="cls-2" cx="31.851" cy="29.829" rx="5.966" ry="5.98"/></clipPath><clipPath id="clip-path-4"><ellipse class="cls-2" cx="15.966" cy="29.829" rx="5.966" ry="5.98"/></clipPath></defs><g class="cls-3"><ellipse class="cls-2" cx="23.946" cy="16.075" rx="5.966" ry="5.98"/><g class="cls-4"><path class="cls-2" d="M18.173,18.059a.858.858,0,0,1-.161-.6.976.976,0,0,1,.428-.491,9.759,9.759,0,0,1,6.831-1.648A8.64,8.64,0,0,1,29.9,17.314a2.025,2.025,0,0,1-.276.892c-.375.079-.584-.222-.848-.382a8.636,8.636,0,0,0-9.608-.057C18.871,17.948,18.6,18.293,18.173,18.059Z"/><path class="cls-2" d="M17.859,16.125a2.559,2.559,0,0,1,.148-1.352c.717.173,1.294-.279,1.881-.512,3.194-1.267,6.262-.735,9.311.479a2.034,2.034,0,0,1,.733.492.1.1,0,0,1,.01.113c.06.284.193.624-.087.816s-.549-.086-.8-.228a10.958,10.958,0,0,0-4.078-1.275,10.212,10.212,0,0,0-5.463.979C18.993,15.863,18.5,16.266,17.859,16.125Z"/><path class="cls-2" d="M18.431,13.542a2.052,2.052,0,0,1,.6-1.021,13.563,13.563,0,0,1,8.548-.425,12.649,12.649,0,0,1,1.362.588,3.037,3.037,0,0,1,.571,1.052.472.472,0,0,1-.614.094,16.112,16.112,0,0,0-2.167-.734,4.986,4.986,0,0,0-1.684-.22,10.47,10.47,0,0,0-5.38.667,2.583,2.583,0,0,1-1,.248C18.515,13.793,18.359,13.767,18.431,13.542Z"/><path class="cls-2" d="M17.859,16.125a36.265,36.265,0,0,1,3.476-1.434,9.44,9.44,0,0,1,3.8-.224,10.494,10.494,0,0,1,4.314,1.466c.443.266.452.253.5-.588a2.274,2.274,0,0,1,0,1.531c-.439.092-.745-.2-1.079-.388a11.49,11.49,0,0,0-4.72-1.265,10.692,10.692,0,0,0-5.573,1.431c-.218.1-.414.287-.688.21Z"/><path class="cls-2" d="M18.431,13.542c.4.238.784-.028,1.092-.153a11.265,11.265,0,0,1,4.348-.77,22.545,22.545,0,0,1,4.156.571c.522.1.879.669,1.489.546l.273.9c-.435.212-.748-.146-1.093-.27a14.585,14.585,0,0,0-4.819-.916,12.892,12.892,0,0,0-5.153,1.084c-.226.094-.654.448-.582-.248A1.19,1.19,0,0,1,18.431,13.542Z"/><path class="cls-2" d="M19.951,11.52a5.951,5.951,0,0,1,7.907-.034c-.028.518-.4.384-.694.351-.8-.091-1.588-.28-2.394-.379a12.639,12.639,0,0,0-4.008.389C20.122,11.97,20.052,11.978,19.951,11.52Z"/><path class="cls-2" d="M18.142,14.287c.108.5.342.155.518.068a8.8,8.8,0,0,1,3.647-1.087,14.209,14.209,0,0,1,4.685.324c.952.311,1.877.663,2.8,1.045l.143.595a19.457,19.457,0,0,0-4.493-1.352,9.824,9.824,0,0,0-5.4.563,10.018,10.018,0,0,0-1.626.652c-.376.245-.395-.055-.406-.322A.592.592,0,0,1,18.142,14.287Z"/><path class="cls-2" d="M17.885,16.864a10.377,10.377,0,0,1,5.079-1.87,12.069,12.069,0,0,1,4.01.482,21.017,21.017,0,0,1,2.971,1.4l-.045.438c-.829-.245-1.492-.825-2.283-1.142a10.047,10.047,0,0,0-5.763-.481,12.311,12.311,0,0,0-3.842,1.773A.827.827,0,0,1,17.885,16.864Z"/><path class="cls-2" d="M19.951,11.52c.075.424.335.251.561.17a11.081,11.081,0,0,1,3.287-.531,10.11,10.11,0,0,1,3.224.443c.252.075.621.347.835-.116.511.265.712.81,1.087,1.2a19.768,19.768,0,0,1-2.563-.623,13.127,13.127,0,0,0-6.618.423c-.22.071-.473.35-.729.037A2.531,2.531,0,0,1,19.951,11.52Z"/><path class="cls-2" d="M20.1,20.839a1.02,1.02,0,0,1-.452-.395c-.05-.492.329-.7.653-.9a6.6,6.6,0,0,1,6.623-.442,5.575,5.575,0,0,1,1.125.835.375.375,0,0,1,.1.526.954.954,0,0,1-.46.409.318.318,0,0,1-.129-.071c-1.741-2.015-5.216-1.64-6.981-.3A2.082,2.082,0,0,1,20.1,20.839Z"/><path class="cls-2" d="M18.566,18.971l-.127-.279c-.08-.3.123-.46.318-.605a8.644,8.644,0,0,1,10.511.14.754.754,0,0,1,.233.283,1.023,1.023,0,0,1-.306.614,9.415,9.415,0,0,0-3.564-1.739A8.049,8.049,0,0,0,19.406,18.6C19.153,18.768,18.948,19.086,18.566,18.971Z"/><path class="cls-2" d="M29.5,18.51c-.543-.137-.9-.582-1.371-.84a8.246,8.246,0,0,0-4.757-1.121,7.229,7.229,0,0,0-4.934,2.143,1,1,0,0,1-.267-.633,2.709,2.709,0,0,0,1.1-.591,8.38,8.38,0,0,1,4.849-1.323,9.013,9.013,0,0,1,5.507,2.061A.306.306,0,0,1,29.5,18.51Z"/><path class="cls-2" d="M18.566,18.971a8.42,8.42,0,0,1,5.991-1.946,7.822,7.822,0,0,1,4.526,1.834c.065.055.076.175.112.265l-.161.27a1.416,1.416,0,0,1-.713-.363,7.892,7.892,0,0,0-7.615-.772,7.114,7.114,0,0,0-1.8,1.276A1.07,1.07,0,0,1,18.566,18.971Z"/><path class="cls-2" d="M18.909,19.535a2.513,2.513,0,0,1,1.685-1.444,8.038,8.038,0,0,1,8.363,1.178.447.447,0,0,1,.077.125.725.725,0,0,1-.3.43,10.459,10.459,0,0,0-2.641-1.439,7.265,7.265,0,0,0-6.468,1.095c-.177.13-.33.31-.587.225Z"/><path class="cls-2" d="M28.153,20.467a3.192,3.192,0,0,0-2.108-1.476,6.8,6.8,0,0,0-1.861-.372,5.927,5.927,0,0,0-4.536,1.825l-.147-.151c-.22-.46.175-.6.43-.8a15.124,15.124,0,0,1,2.294-1.158.636.636,0,0,1,.191-.078,2.751,2.751,0,0,0,.785-.109,1.674,1.674,0,0,1,.408-.085,7.213,7.213,0,0,1,.764.009,6.286,6.286,0,0,1,3.855,1.364c.192.141.446.242.364.56A1.068,1.068,0,0,1,28.153,20.467Z"/><path class="cls-2" d="M20.1,20.839c.208-.61.788-.773,1.275-1.029a6.291,6.291,0,0,1,4.545-.352,2.471,2.471,0,0,1,1.773,1.418l-.276.2a.948.948,0,0,1-.334-.153,5.166,5.166,0,0,0-6.154-.113,1.431,1.431,0,0,1-.538.235Z"/><path class="cls-2" d="M20.391,21.045c1.916-1.916,5.654-1.742,7.026.031l-.325.224c-.386-.057-.642-.364-.983-.508a4.842,4.842,0,0,0-4.879.329,1.592,1.592,0,0,1-.389.215A.76.76,0,0,1,20.391,21.045Z"/><path class="cls-2" d="M23.524,18.207l-.3.149a.937.937,0,0,0-.745,0h-.149A11.446,11.446,0,0,0,19.5,19.841a.3.3,0,0,1-.344.026l-.12-.162a7.481,7.481,0,0,1,7.816-1.293,3.094,3.094,0,0,1,1.88,1.412l-.14.175a4.909,4.909,0,0,0-3.927-1.668c-.079.006-.165-.08-.247-.124A1.146,1.146,0,0,0,23.524,18.207Z"/><path class="cls-2" d="M22.042,21.9a1.166,1.166,0,0,1-.609-.258c-.058-.286.168-.4.349-.5a4.294,4.294,0,0,1,4.232-.032c.213.109.448.241.358.56a1.083,1.083,0,0,1-.618.241A5.181,5.181,0,0,0,22.042,21.9Z"/><path class="cls-2" d="M22.042,21.9a3.243,3.243,0,0,1,3.712.011A5.289,5.289,0,0,1,22.042,21.9Z"/><path class="cls-2" d="M20.841,21.336A2.524,2.524,0,0,1,22.8,20.228a4.517,4.517,0,0,1,4.29,1.072l-.419.225a4.326,4.326,0,0,0-3.6-.872,8.652,8.652,0,0,0-1.942.843A.332.332,0,0,1,20.841,21.336Z"/><path class="cls-2" d="M21.133,21.5a4.189,4.189,0,0,1,4.18-.922,2.247,2.247,0,0,1,1.36.951l-.3.142A3.785,3.785,0,0,0,22.564,21a2.505,2.505,0,0,0-1.131.638A.336.336,0,0,1,21.133,21.5Z"/><path class="cls-2" d="M19.156,19.867a12.854,12.854,0,0,1,2.386-1.326c.257-.082.526-.124.79-.185-.015.35-.332.327-.538.4a8.672,8.672,0,0,0-1.828.925c-.232.153-.451.3-.465.611A.832.832,0,0,1,19.156,19.867Z"/><path class="cls-2" d="M22.481,18.356a.5.5,0,0,1,.745,0C22.978,18.308,22.729,18.521,22.481,18.356Z"/><path class="cls-2" d="M23.524,18.207a.676.676,0,0,1,.894,0Z"/></g><ellipse class="cls-2" cx="31.851" cy="29.829" rx="5.966" ry="5.98"/><g class="cls-5"><path class="cls-2" d="M32.608,23.849a2.26,2.26,0,0,1,1.239.282,15.834,15.834,0,0,1-.365,3.518A10.455,10.455,0,0,1,30.821,32.3,11.92,11.92,0,0,1,27.7,34.27a1.566,1.566,0,0,1-.638-.72c.29-.511.88-.565,1.311-.86A6.519,6.519,0,0,0,30.7,30.608a1.489,1.489,0,0,1,.213-.242,8.588,8.588,0,0,0,1.644-3.9A8.5,8.5,0,0,0,32.608,23.849Z"/><path class="cls-2" d="M34.872,24.589a1.111,1.111,0,0,1,.677.476,7.8,7.8,0,0,1-.459,3.421,11.236,11.236,0,0,1-5.228,6.663,2.008,2.008,0,0,1-.55.214L28.59,35c-.184-.411.2-.428.4-.542a12.035,12.035,0,0,0,2.875-2.3,3.882,3.882,0,0,0,.395-.619,8.87,8.87,0,0,0,2.119-4.715,4.948,4.948,0,0,0,.117-1.608C34.457,25,34.419,24.6,34.872,24.589Z"/><path class="cls-2" d="M36.759,26.247a2.142,2.142,0,0,1,.6,1.037c-.356.763-.46,1.605-.748,2.392a13.943,13.943,0,0,1-3.714,5.532,6.344,6.344,0,0,1-1.03.713l-.9-.039c-.438-.425.114-.462.266-.61a17.136,17.136,0,0,0,3.344-3.727,13.056,13.056,0,0,0,1.678-4.7C36.291,26.57,36.346,26.24,36.759,26.247Z"/><path class="cls-2" d="M36.759,26.247c-.614.467-.382,1.215-.543,1.815a12.207,12.207,0,0,1-3.58,6.118,6.623,6.623,0,0,1-1.662,1.445c-.117.05-.039.169-.007.257a.954.954,0,0,1-.594-.136c-.406-.258-.211-.505.046-.7.337-.251.681-.493,1-.762A11.747,11.747,0,0,0,35.7,26.338c.036-.307-.139-.836.524-.709A1.5,1.5,0,0,1,36.759,26.247Z"/><path class="cls-2" d="M36.227,25.629c-.291.032-.329.227-.342.474A11.562,11.562,0,0,1,33.8,31.992a11.4,11.4,0,0,1-3.2,3.125c-.264.179-.447.31-.235.629a2.248,2.248,0,0,1-1.061-.383,23.506,23.506,0,0,1,2.069-1.512A11.848,11.848,0,0,0,34.9,28.507a30.34,30.34,0,0,0,.649-3.442C35.782,25.245,36.088,25.336,36.227,25.629Z"/><path class="cls-2" d="M27.7,34.27c.2-.561.789-.7,1.2-.9,2.784-1.374,3.984-3.823,4.586-6.64a3.436,3.436,0,0,0,.1-2.149c-.108-.25.093-.351.271-.449.149.017.307.013.41.153a8.592,8.592,0,0,1-.718,4.937c-.312.7-.747,1.323-1.08,2a11,11,0,0,1-.918,1.048,2.751,2.751,0,0,1-.722.764,19.657,19.657,0,0,1-2.7,1.59A.742.742,0,0,1,27.7,34.27Z"/><path class="cls-2" d="M31.863,35.921c.218-.482.723-.656,1.077-.995a13.8,13.8,0,0,0,3.976-6.954c.068-.286.061-.606.439-.688.03.327.417.513.347.88a14,14,0,0,1-2.595,5.552c-.382.492-.886.852-1.289,1.315a2.789,2.789,0,0,0-.6.74A2.6,2.6,0,0,1,31.863,35.921Z"/><path class="cls-2" d="M33.221,35.771c-.313-.358.1-.474.245-.624a14,14,0,0,0,2.423-2.869,12.877,12.877,0,0,0,1.5-3.733.506.506,0,0,1,.316-.381,2.652,2.652,0,0,1,.251,1.356,13.693,13.693,0,0,1-2.982,5.333c-.078.093-.183.163-.172.3A2.806,2.806,0,0,1,33.221,35.771Z"/><path class="cls-2" d="M25.929,31.155a1.542,1.542,0,0,1-.128-.734,3.309,3.309,0,0,0,2.436-1.393,5.248,5.248,0,0,0,1.443-4.372.515.515,0,0,1,.1-.487.755.755,0,0,1,.6-.158,2.231,2.231,0,0,1,.322,1.556,6.685,6.685,0,0,1-4.006,5.692C26.427,31.384,26.136,31.536,25.929,31.155Z"/><path class="cls-2" d="M29.78,24.169a5.762,5.762,0,0,1-3.1,6.3c-.3.149-.61.42-.88-.044l-.016-.312a10.751,10.751,0,0,0,1.8-1.255,4.813,4.813,0,0,0,1.555-3.825,2.619,2.619,0,0,1,.02-.587A.945.945,0,0,1,29.78,24.169Z"/><path class="cls-2" d="M26.484,32.671c-.166-.12-.183-.314-.242-.487.088-.276.347-.334.565-.439A7.246,7.246,0,0,0,31.169,25.2c.026-.455-.239-.927.089-1.362v.009a.577.577,0,0,1,.469-.023,4.341,4.341,0,0,1,.126,2.541,7.917,7.917,0,0,1-5.076,6.26A.741.741,0,0,1,26.484,32.671Z"/><path class="cls-2" d="M26.484,32.671a7.928,7.928,0,0,1,1.532-.881,7.5,7.5,0,0,0,3.7-6.807c-.009-.371,0-.743,0-1.114.583-.148.51.347.541.622a8.262,8.262,0,0,1-4.575,8.194,1.505,1.505,0,0,1-1.054.263C26.5,32.9,26.5,32.783,26.484,32.671Z"/><path class="cls-2" d="M25.929,31.155a.5.5,0,0,0,.55.011,6.629,6.629,0,0,0,3.928-4.9,10.963,10.963,0,0,0-.031-2.258.523.523,0,0,1,.447-.133,1.672,1.672,0,0,1,.325,1.266,7.266,7.266,0,0,1-4.087,6.45c-.294.156-.61.365-.976.151Z"/><path class="cls-2" d="M26.085,31.745a6.9,6.9,0,0,0,4.745-5.383,6.2,6.2,0,0,0-.007-2.484l.435-.038a8.423,8.423,0,0,1-.457,4.1,7.665,7.665,0,0,1-4.559,4.246Z"/><path class="cls-2" d="M26.629,32.948a8.621,8.621,0,0,0,4.008-3.023,8.794,8.794,0,0,0,1.5-3.844,7.32,7.32,0,0,0-.1-1.728c-.019-.2.012-.477-.324-.484l-.46-.02a1.564,1.564,0,0,1,1.216-.019,2.452,2.452,0,0,1,.175,1.584,8.23,8.23,0,0,1-1.5,4.681,4.06,4.06,0,0,0-.667.772,3.176,3.176,0,0,1-.328.377c-.267.3-.623.5-.91.774a2.413,2.413,0,0,1-.68.51,5.7,5.7,0,0,0-.875.517.792.792,0,0,1-.946.061Z"/><path class="cls-2" d="M32.313,31.3c.061-.817.714-1.349,1.013-2.064a8.582,8.582,0,0,0,.809-3.653,7.383,7.383,0,0,1,.122-1.3,1.068,1.068,0,0,1,.615.3.569.569,0,0,0-.217.6,9.608,9.608,0,0,1-1.645,5.789,1.4,1.4,0,0,1-.7.622l-.063-.06A.228.228,0,0,1,32.313,31.3Z"/><path class="cls-2" d="M34.8,35.156c-.209-.309.112-.474.234-.624a17.229,17.229,0,0,0,2.783-4.841.683.683,0,0,1,.137-.171A5.759,5.759,0,0,1,34.8,35.156Z"/><path class="cls-2" d="M29.161,24.442a4.077,4.077,0,0,1-.958,4.011,3.6,3.6,0,0,1-2.418,1.656l0-.3c.45-.592,1.173-.848,1.674-1.4a5.131,5.131,0,0,0,1.327-3.113c.02-.232-.14-.355-.189-.537A.91.91,0,0,1,29.161,24.442Z"/><path class="cls-2" d="M25.891,28.877a1.031,1.031,0,0,1,.158-.717,2.446,2.446,0,0,0,1.492-1.683,4.527,4.527,0,0,0,.286-1.137,1.081,1.081,0,0,1,.581-.457c.312-.068.311.177.331.358a4.992,4.992,0,0,1-2.275,3.951C26.173,29.327,25.8,29.5,25.891,28.877Z"/><path class="cls-2" d="M25.891,28.877c.028.25.119.337.39.229a4.956,4.956,0,0,0,2.268-4.06c-.012-.061-.093-.109-.141-.163l.187-.128c.339.039.43.205.394.555a5.245,5.245,0,0,1-3.206,4.5A1.486,1.486,0,0,1,25.891,28.877Z"/><path class="cls-2" d="M30.972,30.109a8.445,8.445,0,0,0,1.489-4.445c.008-.611.008-1.223.012-1.834a.164.164,0,0,1,.135.019,1.747,1.747,0,0,1,.293,1.468,8.634,8.634,0,0,1-1.929,5.239A.324.324,0,0,1,30.972,30.109Z"/><path class="cls-2" d="M27.827,25.34c.269.576-.063,1.07-.258,1.559a3.871,3.871,0,0,1-1.083,1.366c-.2.182-.376.282-.437-.105A4.976,4.976,0,0,1,27.827,25.34Z"/><path class="cls-2" d="M30.823,32.936l.6-.744c.344-.129.457-.6.894-.595h0c-.182.935-1,1.355-1.619,1.9a23.981,23.981,0,0,1-2.1,1.5c-.161-.014-.239-.132-.316-.25a.161.161,0,0,1,.07-.244A19.9,19.9,0,0,0,30.823,32.936Z"/><path class="cls-2" d="M30.823,32.936a6.163,6.163,0,0,1-1.81,1.352c-.252.143-.562.2-.739.464l-.16-.124A11.918,11.918,0,0,1,30.823,32.936Z"/><path class="cls-2" d="M26.738,33.106c.775.126,1.185-.628,1.851-.765.179.225,0,.33-.149.446a7.6,7.6,0,0,1-1.382.763A.811.811,0,0,1,26.738,33.106Z"/><path class="cls-2" d="M28.44,32.787l.149-.446.6-.446a2.034,2.034,0,0,0,.894-.744.515.515,0,0,1,.3-.3c.116-.148.222-.328.447-.149A5.287,5.287,0,0,1,28.44,32.787Z"/><path class="cls-2" d="M30.823,30.7l-.447.149c.037-.377.319-.558.6-.744v.447Z"/><path class="cls-2" d="M32.313,31.6c-.341.134-.469.587-.894.595a3.234,3.234,0,0,1,.894-.893Z"/><path class="cls-2" d="M30.078,31.151c-.079.509-.469.648-.894.744A4.367,4.367,0,0,1,30.078,31.151Z"/></g><ellipse class="cls-2" cx="15.966" cy="29.829" rx="5.966" ry="5.98"/><g class="cls-6"><path class="cls-2" d="M13.967,24.146a2.475,2.475,0,0,1,1.358-.307.418.418,0,0,1,.121.406A8.556,8.556,0,0,0,18.3,31.6a4.171,4.171,0,0,0,2.006,1.22c.3.066.721.176.532.685a1.1,1.1,0,0,1-.591.611,7.3,7.3,0,0,1-3.887-2.684,9.447,9.447,0,0,1-2.29-6.48C14.076,24.68,13.974,24.418,13.967,24.146Z"/><path class="cls-2" d="M12.31,25.033a1.243,1.243,0,0,1,.638-.428c.339-.041.347.225.355.428a16.2,16.2,0,0,0,.52,3.113A9.751,9.751,0,0,0,15.388,31.3a10.272,10.272,0,0,0,2.424,2.454,3.771,3.771,0,0,0,1.149.661c.207.064.44.139.388.444-.265.127-.392.471-.739.469a9.388,9.388,0,0,1-4.059-3.45,11.3,11.3,0,0,1-1.79-3.713,5.93,5.93,0,0,1-.355-2.32A2.186,2.186,0,0,0,12.31,25.033Z"/><path class="cls-2" d="M17.862,35.6a1.849,1.849,0,0,1-1.038.292,4.182,4.182,0,0,0-.852-.824,12.183,12.183,0,0,1-4.731-8.752A.791.791,0,0,0,11.2,26.1a1.408,1.408,0,0,1,.551-.6c.317-.051.378.158.39.4a14.044,14.044,0,0,0,1.53,5.147,6.754,6.754,0,0,0,1.231,1.575,8.723,8.723,0,0,0,2.623,2.373C17.753,35.1,18.059,35.226,17.862,35.6Z"/><path class="cls-2" d="M11.2,26.1c.31.09.276.414.292.6a11.85,11.85,0,0,0,3.639,7.448A18.116,18.116,0,0,0,16.6,35.357c.171.14.392.251.222.531l-.746.033a9.333,9.333,0,0,1-2.532-2.333,14.261,14.261,0,0,1-2.989-6.457A2.518,2.518,0,0,1,11.2,26.1Z"/><path class="cls-2" d="M17.862,35.6c-.011-.157-.057-.314-.21-.366-1.272-.433-2-1.528-2.867-2.42A9.54,9.54,0,0,1,12.4,28.265a4.745,4.745,0,0,1-.411-2.515c.016-.057-.154-.168-.237-.253a1.033,1.033,0,0,1,.556-.464c.621.12.337.7.277.889a2.963,2.963,0,0,0,.261,1.838,10.749,10.749,0,0,0,.862,2.447,13.5,13.5,0,0,0,3.558,4.222c.437.321,1.06.36,1.342.894A.939.939,0,0,1,17.862,35.6Z"/><path class="cls-2" d="M19.349,34.854c-.581-.433-1.286-.635-1.861-1.112A10.613,10.613,0,0,1,13.61,27.95a12.465,12.465,0,0,1-.451-2.975.431.431,0,0,0-.211-.37.948.948,0,0,1,.594-.3c.5.1.359.536.366.826a9.759,9.759,0,0,0,5.03,8.635c.327.2.813.293.865.811C19.69,34.734,19.571,34.877,19.349,34.854Z"/><path class="cls-2" d="M19.8,34.578a22.627,22.627,0,0,1-3.149-2.3,9.9,9.9,0,0,1-2.91-7.133.981.981,0,0,0-.2-.836.488.488,0,0,1,.425-.16c.476.2.3.656.3.968a9.537,9.537,0,0,0,2.847,6.877,13.876,13.876,0,0,0,3.134,2.127Z"/><path class="cls-2" d="M14.694,35.786a2.908,2.908,0,0,1-1.629-.6,22.328,22.328,0,0,1-2.11-3.173c-.288-.592-.584-1.178-.835-1.795a.428.428,0,0,1-.168.373,4.068,4.068,0,0,1,.183-2.419c.38-.119.571-.041.639.417a7.821,7.821,0,0,0,.927,2.487,14.54,14.54,0,0,0,2.922,4.075C15.011,35.51,15,35.523,14.694,35.786Z"/><path class="cls-2" d="M14.694,35.786c.322-.236.01-.3-.113-.414a16.53,16.53,0,0,1-3.911-6.108c-.126-.3.07-.67-.188-.975-.116-.139-.186-.205-.347-.117a2.094,2.094,0,0,1,.422-1.041c.6.506.494,1.292.717,1.935a12.833,12.833,0,0,0,3.706,5.692,15.123,15.123,0,0,1,1.1,1.163A2.774,2.774,0,0,1,14.694,35.786Z"/><path class="cls-2" d="M20.835,33.507c-.02-.385-.33-.482-.609-.546a5.582,5.582,0,0,1-2.442-1.609,9.625,9.625,0,0,1-1.45-1.908,10.963,10.963,0,0,1-1.169-3.595,5.067,5.067,0,0,1,.16-2.01,1.241,1.241,0,0,1,.873-.063,2.665,2.665,0,0,0-.286,2.114,7.6,7.6,0,0,0,2.14,4.755,5.959,5.959,0,0,0,2.389,1.684,1.08,1.08,0,0,1,.8.595A1.262,1.262,0,0,1,20.835,33.507Z"/><path class="cls-2" d="M16.969,23.874l.447.125c.528.511.274,1.191.291,1.764a5.664,5.664,0,0,0,1.428,3.328,8.336,8.336,0,0,0,2.77,2.065c-.015.208.011.427-.16.593a.534.534,0,0,1-.562,0A7.145,7.145,0,0,1,16.8,24.2.606.606,0,0,1,16.969,23.874Z"/><path class="cls-2" d="M21.905,31.156a5.737,5.737,0,0,1-3.353-2.507,5.884,5.884,0,0,1-.9-1.854,5.389,5.389,0,0,1-.166-1.938A4.986,4.986,0,0,0,17.416,24a1.417,1.417,0,0,1,.936.282,5.513,5.513,0,0,0,2.384,5.527,6.769,6.769,0,0,1,1.274.9A.5.5,0,0,1,21.905,31.156Z"/><path class="cls-2" d="M21.239,32.924a8.4,8.4,0,0,1-4.786-4.291,10.169,10.169,0,0,1-.81-4.009.762.762,0,0,1,.555-.848.522.522,0,0,1,.489.07,1.536,1.536,0,0,0-.422,1.282,7.6,7.6,0,0,0,4.566,6.979c.22.106.478.146.614.385A.669.669,0,0,1,21.239,32.924Z"/><path class="cls-2" d="M21.445,32.492a7.632,7.632,0,0,1-5.235-6.026,15.083,15.083,0,0,1-.139-1.762c-.006-.453.128-.774.616-.858h0c.134.877-.053,1.766.154,2.648a7.227,7.227,0,0,0,4.114,5.2c.248.117.506.209.618.491A.279.279,0,0,1,21.445,32.492Z"/><path class="cls-2" d="M21.569,32.188a7.471,7.471,0,0,1-4.42-4.1,6.319,6.319,0,0,1-.466-4.239l.286.027a7.931,7.931,0,0,0,1.17,5.174,7.074,7.074,0,0,0,3.606,2.7Z"/><path class="cls-2" d="M9.952,30.591l.057-.868c.553.866.807,1.675,1.221,2.4a13,13,0,0,0,1.785,2.6c.131.137.33.281.05.468A5.6,5.6,0,0,1,9.952,30.591Z"/><path class="cls-2" d="M22.01,30.7a5.9,5.9,0,0,1-3.834-4.432A4.361,4.361,0,0,1,18,24.955c.026-.287.042-.545.347-.674l.3.142a5.4,5.4,0,0,0,2.264,5.013c.374.27.874.372,1.115.822Z"/><path class="cls-2" d="M22.034,30.258A5.461,5.461,0,0,1,18.462,25.1c-.007-.239-.065-.506.193-.675l.269.129a2.262,2.262,0,0,1,.177.782,4.658,4.658,0,0,0,2.154,3.821,3.85,3.85,0,0,1,.788.656Z"/><path class="cls-2" d="M22.043,29.812a5.027,5.027,0,0,1-3.119-5.259l.564.356a4.565,4.565,0,0,0,1.587,3.6c.3.261.7.377.946.7Z"/><path class="cls-2" d="M22.021,29.216c-1.758-.6-3.037-2.774-2.533-4.307l.327.249a5.441,5.441,0,0,0,1.245,2.723,2.883,2.883,0,0,0,.85.7A.836.836,0,0,1,22.021,29.216Z"/><path class="cls-2" d="M21.91,28.581c-.205.233-.38.033-.5-.079a4.032,4.032,0,0,1-1.6-3.344,1.135,1.135,0,0,1,.537.5A3.827,3.827,0,0,0,21.754,28,.846.846,0,0,1,21.91,28.581Z"/><path class="cls-2" d="M21.754,28a2.276,2.276,0,0,1-1.4-2.336A4.451,4.451,0,0,1,21.754,28Z"/></g><path class="cls-2" d="M137.6,15.95c-1.17-.012-1.167,0-1.188,1.2,0,.128.088.3-.109.383-3.084-3.215-8.962-2.823-12.157.605a8.989,8.989,0,0,0,.085,12.371c3.265,3.4,8.978,3.669,12.15.455.5,1.393,1.071,1.884,2.2,1.919.984.032,1.1-.085,1.1-1.088q0-6.873,0-13.747C139.685,15.607,139.943,15.971,137.6,15.95Zm-6.966,14.14a5.812,5.812,0,1,1,5.762-5.782A5.779,5.779,0,0,1,130.634,30.09Z"/><path class="cls-2" d="M97.9,15.941c-.47.03-.943.006-1.414.006-1.013,0-1.016.013-1.035,1.055,0,.175.11.392-.1.534-3.038-3.19-8.892-2.851-12.108.546a9,9,0,0,0-.015,12.374c3.273,3.454,9.024,3.727,12.2.507.525,1.431,1.1,1.9,2.285,1.916.9.014,1.025-.1,1.027-1.018q0-4.644,0-9.29c0-1.931-.009-3.864.006-5.8C98.741,16.179,98.516,15.9,97.9,15.941ZM89.685,30.09a5.812,5.812,0,1,1,5.754-5.79A5.781,5.781,0,0,1,89.685,30.09Z"/><path class="cls-2" d="M60.463,15.947c-1.6,0-1.6,0-1.678,1.641-3.295-3.356-9.1-2.761-12.17.476a8.986,8.986,0,0,0-.293,12.1,8.654,8.654,0,0,0,5.793,3.014,7.806,7.806,0,0,0,6.67-2.231c.337,1.141.939,1.908,2.186,1.939,1,.024,1.119-.085,1.119-1.074q0-7.1,0-14.2C62.094,15.788,62.172,15.944,60.463,15.947ZM53.1,30.09a5.812,5.812,0,1,1,5.7-5.84A5.784,5.784,0,0,1,53.1,30.09Z"/><path class="cls-2" d="M118.861,24.728a17.744,17.744,0,0,0-.146-3.337,6.753,6.753,0,0,0-4.936-5.669c-2.73-.789-5.256-.458-7.255,1.87a2,2,0,0,0-2.244-1.627c-.916.02-1.023.1-1.023,1.027q0,6.321,0,12.643c0,.818.014,1.636,0,2.454-.013.6.243.864.851.826.47-.029.943-.005,1.415-.006.964,0,1.01-.045,1.011-1.007q0-4.277,0-8.553A5.173,5.173,0,0,1,107,21.04a4.515,4.515,0,0,1,5.026-2.429,4.451,4.451,0,0,1,3.552,4.293q.042,4.537,0,9.074c-.006.719.256.995.963.938a9.27,9.27,0,0,1,1.414,0c.672.049.929-.213.921-.9C118.847,29.587,118.87,27.158,118.861,24.728Z"/><path class="cls-2" d="M75.927,23.791a21.365,21.365,0,0,0-3.779-1.309,7.961,7.961,0,0,1-2.226-.8,1.475,1.475,0,0,1-.148-2.538,2.656,2.656,0,0,1,1.06-.516,5.567,5.567,0,0,1,4.419.732c.612.385.971.286,1.315-.309a13.343,13.343,0,0,1,.851-1.217c.312-.422.288-.777-.184-1.051a9.047,9.047,0,0,0-8.6-.7,4.518,4.518,0,0,0-2.854,4.249,4.482,4.482,0,0,0,2.61,4.243,12.223,12.223,0,0,0,3,1.054,10.475,10.475,0,0,1,2.935,1.016,1.554,1.554,0,0,1,.133,2.742,3.525,3.525,0,0,1-2.08.7,7.917,7.917,0,0,1-4.695-1.393c-.475-.313-.8-.287-1.1.2a14.127,14.127,0,0,1-.9,1.275c-.407.515-.281.865.237,1.214a11.55,11.55,0,0,0,6.751,1.848A7.161,7.161,0,0,0,76.38,32,4.691,4.691,0,0,0,75.927,23.791Z"/></g></svg>