<svg id="Layer_1" data-name="Layer 1" xmlns="http://www.w3.org/2000/svg" xmlns:xlink="http://www.w3.org/1999/xlink" viewBox="0 0 150 50"><defs><style>.cls-1{fill:none;}.cls-2{clip-path:url(#clip-path);}.cls-3{fill:#1b2d45;}</style><clipPath id="clip-path"><rect class="cls-1" width="150" height="50"/></clipPath></defs><g class="cls-2"><path class="cls-3" d="M129.721,33.308c-.271-.053-.541-.11-.812-.16a7.758,7.758,0,1,1,9.031-8.74c.126.862.125.857-.741,1.054q-5.022,1.14-10.044,2.289c-.119.027-.232.075-.406.132.135.176.227.322.343.446a4.2,4.2,0,0,0,6.324-.069.734.734,0,0,1,.847-.267c1,.262,2.016.481,3.131.742a18.138,18.138,0,0,1-1.032,1.561,7.706,7.706,0,0,1-5.324,2.92,2,2,0,0,0-.325.092ZM126.1,24.756a65.6,65.6,0,0,0,7.547-1.8,4.3,4.3,0,0,0-4.818-1.487A4.109,4.109,0,0,0,126.1,24.756Z"/><path class="cls-3" d="M46.311,33.308c-.283-.055-.566-.115-.85-.164a7.763,7.763,0,1,1,9.055-8.816c.049.3.062.6.1.953-1.887.428-3.76.852-5.632,1.279s-3.724.85-5.682,1.3c.188.233.306.406.45.555a4.222,4.222,0,0,0,6.274-.175.664.664,0,0,1,.78-.249c1.017.261,2.044.482,3.187.747a19.163,19.163,0,0,1-1.137,1.673,7.675,7.675,0,0,1-5.264,2.811,1.522,1.522,0,0,0-.286.089ZM42.65,24.839l7.6-1.754a4.173,4.173,0,0,0-7.6,1.754Z"/><path class="cls-3" d="M17.312,33.308l-.891-.165a7.763,7.763,0,1,1,9.048-8.774c.128.9.128.9-.744,1.1L14.714,27.747c-.121.028-.238.073-.413.128.105.15.178.277.271.386a4.223,4.223,0,0,0,6.4-.016.685.685,0,0,1,.81-.254c1.006.259,2.023.48,3.058.721a1.276,1.276,0,0,1-.068.233,7.759,7.759,0,0,1-6.182,4.27,2.944,2.944,0,0,0-.364.093Zm3.922-10.229a4.27,4.27,0,0,0-4.872-1.607,4.025,4.025,0,0,0-2.739,3.355Z"/><path class="cls-3" d="M84.972,31.894v.933H83.53c-.635,0-1.272-.022-1.906.009-.364.017-.447-.113-.446-.452.01-3.193,0-6.386,0-9.579,0-3.84.013-7.679,0-11.519,0-.341.09-.484.435-.554,1.032-.208,2.055-.457,3.082-.689.072-.016.146-.023.27-.043v9.058a7.211,7.211,0,0,1,6.592-.973,7.474,7.474,0,0,1,4.105,2.992,7.793,7.793,0,0,1-.5,9.419C93.171,32.87,88.54,34.472,84.972,31.894Zm-.073-6.46a4.246,4.246,0,1,0,4.229-4.209A4.251,4.251,0,0,0,84.9,25.434Z"/><path class="cls-3" d="M55.984,17.971c1.2,0,2.366,0,3.533.012.075,0,.2.166.21.265a7.092,7.092,0,0,1,.01.83c.362-.232.623-.405.888-.569A6.435,6.435,0,0,1,68.3,19.572a5.568,5.568,0,0,1,1.407,3.571c.068,3.152.061,6.307.083,9.461a1.5,1.5,0,0,1-.029.2c-.127.008-.238.022-.349.022-1,0-2.009-.011-3.013.009-.328.006-.405-.109-.4-.415q.015-3.669,0-7.337a7.861,7.861,0,0,0-.139-1.509,2.6,2.6,0,0,0-2.611-2.219,5.305,5.305,0,0,0-1.4.108,2.67,2.67,0,0,0-2.05,2.725c-.038,2.673-.042,5.346-.061,8.019-.005.735.05.614-.639.619-1.028.006-2.056,0-3.114,0Z"/><path class="cls-3" d="M40.255,17.97c-.325.82-.62,1.571-.922,2.32Q36.9,26.347,34.463,32.4a.561.561,0,0,1-.628.434c-1.029-.03-2.06-.028-3.089,0a.6.6,0,0,1-.666-.444q-2.466-6.21-4.956-12.41c-.257-.643-.518-1.284-.8-1.978.152-.015.258-.034.364-.034,1.144,0,2.288.008,3.432-.009a.418.418,0,0,1,.46.336q1.727,4.642,3.465,9.278c.051.135.118.264.228.507.106-.237.171-.364.221-.5q1.755-4.632,3.5-9.267a.461.461,0,0,1,.521-.357C37.734,17.978,38.953,17.97,40.255,17.97Z"/><path class="cls-3" d="M70.524,17.97c.683,0,1.316-.016,1.948.007.322.011.413-.1.411-.411-.013-1.483,0-2.966-.006-4.45,0-.211,0-.373.282-.436,1.137-.247,2.268-.525,3.4-.789a1.427,1.427,0,0,1,.242,0v6.08c.826,0,1.6,0,2.369,0,.691.006.625-.116.628.627,0,.887-.011,1.775.006,2.662.006.3-.1.391-.395.384-.711-.019-1.424,0-2.136,0h-.464v.523c0,3.385-.005,6.769.008,10.154,0,.361-.091.483-.465.475-1.017-.024-2.035-.02-3.052,0-.335.006-.434-.1-.433-.436.012-3.384.008-6.769.008-10.154,0-.56,0-.56-.555-.56-.508,0-1.017-.006-1.526,0-.19,0-.276-.056-.275-.259C70.527,20.27,70.524,19.156,70.524,17.97Z"/><path class="cls-3" d="M113.109,17.97c.7,0,1.339-.015,1.973.007.307.011.391-.1.389-.391-.011-1.47,0-2.94-.011-4.41,0-.317.1-.414.411-.409q1.583.023,3.165,0c.289,0,.367.1.365.375-.012,1.483,0,2.966-.011,4.448,0,.295.079.4.386.389.749-.021,1.5,0,2.25-.012.249,0,.369.049.366.33-.012,1.014-.008,2.028,0,3.042,0,.245-.085.337-.332.333-.725-.009-1.45.015-2.174-.009-.375-.013-.5.091-.5.487.016,3.384,0,6.768.017,10.151,0,.381-.093.505-.484.495-1-.025-2.009-.021-3.013,0-.351.007-.451-.106-.449-.454.012-3.384.008-6.768.007-10.151,0-.517,0-.518-.533-.519-.509,0-1.018.012-1.526-.007-.1,0-.284-.123-.285-.192C113.1,20.32,113.109,19.17,113.109,17.97Z"/><path class="cls-3" d="M102.185,19.262c1.985-.948,3.414-1.334,4.307-1.169.007.127.02.263.021.4,0,.937-.014,1.875.011,2.812.009.372-.088.483-.481.511a8.767,8.767,0,0,0-1.9.325,2.542,2.542,0,0,0-1.918,2.61c-.024,2.508-.03,5.016-.042,7.525,0,.552,0,.552-.562.552-.966,0-1.932-.008-2.9.005-.271,0-.343-.088-.343-.349q.011-7.087,0-14.176c0-.273.09-.345.351-.342,1.03.013,2.059.015,3.089,0,.294,0,.381.105.368.375C102.174,18.626,102.185,18.914,102.185,19.262Z"/><path class="cls-3" d="M107.947,17.971c1.183,0,2.326,0,3.469,0,.074,0,.148.013.259.024.008.158.022.3.022.453q0,6.957.009,13.916c0,.356-.077.484-.458.473-.966-.028-1.933-.01-2.9-.01h-.4Z"/><path class="cls-3" d="M109.827,10.2a2.455,2.455,0,0,1,2.547,2.542,2.515,2.515,0,0,1-2.5,2.571,2.594,2.594,0,0,1-2.628-2.595A2.474,2.474,0,0,1,109.827,10.2Z"/></g></svg>