<svg id="Layer_1" data-name="Layer 1" xmlns="http://www.w3.org/2000/svg" xmlns:xlink="http://www.w3.org/1999/xlink" viewBox="0 0 130 50"><defs><style>.cls-1{fill:none;}.cls-2{clip-path:url(#clip-path);}.cls-3{fill:#1b2d45;}</style><clipPath id="clip-path"><rect class="cls-1" width="130" height="50"/></clipPath></defs><g class="cls-2"><path class="cls-3" d="M117,32.646c-1.924,0-3.716-.008-5.507.008-.314,0-.432-.2-.58-.387q-2.391-2.955-4.773-5.917c-.059-.074-.093-.185-.277-.173v5.238c0,.289-.011.579,0,.867.012.24-.021.375-.323.371-1.3-.016-2.605-.012-3.907,0-.253,0-.331-.1-.311-.33.009-.1,0-.206,0-.31q0-10.439-.013-20.879c0-.554.145-.7.688-.676,1.074.046,2.151.042,3.225,0,.5-.019.654.1.651.628-.026,3.882-.014,7.765-.014,11.648v.753c.935-1.109,1.765-2.091,2.592-3.076.755-.9,1.5-1.8,2.26-2.7.127-.151.226-.32.487-.318,1.726.013,3.452.006,5.305.006l-2.594,3.034c-1.139,1.331-2.27,2.67-3.422,3.989-.228.261-.26.409-.013.691,2.051,2.341,4.082,4.7,6.118,7.053C116.7,32.284,116.805,32.411,117,32.646Z"/><path class="cls-3" d="M77.247,30.957a6.355,6.355,0,0,1-9.614-.4,8.674,8.674,0,0,1-.053-11,6.557,6.557,0,0,1,8.789-1.269,11.2,11.2,0,0,1,.878.812c0-.489.015-.891,0-1.292-.014-.285.064-.4.375-.394,1.262.016,2.525.026,3.786,0,.509-.012.377.314.377.572q.007,5.92,0,11.841c0,.826-.012,1.653.007,2.479.007.3-.086.383-.382.38q-1.893-.024-3.786,0c-.31,0-.394-.112-.38-.4C77.261,31.9,77.247,31.513,77.247,30.957Zm0-5.873a4.706,4.706,0,0,1,.006-.742c.213-1.3-.536-2.026-1.544-2.6a4.374,4.374,0,0,0-1.28-.425,3.782,3.782,0,0,0-4.343,4.749,3.943,3.943,0,0,0,6.317,1.8,1.845,1.845,0,0,0,.852-1.788A6.794,6.794,0,0,1,77.247,25.084Z"/><path class="cls-3" d="M92.206,17.12a7.846,7.846,0,0,1,6.615,3.7c.212.317.141.419-.149.576q-1.413.76-2.8,1.564c-.308.176-.465.2-.724-.148a3.55,3.55,0,0,0-3.751-1.452A3.646,3.646,0,0,0,88.5,24.019a3.768,3.768,0,0,0,1.863,4.356,3.69,3.69,0,0,0,4.762-1.043c.306-.421.491-.326.815-.144.879.493,1.755,1,2.657,1.445.422.211.393.393.169.737A7.918,7.918,0,1,1,90.3,17.328,7.1,7.1,0,0,1,92.206,17.12Z"/><path class="cls-3" d="M50.106,32.918a11.755,11.755,0,0,1-6.022-1.571c-.374-.229-.48-.408-.284-.812.34-.7.666-1.413.934-2.144.148-.4.291-.33.564-.153a8.42,8.42,0,0,0,5.182,1.308,2.261,2.261,0,0,0,1.22-.373,1.006,1.006,0,0,0,.551-.9,1.036,1.036,0,0,0-.728-.913,15.661,15.661,0,0,0-2.492-.677,11.948,11.948,0,0,1-2.915-.986c-2.719-1.37-2.672-5.117-.678-6.931a6.634,6.634,0,0,1,4.586-1.681,9.843,9.843,0,0,1,5.049,1.18c.846.477.858.463.518,1.34-.237.613-.507,1.215-.716,1.837-.127.38-.249.475-.623.245a8.791,8.791,0,0,0-3.96-1.271,3.046,3.046,0,0,0-1.452.2,1.062,1.062,0,0,0-.759.958,1.013,1.013,0,0,0,.735.968,19,19,0,0,0,2.047.675,21.384,21.384,0,0,1,2.751.906,4.1,4.1,0,0,1,2.8,3.851,4.359,4.359,0,0,1-2.18,3.916A7.1,7.1,0,0,1,50.106,32.918Z"/><path class="cls-3" d="M58.8,21.6c0-3.491.008-6.982-.01-10.474,0-.463.083-.646.6-.626,1.136.042,2.275.028,3.412,0,.4-.008.524.089.523.511q-.021,10.6,0,21.2c0,.346-.084.454-.44.447-1.2-.022-2.4-.031-3.6,0-.438.012-.492-.151-.491-.526C58.8,28.62,58.8,25.108,58.8,21.6Z"/><path class="cls-3" d="M30.387,24.2c1.136,0,2.272,0,3.408,0a2.647,2.647,0,0,1,.144,5.292c-2.437.04-4.875.036-7.313,0a2.686,2.686,0,0,1-2.518-2.767,2.655,2.655,0,0,1,2.56-2.522C27.907,24.188,29.147,24.2,30.387,24.2Z"/><path class="cls-3" d="M29.418,16.272c0,1.2.022,2.391-.006,3.585a2.627,2.627,0,0,1-2.573,2.565,2.6,2.6,0,0,1-2.66-2.335c-.165-2.555-.1-5.116-.036-7.672a2.641,2.641,0,0,1,5.271.148c.04,1.235.008,2.473.008,3.709Z"/><path class="cls-3" d="M22.369,30.414c0,1.136.01,2.271,0,3.407a2.635,2.635,0,0,1-2.624,2.769,2.6,2.6,0,0,1-2.665-2.777q-.018-3.5,0-7a2.631,2.631,0,0,1,5.256-.177c.059,1.257.013,2.518.013,3.777Z"/><path class="cls-3" d="M16.107,22.389c-1.115,0-2.231.008-3.347,0a2.64,2.64,0,1,1,.006-5.274q3.441,0,6.881,0a2.636,2.636,0,1,1,.056,5.271C18.505,22.4,17.306,22.389,16.107,22.389Z"/><path class="cls-3" d="M31.2,20.785a4.3,4.3,0,0,1,.412-2.448,2.71,2.71,0,0,1,3.065-1.123,2.631,2.631,0,0,1,1.823,2.763,2.591,2.591,0,0,1-2.145,2.379,21.517,21.517,0,0,1-2.781.08c-.3.011-.393-.129-.379-.417C31.209,21.609,31.2,21.2,31.2,20.785Z"/><path class="cls-3" d="M25.759,31.282a4.714,4.714,0,0,1,2.243.3,2.658,2.658,0,0,1-1.01,5.014A2.623,2.623,0,0,1,24.3,34.845a11.919,11.919,0,0,1-.188-3.319c-.011-.235.169-.245.344-.245Z"/><path class="cls-3" d="M13.784,24.2c.423.064,1.127-.242,1.428.134.254.317.07.986.072,1.5,0,.411.009.824-.015,1.234A2.64,2.64,0,1,1,12.445,24.2C12.856,24.179,13.27,24.2,13.784,24.2Z"/><path class="cls-3" d="M20.666,15.311c-.33,0-.66,0-.989,0A2.579,2.579,0,0,1,17.1,13.176a2.639,2.639,0,1,1,5.22-.737c.055.821.01,1.647.034,2.47.011.35-.161.413-.453.4C21.491,15.3,21.078,15.31,20.666,15.311Z"/></g></svg>