<svg id="Layer_1" data-name="Layer 1" xmlns="http://www.w3.org/2000/svg" xmlns:xlink="http://www.w3.org/1999/xlink" viewBox="0 0 110 50"><defs><style>.cls-1{fill:none;}.cls-2{clip-path:url(#clip-path);}.cls-3{fill:#1b2d45;}</style><clipPath id="clip-path"><rect class="cls-1" width="110" height="50"/></clipPath></defs><g class="cls-2"><path class="cls-3" d="M80.01,10H76.033c.006.066.014.135.014.2q0,5.241,0,10.486a.312.312,0,0,1-.031.212.689.689,0,0,1-.055-.07,2.875,2.875,0,0,0-1.412-1.146,7.067,7.067,0,0,0-3.926-.331A5.777,5.777,0,0,0,66.09,23.2a7.993,7.993,0,0,0-.261,4.934,6.186,6.186,0,0,0,2.837,3.981,6.332,6.332,0,0,0,5.3.566,4.693,4.693,0,0,0,1.674-.8c.132-.106.249-.229.408-.378,0,.365.014.682,0,1-.014.216.045.284.271.282q1.715-.016,3.427,0c.222,0,.273-.055.273-.274Q80.005,21.253,80.01,10ZM75.331,28.915A3.919,3.919,0,0,1,73.314,30.1a2.678,2.678,0,0,1-2.881-1.185,4.834,4.834,0,0,1-.2-5.3,2.867,2.867,0,0,1,4.443-.774,4.468,4.468,0,0,1,1.059,1.213,2.35,2.35,0,0,1,.31,1.2c-.006.35,0,.7,0,1.051,0,.3-.019.6,0,.89A2.088,2.088,0,0,1,75.331,28.915Z"/><path class="cls-3" d="M85.5,10.251c0-.084,0-.167-.008-.251H81.426c0,.1.013.2.013.3q0,11.093,0,22.185c0,.293,0,.293.3.293,1.15,0,2.3,0,3.45,0,.361,0,.316.042.316-.316Q85.5,21.355,85.5,10.251Z"/><path class="cls-3" d="M100.741,28.788c-1.257.012-2.514.027-3.769.037-.118,0-.19.008-.21.157a.824.824,0,0,1-.267.467,3.049,3.049,0,0,1-1.092.641,3.587,3.587,0,0,1-2.294.261,3.825,3.825,0,0,1-2.679-2.718c-.068-.21,0-.245.2-.243,1.685.008,3.367,0,5.05,0v0h2.741c.792,0,1.584,0,2.374,0,.124,0,.189-.012.195-.169a8.582,8.582,0,0,0-.644-3.788,6.415,6.415,0,0,0-3.988-3.82,8.759,8.759,0,0,0-5.518,0A6.285,6.285,0,0,0,86.7,23.513a7.867,7.867,0,0,0-.389,3.777,6.312,6.312,0,0,0,1.616,3.622A7.055,7.055,0,0,0,92.772,33.2a9.228,9.228,0,0,0,5.114-1.043,6.7,6.7,0,0,0,3.037-3.077C101.046,28.823,101.023,28.784,100.741,28.788Zm-10.2-4.147a4.182,4.182,0,0,1,1.412-2.21,3.055,3.055,0,0,1,4.239.578,4.317,4.317,0,0,1,.783,1.6c.066.239-.016.259-.216.257-1-.008-2.008,0-3.012,0s-2.023-.006-3.035,0C90.509,24.872,90.485,24.811,90.538,24.641Z"/><path class="cls-3" d="M47.81,20.68a7.239,7.239,0,0,0-4.769-1.506,6.544,6.544,0,0,0-1.494.153,6.633,6.633,0,0,0-4.912,3.892,7.263,7.263,0,0,0-.453,4.314,6.406,6.406,0,0,0,4.02,5.043,7.54,7.54,0,0,0,6.038-.011,6.4,6.4,0,0,0,3.719-3.912,7.771,7.771,0,0,0,.355-3.242A6.488,6.488,0,0,0,47.81,20.68Zm-2.576,8.428a2.858,2.858,0,0,1-4.475-.459,4.915,4.915,0,0,1,.2-5.154,2.542,2.542,0,0,1,1.824-1.047,2.727,2.727,0,0,1,2.423.777,3.79,3.79,0,0,1,.936,1.9,4.649,4.649,0,0,1,.1,1.047A4.227,4.227,0,0,1,45.234,29.108Z"/><path class="cls-3" d="M60.825,19.7a7.606,7.606,0,0,0-5.144-.233A6.5,6.5,0,0,0,51.189,23.6a7.427,7.427,0,0,0-.384,3.3,6.535,6.535,0,0,0,1.809,4.108,7.166,7.166,0,0,0,5.413,2.157,8.167,8.167,0,0,0,1.58-.179,6.676,6.676,0,0,0,4.82-3.747,7.261,7.261,0,0,0,.551-4.193A6.435,6.435,0,0,0,60.825,19.7Zm.131,6.414a4.419,4.419,0,0,1-.9,2.863,2.849,2.849,0,0,1-4.663-.465,4.9,4.9,0,0,1-.529-2.845,4.169,4.169,0,0,1,.921-2.312,2.542,2.542,0,0,1,1.91-.929A2.672,2.672,0,0,1,59.9,23.2a3.794,3.794,0,0,1,.965,1.955A4.11,4.11,0,0,1,60.956,26.119Z"/><path class="cls-3" d="M34.849,21.771a4.887,4.887,0,0,0-3.158-2.261,9.589,9.589,0,0,0-3.286-.232,4.378,4.378,0,0,0-3.2,1.385,1.575,1.575,0,0,0-.19-.244,1.8,1.8,0,0,0-.666-.454h0c-.066-.018-.09-.108-.172-.1a4.581,4.581,0,0,0-1.569-1.046c.035-.093.128-.124.2-.175q1.962-1.425,3.923-2.847c.047-.034.162-.045.094-.162s-.128-.023-.192-.01a1.4,1.4,0,0,0-.159,0c-1.464.16-2.928.32-4.383.553-.636.1-1.274.194-1.9.354-.171.031-.343.053-.511.095a18.76,18.76,0,0,0-2.277.638.328.328,0,0,0-.089,0,24.068,24.068,0,0,0-2.423.918,25.845,25.845,0,0,0-2.648,1.285c-.671.328-1.3.723-1.948,1.1a.373.373,0,0,1-.295.073v.183l.636-.039h0c0,.061,0,.122,0,.183a23.063,23.063,0,0,0-.024,3.077,1.469,1.469,0,0,1-.065.512,4.652,4.652,0,0,0-.218,1.5,7.347,7.347,0,0,0,.572,2.564c.1.251.2.5.3.753.042-.449.04-.882.043-1.316a14.78,14.78,0,0,0-.189-2.748,11.342,11.342,0,0,1-.258-1.27,17.375,17.375,0,0,1,.04-3.257l1.552-.016,2.6.1,0,.175c0,.022,0,.044-.007.066a.446.446,0,0,0-.014.121,8.027,8.027,0,0,0,.116,1.92c-.056.095-.1.187.049.241h0c-.016.151-.046.3-.047.453q-.012,4.384-.022,8.767c0,.182.08.189.219.189,1.2,0,2.4-.007,3.608,0,.2,0,.234-.063.233-.245-.006-2.466,0-4.932,0-7.4a6.422,6.422,0,0,1,.121-1.4h0c.207-.046.414-.089.62-.139a7.48,7.48,0,0,0,2.36-1.08h0a1.544,1.544,0,0,1,.72.765,3.23,3.23,0,0,1,.276,1.376q0,3.93,0,7.86c0,.2.041.269.257.267,1.188-.012,2.376,0,3.565-.007.33,0,.288.036.288-.3,0-2.658,0-5.316.01-7.974a2.611,2.611,0,0,1,.369-1.394,2,2,0,0,1,2.178-.783,1.581,1.581,0,0,1,.974.505,2.5,2.5,0,0,1,.586,1.755q.015,4,0,8c0,.166.022.237.217.235,1.2-.01,2.407-.008,3.61,0,.157,0,.206-.038.205-.2-.007-2.887,0-5.774-.017-8.66A4.383,4.383,0,0,0,34.849,21.771Z"/></g></svg>