<svg id="Layer_1" data-name="Layer 1" xmlns="http://www.w3.org/2000/svg" xmlns:xlink="http://www.w3.org/1999/xlink" viewBox="0 0 120 50"><defs><style>.cls-1{fill:none;}.cls-2{clip-path:url(#clip-path);}.cls-3{fill:#1b2d45;}</style><clipPath id="clip-path"><rect class="cls-1" width="120" height="50"/></clipPath></defs><g class="cls-2"><path class="cls-3" d="M44.6,16.176a8.5,8.5,0,0,0-7.525-6.1h0A.306.306,0,0,1,37.062,10H30.108a.269.269,0,0,1-.014.074,2.254,2.254,0,0,0-1.944,1.642c-.2.593-.336,1.208-.5,1.814q-2.55,9.545-5.107,19.087c-.088.331-.041.406.3.4,1.1-.021,2.2-.056,3.3,0a2.585,2.585,0,0,0,2.69-2.075c1.306-4.963,2.663-9.912,3.989-14.87.076-.286.18-.4.483-.395.986.011,1.974-.024,2.96-.009a3.036,3.036,0,0,1,.516,6.009,11.576,11.576,0,0,1-2.137.076,2.421,2.421,0,0,0-2.534,1.931c-.3,1.1-.577,2.206-.892,3.3-.1.359.021.392.329.389,1.63-.012,3.261,0,4.891-.006a7.851,7.851,0,0,0,1.618-.16C43.639,26.031,45.781,20.2,44.6,16.176Z"/><path class="cls-3" d="M102.614,27.846c-.9.016-1.8.014-2.7,0-2.961-.033-5.923.085-8.882-.075-.6-.032-.953-.421-.81-.985.417-1.645.85-3.285,1.313-4.917a1.268,1.268,0,0,1,1.388-.971c1.617,0,3.235.037,4.85-.016.881-.029,1.2.429.876,1.281-.169.45-.524.441-.872.448-1.087.019-2.174.006-3.261.024a2.356,2.356,0,0,0-2.326,1.8c-.159.577-.289,1.164-.467,1.735-.09.287-.015.344.258.343,2.833-.007,5.666.013,8.5-.015a3.746,3.746,0,0,0,3.56-2.721c.2-.655.359-1.32.533-1.982a4.748,4.748,0,0,0-4.552-6.106q-3.861-.074-7.725,0a6.385,6.385,0,0,0-6.2,4.751c-.652,2.231-1.238,4.481-1.817,6.732a4.716,4.716,0,0,0,4.516,5.832c1.788,0,3.577,0,5.365,0h5.537a2.37,2.37,0,0,0,2.355-1.76c.288-1.015.547-2.038.831-3.054C102.946,27.935,102.909,27.841,102.614,27.846Z"/><path class="cls-3" d="M64.23,19.429A4.736,4.736,0,0,0,59.6,15.653c-1.987-.031-3.976-.007-5.964-.007v-.005q-3.175,0-6.35,0c-.188,0-.387-.062-.455.243-.163.723-.4,1.43-.548,2.155a2.349,2.349,0,0,0,2.254,2.779c.9.017,1.8,0,2.7.008,2.159.025,4.319-.07,6.476.057.715.041.767.115.584.807q-.693,2.624-1.4,5.244c-.176.656-.409.829-1.1.829-1.616,0-3.232,0-4.849,0a3.373,3.373,0,0,1-.808-.085.533.533,0,0,1-.443-.553.55.55,0,0,1,.42-.575,1.97,1.97,0,0,1,.55-.073q1.523,0,3.046-.009A2.431,2.431,0,0,0,56.2,24.584c.152-.55.271-1.11.446-1.652.112-.35,0-.392-.319-.391-2.389.013-4.777.008-7.166.006a5.873,5.873,0,0,0-1.277.117A5.162,5.162,0,0,0,43.775,27.8a4.888,4.888,0,0,0,4.892,5.138c3.132.041,6.264.045,9.4.048a3.9,3.9,0,0,0,3.884-3.011q1.065-3.965,2.133-7.928A5.249,5.249,0,0,0,64.23,19.429Z"/><path class="cls-3" d="M75.121,15.693c-2.531-.045-5.064,0-7.595-.021-.293,0-.356.133-.416.359Q65.046,23.8,62.978,31.573A1.055,1.055,0,0,0,64.1,33.008q1.373,0,2.746,0a1.752,1.752,0,0,0,1.976-1.5c.865-3.236,1.735-6.472,2.585-9.713a.527.527,0,0,1,.635-.478c.914.035,1.831.009,2.746.014A2.984,2.984,0,0,1,77.68,23.52a4.2,4.2,0,0,1-.149,2.273q-.767,2.895-1.526,5.791a1.041,1.041,0,0,0,1.087,1.424c.487,0,.973,0,1.46,0h1.33a1.763,1.763,0,0,0,1.986-1.539c.39-1.475.769-2.954,1.183-4.422a9.274,9.274,0,0,0,.323-4.526A8.4,8.4,0,0,0,75.121,15.693Z"/><path class="cls-3" d="M19.277,21.332c.987-.009,1.974,0,2.961,0a2.394,2.394,0,0,0,2.447-1.873c.3-1.128.57-2.267.891-3.391.108-.378-.029-.391-.329-.388-1.058.013-2.117,0-3.175,0h-.215a24.058,24.058,0,0,0-3.983.118,8.294,8.294,0,0,0-6.949,6.335,8.48,8.48,0,0,0,5.5,10.486,14.331,14.331,0,0,0,4.417.391c.193,0,.225-.114.265-.264.355-1.321.727-2.638,1.072-3.962a1.05,1.05,0,0,0-1.058-1.361c-.629-.015-1.259,0-1.888-.01a3.041,3.041,0,0,1,.044-6.081Z"/><path class="cls-3" d="M113.737,10.075h0a.33.33,0,0,1-.014-.075h-3.605a.647.647,0,0,1-.015.074,1.789,1.789,0,0,0-1.456,1.487q-2.373,8.95-4.772,17.9c-.312,1.169-.617,2.34-.934,3.544.236,0,.436.013.633,0a7.567,7.567,0,0,0,6.6-5.373c1.472-5.39,2.913-10.789,4.364-16.186A1.03,1.03,0,0,0,113.737,10.075Z"/></g></svg>