<svg id="Layer_1" data-name="Layer 1" xmlns="http://www.w3.org/2000/svg" xmlns:xlink="http://www.w3.org/1999/xlink" viewBox="0 0 130 50"><defs><style>.cls-1{fill:none;}.cls-2{clip-path:url(#clip-path);}.cls-3{fill:#1b2d45;}</style><clipPath id="clip-path"><rect class="cls-1" width="130" height="50"/></clipPath></defs><g class="cls-2"><path class="cls-3" d="M99.57,21.793c0-3.581,0-7.161,0-10.742.007-.2.045-.233.256-.24.977,0,1.957-.019,2.933.009.343.035.238.456.254.7.013,2.235-.026,4.472.018,6.706a.181.181,0,0,0,.331.1c.152-.265.45-.4.61-.656.263-.044.4-.33.683-.346a1.438,1.438,0,0,1,.972-.288c.6.056,1.319-.183,1.821.246,2.71,1.309,1.713,7.623,1.9,10.28-.177,1.735-.244,3.831-1.721,5a3.525,3.525,0,0,1-4.44-.591c-.171-.589-.541-.18-.582.217-.062.221.047.632-.28.64-.8.038-1.607.01-2.409.015-.325,0-.343-.028-.35-.367Q99.568,27.138,99.57,21.793Zm3.48,3.477c.116,1.558-.245,3.353.166,4.83a1.343,1.343,0,0,0,2.317-.611,36.286,36.286,0,0,0,.281-6.669,7.424,7.424,0,0,0-.584-2.972c-.392-.27-.91-.5-1.313-.093a1.552,1.552,0,0,0-.865,1.639Q103.048,23.332,103.05,25.27Z"/><path class="cls-3" d="M76.381,31.084a3.579,3.579,0,0,1-2.87,2.051c-.369.258-.711.053-1.081-.041a2.243,2.243,0,0,1-1.507-.671,4.121,4.121,0,0,1-.914-2.992q0-6,0-12.017a19.428,19.428,0,0,1,3.156-.093c.186,0,.378-.027.364.235.027,4.016-.04,8.037.035,12.05-.01.287.239.454.275.712.757.468.772.232,1.533.019.052-.178.284-.184.341-.355.039-.17.3-.141.263-.344.028-3.911,0-7.824.011-11.736,0-.657-.072-.577.592-.58.82,0,1.641,0,2.462,0,.372-.033.515.054.467.45q0,7.282,0,14.566c-.008.386.043.549-.418.513C76.279,32.722,77.064,33.519,76.381,31.084Z"/><path class="cls-3" d="M51.861,29.225c-.124-1.308.285-2.759-.23-3.984-.038-.5-.339-.949-.358-1.455,0-.228-.226-.341-.223-.571a1.373,1.373,0,0,0-.1-.561c-.277-.468-.095-1.058-.4-1.492-.084-.463-.257-.931-.367-1.4.013-.33-.213-.569-.264-.886.025-.388-.25-.668-.27-1.046a1.243,1.243,0,0,0-.236-.734c-.091-.19.014-.43-.137-.6a1.08,1.08,0,0,1-.188-.584,5.589,5.589,0,0,1-.3-1.255c-.316-.314-.148-.788-.349-1.125a.269.269,0,0,1-.11-.225c.088-.5-.726-1.435-.126-1.706,1.029,0,2.061-.025,3.09.012.21.019.216.026.248.255.3.953.381,1.98.681,2.959.2.409.017.968.272,1.368a.886.886,0,0,1,.109.5c.012.472.264.886.277,1.371.03.185,0,.383.167.533.061.816.356,1.624.412,2.451.253.457.548-.568.524-.789a1.092,1.092,0,0,1,.192-.744c.162-.347.023-.766.224-1.116.183-.418.035-.916.314-1.306.068-.735.323-1.461.423-2.185.35-.49.031-1.124.384-1.6a.574.574,0,0,0,.093-.45c-.031-.448.236-.821.292-1.247.01-.147.191-.2.332-.178.943,0,1.886,0,2.829,0,.515-.02.333.683.172.956-.259.922-.5,1.864-.759,2.79-.216.348-.117.792-.335,1.144a.665.665,0,0,0-.1.35c.01.312-.229.541-.271.836-.247,1.289-.738,2.533-1.026,3.837-.341,1.391-.879,2.734-1.19,4.11a1.48,1.48,0,0,0-.2.952c0,2.043,0,4.087,0,6.13-.009.26-.038.3-.312.3C50.633,32.862,52.105,33.364,51.861,29.225Z"/><path class="cls-3" d="M68.177,25.063c.006,2.42.2,6.019-2.05,7.473a7.179,7.179,0,0,1-3.944.541c-.318.049-.551-.156-.844-.216a2.8,2.8,0,0,1-1.948-1.568c-.01-.142-.221-.2-.238-.381a.43.43,0,0,0-.164-.368,8.9,8.9,0,0,1-.4-1.923,45.517,45.517,0,0,1-.164-5.053c.071-.783.127-1.6.25-2.375.242-.4.094-.914.337-1.3a4.248,4.248,0,0,1,1.5-2.2,6.668,6.668,0,0,1,4.459-.6C68.375,17.958,68.2,22.209,68.177,25.063Zm-3.6.05H64.6c-.192-1.342.7-6.106-1.542-5.588-1.039.477-.9,2.081-.929,3.053.106,2.4-.255,4.876.221,7.232a1.045,1.045,0,0,0,1.548.724C65.118,29.5,64.375,26.643,64.574,25.113Z"/><path class="cls-3" d="M97.444,25.079v7.179c0,.63.024.593-.605.593-2.984-.094-1.652.535-2.526-1.658-.048,0-.12.024-.134.057a3.348,3.348,0,0,1-1.037,1.2,3.682,3.682,0,0,1-2.782.639c-1.692-.28-2.086-1.471-2.355-3-.2-4.055-.015-8.136-.077-12.2,0-.63-.064-.559.557-.561.839,0,1.677,0,2.516,0,.558-.073.456.238.466.663q0,5.4,0,10.794a2.989,2.989,0,0,0,.287,1.505c.224.105.347.345.645.372.514.01,1.445-.506,1.5-1.056.014-3.895,0-7.79.006-11.685,0-.668-.072-.589.579-.592.925,0,1.851-.01,2.776.005.307.038.141.468.184.678Z"/><path class="cls-3" d="M120.206,26.25c-1.648.141-3.327.006-4.989.051-.614-.015-1.007-.064-.9.647.367,1.058-.151,2.354.476,3.315A1.107,1.107,0,0,0,116.7,29.9a.575.575,0,0,1,.07-.3,2.628,2.628,0,0,0,.21-1.324c.009-.443.895-.3,1.174-.174.535-.021,1.071.1,1.608.108.148.014.4.051.391.252a3.8,3.8,0,0,1-.19,1.647,3.03,3.03,0,0,1-1.877,2.485c-1.313.752-2.306.5-3.675.475a1.647,1.647,0,0,1-.79-.228c-.117-.032-.3-.017-.344-.091-.14-.222-.413-.162-.574-.325a3.063,3.063,0,0,1-1.226-1.879c-.256-.243-.216-.57-.263-.873a3.744,3.744,0,0,1-.229-1.329,37.113,37.113,0,0,1,.278-8.287c-.033-.2.19-.286.223-.452.031-.511.4-.857.616-1.279a3.444,3.444,0,0,1,1.608-1.013,6.458,6.458,0,0,1,4.056-.032c.695.154,1.107.778,1.595,1.239.012.355.369.582.35.952a.337.337,0,0,0,.073.243c.279.385.137.913.244,1.36,0,.052-.01.12.017.154a1.433,1.433,0,0,1,.162.956C120.2,23.536,120.274,24.9,120.206,26.25Zm-5.878-3.633h-.047c-.077,2.173-.021,1.374,2.187,1.517.709.125.264-1.881.38-2.365A3.572,3.572,0,0,1,116.7,20.7c-.051-1.18-.813-1.444-1.816-1.079-.08.247-.324.408-.347.682A12.074,12.074,0,0,0,114.328,22.617Z"/><path class="cls-3" d="M82,23.643q0-4.245,0-8.49c-.015-.243.083-.714-.255-.756-3.358-.27-3.119,1.064-3.071-2.428-.074-.415.332-.358.621-.359h9.118c.273.024.668-.107.61.315-.094.4.256,2.563-.246,2.457-.653.154-3.386-.409-3.256.5q-.009,8.646,0,17.294c0,.742.048.69-.671.687a16.642,16.642,0,0,1-2.815-.1c-.095-3.025,0-6.079-.033-9.113Z"/><path class="cls-3" d="M43.464,13.933a4.383,4.383,0,0,0-3.08-3.081,113.078,113.078,0,0,0-27.349-.029,4.471,4.471,0,0,0-3.081,3.11,46.182,46.182,0,0,0-.719,8.406,46.01,46.01,0,0,0,.719,8.406,4.383,4.383,0,0,0,3.081,3.08,113.028,113.028,0,0,0,27.349.029,4.381,4.381,0,0,0,3.08-3.081,46.176,46.176,0,0,0,.719-8.406S44.213,16.668,43.464,13.933ZM23.226,27.578V17.1l9.1,5.239Z"/></g></svg>