<svg id="Layer_1" data-name="Layer 1" xmlns="http://www.w3.org/2000/svg" xmlns:xlink="http://www.w3.org/1999/xlink" viewBox="0 0 150 50"><defs><style>.cls-1{fill:none;}.cls-2{clip-path:url(#clip-path);}.cls-3{fill:#1b2d45;}</style><clipPath id="clip-path"><rect class="cls-1" width="150" height="50"/></clipPath></defs><g class="cls-2"><path class="cls-3" d="M22.822,25.843H15.031l-2.245,6.494a.3.3,0,0,1-.28.218H10.2c-.167,0-.229-.083-.187-.249L16.9,13.075a10.505,10.505,0,0,0,.218-1.373.138.138,0,0,1,.156-.156h3.273a.167.167,0,0,1,.186.125L28.12,32.306c.062.166.02.249-.125.249H25.408a.28.28,0,0,1-.249-.187Zm-7.168-2.216H22.23q-.032-.061-1.481-4.292t-1.823-5.51H18.9Q18.522,15.229,15.654,23.627Z"/><path class="cls-3" d="M37.874,32.868a7.862,7.862,0,0,1-5.578-2,7.408,7.408,0,0,1-2.15-5.712,7.624,7.624,0,0,1,2.306-5.729A8.24,8.24,0,0,1,38.435,17.2a7.348,7.348,0,0,1,2.431.312V9.985a.165.165,0,0,1,.187-.187h2.462c.1,0,.156.062.156.187V29.652q0,.781.062,1.592c.021.105-.031.188-.155.25A11.852,11.852,0,0,1,37.874,32.868Zm2.992-2.685v-10.4a4.87,4.87,0,0,0-2.462-.53,5.065,5.065,0,0,0-3.942,1.591,5.978,5.978,0,0,0-1.449,4.184,5.521,5.521,0,0,0,1.511,4.245,5.145,5.145,0,0,0,3.631,1.4A5.767,5.767,0,0,0,40.866,30.183Z"/><path class="cls-3" d="M54.61,17.2a6.784,6.784,0,0,1,5.283,2.185A8.052,8.052,0,0,1,61.871,25a7.988,7.988,0,0,1-2.025,5.728,6.927,6.927,0,0,1-5.267,2.139,6.647,6.647,0,0,1-5.469-2.311,8.455,8.455,0,0,1-1.886-5.525,7.939,7.939,0,0,1,2.057-5.619A6.936,6.936,0,0,1,54.61,17.2Zm-.125,2.061A3.88,3.88,0,0,0,51.276,20.8a6.556,6.556,0,0,0-1.216,4.167,6.845,6.845,0,0,0,1.216,4.215,3.969,3.969,0,0,0,3.365,1.623,4.013,4.013,0,0,0,3.1-1.451,6.273,6.273,0,0,0,1.293-4.293A7.069,7.069,0,0,0,57.882,20.9,3.885,3.885,0,0,0,54.485,19.257Z"/><path class="cls-3" d="M65.705,9.8h2.4c.145,0,.218.062.218.187v8.023A8.489,8.489,0,0,1,72,17.2a6.675,6.675,0,0,1,5.11,2.061,7.531,7.531,0,0,1,1.932,5.369,7.961,7.961,0,0,1-2.305,6.025,7.681,7.681,0,0,1-5.516,2.217,12.12,12.12,0,0,1-5.548-1.187.3.3,0,0,1-.187-.28V9.985C65.486,9.86,65.559,9.8,65.705,9.8ZM76.176,24.845a5.88,5.88,0,0,0-1.278-4,4.356,4.356,0,0,0-3.459-1.467,6.277,6.277,0,0,0-3.117.75v9.99a6.045,6.045,0,0,0,3.055.686,4.353,4.353,0,0,0,3.412-1.592A6.431,6.431,0,0,0,76.176,24.845Z"/><path class="cls-3" d="M91.29,25.282H84.621a5.378,5.378,0,0,0,1.247,3.871A4.87,4.87,0,0,0,89.7,30.62a8.526,8.526,0,0,0,3.864-.812c.126-.083.188-.041.188.125V31.65a.267.267,0,0,1-.156.281,9.616,9.616,0,0,1-4.456.937q-3.8,0-5.594-2.232a8.466,8.466,0,0,1-1.793-5.479,8.619,8.619,0,0,1,1.886-5.682A6.268,6.268,0,0,1,88.735,17.2a5.534,5.534,0,0,1,4.6,1.889,6.688,6.688,0,0,1,1.512,4.292,9.5,9.5,0,0,1-.093,1.561.31.31,0,0,1-.25.25A31.709,31.709,0,0,1,91.29,25.282ZM84.621,23.44h5.548a14.211,14.211,0,0,0,1.964-.063,2.322,2.322,0,0,0,.03-.5,4.324,4.324,0,0,0-.825-2.544,3.1,3.1,0,0,0-2.727-1.171,3.389,3.389,0,0,0-2.774,1.217A5.783,5.783,0,0,0,84.621,23.44Z"/><path class="cls-3" d="M119.775,11.483,113.043,21.66l7.2,10.677c.082.146.051.218-.093.218h-1.4a.384.384,0,0,1-.281-.125l-6.513-9.771h-.031l-6.14,9.74a.336.336,0,0,1-.249.156h-1.341c-.145,0-.176-.072-.094-.218l6.888-10.583-6.731-10.271c-.084-.125-.042-.187.124-.187h1.371a.531.531,0,0,1,.25.094l6.046,9.427h.031l6.078-9.4a.356.356,0,0,1,.249-.125h1.277C119.807,11.3,119.837,11.358,119.775,11.483Z"/><path class="cls-3" d="M123.951,32.337V11.514a.192.192,0,0,1,.156-.218q1.869-.063,5.39-.063,5.173,0,7.839,2.841A10.6,10.6,0,0,1,140,21.629a12.925,12.925,0,0,1-1.028,5.385,8.01,8.01,0,0,1-2.758,3.434,12.23,12.23,0,0,1-3.569,1.686,14.227,14.227,0,0,1-3.864.515q-2.15,0-4.674-.094C124,32.555,123.951,32.483,123.951,32.337Zm1.5-19.761v18.7q1.12.095,3.334.094a9.959,9.959,0,0,0,7.138-2.451q2.584-2.45,2.585-7.258,0-4.464-2.446-6.8a9.18,9.18,0,0,0-6.622-2.342Q126.193,12.513,125.447,12.576Z"/></g></svg>