<svg id="Layer_1" data-name="Layer 1" xmlns="http://www.w3.org/2000/svg" xmlns:xlink="http://www.w3.org/1999/xlink" viewBox="0 0 140 50"><defs><style>.cls-1{fill:none;}.cls-2{clip-path:url(#clip-path);}.cls-3{fill:#1b2d45;}</style><clipPath id="clip-path"><rect class="cls-1" width="140" height="50"/></clipPath></defs><g class="cls-2"><path class="cls-3" d="M102.3,20.9c.311-.128.459-.4.67-.595a4.7,4.7,0,0,1,3.869-1.232,5.521,5.521,0,0,1,1.493.339,3.207,3.207,0,0,1,1.62,1.395c.183.314.249.316.5.028a4.676,4.676,0,0,1,2.411-1.626,5.762,5.762,0,0,1,4.3.54,3.621,3.621,0,0,1,1.688,2.392,7.906,7.906,0,0,1,.221,2c-.017,2.592-.007,5.185-.007,7.777,0,.139,0,.277,0,.416a.282.282,0,0,1-.321.329q-1.543,0-3.088,0c-.206,0-.273-.117-.271-.3,0-.158,0-.316,0-.475,0-2.335-.012-4.67,0-7a7.967,7.967,0,0,0-.214-1.642,1.711,1.711,0,0,0-1.418-1.255,3.154,3.154,0,0,0-1.683.153,2.371,2.371,0,0,0-1.28,2,10.5,10.5,0,0,0-.046,1.364q-.006,3.206,0,6.411c0,.139-.006.278,0,.416a.282.282,0,0,1-.314.336c-1.029,0-2.058,0-3.087,0-.2,0-.28-.108-.278-.3,0-.159,0-.317,0-.475,0-2.375-.011-4.75,0-7.124a7.477,7.477,0,0,0-.213-1.583,1.616,1.616,0,0,0-1.379-1.2,2.6,2.6,0,0,0-1.981.38,2.422,2.422,0,0,0-1.036,1.848c-.05.848-.035,1.7-.037,2.552,0,1.781,0,3.562,0,5.343,0,.551-.007.557-.571.56-.891,0-1.781,0-2.672,0-.418,0-.418-.013-.433-.435,0-.1,0-.2,0-.3V20.113c0-.1,0-.2,0-.3.017-.443.024-.458.485-.462q1.218-.01,2.435,0c.489,0,.512.05.538.555A1.9,1.9,0,0,0,102.3,20.9Z"/><path class="cls-3" d="M41.186,31.239a.829.829,0,0,0-.132.665c-.007,1.662,0,3.324-.005,4.986,0,.611,0,.613-.636.614-.871,0-1.742.007-2.612,0-.409-.005-.431-.039-.447-.443,0-.1,0-.2,0-.3V20.143c0-.119,0-.238,0-.357,0-.286.122-.438.427-.436q1.335.009,2.671,0c.3,0,.433.135.421.434-.009.237-.005.475,0,.712,0,.11-.033.257.124.292.117.026.159-.091.219-.164a4.138,4.138,0,0,1,1.525-1.171,5.177,5.177,0,0,1,2.189-.43,5.585,5.585,0,0,1,5.52,4.157,9.25,9.25,0,0,1-.054,6,5.359,5.359,0,0,1-3.985,3.675,4.993,4.993,0,0,1-5.071-1.464C41.3,31.345,41.259,31.308,41.186,31.239Zm-.259-5.186a6.15,6.15,0,0,0,.207,1.784,3.574,3.574,0,0,0,.823,1.548,2.975,2.975,0,0,0,4.912-1.025,6.275,6.275,0,0,0,.318-1.682,5.845,5.845,0,0,0-.465-3.183,2.928,2.928,0,0,0-5.278-.115A5.4,5.4,0,0,0,40.927,26.053Z"/><path class="cls-3" d="M17.559,14.294h6.712c.139,0,.278.009.416,0,.28-.021.395.109.394.382,0,.911-.007,1.822,0,2.733,0,.268-.138.338-.372.335-.4-.006-.792,0-1.188,0-1.149,0-2.3,0-3.446,0-.475,0-.51.033-.514.5-.009,1.108,0,2.217,0,3.326V31.789c0,.139,0,.278,0,.416-.017.409-.046.451-.442.455-1.069.008-2.138,0-3.207.005-.31,0-.432-.136-.418-.431.006-.138,0-.277,0-.416V18.81c0-.158,0-.317,0-.475-.011-.587-.012-.591-.609-.592-1.426,0-2.852,0-4.277,0-.626,0-.6.06-.6-.622,0-.733,0-1.465,0-2.2,0-.624,0-.627.607-.627Q14.084,14.292,17.559,14.294Z"/><path class="cls-3" d="M60.655,26.9H56.616c-.138,0-.277,0-.415,0-.246.009-.341.143-.343.383a2.88,2.88,0,0,0,2.331,2.877,3.412,3.412,0,0,0,3.193-.773,1.322,1.322,0,0,0,.387-.437c.15-.374.424-.409.764-.4.732.014,1.465,0,2.2.008.376,0,.446.094.325.413a5.564,5.564,0,0,1-2.881,3.358,7.484,7.484,0,0,1-4.624.551,6.793,6.793,0,0,1-3-1.3,6.148,6.148,0,0,1-1.981-2.948,7.718,7.718,0,0,1-.389-3.093,6.631,6.631,0,0,1,3.832-5.882,7.078,7.078,0,0,1,3.753-.576,5.725,5.725,0,0,1,3.868,1.926,6.934,6.934,0,0,1,1.667,3.6,8.623,8.623,0,0,1,.187,1.53c-.008.763,0,.764-.736.765Q62.705,26.9,60.655,26.9Zm-1.906-2.315q.978,0,1.955,0c.237,0,.474,0,.711,0,.145,0,.3-.048.269-.229a2.81,2.81,0,0,0-1.391-2.279,3.237,3.237,0,0,0-2.917.027,2.578,2.578,0,0,0-1.409,1.8c-.158.679-.175.687.531.689C57.248,24.588,58,24.586,58.749,24.586Z"/><path class="cls-3" d="M29.475,28.191q1.252-3.881,2.5-7.754c.084-.261.178-.52.253-.783a.385.385,0,0,1,.439-.3q1.514,0,3.028,0c.271,0,.362.107.267.368-.235.649-.459,1.3-.7,1.947-.576,1.552-1.161,3.1-1.739,4.651-.709,1.9-1.411,3.808-2.12,5.711-.337.9-.66,1.814-1.029,2.7a3.813,3.813,0,0,1-2.042,2.187,4.579,4.579,0,0,1-1.428.359,19.119,19.119,0,0,1-2.611-.014c-.518-.031-.571-.1-.574-.608,0-.693.01-1.386-.006-2.078-.006-.288.1-.4.381-.371.3.03.591.052.887.081a3.328,3.328,0,0,0,1.063-.028,1.445,1.445,0,0,0,1.177-1.3A3.074,3.074,0,0,0,27,31.507q-1.618-4.274-3.226-8.55c-.387-1.031-.759-2.068-1.135-3.1-.152-.419-.106-.5.33-.5.97-.007,1.94,0,2.91,0a.523.523,0,0,1,.6.418c.476,1.5.994,2.992,1.489,4.488.415,1.253.819,2.509,1.23,3.764C29.227,28.114,29.288,28.192,29.475,28.191Z"/><path class="cls-3" d="M73.81,26.257a7.349,7.349,0,0,1,1.283-4.6A6.19,6.19,0,0,1,79.56,19.1a8.388,8.388,0,0,1,3.118.166,6.019,6.019,0,0,1,4.462,4.063,8.255,8.255,0,0,1,.186,4.792,6.093,6.093,0,0,1-4.967,4.716,8.017,8.017,0,0,1-2.178.175,6.86,6.86,0,0,1-4.348-1.76,6.567,6.567,0,0,1-1.819-3.248A6.758,6.758,0,0,1,73.81,26.257Zm3.711-.232a9.924,9.924,0,0,0,0,1.006,3.866,3.866,0,0,0,.887,2.274,3.085,3.085,0,0,0,5.28-1.479,7.42,7.42,0,0,0,.013-3.518A3.062,3.062,0,0,0,78,23.381,4.928,4.928,0,0,0,77.521,26.025Z"/><path class="cls-3" d="M122.772,25.374V10.882c0-.119,0-.238,0-.356.01-.514.01-.519.539-.522q1.1-.007,2.2,0c.478.005.479.012.488.508,0,.1,0,.2,0,.3q0,14.582,0,29.163c0,.877.084.783-.8.788-.653,0-1.306.007-1.96,0-.449-.006-.45-.015-.463-.477,0-.138,0-.277,0-.416Z"/><path class="cls-3" d="M67.644,27.214q0-2.374,0-4.748c0-.619-.012-.627-.63-.634-.376,0-.752-.009-1.127,0-.26.007-.409-.06-.4-.362.015-.573.013-1.148,0-1.721-.007-.32.145-.41.437-.4.435.012.871,0,1.306,0,.292,0,.422-.112.419-.423a6.139,6.139,0,0,1,.131-1.707,3.586,3.586,0,0,1,2.789-2.741,7.428,7.428,0,0,1,3-.076c.451.076.458.075.463.5.006.593.007,1.187,0,1.78-.006.476-.018.483-.521.457a6.418,6.418,0,0,0-1.126-.012,1.047,1.047,0,0,0-1.049,1.009c-.177,1.142-.12,1.209,1.016,1.209.336,0,.673-.006,1.009,0,.413.011.449.04.456.434.011.554-.008,1.108.007,1.662.007.288-.116.388-.387.383-.435-.009-.871,0-1.306,0-.909,0-.821-.031-.821.85q0,4.629,0,9.258c0,.723.073.726-.7.724-.792,0-1.583,0-2.375,0-.589,0-.593-.005-.593-.58Q67.642,29.648,67.644,27.214Z"/><path class="cls-3" d="M92.4,21.516a2.27,2.27,0,0,0,.563-.66,4.716,4.716,0,0,1,3.621-1.835,1.525,1.525,0,0,1,.352.046c.474.085.482.086.485.552q.009,1.217,0,2.433c-.005.512-.016.527-.551.423a4.148,4.148,0,0,0-2.219.2,3.044,3.044,0,0,0-1.88,2.129,5.722,5.722,0,0,0-.2,1.7q0,2.671,0,5.341c0,.119,0,.237,0,.356-.014.439-.024.459-.485.463-.91.007-1.82,0-2.73,0-.059,0-.119,0-.178,0-.2.006-.287-.1-.285-.289,0-.119,0-.237,0-.356V20.028c0-.119,0-.238,0-.356,0-.221.111-.32.331-.319q1.395,0,2.79,0c.245,0,.36.113.356.363-.005.375,0,.751,0,1.127C92.37,21.033,92.385,21.224,92.4,21.516Z"/></g></svg>