<svg id="Layer_1" data-name="Layer 1" xmlns="http://www.w3.org/2000/svg" xmlns:xlink="http://www.w3.org/1999/xlink" viewBox="0 0 226.588 50"><defs><style>.cls-1{fill:none;}.cls-2{clip-path:url(#clip-path);}.cls-3{fill:#1b2d45;}</style><clipPath id="clip-path"><rect class="cls-1" width="226.588" height="50"/></clipPath></defs><g class="cls-2"><path class="cls-3" d="M31.675,20.944q0-5.317,0-10.636c0-.285.007-.255.25-.255,5.857.153,12.224-.3,17.836.154-.787,1.161-1.8,2.177-2.668,3.287-2.366,2.928-4.836,5.771-7.182,8.712-1.271,1.448-2.436,2.992-3.737,4.414-.82,1.04-1.627,2.1-2.518,3.088a21.39,21.39,0,0,1-1.825,2.118c-.14.064-.169-.1-.155-.208V20.944Z"/><path class="cls-3" d="M10.607,39.987c-.069-.252.25-.436.362-.639.372-.393.7-.8,1.037-1.231,1.087-1.207,2.074-2.468,3.1-3.727,1.043-1.286,2.116-2.534,3.178-3.8.637-.694,1.127-1.5,1.829-2.144,1.523-2.011,3.2-3.9,4.8-5.855,1.208-1.458,2.417-2.921,3.632-4.374.386,6.947.02,14.592.126,21.767C22.648,40.013,16.626,40,10.607,39.987Z"/><path class="cls-3" d="M19.561,10.052h8.925c.4-.089.113.859.075,1.066a6.786,6.786,0,0,1-.107.964,10.568,10.568,0,0,1-1.6,3.42,10.208,10.208,0,0,1-3.176,2.692c-.123-.016-.185.086-.278.138a9.479,9.479,0,0,0-1.041.407c-.357.036-.682.2-1.043.239a.875.875,0,0,1-.393.092A14.013,14.013,0,0,1,17,18.821a7.311,7.311,0,0,1-1.525-.616,5.962,5.962,0,0,1-1.948-1.353A9.92,9.92,0,0,1,11.3,14.059a8.458,8.458,0,0,1-.876-3.91c2.9-.28,6.131,0,9.138-.1Z"/><path class="cls-3" d="M40.875,39.995h-8.86c-.2,0-.213-.006-.21-.209a8.342,8.342,0,0,1,1.552-4.972,9.689,9.689,0,0,1,4.788-3.455,9.521,9.521,0,0,1,3.779-.38,10.951,10.951,0,0,1,2.563.715c.031,0,.059.047.091.067.1.08.23.057.315.151.019.018.038.047.058.048.177.009.286.162.45.207a9.33,9.33,0,0,1,3.36,3.366,3.773,3.773,0,0,1,.449.858c.023.1.02.2.108.28a10.311,10.311,0,0,1,.6,2.167c0,.326.006.652.008.978,0,.177,0,.179-.181.179Q45.311,40,40.875,39.995Z"/><path class="cls-3" d="M164.171,35.911a7.758,7.758,0,0,0,5.593-2.182l2.759,2.985a10.891,10.891,0,0,1-8.3,3.286c-6.773,0-11.137-4.49-11.137-10.561a10.347,10.347,0,0,1,10.51-10.56c6.722,0,10.509,5.117,10.183,12.191H157.925c.552,2.96,2.634,4.841,6.245,4.841m4.816-8.2c-.426-2.734-2.056-4.766-5.342-4.766a5.43,5.43,0,0,0-5.719,4.766ZM60,35.685,72.216,23.269H60.276V19.381H77.859v3.988L65.669,35.76H78.035v3.888H60Zm31.73.226a7.759,7.759,0,0,0,5.594-2.182l2.759,2.985A10.894,10.894,0,0,1,91.78,40c-6.747,0-11.137-4.49-11.137-10.561a10.348,10.348,0,0,1,10.51-10.56c6.723,0,10.51,5.117,10.184,12.191H85.485c.576,2.96,2.633,4.841,6.245,4.841m4.841-8.2c-.426-2.734-2.057-4.766-5.342-4.766a5.429,5.429,0,0,0-5.719,4.766Zm31.154,1.756A10.116,10.116,0,0,1,137.908,18.93a8.786,8.786,0,0,1,6.748,3.035V10h4.314V39.6h-4.314V36.789a8.712,8.712,0,0,1-6.8,3.211,10.211,10.211,0,0,1-10.133-10.535m17.182-.051a6.423,6.423,0,1,0-12.843,0,6.424,6.424,0,1,0,12.843,0m31.68,5.87,3.913-2.032a5.809,5.809,0,0,0,5.217,2.96c2.433,0,3.712-1.254,3.712-2.684,0-1.63-2.358-1.982-4.916-2.508-3.462-.728-7.048-1.856-7.048-6.045,0-3.211,3.06-6.171,7.851-6.121,3.787,0,6.6,1.505,8.177,3.938L189.856,24.8a5.239,5.239,0,0,0-4.565-2.308c-2.333,0-3.512,1.129-3.512,2.434,0,1.454,1.881,1.856,4.816,2.508,3.336.727,7.124,1.831,7.124,6.045,0,2.809-2.434,6.572-8.228,6.522-4.214,0-7.2-1.706-8.9-4.716m28.845-4.691-3.411,3.738V39.6h-4.314V10h4.314V29.364l9.155-10.033h5.243l-7.926,8.679L216.645,39.6h-4.892ZM114.681,18.905c-5.142,0-9.431,3.336-9.431,8.829V39.6h4.415V28.311c0-3.336,1.906-5.318,5.167-5.318s4.891,1.982,4.891,5.318V39.6h4.39V27.759c0-5.518-4.29-8.854-9.432-8.854"/></g></svg>