<svg id="Layer_1" data-name="Layer 1" xmlns="http://www.w3.org/2000/svg" xmlns:xlink="http://www.w3.org/1999/xlink" viewBox="0 0 90 50"><defs><style>.cls-1{fill:#fff;}.cls-1,.cls-5{fill-rule:evenodd;}.cls-2{fill:none;}.cls-3{clip-path:url(#clip-path);}.cls-4{mask:url(#mask);}.cls-5{fill:#1b2d45;}</style><clipPath id="clip-path"><rect class="cls-2" width="90" height="50"/></clipPath><mask id="mask" x="10" y="10" width="69" height="28.617" maskUnits="userSpaceOnUse"><g id="b"><path id="a" class="cls-1" d="M10.009,10H79V38.617H10.009Z"/></g></mask></defs><g class="cls-3"><g class="cls-4"><path class="cls-5" d="M17.21,22.873c-1.486-.55-2.3-.978-2.3-1.65,0-.57.468-.9,1.3-.9a10.015,10.015,0,0,1,4.176,1.12L21,17.679a11.733,11.733,0,0,0-5.031-1.08,6.441,6.441,0,0,0-4.155,1.284A4.563,4.563,0,0,0,10.2,21.549c0,2.77,1.69,3.951,4.44,4.949,1.772.632,2.363,1.08,2.363,1.772,0,.672-.571,1.059-1.609,1.059a11.213,11.213,0,0,1-4.787-1.446L10,31.692a12.415,12.415,0,0,0,5.662,1.365A6.913,6.913,0,0,0,20,31.814a4.73,4.73,0,0,0,1.731-3.931c0-2.831-1.731-4.012-4.522-5.01Zm14.47-2.22.611-3.748H29.065v-4.55l-4.338.714L24.1,16.905l-1.525.247-.571,3.5H24.1v7.353c0,1.914.489,3.238,1.487,4.053a5.779,5.779,0,0,0,3.727,1,9.362,9.362,0,0,0,2.648-.367V28.718a6.928,6.928,0,0,1-1.467.224c-1,0-1.425-.509-1.425-1.67V20.653Zm9.687-3.967a3.011,3.011,0,0,0-3.014,2.093l-.306-1.874h-4.42V32.751h5.051V22.465a3.257,3.257,0,0,1,2.75-1.054,4.766,4.766,0,0,1,.9.062V16.808A4.129,4.129,0,0,0,41.367,16.686Zm4.726-1.35a2.668,2.668,0,1,0-2.669-2.668,2.659,2.659,0,0,0,2.669,2.668Zm-2.546,1.569h5.071V32.751H43.547Zm19.444,1.426A4.439,4.439,0,0,0,59.263,16.6a5.256,5.256,0,0,0-3.951,1.895l-.265-1.589h-4.44V38.617l5.051-.835V32.69a7.7,7.7,0,0,0,2.281.367,6.027,6.027,0,0,0,4.522-1.874c1.365-1.487,2.057-3.788,2.057-6.823,0-2.689-.509-4.726-1.527-6.029Zm-4.2,9.776a1.985,1.985,0,0,1-1.772,1.182,2.983,2.983,0,0,1-1.365-.306V21.447a2.748,2.748,0,0,1,1.915-1c1.283,0,1.914,1.385,1.914,4.094a7.323,7.323,0,0,1-.692,3.564ZM79,24.685a9.581,9.581,0,0,0-1.63-5.927A5.8,5.8,0,0,0,72.523,16.6c-4.3,0-6.966,3.178-6.966,8.27,0,2.851.713,4.99,2.118,6.355a7.49,7.49,0,0,0,5.418,1.833,10.236,10.236,0,0,0,5.418-1.344l-.55-3.463a8.963,8.963,0,0,1-4.318,1.039,3.085,3.085,0,0,1-2.139-.632,3.178,3.178,0,0,1-.936-2.22h8.371c.02-.244.061-1.385.061-1.752Zm-8.473-1.344c.142-2.261.753-3.32,1.914-3.32,1.141,0,1.732,1.08,1.813,3.32Z"/></g></g></svg>