<svg id="Layer_1" data-name="Layer 1" xmlns="http://www.w3.org/2000/svg" xmlns:xlink="http://www.w3.org/1999/xlink" viewBox="0 0 135.294 50"><defs><style>.cls-1{fill:none;}.cls-2{clip-path:url(#clip-path);}.cls-3,.cls-4{fill:#1b2d45;}.cls-3{fill-rule:evenodd;}</style><clipPath id="clip-path"><rect class="cls-1" width="135" height="50"/></clipPath></defs><g class="cls-2"><path id="a" class="cls-3" d="M48.818,27.017l-.023-.3H46.273l.014.337c.155,3.756,2.706,6.245,7.242,6.245,4.326,0,7.268-2.232,7.268-5.61a4.589,4.589,0,0,0-1.854-4,9.866,9.866,0,0,0-3.909-1.461l-.408-.087-.4-.084c-3.37-.7-4.438-1.311-4.438-3.124,0-1.876,1.544-3.071,4.136-3.071A3.854,3.854,0,0,1,58.109,19.8l.009.315h2.5l-.008-.332C60.527,16.027,57.992,13.5,53.9,13.5c-4.017,0-6.669,2.4-6.669,5.506a4.432,4.432,0,0,0,1.856,3.937,9.845,9.845,0,0,0,3.9,1.369l.581.115a10.338,10.338,0,0,1,3.309.987,2.52,2.52,0,0,1,1.341,2.4c0,1.989-1.683,3.122-4.632,3.122-2.822,0-4.574-1.4-4.763-3.924Zm17.249-13.81v-.324H63.579V32.99h2.488V29.2l2.62-2.553,4.677,6.217.1.129h3.095l-.395-.52-5.713-7.531,5.269-5.248.556-.555H72.892l-.095.1-6.73,6.784ZM89.492,26.89H89.8l.019-.306c.01-.165.018-.33.023-.5,0-.084,0-.161,0-.229,0-4.088-2.718-7.1-6.733-7.1s-6.864,3.206-6.864,7.257c0,4.167,2.726,7.282,6.89,7.282A6.538,6.538,0,0,0,89.6,28.614l.131-.422H87.117l-.077.217a3.978,3.978,0,0,1-3.876,2.571,4.313,4.313,0,0,1-4.373-4.09ZM78.72,24.947a4.224,4.224,0,0,1,4.2-3.712,4.025,4.025,0,0,1,4.14,3.712Zm19.145-3.634h.323v-2.2H95.156V15.358H92.668v3.754H90.154v2.2h2.514v7.754c0,2.544,1.321,3.923,3.745,3.923a7.943,7.943,0,0,0,1.094-.068,3.365,3.365,0,0,0,.392-.074l.238-.065v-2.3l-.394.085c-.115.023-.231.044-.347.061a5.535,5.535,0,0,1-.749.061c-1.063,0-1.491-.5-1.491-1.747V21.313ZM105.582,33.3a6.318,6.318,0,0,0,6.436-5.291l.076-.389H109.6l-.063.242a3.867,3.867,0,0,1-3.959,3.118c-2.533,0-4.281-2.024-4.281-4.936,0-2.935,1.745-4.963,4.281-4.963a3.867,3.867,0,0,1,3.959,3.118l.063.243h2.49l-.076-.389a6.318,6.318,0,0,0-6.436-5.292c-3.969,0-6.776,3.229-6.776,7.283C98.806,30.074,101.617,33.3,105.582,33.3ZM116.74,13.207v-.324h-2.483V32.99h2.483V24.856a3.439,3.439,0,0,1,3.634-3.775c2.092,0,3.143,1.215,3.143,3.516V32.99H126V24.233c0-3.25-2.006-5.409-5.315-5.409a5.434,5.434,0,0,0-3.945,1.523v-7.14Z"/><g id="b"><polygon class="cls-3" points="32.012 19.474 23.872 35.201 15.733 19.474 32.012 19.474"/><polygon class="cls-3" points="37.879 19.474 25.97 33.217 33.095 19.474 37.879 19.474"/><polygon class="cls-3" points="22.083 33.225 10.17 19.474 14.954 19.474 22.083 33.225"/><polygon class="cls-3" points="23.872 10.081 31.756 18.662 15.989 18.662 23.872 10.081"/><polygon class="cls-3" points="32.21 17.948 25.037 10 31.833 10.73 32.21 17.948"/><polygon class="cls-3" points="32.843 11.72 38.045 18.662 33.217 18.662 32.843 11.72"/><polygon class="cls-3" points="15.202 11.72 14.828 18.662 10 18.662 15.202 11.72"/><polygon class="cls-3" points="15.908 10.73 22.704 10 22.675 10.032 15.53 17.948 15.908 10.738 15.908 10.73"/><path class="cls-4" d="M15.908,10.73v.008l6.767-.706L22.7,10Z"/></g><g id="c"><polygon class="cls-3" points="22.083 33.225 10.17 19.474 14.954 19.474 22.083 33.225"/></g><g id="d"><polygon class="cls-3" points="37.879 19.474 25.97 33.217 33.095 19.474 37.879 19.474"/></g><g id="e"><polygon class="cls-3" points="32.012 19.474 23.872 35.201 15.733 19.474 32.012 19.474"/></g><g id="f"><polygon class="cls-3" points="22.704 10 22.675 10.032 15.53 17.948 15.908 10.738 15.908 10.73 22.704 10"/></g><g id="g"><polygon class="cls-3" points="32.21 17.948 25.037 10 31.833 10.73 32.21 17.948"/></g><g id="h"><polygon class="cls-3" points="32.843 11.72 38.045 18.662 33.217 18.662 32.843 11.72"/></g><g id="i"><polygon class="cls-3" points="15.202 11.72 14.828 18.662 10 18.662 15.202 11.72"/></g><g id="j"><polygon class="cls-3" points="31.756 18.662 15.989 18.662 23.872 10.081 31.756 18.662"/></g></g></svg>