<svg id="Layer_1" data-name="Layer 1" xmlns="http://www.w3.org/2000/svg" xmlns:xlink="http://www.w3.org/1999/xlink" viewBox="0 0 230 50"><defs><style>.cls-1{fill:none;}.cls-2{clip-path:url(#clip-path);}.cls-3{fill:#1b2d45;}</style><clipPath id="clip-path"><rect class="cls-1" width="230" height="50"/></clipPath></defs><g class="cls-2"><path class="cls-3" d="M21.2,20.55h9.932a8.2,8.2,0,0,1,.141.9,9.887,9.887,0,0,1,.057,1.059,13.469,13.469,0,0,1-.594,4.045,9.582,9.582,0,0,1-1.868,3.392,9.4,9.4,0,0,1-3.254,2.459,10.273,10.273,0,0,1-4.33.871,10.1,10.1,0,0,1-4.159-.871,10.307,10.307,0,0,1-3.4-2.428,11.745,11.745,0,0,1-2.292-3.688,12.454,12.454,0,0,1-.849-4.652,12.461,12.461,0,0,1,.849-4.652A11.756,11.756,0,0,1,13.729,13.3a10.336,10.336,0,0,1,3.4-2.428A10.1,10.1,0,0,1,21.284,10a10.025,10.025,0,0,1,4.4.934,9.919,9.919,0,0,1,3.325,2.583l-2.632,2.832a7.089,7.089,0,0,0-2.207-1.759,6.975,6.975,0,0,0-5.546-.062,6.548,6.548,0,0,0-2.179,1.541A7.408,7.408,0,0,0,14.96,18.48a8.634,8.634,0,0,0-.552,3.159A8.625,8.625,0,0,0,14.96,24.8a7.288,7.288,0,0,0,1.5,2.413,6.714,6.714,0,0,0,2.193,1.54,6.562,6.562,0,0,0,2.66.544,6.529,6.529,0,0,0,2.731-.513,6.376,6.376,0,0,0,1.91-1.322,5.056,5.056,0,0,0,.976-1.416,8.653,8.653,0,0,0,.637-1.914H21.2Z"/><path class="cls-3" d="M40.47,17.033a7.1,7.1,0,0,1,2.958.607,7.012,7.012,0,0,1,2.32,1.68,7.782,7.782,0,0,1,1.528,2.568,9.947,9.947,0,0,1,0,6.535,7.772,7.772,0,0,1-1.528,2.568,7,7,0,0,1-2.32,1.68,7.506,7.506,0,0,1-5.914,0,6.981,6.981,0,0,1-2.321-1.68,7.772,7.772,0,0,1-1.528-2.568,9.964,9.964,0,0,1,0-6.535,7.782,7.782,0,0,1,1.528-2.568,7,7,0,0,1,2.321-1.68A7.089,7.089,0,0,1,40.47,17.033Zm0,12.479a3.346,3.346,0,0,0,1.373-.3,3.482,3.482,0,0,0,1.174-.856,4.108,4.108,0,0,0,.807-1.369,5.823,5.823,0,0,0,0-3.672,4.1,4.1,0,0,0-.807-1.37,3.493,3.493,0,0,0-1.174-.855,3.362,3.362,0,0,0-2.759,0,3.532,3.532,0,0,0-1.16.855,4.1,4.1,0,0,0-.806,1.37,5.8,5.8,0,0,0,0,3.672,4.106,4.106,0,0,0,.806,1.369,3.521,3.521,0,0,0,1.16.856A3.314,3.314,0,0,0,40.47,29.512Z"/><path class="cls-3" d="M56.769,17.033a7.1,7.1,0,0,1,2.958.607,7.012,7.012,0,0,1,2.32,1.68,7.782,7.782,0,0,1,1.528,2.568,9.947,9.947,0,0,1,0,6.535,7.772,7.772,0,0,1-1.528,2.568,7,7,0,0,1-2.32,1.68,7.506,7.506,0,0,1-5.914,0,6.981,6.981,0,0,1-2.321-1.68,7.772,7.772,0,0,1-1.528-2.568,9.947,9.947,0,0,1,0-6.535,7.782,7.782,0,0,1,1.528-2.568,7,7,0,0,1,2.321-1.68A7.089,7.089,0,0,1,56.769,17.033Zm0,12.479a3.346,3.346,0,0,0,1.373-.3,3.482,3.482,0,0,0,1.174-.856,4.108,4.108,0,0,0,.807-1.369,5.823,5.823,0,0,0,0-3.672,4.1,4.1,0,0,0-.807-1.37,3.493,3.493,0,0,0-1.174-.855,3.362,3.362,0,0,0-2.759,0,3.532,3.532,0,0,0-1.16.855,4.1,4.1,0,0,0-.807,1.37,5.823,5.823,0,0,0,0,3.672,4.108,4.108,0,0,0,.807,1.369,3.521,3.521,0,0,0,1.16.856A3.314,3.314,0,0,0,56.769,29.512Z"/><path class="cls-3" d="M72.9,40a7.584,7.584,0,0,1-2.618-.42,7.2,7.2,0,0,1-2-1.09,6.979,6.979,0,0,1-1.414-1.478,5.942,5.942,0,0,1-.821-1.618l3.537-1.556a3.681,3.681,0,0,0,1.3,1.883,3.3,3.3,0,0,0,2.009.669,3.387,3.387,0,0,0,2.773-1.252,5.314,5.314,0,0,0,1.019-3.447V30.633h-.227A4.661,4.661,0,0,1,74.752,32.2a5.171,5.171,0,0,1-2.5.576,5.615,5.615,0,0,1-2.42-.554,6.366,6.366,0,0,1-2.079-1.587,8.318,8.318,0,0,1-1.472-2.481,8.837,8.837,0,0,1-.566-3.236,8.957,8.957,0,0,1,.566-3.251,8.263,8.263,0,0,1,1.472-2.5,6.366,6.366,0,0,1,2.079-1.587,5.6,5.6,0,0,1,2.42-.555,5.171,5.171,0,0,1,2.5.576,4.678,4.678,0,0,1,1.712,1.571h.227V17.531h3.537v14.16a10.5,10.5,0,0,1-.538,3.47,7.648,7.648,0,0,1-1.5,2.614,6.494,6.494,0,0,1-2.306,1.649A7.506,7.506,0,0,1,72.9,40Zm.141-10.892a3.475,3.475,0,0,0,1.344-.275,3.414,3.414,0,0,0,1.175-.809,4.077,4.077,0,0,0,.82-1.314,4.786,4.786,0,0,0,.312-1.788,4.9,4.9,0,0,0-.312-1.8,4.033,4.033,0,0,0-.82-1.329,3.414,3.414,0,0,0-1.175-.809,3.477,3.477,0,0,0-1.344-.276,3.391,3.391,0,0,0-2.49,1.1,4.268,4.268,0,0,0-.82,1.33,5.276,5.276,0,0,0,0,3.575,4.077,4.077,0,0,0,.82,1.314,3.443,3.443,0,0,0,1.16.809A3.375,3.375,0,0,0,73.04,29.108Z"/><path class="cls-3" d="M83.4,32.78V10.5H87.1V32.78Z"/><path class="cls-3" d="M103.261,29.108a8.269,8.269,0,0,1-2.589,3.018A6.707,6.707,0,0,1,96.7,33.278a6.981,6.981,0,0,1-5.263-2.3,7.826,7.826,0,0,1-1.542-2.567,9.234,9.234,0,0,1-.552-3.252,9.087,9.087,0,0,1,.537-3.128,8.1,8.1,0,0,1,1.5-2.583,7.288,7.288,0,0,1,2.278-1.758,6.424,6.424,0,0,1,2.9-.654,6.953,6.953,0,0,1,2.972.607,6.119,6.119,0,0,1,2.179,1.68,7.466,7.466,0,0,1,1.33,2.537,10.717,10.717,0,0,1,.452,3.174V25.4a2.289,2.289,0,0,0-.028.343,1.909,1.909,0,0,0-.028.342H92.989a4.577,4.577,0,0,0,.467,1.6,3.784,3.784,0,0,0,.877,1.12,3.313,3.313,0,0,0,1.146.654,4.088,4.088,0,0,0,1.273.2,3.377,3.377,0,0,0,2.109-.638,4.532,4.532,0,0,0,1.316-1.6ZM99.894,23.2a2.837,2.837,0,0,0-.241-.9,3.188,3.188,0,0,0-.622-.934,3.251,3.251,0,0,0-1.019-.716,3.464,3.464,0,0,0-1.458-.28,3.191,3.191,0,0,0-2.093.747A3.977,3.977,0,0,0,93.187,23.2Z"/><path class="cls-3" d="M113.73,32.78h-2.886L118.485,10.5h2.943l7.639,22.282h-2.885l-1.953-6.038h-8.518ZM119.9,14.014l-3.31,10.052h6.734l-3.31-10.052Z"/><path class="cls-3" d="M130.991,17.531h2.491v2.116h.114a5.235,5.235,0,0,1,8.305-1.011,6.813,6.813,0,0,1,1.372,4.559V32.78h-2.6v-9.4q-.084-3.735-3.423-3.735a3.154,3.154,0,0,0-2.6,1.385,5.336,5.336,0,0,0-1.046,3.314V32.78h-2.6Z"/><path class="cls-3" d="M151.451,17.033a6.1,6.1,0,0,1,4.556,1.7,6.346,6.346,0,0,1,1.669,4.653v9.4h-2.49V30.664h-.113a4.878,4.878,0,0,1-4.3,2.614,5.3,5.3,0,0,1-3.835-1.494A4.983,4.983,0,0,1,145.4,28.05a4.715,4.715,0,0,1,1.627-3.766,6.428,6.428,0,0,1,4.344-1.4,7.122,7.122,0,0,1,3.819.933v-.653a3.4,3.4,0,0,0-1.075-2.536,3.5,3.5,0,0,0-2.518-1.043,3.907,3.907,0,0,0-3.453,2.023l-2.291-1.587A6.21,6.21,0,0,1,151.451,17.033Zm-3.367,11.079a2.365,2.365,0,0,0,.863,1.867,2.992,2.992,0,0,0,2.023.747,3.965,3.965,0,0,0,2.928-1.338,4.384,4.384,0,0,0,1.288-3.143,5.01,5.01,0,0,0-3.4-1.058,4.134,4.134,0,0,0-2.646.84A2.566,2.566,0,0,0,148.084,28.112Z"/><path class="cls-3" d="M163.223,10.5V32.78h-2.6V10.5Z"/><path class="cls-3" d="M178.786,17.531,170.1,39.5H167.41l3.226-7.687L164.92,17.531h2.829l4.132,10.954h.056l4.019-10.954Z"/><path class="cls-3" d="M185.973,33.029a3.762,3.762,0,0,1-2.816-1.151,4.507,4.507,0,0,1-1.145-3.206V20.145h-2.434V17.531h2.434V12.863h2.6v4.668h3.4v2.614h-3.4v7.594a2.977,2.977,0,0,0,.539,2.069,1.669,1.669,0,0,0,1.216.545,2.385,2.385,0,0,0,.608-.078,2.99,2.99,0,0,0,.553-.2l.82,2.552A6.435,6.435,0,0,1,185.973,33.029Z"/><path class="cls-3" d="M194.009,12.272a2.051,2.051,0,0,1-.538,1.431,1.727,1.727,0,0,1-2.6,0,2.173,2.173,0,0,1,0-2.863,1.729,1.729,0,0,1,2.6,0A2.057,2.057,0,0,1,194.009,12.272Zm-.538,5.259V32.78h-2.6V17.531Z"/><path class="cls-3" d="M203.064,33.278a6.548,6.548,0,0,1-5.122-2.3,8.674,8.674,0,0,1-2.009-5.819,8.532,8.532,0,0,1,2.009-5.82,6.551,6.551,0,0,1,5.122-2.3,6.083,6.083,0,0,1,3.707,1.167,7.032,7.032,0,0,1,2.377,3.221l-2.377,1.09a3.933,3.933,0,0,0-3.877-2.864,3.886,3.886,0,0,0-3.085,1.588,6.063,6.063,0,0,0-1.272,3.921,6.064,6.064,0,0,0,1.272,3.921,3.888,3.888,0,0,0,3.085,1.587,4.082,4.082,0,0,0,4.018-2.863l2.321,1.089a6.74,6.74,0,0,1-2.392,3.221A6.311,6.311,0,0,1,203.064,33.278Z"/><path class="cls-3" d="M222.108,28.548a4.277,4.277,0,0,1-1.585,3.361,6.375,6.375,0,0,1-7.668.171,6.541,6.541,0,0,1-2.264-3.159l2.321-1.089a4.7,4.7,0,0,0,1.485,2.132,3.4,3.4,0,0,0,2.136.762,3.511,3.511,0,0,0,2.08-.591,1.7,1.7,0,0,0,.835-1.4q0-1.462-2.038-2.148l-2.377-.653q-4.047-1.12-4.046-4.3a4.1,4.1,0,0,1,1.542-3.345A6.524,6.524,0,0,1,219.8,18a5.108,5.108,0,0,1,2.08,2.583l-2.319,1.058a3.118,3.118,0,0,0-1.288-1.509,3.756,3.756,0,0,0-2-.545,3.129,3.129,0,0,0-1.825.56,1.637,1.637,0,0,0-.806,1.369q0,1.308,2.235,1.868l2.095.591Q222.106,25.094,222.108,28.548Z"/></g></svg>