<svg id="Layer_1" data-name="Layer 1" xmlns="http://www.w3.org/2000/svg" xmlns:xlink="http://www.w3.org/1999/xlink" viewBox="0 0 120 50"><defs><style>.cls-1{fill:none;}.cls-2{clip-path:url(#clip-path);}.cls-3{fill:#1b2d45;}</style><clipPath id="clip-path"><rect class="cls-1" width="120" height="50"/></clipPath></defs><g class="cls-2"><path class="cls-3" d="M21.222,29.236c-.012,1.065-.009,2.13,0,3.195,0,.16-.03.221-.21.22q-5.4-.009-10.8,0c-.209,0-.208-.092-.208-.246q0-4.3,0-8.608c0-2.861,0-5.721-.007-8.582,0-.238.069-.278.286-.276q1.754.017,3.505,0c.217,0,.283.039.283.274-.009,4.484,0,8.968-.014,13.453,0,.263.067.317.32.315,2.191-.011,4.382,0,6.573-.011C21.163,28.97,21.225,29.017,21.222,29.236Z"/><path class="cls-3" d="M26.894,32.362c0,.246-.074.29-.3.287q-1.764-.015-3.53,0c-.191,0-.238-.042-.238-.236q.01-5.862,0-11.724c0-.192.044-.24.237-.238q1.779.015,3.556,0c.208,0,.274.042.273.263-.009,1.95,0,3.9,0,5.849C26.888,28.5,26.883,30.429,26.894,32.362Z"/><path class="cls-3" d="M27.119,16.373a2.013,2.013,0,0,1-1.46,2.293,2.476,2.476,0,0,1-2.172-.272,2.084,2.084,0,0,1,.727-3.744,2.96,2.96,0,0,1,.715-.074A2.08,2.08,0,0,1,27.119,16.373Z"/><path class="cls-3" d="M41.122,25.1c.022,2.456.012,4.912.02,7.369,0,.155-.056.178-.192.177-1.22,0-2.44-.007-3.659,0-.185,0-.2-.069-.2-.221q.006-3.067,0-6.133a5.658,5.658,0,0,0-.158-1.454,2.012,2.012,0,0,0-3.416-.856,2.314,2.314,0,0,0-.69,1.638c0,2.25,0,4.5,0,6.751,0,.233-.062.278-.282.276-1.177-.011-2.354-.009-3.53,0-.186,0-.261-.026-.26-.243.009-3.917.068-7.833,0-11.75,0-.157.035-.2.2-.2q1.83.009,3.659,0c.176,0,.214.055.21.218-.009.472,0,.944,0,1.5A4.715,4.715,0,0,1,34,20.894a4.235,4.235,0,0,1,2.783-.719A4.158,4.158,0,0,1,40.6,22.729,5.866,5.866,0,0,1,41.122,25.1Z"/><path class="cls-3" d="M55.846,32.378c.053.075.1.152.158.232-.081.06-.16.033-.231.033-1.5,0-2.99,0-4.485.006a.379.379,0,0,1-.377-.222c-.953-1.586-1.916-3.167-2.876-4.748-.049-.08-.1-.157-.163-.255-.327.409-.638.8-.954,1.2a.407.407,0,0,0-.059.292c0,1.16,0,2.32,0,3.48,0,.185-.024.262-.242.26q-1.791-.02-3.582,0c-.2,0-.233-.062-.233-.244q.008-8.608,0-17.216c0-.21.062-.251.257-.249,1.185.008,2.371.01,3.556,0,.213,0,.245.067.245.257-.005,3.265,0,6.529,0,9.846.629-.9,1.227-1.751,1.83-2.6.555-.784,1.118-1.563,1.677-2.344a.321.321,0,0,1,.285-.176c1.538.006,3.075,0,4.613,0a.375.375,0,0,1,.08.025c-.091.1-.172.2-.255.288-1.412,1.559-2.821,3.121-4.242,4.673-.133.145-.109.224-.013.36Q53.344,28.822,55.846,32.378Z"/><path class="cls-3" d="M66.7,23.675a5.2,5.2,0,0,0-3.107-3.632A6.706,6.706,0,0,0,60.1,19.7a5.892,5.892,0,0,0-4.282,2.64,7.4,7.4,0,0,0-1.1,5.413,5.605,5.605,0,0,0,2.41,3.967,7.332,7.332,0,0,0,3.859,1.176,14.151,14.151,0,0,0,2.979-.161,10.219,10.219,0,0,0,2.158-.563c.079-.032.182-.037.151-.184q-.254-1.208-.489-2.418c-.028-.145-.083-.128-.189-.093a10.973,10.973,0,0,1-3.784.486,4.687,4.687,0,0,1-1.819-.412,2.42,2.42,0,0,1-1.48-1.725c-.042-.192-.044-.3.227-.294,1.314.018,2.629.008,3.943.008v.021q1.985,0,3.968,0c.115,0,.231.034.257-.157A8.92,8.92,0,0,0,66.7,23.675Zm-4.052,1.137h-1.8c-.73,0-1.459,0-2.189,0-.165,0-.218-.022-.181-.21a3.024,3.024,0,0,1,1.014-1.853,2.259,2.259,0,0,1,3.7,1.425C63.3,24.812,63.3,24.812,62.649,24.812Z"/><path class="cls-3" d="M81.176,32.419c-.066-.968-.1-1.939-.1-2.909q0-7.152,0-14.3c0-.212-.046-.27-.263-.268q-1.778.018-3.557,0c-.207,0-.251.059-.25.257.008,1.675,0,3.35,0,5.025v.82a3.743,3.743,0,0,0-1.234-.939,5.588,5.588,0,0,0-7.112,2.351,7.913,7.913,0,0,0-.641,6.325A5.393,5.393,0,0,0,73.885,32.9a4.4,4.4,0,0,0,3.385-1.982c.03-.046.046-.117.147-.095.049.532.107,1.068.142,1.605.012.174.055.225.235.223q1.586-.014,3.17,0C81.152,32.651,81.188,32.6,81.176,32.419ZM77.018,26.18a8.55,8.55,0,0,1-.09,1.744A2.369,2.369,0,0,1,75,29.752a2.537,2.537,0,0,1-2.642-1.191,4.609,4.609,0,0,1-.527-2.881,3.94,3.94,0,0,1,.627-1.879,2.536,2.536,0,0,1,2.7-1.056,2.4,2.4,0,0,1,1.828,1.97A10.842,10.842,0,0,1,77.018,26.18Z"/><path class="cls-3" d="M112,14.184c0-.73.006-1.46,0-2.19a1.915,1.915,0,0,0-1.678-1.938,13.149,13.149,0,0,0-1.955-.038c-7.018,0-14.036,0-21.054-.009a2.077,2.077,0,0,0-2.169,2.17c.025,7.585.013,15.17.013,22.755a1.953,1.953,0,0,0,2.084,2.1q11.338,0,22.677,0a2.254,2.254,0,0,0,.512-.039A1.956,1.956,0,0,0,112,34.98q0-5.719,0-11.441ZM93.3,32.43c0,.174-.054.212-.217.211-1.211-.006-2.423-.008-3.633,0-.195,0-.219-.069-.219-.237.006-1.958,0-3.917,0-5.876s0-3.9-.005-5.849c0-.206.057-.256.258-.254q1.79.015,3.582,0c.177,0,.231.043.231.227Q93.287,26.542,93.3,32.43ZM91.589,18.755A2.213,2.213,0,0,1,89.1,17.34a2.124,2.124,0,0,1-.1-.684,2.041,2.041,0,0,1,2.019-2.082,2.125,2.125,0,0,1,2.531,2.164A2.071,2.071,0,0,1,91.589,18.755ZM107.64,32.643q-1.739-.018-3.478,0c-.24,0-.314-.043-.312-.3.012-2.035.006-4.071.007-6.106a5.605,5.605,0,0,0-.152-1.378,2.012,2.012,0,0,0-3.4-.912,2.417,2.417,0,0,0-.719,1.759c.006,2.216,0,4.432.008,6.648,0,.238-.065.291-.295.289q-1.739-.018-3.478,0c-.232,0-.3-.053-.3-.292q.025-5.334.03-10.668c0-.343-.007-.687-.023-1.03-.008-.159.023-.227.2-.226q1.83.012,3.66,0c.168,0,.2.06.194.209-.008.48,0,.961,0,1.523a4.789,4.789,0,0,1,1.067-1.2,4.379,4.379,0,0,1,3.577-.714,4.267,4.267,0,0,1,3.5,3.615,9.367,9.367,0,0,1,.171,1.867c0,2.216,0,4.432.006,6.648C107.91,32.591,107.855,32.645,107.64,32.643Z"/><path class="cls-3" d="M112,14.184c0-.73.006-1.46,0-2.19a1.915,1.915,0,0,0-1.678-1.938,13.149,13.149,0,0,0-1.955-.038c-7.018,0-14.036,0-21.054-.009a2.077,2.077,0,0,0-2.169,2.17c.025,7.585.013,15.17.013,22.755a1.953,1.953,0,0,0,2.084,2.1q11.338,0,22.677,0a2.254,2.254,0,0,0,.512-.039A1.956,1.956,0,0,0,112,34.98q0-5.719,0-11.441ZM93.3,32.43c0,.174-.054.212-.217.211-1.211-.006-2.423-.008-3.633,0-.195,0-.219-.069-.219-.237.006-1.958,0-3.917,0-5.876s0-3.9-.005-5.849c0-.206.057-.256.258-.254q1.79.015,3.582,0c.177,0,.231.043.231.227Q93.287,26.542,93.3,32.43ZM91.589,18.755A2.213,2.213,0,0,1,89.1,17.34a2.124,2.124,0,0,1-.1-.684,2.041,2.041,0,0,1,2.019-2.082,2.125,2.125,0,0,1,2.531,2.164A2.071,2.071,0,0,1,91.589,18.755ZM107.64,32.643q-1.739-.018-3.478,0c-.24,0-.314-.043-.312-.3.012-2.035.006-4.071.007-6.106a5.605,5.605,0,0,0-.152-1.378,2.012,2.012,0,0,0-3.4-.912,2.417,2.417,0,0,0-.719,1.759c.006,2.216,0,4.432.008,6.648,0,.238-.065.291-.295.289q-1.739-.018-3.478,0c-.232,0-.3-.053-.3-.292q.025-5.334.03-10.668c0-.343-.007-.687-.023-1.03-.008-.159.023-.227.2-.226q1.83.012,3.66,0c.168,0,.2.06.194.209-.008.48,0,.961,0,1.523a4.789,4.789,0,0,1,1.067-1.2,4.379,4.379,0,0,1,3.577-.714,4.267,4.267,0,0,1,3.5,3.615,9.367,9.367,0,0,1,.171,1.867c0,2.216,0,4.432.006,6.648C107.91,32.591,107.855,32.645,107.64,32.643Z"/><path class="cls-3" d="M81.176,32.419c-.066-.968-.1-1.939-.1-2.909q0-7.152,0-14.3c0-.212-.046-.27-.263-.268q-1.778.018-3.557,0c-.207,0-.251.059-.25.257.008,1.675,0,3.35,0,5.025v.82a3.743,3.743,0,0,0-1.234-.939,5.588,5.588,0,0,0-7.112,2.351,7.913,7.913,0,0,0-.641,6.325A5.393,5.393,0,0,0,73.885,32.9a4.4,4.4,0,0,0,3.385-1.982c.03-.046.046-.117.147-.095.049.532.107,1.068.142,1.605.012.174.055.225.235.223q1.586-.014,3.17,0C81.152,32.651,81.188,32.6,81.176,32.419ZM77.018,26.18a8.55,8.55,0,0,1-.09,1.744A2.369,2.369,0,0,1,75,29.752a2.537,2.537,0,0,1-2.642-1.191,4.609,4.609,0,0,1-.527-2.881,3.94,3.94,0,0,1,.627-1.879,2.536,2.536,0,0,1,2.7-1.056,2.4,2.4,0,0,1,1.828,1.97A10.842,10.842,0,0,1,77.018,26.18Z"/><path class="cls-3" d="M56,32.61c-.081.06-.16.033-.231.033-1.5,0-2.99,0-4.485.006a.379.379,0,0,1-.377-.222c-.953-1.586-1.916-3.167-2.876-4.748-.049-.08-.1-.157-.163-.255-.327.409-.638.8-.954,1.2a.407.407,0,0,0-.059.292c0,1.16,0,2.32,0,3.48,0,.185-.024.262-.242.26q-1.791-.02-3.582,0c-.2,0-.233-.062-.233-.244q.008-8.608,0-17.216c0-.21.062-.251.257-.249,1.185.008,2.371.01,3.556,0,.213,0,.245.067.245.257-.005,3.265,0,6.529,0,9.846.629-.9,1.227-1.751,1.83-2.6.555-.784,1.118-1.563,1.677-2.344a.321.321,0,0,1,.285-.176c1.538.006,3.075,0,4.613,0a.375.375,0,0,1,.08.025c-.091.1-.172.2-.255.288-1.412,1.559-2.821,3.121-4.242,4.673-.133.145-.109.224-.013.36q2.511,3.55,5.013,7.107C55.9,32.453,55.95,32.53,56,32.61Z"/><path class="cls-3" d="M66.7,23.675a5.2,5.2,0,0,0-3.107-3.632A6.706,6.706,0,0,0,60.1,19.7a5.892,5.892,0,0,0-4.282,2.64,7.4,7.4,0,0,0-1.1,5.413,5.605,5.605,0,0,0,2.41,3.967,7.332,7.332,0,0,0,3.859,1.176,14.151,14.151,0,0,0,2.979-.161,10.219,10.219,0,0,0,2.158-.563c.079-.032.182-.037.151-.184q-.254-1.208-.489-2.418c-.028-.145-.083-.128-.189-.093a10.973,10.973,0,0,1-3.784.486,4.687,4.687,0,0,1-1.819-.412,2.42,2.42,0,0,1-1.48-1.725c-.042-.192-.044-.3.227-.294,1.314.018,2.629.008,3.943.008v.021q1.985,0,3.968,0c.115,0,.231.034.257-.157A8.92,8.92,0,0,0,66.7,23.675Zm-4.052,1.137h-1.8c-.73,0-1.459,0-2.189,0-.165,0-.218-.022-.181-.21a3.024,3.024,0,0,1,1.014-1.853,2.259,2.259,0,0,1,3.7,1.425C63.3,24.812,63.3,24.812,62.649,24.812Z"/><path class="cls-3" d="M41.142,32.47c0,.155-.056.178-.192.177-1.22,0-2.44-.007-3.659,0-.185,0-.2-.069-.2-.221q.006-3.067,0-6.133a5.658,5.658,0,0,0-.158-1.454,2.012,2.012,0,0,0-3.416-.856,2.314,2.314,0,0,0-.69,1.638c0,2.25,0,4.5,0,6.751,0,.233-.062.278-.282.276-1.177-.011-2.354-.009-3.53,0-.186,0-.261-.026-.26-.243.009-3.917.068-7.833,0-11.75,0-.157.035-.2.2-.2q1.83.009,3.659,0c.176,0,.214.055.21.218-.009.472,0,.944,0,1.5A4.715,4.715,0,0,1,34,20.894a4.235,4.235,0,0,1,2.783-.719A4.158,4.158,0,0,1,40.6,22.729a5.866,5.866,0,0,1,.522,2.372C41.144,27.557,41.134,30.013,41.142,32.47Z"/><path class="cls-3" d="M21.22,32.431c0,.16-.03.221-.21.22q-5.4-.009-10.8,0c-.209,0-.208-.092-.208-.246q0-4.3,0-8.608c0-2.861,0-5.721-.007-8.582,0-.238.069-.278.286-.276q1.754.017,3.505,0c.217,0,.283.039.283.274-.009,4.484,0,8.968-.014,13.453,0,.263.067.317.32.315,2.191-.011,4.382,0,6.573-.011.21,0,.272.046.269.265C21.21,30.3,21.213,31.366,21.22,32.431Z"/><path class="cls-3" d="M26.894,32.362c0,.246-.074.29-.3.287q-1.764-.015-3.53,0c-.191,0-.238-.042-.238-.236q.01-5.862,0-11.724c0-.192.044-.24.237-.238q1.779.015,3.556,0c.208,0,.274.042.273.263-.009,1.95,0,3.9,0,5.849C26.888,28.5,26.883,30.429,26.894,32.362Z"/><path class="cls-3" d="M25.659,18.666a2.476,2.476,0,0,1-2.172-.272,2.084,2.084,0,0,1,.727-3.744,2.96,2.96,0,0,1,.715-.074,2.08,2.08,0,0,1,2.19,1.8A2.013,2.013,0,0,1,25.659,18.666Z"/></g></svg>