<svg id="Layer_1" data-name="Layer 1" xmlns="http://www.w3.org/2000/svg" xmlns:xlink="http://www.w3.org/1999/xlink" viewBox="0 0 230 50"><defs><style>.cls-1{fill:none;}.cls-2{clip-path:url(#clip-path);}.cls-3{fill:#1b2d45;}</style><clipPath id="clip-path"><rect class="cls-1" width="230" height="50"/></clipPath></defs><g class="cls-2"><path class="cls-3" d="M23.524,26.924H15.306l-2.367,6.849a.319.319,0,0,1-.3.231H10.211q-.264,0-.2-.264l7.265-20.283a11.161,11.161,0,0,0,.23-1.449.145.145,0,0,1,.164-.164h3.452a.176.176,0,0,1,.2.132L29.112,33.74q.1.264-.132.264H26.252a.3.3,0,0,1-.263-.2Zm-7.561-2.338H22.9q-.033-.064-1.561-4.527t-1.923-5.811h-.033Q18.987,15.729,15.963,24.586Z"/><path class="cls-3" d="M39.4,34.333a8.3,8.3,0,0,1-5.884-2.107A7.821,7.821,0,0,1,31.248,26.2a8.041,8.041,0,0,1,2.433-6.042A8.7,8.7,0,0,1,39.992,17.8a7.733,7.733,0,0,1,2.564.329V10.2a.174.174,0,0,1,.2-.2h2.6c.109,0,.164.066.164.2V30.942q0,.822.066,1.679c.022.11-.033.2-.164.263A12.5,12.5,0,0,1,39.4,34.333ZM42.556,31.5V20.536a5.141,5.141,0,0,0-2.6-.559A5.341,5.341,0,0,0,35.8,21.656a6.3,6.3,0,0,0-1.528,4.412,5.824,5.824,0,0,0,1.594,4.478A5.424,5.424,0,0,0,39.7,32.028,6.074,6.074,0,0,0,42.556,31.5Z"/><path class="cls-3" d="M57.052,17.8a7.152,7.152,0,0,1,5.572,2.3,8.5,8.5,0,0,1,2.087,5.928,8.423,8.423,0,0,1-2.137,6.042,7.3,7.3,0,0,1-5.554,2.255A7.011,7.011,0,0,1,51.251,31.9a8.917,8.917,0,0,1-1.989-5.828,8.367,8.367,0,0,1,2.17-5.926A7.313,7.313,0,0,1,57.052,17.8Zm-.131,2.173a4.1,4.1,0,0,0-3.386,1.63A6.922,6.922,0,0,0,52.253,26a7.23,7.23,0,0,0,1.282,4.446,4.188,4.188,0,0,0,3.55,1.712,4.234,4.234,0,0,0,3.271-1.531A6.617,6.617,0,0,0,61.72,26.1,7.464,7.464,0,0,0,60.5,21.706,4.1,4.1,0,0,0,56.921,19.977Z"/><path class="cls-3" d="M68.754,10h2.531c.153,0,.23.066.23.2V18.66a8.947,8.947,0,0,1,3.879-.856,7.044,7.044,0,0,1,5.391,2.173,7.948,7.948,0,0,1,2.038,5.663A8.4,8.4,0,0,1,80.39,32a8.1,8.1,0,0,1-5.818,2.338,12.787,12.787,0,0,1-5.851-1.251.317.317,0,0,1-.2-.3V10.2C68.524,10.066,68.6,10,68.754,10ZM79.8,25.871a6.2,6.2,0,0,0-1.348-4.215A4.591,4.591,0,0,0,74.8,20.108a6.622,6.622,0,0,0-3.287.791V31.436a6.378,6.378,0,0,0,3.222.724,4.59,4.59,0,0,0,3.6-1.68A6.779,6.779,0,0,0,79.8,25.871Z"/><path class="cls-3" d="M95.741,26.332H88.707a5.664,5.664,0,0,0,1.315,4.083,5.133,5.133,0,0,0,4.043,1.547,9.006,9.006,0,0,0,4.076-.856c.131-.087.2-.044.2.132v1.811a.281.281,0,0,1-.165.3,10.128,10.128,0,0,1-4.7.988q-4.011,0-5.9-2.354a8.931,8.931,0,0,1-1.89-5.779,9.088,9.088,0,0,1,1.988-5.993,6.612,6.612,0,0,1,5.375-2.4A5.836,5.836,0,0,1,97.894,19.8a7.048,7.048,0,0,1,1.594,4.527,9.854,9.854,0,0,1-.1,1.647.327.327,0,0,1-.263.263A33.257,33.257,0,0,1,95.741,26.332Zm-7.034-1.943h5.851a15.047,15.047,0,0,0,2.07-.066,2.335,2.335,0,0,0,.034-.527,4.559,4.559,0,0,0-.872-2.683,3.272,3.272,0,0,0-2.875-1.235,3.572,3.572,0,0,0-2.926,1.284A6.093,6.093,0,0,0,88.707,24.389Z"/><path class="cls-3" d="M112.8,11.745V33.806q0,.2-.165.2H111.42a.174.174,0,0,1-.2-.2V11.778c0-.132.054-.2.164-.2h1.249A.146.146,0,0,1,112.8,11.745Z"/><path class="cls-3" d="M118.158,33.806V21.952a30.142,30.142,0,0,0-.132-3.523c0-.087.066-.131.2-.131h1.118a.177.177,0,0,1,.2.131q.064.363.164,2.042a6.945,6.945,0,0,1,5.292-2.5,5.664,5.664,0,0,1,1.742.264,5.745,5.745,0,0,1,1.661.889,4.165,4.165,0,0,1,1.33,1.909,8.726,8.726,0,0,1,.494,3.128v9.648a.175.175,0,0,1-.2.2h-1.182a.175.175,0,0,1-.2-.2V24.224a5.7,5.7,0,0,0-1-3.506,3.454,3.454,0,0,0-2.942-1.334,5.974,5.974,0,0,0-4.964,2.634V33.806q0,.2-.165.2h-1.248C118.212,34,118.158,33.938,118.158,33.806Z"/><path class="cls-3" d="M135.58,33.773V11.811c0-.132.054-.209.164-.231q1.972-.066,5.686-.066,5.457,0,8.267,3a11.169,11.169,0,0,1,2.811,7.968,13.644,13.644,0,0,1-1.085,5.68,8.451,8.451,0,0,1-2.908,3.622,12.946,12.946,0,0,1-3.764,1.778,15.018,15.018,0,0,1-4.076.543q-2.268,0-4.931-.1C135.634,34,135.58,33.927,135.58,33.773Zm1.578-20.843V32.653q1.182.1,3.517.1a10.505,10.505,0,0,0,7.527-2.584q2.727-2.584,2.728-7.656,0-4.709-2.58-7.178a9.686,9.686,0,0,0-6.986-2.47Q137.946,12.864,137.158,12.93Z"/><path class="cls-3" d="M165.393,25.871h-7.559a7.215,7.215,0,0,0,1.413,5.087,5.484,5.484,0,0,0,4.536,1.959,7.966,7.966,0,0,0,4.109-.988c.043-.021.077-.021.1,0a.2.2,0,0,1,.032.132v1.054a.253.253,0,0,1-.1.23,8.765,8.765,0,0,1-4.373.988,7.233,7.233,0,0,1-4.3-1.218,6.383,6.383,0,0,1-2.368-2.964,10.95,10.95,0,0,1-.657-3.885,9.251,9.251,0,0,1,1.874-5.944,6.063,6.063,0,0,1,5-2.354,6.491,6.491,0,0,1,2.843.593,4.587,4.587,0,0,1,1.874,1.547,7.59,7.59,0,0,1,.953,1.96,6.79,6.79,0,0,1,.312,2.025,12.183,12.183,0,0,1-.065,1.415q-.066.231-.231.264Q168.022,25.871,165.393,25.871Zm-7.527-1.219H165.1a19.966,19.966,0,0,0,2.434-.066,3.6,3.6,0,0,0,.032-.625,6.231,6.231,0,0,0-.329-1.976,4.1,4.1,0,0,0-1.43-1.86,4.891,4.891,0,0,0-6.344.659A7.226,7.226,0,0,0,157.866,24.652Z"/><path class="cls-3" d="M180.974,20.339a5.761,5.761,0,0,0-3.484-1.054,3.571,3.571,0,0,0-2.564.774,2.609,2.609,0,0,0-.082,3.655,7.622,7.622,0,0,0,2.745,1.5,9.309,9.309,0,0,1,3.319,1.943,3.9,3.9,0,0,1,1.02,2.832,3.786,3.786,0,0,1-1.5,3.227,6.056,6.056,0,0,1-3.731,1.119,7.256,7.256,0,0,1-4.174-1.119.313.313,0,0,1-.133-.264V31.534c0-.132.055-.164.165-.1a6.069,6.069,0,0,0,4.174,1.547,4.113,4.113,0,0,0,2.7-.79,2.5,2.5,0,0,0,.954-2.009,2.742,2.742,0,0,0-.773-2.025,8.458,8.458,0,0,0-2.777-1.564,9,9,0,0,1-3.205-1.893,3.7,3.7,0,0,1-1-2.684,3.66,3.66,0,0,1,1.331-2.914,5.312,5.312,0,0,1,3.567-1.136,6.81,6.81,0,0,1,3.517.758.266.266,0,0,1,.132.263v1.218Q181.172,20.537,180.974,20.339Z"/><path class="cls-3" d="M186.561,13.819a.96.96,0,0,1-.756-.3,1.1,1.1,0,0,1-.263-.757,1.12,1.12,0,0,1,.279-.774,1.03,1.03,0,0,1,1.479,0,1.116,1.116,0,0,1,.28.774,1.07,1.07,0,0,1-.28.74A.94.94,0,0,1,186.561,13.819Zm-.788,19.987V18.462a.144.144,0,0,1,.164-.164h1.216c.131,0,.2.054.2.164V33.839c0,.11-.066.165-.2.165H185.97A.174.174,0,0,1,185.773,33.806Z"/><path class="cls-3" d="M204.97,18.462v1.054a.146.146,0,0,1-.165.164l-3.451-.032a4.836,4.836,0,0,1,1.511,3.852,5.143,5.143,0,0,1-1.626,4.05,6.546,6.546,0,0,1-5.836,1.218,2.311,2.311,0,0,0-1.347,1.91,2.038,2.038,0,0,0,1.414,1.844q.986-.066,3.485-.066,6.507,0,6.507,4.511a5.179,5.179,0,0,1-2.054,4.066,9.723,9.723,0,0,1-10.668.264,4.457,4.457,0,0,1-1.873-3.638q0-2.206,3.254-4.248a2.923,2.923,0,0,1-1.577-2.536,3.227,3.227,0,0,1,1.643-2.6,5.037,5.037,0,0,1-2.6-4.774,5.378,5.378,0,0,1,1.578-3.935,5.606,5.606,0,0,1,4.174-1.6,7.874,7.874,0,0,1,2.136.231,2.793,2.793,0,0,0,.625.1h4.7A.146.146,0,0,1,204.97,18.462Zm-1.086,18.67q0-3.259-5.193-3.26a27.369,27.369,0,0,0-3.386.132q-2.926,1.712-2.925,3.556a3.354,3.354,0,0,0,1.594,2.766A6.7,6.7,0,0,0,198,41.478a6.438,6.438,0,0,0,4.339-1.333A3.918,3.918,0,0,0,203.884,37.132ZM201.32,23.5a4.679,4.679,0,0,0-1.019-3.079,3.653,3.653,0,0,0-2.99-1.235,4.067,4.067,0,0,0-3.009,1.17,4.208,4.208,0,0,0-1.167,3.111,4.432,4.432,0,0,0,1.119,3.145,3.884,3.884,0,0,0,2.99,1.2,3.951,3.951,0,0,0,2.975-1.136A4.378,4.378,0,0,0,201.32,23.5Z"/><path class="cls-3" d="M208.29,33.806V21.952a30.069,30.069,0,0,0-.133-3.523c0-.087.066-.131.2-.131h1.117a.177.177,0,0,1,.2.131c.043.242.1.922.164,2.042a6.946,6.946,0,0,1,5.293-2.5,5.669,5.669,0,0,1,1.742.264,5.736,5.736,0,0,1,1.659.889,4.16,4.16,0,0,1,1.332,1.909,8.771,8.771,0,0,1,.493,3.128v9.648a.175.175,0,0,1-.2.2h-1.183a.175.175,0,0,1-.2-.2V24.224a5.683,5.683,0,0,0-1-3.506,3.451,3.451,0,0,0-2.942-1.334,5.975,5.975,0,0,0-4.963,2.634V33.806q0,.2-.165.2h-1.249C208.344,34,208.29,33.938,208.29,33.806Z"/></g></svg>