<svg id="Layer_1" data-name="Layer 1" xmlns="http://www.w3.org/2000/svg" xmlns:xlink="http://www.w3.org/1999/xlink" viewBox="0 0 130 50"><defs><style>.cls-1{fill:none;}.cls-2{clip-path:url(#clip-path);}.cls-3{fill:#1b2d45;}</style><clipPath id="clip-path"><rect class="cls-1" width="130" height="50"/></clipPath></defs><g class="cls-2"><path class="cls-3" d="M20.2,20.977c-.027.295-.132.386-.427.38-.807-.019-1.615,0-2.422-.013-.278-.006-.348.084-.346.354.011,1.788,0,3.577,0,5.364h.027c0,1.765-.008,3.53.007,5.294,0,.325-.1.409-.413.406-1.292-.017-2.584-.015-3.875,0-.3,0-.4-.069-.4-.382.011-3.531,0-7.06.015-10.589,0-.328-.075-.449-.417-.432-.54.027-1.084,0-1.626.011-.231,0-.335-.063-.333-.312q.014-1.626,0-3.253c0-.266.112-.336.354-.332.554.012,1.109-.008,1.662.012.273.009.363-.074.358-.351-.017-.854-.03-1.709,0-2.562a5.11,5.11,0,0,1,.831-2.834,3.95,3.95,0,0,1,2.729-1.582,29.568,29.568,0,0,1,4.383-.147c.157,0,.23.053.23.219q0,1.714,0,3.426c0,.22-.132.238-.291.242-.693.015-1.384.024-2.075.045a1.064,1.064,0,0,0-1.142,1.146c-.016.668,0,1.337-.03,2.005-.013.311.069.42.4.412.945-.023,1.892,0,2.837-.013.261,0,.33.055.3.334C20.409,18.872,20.3,19.924,20.2,20.977Z"/><path class="cls-3" d="M33.139,27.414a46.358,46.358,0,0,0-.207-6.32,3.659,3.659,0,0,0-1.973-2.87,7.357,7.357,0,0,0-3.138-.694c-1.74-.055-3.481-.03-5.223-.037-.439,0-.454.023-.492.459-.088,1.037-.163,2.076-.292,3.108-.037.3.036.318.278.317,1.35-.007,2.7,0,4.049-.008a6.157,6.157,0,0,1,1.063.084,1.247,1.247,0,0,1,1.184,1.139c.044.415.013.826.05,1.237.022.226-.057.294-.286.29-.841-.013-1.684-.027-2.525,0a13.114,13.114,0,0,0-2.389.2,3.423,3.423,0,0,0-2.605,1.862,5.334,5.334,0,0,0-.292,3.49,3.823,3.823,0,0,0,3.543,3.214,8.192,8.192,0,0,0,4.545-.8c.619-.3.651-.3.738.354.038.3.144.336.4.334q1.626-.021,3.252,0c.261,0,.326-.068.324-.326C33.132,30.891,33.139,29.334,33.139,27.414Zm-4.706.167c-.016.184,0,.369,0,.553.006.911.008.917-.867,1.227a3.171,3.171,0,0,1-1.742.228,1.086,1.086,0,0,1-.893-.876,1.032,1.032,0,0,1,.611-1.379,2.491,2.491,0,0,1,.613-.086c.645-.01,1.291,0,1.935-.005C28.329,27.241,28.457,27.315,28.433,27.581Z"/><path class="cls-3" d="M46.461,31.938c.007.307-.075.435-.4.5a19.753,19.753,0,0,1-4.65.512,8.215,8.215,0,0,1-3.911-.946,5.236,5.236,0,0,1-2.544-3.52,7.925,7.925,0,0,1-.211-1.88c.007-1.119-.024-2.239.01-3.357a6.325,6.325,0,0,1,.972-3.362,5.4,5.4,0,0,1,3.261-2.269,12.31,12.31,0,0,1,4.49-.239c.894.091,1.772.26,2.652.43a.331.331,0,0,1,.317.392c-.013,1.039-.01,2.077,0,3.115,0,.236-.031.31-.311.261a19.675,19.675,0,0,0-4.56-.43,4.875,4.875,0,0,0-.819.1,1.688,1.688,0,0,0-1.385,1.9c-.008.645,0,1.292,0,2.079.026.595-.021,1.333.026,2.071.082,1.3.816,1.655,1.894,1.756a18.071,18.071,0,0,0,4.736-.4c.418-.071.417-.077.418.341C46.449,29.977,46.442,30.957,46.461,31.938Z"/><path class="cls-3" d="M61.051,21.826a4.766,4.766,0,0,0-3.533-4.14A10.413,10.413,0,0,0,51.9,17.6a4.9,4.9,0,0,0-3.918,4.65,33.469,33.469,0,0,0,0,5.317,5.353,5.353,0,0,0,4.2,5.056,13.7,13.7,0,0,0,4.039.309,24.813,24.813,0,0,0,4.236-.525c.2-.043.33-.1.327-.35-.011-1.062-.008-2.122,0-3.184,0-.212-.044-.279-.276-.241a27.711,27.711,0,0,1-2.839.377,16.188,16.188,0,0,1-3.688-.023,1.518,1.518,0,0,1-1.373-1.3,4.877,4.877,0,0,1-.081-.856c-.005-.287.087-.376.376-.373,1.315.014,2.63.007,3.944.007h3.979c.154,0,.338.048.33-.218A36.189,36.189,0,0,0,61.051,21.826Zm-4.542,1.349c-.012.206-.172.184-.308.184-.554,0-1.107,0-1.661,0h0c-.565,0-1.131,0-1.7,0-.112,0-.221.013-.272-.143a2.342,2.342,0,0,1,.623-2.088,2.42,2.42,0,0,1,1.827-.329C56.4,20.993,56.581,22.03,56.509,23.175Z"/><path class="cls-3" d="M76.488,23.081a15.659,15.659,0,0,0-.164-2.406,3.594,3.594,0,0,0-2.948-3.137,11,11,0,0,0-5.455.174c-.454.126-.464.124-.463-.343,0-2.191.007-4.383.021-6.574,0-.27-.053-.364-.348-.312-1.31.232-2.622.455-3.938.651-.337.051-.387.2-.386.5.01,3.38.006,6.76.006,10.139h.014c0,3.4,0,6.806-.007,10.209,0,.279.087.388.357.419.548.065,1.092.156,1.64.23a23.833,23.833,0,0,0,6.882.1,5.888,5.888,0,0,0,3.294-1.458,5.327,5.327,0,0,0,1.456-3.8C76.531,26.01,76.514,24.545,76.488,23.081ZM71.8,26.943a1.958,1.958,0,0,1-2.172,2.151c-.587.023-1.176-.008-1.763.008-.291.008-.379-.109-.376-.388.011-1.107,0-2.214,0-3.32s.007-2.189,0-3.285a.427.427,0,0,1,.311-.461,5.256,5.256,0,0,1,2.2-.491,1.66,1.66,0,0,1,1.8,1.81C71.8,24.293,71.806,25.618,71.8,26.943Z"/><path class="cls-3" d="M91.431,22.015a4.857,4.857,0,0,0-3.483-4.245,10.522,10.522,0,0,0-5.888-.157,5.041,5.041,0,0,0-4,4.159,17.423,17.423,0,0,0-.168,3.409,18.485,18.485,0,0,0,.134,3.035A5.049,5.049,0,0,0,81.768,32.5a10.825,10.825,0,0,0,5.635.085,5,5,0,0,0,4.044-4.54A25.217,25.217,0,0,0,91.431,22.015Zm-4.552,5.133a1.7,1.7,0,0,1-1.454,1.842,3.051,3.051,0,0,1-1.662-.069,1.717,1.717,0,0,1-1.2-1.7c-.018-1.407-.024-2.813,0-4.218a1.794,1.794,0,0,1,1.822-1.828,3.934,3.934,0,0,1,1.065.056,1.671,1.671,0,0,1,1.411,1.6c.033.783.007,1.567.007,2.351h.015C86.881,25.834,86.892,26.491,86.879,27.148Z"/><path class="cls-3" d="M106.631,25.044c-.028-.853.043-1.731-.053-2.6a5.111,5.111,0,0,0-3.8-4.756,11.016,11.016,0,0,0-5.227-.173,5.71,5.71,0,0,0-2.807,1.313A5.094,5.094,0,0,0,93.053,22.4a28.659,28.659,0,0,0,.055,5.761,4.829,4.829,0,0,0,3.165,4.129,10.038,10.038,0,0,0,6.805.11,4.871,4.871,0,0,0,3.377-3.925A19.5,19.5,0,0,0,106.631,25.044Zm-4.691,2.425a1.712,1.712,0,0,1-1.62,1.555,3.241,3.241,0,0,1-1.23-.033A1.675,1.675,0,0,1,97.646,27.2q-.066-2.108-.006-4.217a1.8,1.8,0,0,1,1.906-1.815,3.784,3.784,0,0,1,.894.047,1.794,1.794,0,0,1,1.544,1.9c0,.668,0,1.336,0,2.189C101.954,25.9,102.029,26.687,101.94,27.469Z"/><path class="cls-3" d="M121.793,32.233c.085.142.276.29.181.454s-.316.063-.479.064c-1.349.007-2.7,0-4.048.01a.579.579,0,0,1-.579-.32q-1.849-3.11-3.724-6.205c-.1-.162-.2-.459-.348-.419-.209.058-.077.341-.078.521-.008,2.006-.011,4.014,0,6.02,0,.325-.1.408-.412.4-1.245-.018-2.491-.008-3.737-.008-.511,0-.514,0-.515-.508q0-3.824,0-7.648V21.934h0c0-3.426.006-6.852-.008-10.277,0-.346.1-.487.442-.539,1.3-.2,2.605-.405,3.9-.638.3-.054.319.047.319.287,0,1.684,0,3.369,0,5.053q0,3.979,0,7.959c0,.1-.064.239.043.285.136.059.2-.105.248-.186.439-.674.864-1.359,1.3-2.039.861-1.361,1.729-2.717,2.58-4.083a.548.548,0,0,1,.532-.292c1.407.008,2.814,0,4.222.007.118,0,.276-.065.346.077s-.059.234-.123.336q-2.118,3.352-4.247,6.7a.541.541,0,0,0,0,.672Q119.713,28.737,121.793,32.233Z"/><path class="cls-3" d="M76.488,23.081a15.659,15.659,0,0,0-.164-2.406,3.594,3.594,0,0,0-2.948-3.137,11,11,0,0,0-5.455.174c-.454.126-.464.124-.463-.343,0-2.191.007-4.383.021-6.574,0-.27-.053-.364-.348-.312-1.31.232-2.622.455-3.938.651-.337.051-.387.2-.386.5.01,3.38.006,6.76.006,10.139h.014c0,3.4,0,6.806-.007,10.209,0,.279.087.388.357.419.548.065,1.092.156,1.64.23a23.833,23.833,0,0,0,6.882.1,5.888,5.888,0,0,0,3.294-1.458,5.327,5.327,0,0,0,1.456-3.8C76.531,26.01,76.514,24.545,76.488,23.081ZM71.8,26.943a1.958,1.958,0,0,1-2.172,2.151c-.587.023-1.176-.008-1.763.008-.291.008-.379-.109-.376-.388.011-1.107,0-2.214,0-3.32s.007-2.189,0-3.285a.427.427,0,0,1,.311-.461,5.256,5.256,0,0,1,2.2-.491,1.66,1.66,0,0,1,1.8,1.81C71.8,24.293,71.806,25.618,71.8,26.943Z"/><path class="cls-3" d="M121.974,32.687c-.093.162-.316.063-.479.064-1.349.007-2.7,0-4.048.01a.579.579,0,0,1-.579-.32q-1.849-3.11-3.724-6.205c-.1-.162-.2-.459-.348-.419-.209.058-.077.341-.078.521-.008,2.006-.011,4.014,0,6.02,0,.325-.1.408-.412.4-1.245-.018-2.491-.008-3.737-.008-.511,0-.514,0-.515-.508q0-3.824,0-7.648V21.934h0c0-3.426.006-6.852-.008-10.277,0-.346.1-.487.442-.539,1.3-.2,2.605-.405,3.9-.638.3-.054.319.047.319.287,0,1.684,0,3.369,0,5.053q0,3.979,0,7.959c0,.1-.064.239.043.285.136.059.2-.105.248-.186.439-.674.864-1.359,1.3-2.039.861-1.361,1.729-2.717,2.58-4.083a.548.548,0,0,1,.532-.292c1.407.008,2.814,0,4.222.007.118,0,.276-.065.346.077s-.059.234-.123.336q-2.118,3.352-4.247,6.7a.541.541,0,0,0,0,.672q2.106,3.482,4.186,6.978C121.878,32.375,122.069,32.523,121.974,32.687Z"/><path class="cls-3" d="M61.051,21.826a4.766,4.766,0,0,0-3.533-4.14A10.413,10.413,0,0,0,51.9,17.6a4.9,4.9,0,0,0-3.918,4.65,33.469,33.469,0,0,0,0,5.317,5.353,5.353,0,0,0,4.2,5.056,13.7,13.7,0,0,0,4.039.309,24.813,24.813,0,0,0,4.236-.525c.2-.043.33-.1.327-.35-.011-1.062-.008-2.122,0-3.184,0-.212-.044-.279-.276-.241a27.711,27.711,0,0,1-2.839.377,16.188,16.188,0,0,1-3.688-.023,1.518,1.518,0,0,1-1.373-1.3,4.877,4.877,0,0,1-.081-.856c-.005-.287.087-.376.376-.373,1.315.014,2.63.007,3.944.007h3.979c.154,0,.338.048.33-.218A36.189,36.189,0,0,0,61.051,21.826Zm-4.542,1.349c-.012.206-.172.184-.308.184-.554,0-1.107,0-1.661,0h0c-.565,0-1.131,0-1.7,0-.112,0-.221.013-.272-.143a2.342,2.342,0,0,1,.623-2.088,2.42,2.42,0,0,1,1.827-.329C56.4,20.993,56.581,22.03,56.509,23.175Z"/><path class="cls-3" d="M106.631,25.044c-.028-.853.043-1.731-.053-2.6a5.111,5.111,0,0,0-3.8-4.756,11.016,11.016,0,0,0-5.227-.173,5.71,5.71,0,0,0-2.807,1.313A5.094,5.094,0,0,0,93.053,22.4a28.659,28.659,0,0,0,.055,5.761,4.829,4.829,0,0,0,3.165,4.129,10.038,10.038,0,0,0,6.805.11,4.871,4.871,0,0,0,3.377-3.925A19.5,19.5,0,0,0,106.631,25.044Zm-4.691,2.425a1.712,1.712,0,0,1-1.62,1.555,3.241,3.241,0,0,1-1.23-.033A1.675,1.675,0,0,1,97.646,27.2q-.066-2.108-.006-4.217a1.8,1.8,0,0,1,1.906-1.815,3.784,3.784,0,0,1,.894.047,1.794,1.794,0,0,1,1.544,1.9c0,.668,0,1.336,0,2.189C101.954,25.9,102.029,26.687,101.94,27.469Z"/><path class="cls-3" d="M91.431,22.015a4.857,4.857,0,0,0-3.483-4.245,10.522,10.522,0,0,0-5.888-.157,5.041,5.041,0,0,0-4,4.159,17.423,17.423,0,0,0-.168,3.409,18.485,18.485,0,0,0,.134,3.035A5.049,5.049,0,0,0,81.768,32.5a10.825,10.825,0,0,0,5.635.085,5,5,0,0,0,4.044-4.54A25.217,25.217,0,0,0,91.431,22.015Zm-4.552,5.133a1.7,1.7,0,0,1-1.454,1.842,3.051,3.051,0,0,1-1.662-.069,1.717,1.717,0,0,1-1.2-1.7c-.018-1.407-.024-2.813,0-4.218a1.794,1.794,0,0,1,1.822-1.828,3.934,3.934,0,0,1,1.065.056,1.671,1.671,0,0,1,1.411,1.6c.033.783.007,1.567.007,2.351h.015C86.881,25.834,86.892,26.491,86.879,27.148Z"/><path class="cls-3" d="M33.139,27.414a46.358,46.358,0,0,0-.207-6.32,3.659,3.659,0,0,0-1.973-2.87,7.357,7.357,0,0,0-3.138-.694c-1.74-.055-3.481-.03-5.223-.037-.439,0-.454.023-.492.459-.088,1.037-.163,2.076-.292,3.108-.037.3.036.318.278.317,1.35-.007,2.7,0,4.049-.008a6.157,6.157,0,0,1,1.063.084,1.247,1.247,0,0,1,1.184,1.139c.044.415.013.826.05,1.237.022.226-.057.294-.286.29-.841-.013-1.684-.027-2.525,0a13.114,13.114,0,0,0-2.389.2,3.423,3.423,0,0,0-2.605,1.862,5.334,5.334,0,0,0-.292,3.49,3.823,3.823,0,0,0,3.543,3.214,8.192,8.192,0,0,0,4.545-.8c.619-.3.651-.3.738.354.038.3.144.336.4.334q1.626-.021,3.252,0c.261,0,.326-.068.324-.326C33.132,30.891,33.139,29.334,33.139,27.414Zm-4.706.167c-.016.184,0,.369,0,.553.006.911.008.917-.867,1.227a3.171,3.171,0,0,1-1.742.228,1.086,1.086,0,0,1-.893-.876,1.032,1.032,0,0,1,.611-1.379,2.491,2.491,0,0,1,.613-.086c.645-.01,1.291,0,1.935-.005C28.329,27.241,28.457,27.315,28.433,27.581Z"/><path class="cls-3" d="M20.542,17.824c-.133,1.048-.242,2.1-.337,3.153-.027.295-.132.386-.427.38-.807-.019-1.615,0-2.422-.013-.278-.006-.348.084-.346.354.011,1.788,0,3.577,0,5.364h.027c0,1.765-.008,3.53.007,5.294,0,.325-.1.409-.413.406-1.292-.017-2.584-.015-3.875,0-.3,0-.4-.069-.4-.382.011-3.531,0-7.06.015-10.589,0-.328-.075-.449-.417-.432-.54.027-1.084,0-1.626.011-.231,0-.335-.063-.333-.312q.014-1.626,0-3.253c0-.266.112-.336.354-.332.554.012,1.109-.008,1.662.012.273.009.363-.074.358-.351-.017-.854-.03-1.709,0-2.562a5.11,5.11,0,0,1,.831-2.834,3.95,3.95,0,0,1,2.729-1.582,29.568,29.568,0,0,1,4.383-.147c.157,0,.23.053.23.219q0,1.714,0,3.426c0,.22-.132.238-.291.242-.693.015-1.384.024-2.075.045a1.064,1.064,0,0,0-1.142,1.146c-.016.668,0,1.337-.03,2.005-.013.311.069.42.4.412.945-.023,1.892,0,2.837-.013C20.508,17.487,20.577,17.545,20.542,17.824Z"/><path class="cls-3" d="M46.065,32.44a19.753,19.753,0,0,1-4.65.512,8.215,8.215,0,0,1-3.911-.946,5.236,5.236,0,0,1-2.544-3.52,7.925,7.925,0,0,1-.211-1.88c.007-1.119-.024-2.239.01-3.357a6.325,6.325,0,0,1,.972-3.362,5.4,5.4,0,0,1,3.261-2.269,12.31,12.31,0,0,1,4.49-.239c.894.091,1.772.26,2.652.43a.331.331,0,0,1,.317.392c-.013,1.039-.01,2.077,0,3.115,0,.236-.031.31-.311.261a19.675,19.675,0,0,0-4.56-.43,4.875,4.875,0,0,0-.819.1,1.688,1.688,0,0,0-1.385,1.9c-.008.645,0,1.292,0,2.079.026.595-.021,1.333.026,2.071.082,1.3.816,1.655,1.894,1.756a18.071,18.071,0,0,0,4.736-.4c.418-.071.417-.077.418.341,0,.981,0,1.961.015,2.942C46.468,32.245,46.386,32.373,46.065,32.44Z"/></g></svg>