<svg xmlns="http://www.w3.org/2000/svg" width="56" height="54" viewBox="0 0 56 54">
  <g fill="#A66DF5" transform="translate(-.1 -.2)">
    <path d="M44.3619792,3.72108084 L44.3619792,40.0467058 C44.3619792,41.8564064 42.8813151,43.3370704 41.0716146,43.3370704 L3.9278125,43.3370704 C2.11811198,43.3370704 0.637447917,41.8564064 0.637447917,40.0467058 L0.637447917,3.72108084 C0.637447917,1.91138032 2.11811198,0.430716258 3.9278125,0.430716258 L41.0716146,0.430716258 C42.8813151,0.430716258 44.3619792,1.91138032 44.3619792,3.72108084 Z" opacity=".1"/>
    <path d="M53.1619792,11.971684 L53.1619792,48.297309 C53.1619792,50.1070095 51.6813151,51.5876736 49.8716146,51.5876736 L12.7278125,51.5876736 C10.918112,51.5876736 9.43744792,50.1070095 9.43744792,48.297309 L9.43744792,11.971684 C9.43744792,10.1619835 10.918112,8.68131944 12.7278125,8.68131944 L49.8716146,8.68131944 C51.6813151,8.68131944 53.1619792,10.1619835 53.1619792,11.971684 Z M12.7278125,6.48774306 C9.70067708,6.48774306 7.24387153,8.94454861 7.24387153,11.971684 L7.24387153,48.297309 C7.24387153,51.3244444 9.70067708,53.78125 12.7278125,53.78125 L49.8716146,53.78125 C52.89875,53.78125 55.3555556,51.3244444 55.3555556,48.297309 L55.3555556,11.971684 C55.3555556,8.94454861 52.89875,6.48774306 49.8716146,6.48774306 L12.7278125,6.48774306 Z"/>
    <path d="M43.9406291,40.9802172 L18.6103206,40.9802172 C18.0594906,40.9802172 17.6030887,40.5316843 17.6030887,39.9729853 L17.6030887,37.2267046 C17.6030887,37.0142416 17.6660407,36.8175167 17.7840757,36.6443987 L21.2936493,31.6869292 C21.6084093,31.2462652 22.2064532,31.1360992 22.6628552,31.4272522 L27.4472067,34.5512449 C27.8327877,34.8030529 28.3206656,34.7637079 28.6669016,34.4646859 L37.8578927,26.3438787 C38.2906876,25.9582977 38.9674216,26.0212497 39.3136575,26.4855207 L44.530804,33.25286 C44.664577,33.425978 44.743267,33.64631 44.743267,33.8666419 L44.743267,40.1775793 C44.743267,40.6182433 44.381293,40.9802172 43.9406291,40.9802172 Z M27.8091807,23.58186 C29.6347885,23.58186 31.1141603,25.0769698 31.1141603,26.9183156 C31.1141603,28.7596615 29.6347885,30.2547713 27.8091807,30.2547713 C25.9835728,30.2547713 24.504201,28.7596615 24.504201,26.9183156 C24.51207,25.0769698 25.9914418,23.58186 27.8091807,23.58186 Z"/>
  </g>
</svg>
