<svg id="Layer_1" data-name="Layer 1" xmlns="http://www.w3.org/2000/svg" viewBox="0 0 160 60"><path d="M25.992,25.9H40.96a12.336,12.336,0,0,1,.213,1.359,15.247,15.247,0,0,1,.085,1.6,20.268,20.268,0,0,1-.9,6.1,14.442,14.442,0,0,1-2.814,5.112,14.182,14.182,0,0,1-4.9,3.705,15.485,15.485,0,0,1-6.525,1.313,15.226,15.226,0,0,1-6.268-1.313,15.545,15.545,0,0,1-5.118-3.658,17.727,17.727,0,0,1-3.454-5.558A18.778,18.778,0,0,1,10,27.54a18.778,18.778,0,0,1,1.279-7.011,17.75,17.75,0,0,1,3.454-5.558,15.56,15.56,0,0,1,5.118-3.658A15.21,15.21,0,0,1,26.119,10a14.661,14.661,0,0,1,11.642,5.3L33.8,19.567a10.7,10.7,0,0,0-3.326-2.65A9.753,9.753,0,0,0,26.077,16a9.793,9.793,0,0,0-3.966.821,9.894,9.894,0,0,0-3.284,2.321,11.173,11.173,0,0,0-2.238,3.635,13,13,0,0,0-.832,4.76,13,13,0,0,0,.832,4.76,10.971,10.971,0,0,0,2.26,3.635,10.1,10.1,0,0,0,3.305,2.321,9.888,9.888,0,0,0,4.008.821,9.819,9.819,0,0,0,4.115-.774,9.586,9.586,0,0,0,2.879-1.993,7.6,7.6,0,0,0,1.471-2.134,12.932,12.932,0,0,0,.959-2.884H25.992Z"/><path d="M55.032,20.6a10.71,10.71,0,0,1,4.456.914,10.528,10.528,0,0,1,3.5,2.533,11.7,11.7,0,0,1,2.3,3.869,14.99,14.99,0,0,1,0,9.849,11.7,11.7,0,0,1-2.3,3.869,10.511,10.511,0,0,1-3.5,2.532,11.308,11.308,0,0,1-8.912,0,10.522,10.522,0,0,1-3.5-2.532,11.7,11.7,0,0,1-2.3-3.869,14.99,14.99,0,0,1,0-9.849,11.7,11.7,0,0,1,2.3-3.869,10.538,10.538,0,0,1,3.5-2.533A10.714,10.714,0,0,1,55.032,20.6Zm0,18.806A5.046,5.046,0,0,0,57.1,38.96a5.264,5.264,0,0,0,1.769-1.29,6.2,6.2,0,0,0,1.216-2.064,8.788,8.788,0,0,0,0-5.534,6.209,6.209,0,0,0-1.216-2.063,5.278,5.278,0,0,0-1.769-1.29,5.062,5.062,0,0,0-2.069-.445,5,5,0,0,0-2.089.445,5.335,5.335,0,0,0-1.749,1.29,6.207,6.207,0,0,0-1.215,2.063,8.769,8.769,0,0,0,0,5.534,6.2,6.2,0,0,0,1.215,2.064,5.321,5.321,0,0,0,1.749,1.29A4.988,4.988,0,0,0,55.032,39.405Z"/><path d="M79.6,20.6a10.714,10.714,0,0,1,4.456.914,10.538,10.538,0,0,1,3.5,2.533,11.7,11.7,0,0,1,2.3,3.869,14.99,14.99,0,0,1,0,9.849,11.7,11.7,0,0,1-2.3,3.869,10.522,10.522,0,0,1-3.5,2.532,11.31,11.31,0,0,1-8.913,0,10.518,10.518,0,0,1-3.5-2.532,11.7,11.7,0,0,1-2.3-3.869,14.99,14.99,0,0,1,0-9.849,11.7,11.7,0,0,1,2.3-3.869,10.534,10.534,0,0,1,3.5-2.533A10.715,10.715,0,0,1,79.6,20.6Zm0,18.806a5.041,5.041,0,0,0,2.068-.445,5.254,5.254,0,0,0,1.769-1.29,6.206,6.206,0,0,0,1.217-2.064,8.788,8.788,0,0,0,0-5.534,6.211,6.211,0,0,0-1.217-2.063,5.268,5.268,0,0,0-1.769-1.29,5.079,5.079,0,0,0-4.158,0,5.332,5.332,0,0,0-1.748,1.29,6.209,6.209,0,0,0-1.216,2.063,8.788,8.788,0,0,0,0,5.534,6.2,6.2,0,0,0,1.216,2.064,5.318,5.318,0,0,0,1.748,1.29A4.993,4.993,0,0,0,79.6,39.405Z"/><path d="M103.9,55.21a11.425,11.425,0,0,1-3.945-.633,10.867,10.867,0,0,1-3.006-1.642,10.548,10.548,0,0,1-2.132-2.228,8.993,8.993,0,0,1-1.237-2.438l5.331-2.345a5.552,5.552,0,0,0,1.961,2.837A4.979,4.979,0,0,0,103.9,49.77a5.1,5.1,0,0,0,4.179-1.887,8.011,8.011,0,0,0,1.535-5.195V41.093h-.341a7.023,7.023,0,0,1-2.58,2.369,7.788,7.788,0,0,1-3.773.868,8.444,8.444,0,0,1-3.646-.836A9.57,9.57,0,0,1,96.14,41.1a12.507,12.507,0,0,1-2.218-3.739,13.308,13.308,0,0,1-.852-4.875,13.5,13.5,0,0,1,.852-4.9,12.471,12.471,0,0,1,2.218-3.762,9.58,9.58,0,0,1,3.135-2.391,8.444,8.444,0,0,1,3.646-.836,7.788,7.788,0,0,1,3.773.868,7.046,7.046,0,0,1,2.58,2.368h.341V21.349h5.33V42.688a15.813,15.813,0,0,1-.809,5.229,11.51,11.51,0,0,1-2.261,3.94,9.786,9.786,0,0,1-3.475,2.485A11.3,11.3,0,0,1,103.9,55.21Zm.214-16.414a5.266,5.266,0,0,0,2.025-.414,5.161,5.161,0,0,0,1.77-1.22,6.137,6.137,0,0,0,1.236-1.981,7.212,7.212,0,0,0,.469-2.694,7.4,7.4,0,0,0-.469-2.717,6.081,6.081,0,0,0-1.236-2,5.12,5.12,0,0,0-1.77-1.22,5.249,5.249,0,0,0-2.025-.415,5.086,5.086,0,0,0-2,.415,5.033,5.033,0,0,0-1.75,1.243,6.421,6.421,0,0,0-1.236,2,7.969,7.969,0,0,0,0,5.387,6.154,6.154,0,0,0,1.236,1.981,5.21,5.21,0,0,0,1.75,1.22A5.1,5.1,0,0,0,104.115,38.8Z"/><path d="M119.721,44.33V10.75h5.587V44.33Z"/><path d="M149.658,38.8a12.438,12.438,0,0,1-3.9,4.548,10.106,10.106,0,0,1-5.991,1.736,10.537,10.537,0,0,1-7.933-3.47,11.825,11.825,0,0,1-2.322-3.87,13.87,13.87,0,0,1-.832-4.9,13.664,13.664,0,0,1,.81-4.713,12.226,12.226,0,0,1,2.26-3.893,10.987,10.987,0,0,1,3.433-2.649,9.676,9.676,0,0,1,4.37-.985,10.5,10.5,0,0,1,4.479.914,9.213,9.213,0,0,1,3.283,2.533,11.215,11.215,0,0,1,2,3.822A16.141,16.141,0,0,1,150,32.652v.563a3.39,3.39,0,0,0-.043.515,2.941,2.941,0,0,0-.043.516H134.178a6.885,6.885,0,0,0,.705,2.415A5.7,5.7,0,0,0,136.2,38.35a4.98,4.98,0,0,0,1.727.985,6.177,6.177,0,0,0,1.919.3,5.077,5.077,0,0,0,3.178-.962,6.837,6.837,0,0,0,1.982-2.415Zm-5.074-8.911a4.281,4.281,0,0,0-.363-1.36,4.821,4.821,0,0,0-.938-1.407,4.885,4.885,0,0,0-1.535-1.079,5.232,5.232,0,0,0-2.2-.422,4.81,4.81,0,0,0-3.155,1.126,5.985,5.985,0,0,0-1.919,3.142Z"/></svg>