<svg id="Layer_1" data-name="Layer 1" xmlns="http://www.w3.org/2000/svg" viewBox="0 0 100 60"><defs><style>.cls-1{fill-rule:evenodd;}</style></defs><g id="Page-1"><g id="logo-hotjar"><path id="Path" class="cls-1" d="M14.982,29.912a5.3,5.3,0,0,1,2.761-.769c1.327,0,1.737.78,1.737,1.929v8.575A1.256,1.256,0,0,0,20.9,41.068h2.157A1.255,1.255,0,0,0,24.5,39.647V30.324c0-2.981-1.219-5.214-5.394-5.214a8.287,8.287,0,0,0-4.023,1V19.169a1.274,1.274,0,0,0-.385-1.119,1.257,1.257,0,0,0-1.136-.312H11.4a1.255,1.255,0,0,0-1.381,1.431V39.6a1.26,1.26,0,0,0,.338,1.1,1.246,1.246,0,0,0,1.086.364H13.6a1.249,1.249,0,0,0,1.056-.384,1.263,1.263,0,0,0,.325-1.08Z"/><path id="Shape" class="cls-1" d="M33.985,29.126c1.7,0,2.309,1.079,2.309,4.2s-.612,4.2-2.309,4.2-2.319-1.079-2.319-4.2S32.288,29.126,33.985,29.126Zm0,12.36c5.714,0,7.249-3.336,7.249-8.161s-1.535-8.161-7.249-8.161-7.26,3.335-7.26,8.161S28.272,41.486,33.985,41.486Z"/><path id="Path-2" data-name="Path" class="cls-1" d="M44.707,25.784l-1.409.377c-.9.248-1.245.657-1.245,1.454v.7a1.254,1.254,0,0,0,.362,1.07,1.274,1.274,0,0,0,1.078.352h1.214v6.289c0,3.64,1.592,5.46,6.012,5.46a7.6,7.6,0,0,0,1.4-.129,1.51,1.51,0,0,0,1.257-1.54V38.805a1.275,1.275,0,0,0-1.343-1.293h-.3c-1.592,0-2.058-.689-2.058-1.884V29.737h2.405a1.264,1.264,0,0,0,1.079-.344,1.246,1.246,0,0,0,.362-1.067V27.1a1.255,1.255,0,0,0-.363-1.069,1.268,1.268,0,0,0-1.078-.352H49.646V23.092c0-.959-.563-1.605-1.874-1.26l-1.614.431c-1.083.3-1.5.646-1.5,1.54Z"/><path id="Path-3" data-name="Path" class="cls-1" d="M61.775,27.005a1.26,1.26,0,0,0-.35-1.072,1.232,1.232,0,0,0-1.061-.352H58.3a1.234,1.234,0,0,0-1.062.352,1.26,1.26,0,0,0-.349,1.072v15.9a1.858,1.858,0,0,1-.452,1.409,1.823,1.823,0,0,1-1.333.619c-1.068.129-1.378.723-1.378,1.4v1.414c0,.928.7,1.392,1.838,1.392,3.206,0,6.209-1.673,6.209-5.87Z"/><path id="Shape-2" data-name="Shape" class="cls-1" d="M72.684,33.917v3.422a3.234,3.234,0,0,1-2.232.745,1.7,1.7,0,0,1-1.8-1.824c0-1.209.56-1.878,1.962-2.073Zm-1.833-4.76c1.337,0,1.833.367,1.833,1.08v.982l-2.825.281c-2.781.28-5.854.9-5.854,5.073,0,2.32,1.337,4.911,5.272,4.911a6.757,6.757,0,0,0,4.549-1.608l.13.226c.4.713.679.95,1.455.95h.658a1.24,1.24,0,0,0,1.423-1.414V31c0-3.454-1.078-5.839-6.641-5.839a16.977,16.977,0,0,0-4.765.712,1.533,1.533,0,0,0-1.078,1.641v.831a1.444,1.444,0,0,0,1.951,1.392,18.591,18.591,0,0,1,3.9-.583Z"/><path id="Path-4" data-name="Path" class="cls-1" d="M89.994,26.554c0-.862-.428-1.39-1.821-1.39a7.258,7.258,0,0,0-4.455,1.541c-.439-.765-.535-1.078-1.392-1.078h-.771a1.24,1.24,0,0,0-1.069.355,1.255,1.255,0,0,0-.344,1.078V39.668a1.251,1.251,0,0,0,.359,1.055,1.234,1.234,0,0,0,1.054.346H83.7a1.236,1.236,0,0,0,1.059-.349,1.256,1.256,0,0,0,.355-1.062V30.175a6.288,6.288,0,0,1,3.5-.959,1.263,1.263,0,0,0,1.018-.367,1.278,1.278,0,0,0,.364-1.024Z"/><path id="Path-5" data-name="Path" d="M63.811,14.861c-1.814-3.285-7.148-4.005-7.148-4.005a3.147,3.147,0,0,1-.676,4.907C54,17.126,53.219,18.9,54.066,20.84a4.174,4.174,0,0,0,3.563,2.309,4.2,4.2,0,0,1-.193-2.878l.1-.332a1.683,1.683,0,0,0,1.77.837,1.976,1.976,0,0,0,1.138-2.405,2.654,2.654,0,0,0-.268-.7h.107c1.138.323,1.685,2.03,1.234,3.812a4.777,4.777,0,0,1-.687,1.5,5.423,5.423,0,0,0,3.617-3.608,6.339,6.339,0,0,0-.633-4.519Z"/></g></g></svg>