<svg id="Layer_1" data-name="Layer 1" xmlns="http://www.w3.org/2000/svg" viewBox="0 0 230 60"><path d="M41.431,46.874c-4.2.147-8.413.047-12.62.047-2.436,0-2.436,0-2.343,2.367.007.177.009.354.014.531h17.13a3.8,3.8,0,0,1,0-.707C43.945,47.32,43.244,46.811,41.431,46.874Z"/><path d="M219.891,48.391q.041-19.092.021-38.186l-.367.011.011-.011a3.874,3.874,0,0,0-1.925-.163q-52.141-.014-104.287,0a3.773,3.773,0,0,0-1.925.167q.014,19.619.022,39.237h.008l108.106.372h0C220.293,49.5,219.89,48.854,219.891,48.391Zm-106.724-34.7c-.009-1.491.5-1.726,1.821-1.726q25.252.06,50.5.027c16.771,0,33.542.027,50.308-.041,1.7-.009,2.025.512,2.012,2.084q-.1,15.875,0,31.753c0,1.472-.227,2.043-1.908,2.038q-50.4-.081-100.8-.013c-1.423,0-1.935-.281-1.926-1.831Q113.277,29.836,113.167,13.689Z"/><path d="M21.819,19.841c-3.715-1.486-7.452-.911-11.181-.005-.761.186-.629.761-.629,1.273q.027,14.169.068,28.342,1.4-.014,2.8-.023V39.19a18.515,18.515,0,0,0,6.651.348c4.5-.761,7.869-3.995,8.381-8.236C28.56,25.853,26.354,21.653,21.819,19.841Zm2.465,12.431c-1.536,5.115-7.149,5.608-10.914,4.3-.634-.218-.439-.775-.439-1.21-.018-2.025-.009-4.045-.009-6.066,0-2.084.027-4.168-.019-6.247-.013-.716.182-1.056.925-1.192,3.112-.566,6.215-.888,8.693,1.6S25.23,29.105,24.284,32.272Z"/><path d="M55.66,19.768a9.216,9.216,0,0,0-13.206,6.6,14.161,14.161,0,0,0-.262,3.543c.145,3.887,1.554,7.153,5.241,8.825A10.6,10.6,0,0,0,58.56,37.69c.475-.344,1.662-.589.756-1.694-.679-.834-1.128-1.391-2.315-.408a7.375,7.375,0,0,1-7.892.974c-2.487-1.037-3.488-3.23-3.9-5.776-.126-.793.073-1.037.875-1.024,2.2.041,4.4.014,6.6.014s4.4,0,6.6,0c.5,0,1,.141,1.119-.711C60.911,25.649,58.659,21.155,55.66,19.768Zm.585,7.53c-1.659-.077-3.321-.023-4.984-.023s-3.32-.036-4.983.018c-.829.023-1.01-.272-.861-1.042a5.934,5.934,0,0,1,6.012-4.8c3.2-.041,5.291,1.613,5.9,4.521C57.549,27.012,57.314,27.343,56.245,27.3Z"/><path d="M102.566,19.243c-3.433-.344-3.382-.295-5.675,2.09-2.372,2.467-4.856,4.826-7.538,7.476,0-5.67-.033-10.955.027-16.24.013-1.149-.266-1.543-1.465-1.514-1.1.026-1.518.213-1.509,1.454q.091,12.83,0,25.66c-.01,1.3.511,1.348,1.536,1.4,1.215.061,1.47-.377,1.44-1.5-.075-2.816-.025-5.635-.025-8.915,2.829,3.076,5.513,5.67,7.791,8.582,1.617,2.066,3.442,1.911,5.7,1.655L93.115,29.042Z"/><path d="M78.581,29.323a16.234,16.234,0,0,0-3.1-1.31,16.994,16.994,0,0,1-4.436-1.782,2.425,2.425,0,0,1-1.109-2.607,2.382,2.382,0,0,1,2.028-1.983c2.335-.466,4.552-.226,6.229,1.637,1.263,1.406,1.637-.14,2.317-.57,1.175-.743.047-1.17-.339-1.557a9.628,9.628,0,0,0-10.917-1.259,4.807,4.807,0,0,0-2.446,4.094c-.115,2.734.895,4.344,3.644,5.443,1.917.766,3.931,1.289,5.84,2.072a2.752,2.752,0,0,1,1.851,3.119,2.9,2.9,0,0,1-2.612,2.337,6.99,6.99,0,0,1-6.864-1.935c-1.282-1.352-1.618.354-2.323.729-1.034.548-.222,1.029.207,1.439a9.724,9.724,0,0,0,6.99,2.588,9.288,9.288,0,0,0,4.948-1.219A5.3,5.3,0,0,0,78.581,29.323Z"/><path d="M33.619,25.381c0,4.27.042,8.541-.028,12.811-.018,1.106.275,1.449,1.374,1.364.922-.071,1.622.1,1.609-1.325-.08-8.6-.061-17.2-.014-25.8.006-1.156-.292-1.511-1.471-1.494-1.116.016-1.521.244-1.5,1.456C33.666,16.72,33.619,21.051,33.619,25.381Z"/><path d="M133.028,39.869c6.324.005,10.542-4.064,10.551-10.179.014-6.325-4.163-10.56-10.411-10.565-6.2,0-10.619,4.249-10.637,10.225C122.509,35.593,126.772,39.865,133.028,39.869Zm.036-17.84c4.327.027,6.936,2.854,6.945,7.516s-2.578,7.429-6.967,7.425c-4.214,0-7-3.026-6.945-7.543C126.151,25.01,128.987,22,133.064,22.029Z"/><path d="M148.481,37.957c0,1.088-.046,1.88,1.522,1.885,1.667,0,1.431-.965,1.431-1.962V25.159c.53.576.816.852,1.065,1.16,3.325,4.105,6.669,8.2,9.935,12.345a2.439,2.439,0,0,0,2.786,1.042c1.028-.322.671-1.4.675-2.161.041-5.463,0-10.931.036-16.4.009-1.228-.081-1.971-1.68-1.975-1.649,0-1.446.929-1.441,1.943,0,4.127,0,8.25,0,12.921-1.545-1.926-2.755-3.434-3.964-4.938-2.424-3-4.875-5.976-7.262-9.006a2.451,2.451,0,0,0-2.591-.721c-.916.168-.476,1.2-.481,1.826C148.476,26.786,148.5,32.372,148.481,37.957Z"/><path d="M189.312,39.588c2.392.6,4.014.123,5.2-2.02,1.192-2.161,2.714-4.141,4.213-6.374a68.353,68.353,0,0,1,3.706,5.88c1.2,2.387,2.859,3.33,5.713,2.46-2.007-3.022-3.9-6.021-5.962-8.893a2.21,2.21,0,0,1,.09-3.108c1.754-2.319,3.38-4.729,5.025-7.126.235-.344.919-1.015-.118-1.123-1.459-.159-2.927-.3-3.883,1.368-1.028,1.8-2.337,3.434-3.425,5.2-.7,1.137-1.182,1.522-2,.081-.848-1.5-2.075-2.8-2.777-4.344-1.138-2.506-3.072-2.537-5.564-2.243,2.007,2.958,3.8,5.8,5.817,8.476a2.046,2.046,0,0,1-.027,2.913C193.267,33.613,191.337,36.58,189.312,39.588Z"/><path d="M173.782,26.555a14.757,14.757,0,0,1,3.257,11.575c-.2,1.359.376,1.667,1.686,1.707,1.5.05,1.857-.6,1.825-1.866-.027-1.309.082-2.623-.022-3.923a6.906,6.906,0,0,1,1.268-4.494c1.917-2.931,3.729-5.926,5.554-8.911.259-.422.979-1.11-.167-1.282-1.409-.2-2.791-.322-3.679,1.323-1.486,2.758-3.135,5.436-4.761,8.226-1.613-2.74-3.253-5.286-4.644-7.968-.838-1.618-2.093-1.685-3.556-1.618-1.028.046-1.033.458-.557,1.215C171.259,22.536,172.342,24.684,173.782,26.555Z"/></svg>