<svg id="Layer_1" data-name="Layer 1" xmlns="http://www.w3.org/2000/svg" viewBox="0 0 180 60"><path d="M85.311,25.236c-.7-4.259-3.99-6.339-7.781-5.385a9.215,9.215,0,0,0-3.849,2.038c-.406.351-.634.985-1.4.954.276-4.287,1.257-8.487,1.384-12.7a2.583,2.583,0,0,0-1.955.123c-3.447,1.357-5.1,4.118-5.568,7.565-.967,7.02-1.814,14.06-2.606,21.1-.141,1.257-.64,2.534-.282,3.914A8.606,8.606,0,0,0,69.1,40.6a6.563,6.563,0,0,0,4.087,2.427,8.781,8.781,0,0,0,7.619-2.62C84.967,36.146,86.247,30.934,85.311,25.236Zm-8.39,10.521c-1.608,2.493-3.426,2.913-6.435,1.4.358-3.984.733-7.884,3.691-10.952.836-.871,1.721-1.618,3.085-1.164A3.628,3.628,0,0,1,78.8,28.245,12.461,12.461,0,0,1,76.921,35.757Z"/><path d="M137.023,20.276c4.608.481,7.076,3.094,7.277,7.312.114,2.4.309,4.806.479,7.387a5.733,5.733,0,0,0,1.232-2.394c.926-2.308,1.722-4.673,2.74-6.939,1.449-3.226,3.821-5.3,7.777-5.489.657,4.9,1.305,9.739,1.968,14.683a1.657,1.657,0,0,0,.745-1.16c.611-1.955,1.211-3.914,1.845-5.861a12.555,12.555,0,0,1,2.849-5.143c1.614-1.631,2.986-2.218,5.815-2.41a10.316,10.316,0,0,1-1.129,3.229c-1.786,4.407-3.562,8.819-5.376,13.215a9.457,9.457,0,0,1-6.734,6.1,5.092,5.092,0,0,1-2.033.067c-.648-4.371-1.308-8.826-1.968-13.286-.617-.045-.606.457-.753.846-.778,2.052-1.524,4.118-2.368,6.143-1.27,3.048-3.244,5.392-6.631,6.224a4.243,4.243,0,0,1-2.036.03Q138.9,31.7,137.023,20.276Z"/><path d="M42.723,20.236a20.016,20.016,0,0,1-1.754,4.805c-1.63,4.072-3.24,8.153-4.972,12.182-1.635,3.8-4.648,5.762-8.542,5.625-.649-4.412-1.3-8.865-2.014-13.688A34.4,34.4,0,0,0,23.3,34.191,23.626,23.626,0,0,1,21,39.148a8.108,8.108,0,0,1-7.269,3.708L10,20.3c4.06.224,6.674,2.643,7.2,6.292.39,2.717.212,5.469.519,8.377.823-.583.868-1.362,1.124-2,.928-2.3,1.751-4.654,2.726-6.939,1.411-3.311,3.674-5.612,7.868-5.887.9,4.856,1.322,9.808,2.374,14.761.7-2.174,1.389-4.349,2.1-6.519a15.65,15.65,0,0,1,2.181-4.763A7.946,7.946,0,0,1,42.723,20.236Z"/><path d="M134.792,26.275c-1.532-5.329-7.058-7.884-12.529-5.794-7.254,2.771-9.808,10.921-7.946,16.843a7.81,7.81,0,0,0,5.492,5.543,10.709,10.709,0,0,0,10.635-2.555,14.1,14.1,0,0,0,4.682-10.4A15.751,15.751,0,0,0,134.792,26.275ZM126.209,36.79a2.916,2.916,0,0,1-5.467-1.6,13.98,13.98,0,0,1,1.108-7.492,5.048,5.048,0,0,1,1.98-2.3c1.845-1.057,3.646-.5,4.156,1.566A11.648,11.648,0,0,1,126.209,36.79Z"/><path d="M55.365,37.227a9.477,9.477,0,0,1-2.737.806c-2.71.237-4.342-1.519-4.018-4.294a7.208,7.208,0,0,1,2.358-.475,22.73,22.73,0,0,0,6.969-1.935c2.737-1.335,3.99-3.453,3.735-6.138-.22-2.3-2.2-4.366-4.841-5.127a10.689,10.689,0,0,0-7.116.465c-7.392,2.954-9.22,11.131-7.454,16.856a7.607,7.607,0,0,0,6.111,5.447,12.7,12.7,0,0,0,12.773-4.383A4.691,4.691,0,0,0,55.365,37.227ZM52.852,24.461c1.3-.276,1.666-.048,2.7,1.47-1.074,3.075-4.024,2.606-6.462,3.2C49.67,26.964,50.417,24.981,52.852,24.461Z"/><path d="M91.04,19.953c1.13-7.155,5.916-10.714,12.868-9.717-.117.854-.221,1.714-.357,2.568a2.5,2.5,0,0,1-2.288,2.327c-2.265.2-3.184,1.536-3.48,3.566-.052.357-.15.708-.249,1.164,1.416.627,2.939-.03,4.292.458.152,3.139-.806,4.149-4.654,4.854-.495,4.1-.993,8.228-1.493,12.359a39.532,39.532,0,0,1-.906,6.072c-.77,2.713-2.195,4.951-5,6.024a3.243,3.243,0,0,1-2.525.189c1.332-8.165,2.1-16.422,3.147-24.592-1.009-.618-2.058.007-2.98-.582A4.943,4.943,0,0,1,91.04,19.953Z"/><path d="M101.865,45.116c1.973-11.78,2.9-23.425,4.644-34.957,3.3.462,5.285,2.755,5.567,6.187.218,2.658-.337,5.256-.623,7.868-.46,4.214-1.074,8.411-1.627,12.614a10.038,10.038,0,0,1-3.2,6.556A6.5,6.5,0,0,1,101.865,45.116Z"/></svg>