<svg id="Layer_1" data-name="Layer 1" xmlns="http://www.w3.org/2000/svg" xmlns:xlink="http://www.w3.org/1999/xlink" viewBox="0 0 230 60"><defs><style>.cls-1{clip-path:url(#clip-path);}.cls-2{clip-path:url(#clip-path-2);}.cls-3{clip-path:url(#clip-path-3);}</style><clipPath id="clip-path"><circle cx="32.581" cy="14.891" r="9.66"/></clipPath><clipPath id="clip-path-2"><circle cx="45.38" cy="37.109" r="9.66"/></clipPath><clipPath id="clip-path-3"><circle cx="19.66" cy="37.109" r="9.66"/></clipPath></defs><circle cx="32.581" cy="14.891" r="9.66"/><g class="cls-1"><path d="M23.233,18.1a1.389,1.389,0,0,1-.261-.961,1.594,1.594,0,0,1,.693-.793A15.84,15.84,0,0,1,34.727,13.68a14,14,0,0,1,7.5,3.213,3.264,3.264,0,0,1-.447,1.44c-.607.129-.945-.358-1.373-.616-5.17-3.116-10.348-3.264-15.557-.093C24.363,17.917,23.926,18.474,23.233,18.1Z"/><path d="M22.725,14.972a4.12,4.12,0,0,1,.24-2.183c1.16.278,2.095-.452,3.045-.828,5.172-2.047,10.141-1.187,15.077.774a3.292,3.292,0,0,1,1.187.8.155.155,0,0,1,.016.182c.1.46.313,1.008-.14,1.319-.475.325-.89-.14-1.3-.368a17.77,17.77,0,0,0-6.6-2.061A16.574,16.574,0,0,0,25.4,14.183C24.562,14.549,23.759,15.2,22.725,14.972Z"/><path d="M23.651,10.8a3.314,3.314,0,0,1,.979-1.65,22.01,22.01,0,0,1,13.84-.686,20.818,20.818,0,0,1,2.206.95,4.9,4.9,0,0,1,.924,1.7.766.766,0,0,1-.993.151c-1.079-.688-2.386-.667-3.51-1.186a8.055,8.055,0,0,0-2.726-.355A16.988,16.988,0,0,0,25.659,10.8a4.187,4.187,0,0,1-1.625.4C23.787,11.205,23.535,11.162,23.651,10.8Z"/><path d="M22.725,14.972a58.826,58.826,0,0,1,5.628-2.316,15.319,15.319,0,0,1,6.151-.362,17.006,17.006,0,0,1,6.984,2.368c.717.429.733.409.8-.95a3.668,3.668,0,0,1,.005,2.474c-.71.148-1.206-.327-1.747-.627a18.651,18.651,0,0,0-7.643-2.044c-3.364-.3-6.162.987-9.024,2.311-.353.164-.67.464-1.114.339Z"/><path d="M23.651,10.8c.648.384,1.27-.045,1.768-.248A18.282,18.282,0,0,1,32.46,9.309a36.612,36.612,0,0,1,6.729.921c.846.154,1.423,1.081,2.411.884q.22.727.442,1.455c-.7.342-1.211-.237-1.77-.436a23.668,23.668,0,0,0-7.8-1.481A20.911,20.911,0,0,0,24.126,12.4c-.366.152-1.059.724-.943-.4A1.921,1.921,0,0,1,23.651,10.8Z"/><path d="M26.113,7.533a9.651,9.651,0,0,1,12.8-.054c-.044.836-.643.62-1.123.566-1.3-.146-2.572-.451-3.876-.612a20.588,20.588,0,0,0-6.491.628C26.39,8.259,26.276,8.274,26.113,7.533Z"/><path d="M23.183,12c.175.813.554.25.84.109a14.271,14.271,0,0,1,5.905-1.756c2.5-.026,5.068-.295,7.586.524,1.541.5,3.039,1.071,4.528,1.688l.232.961A31.593,31.593,0,0,0,35,11.345a15.949,15.949,0,0,0-8.745.911,16.217,16.217,0,0,0-2.632,1.052c-.608.4-.64-.089-.657-.519A.952.952,0,0,1,23.183,12Z"/><path d="M22.767,16.165c2.553-1.533,5.239-2.976,8.225-3.019a19.56,19.56,0,0,1,6.493.778,33.988,33.988,0,0,1,4.81,2.262c-.024.236-.049.472-.073.707-1.343-.4-2.417-1.332-3.7-1.845a16.3,16.3,0,0,0-9.332-.776c-2.343.445-4.239,1.714-6.222,2.863A1.336,1.336,0,0,1,22.767,16.165Z"/><path d="M26.113,7.533c.121.685.542.4.908.275a17.94,17.94,0,0,1,5.322-.857,16.425,16.425,0,0,1,5.221.715c.407.12,1,.56,1.351-.187.828.427,1.153,1.308,1.761,1.935a32.112,32.112,0,0,1-4.15-1.007,21.3,21.3,0,0,0-10.717.683c-.356.115-.765.567-1.179.06A4.087,4.087,0,0,1,26.113,7.533Z"/><path d="M26.353,22.587a1.653,1.653,0,0,1-.731-.638c-.081-.8.532-1.123,1.057-1.447A10.709,10.709,0,0,1,37.4,19.787a9.108,9.108,0,0,1,1.822,1.349.605.605,0,0,1,.168.85,1.536,1.536,0,0,1-.745.66.5.5,0,0,1-.208-.114c-2.819-3.254-8.447-2.65-11.3-.492A3.323,3.323,0,0,1,26.353,22.587Z"/><path d="M23.87,19.569l-.206-.449c-.129-.483.2-.744.514-.978a14.023,14.023,0,0,1,17.021.226,1.214,1.214,0,0,1,.377.457,1.656,1.656,0,0,1-.5.992,15.239,15.239,0,0,0-5.77-2.809,13.056,13.056,0,0,0-10.079,1.969C24.82,19.242,24.489,19.755,23.87,19.569Z"/><path d="M41.576,18.825c-.88-.222-1.455-.94-2.221-1.358a13.38,13.38,0,0,0-7.7-1.809c-2.925.295-5.868,1.076-7.989,3.461a1.605,1.605,0,0,1-.431-1.023,4.368,4.368,0,0,0,1.773-.955,13.6,13.6,0,0,1,7.852-2.136,14.613,14.613,0,0,1,8.917,3.328A.5.5,0,0,1,41.576,18.825Z"/><path d="M23.87,19.569a13.663,13.663,0,0,1,9.7-3.143A12.673,12.673,0,0,1,40.9,19.389c.106.088.123.283.182.428l-.26.436a2.3,2.3,0,0,1-1.155-.586c-3.882-2.652-8.037-2.841-12.33-1.247a11.532,11.532,0,0,0-2.91,2.061A1.729,1.729,0,0,1,23.87,19.569Z"/><path d="M24.425,20.481a4.067,4.067,0,0,1,2.728-2.333c4.8-1.784,9.412-1.433,13.541,1.9a.726.726,0,0,1,.126.2,1.178,1.178,0,0,1-.489.694c-1.4-.816-2.624-1.9-4.277-2.325a11.792,11.792,0,0,0-10.473,1.769c-.286.212-.534.5-.951.363Z"/><path d="M39.393,21.986A5.167,5.167,0,0,0,35.98,19.6a11,11,0,0,0-3.013-.6,9.612,9.612,0,0,0-7.345,2.948l-.239-.244c-.356-.742.285-.974.7-1.287a24.468,24.468,0,0,1,3.715-1.871,1.032,1.032,0,0,1,.31-.126,4.441,4.441,0,0,0,1.27-.176,2.72,2.72,0,0,1,.661-.138,11.1,11.1,0,0,1,1.237.016,10.186,10.186,0,0,1,6.243,2.2c.31.227.722.39.589.9A1.72,1.72,0,0,1,39.393,21.986Z"/><path d="M26.353,22.587c.338-.985,1.276-1.248,2.066-1.662a10.209,10.209,0,0,1,7.359-.569,4,4,0,0,1,2.87,2.291l-.446.323a1.511,1.511,0,0,1-.541-.247c-3.279-2.355-6.606-2.208-9.965-.182a2.329,2.329,0,0,1-.871.378Z"/><path d="M26.825,22.919c3.1-3.094,9.155-2.813,11.377.051l-.527.362c-.625-.093-1.04-.588-1.592-.821a7.858,7.858,0,0,0-7.9.532,2.543,2.543,0,0,1-.629.347A1.237,1.237,0,0,1,26.825,22.919Z"/><path d="M31.9,18.336l-.482.24a1.523,1.523,0,0,0-1.206,0h-.241a18.456,18.456,0,0,0-4.586,2.4.488.488,0,0,1-.557.04l-.2-.262c3.784-3.3,8.127-3.614,12.656-2.087a5.012,5.012,0,0,1,3.045,2.28l-.227.283c-1.772-1.71-3.759-2.915-6.359-2.695-.127.011-.267-.129-.4-.2A1.852,1.852,0,0,0,31.9,18.336Z"/><path d="M29.5,24.3a1.89,1.89,0,0,1-.986-.416c-.093-.463.273-.648.566-.808a6.963,6.963,0,0,1,6.852-.052c.345.176.725.389.58.9a1.758,1.758,0,0,1-1,.39A8.41,8.41,0,0,0,29.5,24.3Z"/><path d="M29.5,24.3a5.263,5.263,0,0,1,6.011.018A8.584,8.584,0,0,1,29.5,24.3Z"/><path d="M27.554,23.39A4.082,4.082,0,0,1,30.729,21.6c2.528-.4,4.995-.29,6.946,1.731L37,23.7a7.013,7.013,0,0,0-5.825-1.41,14.057,14.057,0,0,0-3.144,1.362A.532.532,0,0,1,27.554,23.39Z"/><path d="M28.027,23.648c1.944-1.9,4.28-2.06,6.767-1.489A3.641,3.641,0,0,1,37,23.7l-.486.229c-1.271-1.374-4.117-1.882-6.167-1.075a4.051,4.051,0,0,0-1.831,1.031A.54.54,0,0,1,28.027,23.648Z"/><path d="M24.825,21.016a20.825,20.825,0,0,1,3.864-2.141c.416-.132.852-.2,1.279-.3-.025.564-.539.527-.872.647a14.028,14.028,0,0,0-2.959,1.5c-.376.246-.731.483-.754.986A1.339,1.339,0,0,1,24.825,21.016Z"/><path d="M30.209,18.576a.814.814,0,0,1,1.206,0C31.013,18.5,30.611,18.842,30.209,18.576Z"/><path d="M31.9,18.336a1.1,1.1,0,0,1,1.448,0Z"/></g><circle cx="45.38" cy="37.109" r="9.66"/><g class="cls-2"><path d="M46.607,27.449a3.679,3.679,0,0,1,2.005.455,25.458,25.458,0,0,1-.591,5.684,16.861,16.861,0,0,1-4.308,7.517c-1.351,1.453-3.311,2.208-5.059,3.178A2.527,2.527,0,0,1,37.62,43.12c.47-.826,1.425-.912,2.124-1.388a10.591,10.591,0,0,0,3.775-3.364,2.381,2.381,0,0,1,.345-.392,13.848,13.848,0,0,0,2.661-6.3A13.745,13.745,0,0,0,46.607,27.449Z"/><path d="M50.272,28.644a1.816,1.816,0,0,1,1.1.769,12.571,12.571,0,0,1-.744,5.526A18.151,18.151,0,0,1,42.16,45.7a3.251,3.251,0,0,1-.891.346L40.1,45.466c-.3-.664.32-.692.646-.876A19.483,19.483,0,0,0,45.4,40.882a6.2,6.2,0,0,0,.641-1,14.311,14.311,0,0,0,3.43-7.617,7.952,7.952,0,0,0,.19-2.6C49.6,29.3,49.539,28.666,50.272,28.644Z"/><path d="M53.328,31.323A3.456,3.456,0,0,1,54.293,33c-.576,1.233-.744,2.593-1.211,3.864A22.527,22.527,0,0,1,47.068,45.8,10.434,10.434,0,0,1,45.4,46.951l-1.451-.063c-.709-.688.183-.747.431-.986,1.943-1.883,4.053-3.6,5.414-6.02a21.043,21.043,0,0,0,2.716-7.588C52.57,31.845,52.658,31.312,53.328,31.323Z"/><path d="M53.328,31.323c-1,.755-.619,1.963-.879,2.933a19.724,19.724,0,0,1-5.8,9.882c-.882.8-1.545,1.836-2.692,2.333-.188.082-.062.275-.01.417a1.559,1.559,0,0,1-.962-.22c-.657-.417-.342-.815.074-1.123.547-.405,1.1-.8,1.628-1.23A18.961,18.961,0,0,0,51.617,31.47c.06-.495-.223-1.351.849-1.145A2.415,2.415,0,0,1,53.328,31.323Z"/><path d="M52.466,30.325c-.47.051-.532.367-.553.766a18.652,18.652,0,0,1-3.37,9.513,18.444,18.444,0,0,1-5.174,5.048c-.428.288-.724.5-.381,1.016a3.651,3.651,0,0,1-1.719-.619c.958-1.021,2.282-1.526,3.35-2.442a19.134,19.134,0,0,0,5.7-8.633,48.617,48.617,0,0,0,1.052-5.561C51.746,29.705,52.242,29.852,52.466,30.325Z"/><path d="M38.654,44.283c.317-.906,1.277-1.129,1.939-1.455,4.507-2.219,6.451-6.176,7.426-10.727.23-1.076.667-2.29.154-3.471-.174-.4.151-.567.439-.725.243.027.5.021.665.248a13.844,13.844,0,0,1-1.163,7.974c-.5,1.131-1.209,2.137-1.748,3.238a17.452,17.452,0,0,1-1.487,1.693,4.425,4.425,0,0,1-1.17,1.235c-1.519.755-2.723,2.045-4.379,2.568A1.194,1.194,0,0,1,38.654,44.283Z"/><path d="M45.4,46.951c.352-.779,1.17-1.061,1.743-1.607a22.3,22.3,0,0,0,6.439-11.235c.109-.462.1-.978.71-1.111.049.528.675.829.561,1.421a22.579,22.579,0,0,1-4.2,8.97c-.619.795-1.435,1.375-2.087,2.124a4.516,4.516,0,0,0-.967,1.2A4.238,4.238,0,0,1,45.4,46.951Z"/><path d="M47.6,46.708c-.507-.578.155-.766.4-1.008a22.644,22.644,0,0,0,3.923-4.634,20.729,20.729,0,0,0,2.423-6.032.822.822,0,0,1,.512-.615,4.271,4.271,0,0,1,.407,2.191,22.1,22.1,0,0,1-4.828,8.615c-.127.151-.3.263-.279.49A4.55,4.55,0,0,1,47.6,46.708Z"/><path d="M35.793,39.252a2.51,2.51,0,0,1-.209-1.187,5.359,5.359,0,0,0,3.946-2.25,8.462,8.462,0,0,0,2.335-7.062.83.83,0,0,1,.163-.787,1.224,1.224,0,0,1,.965-.255,3.6,3.6,0,0,1,.521,2.514,10.8,10.8,0,0,1-6.486,9.194C36.6,39.62,36.127,39.868,35.793,39.252Z"/><path d="M42.028,27.966c1.071,3.946-1.431,8.4-5.018,10.171-.487.24-.988.679-1.426-.072l-.026-.5a17.461,17.461,0,0,0,2.917-2.027,7.767,7.767,0,0,0,2.518-6.18,4.234,4.234,0,0,1,.032-.948A1.54,1.54,0,0,1,42.028,27.966Z"/><path d="M36.691,41.7c-.269-.2-.3-.508-.392-.788.142-.445.561-.538.915-.709a11.7,11.7,0,0,0,7.063-10.57c.041-.734-.388-1.5.143-2.2v.015a.937.937,0,0,1,.76-.036,7,7,0,0,1,.2,4.1,12.791,12.791,0,0,1-8.219,10.112A1.2,1.2,0,0,1,36.691,41.7Z"/><path d="M36.691,41.7a12.689,12.689,0,0,1,2.481-1.423c3.979-2.6,6.11-6.186,5.994-11-.015-.6,0-1.2,0-1.8.944-.239.826.56.876,1a13.338,13.338,0,0,1-7.406,13.236,2.436,2.436,0,0,1-1.707.425C36.722,42.064,36.709,41.881,36.691,41.7Z"/><path d="M35.793,39.252a.811.811,0,0,0,.89.018,10.716,10.716,0,0,0,6.36-7.912,17.732,17.732,0,0,0-.05-3.647.847.847,0,0,1,.723-.214,2.689,2.689,0,0,1,.527,2.044A11.736,11.736,0,0,1,37.626,39.96c-.477.252-.989.591-1.581.244Z"/><path d="M36.045,40.2a11.154,11.154,0,0,0,7.683-8.694,10,10,0,0,0-.012-4.013l.7-.063a13.557,13.557,0,0,1-.739,6.621A12.4,12.4,0,0,1,36.3,40.913Z"/><path d="M36.926,42.147a13.95,13.95,0,0,0,6.489-4.883,14.18,14.18,0,0,0,2.432-6.209,11.776,11.776,0,0,0-.158-2.792c-.031-.328.018-.77-.526-.782l-.744-.032a2.544,2.544,0,0,1,1.968-.031c.558.8.3,1.7.285,2.559a13.29,13.29,0,0,1-2.436,7.563,6.444,6.444,0,0,0-1.079,1.246,5.233,5.233,0,0,1-.533.61c-.431.486-1.008.8-1.472,1.249a3.9,3.9,0,0,1-1.1.824,9.234,9.234,0,0,0-1.417.836,1.285,1.285,0,0,1-1.532.1Z"/><path d="M46.129,39.485c.1-1.321,1.156-2.179,1.64-3.335a13.848,13.848,0,0,0,1.31-5.9,11.984,11.984,0,0,1,.2-2.1,1.72,1.72,0,0,1,.995.491.919.919,0,0,0-.351.964c.278,3.455-.935,6.467-2.664,9.352a2.265,2.265,0,0,1-1.128,1.006l-.1-.1A.366.366,0,0,1,46.129,39.485Z"/><path d="M50.154,45.715c-.338-.5.181-.766.379-1.008a27.812,27.812,0,0,0,4.506-7.821,1.142,1.142,0,0,1,.222-.276C55.318,40.624,53.832,43.78,50.154,45.715Z"/><path d="M41.025,28.407a6.568,6.568,0,0,1-1.552,6.479c-1.024,1.215-2.092,2.543-3.915,2.676l0-.489c.728-.957,1.9-1.371,2.71-2.265a8.269,8.269,0,0,0,2.148-5.028c.033-.374-.226-.573-.3-.867A1.469,1.469,0,0,1,41.025,28.407Z"/><path d="M35.731,35.572a1.658,1.658,0,0,1,.256-1.159c1.378-.4,1.931-1.547,2.415-2.719a7.287,7.287,0,0,0,.463-1.836,1.754,1.754,0,0,1,.94-.738c.506-.11.505.285.537.578.22,1.99-1.807,5.515-3.683,6.382C36.187,36.3,35.579,36.572,35.731,35.572Z"/><path d="M35.731,35.572c.045.4.192.544.631.37,1.823-.718,4.047-4.649,3.672-6.558-.019-.1-.15-.177-.229-.264l.3-.207c.549.063.7.331.637.9a8.475,8.475,0,0,1-5.19,7.263A2.388,2.388,0,0,1,35.731,35.572Z"/><path d="M43.958,37.562a13.637,13.637,0,0,0,2.411-7.18c.012-.988.012-1.976.018-2.964a.274.274,0,0,1,.22.031,2.822,2.822,0,0,1,.474,2.372c-.26,3.1-.983,6.045-3.123,8.462A.52.52,0,0,1,43.958,37.562Z"/><path d="M38.865,29.858c.436.931-.1,1.729-.417,2.519a6.269,6.269,0,0,1-1.755,2.206c-.322.294-.608.455-.706-.17A8.028,8.028,0,0,1,38.865,29.858Z"/><path d="M43.716,42.128l.965-1.2c.557-.21.741-.976,1.448-.962h0c-.294,1.509-1.614,2.188-2.622,3.072A38.908,38.908,0,0,1,40.1,45.466c-.26-.023-.386-.213-.511-.405a.26.26,0,0,1,.114-.394A32.3,32.3,0,0,0,43.716,42.128Z"/><path d="M43.716,42.128a9.951,9.951,0,0,1-2.93,2.184c-.409.232-.911.322-1.2.749l-.259-.2A19.322,19.322,0,0,1,43.716,42.128Z"/><path d="M37.1,42.4c1.254.2,1.918-1.014,3-1.236.291.364,0,.534-.241.721a12.229,12.229,0,0,1-2.236,1.232A1.313,1.313,0,0,1,37.1,42.4Z"/><path d="M39.857,41.888l.241-.721.965-.721a3.289,3.289,0,0,0,1.447-1.2.829.829,0,0,1,.483-.48c.188-.239.358-.53.723-.241A8.546,8.546,0,0,1,39.857,41.888Z"/><path d="M43.716,38.523l-.723.241c.059-.61.516-.9.965-1.2v.721Z"/><path d="M46.129,39.965c-.552.217-.76.949-1.448.962a5.191,5.191,0,0,1,1.448-1.442Z"/><path d="M42.51,39.244c-.128.824-.759,1.047-1.447,1.2A7.129,7.129,0,0,1,42.51,39.244Z"/></g><circle cx="19.66" cy="37.109" r="9.66"/><g class="cls-3"><path d="M16.424,27.929a4,4,0,0,1,2.2-.5.675.675,0,0,1,.2.657c-.606,4.787,1.354,8.628,4.617,11.884a6.756,6.756,0,0,0,3.247,1.97c.488.108,1.167.285.861,1.106a1.776,1.776,0,0,1-.956.988A11.822,11.822,0,0,1,20.294,39.7a15.237,15.237,0,0,1-3.708-10.469C16.6,28.792,16.435,28.369,16.424,27.929Z"/><path d="M13.74,29.362a2,2,0,0,1,1.034-.691c.548-.067.561.363.574.691a26.1,26.1,0,0,0,.842,5.029,15.724,15.724,0,0,0,2.535,5.087,16.543,16.543,0,0,0,3.925,3.963,6.073,6.073,0,0,0,1.859,1.068c.336.1.713.225.629.718-.429.206-.635.76-1.2.758a15.181,15.181,0,0,1-6.571-5.574,18.2,18.2,0,0,1-2.9-6,9.548,9.548,0,0,1-.575-3.748A3.51,3.51,0,0,0,13.74,29.362Z"/><path d="M22.731,46.425a2.993,2.993,0,0,1-1.681.471,6.854,6.854,0,0,0-1.381-1.331,19.669,19.669,0,0,1-7.66-14.137,1.193,1.193,0,0,0-.062-.351,2.29,2.29,0,0,1,.894-.966c.512-.082.611.256.631.642a22.62,22.62,0,0,0,2.477,8.314,10.923,10.923,0,0,0,1.994,2.545c1.269,1.423,2.441,2.978,4.245,3.832C22.554,45.618,23.049,45.827,22.731,46.425Z"/><path d="M11.947,31.077c.5.146.448.669.474.965a19.124,19.124,0,0,0,5.892,12.031,29.658,29.658,0,0,0,2.376,1.967c.278.225.636.405.361.856l-1.208.054a15.065,15.065,0,0,1-4.1-3.768A23.021,23.021,0,0,1,10.9,32.751,4.076,4.076,0,0,1,11.947,31.077Z"/><path d="M22.731,46.425a.6.6,0,0,0-.341-.591c-2.06-.7-3.232-2.469-4.643-3.909a15.412,15.412,0,0,1-3.858-7.342c-.313-1.311-1.089-2.6-.666-4.063.027-.092-.248-.271-.382-.409a1.659,1.659,0,0,1,.9-.749c1.005.194.545,1.131.448,1.437a4.776,4.776,0,0,0,.423,2.968,17.305,17.305,0,0,0,1.4,3.953,21.82,21.82,0,0,0,5.761,6.821c.709.517,1.716.581,2.173,1.444A1.521,1.521,0,0,1,22.731,46.425Z"/><path d="M25.138,45.227c-.942-.7-2.082-1.026-3.014-1.8a17.141,17.141,0,0,1-6.279-9.356,20.129,20.129,0,0,1-.729-4.806.7.7,0,0,0-.342-.6,1.53,1.53,0,0,1,.961-.483c.817.165.581.865.593,1.334a15.757,15.757,0,0,0,8.144,13.949c.53.316,1.316.473,1.4,1.309C25.691,45.033,25.5,45.265,25.138,45.227Z"/><path d="M25.872,44.78c-1.667-1.28-3.621-2.129-5.1-3.719a15.967,15.967,0,0,1-4.711-11.523,1.583,1.583,0,0,0-.328-1.35.8.8,0,0,1,.689-.259c.77.327.482,1.06.478,1.564A15.383,15.383,0,0,0,21.513,40.6a22.362,22.362,0,0,0,5.074,3.437Z"/><path d="M17.6,46.732a4.729,4.729,0,0,1-2.638-.969,36.231,36.231,0,0,1-3.416-5.126c-.466-.956-.946-1.9-1.351-2.9a.692.692,0,0,1-.273.6,6.553,6.553,0,0,1,.3-3.907c.616-.193.925-.066,1.034.673a12.627,12.627,0,0,0,1.5,4.018,23.462,23.462,0,0,0,4.732,6.583C18.114,46.286,18.094,46.308,17.6,46.732Z"/><path d="M17.6,46.732c.522-.381.016-.486-.183-.668A26.713,26.713,0,0,1,11.085,36.2c-.2-.492.113-1.083-.3-1.576-.189-.223-.3-.331-.562-.188a3.38,3.38,0,0,1,.683-1.682c.968.817.8,2.088,1.16,3.125a20.749,20.749,0,0,0,6,9.2,24.32,24.32,0,0,1,1.778,1.878A4.5,4.5,0,0,1,17.6,46.732Z"/><path d="M27.543,43.05c-.031-.621-.533-.777-.985-.881-1.654-.378-2.759-1.516-3.954-2.6a15.51,15.51,0,0,1-2.347-3.083c-1.155-1.728-1.4-3.818-1.894-5.807a8.156,8.156,0,0,1,.26-3.247,2.007,2.007,0,0,1,1.412-.1c-.823,1.045-.6,2.282-.463,3.415a12.278,12.278,0,0,0,3.465,7.681,9.639,9.639,0,0,0,3.869,2.719,1.75,1.75,0,0,1,1.292.963A2.03,2.03,0,0,1,27.543,43.05Z"/><path d="M21.285,27.49l.723.2c.854.824.444,1.924.47,2.849a9.155,9.155,0,0,0,2.313,5.377,13.513,13.513,0,0,0,4.485,3.335c-.024.336.019.69-.259.958a.869.869,0,0,1-.91.006,11.537,11.537,0,0,1-7.092-12.2A.976.976,0,0,1,21.285,27.49Z"/><path d="M29.276,39.253c-2.457-.488-4-2.2-5.429-4.05a9.459,9.459,0,0,1-1.458-3,8.652,8.652,0,0,1-.27-3.13,7.889,7.889,0,0,0-.111-1.385,2.3,2.3,0,0,1,1.515.456c-.784,3.042.948,7.051,3.861,8.928a11,11,0,0,1,2.062,1.447A.8.8,0,0,1,29.276,39.253Z"/><path d="M28.2,42.11a13.6,13.6,0,0,1-7.75-6.933A16.405,16.405,0,0,1,19.137,28.7a1.229,1.229,0,0,1,.9-1.369.846.846,0,0,1,.793.113,2.47,2.47,0,0,0-.683,2.07A12.284,12.284,0,0,0,27.537,40.79c.356.17.775.236,1,.62A1.083,1.083,0,0,1,28.2,42.11Z"/><path d="M28.532,41.41a12.336,12.336,0,0,1-8.477-9.733,24.054,24.054,0,0,1-.225-2.846c-.01-.732.208-1.25,1-1.386l-.007,0c.217,1.416-.086,2.852.249,4.277a11.682,11.682,0,0,0,6.661,8.4c.4.188.82.338,1,.793A.45.45,0,0,1,28.532,41.41Z"/><path d="M28.733,40.92a12.082,12.082,0,0,1-7.157-6.627,10.169,10.169,0,0,1-.755-6.846l.464.043c-.172,2.966.137,5.8,1.893,8.358a11.459,11.459,0,0,0,5.839,4.363Z"/><path d="M9.922,38.34l.092-1.4c.9,1.4,1.308,2.707,1.978,3.872a20.973,20.973,0,0,0,2.89,4.2c.211.222.534.455.08.757A9.051,9.051,0,0,1,9.922,38.34Z"/><path d="M29.446,38.523a9.539,9.539,0,0,1-6.207-7.159,7.015,7.015,0,0,1-.279-2.128c.041-.463.068-.88.563-1.088l.492.229a8.709,8.709,0,0,0,3.664,8.1c.607.436,1.417.6,1.806,1.328Z"/><path d="M29.485,37.8c-3.641-1.6-5.666-4.312-5.783-8.334-.012-.386-.106-.817.312-1.091l.435.209a3.658,3.658,0,0,1,.288,1.264,7.514,7.514,0,0,0,3.487,6.172,6.247,6.247,0,0,1,1.276,1.06Z"/><path d="M29.5,37.082a8.12,8.12,0,0,1-5.051-8.5l.914.575a7.366,7.366,0,0,0,2.57,5.82c.482.423,1.133.611,1.531,1.139Z"/><path d="M29.464,36.12c-2.846-.969-4.917-4.482-4.1-6.959l.529.4c.437,1.572.75,3.193,2.015,4.4a4.691,4.691,0,0,0,1.377,1.131A1.348,1.348,0,0,1,29.464,36.12Z"/><path d="M29.284,35.094c-.331.376-.614.053-.8-.129-1.522-1.481-2.826-3.079-2.591-5.4a1.834,1.834,0,0,1,.87.81,6.187,6.187,0,0,0,2.27,3.773A1.358,1.358,0,0,1,29.284,35.094Z"/><path d="M29.032,34.147c-1.308-.282-2.541-2.333-2.27-3.773A7.185,7.185,0,0,1,29.032,34.147Z"/></g><path d="M216.607,14.689c-1.893-.019-1.888,0-1.922,1.932,0,.208.143.488-.176.618-4.995-5.192-14.512-4.559-19.685.978a14.5,14.5,0,0,0,.137,19.985c5.287,5.489,14.537,5.927,19.673.734.807,2.251,1.734,3.043,3.567,3.1,1.594.051,1.79-.138,1.79-1.758q0-11.1,0-22.206C219.984,14.136,220.4,14.723,216.607,14.689ZM205.329,37.531a9.389,9.389,0,1,1,9.33-9.339A9.345,9.345,0,0,1,205.329,37.531Z"/><path d="M152.326,14.675c-.761.048-1.526.009-2.289.009-1.64.005-1.645.022-1.676,1.705-.008.283.178.633-.169.862-4.92-5.153-14.4-4.605-19.606.882a14.508,14.508,0,0,0-.024,19.989c5.3,5.579,14.611,6.021,19.748.819.85,2.311,1.775,3.07,3.7,3.1,1.463.022,1.659-.167,1.661-1.645q0-7.5,0-15.007c0-3.12-.014-6.243.01-9.363C153.688,15.059,153.324,14.614,152.326,14.675Zm-13.3,22.856a9.388,9.388,0,1,1,9.317-9.354A9.349,9.349,0,0,1,139.024,37.531Z"/><path d="M91.708,14.684c-2.584.005-2.584,0-2.717,2.652-5.334-5.422-14.734-4.461-19.7.768a14.492,14.492,0,0,0-.476,19.54,14.023,14.023,0,0,0,9.38,4.869,12.659,12.659,0,0,0,10.8-3.6c.546,1.842,1.522,3.081,3.541,3.132,1.611.039,1.811-.138,1.811-1.737q0-11.465,0-22.93C94.35,14.428,94.476,14.679,91.708,14.684ZM79.78,37.531A9.388,9.388,0,1,1,89.016,28.1,9.353,9.353,0,0,1,79.78,37.531Z"/><path d="M186.266,28.87a28.682,28.682,0,0,0-.236-5.391c-.89-4.594-3.424-7.842-7.992-9.159-4.422-1.274-8.51-.739-11.748,3.023a3.227,3.227,0,0,0-3.633-2.629c-1.483.032-1.656.165-1.657,1.658q0,10.212,0,20.424c0,1.321.022,2.643-.007,3.964-.021.972.393,1.4,1.379,1.334.761-.047,1.527-.008,2.29-.009,1.561,0,1.636-.073,1.637-1.628q0-6.908,0-13.816a8.318,8.318,0,0,1,.763-3.729,7.313,7.313,0,0,1,8.138-3.924,7.2,7.2,0,0,1,5.751,6.935q.069,7.329,0,14.657c-.009,1.162.415,1.608,1.559,1.516a15.091,15.091,0,0,1,2.29,0c1.088.08,1.5-.344,1.491-1.453C186.243,36.719,186.28,32.794,186.266,28.87Z"/><path d="M116.747,27.355a34.557,34.557,0,0,0-6.118-2.114,12.907,12.907,0,0,1-3.6-1.3,2.38,2.38,0,0,1-.24-4.1,4.311,4.311,0,0,1,1.716-.833,9.037,9.037,0,0,1,7.156,1.182c.991.623,1.572.463,2.13-.5a21.484,21.484,0,0,1,1.377-1.966c.5-.681.466-1.255-.3-1.7-4.463-2.586-9.118-3.242-13.928-1.121a7.294,7.294,0,0,0-4.621,6.864c-.106,3.213,1.552,5.344,4.225,6.853a19.846,19.846,0,0,0,4.86,1.7,17.008,17.008,0,0,1,4.752,1.642,2.509,2.509,0,0,1,.216,4.43A5.717,5.717,0,0,1,111,37.524a12.837,12.837,0,0,1-7.6-2.249c-.77-.507-1.289-.465-1.785.326a23.1,23.1,0,0,1-1.453,2.061c-.66.832-.456,1.4.384,1.96,2.988,2,6.286,2.944,10.931,2.986a11.613,11.613,0,0,0,6-1.988A7.569,7.569,0,0,0,116.747,27.355Z"/></svg>