<svg id="Layer_1" data-name="Layer 1" xmlns="http://www.w3.org/2000/svg" viewBox="0 0 200 60"><path d="M156.489,29.111c0-5.806-.009-11.613,0-17.419.012-.319.074-.378.415-.39,1.584,0,3.174-.03,4.757.015.556.056.386.739.413,1.135.021,3.625-.043,7.251.027,10.875a.294.294,0,0,0,.537.167c.248-.43.73-.644.99-1.064.427-.071.654-.535,1.107-.562a2.35,2.35,0,0,1,1.577-.467c.977.091,2.139-.3,2.952.4,4.4,2.122,2.779,12.361,3.086,16.67-.287,2.814-.4,6.212-2.793,8.113-2.206,1.6-5.385.888-7.2-.958-.279-.956-.879-.292-.945.351-.1.359.076,1.025-.454,1.039-1.3.06-2.6.015-3.907.023-.526,0-.555-.045-.567-.594Q156.486,37.778,156.489,29.111Zm5.644,5.638c.187,2.527-.4,5.438.268,7.834,1.539,1.2,3.065.876,3.758-.992.7-3.562.421-7.195.455-10.814a12.042,12.042,0,0,0-.947-4.819c-.636-.439-1.476-.82-2.128-.152a2.516,2.516,0,0,0-1.4,2.658Q162.129,31.607,162.133,34.749Z"/><path d="M118.884,44.177A5.8,5.8,0,0,1,114.23,47.5c-.6.42-1.152.086-1.752-.066a3.641,3.641,0,0,1-2.443-1.088,6.685,6.685,0,0,1-1.484-4.851q0-9.738,0-19.488c1.612-.4,3.431-.027,5.118-.151.3,0,.614-.043.59.382.044,6.512-.065,13.032.056,19.54-.015.465.388.736.447,1.154,1.228.759,1.252.376,2.486.031.085-.289.461-.3.553-.576.064-.275.481-.228.426-.557.045-6.343,0-12.688.018-19.032,0-1.064-.116-.935.96-.94,1.331-.007,2.662,0,3.993,0,.6-.054.834.087.757.728q0,11.811,0,23.621c-.011.627.07.891-.677.832C118.72,46.834,119.993,48.126,118.884,44.177Z"/><path d="M79.122,41.163c-.2-2.121.462-4.474-.372-6.46-.062-.817-.55-1.54-.58-2.36,0-.37-.368-.554-.362-.926a2.243,2.243,0,0,0-.16-.909c-.449-.759-.153-1.717-.643-2.42-.136-.75-.417-1.51-.595-2.265.021-.535-.345-.923-.429-1.438.04-.629-.4-1.083-.437-1.7a2.021,2.021,0,0,0-.383-1.191c-.148-.307.023-.7-.222-.968a1.735,1.735,0,0,1-.3-.947,9.056,9.056,0,0,1-.478-2.036c-.513-.508-.241-1.277-.566-1.824a.434.434,0,0,1-.179-.364c.143-.806-1.177-2.328-.2-2.767,1.669,0,3.344-.04,5.012.02.34.031.35.042.4.413.495,1.545.618,3.211,1.1,4.8.333.664.028,1.571.441,2.219a1.425,1.425,0,0,1,.177.814c.02.766.428,1.437.449,2.224.05.3,0,.62.272.863.1,1.324.577,2.634.668,3.975.41.74.888-.92.85-1.279a1.769,1.769,0,0,1,.311-1.207c.262-.563.037-1.241.362-1.81.3-.678.057-1.484.509-2.117.11-1.192.524-2.37.687-3.544.568-.795.05-1.823.622-2.589a.934.934,0,0,0,.152-.73c-.051-.726.382-1.332.472-2.022.016-.239.31-.317.539-.289,1.529,0,3.058,0,4.588,0,.835-.032.54,1.107.278,1.549-.42,1.5-.809,3.024-1.23,4.525-.35.565-.19,1.285-.544,1.855a1.073,1.073,0,0,0-.153.568c.017.506-.371.878-.439,1.355-.4,2.091-1.2,4.107-1.665,6.223-.553,2.256-1.425,4.433-1.929,6.664a2.4,2.4,0,0,0-.324,1.544c0,3.314.005,6.627,0,9.941-.015.421-.061.478-.5.48C77.131,47.061,79.519,47.875,79.122,41.163Z"/><path d="M105.581,34.414c.01,3.925.332,9.76-3.325,12.117-1.907,1.107-4.223.964-6.394.878-.516.08-.894-.252-1.37-.35a4.55,4.55,0,0,1-3.159-2.543c-.016-.23-.358-.331-.386-.617a.7.7,0,0,0-.265-.6,14.421,14.421,0,0,1-.649-3.119,73.863,73.863,0,0,1-.266-8.194c.115-1.27.2-2.59.405-3.85.393-.654.152-1.483.548-2.11a6.862,6.862,0,0,1,2.439-3.566c2.152-1.327,4.775-1.319,7.23-.98C105.9,22.892,105.615,29.786,105.581,34.414Zm-5.843.081h.037c-.312-2.176,1.129-9.9-2.5-9.061-1.686.772-1.453,3.373-1.506,4.95.17,3.89-.415,7.907.357,11.727a1.7,1.7,0,0,0,2.511,1.174C100.621,41.609,99.416,36.976,99.738,34.495Z"/><path d="M153.042,34.44q0,5.822,0,11.642c0,1.021.038.96-.982.961-4.838-.152-2.678.868-4.1-2.689-.076.008-.194.039-.216.092a5.437,5.437,0,0,1-1.681,1.942c-1.178,1.09-2.978,1.139-4.512,1.036-2.744-.453-3.383-2.385-3.82-4.869-.332-6.576-.024-13.194-.124-19.784,0-1.023-.1-.906.9-.91,1.359-.006,2.719,0,4.078,0,.906-.119.74.385.757,1.074q0,8.752,0,17.5a4.855,4.855,0,0,0,.467,2.441c.362.17.561.559,1.045.6.834.017,2.343-.819,2.43-1.711.021-6.316,0-12.633.009-18.949,0-1.084-.116-.955.938-.96,1.5,0,3-.016,4.5.009.5.06.228.758.3,1.1Q153.043,28.705,153.042,34.44Z"/><path d="M189.952,36.338c-2.673.229-5.4.009-8.089.083-1-.024-1.633-.1-1.463,1.05.595,1.716-.245,3.817.771,5.375a1.8,1.8,0,0,0,3.1-.587.944.944,0,0,1,.113-.491,4.252,4.252,0,0,0,.34-2.148c.016-.717,1.452-.488,1.9-.281.868-.035,1.737.166,2.609.175.24.023.653.083.634.408a6.157,6.157,0,0,1-.309,2.671,4.914,4.914,0,0,1-3.044,4.03c-2.129,1.22-3.738.8-5.958.77a2.669,2.669,0,0,1-1.282-.37c-.19-.051-.483-.028-.558-.146-.227-.361-.669-.264-.93-.528A4.96,4.96,0,0,1,175.8,43.3c-.416-.394-.351-.925-.427-1.416A6.08,6.08,0,0,1,175,39.731c-.1-4.475-.449-9.049.451-13.438-.053-.321.308-.464.363-.734.05-.828.651-1.389,1-2.073a5.58,5.58,0,0,1,2.608-1.643c1.079-.752,5.454-.713,6.576-.052,1.128.249,1.8,1.261,2.587,2.009.019.576.6.944.567,1.544a.549.549,0,0,0,.119.394c.453.624.223,1.48.4,2.206.008.084-.017.194.026.25a2.319,2.319,0,0,1,.265,1.549C189.946,31.938,190.062,34.151,189.952,36.338Zm-9.532-5.891h-.076c-.125,3.525-.034,2.229,3.547,2.46,1.149.2.429-3.05.615-3.835a5.769,5.769,0,0,1-.238-1.742c-.084-1.913-1.319-2.341-2.946-1.749-.129.4-.525.661-.562,1.106A19.59,19.59,0,0,0,180.42,30.447Z"/><path d="M128,32.111q0-6.883,0-13.767c-.024-.394.136-1.159-.413-1.227-5.446-.438-5.058,1.726-4.98-3.936-.12-.674.538-.581,1.007-.583q7.394,0,14.787,0c.441.039,1.082-.175.989.51-.153.656.414,4.156-.4,3.985-1.06.25-5.492-.663-5.281.8q-.015,14.02,0,28.043c0,1.2.078,1.12-1.087,1.115-1.472-.117-3.2.2-4.566-.165-.153-4.905,0-9.857-.054-14.778Z"/><path d="M65.506,16.365a7.107,7.107,0,0,0-4.995-5c-17.958-1.841-26.389-1.795-44.35-.047a7.25,7.25,0,0,0-5,5.043C10,20.8,10,30,10,30s0,9.243,1.166,13.631a7.107,7.107,0,0,0,5,5c18,1.839,26.365,1.8,44.35.047a7.106,7.106,0,0,0,4.995-5c1.166-4.434,1.166-13.631,1.166-13.631S66.72,20.8,65.506,16.365ZM32.687,38.492V21.5L47.44,30Z"/></svg>