<svg id="Layer_1" data-name="Layer 1" xmlns="http://www.w3.org/2000/svg" viewBox="0 0 200 60"><path d="M28.975,19.561a9.763,9.763,0,1,0,9.914,9.813A9.757,9.757,0,0,0,28.975,19.561Zm.1,16.144a6.379,6.379,0,0,1-.057-12.756,6.378,6.378,0,1,1,.057,12.756Z"/><path d="M41.61,18.967a2.143,2.143,0,0,1-2.265,2.494A2.244,2.244,0,0,1,37,19.306c.081-1.536.8-2.446,2.22-2.49A2.11,2.11,0,0,1,41.61,18.967Z"/><path d="M48.386,21.441a10.95,10.95,0,0,0-10.84-11.03c-5.592-.105-11.187-.117-16.775,0A10.942,10.942,0,0,0,10.024,21.53c-.024,5.256-.04,10.512,0,15.764A10.931,10.931,0,0,0,21.062,48.32c2.693.033,5.389,0,8.086,0s5.39.025,8.083,0A10.94,10.94,0,0,0,48.386,37.21Q48.478,29.325,48.386,21.441ZM44.7,37.448c-.17,4.593-2.924,7.29-7.63,7.468-5.24.2-10.5.21-15.744,0-5-.2-7.549-3-7.711-8.01-.081-2.555-.016-5.114-.016-7.674h.024c0-2.688-.1-5.385.025-8.07.214-4.6,2.349-6.934,6.95-7.29a120.126,120.126,0,0,1,16.937-.028c4.46.287,7.015,2.931,7.173,7.455C44.893,26.677,44.889,32.071,44.7,37.448Z"/><path d="M73.907,18.562q.06,8.885-.021,17.77a10.014,10.014,0,0,1-1.58,5.555,3.176,3.176,0,0,1-2.378,1.585c1.537-8.385.376-16.686.845-25.156a9.2,9.2,0,0,0-3.044,10.649c.149.429.865.942.133,1.379-.542.324-1.011-.2-1.419-.505-1.807-1.335-2.592-4.27-1.727-6.813a12.432,12.432,0,0,1,5.451-6.542C72.047,15.308,73.891,16.363,73.907,18.562Z"/><path d="M189.8,34.949c-.093.077-.226.134-.263.231-.509,1.229-.477,3.307-2.239,3.028-1.618-.25-1.367-2.256-1.436-3.6-.125-2.487-.032-4.986-.1-7.476-.036-1.306-.521-2.394-2-2.612-1.508-.226-1.957.877-2.362,1.985-.7,1.9-1.386,3.805-2.272,6.247-.153-2.511-.174-4.395-.416-6.251a2.114,2.114,0,0,0-2.062-2.1c-1.266-.053-1.739.8-2.123,1.787-.449,1.164-.93,2.321-1.4,3.477a8.191,8.191,0,0,1-.368-2.931,2,2,0,0,0-2.191-2.3c-1.763-.024-.882,1.346-.934,2.058-.239,3.214.38,6.477-.425,9.651-.267,1.047-.606,2.515-2.021,2.414-1.432-.1-1.537-1.549-1.581-2.669-.109-2.486-.089-4.981-.126-7.471a15.956,15.956,0,0,0-.068-2.018c-.215-1.528-1.529-2.3-2.729-1.391-.647.489-.8.235-1.246,0-2.543-1.3-4.71-.614-6.065,1.965a13.516,13.516,0,0,0-1.233,8.446c.219,1.488-.012,2.762-1.556,2.952-1.646.21-1.763-1.314-1.893-2.519a31.9,31.9,0,0,1,.429-7.844c.327-2.365-.611-3.162-2.846-2.308-1.116.428-1.812.618-2.345-.72a1.857,1.857,0,0,0-2.612-1.2c-1.226.578-1.3,1.739-.862,2.956,1,2.781-.477,7.055-3.012,8.713,0-2.972.053-5.936-.016-8.9-.045-1.848-1.573-2.661-3.012-1.533-.587.457-.679.32-1.148.012-2.224-1.451-3.979-1.127-5.536,1.032a11.975,11.975,0,0,0-1.953,9.04c.239,1.634.32,3.267-1.621,3.425-2.131.17-1.738-1.824-1.783-3.122-.089-2.826,0-5.656-.036-8.486-.025-2.127-1.161-2.879-3.025-1.876-.651.351-.655-.126-.881-.292-2.2-1.633-4.249-1.362-5.891.87a11.82,11.82,0,0,0-1.949,6.275c-.113,1.4.041,2.858-.829,4.1-.566.8-1.043,1.989-2.24,1.686-1.063-.271-1.1-1.492-1.136-2.386-.1-2.49-.064-4.985-.048-7.476.008-1.269-.312-2.769.25-3.744.526-.918,2.115-.206,3.223-.38a3.319,3.319,0,0,0,.4-.056,1.475,1.475,0,0,0,1.165-1.468c-.017-.983-.874-.594-1.375-.615-3.287-.141-3.287-.125-3.36-3.4a1.135,1.135,0,0,1,0-.2c.129-1.795-1.274-2.155-2.487-2.276-1.435-.146-1.431,1.071-1.4,2.126.021.607-.056,1.221.017,1.816.165,1.293-.279,1.855-1.646,1.69-1.176-.138-2.551-.126-2.438,1.524.117,1.678,1.6.716,2.381.748,1.246.052,1.816.267,1.719,1.662-.126,1.88-.016,3.772-.073,5.656a7.307,7.307,0,0,1-2.341,5.038c-.449-2.693-1.2-4.253-3.4-5.527-1.982-1.144-2.277-2.212-.736-3.869a1.441,1.441,0,0,0,.307-1.686c-.372-.688-1.075-.716-1.763-.668a3.337,3.337,0,0,0-3.1,4.412,3.49,3.49,0,0,1-.6,3.691c-.849,1.209-1.618,2.478-2.483,3.679-.356.494-.534,1.5-1.33,1.193-.683-.259-.449-1.189-.453-1.843-.02-2.693-.057-5.39.012-8.083a2.546,2.546,0,0,0-1.407-2.462c-1.476-.874-3.2-.344-4.245,1.451-1.056,1.812-1.973,3.708-2.948,5.568a47.551,47.551,0,0,1-.307-5.7c-.036-1.173-.869-1.589-1.917-1.634-1.362-.06-.8,1.007-.808,1.585-.049,3.837-.028,7.678-.02,11.519a7.068,7.068,0,0,0,.113,1.4,1.715,1.715,0,0,0,1.884,1.432c1.213.036,1.213-.7,1.27-1.553a12.722,12.722,0,0,1,.323-1.989A19.846,19.846,0,0,1,85.58,27.1c0,3.583-.029,6.66.012,9.736.02,1.383.291,2.8,1.771,3.336,1.447.518,2.393-.554,3.262-1.508a39.38,39.38,0,0,0,4.812-7.351c1.265,1.153,2.664,1.925,3.279,3.457a2.19,2.19,0,0,1-.728,2.867,1.635,1.635,0,0,1-2.47-.4c-.538-.708-1.128-.615-1.719-.085a1.258,1.258,0,0,0-.161,1.953,2.722,2.722,0,0,0,1.31.865c3.27.716,5.931.368,7.993-2.309.59-.772,1.047-1.645,1.726-2.729.538,2.256.538,4.747,3.219,5.248s3.8-1.609,4.981-3.525c2.361,4.475,5.592,4.827,8.952,1.12,2.09,3.408,3.339,3.5,6.853.469a3.861,3.861,0,0,0,3.639,2.033c1.625-.016,2.693-1.112,4.007-2,0,.428.085.7-.012.809-1.141,1.322-2.269,2.66-3.474,3.925a11.733,11.733,0,0,0-3.028,4.468c-.671,2.147.008,3.574,1.9,4.2A5.594,5.594,0,0,0,138.958,48,9.792,9.792,0,0,0,139.4,44.2c-.275-3.42-.049-6.643,2.785-9.1a2.719,2.719,0,0,0,.441-.671,26.049,26.049,0,0,0,2.252-5.171c.554-1.606,1.969-1.407,3.041-1.124.954.254.194,1.229.072,1.847-.489,2.531-.861,5.058.017,7.573,1.1,3.154,3.63,3.8,6.024,1.484.651-.627.857-.6,1.5,0a4.462,4.462,0,0,0,6.049.138,22.5,22.5,0,0,0,1.815-2.067c1.7,3.777,3.421,4.137,6.178,1.395.631.255-.069,1.2.562,1.29a8.137,8.137,0,0,0,2.988.012c.606-.153.271-1.079.3-1.657.045-.874-.048-1.759.024-2.628a13.875,13.875,0,0,1,2.7-7.622,5.385,5.385,0,0,1,.389,2.64c.117,2.078-.166,4.185.424,6.227.3,1.043.627,2.268,1.961,2.216,1.439-.057,1.16-1.428,1.282-2.341a22.16,22.16,0,0,1,2.721-8.172c.327,3.142-.231,5.919.412,8.62.623,2.632,2.192,3.736,4.274,3.113C189.369,39.68,190.473,37.044,189.8,34.949Zm-68.617-3.477A10.984,10.984,0,0,1,120,36.712c-.4.7-.918,1.46-1.815,1.423-.914-.04-1.31-.877-1.593-1.625a10.122,10.122,0,0,1,.5-8.559c.874-1.7,2.434-1.654,3.384.008A6.55,6.55,0,0,1,121.184,31.472Zm14.956-.02a10.517,10.517,0,0,1-1.274,5.418c-1.124,1.783-2.373,1.742-3.21-.162a9.881,9.881,0,0,1,.485-8.915c.784-1.484,2.252-1.443,3.186-.024A6.155,6.155,0,0,1,136.14,31.452Zm0,16.165a3.536,3.536,0,0,1-1.177,1.835,2.267,2.267,0,0,1-2.644.174c-.958-.586-.667-1.488-.295-2.333.966-2.215,2.717-3.732,4.783-5.47A17.935,17.935,0,0,1,136.136,47.617Zm26.293-15.955a9.4,9.4,0,0,1-1.367,5.378c-1.031,1.544-2.244,1.5-3.012-.162a9.886,9.886,0,0,1,.4-9.1c.793-1.5,2.256-1.44,3.194,0A6.44,6.44,0,0,1,162.429,31.662Z"/><path d="M189.8,34.949c-.093.077-.226.134-.263.231-.509,1.229-.477,3.307-2.239,3.028-1.618-.25-1.367-2.256-1.436-3.6-.125-2.487-.032-4.986-.1-7.476-.036-1.306-.521-2.394-2-2.612-1.508-.226-1.957.877-2.362,1.985-.7,1.9-1.386,3.805-2.272,6.247-.153-2.511-.174-4.395-.416-6.251a2.114,2.114,0,0,0-2.062-2.1c-1.266-.053-1.739.8-2.123,1.787-.449,1.164-.93,2.321-1.4,3.477a8.191,8.191,0,0,1-.368-2.931,2,2,0,0,0-2.191-2.3c-1.763-.024-.882,1.346-.934,2.058-.239,3.214.38,6.477-.425,9.651-.267,1.047-.606,2.515-2.021,2.414-1.432-.1-1.537-1.549-1.581-2.669-.109-2.486-.089-4.981-.126-7.471a15.956,15.956,0,0,0-.068-2.018c-.215-1.528-1.529-2.3-2.729-1.391-.647.489-.8.235-1.246,0-2.543-1.3-4.71-.614-6.065,1.965a13.516,13.516,0,0,0-1.233,8.446c.219,1.488-.012,2.762-1.556,2.952-1.646.21-1.763-1.314-1.893-2.519a31.9,31.9,0,0,1,.429-7.844c.327-2.365-.611-3.162-2.846-2.308-1.116.428-1.812.618-2.345-.72a1.857,1.857,0,0,0-2.612-1.2c-1.226.578-1.3,1.739-.862,2.956,1,2.781-.477,7.055-3.012,8.713,0-2.972.053-5.936-.016-8.9-.045-1.848-1.573-2.661-3.012-1.533-.587.457-.679.32-1.148.012-2.224-1.451-3.979-1.127-5.536,1.032a11.975,11.975,0,0,0-1.953,9.04c.239,1.634.32,3.267-1.621,3.425-2.131.17-1.738-1.824-1.783-3.122-.089-2.826,0-5.656-.036-8.486-.025-2.127-1.161-2.879-3.025-1.876-.651.351-.655-.126-.881-.292-2.2-1.633-4.249-1.362-5.891.87a11.82,11.82,0,0,0-1.949,6.275c-.113,1.4.041,2.858-.829,4.1-.566.8-1.043,1.989-2.24,1.686-1.063-.271-1.1-1.492-1.136-2.386-.1-2.49-.064-4.985-.048-7.476.008-1.269-.312-2.769.25-3.744.526-.918,2.115-.206,3.223-.38a3.319,3.319,0,0,0,.4-.056,1.475,1.475,0,0,0,1.165-1.468c-.017-.983-.874-.594-1.375-.615-3.287-.141-3.287-.125-3.36-3.4a1.135,1.135,0,0,1,0-.2c.129-1.795-1.274-2.155-2.487-2.276-1.435-.146-1.431,1.071-1.4,2.126.021.607-.056,1.221.017,1.816.165,1.293-.279,1.855-1.646,1.69-1.176-.138-2.551-.126-2.438,1.524.117,1.678,1.6.716,2.381.748,1.246.052,1.816.267,1.719,1.662-.126,1.88-.016,3.772-.073,5.656a7.307,7.307,0,0,1-2.341,5.038c-.449-2.693-1.2-4.253-3.4-5.527-1.982-1.144-2.277-2.212-.736-3.869a1.441,1.441,0,0,0,.307-1.686c-.372-.688-1.075-.716-1.763-.668a3.337,3.337,0,0,0-3.1,4.412,3.49,3.49,0,0,1-.6,3.691c-.849,1.209-1.618,2.478-2.483,3.679-.356.494-.534,1.5-1.33,1.193-.683-.259-.449-1.189-.453-1.843-.02-2.693-.057-5.39.012-8.083a2.546,2.546,0,0,0-1.407-2.462c-1.476-.874-3.2-.344-4.245,1.451-1.056,1.812-1.973,3.708-2.948,5.568a47.551,47.551,0,0,1-.307-5.7c-.036-1.173-.869-1.589-1.917-1.634-1.362-.06-.8,1.007-.808,1.585-.049,3.837-.028,7.678-.02,11.519a7.068,7.068,0,0,0,.113,1.4,1.715,1.715,0,0,0,1.884,1.432c1.213.036,1.213-.7,1.27-1.553a12.722,12.722,0,0,1,.323-1.989A19.846,19.846,0,0,1,85.58,27.1c0,3.583-.029,6.66.012,9.736.02,1.383.291,2.8,1.771,3.336,1.447.518,2.393-.554,3.262-1.508a39.38,39.38,0,0,0,4.812-7.351c1.265,1.153,2.664,1.925,3.279,3.457a2.19,2.19,0,0,1-.728,2.867,1.635,1.635,0,0,1-2.47-.4c-.538-.708-1.128-.615-1.719-.085a1.258,1.258,0,0,0-.161,1.953,2.722,2.722,0,0,0,1.31.865c3.27.716,5.931.368,7.993-2.309.59-.772,1.047-1.645,1.726-2.729.538,2.256.538,4.747,3.219,5.248s3.8-1.609,4.981-3.525c2.361,4.475,5.592,4.827,8.952,1.12,2.09,3.408,3.339,3.5,6.853.469a3.861,3.861,0,0,0,3.639,2.033c1.625-.016,2.693-1.112,4.007-2,0,.428.085.7-.012.809-1.141,1.322-2.269,2.66-3.474,3.925a11.733,11.733,0,0,0-3.028,4.468c-.671,2.147.008,3.574,1.9,4.2A5.594,5.594,0,0,0,138.958,48,9.792,9.792,0,0,0,139.4,44.2c-.275-3.42-.049-6.643,2.785-9.1a2.719,2.719,0,0,0,.441-.671,26.049,26.049,0,0,0,2.252-5.171c.554-1.606,1.969-1.407,3.041-1.124.954.254.194,1.229.072,1.847-.489,2.531-.861,5.058.017,7.573,1.1,3.154,3.63,3.8,6.024,1.484.651-.627.857-.6,1.5,0a4.462,4.462,0,0,0,6.049.138,22.5,22.5,0,0,0,1.815-2.067c1.7,3.777,3.421,4.137,6.178,1.395.631.255-.069,1.2.562,1.29a8.137,8.137,0,0,0,2.988.012c.606-.153.271-1.079.3-1.657.045-.874-.048-1.759.024-2.628a13.875,13.875,0,0,1,2.7-7.622,5.385,5.385,0,0,1,.389,2.64c.117,2.078-.166,4.185.424,6.227.3,1.043.627,2.268,1.961,2.216,1.439-.057,1.16-1.428,1.282-2.341a22.16,22.16,0,0,1,2.721-8.172c.327,3.142-.231,5.919.412,8.62.623,2.632,2.192,3.736,4.274,3.113C189.369,39.68,190.473,37.044,189.8,34.949Zm-68.617-3.477A10.984,10.984,0,0,1,120,36.712c-.4.7-.918,1.46-1.815,1.423-.914-.04-1.31-.877-1.593-1.625a10.122,10.122,0,0,1,.5-8.559c.874-1.7,2.434-1.654,3.384.008A6.55,6.55,0,0,1,121.184,31.472Zm14.956-.02a10.517,10.517,0,0,1-1.274,5.418c-1.124,1.783-2.373,1.742-3.21-.162a9.881,9.881,0,0,1,.485-8.915c.784-1.484,2.252-1.443,3.186-.024A6.155,6.155,0,0,1,136.14,31.452Zm0,16.165a3.536,3.536,0,0,1-1.177,1.835,2.267,2.267,0,0,1-2.644.174c-.958-.586-.667-1.488-.295-2.333.966-2.215,2.717-3.732,4.783-5.47A17.935,17.935,0,0,1,136.136,47.617Zm26.293-15.955a9.4,9.4,0,0,1-1.367,5.378c-1.031,1.544-2.244,1.5-3.012-.162a9.886,9.886,0,0,1,.4-9.1c.793-1.5,2.256-1.44,3.194,0A6.44,6.44,0,0,1,162.429,31.662Z"/><path d="M28.975,19.561a9.763,9.763,0,1,0,9.914,9.813A9.757,9.757,0,0,0,28.975,19.561Zm.1,16.144a6.379,6.379,0,0,1-.057-12.756,6.378,6.378,0,1,1,.057,12.756Z"/><path d="M41.61,18.967a2.143,2.143,0,0,1-2.265,2.494A2.244,2.244,0,0,1,37,19.306c.081-1.536.8-2.446,2.22-2.49A2.11,2.11,0,0,1,41.61,18.967Z"/><path d="M48.386,21.441a10.95,10.95,0,0,0-10.84-11.03c-5.592-.105-11.187-.117-16.775,0A10.942,10.942,0,0,0,10.024,21.53c-.024,5.256-.04,10.512,0,15.764A10.931,10.931,0,0,0,21.062,48.32c2.693.033,5.389,0,8.086,0s5.39.025,8.083,0A10.94,10.94,0,0,0,48.386,37.21Q48.478,29.325,48.386,21.441ZM44.7,37.448c-.17,4.593-2.924,7.29-7.63,7.468-5.24.2-10.5.21-15.744,0-5-.2-7.549-3-7.711-8.01-.081-2.555-.016-5.114-.016-7.674h.024c0-2.688-.1-5.385.025-8.07.214-4.6,2.349-6.934,6.95-7.29a120.126,120.126,0,0,1,16.937-.028c4.46.287,7.015,2.931,7.173,7.455C44.893,26.677,44.889,32.071,44.7,37.448Z"/><path d="M73.886,36.332a10.014,10.014,0,0,1-1.58,5.555,3.176,3.176,0,0,1-2.378,1.585c1.537-8.385.376-16.686.845-25.156a9.2,9.2,0,0,0-3.044,10.649c.149.429.865.942.133,1.379-.542.324-1.011-.2-1.419-.505-1.807-1.335-2.592-4.27-1.727-6.813a12.432,12.432,0,0,1,5.451-6.542c1.88-1.176,3.724-.121,3.74,2.078Q73.967,27.447,73.886,36.332Z"/><path d="M28.975,19.561a9.763,9.763,0,1,0,9.914,9.813A9.757,9.757,0,0,0,28.975,19.561Zm.1,16.144a6.379,6.379,0,0,1-.057-12.756,6.378,6.378,0,1,1,.057,12.756Z"/><path d="M41.61,18.967a2.143,2.143,0,0,1-2.265,2.494A2.244,2.244,0,0,1,37,19.306c.081-1.536.8-2.446,2.22-2.49A2.11,2.11,0,0,1,41.61,18.967Z"/><path d="M28.975,19.561a9.763,9.763,0,1,0,9.914,9.813A9.757,9.757,0,0,0,28.975,19.561Zm.1,16.144a6.379,6.379,0,0,1-.057-12.756,6.378,6.378,0,1,1,.057,12.756Z"/><path d="M41.61,18.967a2.143,2.143,0,0,1-2.265,2.494A2.244,2.244,0,0,1,37,19.306c.081-1.536.8-2.446,2.22-2.49A2.11,2.11,0,0,1,41.61,18.967Z"/></svg>