<svg id="Layer_1" data-name="Layer 1" xmlns="http://www.w3.org/2000/svg" viewBox="0 0 210 60"><path d="M27.312,29.147c-.046.5-.224.656-.725.646-1.368-.033-2.738.006-4.108-.022-.472-.01-.591.142-.588.6.019,3.033.01,6.067.01,9.1h.045c0,2.993-.014,5.987.013,8.979,0,.553-.166.7-.7.689q-3.288-.042-6.574,0c-.5.006-.679-.116-.678-.648.019-5.989,0-11.976.025-17.963,0-.556-.127-.761-.706-.733-.918.045-1.84,0-2.759.019-.391.008-.568-.107-.565-.529q.024-2.76,0-5.519c0-.451.189-.57.6-.563.939.021,1.88-.014,2.818.021.463.015.617-.125.608-.6-.029-1.448-.051-2.9,0-4.344a8.662,8.662,0,0,1,1.411-4.809,6.7,6.7,0,0,1,4.629-2.683,50.158,50.158,0,0,1,7.434-.251c.268-.006.392.091.392.373q-.009,2.907,0,5.812c0,.372-.224.4-.494.41-1.175.025-2.347.041-3.52.077a1.8,1.8,0,0,0-1.937,1.943c-.026,1.133-.005,2.268-.052,3.4-.021.528.118.712.68.7,1.6-.039,3.21,0,4.813-.022.441,0,.559.094.5.567C27.658,25.578,27.473,27.361,27.312,29.147Z"/><path d="M49.254,40.068c-.11-3.164.266-6.961-.351-10.722a6.2,6.2,0,0,0-3.348-4.869A12.5,12.5,0,0,0,40.232,23.3c-2.951-.094-5.906-.052-8.86-.064-.746,0-.771.039-.835.78-.15,1.758-.277,3.521-.5,5.271-.063.506.061.541.473.539,2.289-.013,4.579.006,6.868-.014a10.513,10.513,0,0,1,1.8.142,2.115,2.115,0,0,1,2.007,1.932c.075.7.022,1.4.086,2.1.036.384-.1.5-.485.494-1.428-.022-2.857-.047-4.284,0a22.129,22.129,0,0,0-4.053.341,5.807,5.807,0,0,0-4.419,3.158,9.063,9.063,0,0,0-.5,5.922,6.485,6.485,0,0,0,6.011,5.451,13.9,13.9,0,0,0,7.711-1.36c1.049-.515,1.1-.514,1.251.6.066.51.244.57.682.565q2.758-.034,5.518,0c.441.006.553-.114.549-.553C49.243,45.966,49.254,43.325,49.254,40.068Zm-7.984.284c-.027.311-.005.626-.005.937.01,1.546.014,1.557-1.47,2.081a5.374,5.374,0,0,1-2.956.388,1.839,1.839,0,0,1-1.514-1.487,1.75,1.75,0,0,1,1.037-2.339,4.242,4.242,0,0,1,1.039-.146c1.093-.017,2.189,0,3.282-.008C41.093,39.774,41.311,39.9,41.27,40.352Z"/><path d="M71.854,47.743c.011.52-.128.738-.673.85a33.4,33.4,0,0,1-7.888.869,13.912,13.912,0,0,1-6.634-1.605,8.875,8.875,0,0,1-4.316-5.971,13.365,13.365,0,0,1-.357-3.189C52,36.8,51.943,34.9,52,33a10.73,10.73,0,0,1,1.651-5.7,9.149,9.149,0,0,1,5.531-3.848,20.878,20.878,0,0,1,7.617-.406c1.516.155,3.006.442,4.5.73a.562.562,0,0,1,.539.665c-.022,1.762-.017,3.523-.005,5.285,0,.4-.051.526-.527.443a33.323,33.323,0,0,0-7.735-.73,8.288,8.288,0,0,0-1.39.169c-1.61.381-2.324,1.365-2.349,3.221-.014,1.094,0,2.192,0,3.527.044,1.01-.036,2.261.044,3.514.139,2.2,1.384,2.807,3.213,2.979a30.7,30.7,0,0,0,8.033-.673c.71-.121.708-.132.71.578C71.832,44.416,71.821,46.079,71.854,47.743Z"/><path d="M96.605,30.588a8.085,8.085,0,0,0-5.994-7.022,17.678,17.678,0,0,0-9.538-.151A8.318,8.318,0,0,0,74.427,31.3a56.851,56.851,0,0,0,.009,9.022,9.083,9.083,0,0,0,7.13,8.577,23.292,23.292,0,0,0,6.852.523,42,42,0,0,0,7.185-.89c.344-.073.56-.173.556-.595-.019-1.8-.015-3.6,0-5.4,0-.36-.075-.474-.468-.41a47.165,47.165,0,0,1-4.816.64,27.506,27.506,0,0,1-6.257-.039,2.575,2.575,0,0,1-2.33-2.2,8.575,8.575,0,0,1-.137-1.453c-.008-.487.147-.637.638-.633,2.23.024,4.461.012,6.691.012q3.375,0,6.749,0c.262,0,.573.083.561-.37A61.463,61.463,0,0,0,96.605,30.588Zm-7.7,2.289c-.022.349-.293.311-.523.311-.939,0-1.879,0-2.818,0v0c-.958,0-1.918,0-2.876,0-.191,0-.376.022-.462-.243A3.968,3.968,0,0,1,83.278,29.4a4.1,4.1,0,0,1,3.1-.559C88.706,29.176,89.022,30.934,88.9,32.877Z"/><path d="M122.792,32.717a26.379,26.379,0,0,0-.278-4.082,6.1,6.1,0,0,0-5-5.321,18.64,18.64,0,0,0-9.255.3c-.77.213-.786.209-.784-.583.008-3.717.011-7.435.034-11.152,0-.458-.089-.617-.59-.53-2.222.395-4.448.772-6.679,1.106-.572.086-.658.33-.656.842.017,5.734.011,11.467.011,17.2h.023c0,5.773.006,11.545-.011,17.318,0,.473.147.658.605.711.93.109,1.853.264,2.782.39a40.462,40.462,0,0,0,11.675.17,9.993,9.993,0,0,0,5.588-2.473c1.838-1.752,2.338-4.043,2.471-6.443C122.865,37.687,122.836,35.2,122.792,32.717Zm-7.953,6.553c-.013,2.444-1.326,3.555-3.684,3.648-1,.039-2-.013-2.991.014-.5.012-.643-.185-.639-.659.019-1.878.008-3.755.008-5.632,0-1.857.011-3.714-.008-5.572a.725.725,0,0,1,.528-.783,8.956,8.956,0,0,1,3.737-.833,2.816,2.816,0,0,1,3.05,3.072C114.843,34.773,114.85,37.021,114.839,39.27Z"/><path d="M148.141,30.909a8.237,8.237,0,0,0-5.907-7.2,17.832,17.832,0,0,0-9.989-.266,8.551,8.551,0,0,0-6.78,7.055,29.769,29.769,0,0,0-.285,5.782,31.607,31.607,0,0,0,.227,5.15A8.566,8.566,0,0,0,131.75,48.7a18.357,18.357,0,0,0,9.558.144,8.488,8.488,0,0,0,6.861-7.7A42.693,42.693,0,0,0,148.141,30.909Zm-7.722,8.708a2.874,2.874,0,0,1-2.466,3.124,5.173,5.173,0,0,1-2.82-.116,2.915,2.915,0,0,1-2.038-2.893c-.032-2.387-.041-4.771,0-7.156a3.041,3.041,0,0,1,3.09-3.1,6.738,6.738,0,0,1,1.807.095,2.836,2.836,0,0,1,2.394,2.717c.055,1.327.011,2.658.011,3.987h.027C140.424,37.388,140.441,38.5,140.419,39.617Z"/><path d="M173.928,36.047c-.049-1.446.072-2.935-.091-4.418-.452-4.132-2.558-6.919-6.449-8.068a18.694,18.694,0,0,0-8.868-.293,9.673,9.673,0,0,0-4.761,2.228,8.643,8.643,0,0,0-2.865,6.066,48.58,48.58,0,0,0,.093,9.773,8.19,8.19,0,0,0,5.369,7.005,17.02,17.02,0,0,0,11.544.186,8.261,8.261,0,0,0,5.729-6.657A32.994,32.994,0,0,0,173.928,36.047Zm-7.958,4.115a2.906,2.906,0,0,1-2.748,2.637,5.508,5.508,0,0,1-2.087-.055,2.845,2.845,0,0,1-2.451-3.042q-.109-3.574-.009-7.154a3.053,3.053,0,0,1,3.233-3.08,6.553,6.553,0,0,1,1.517.08,3.045,3.045,0,0,1,2.62,3.23c0,1.134,0,2.267,0,3.714C165.993,37.507,166.12,38.834,165.97,40.162Z"/><path d="M199.649,48.243c.144.241.468.491.307.77s-.535.106-.813.108c-2.289.012-4.578-.006-6.867.017a.982.982,0,0,1-.983-.542q-3.135-5.277-6.316-10.527c-.166-.274-.347-.778-.592-.711-.354.1-.13.579-.131.885-.014,3.4-.019,6.809.006,10.213,0,.551-.164.692-.7.684-2.112-.03-4.226-.013-6.34-.013-.867,0-.872,0-.873-.862q0-6.488,0-12.974v-4.52h0c0-5.812.01-11.624-.014-17.434,0-.587.171-.827.75-.914,2.213-.335,4.42-.688,6.622-1.082.508-.093.541.08.54.487-.006,2.857.006,5.715.008,8.572q0,6.75,0,13.5c0,.166-.109.4.073.484.231.1.333-.179.421-.315.745-1.145,1.465-2.306,2.2-3.46,1.461-2.308,2.933-4.61,4.376-6.927a.935.935,0,0,1,.9-.5c2.386.014,4.774.005,7.161.013.2,0,.47-.111.587.13.109.221-.1.4-.208.57q-3.593,5.688-7.205,11.365a.919.919,0,0,0,0,1.14Q196.12,42.31,199.649,48.243Z"/><path d="M122.792,32.717a26.379,26.379,0,0,0-.278-4.082,6.1,6.1,0,0,0-5-5.321,18.64,18.64,0,0,0-9.255.3c-.77.213-.786.209-.784-.583.008-3.717.011-7.435.034-11.152,0-.458-.089-.617-.59-.53-2.222.395-4.448.772-6.679,1.106-.572.086-.658.33-.656.842.017,5.734.011,11.467.011,17.2h.023c0,5.773.006,11.545-.011,17.318,0,.473.147.658.605.711.93.109,1.853.264,2.782.39a40.462,40.462,0,0,0,11.675.17,9.993,9.993,0,0,0,5.588-2.473c1.838-1.752,2.338-4.043,2.471-6.443C122.865,37.687,122.836,35.2,122.792,32.717Zm-7.953,6.553c-.013,2.444-1.326,3.555-3.684,3.648-1,.039-2-.013-2.991.014-.5.012-.643-.185-.639-.659.019-1.878.008-3.755.008-5.632,0-1.857.011-3.714-.008-5.572a.725.725,0,0,1,.528-.783,8.956,8.956,0,0,1,3.737-.833,2.816,2.816,0,0,1,3.05,3.072C114.843,34.773,114.85,37.021,114.839,39.27Z"/><path d="M199.956,49.013c-.158.276-.535.106-.813.108-2.289.012-4.578-.006-6.867.017a.982.982,0,0,1-.983-.542q-3.135-5.277-6.316-10.527c-.166-.274-.347-.778-.592-.711-.354.1-.13.579-.131.885-.014,3.4-.019,6.809.006,10.213,0,.551-.164.692-.7.684-2.112-.03-4.226-.013-6.34-.013-.867,0-.872,0-.873-.862q0-6.488,0-12.974v-4.52h0c0-5.812.01-11.624-.014-17.434,0-.587.171-.827.75-.914,2.213-.335,4.42-.688,6.622-1.082.508-.093.541.08.54.487-.006,2.857.006,5.715.008,8.572q0,6.75,0,13.5c0,.166-.109.4.073.484.231.1.333-.179.421-.315.745-1.145,1.465-2.306,2.2-3.46,1.461-2.308,2.933-4.61,4.376-6.927a.935.935,0,0,1,.9-.5c2.386.014,4.774.005,7.161.013.2,0,.47-.111.587.13.109.221-.1.4-.208.57q-3.593,5.688-7.205,11.365a.919.919,0,0,0,0,1.14q3.573,5.9,7.1,11.837C199.793,48.484,200.117,48.734,199.956,49.013Z"/><path d="M96.605,30.588a8.085,8.085,0,0,0-5.994-7.022,17.678,17.678,0,0,0-9.538-.151A8.318,8.318,0,0,0,74.427,31.3a56.851,56.851,0,0,0,.009,9.022,9.083,9.083,0,0,0,7.13,8.577,23.292,23.292,0,0,0,6.852.523,42,42,0,0,0,7.185-.89c.344-.073.56-.173.556-.595-.019-1.8-.015-3.6,0-5.4,0-.36-.075-.474-.468-.41a47.165,47.165,0,0,1-4.816.64,27.506,27.506,0,0,1-6.257-.039,2.575,2.575,0,0,1-2.33-2.2,8.575,8.575,0,0,1-.137-1.453c-.008-.487.147-.637.638-.633,2.23.024,4.461.012,6.691.012q3.375,0,6.749,0c.262,0,.573.083.561-.37A61.463,61.463,0,0,0,96.605,30.588Zm-7.7,2.289c-.022.349-.293.311-.523.311-.939,0-1.879,0-2.818,0v0c-.958,0-1.918,0-2.876,0-.191,0-.376.022-.462-.243A3.968,3.968,0,0,1,83.278,29.4a4.1,4.1,0,0,1,3.1-.559C88.706,29.176,89.022,30.934,88.9,32.877Z"/><path d="M173.928,36.047c-.049-1.446.072-2.935-.091-4.418-.452-4.132-2.558-6.919-6.449-8.068a18.694,18.694,0,0,0-8.868-.293,9.673,9.673,0,0,0-4.761,2.228,8.643,8.643,0,0,0-2.865,6.066,48.58,48.58,0,0,0,.093,9.773,8.19,8.19,0,0,0,5.369,7.005,17.02,17.02,0,0,0,11.544.186,8.261,8.261,0,0,0,5.729-6.657A32.994,32.994,0,0,0,173.928,36.047Zm-7.958,4.115a2.906,2.906,0,0,1-2.748,2.637,5.508,5.508,0,0,1-2.087-.055,2.845,2.845,0,0,1-2.451-3.042q-.109-3.574-.009-7.154a3.053,3.053,0,0,1,3.233-3.08,6.553,6.553,0,0,1,1.517.08,3.045,3.045,0,0,1,2.62,3.23c0,1.134,0,2.267,0,3.714C165.993,37.507,166.12,38.834,165.97,40.162Z"/><path d="M148.141,30.909a8.237,8.237,0,0,0-5.907-7.2,17.832,17.832,0,0,0-9.989-.266,8.551,8.551,0,0,0-6.78,7.055,29.769,29.769,0,0,0-.285,5.782,31.607,31.607,0,0,0,.227,5.15A8.566,8.566,0,0,0,131.75,48.7a18.357,18.357,0,0,0,9.558.144,8.488,8.488,0,0,0,6.861-7.7A42.693,42.693,0,0,0,148.141,30.909Zm-7.722,8.708a2.874,2.874,0,0,1-2.466,3.124,5.173,5.173,0,0,1-2.82-.116,2.915,2.915,0,0,1-2.038-2.893c-.032-2.387-.041-4.771,0-7.156a3.041,3.041,0,0,1,3.09-3.1,6.738,6.738,0,0,1,1.807.095,2.836,2.836,0,0,1,2.394,2.717c.055,1.327.011,2.658.011,3.987h.027C140.424,37.388,140.441,38.5,140.419,39.617Z"/><path d="M49.254,40.068c-.11-3.164.266-6.961-.351-10.722a6.2,6.2,0,0,0-3.348-4.869A12.5,12.5,0,0,0,40.232,23.3c-2.951-.094-5.906-.052-8.86-.064-.746,0-.771.039-.835.78-.15,1.758-.277,3.521-.5,5.271-.063.506.061.541.473.539,2.289-.013,4.579.006,6.868-.014a10.513,10.513,0,0,1,1.8.142,2.115,2.115,0,0,1,2.007,1.932c.075.7.022,1.4.086,2.1.036.384-.1.5-.485.494-1.428-.022-2.857-.047-4.284,0a22.129,22.129,0,0,0-4.053.341,5.807,5.807,0,0,0-4.419,3.158,9.063,9.063,0,0,0-.5,5.922,6.485,6.485,0,0,0,6.011,5.451,13.9,13.9,0,0,0,7.711-1.36c1.049-.515,1.1-.514,1.251.6.066.51.244.57.682.565q2.758-.034,5.518,0c.441.006.553-.114.549-.553C49.243,45.966,49.254,43.325,49.254,40.068Zm-7.984.284c-.027.311-.005.626-.005.937.01,1.546.014,1.557-1.47,2.081a5.374,5.374,0,0,1-2.956.388,1.839,1.839,0,0,1-1.514-1.487,1.75,1.75,0,0,1,1.037-2.339,4.242,4.242,0,0,1,1.039-.146c1.093-.017,2.189,0,3.282-.008C41.093,39.774,41.311,39.9,41.27,40.352Z"/><path d="M27.883,23.8c-.225,1.779-.41,3.562-.571,5.348-.046.5-.224.656-.725.646-1.368-.033-2.738.006-4.108-.022-.472-.01-.591.142-.588.6.019,3.033.01,6.067.01,9.1h.045c0,2.993-.014,5.987.013,8.979,0,.553-.166.7-.7.689q-3.288-.042-6.574,0c-.5.006-.679-.116-.678-.648.019-5.989,0-11.976.025-17.963,0-.556-.127-.761-.706-.733-.918.045-1.84,0-2.759.019-.391.008-.568-.107-.565-.529q.024-2.76,0-5.519c0-.451.189-.57.6-.563.939.021,1.88-.014,2.818.021.463.015.617-.125.608-.6-.029-1.448-.051-2.9,0-4.344a8.662,8.662,0,0,1,1.411-4.809,6.7,6.7,0,0,1,4.629-2.683,50.158,50.158,0,0,1,7.434-.251c.268-.006.392.091.392.373q-.009,2.907,0,5.812c0,.372-.224.4-.494.41-1.175.025-2.347.041-3.52.077a1.8,1.8,0,0,0-1.937,1.943c-.026,1.133-.005,2.268-.052,3.4-.021.528.118.712.68.7,1.6-.039,3.21,0,4.813-.022C27.825,23.228,27.943,23.326,27.883,23.8Z"/><path d="M71.181,48.593a33.4,33.4,0,0,1-7.888.869,13.912,13.912,0,0,1-6.634-1.605,8.875,8.875,0,0,1-4.316-5.971,13.365,13.365,0,0,1-.357-3.189C52,36.8,51.943,34.9,52,33a10.73,10.73,0,0,1,1.651-5.7,9.149,9.149,0,0,1,5.531-3.848,20.878,20.878,0,0,1,7.617-.406c1.516.155,3.006.442,4.5.73a.562.562,0,0,1,.539.665c-.022,1.762-.017,3.523-.005,5.285,0,.4-.051.526-.527.443a33.323,33.323,0,0,0-7.735-.73,8.288,8.288,0,0,0-1.39.169c-1.61.381-2.324,1.365-2.349,3.221-.014,1.094,0,2.192,0,3.527.044,1.01-.036,2.261.044,3.514.139,2.2,1.384,2.807,3.213,2.979a30.7,30.7,0,0,0,8.033-.673c.71-.121.708-.132.71.578,0,1.664-.007,3.327.026,4.991C71.865,48.263,71.726,48.481,71.181,48.593Z"/></svg>