<svg id="Layer_1" data-name="Layer 1" xmlns="http://www.w3.org/2000/svg" viewBox="0 0 210 60"><defs><style>.cls-1{fill-rule:evenodd;}</style></defs><path id="a" class="cls-1" d="M73.581,37.234l-.038-.491h-4.13l.023.553c.254,6.152,4.432,10.228,11.861,10.228,7.087,0,11.906-3.656,11.906-9.19a7.518,7.518,0,0,0-3.038-6.554c-1.533-1.113-3.364-1.74-6.4-2.394l-.668-.142-.662-.138c-5.52-1.147-7.269-2.146-7.269-5.117,0-3.073,2.529-5.029,6.774-5.029,4.13,0,6.74,2.5,6.861,6.446l.017.514h4.1l-.012-.542C92.76,19.233,88.608,15.1,81.9,15.1c-6.578,0-10.922,3.931-10.922,9.019,0,2.984,1.045,5.061,3.04,6.449,1.519,1.058,3.281,1.619,6.387,2.242.318.064.635.127.953.188,2.939.577,4.235.933,5.419,1.617a4.127,4.127,0,0,1,2.2,3.935c0,3.258-2.758,5.114-7.587,5.114-4.623,0-7.492-2.3-7.8-6.427Zm28.253-22.619v-.531H97.758V47.017h4.076V40.8l4.291-4.182,7.662,10.184.159.211h5.07l-.647-.852-9.357-12.335,8.63-8.6.91-.908h-5.539l-.156.157L101.834,35.593ZM140.2,37.025h.5l.031-.5q.025-.4.039-.811c0-.137,0-.263,0-.374,0-6.7-4.451-11.629-11.028-11.629S118.51,28.962,118.51,35.6c0,6.826,4.465,11.928,11.285,11.928a10.709,10.709,0,0,0,10.576-7.674l.215-.691h-4.274l-.126.355a6.517,6.517,0,0,1-6.349,4.211c-3.929,0-6.669-2.689-7.163-6.7H140.2Zm-17.644-3.181c.688-3.655,3.313-6.08,6.886-6.08,3.683,0,6.225,2.346,6.781,6.08H122.558Zm31.358-5.953h.53v-3.6h-4.967V18.137H145.4v6.149h-4.118v3.6H145.4v12.7c0,4.166,2.164,6.425,6.135,6.425a13.1,13.1,0,0,0,1.792-.111,5.269,5.269,0,0,0,.642-.121l.389-.107V42.9l-.644.139c-.189.038-.379.072-.569.1a8.867,8.867,0,0,1-1.228.1c-1.74,0-2.442-.816-2.442-2.862V27.891Zm12.641,19.633A10.35,10.35,0,0,0,177.1,38.858l.124-.638h-4.079l-.1.4a6.334,6.334,0,0,1-6.484,5.107c-4.149,0-7.012-3.315-7.012-8.085,0-4.808,2.857-8.13,7.012-8.13a6.335,6.335,0,0,1,6.484,5.108l.1.4h4.079l-.124-.637a10.348,10.348,0,0,0-10.542-8.666c-6.5,0-11.1,5.288-11.1,11.928C155.459,42.241,160.062,47.524,166.557,47.524Zm18.276-32.91v-.53h-4.067V47.017h4.067V33.7c0-3.9,2.365-6.183,5.953-6.183,3.426,0,5.147,1.99,5.147,5.758V47.017H200V32.674c0-5.323-3.286-8.86-8.706-8.86a8.9,8.9,0,0,0-6.461,2.5V14.615Z"/><g id="b"><polygon class="cls-1" points="46.053 24.879 32.722 50.638 19.391 24.879 46.053 24.879"/><polygon class="cls-1" points="55.663 24.879 36.158 47.389 47.828 24.879 55.663 24.879"/><polygon class="cls-1" points="29.791 47.402 10.279 24.879 18.114 24.879 29.791 47.402"/><polygon class="cls-1" points="32.722 9.494 45.635 23.55 19.809 23.55 32.722 9.494"/><polygon class="cls-1" points="46.379 22.381 34.629 9.362 45.761 10.558 46.379 22.381"/><polygon class="cls-1" points="47.416 12.179 55.936 23.55 48.027 23.55 47.416 12.179"/><polygon class="cls-1" points="18.52 12.179 17.909 23.55 10 23.55 18.52 12.179"/><polygon class="cls-1" points="19.676 10.558 30.808 9.362 30.761 9.415 19.058 22.381 19.676 10.571 19.676 10.558"/><path d="M19.676,10.558v.013L30.761,9.415l.047-.053Z"/></g><g id="c"><polygon class="cls-1" points="29.791 47.402 10.279 24.879 18.114 24.879 29.791 47.402"/></g><g id="d"><polygon class="cls-1" points="55.663 24.879 36.158 47.389 47.828 24.879 55.663 24.879"/></g><g id="e"><polygon class="cls-1" points="46.053 24.879 32.722 50.638 19.391 24.879 46.053 24.879"/></g><g id="f"><polygon class="cls-1" points="30.808 9.362 30.761 9.415 19.058 22.381 19.676 10.571 19.676 10.558 30.808 9.362"/></g><g id="g"><polygon class="cls-1" points="46.379 22.381 34.629 9.362 45.761 10.558 46.379 22.381"/></g><g id="h"><polygon class="cls-1" points="47.416 12.179 55.936 23.55 48.027 23.55 47.416 12.179"/></g><g id="i"><polygon class="cls-1" points="18.52 12.179 17.909 23.55 10 23.55 18.52 12.179"/></g><g id="j"><polygon class="cls-1" points="45.635 23.55 19.809 23.55 32.722 9.494 45.635 23.55"/></g></svg>