<svg id="Layer_1" data-name="Layer 1" xmlns="http://www.w3.org/2000/svg" viewBox="0 0 160 60"><path d="M10,10V50H150.914V10ZM50.69,41.742H43.376v-.6c0-2.944.013-5.888-.009-8.832a13.28,13.28,0,0,0-.2-2.281,2.505,2.505,0,0,0-2.22-2.262c-1.654-.192-2.908.371-3.463,1.647a4.718,4.718,0,0,0-.427,1.715c-.047,2.258-.019,4.518-.019,6.832h2.239v3.782H31.973v-.579c0-3.046.012-6.093-.008-9.139A10.016,10.016,0,0,0,31.775,30a2.461,2.461,0,0,0-2.438-2.25,2.968,2.968,0,0,0-3.343,1.924,5.682,5.682,0,0,0-.35,1.738c-.043,2.108-.021,4.219-.023,6.329a1.929,1.929,0,0,0,.031.228h3.263v3.767H18.305V37.99h2.271V28.078H18.1V24.3h7.49v2.391a6.155,6.155,0,0,1,5.782-2.763,5.589,5.589,0,0,1,5.268,3.685c.131-.244.23-.426.326-.609,2.165-4.129,8.021-3.8,10.162-1.009a6.208,6.208,0,0,1,1.245,3.859c.02,2.484.008,4.968.009,7.453v.654h2.3ZM70.711,37.3a8.7,8.7,0,0,1-7,4.752c-.554.081-1.117.1-1.675.146a11.06,11.06,0,0,1-3.9-.7,7.65,7.65,0,0,1-4.888-5.423,10.6,10.6,0,0,1,.658-7.461,7.71,7.71,0,0,1,4.555-4.074,11.152,11.152,0,0,1,7.458-.059c3.433,1.179,5.191,3.735,5.647,7.25A9.434,9.434,0,0,1,70.711,37.3Zm20.242.651c-.2,1.121-.405,2.24-.593,3.362-.051.306-.133.468-.5.467q-7.3-.019-14.6-.01c-.083,0-.166-.01-.3-.018-.155-.82-.328-1.63-.447-2.448-.024-.155.13-.367.253-.509q4.414-5.09,8.839-10.169c.131-.152.257-.309.433-.521H78.614c-.251.861-.506,1.738-.778,2.676l-3.613-.379c.21-2.065.414-4.072.622-6.1H90.233c.116.806.254,1.606.333,2.412a.9.9,0,0,1-.274.557Q85.809,32.4,81.311,37.519c-.107.121-.2.254-.361.458h2.52c.9,0,1.8-.013,2.706.009a.446.446,0,0,0,.523-.4c.177-.673.379-1.34.61-2a.528.528,0,0,1,.409-.282c1.185.088,2.368.212,3.629.332C91.212,36.432,91.085,37.194,90.953,37.954ZM95.067,24.3h5.165v6.222H95.067Zm5.174,17.479H95.073V35.528h5.168Zm7.669.012c-1.426-.035-2.854-.012-4.36-.012.589-2.078,1.155-4.07,1.72-6.061q2.853-10.071,5.7-20.145c.112-.4.271-.534.69-.524,1.259.031,2.518.012,3.777.012h.615c-.349,1.243-.668,2.4-1,3.558q-3.2,11.3-6.395,22.593C108.535,41.644,108.375,41.8,107.91,41.787Zm10.957-.672c-.147.525-.349.691-.891.674-1.39-.043-2.784-.014-4.246-.014.781-2.765,1.535-5.443,2.293-8.119q2.54-8.964,5.07-17.934c.145-.515.343-.7.893-.681,1.391.046,2.783.016,4.24.016-.224.8-.427,1.552-.638,2.3Q122.221,29.233,118.867,41.115Zm24.883.054a.425.425,0,0,1-.216.3,5.945,5.945,0,0,1-4.253.525,3.357,3.357,0,0,1-2.43-2.751c-.029-.125-.046-.252-.088-.481-.239.337-.416.6-.6.849a6.272,6.272,0,0,1-7.47,2.117,4.69,4.69,0,0,1-2.956-4.779,4.572,4.572,0,0,1,3.024-4.267,11.387,11.387,0,0,1,4.232-.813c1.07-.026,2.141.047,3.212.075.166,0,.332,0,.651,0-.119-.986-.164-1.952-.368-2.882a1.9,1.9,0,0,0-1.567-1.446,5.754,5.754,0,0,0-3.359.246.89.89,0,0,0-.436.485c-.186.507-.309,1.036-.476,1.617l-4-.421c.225-1.318.433-2.572.666-3.821a.582.582,0,0,1,.326-.324,16.169,16.169,0,0,1,8.4-1.4,6.142,6.142,0,0,1,5.127,3.138,5.941,5.941,0,0,1,.616,2.862c0,2.417,0,4.833.006,7.25,0,1.385.312,1.656,1.673,1.542.066,0,.133,0,.3,0C143.76,39.584,143.769,40.377,143.75,41.169Z"/><path d="M65.708,36.222a3.738,3.738,0,0,1-3.733,2.087,3.509,3.509,0,0,1-3.341-2.4,22.576,22.576,0,0,1-.711-2.879,21.238,21.238,0,0,1,.627-2.781,3.578,3.578,0,0,1,3.509-2.475,3.745,3.745,0,0,1,3.88,2.342A7,7,0,0,1,65.708,36.222Z"/><path d="M132.916,38.591A1.775,1.775,0,0,1,131,37.321a2.185,2.185,0,0,1,.855-2.6,5.209,5.209,0,0,1,1.632-.5,7.739,7.739,0,0,1,1.625-.01c.524.029,1.043.116,1.589.18A3.833,3.833,0,0,1,132.916,38.591Z"/></svg>