<svg id="Layer_1" data-name="Layer 1" xmlns="http://www.w3.org/2000/svg" viewBox="0 0 250 60"><path d="M23.3,34.589H15.376L13.093,41.2a.306.306,0,0,1-.285.222H10.462c-.17,0-.233-.085-.19-.254L17.278,21.6a10.719,10.719,0,0,0,.222-1.4.14.14,0,0,1,.159-.158h3.329a.171.171,0,0,1,.19.127l7.514,20.992c.063.169.02.254-.127.254H25.933a.285.285,0,0,1-.253-.191ZM16.01,32.334H22.7q-.033-.063-1.506-4.367t-1.855-5.6h-.032Q18.928,23.792,16.01,32.334Z"/><path d="M38.615,41.734A8,8,0,0,1,32.94,39.7a7.539,7.539,0,0,1-2.187-5.812A7.754,7.754,0,0,1,33.1,28.063a8.385,8.385,0,0,1,6.087-2.271,7.439,7.439,0,0,1,2.474.318V18.456a.168.168,0,0,1,.19-.19h2.5c.106,0,.159.063.159.19V38.464q0,.794.063,1.619c.021.106-.032.19-.158.254A12.051,12.051,0,0,1,38.615,41.734ZM41.659,39V28.428a4.947,4.947,0,0,0-2.5-.54,5.156,5.156,0,0,0-4.011,1.619,6.085,6.085,0,0,0-1.474,4.256,5.616,5.616,0,0,0,1.538,4.319A5.232,5.232,0,0,0,38.9,39.511,5.869,5.869,0,0,0,41.659,39Z"/><path d="M55.64,25.792a6.9,6.9,0,0,1,5.374,2.223,8.191,8.191,0,0,1,2.013,5.717,8.123,8.123,0,0,1-2.061,5.827,7.043,7.043,0,0,1-5.358,2.175,6.766,6.766,0,0,1-5.564-2.35,8.605,8.605,0,0,1-1.918-5.621,8.075,8.075,0,0,1,2.093-5.716A7.056,7.056,0,0,1,55.64,25.792Zm-.127,2.1a3.949,3.949,0,0,0-3.265,1.572,6.678,6.678,0,0,0-1.237,4.24,6.969,6.969,0,0,0,1.237,4.287,4.036,4.036,0,0,0,3.424,1.651,4.084,4.084,0,0,0,3.154-1.476A6.381,6.381,0,0,0,60.142,33.8a7.2,7.2,0,0,0-1.173-4.24A3.956,3.956,0,0,0,55.513,27.888Z"/><path d="M66.926,18.266h2.441c.148,0,.222.063.222.19v8.162a8.627,8.627,0,0,1,3.741-.826,6.793,6.793,0,0,1,5.2,2.1A7.664,7.664,0,0,1,80.5,33.35a8.1,8.1,0,0,1-2.346,6.13,7.813,7.813,0,0,1-5.611,2.254,12.326,12.326,0,0,1-5.644-1.207.3.3,0,0,1-.19-.285V18.456C66.7,18.329,66.778,18.266,66.926,18.266ZM77.579,33.573a5.985,5.985,0,0,0-1.3-4.066,4.432,4.432,0,0,0-3.519-1.492,6.392,6.392,0,0,0-3.171.762V38.94a6.137,6.137,0,0,0,3.107.7,4.431,4.431,0,0,0,3.472-1.619A6.544,6.544,0,0,0,77.579,33.573Z"/><path d="M92.955,34.017H86.17a5.472,5.472,0,0,0,1.268,3.938,4.952,4.952,0,0,0,3.9,1.493,8.68,8.68,0,0,0,3.931-.826c.127-.084.191-.042.191.127V40.5a.274.274,0,0,1-.159.286,9.779,9.779,0,0,1-4.533.952q-3.869,0-5.691-2.27a8.617,8.617,0,0,1-1.823-5.574,8.765,8.765,0,0,1,1.918-5.78,6.375,6.375,0,0,1,5.183-2.318,5.63,5.63,0,0,1,4.676,1.921,6.8,6.8,0,0,1,1.538,4.367,9.557,9.557,0,0,1-.095,1.588.315.315,0,0,1-.253.254A32.359,32.359,0,0,1,92.955,34.017ZM86.17,32.144h5.644a14.4,14.4,0,0,0,2-.064,2.285,2.285,0,0,0,.032-.508A4.4,4.4,0,0,0,93,28.984a3.156,3.156,0,0,0-2.773-1.191,3.445,3.445,0,0,0-2.822,1.238A5.881,5.881,0,0,0,86.17,32.144Z"/><path d="M107.887,41.2V20.012c0-.127.052-.2.158-.222q1.9-.064,5.485-.064,5.262,0,7.973,2.89a10.777,10.777,0,0,1,2.711,7.686,13.149,13.149,0,0,1-1.046,5.478,8.152,8.152,0,0,1-2.806,3.493,12.455,12.455,0,0,1-3.63,1.715,14.484,14.484,0,0,1-3.931.524q-2.187,0-4.756-.095C107.939,41.417,107.887,41.343,107.887,41.2Zm1.522-20.1V40.115q1.14.094,3.392.095a10.129,10.129,0,0,0,7.26-2.493q2.631-2.493,2.632-7.384,0-4.54-2.489-6.923a9.342,9.342,0,0,0-6.738-2.382Q110.169,21.028,109.409,21.092Z"/><path d="M129.414,21.949a.922.922,0,0,1-.729-.286,1.052,1.052,0,0,1-.254-.73,1.082,1.082,0,0,1,.269-.746.994.994,0,0,1,1.427,0,1.082,1.082,0,0,1,.269.746,1.037,1.037,0,0,1-.269.714A.907.907,0,0,1,129.414,21.949Zm-.761,19.277v-14.8a.14.14,0,0,1,.159-.159h1.173c.127,0,.19.053.19.159V41.258c0,.106-.063.159-.19.159h-1.142A.169.169,0,0,1,128.653,41.226Z"/><path d="M136.452,41.417h-1.2c-.106,0-.159-.064-.159-.191V29.507a29.539,29.539,0,0,0-.126-3.08.14.14,0,0,1,.158-.159h1.11a.256.256,0,0,1,.19.127,7.716,7.716,0,0,1,.159,1.779,6.605,6.605,0,0,1,4.914-2.223,4.41,4.41,0,0,1,4.279,2.54,7.288,7.288,0,0,1,5.454-2.54,5.472,5.472,0,0,1,1.679.254,5.311,5.311,0,0,1,1.586.857,3.99,3.99,0,0,1,1.252,1.826,8.38,8.38,0,0,1,.46,2.938v9.432c0,.106-.062.159-.19.159H154.84c-.107,0-.159-.064-.159-.191v-9.4a5.255,5.255,0,0,0-.966-3.271,3.277,3.277,0,0,0-2.775-1.27,5.916,5.916,0,0,0-4.724,2.413,9.935,9.935,0,0,1,.19,2.16v9.368c0,.127-.052.191-.158.191h-1.173a.169.169,0,0,1-.19-.191V31.763a5.089,5.089,0,0,0-.951-3.24,3.268,3.268,0,0,0-2.726-1.207,5.8,5.8,0,0,0-4.6,2.35V41.258A.14.14,0,0,1,136.452,41.417Z"/><path d="M168.948,33.573h-7.291a6.96,6.96,0,0,0,1.363,4.906,5.29,5.29,0,0,0,4.375,1.89,7.693,7.693,0,0,0,3.964-.953c.04-.021.073-.021.094,0a.187.187,0,0,1,.032.127v1.016a.249.249,0,0,1-.1.223,8.46,8.46,0,0,1-4.217.952,6.973,6.973,0,0,1-4.153-1.175,6.159,6.159,0,0,1-2.284-2.858,10.573,10.573,0,0,1-.633-3.747,8.918,8.918,0,0,1,1.807-5.733,5.849,5.849,0,0,1,4.82-2.27,6.26,6.26,0,0,1,2.742.571,4.427,4.427,0,0,1,1.807,1.493,7.324,7.324,0,0,1,.919,1.89,6.571,6.571,0,0,1,.3,1.953,11.631,11.631,0,0,1-.063,1.365c-.042.149-.116.233-.223.254Q171.484,33.573,168.948,33.573Zm-7.26-1.176h6.974a19.44,19.44,0,0,0,2.348-.063,3.5,3.5,0,0,0,.031-.6,6.012,6.012,0,0,0-.317-1.906,3.958,3.958,0,0,0-1.379-1.794,4.72,4.72,0,0,0-6.12.635A6.979,6.979,0,0,0,161.688,32.4Z"/><path d="M176.43,41.226V29.793a29.082,29.082,0,0,0-.127-3.4c0-.084.064-.127.19-.127h1.078a.17.17,0,0,1,.191.127q.063.35.158,1.969a6.7,6.7,0,0,1,5.1-2.413,5.168,5.168,0,0,1,3.281,1.111A4.024,4.024,0,0,1,187.59,28.9a8.472,8.472,0,0,1,.475,3.017v9.305a.168.168,0,0,1-.19.191h-1.142a.168.168,0,0,1-.189-.191V31.985a5.477,5.477,0,0,0-.968-3.382,3.326,3.326,0,0,0-2.837-1.287,5.763,5.763,0,0,0-4.787,2.541V41.226c0,.127-.054.191-.158.191h-1.206C176.483,41.417,176.43,41.353,176.43,41.226Z"/><path d="M199.986,28.237a5.557,5.557,0,0,0-3.361-1.016,3.445,3.445,0,0,0-2.474.746,2.519,2.519,0,0,0-.078,3.525,7.351,7.351,0,0,0,2.647,1.445,8.991,8.991,0,0,1,3.2,1.874,3.764,3.764,0,0,1,.983,2.731,3.653,3.653,0,0,1-1.442,3.113,5.844,5.844,0,0,1-3.6,1.079,7.01,7.01,0,0,1-4.027-1.079.3.3,0,0,1-.126-.255V39.035c0-.127.052-.159.159-.095a5.853,5.853,0,0,0,4.026,1.492,3.964,3.964,0,0,0,2.6-.762,2.408,2.408,0,0,0,.92-1.937,2.646,2.646,0,0,0-.745-1.953,8.138,8.138,0,0,0-2.679-1.509,8.678,8.678,0,0,1-3.092-1.826,3.57,3.57,0,0,1-.967-2.588,3.528,3.528,0,0,1,1.285-2.811,5.124,5.124,0,0,1,3.44-1.095,6.569,6.569,0,0,1,3.392.73.258.258,0,0,1,.127.254V28.11C200.176,28.322,200.112,28.364,199.986,28.237Z"/><path d="M205.375,21.949a.92.92,0,0,1-.729-.286,1.052,1.052,0,0,1-.254-.73,1.077,1.077,0,0,1,.269-.746.994.994,0,0,1,1.427,0,1.082,1.082,0,0,1,.269.746,1.037,1.037,0,0,1-.269.714A.907.907,0,0,1,205.375,21.949Zm-.761,19.277v-14.8a.14.14,0,0,1,.158-.159h1.173c.127,0,.19.053.19.159V41.258c0,.106-.063.159-.19.159h-1.14A.169.169,0,0,1,204.614,41.226Z"/><path d="M212.1,28.205a6.936,6.936,0,0,1,10.161-.079,8.27,8.27,0,0,1,1.949,5.733,8.22,8.22,0,0,1-1.949,5.7,6.475,6.475,0,0,1-5.057,2.175,6.253,6.253,0,0,1-5.262-2.381,8.783,8.783,0,0,1-1.84-5.526A8.17,8.17,0,0,1,212.1,28.205Zm5.009-.984a4.919,4.919,0,0,0-3.964,1.826,7.13,7.13,0,0,0-1.521,4.716,7.525,7.525,0,0,0,1.506,4.764,4.953,4.953,0,0,0,4.137,1.937,5.147,5.147,0,0,0,3.789-1.667,6.741,6.741,0,0,0,1.633-4.907,7.814,7.814,0,0,0-1.411-4.731A4.828,4.828,0,0,0,217.105,27.221Z"/><path d="M228.106,41.226V29.793a29.082,29.082,0,0,0-.127-3.4c0-.084.064-.127.19-.127h1.078a.17.17,0,0,1,.191.127q.063.35.158,1.969a6.7,6.7,0,0,1,5.1-2.413,5.479,5.479,0,0,1,1.68.254,5.534,5.534,0,0,1,1.6.857,4.016,4.016,0,0,1,1.285,1.842,8.472,8.472,0,0,1,.475,3.017v9.305a.168.168,0,0,1-.19.191H238.41a.169.169,0,0,1-.19-.191V31.985a5.483,5.483,0,0,0-.967-3.382,3.33,3.33,0,0,0-2.838-1.287,5.764,5.764,0,0,0-4.787,2.541V41.226c0,.127-.053.191-.158.191h-1.206C228.159,41.417,228.106,41.353,228.106,41.226Z"/></svg>