<svg id="Layer_1" data-name="Layer 1" xmlns="http://www.w3.org/2000/svg" viewBox="0 0 290 60"><path d="M21.09,31.025H31.47a8.523,8.523,0,0,1,.148.944,10.493,10.493,0,0,1,.059,1.106,14.083,14.083,0,0,1-.621,4.228A10,10,0,0,1,29.1,40.847a9.821,9.821,0,0,1-3.4,2.57,10.738,10.738,0,0,1-4.525.911,10.568,10.568,0,0,1-4.347-.911,10.764,10.764,0,0,1-3.548-2.537,12.258,12.258,0,0,1-2.4-3.854,13.769,13.769,0,0,1,0-9.724,12.274,12.274,0,0,1,2.4-3.855,10.776,10.776,0,0,1,3.548-2.536A10.551,10.551,0,0,1,21.178,20a10.474,10.474,0,0,1,4.6.976,10.358,10.358,0,0,1,3.475,2.7l-2.75,2.96A7.424,7.424,0,0,0,24.2,24.8a7.283,7.283,0,0,0-5.8-.065,6.882,6.882,0,0,0-2.278,1.61,7.767,7.767,0,0,0-1.552,2.52,9.734,9.734,0,0,0,0,6.6,7.616,7.616,0,0,0,1.567,2.521,7.052,7.052,0,0,0,2.292,1.61,6.868,6.868,0,0,0,2.78.568,6.81,6.81,0,0,0,2.854-.536,6.663,6.663,0,0,0,2-1.382,5.283,5.283,0,0,0,1.021-1.48,9.012,9.012,0,0,0,.665-2H21.09Z"/><path d="M41.23,27.351a7.419,7.419,0,0,1,3.09.634,7.292,7.292,0,0,1,2.425,1.756,8.127,8.127,0,0,1,1.6,2.683,10.394,10.394,0,0,1,0,6.83,8.138,8.138,0,0,1-1.6,2.683,7.309,7.309,0,0,1-2.425,1.757,7.849,7.849,0,0,1-6.181,0,7.294,7.294,0,0,1-2.424-1.757,8.1,8.1,0,0,1-1.6-2.683,10.394,10.394,0,0,1,0-6.83,8.094,8.094,0,0,1,1.6-2.683,7.278,7.278,0,0,1,2.424-1.756A7.421,7.421,0,0,1,41.23,27.351Zm0,13.042a3.5,3.5,0,0,0,1.434-.31,3.658,3.658,0,0,0,1.227-.894,4.291,4.291,0,0,0,.843-1.432,6.073,6.073,0,0,0,0-3.837,4.306,4.306,0,0,0-.843-1.431,3.658,3.658,0,0,0-1.227-.894,3.519,3.519,0,0,0-2.884,0,3.7,3.7,0,0,0-1.212.894,4.306,4.306,0,0,0-.843,1.431,6.092,6.092,0,0,0,0,3.837,4.291,4.291,0,0,0,.843,1.432,3.7,3.7,0,0,0,1.212.894A3.468,3.468,0,0,0,41.23,40.393Z"/><path d="M58.263,27.351a7.424,7.424,0,0,1,3.091.634,7.3,7.3,0,0,1,2.425,1.756,8.127,8.127,0,0,1,1.6,2.683,10.394,10.394,0,0,1,0,6.83,8.138,8.138,0,0,1-1.6,2.683,7.319,7.319,0,0,1-2.425,1.757,7.849,7.849,0,0,1-6.181,0,7.309,7.309,0,0,1-2.425-1.757,8.121,8.121,0,0,1-1.6-2.683,10.411,10.411,0,0,1,0-6.83,8.111,8.111,0,0,1,1.6-2.683,7.292,7.292,0,0,1,2.425-1.756A7.419,7.419,0,0,1,58.263,27.351Zm0,13.042a3.5,3.5,0,0,0,1.435-.31,3.658,3.658,0,0,0,1.227-.894,4.291,4.291,0,0,0,.843-1.432,6.073,6.073,0,0,0,0-3.837,4.306,4.306,0,0,0-.843-1.431A3.658,3.658,0,0,0,59.7,31.6a3.519,3.519,0,0,0-2.884,0,3.7,3.7,0,0,0-1.212.894,4.306,4.306,0,0,0-.843,1.431,6.092,6.092,0,0,0,0,3.837,4.291,4.291,0,0,0,.843,1.432,3.7,3.7,0,0,0,1.212.894A3.467,3.467,0,0,0,58.263,40.393Z"/><path d="M75.12,51.352a7.906,7.906,0,0,1-2.735-.439A7.512,7.512,0,0,1,70.3,49.775a7.332,7.332,0,0,1-1.478-1.544,6.24,6.24,0,0,1-.858-1.692l3.7-1.626a3.848,3.848,0,0,0,1.36,1.968,3.458,3.458,0,0,0,2.1.7,3.535,3.535,0,0,0,2.9-1.308,5.55,5.55,0,0,0,1.065-3.6v-1.1h-.237a4.879,4.879,0,0,1-1.789,1.642,5.4,5.4,0,0,1-2.617.6,5.863,5.863,0,0,1-2.529-.579,6.661,6.661,0,0,1-2.173-1.659A8.637,8.637,0,0,1,68.2,38.976a9.207,9.207,0,0,1-.591-3.381,9.345,9.345,0,0,1,.591-3.4,8.583,8.583,0,0,1,1.538-2.608,6.634,6.634,0,0,1,2.173-1.659,5.863,5.863,0,0,1,2.529-.579,5.409,5.409,0,0,1,2.617.6A4.89,4.89,0,0,1,78.846,29.6h.237V27.871h3.7v14.8a10.977,10.977,0,0,1-.561,3.627,8.006,8.006,0,0,1-1.568,2.732,6.788,6.788,0,0,1-2.41,1.724A7.851,7.851,0,0,1,75.12,51.352Zm.148-11.382a3.655,3.655,0,0,0,1.4-.288,3.577,3.577,0,0,0,1.228-.846,4.257,4.257,0,0,0,.857-1.373,5,5,0,0,0,.326-1.868,5.129,5.129,0,0,0-.326-1.884,4.219,4.219,0,0,0-.857-1.389,3.55,3.55,0,0,0-1.228-.846,3.637,3.637,0,0,0-1.4-.288,3.529,3.529,0,0,0-1.39.288,3.475,3.475,0,0,0-1.212.861,4.43,4.43,0,0,0-.858,1.39,5.515,5.515,0,0,0,0,3.736,4.225,4.225,0,0,0,.858,1.373,3.593,3.593,0,0,0,1.212.846A3.547,3.547,0,0,0,75.268,39.97Z"/><path d="M86.091,43.807V20.52h3.874V43.807Z"/><path d="M106.851,39.97a8.645,8.645,0,0,1-2.706,3.154,7.012,7.012,0,0,1-4.155,1.2,7.3,7.3,0,0,1-5.5-2.407,8.191,8.191,0,0,1-1.611-2.684,9.629,9.629,0,0,1-.577-3.4,9.482,9.482,0,0,1,.562-3.269,8.48,8.48,0,0,1,1.567-2.7,7.621,7.621,0,0,1,2.381-1.837,6.71,6.71,0,0,1,3.031-.683,7.265,7.265,0,0,1,3.105.634,6.373,6.373,0,0,1,2.278,1.756,7.791,7.791,0,0,1,1.39,2.651,11.182,11.182,0,0,1,.473,3.317v.39a2.375,2.375,0,0,0-.03.358,1.966,1.966,0,0,0-.03.357H96.116A4.772,4.772,0,0,0,96.6,38.49a3.977,3.977,0,0,0,.916,1.17,3.447,3.447,0,0,0,1.2.683,4.249,4.249,0,0,0,1.331.211,3.519,3.519,0,0,0,2.2-.666,4.732,4.732,0,0,0,1.376-1.675Zm-3.519-6.18a2.983,2.983,0,0,0-.251-.944,3.361,3.361,0,0,0-.651-.975,3.4,3.4,0,0,0-1.065-.748,3.621,3.621,0,0,0-1.523-.292,3.339,3.339,0,0,0-2.188.78,4.16,4.16,0,0,0-1.331,2.179Z"/><path d="M123.767,23.383V43.807h-2.722V23.383h-5.914V20.52h14.55v2.863Z"/><path d="M135.33,27.351a6.381,6.381,0,0,1,4.761,1.771,6.633,6.633,0,0,1,1.745,4.863v9.822h-2.6V41.6h-.118a5.1,5.1,0,0,1-4.5,2.732,5.535,5.535,0,0,1-4.007-1.561,5.211,5.211,0,0,1-1.612-3.9,4.924,4.924,0,0,1,1.7-3.934,6.719,6.719,0,0,1,4.54-1.464,7.446,7.446,0,0,1,3.992.975v-.683a3.56,3.56,0,0,0-1.123-2.651,3.667,3.667,0,0,0-2.633-1.088,4.079,4.079,0,0,0-3.607,2.114l-2.4-1.66A6.494,6.494,0,0,1,135.33,27.351Zm-3.52,11.578a2.475,2.475,0,0,0,.9,1.951,3.133,3.133,0,0,0,2.115.781,4.148,4.148,0,0,0,3.061-1.4,4.585,4.585,0,0,0,1.345-3.286,5.239,5.239,0,0,0-3.549-1.1,4.313,4.313,0,0,0-2.765.878A2.679,2.679,0,0,0,131.81,38.929Z"/><path d="M151.18,51.352a7.409,7.409,0,0,1-2.277-.341,7.1,7.1,0,0,1-1.936-.959,6.512,6.512,0,0,1-1.494-1.464,6.387,6.387,0,0,1-.946-1.886l2.573-1.171a4.468,4.468,0,0,0,1.537,2.244,4.043,4.043,0,0,0,2.543.846,4.3,4.3,0,0,0,3.461-1.464,6.039,6.039,0,0,0,1.242-4.033V41.6h-.118a5.541,5.541,0,0,1-2.086,2,5.762,5.762,0,0,1-2.853.733,6.171,6.171,0,0,1-4.879-2.44,9.355,9.355,0,0,1-2.011-6.049,9.227,9.227,0,0,1,2.011-6.017,6.141,6.141,0,0,1,4.879-2.471,5.771,5.771,0,0,1,2.853.731,5.551,5.551,0,0,1,2.086,2h.118V27.871h2.6V43.124a8.617,8.617,0,0,1-1.981,6.017A6.851,6.851,0,0,1,151.18,51.352Zm.09-9.756A4.013,4.013,0,0,0,154.553,40a6.28,6.28,0,0,0,1.33-4.163,6.307,6.307,0,0,0-1.33-4.13,4.036,4.036,0,0,0-3.283-1.627,4.085,4.085,0,0,0-3.283,1.627,6.307,6.307,0,0,0-1.331,4.13,6.23,6.23,0,0,0,1.331,4.131A4.087,4.087,0,0,0,151.27,41.6Z"/><path d="M171.5,43.807h-2.721V20.52H171.5L178.86,34.7h.119l7.364-14.18h2.72V43.807h-2.72V29.985l.118-3.9h-.118l-6.625,12.781h-1.6L171.5,26.082h-.119l.119,3.9Z"/><path d="M197.905,27.351a6.38,6.38,0,0,1,4.762,1.771,6.633,6.633,0,0,1,1.745,4.863v9.822h-2.6V41.6h-.119a5.1,5.1,0,0,1-4.494,2.732,5.535,5.535,0,0,1-4.008-1.561,5.215,5.215,0,0,1-1.612-3.9,4.922,4.922,0,0,1,1.7-3.934,6.714,6.714,0,0,1,4.538-1.464,7.449,7.449,0,0,1,3.993.975v-.683a3.56,3.56,0,0,0-1.123-2.651,3.67,3.67,0,0,0-2.632-1.088,4.081,4.081,0,0,0-3.609,2.114l-2.395-1.66A6.493,6.493,0,0,1,197.905,27.351Zm-3.519,11.578a2.475,2.475,0,0,0,.9,1.951,3.134,3.134,0,0,0,2.114.781,4.145,4.145,0,0,0,3.061-1.4,4.582,4.582,0,0,0,1.346-3.286,5.238,5.238,0,0,0-3.549-1.1,4.311,4.311,0,0,0-2.765.878A2.679,2.679,0,0,0,194.386,38.929Z"/><path d="M207.487,27.871h2.6v2.211h.119a5.472,5.472,0,0,1,8.679-1.057,7.115,7.115,0,0,1,1.435,4.765V43.807H217.6V33.985q-.088-3.9-3.578-3.9a3.3,3.3,0,0,0-2.72,1.447,5.572,5.572,0,0,0-1.094,3.464v8.814h-2.721Z"/><path d="M228.868,27.351a6.378,6.378,0,0,1,4.761,1.771,6.633,6.633,0,0,1,1.745,4.863v9.822h-2.6V41.6h-.118a5.1,5.1,0,0,1-4.5,2.732,5.535,5.535,0,0,1-4.007-1.561,5.211,5.211,0,0,1-1.612-3.9,4.921,4.921,0,0,1,1.7-3.934,6.716,6.716,0,0,1,4.538-1.464,7.447,7.447,0,0,1,3.993.975v-.683a3.556,3.556,0,0,0-1.123-2.651,3.667,3.667,0,0,0-2.632-1.088,4.08,4.08,0,0,0-3.608,2.114l-2.4-1.66A6.5,6.5,0,0,1,228.868,27.351Zm-3.52,11.578a2.475,2.475,0,0,0,.9,1.951,3.136,3.136,0,0,0,2.116.781,4.146,4.146,0,0,0,3.06-1.4,4.585,4.585,0,0,0,1.345-3.286,5.236,5.236,0,0,0-3.548-1.1,4.307,4.307,0,0,0-2.765.878A2.678,2.678,0,0,0,225.348,38.929Z"/><path d="M244.718,51.352a7.4,7.4,0,0,1-2.276-.341,7.093,7.093,0,0,1-1.937-.959,6.532,6.532,0,0,1-1.494-1.464,6.411,6.411,0,0,1-.946-1.886l2.573-1.171a4.463,4.463,0,0,0,1.538,2.244,4.038,4.038,0,0,0,2.542.846,4.3,4.3,0,0,0,3.461-1.464,6.039,6.039,0,0,0,1.242-4.033V41.6H249.3a5.545,5.545,0,0,1-2.085,2,5.768,5.768,0,0,1-2.854.733,6.173,6.173,0,0,1-4.879-2.44,9.355,9.355,0,0,1-2.011-6.049,9.227,9.227,0,0,1,2.011-6.017,6.142,6.142,0,0,1,4.879-2.471,5.777,5.777,0,0,1,2.854.731,5.555,5.555,0,0,1,2.085,2h.118V27.871h2.6V43.124a8.617,8.617,0,0,1-1.981,6.017A6.851,6.851,0,0,1,244.718,51.352Zm.09-9.756A4.012,4.012,0,0,0,248.091,40a6.28,6.28,0,0,0,1.33-4.163,6.307,6.307,0,0,0-1.33-4.13,4.035,4.035,0,0,0-3.283-1.627,4.086,4.086,0,0,0-3.283,1.627,6.307,6.307,0,0,0-1.331,4.13,6.23,6.23,0,0,0,1.331,4.131A4.088,4.088,0,0,0,244.808,41.6Z"/><path d="M261.7,44.328a6.638,6.638,0,0,1-5.265-2.407,9,9,0,0,1-2.07-6.082,9.185,9.185,0,0,1,2.011-6.066,6.394,6.394,0,0,1,5.146-2.422,6.328,6.328,0,0,1,5.13,2.292,9.759,9.759,0,0,1,1.908,6.423l-.03.326H257.14a5.457,5.457,0,0,0,1.42,3.772,4.329,4.329,0,0,0,3.253,1.432q2.6,0,4.08-2.863l2.426,1.3a7.694,7.694,0,0,1-2.706,3.156A6.974,6.974,0,0,1,261.7,44.328ZM257.347,33.92h8.31a4.128,4.128,0,0,0-1.227-2.748,4.055,4.055,0,0,0-2.972-1.09,3.742,3.742,0,0,0-2.648,1.041A5.109,5.109,0,0,0,257.347,33.92Z"/><path d="M273.76,43.807h-2.721V27.871h2.6v2.6h.118a4.244,4.244,0,0,1,1.7-2.163,4.434,4.434,0,0,1,2.528-.894,4.693,4.693,0,0,1,2.011.39l-.828,2.895a4.145,4.145,0,0,0-1.6-.228,3.4,3.4,0,0,0-2.676,1.367,4.821,4.821,0,0,0-1.139,3.187Z"/></svg>