<svg id="Layer_1" data-name="Layer 1" xmlns="http://www.w3.org/2000/svg" viewBox="0 0 270 60"><path d="M260,38.751c-.382.3-.339.8-.582,1.182a5.806,5.806,0,0,1-3.773,2.505,9.655,9.655,0,0,1-4.575-.009c-2.028-.494-3.938-1.522-4.565-4.085a5.236,5.236,0,0,1-.055-.89.5.5,0,0,1,.258-.442,1.128,1.128,0,0,1,1.765.687c.236,1.649,1.572,2.494,3.15,2.829a7.457,7.457,0,0,0,3.33.009,3.612,3.612,0,0,0,2.9-2.2,2.678,2.678,0,0,0-1.271-3.107,14.884,14.884,0,0,0-4.436-1.506,8.637,8.637,0,0,1-3.855-1.772,4.616,4.616,0,0,1-1.017-4.723,5.331,5.331,0,0,1,4.7-3.241,8.614,8.614,0,0,1,4.925.617,5.046,5.046,0,0,1,2.858,3.153c.041.139,0,.339.236.356v1.553a1.076,1.076,0,0,0-.215.067,1.137,1.137,0,0,1-1.847-.816,3.19,3.19,0,0,0-.947-1.8,4.564,4.564,0,0,0-2.623-1.172,5.581,5.581,0,0,0-4.521.986,2.428,2.428,0,0,0-.1,3.622,5.9,5.9,0,0,0,1.664.9c1.378.525,2.848.725,4.243,1.194a6.639,6.639,0,0,1,3.8,2.588c.229.36.126.865.549,1.116Z"/><path d="M29.013,31.185a14.527,14.527,0,0,1-1.5,6.849,8.382,8.382,0,0,1-6.635,4.454,9.871,9.871,0,0,1-3.689-.076,8.8,8.8,0,0,1-5.274-3.345,9.053,9.053,0,0,1-.889-9.758,11.143,11.143,0,0,1,1.207-1.833c.166-.224.388-.529.733-.346.317.168.187.454.1.734a8.764,8.764,0,0,0,.316,6.057c.111.266.211.557.566.5.31-.051.284-.336.292-.575a13.561,13.561,0,0,1,4.738-9.827A9.322,9.322,0,0,1,23.622,21.5a3.07,3.07,0,0,1,3.823,2.09A20.566,20.566,0,0,1,29.013,31.185Z"/><path d="M43.026,34.458q-2.88,0-5.761,0c-.595,0-.638.114-.508.71.981,4.49,6.6,5.827,9.857,2.613a1.952,1.952,0,0,1,1.365-.65,1.529,1.529,0,0,1,1.513.851,1.96,1.96,0,0,1-.527,2.124,8.894,8.894,0,0,1-5.776,2.519,10.207,10.207,0,0,1-5.777-1.15,8.545,8.545,0,0,1-4.374-6.29A9.675,9.675,0,0,1,34.6,27.711a8.608,8.608,0,0,1,6.732-3.722,8.975,8.975,0,0,1,5.356,1.123,7.383,7.383,0,0,1,3.2,3.78,8.473,8.473,0,0,1,.678,4.115,1.453,1.453,0,0,1-1.6,1.418c-1.98.03-3.96.009-5.94.009ZM41.84,31.64c1.5,0,3-.025,4.5.014.516.013.608-.173.538-.61a5.5,5.5,0,0,0-.887-2.286c-1.319-1.92-4.223-2.345-6.412-1.246a5.346,5.346,0,0,0-2.85,3.665c-.1.393.066.473.427.469C38.719,31.632,40.28,31.64,41.84,31.64Z"/><path d="M134.552,33.263c.179,5.132-4.063,9.545-9.88,9.386a9.348,9.348,0,1,1,.289-18.694C130.483,23.945,134.675,27.9,134.552,33.263Zm-3.821.071a6.418,6.418,0,0,0-1.054-3.822,5.236,5.236,0,0,0-3.762-2.349,5.544,5.544,0,0,0-5.247,1.849,6.008,6.008,0,0,0-1.42,3.753,6.435,6.435,0,0,0,1.793,5.166,5.66,5.66,0,0,0,7.357.471A6,6,0,0,0,130.731,33.334Z"/><path d="M99.982,39.937a6.882,6.882,0,0,1-3.739,2.4c-2.693.619-5.284.386-7.329-1.665a5.115,5.115,0,0,1,1.357-8.035,15.969,15.969,0,0,1,5.217-1.355,24.766,24.766,0,0,1,3.888-.168c.361.008.476-.067.458-.453-.118-2.416-1.542-3.521-3.921-3.654A6.679,6.679,0,0,0,91.7,28.228a1.944,1.944,0,0,1-1.846.383,1.331,1.331,0,0,1-.883-1.1,1.687,1.687,0,0,1,.8-1.724A10.108,10.108,0,0,1,95,23.991a9.122,9.122,0,0,1,5.362,1.043,5.689,5.689,0,0,1,2.449,2.809,7.96,7.96,0,0,1,.552,3.088c-.009,3.184,0,6.367,0,9.55a1.885,1.885,0,0,1-.635,1.647,1.653,1.653,0,0,1-1.646.241,1.6,1.6,0,0,1-1.094-1.43C99.959,40.607,99.982,40.271,99.982,39.937Zm-5.16-.292a4.709,4.709,0,0,0,3.794-1.527,5.566,5.566,0,0,0,1.224-3.93c0-.4-.213-.389-.493-.387a31.993,31.993,0,0,0-4.353.307A6.286,6.286,0,0,0,92.7,34.9a2.4,2.4,0,0,0-1.329,2.22,2.271,2.271,0,0,0,1.407,2.147A4.521,4.521,0,0,0,94.822,39.645Z"/><path d="M56.349,26.9a7.6,7.6,0,0,1,2.971-2.344,7.28,7.28,0,0,1,4.738-.346,6.143,6.143,0,0,1,4.571,5.639c.3,3.555.077,7.118.119,10.677a1.737,1.737,0,0,1-1.1,1.8,1.925,1.925,0,0,1-1.922-.242,2.251,2.251,0,0,1-.715-2.042c-.027-2.707.008-5.414-.021-8.121a7.052,7.052,0,0,0-.471-2.73,3.545,3.545,0,0,0-4.083-2.01A4.718,4.718,0,0,0,56.7,31.207,14.022,14.022,0,0,0,56.508,34q.006,3.313,0,6.628A1.742,1.742,0,0,1,55.283,42.4a1.958,1.958,0,0,1-2.087-.637,1.93,1.93,0,0,1-.37-1.228q0-7.256,0-14.51a1.765,1.765,0,1,1,3.521.047C56.351,26.343,56.349,26.619,56.349,26.9Z"/><path d="M178.037,26.579a6.891,6.891,0,0,1,5.615-2.526c2.255.083,4.13.817,5.181,3.052a8.454,8.454,0,0,1,1.5-1.524,7.687,7.687,0,0,1,6.158-1.407c2.691.471,3.966,2.265,4.4,4.805a10,10,0,0,1,.15,1.719q-.012,5.463,0,10.926c0,.783-.065.844-.862.849-1.116.007-1.134-.01-1.134-1.129,0-3.582,0-7.164,0-10.746a6.271,6.271,0,0,0-.656-2.937,3,3,0,0,0-2.522-1.575,5.625,5.625,0,0,0-6.133,3.439,3.684,3.684,0,0,0-.308,1.563c.009,3.463,0,6.926.006,10.389,0,.34.053.787-.264.917a2.044,2.044,0,0,1-1.465,0c-.332-.126-.287-.526-.287-.848,0-3.6.009-7.2,0-10.806a7.769,7.769,0,0,0-.293-2.409,3.09,3.09,0,0,0-3.042-2.246,5.758,5.758,0,0,0-6.168,5.794q0,4.836,0,9.672c0,.872-.052.922-.911.923-1.05,0-1.119-.048-1.12-.908q0-8.119,0-16.24c0-.334-.055-.729.335-.884a1.8,1.8,0,0,1,1.395.008c.266.115.306.391.3.664-.006.469,0,.938,0,1.407Z"/><path d="M78.511,37.877c1.372-3.391,2.744-6.753,4.091-10.125a18.464,18.464,0,0,1,1.18-2.776,1.837,1.837,0,0,1,2.419-.625,1.766,1.766,0,0,1,.779,2.213c-.45,1.157-.953,2.293-1.436,3.437-.965,2.29-1.925,4.582-2.9,6.867-.581,1.359-1.155,2.724-1.8,4.056a2.553,2.553,0,0,1-2.772,1.52,2.7,2.7,0,0,1-2.248-1.8c-.906-2.125-1.8-4.258-2.7-6.384q-1.573-3.695-3.162-7.384A1.866,1.866,0,0,1,72.4,24.308a2.121,2.121,0,0,1,1.122,1.317q2.355,5.911,4.692,11.831C78.27,37.592,78.279,37.773,78.511,37.877Z"/><path d="M105.948,29.373c0-2.765-.016-5.53.007-8.3a1.817,1.817,0,0,1,2.778-1.682,1.856,1.856,0,0,1,.917,1.736c.033.934.025,1.871,0,2.805-.01.386.1.516.5.506.959-.022,1.921-.031,2.878.021a1.445,1.445,0,0,1,1.548,1.576,1.343,1.343,0,0,1-1.363,1.411c-1.019-.007-2.04.02-3.059-.008-.4-.011-.506.12-.5.5.013,3.024,0,6.048.011,9.072a2.07,2.07,0,0,0,1.206,2.185,2.1,2.1,0,0,0,1.511.009,1.5,1.5,0,0,1,2.069,1,1.588,1.588,0,0,1-1,1.861,6.322,6.322,0,0,1-5.366-.367,4.1,4.1,0,0,1-1.906-2.748,9.116,9.116,0,0,1-.235-2.244Q105.953,33.044,105.948,29.373Z"/><path d="M145.789,33.331c-1.88,0-3.761,0-5.642,0-.327,0-.6,0-.574.453a7.258,7.258,0,0,0,2.873,5.876,5.777,5.777,0,0,0,7.579-.827c.218-.274.465-.546.852-.414a1.709,1.709,0,0,1,1,.793.419.419,0,0,1-.08.447,6.525,6.525,0,0,1-4.311,2.815,9.38,9.38,0,0,1-3.391.022,7.269,7.269,0,0,1-4.28-2.5,9.545,9.545,0,0,1-2.261-6.361,11.048,11.048,0,0,1,1.357-5.889,7.255,7.255,0,0,1,9.015-3.389,6.57,6.57,0,0,1,4.017,4.425,11.107,11.107,0,0,1,.435,3.591c0,.76-.2.955-.952.956Q148.611,33.335,145.789,33.331Zm-.723-2h3.9c1.46,0,1.511-.012,1.173-1.431a4.92,4.92,0,0,0-4.744-4.023c-3.079-.068-5.107,2.528-5.6,5.007-.086.438.158.449.47.449Q142.666,31.324,145.066,31.328Z"/><path d="M166.888,33.331c-1.84,0-3.68.021-5.519-.012-.543-.01-.7.161-.649.677.286,2.869,1.369,5.23,4.243,6.351a5.667,5.667,0,0,0,6.313-1.566c.433-.528.72-.53,1.41-.006.415.315.432.7.061,1.186a6.759,6.759,0,0,1-5,2.658,7.86,7.86,0,0,1-8.6-6.137,11.3,11.3,0,0,1,1.2-9.162,7.211,7.211,0,0,1,8.709-2.976,6.847,6.847,0,0,1,4.369,5.777,13.533,13.533,0,0,1,.121,2.32c-.01.68-.2.885-.9.888C170.728,33.336,168.808,33.331,166.888,33.331Zm-.706-2c1.618,0,3.235,0,4.853,0,.328,0,.544-.04.481-.453a6.757,6.757,0,0,0-.933-2.721,4.848,4.848,0,0,0-6.533-1.665A6.25,6.25,0,0,0,161,30.752c-.113.48-.015.589.452.583C163.027,31.317,164.605,31.328,166.182,31.328Z"/><path d="M211.522,33.331c-1.9,0-3.8.009-5.7-.006-.4,0-.595.082-.555.525.231,2.521,1.056,4.7,3.369,6.089a5.8,5.8,0,0,0,7.185-1.143c.451-.551.742-.547,1.41-.025.48.375.491.643.054,1.208-1.8,2.33-4.274,2.91-7.04,2.585a7.345,7.345,0,0,1-5.112-3.071,8.857,8.857,0,0,1-1.761-4.608,12.659,12.659,0,0,1,.378-5.085,7.931,7.931,0,0,1,4.23-5.174,6.779,6.779,0,0,1,7.555.87,7.2,7.2,0,0,1,2.321,3.858,11.829,11.829,0,0,1,.243,3.317c-.009.6-.468.659-.934.66Zm-.779-2c1.62,0,3.239-.011,4.858.007.408,0,.532-.136.474-.524a7.38,7.38,0,0,0-.563-1.989,4.855,4.855,0,0,0-6.144-2.664,5.93,5.93,0,0,0-3.748,4.371c-.22.786-.174.8.686.8Z"/><path d="M222.569,26.6a6.873,6.873,0,0,1,3.9-2.412c2.466-.466,4.889-.029,6.306,1.949a7.475,7.475,0,0,1,1.183,4.467c.02,3.662.008,7.324,0,10.985,0,.822-.082.885-1.028.883-.83,0-.987-.14-.989-.893q-.017-5.79-.025-11.581a5.4,5.4,0,0,0-.445-2.086,2.985,2.985,0,0,0-2.6-1.83c-2.763-.317-4.494.81-5.77,3.256a6.238,6.238,0,0,0-.676,3.031c.029,3.085.011,6.17.009,9.254,0,.8-.064.85-.986.849s-.972-.046-.972-.859q0-8.209,0-16.419c0-.8.109-.885,1.045-.882.8,0,.909.107.914.88,0,.418.007.836.015,1.253C222.455,26.476,222.5,26.5,222.569,26.6Z"/><path d="M241.017,32.668q0,2.865,0,5.729a2.583,2.583,0,0,0,.576,1.768c.552.634,1.318.532,2.05.505a3.088,3.088,0,0,0,.414-.062c1.006-.172,1.559.439,1.272,1.424-.046.156-.074.368-.3.413a6.567,6.567,0,0,1-4.108-.211,3.278,3.278,0,0,1-1.788-2.66,12.556,12.556,0,0,1-.171-2.2c.015-3.5,0-7,.018-10.5,0-.512-.121-.721-.667-.679-.6.046-1.2.014-1.8.009-.575,0-.739-.349-.738-.861,0-.863.122-1.1.707-1.128a12.459,12.459,0,0,1,1.739,0c.635.058.785-.2.759-.785-.043-.973-.017-1.95-.01-2.924.005-.777.142-.888,1.05-.885.809,0,.986.159.989.9,0,.975,0,1.95,0,2.924,0,.759,0,.759.791.759.74,0,1.48,0,2.219,0s.846.135.845,1.019c0,.816-.13.972-.833.977-.82.006-1.64.026-2.459-.008-.447-.019-.579.113-.574.565.024,1.969.011,3.939.011,5.908Z"/><path d="M154.585,29.9q0-5.849,0-11.7c0-.809.1-.9.943-.909.911-.011,1.062.094,1.062.868q.009,11.755,0,23.511c0,.3.056.7-.342.8a1.9,1.9,0,0,1-1.508-.091c-.242-.15-.153-.473-.153-.727Q154.584,35.776,154.585,29.9Z"/></svg>