<svg id="Layer_1" data-name="Layer 1" xmlns="http://www.w3.org/2000/svg" viewBox="0 0 229.647 60"><path d="M23.171,35.162H14.953l-2.367,6.849a.318.318,0,0,1-.3.23H9.858c-.176,0-.242-.087-.2-.263L16.925,21.7a11.019,11.019,0,0,0,.23-1.449.144.144,0,0,1,.164-.164h3.452a.177.177,0,0,1,.2.131l7.791,21.765c.066.176.021.263-.132.263H25.9a.3.3,0,0,1-.263-.2ZM15.61,32.824h6.936q-.033-.066-1.561-4.527t-1.923-5.812h-.033Q18.634,23.967,15.61,32.824Z"/><path d="M39.047,42.571a8.3,8.3,0,0,1-5.884-2.107A7.821,7.821,0,0,1,30.9,34.437,8.038,8.038,0,0,1,33.328,28.4a8.691,8.691,0,0,1,6.311-2.355,7.733,7.733,0,0,1,2.564.329V18.435a.174.174,0,0,1,.2-.2H45c.109,0,.164.065.164.2V39.179q0,.823.066,1.679c.022.111-.033.2-.164.264A12.5,12.5,0,0,1,39.047,42.571ZM42.2,39.739V28.774a5.129,5.129,0,0,0-2.6-.56,5.344,5.344,0,0,0-4.158,1.679,6.3,6.3,0,0,0-1.528,4.413,5.827,5.827,0,0,0,1.594,4.478,5.424,5.424,0,0,0,3.829,1.482A6.087,6.087,0,0,0,42.2,39.739Z"/><path d="M56.7,26.041a7.153,7.153,0,0,1,5.572,2.3,8.493,8.493,0,0,1,2.087,5.927,8.42,8.42,0,0,1-2.137,6.042,7.3,7.3,0,0,1-5.554,2.256A7.011,7.011,0,0,1,50.9,40.134a8.919,8.919,0,0,1-1.989-5.828,8.372,8.372,0,0,1,2.17-5.927A7.318,7.318,0,0,1,56.7,26.041Zm-.131,2.173a4.1,4.1,0,0,0-3.386,1.63,6.927,6.927,0,0,0-1.282,4.4,7.227,7.227,0,0,0,1.282,4.445,4.186,4.186,0,0,0,3.55,1.712A4.234,4.234,0,0,0,60,38.866a6.614,6.614,0,0,0,1.364-4.527,7.468,7.468,0,0,0-1.216-4.4A4.1,4.1,0,0,0,56.568,28.214Z"/><path d="M68.4,18.238h2.531c.153,0,.23.065.23.2V26.9a8.947,8.947,0,0,1,3.879-.857,7.044,7.044,0,0,1,5.391,2.173,7.946,7.946,0,0,1,2.038,5.664,8.4,8.4,0,0,1-2.432,6.355,8.107,8.107,0,0,1-5.819,2.338,12.774,12.774,0,0,1-5.851-1.252.316.316,0,0,1-.2-.3V18.435C68.171,18.3,68.248,18.238,68.4,18.238Zm11.045,15.87A6.2,6.2,0,0,0,78.1,29.893a4.593,4.593,0,0,0-3.648-1.547,6.633,6.633,0,0,0-3.288.79V39.673a6.367,6.367,0,0,0,3.222.724,4.589,4.589,0,0,0,3.6-1.679A6.782,6.782,0,0,0,79.446,34.108Z"/><path d="M95.388,34.57H88.354a5.664,5.664,0,0,0,1.315,4.082A5.134,5.134,0,0,0,93.712,40.2a9.006,9.006,0,0,0,4.076-.856c.131-.088.2-.044.2.131v1.812a.283.283,0,0,1-.165.3,10.141,10.141,0,0,1-4.7.988q-4.011,0-5.9-2.355a8.929,8.929,0,0,1-1.89-5.779,9.086,9.086,0,0,1,1.988-5.992,6.613,6.613,0,0,1,5.375-2.4,5.839,5.839,0,0,1,4.848,1.992,7.053,7.053,0,0,1,1.594,4.528,9.84,9.84,0,0,1-.1,1.646.327.327,0,0,1-.263.264A33.575,33.575,0,0,1,95.388,34.57Zm-7.034-1.943h5.851a15.079,15.079,0,0,0,2.071-.066,2.428,2.428,0,0,0,.033-.527,4.562,4.562,0,0,0-.872-2.684,3.271,3.271,0,0,0-2.875-1.234A3.57,3.57,0,0,0,89.636,29.4,6.09,6.09,0,0,0,88.354,32.627Z"/><path d="M112.448,19.983V42.044c0,.131-.055.2-.165.2h-1.216a.174.174,0,0,1-.2-.2V20.016c0-.132.054-.2.164-.2h1.249A.146.146,0,0,1,112.448,19.983Z"/><path d="M117.805,42.044V30.19a30.142,30.142,0,0,0-.132-3.523q0-.132.2-.132h1.118a.177.177,0,0,1,.2.132q.064.363.165,2.041a6.941,6.941,0,0,1,5.291-2.5,5.705,5.705,0,0,1,1.743.263,5.778,5.778,0,0,1,1.66.889,4.174,4.174,0,0,1,1.33,1.91,8.726,8.726,0,0,1,.494,3.128v9.648a.175.175,0,0,1-.2.2h-1.182a.174.174,0,0,1-.2-.2V32.462a5.7,5.7,0,0,0-1-3.507,3.453,3.453,0,0,0-2.942-1.333,5.974,5.974,0,0,0-4.964,2.634V42.044c0,.131-.055.2-.165.2H117.97C117.859,42.241,117.805,42.175,117.805,42.044Z"/><path d="M135.227,42.011V20.048a.2.2,0,0,1,.164-.23q1.972-.066,5.687-.066,5.456,0,8.267,3a11.176,11.176,0,0,1,2.81,7.969,13.644,13.644,0,0,1-1.085,5.68,8.457,8.457,0,0,1-2.908,3.622A12.946,12.946,0,0,1,144.4,41.8a15.057,15.057,0,0,1-4.076.543q-2.268,0-4.931-.1C135.282,42.241,135.227,42.165,135.227,42.011Zm1.578-20.843V40.891q1.182.1,3.517.1a10.505,10.505,0,0,0,7.527-2.584q2.727-2.586,2.728-7.656,0-4.709-2.58-7.178a9.682,9.682,0,0,0-6.986-2.47Q137.593,21.1,136.805,21.168Z"/><path d="M165.04,34.108h-7.559a7.212,7.212,0,0,0,1.413,5.087,5.482,5.482,0,0,0,4.536,1.96,7.976,7.976,0,0,0,4.109-.988c.043-.021.077-.021.1,0a.2.2,0,0,1,.032.132v1.053a.256.256,0,0,1-.1.231,8.776,8.776,0,0,1-4.373.988,7.226,7.226,0,0,1-4.305-1.219,6.381,6.381,0,0,1-2.368-2.963,10.954,10.954,0,0,1-.657-3.885,9.249,9.249,0,0,1,1.874-5.944,6.063,6.063,0,0,1,5-2.354,6.491,6.491,0,0,1,2.843.593,4.579,4.579,0,0,1,1.874,1.547,7.6,7.6,0,0,1,.953,1.959,6.8,6.8,0,0,1,.312,2.025,12.2,12.2,0,0,1-.065,1.416c-.044.154-.121.242-.231.263Q167.669,34.11,165.04,34.108Zm-7.527-1.218h7.231a20.213,20.213,0,0,0,2.434-.066,3.6,3.6,0,0,0,.032-.625,6.227,6.227,0,0,0-.329-1.976,4.086,4.086,0,0,0-1.43-1.86,4.892,4.892,0,0,0-6.344.658A7.237,7.237,0,0,0,157.513,32.89Z"/><path d="M180.621,28.577a5.755,5.755,0,0,0-3.484-1.054,3.566,3.566,0,0,0-2.564.774,2.607,2.607,0,0,0-.082,3.654,7.621,7.621,0,0,0,2.745,1.5,9.294,9.294,0,0,1,3.319,1.943,3.9,3.9,0,0,1,1.02,2.831,3.785,3.785,0,0,1-1.5,3.227,6.056,6.056,0,0,1-3.731,1.12,7.256,7.256,0,0,1-4.174-1.12.31.31,0,0,1-.133-.263V39.772q0-.2.165-.1a6.069,6.069,0,0,0,4.174,1.548,4.113,4.113,0,0,0,2.7-.791,2.5,2.5,0,0,0,.954-2.008,2.742,2.742,0,0,0-.773-2.025,8.422,8.422,0,0,0-2.777-1.564,8.983,8.983,0,0,1-3.2-1.894,3.961,3.961,0,0,1,.328-5.6,5.307,5.307,0,0,1,3.567-1.136,6.811,6.811,0,0,1,3.517.757.269.269,0,0,1,.132.264v1.218C180.819,28.665,180.753,28.708,180.621,28.577Z"/><path d="M186.208,22.057a.96.96,0,0,1-.756-.3,1.1,1.1,0,0,1-.263-.757,1.119,1.119,0,0,1,.279-.774,1.03,1.03,0,0,1,1.479,0,1.115,1.115,0,0,1,.28.774,1.07,1.07,0,0,1-.28.74A.94.94,0,0,1,186.208,22.057Zm-.788,19.987V26.7a.145.145,0,0,1,.164-.165H186.8c.13,0,.2.055.2.165V42.077c0,.11-.066.164-.2.164h-1.184A.174.174,0,0,1,185.42,42.044Z"/><path d="M204.617,26.7v1.054a.146.146,0,0,1-.165.164L201,27.885a4.838,4.838,0,0,1,1.511,3.852,5.14,5.14,0,0,1-1.626,4.05,6.553,6.553,0,0,1-5.836,1.219,2.311,2.311,0,0,0-1.347,1.91,2.038,2.038,0,0,0,1.414,1.844q.986-.066,3.485-.066,6.508,0,6.507,4.511a5.179,5.179,0,0,1-2.054,4.066,9.722,9.722,0,0,1-10.667.264,4.459,4.459,0,0,1-1.874-3.639q0-2.207,3.254-4.247a2.923,2.923,0,0,1-1.577-2.536,3.224,3.224,0,0,1,1.644-2.6,5.038,5.038,0,0,1-2.6-4.775,5.38,5.38,0,0,1,1.578-3.934,5.6,5.6,0,0,1,4.174-1.6,7.92,7.92,0,0,1,2.136.23,2.736,2.736,0,0,0,.625.1h4.7A.146.146,0,0,1,204.617,26.7Zm-1.086,18.669q0-3.26-5.193-3.259a27.646,27.646,0,0,0-3.386.131q-2.925,1.713-2.925,3.556a3.35,3.35,0,0,0,1.6,2.766,6.693,6.693,0,0,0,4.025,1.153,6.433,6.433,0,0,0,4.339-1.334A3.917,3.917,0,0,0,203.531,45.369Zm-2.564-13.632a4.676,4.676,0,0,0-1.019-3.078,3.653,3.653,0,0,0-2.99-1.235,4.07,4.07,0,0,0-3.009,1.169,4.21,4.21,0,0,0-1.167,3.112,4.428,4.428,0,0,0,1.119,3.144,3.88,3.88,0,0,0,2.99,1.2,3.951,3.951,0,0,0,2.975-1.136A4.375,4.375,0,0,0,200.967,31.737Z"/><path d="M207.937,42.044V30.19a30.069,30.069,0,0,0-.133-3.523q0-.132.2-.132h1.117a.177.177,0,0,1,.2.132c.043.242.1.922.164,2.041a6.945,6.945,0,0,1,5.293-2.5,5.694,5.694,0,0,1,1.742.263,5.761,5.761,0,0,1,1.659.889,4.169,4.169,0,0,1,1.332,1.91A8.771,8.771,0,0,1,220,32.4v9.648a.174.174,0,0,1-.2.2h-1.183a.175.175,0,0,1-.2-.2V32.462a5.691,5.691,0,0,0-1-3.507,3.453,3.453,0,0,0-2.943-1.333,5.975,5.975,0,0,0-4.963,2.634V42.044c0,.131-.055.2-.164.2H208.1C207.991,42.241,207.937,42.175,207.937,42.044Z"/></svg>