<svg id="Layer_1" data-name="Layer 1" xmlns="http://www.w3.org/2000/svg" viewBox="0 0 190 60"><defs><style>.cls-1{fill-rule:evenodd;}</style></defs><path class="cls-1" d="M111.448,43.068H111.4c.024,0,.04.024.063.029l.016,0Zm.01.029c-.244,0-.858.128-1.506.128-2.046,0-2.754-.944-2.754-2.177V32.836h4.171a.453.453,0,0,0,.42-.5v-4.46a.456.456,0,0,0-.42-.446H107.2V21.9a.325.325,0,0,0-.368-.341h-5.666a.325.325,0,0,0-.368.341v5.693s-2.859.709-3.043.735a.449.449,0,0,0-.341.446v3.568a.473.473,0,0,0,.446.5h2.912v8.605c0,6.4,4.46,7.058,7.5,7.058a11.223,11.223,0,0,0,3.332-.577.421.421,0,0,0,.236-.42V43.566A.464.464,0,0,0,111.458,43.1Zm62.167-5.775c0-4.748-1.915-5.378-3.935-5.168a6.812,6.812,0,0,0-2.834.892v9.235a6.372,6.372,0,0,0,3.2.944C172.759,43.3,173.625,42.333,173.625,37.322ZM180,36.9c0,9-2.912,11.569-8,11.569a10.044,10.044,0,0,1-6.611-2.177,6.2,6.2,0,0,1-.236,1.364.372.372,0,0,1-.367.21H160.9a.491.491,0,0,1-.5-.446l.053-29.147a.46.46,0,0,1,.446-.446h5.588a.46.46,0,0,1,.446.446v9.89a10.56,10.56,0,0,1,5.3-1.39l-.026-.053C175.356,26.723,180,27.9,180,36.9Zm-22.877-9.471h-5.509a.442.442,0,0,0-.446.5V42.2a6.443,6.443,0,0,1-3.411,1.023c-1.968,0-2.545-.892-2.545-2.859V27.9a.46.46,0,0,0-.446-.446h-5.614a.46.46,0,0,0-.446.446V41.31c0,5.772,3.227,7.215,7.661,7.215a13.076,13.076,0,0,0,6.611-2.02,9.429,9.429,0,0,0,.21,1.18.463.463,0,0,0,.42.237h3.515a.426.426,0,0,0,.446-.446l.052-19.6A.472.472,0,0,0,157.123,27.432Zm-62.177-.026H89.358a.5.5,0,0,0-.446.524V47.187c0,.525.341.708.787.708h5.037c.525,0,.656-.236.656-.708V27.852A.459.459,0,0,0,94.946,27.406Zm-2.755-8.868a3.621,3.621,0,1,0,3.568,3.621A3.594,3.594,0,0,0,92.191,18.538Zm43.262-.656h-5.536a.46.46,0,0,0-.446.446v10.73h-8.684V18.328a.459.459,0,0,0-.446-.446h-5.588a.46.46,0,0,0-.446.446V47.476a.479.479,0,0,0,.446.446h5.588a.459.459,0,0,0,.446-.446V35.014h8.684l-.052,12.462a.46.46,0,0,0,.446.446h5.588a.46.46,0,0,0,.446-.446V18.328A.46.46,0,0,0,135.453,17.882ZM85.947,30.79V45.849c0,.105-.026.289-.157.341a15.954,15.954,0,0,1-8.684,2.335c-6.532,0-14.272-2.046-14.272-15.531s6.769-16.266,13.38-16.24c5.719,0,8.028,1.286,8.395,1.522a.567.567,0,0,1,.158.367l-1.1,4.67a.45.45,0,0,1-.525.446,15.725,15.725,0,0,0-5.693-.866c-3.856,0-8,1.1-8,9.786s3.936,9.707,6.769,9.707a12,12,0,0,0,3.279-.289V36.063H75.637a.473.473,0,0,1-.5-.446V30.79a.473.473,0,0,1,.5-.446h9.812A.473.473,0,0,1,85.947,30.79Z"/><path class="cls-1" d="M30.988,9.53a20.989,20.989,0,0,0-6.637,40.9c1.049.184,1.443-.446,1.443-1,0-.5-.027-2.151-.027-3.909-5.273.971-6.637-1.285-7.057-2.466a7.628,7.628,0,0,0-2.151-2.964c-.735-.394-1.784-1.365-.026-1.391,1.652-.026,2.833,1.522,3.226,2.151a4.486,4.486,0,0,0,6.113,1.732,4.417,4.417,0,0,1,1.338-2.807c-4.67-.525-9.549-2.335-9.549-10.363a8.169,8.169,0,0,1,2.151-5.641,7.536,7.536,0,0,1,.21-5.561s1.758-.551,5.772,2.151a19.77,19.77,0,0,1,10.494,0c4.014-2.729,5.771-2.151,5.771-2.151a7.536,7.536,0,0,1,.21,5.561,8.123,8.123,0,0,1,2.151,5.641c0,8.054-4.906,9.838-9.575,10.363a4.973,4.973,0,0,1,1.416,3.883c0,2.807-.026,5.063-.026,5.771,0,.551.394,1.207,1.443,1a21,21,0,0,0-6.69-40.9Z"/></svg>