<svg id="Layer_1" data-name="Layer 1" xmlns="http://www.w3.org/2000/svg" viewBox="0 0 290 60"><path d="M18.617,28.567h8.066a6.553,6.553,0,0,1,.115.733,8.24,8.24,0,0,1,.046.859,10.931,10.931,0,0,1-.483,3.286A7.777,7.777,0,0,1,24.845,36.2a7.63,7.63,0,0,1-2.643,2,8.328,8.328,0,0,1-3.516.708,8.194,8.194,0,0,1-3.378-.708,8.354,8.354,0,0,1-2.757-1.971A9.532,9.532,0,0,1,10.69,33.23a10.691,10.691,0,0,1,0-7.557,9.555,9.555,0,0,1,1.861-2.994,8.368,8.368,0,0,1,2.757-1.971A8.194,8.194,0,0,1,18.686,20a8.122,8.122,0,0,1,3.573.758,8.038,8.038,0,0,1,2.7,2.1l-2.136,2.3a5.748,5.748,0,0,0-1.793-1.428,5.659,5.659,0,0,0-4.5-.051,5.328,5.328,0,0,0-1.769,1.251,6.022,6.022,0,0,0-1.207,1.958,7.567,7.567,0,0,0,0,5.13,5.924,5.924,0,0,0,1.218,1.959,5.437,5.437,0,0,0,1.782,1.251,5.775,5.775,0,0,0,4.377.025,5.143,5.143,0,0,0,1.551-1.074,4.094,4.094,0,0,0,.793-1.15,7.017,7.017,0,0,0,.517-1.554H18.617Z"/><path d="M34.266,25.711a5.774,5.774,0,0,1,2.4.493,5.688,5.688,0,0,1,1.885,1.365,6.317,6.317,0,0,1,1.241,2.085,8.082,8.082,0,0,1,0,5.307,6.327,6.327,0,0,1-1.241,2.085,5.671,5.671,0,0,1-1.885,1.364,6.093,6.093,0,0,1-4.8,0,5.671,5.671,0,0,1-1.885-1.364,6.308,6.308,0,0,1-1.24-2.085,8.082,8.082,0,0,1,0-5.307,6.3,6.3,0,0,1,1.24-2.085A5.688,5.688,0,0,1,31.865,26.2,5.774,5.774,0,0,1,34.266,25.711Zm0,10.134a2.719,2.719,0,0,0,1.115-.24,2.841,2.841,0,0,0,.953-.7,3.33,3.33,0,0,0,.655-1.112,4.733,4.733,0,0,0,0-2.982,3.34,3.34,0,0,0-.655-1.112,2.854,2.854,0,0,0-.953-.7,2.719,2.719,0,0,0-1.115-.24,2.691,2.691,0,0,0-1.126.24,2.9,2.9,0,0,0-.942.7,3.34,3.34,0,0,0-.655,1.112,4.733,4.733,0,0,0,0,2.982A3.33,3.33,0,0,0,32.2,34.91a2.881,2.881,0,0,0,.942.7A2.691,2.691,0,0,0,34.266,35.845Z"/><path d="M47.5,25.711a5.774,5.774,0,0,1,2.4.493,5.674,5.674,0,0,1,1.884,1.365,6.3,6.3,0,0,1,1.241,2.085,8.082,8.082,0,0,1,0,5.307,6.31,6.31,0,0,1-1.241,2.085A5.657,5.657,0,0,1,49.9,38.41a6.093,6.093,0,0,1-4.8,0,5.671,5.671,0,0,1-1.885-1.364,6.327,6.327,0,0,1-1.241-2.085,8.082,8.082,0,0,1,0-5.307,6.317,6.317,0,0,1,1.241-2.085A5.688,5.688,0,0,1,45.1,26.2,5.77,5.77,0,0,1,47.5,25.711Zm0,10.134a2.714,2.714,0,0,0,1.114-.24,2.844,2.844,0,0,0,.954-.7,3.33,3.33,0,0,0,.655-1.112,4.733,4.733,0,0,0,0-2.982A3.34,3.34,0,0,0,49.57,29.7a2.858,2.858,0,0,0-.954-.7,2.733,2.733,0,0,0-2.24,0,2.885,2.885,0,0,0-.942.7,3.34,3.34,0,0,0-.655,1.112,4.714,4.714,0,0,0,0,2.982,3.33,3.33,0,0,0,.655,1.112,2.871,2.871,0,0,0,.942.7A2.688,2.688,0,0,0,47.5,35.845Z"/><path d="M60.6,44.362a6.162,6.162,0,0,1-2.126-.341,5.877,5.877,0,0,1-1.62-.885,5.645,5.645,0,0,1-1.149-1.2,4.811,4.811,0,0,1-.666-1.315l2.872-1.263a2.994,2.994,0,0,0,1.057,1.529,2.682,2.682,0,0,0,1.632.543,2.752,2.752,0,0,0,2.252-1.016,4.321,4.321,0,0,0,.827-2.8v-.859H63.5a3.79,3.79,0,0,1-1.39,1.276,4.2,4.2,0,0,1-2.034.468,4.557,4.557,0,0,1-1.965-.45,5.175,5.175,0,0,1-1.689-1.289,6.766,6.766,0,0,1-1.2-2.015,7.174,7.174,0,0,1-.459-2.627,7.271,7.271,0,0,1,.459-2.64,6.725,6.725,0,0,1,1.2-2.028,5.185,5.185,0,0,1,1.689-1.288,4.559,4.559,0,0,1,1.965-.451,4.214,4.214,0,0,1,2.034.468,3.8,3.8,0,0,1,1.39,1.276h.184V26.116h2.872v11.5a8.549,8.549,0,0,1-.436,2.818A6.208,6.208,0,0,1,64.9,42.555a5.282,5.282,0,0,1-1.873,1.339A6.092,6.092,0,0,1,60.6,44.362Zm.115-8.845a2.831,2.831,0,0,0,1.091-.223,2.764,2.764,0,0,0,.954-.658,3.315,3.315,0,0,0,.666-1.067,3.9,3.9,0,0,0,.253-1.452,4.006,4.006,0,0,0-.253-1.464,3.3,3.3,0,0,0-.666-1.079,2.775,2.775,0,0,0-.954-.657,2.833,2.833,0,0,0-1.091-.224,2.753,2.753,0,0,0-2.023.893,3.456,3.456,0,0,0-.666,1.08,4.29,4.29,0,0,0,0,2.9,3.281,3.281,0,0,0,.666,1.067,2.8,2.8,0,0,0,.942.658A2.75,2.75,0,0,0,60.715,35.517Z"/><path d="M69.124,38.5V20.4h3.011V38.5Z"/><path d="M85.256,35.517a6.7,6.7,0,0,1-2.1,2.451,5.451,5.451,0,0,1-3.229.935,5.673,5.673,0,0,1-4.274-1.87A6.335,6.335,0,0,1,74.4,34.948a7.492,7.492,0,0,1-.448-2.641,7.382,7.382,0,0,1,.436-2.54,6.592,6.592,0,0,1,1.218-2.1,5.922,5.922,0,0,1,1.85-1.428,5.216,5.216,0,0,1,2.355-.531,5.657,5.657,0,0,1,2.413.493,4.966,4.966,0,0,1,1.769,1.365,6.054,6.054,0,0,1,1.081,2.059,8.72,8.72,0,0,1,.367,2.578v.3a1.9,1.9,0,0,0-.023.277,1.6,1.6,0,0,0-.023.278H76.915a3.733,3.733,0,0,0,.379,1.3,3.09,3.09,0,0,0,.712.909,2.7,2.7,0,0,0,.931.532,3.337,3.337,0,0,0,1.034.164,2.739,2.739,0,0,0,1.712-.518,3.7,3.7,0,0,0,1.069-1.3Zm-2.734-4.8a2.33,2.33,0,0,0-.2-.733,2.575,2.575,0,0,0-.5-.758,2.62,2.62,0,0,0-.827-.581,2.81,2.81,0,0,0-1.184-.228,2.59,2.59,0,0,0-1.7.607,3.225,3.225,0,0,0-1.034,1.693Z"/><path d="M94.907,38.5H92.793V20.4h2.114l5.722,11.019h.092L106.442,20.4h2.115V38.5h-2.115V27.758l.092-3.032h-.092L101.3,34.658h-1.241l-5.147-9.932h-.092l.092,3.032Z"/><path d="M115.427,25.711a4.958,4.958,0,0,1,3.7,1.378,5.15,5.15,0,0,1,1.356,3.778V38.5H118.46V36.78h-.091a3.963,3.963,0,0,1-3.493,2.123,4.3,4.3,0,0,1-3.114-1.213,4.045,4.045,0,0,1-1.252-3.032,3.828,3.828,0,0,1,1.321-3.058,5.214,5.214,0,0,1,3.527-1.137,5.777,5.777,0,0,1,3.1.758V30.69a2.762,2.762,0,0,0-.873-2.06,2.846,2.846,0,0,0-2.045-.847,3.174,3.174,0,0,0-2.8,1.643l-1.861-1.288A5.046,5.046,0,0,1,115.427,25.711Zm-2.735,9a1.923,1.923,0,0,0,.7,1.516,2.429,2.429,0,0,0,1.643.607,3.22,3.22,0,0,0,2.379-1.087,3.56,3.56,0,0,0,1.045-2.552,4.064,4.064,0,0,0-2.757-.859,3.354,3.354,0,0,0-2.149.682A2.083,2.083,0,0,0,112.692,34.708Z"/><path d="M124.987,38.5h-2.115V26.116h2.022v2.022h.093a3.284,3.284,0,0,1,1.321-1.681,3.442,3.442,0,0,1,1.965-.7,3.648,3.648,0,0,1,1.562.3l-.644,2.25a3.2,3.2,0,0,0-1.24-.177,2.639,2.639,0,0,0-2.08,1.061,3.748,3.748,0,0,0-.884,2.477Z"/><path d="M141.232,38.5h-2.551l-3.516-5.838-1.723,1.87V38.5h-2.114V20.4h2.114V31.549l4.871-5.433h2.712v.1l-4.389,4.8,4.6,7.379Z"/><path d="M147.137,38.9a5.157,5.157,0,0,1-4.09-1.87,6.987,6.987,0,0,1-1.608-4.726A7.129,7.129,0,0,1,143,27.594a5.266,5.266,0,0,1,7.985-.1,7.59,7.59,0,0,1,1.482,4.991l-.023.253H143.6a4.246,4.246,0,0,0,1.1,2.932,3.369,3.369,0,0,0,2.528,1.111,3.506,3.506,0,0,0,3.171-2.223l1.885,1.01a5.982,5.982,0,0,1-2.1,2.452A5.424,5.424,0,0,1,147.137,38.9Zm-3.378-8.087h6.457a3.2,3.2,0,0,0-.954-2.135,3.153,3.153,0,0,0-2.309-.847,2.9,2.9,0,0,0-2.056.809A3.958,3.958,0,0,0,143.759,30.816Z"/><path d="M158.511,38.7a3.051,3.051,0,0,1-2.285-.935,3.651,3.651,0,0,1-.931-2.6V28.239h-1.977V26.116h1.977V22.325h2.113v3.791h2.759v2.123h-2.759v6.166a2.42,2.42,0,0,0,.437,1.68,1.358,1.358,0,0,0,.988.443,1.915,1.915,0,0,0,.5-.064,2.31,2.31,0,0,0,.448-.164l.666,2.072A5.209,5.209,0,0,1,158.511,38.7Z"/><path d="M165.037,21.845a1.669,1.669,0,0,1-.436,1.162,1.4,1.4,0,0,1-2.114,0,1.765,1.765,0,0,1,0-2.325,1.4,1.4,0,0,1,2.114,0A1.672,1.672,0,0,1,165.037,21.845Zm-.436,4.271V38.5h-2.114V26.116Z"/><path d="M167.357,26.116h2.023v1.718h.092a4.251,4.251,0,0,1,6.744-.821,5.529,5.529,0,0,1,1.114,3.7V38.5h-2.114V30.867q-.069-3.033-2.78-3.033a2.562,2.562,0,0,0-2.115,1.125,4.337,4.337,0,0,0-.849,2.691V38.5h-2.115Z"/><path d="M184.684,44.362a5.718,5.718,0,0,1-1.769-.266,5.466,5.466,0,0,1-1.5-.745,5.035,5.035,0,0,1-1.161-1.137,4.946,4.946,0,0,1-.735-1.466l2-.91a3.47,3.47,0,0,0,1.195,1.744,3.138,3.138,0,0,0,1.976.657,3.337,3.337,0,0,0,2.689-1.137,4.7,4.7,0,0,0,.965-3.134V36.78h-.092a4.3,4.3,0,0,1-1.62,1.554,4.479,4.479,0,0,1-2.217.569,4.8,4.8,0,0,1-3.793-1.895,7.275,7.275,0,0,1-1.562-4.7,7.174,7.174,0,0,1,1.562-4.675,4.778,4.778,0,0,1,3.793-1.921,4.49,4.49,0,0,1,2.217.569,4.31,4.31,0,0,1,1.62,1.554h.092V26.116h2.022V37.968a6.69,6.69,0,0,1-1.54,4.675A5.321,5.321,0,0,1,184.684,44.362Zm.069-7.582a3.116,3.116,0,0,0,2.551-1.238,4.88,4.88,0,0,0,1.034-3.235A4.9,4.9,0,0,0,187.3,29.1a3.137,3.137,0,0,0-2.551-1.264A3.176,3.176,0,0,0,182.2,29.1a4.9,4.9,0,0,0-1.035,3.209,4.837,4.837,0,0,0,1.035,3.21A3.172,3.172,0,0,0,184.753,36.78Z"/><path d="M200.47,31.17V38.5h-2.114V20.4h5.607a4.833,4.833,0,0,1,3.631,1.567,5.59,5.59,0,0,1,0,7.657,4.819,4.819,0,0,1-3.631,1.542Zm0-8.542v6.318h3.539a2.673,2.673,0,0,0,2.091-.935,3.3,3.3,0,0,0,0-4.423,2.642,2.642,0,0,0-2.091-.96Z"/><path d="M213.177,20.4V38.5h-2.115V20.4Z"/><path d="M219.91,25.711a4.958,4.958,0,0,1,3.7,1.378,5.154,5.154,0,0,1,1.355,3.778V38.5h-2.022V36.78h-.092a3.962,3.962,0,0,1-3.493,2.123,4.3,4.3,0,0,1-3.113-1.213,4.045,4.045,0,0,1-1.252-3.032,3.825,3.825,0,0,1,1.321-3.058,5.214,5.214,0,0,1,3.527-1.137,5.777,5.777,0,0,1,3.1.758V30.69a2.762,2.762,0,0,0-.873-2.06,2.848,2.848,0,0,0-2.045-.847,3.171,3.171,0,0,0-2.8,1.643l-1.862-1.288A5.045,5.045,0,0,1,219.91,25.711Zm-2.735,9a1.921,1.921,0,0,0,.7,1.516,2.427,2.427,0,0,0,1.643.607,3.216,3.216,0,0,0,2.377-1.087,3.557,3.557,0,0,0,1.046-2.552,4.064,4.064,0,0,0-2.757-.859,3.354,3.354,0,0,0-2.149.682A2.083,2.083,0,0,0,217.175,34.708Z"/><path d="M231.583,38.7a3.061,3.061,0,0,1-2.274-.935,3.627,3.627,0,0,1-.943-2.6V28.239H226.39V26.116h1.976V22.325h2.114v3.791h5.056V24.321a4.18,4.18,0,0,1,1.068-2.982A3.6,3.6,0,0,1,239.35,20.2a3.7,3.7,0,0,1,1.885.43l-.575,2.047a2.52,2.52,0,0,0-1.24-.3,1.584,1.584,0,0,0-1.276.595,2.39,2.39,0,0,0-.494,1.579v1.567h2.941v2.123H237.65V38.5h-2.114V28.239H230.48v6.242a2.435,2.435,0,0,0,.4,1.566,1.2,1.2,0,0,0,.953.481,2.334,2.334,0,0,0,1.011-.228l.667,2.072A5.33,5.33,0,0,1,231.583,38.7Z"/><path d="M241.281,32.307a6.931,6.931,0,0,1,1.631-4.726,5.321,5.321,0,0,1,4.159-1.87,5.254,5.254,0,0,1,4.137,1.87,6.873,6.873,0,0,1,1.654,4.726,6.81,6.81,0,0,1-1.654,4.726,5.251,5.251,0,0,1-4.137,1.87,5.318,5.318,0,0,1-4.159-1.87A6.927,6.927,0,0,1,241.281,32.307Zm2.114,0a4.812,4.812,0,0,0,1.056,3.235,3.391,3.391,0,0,0,5.24,0,4.813,4.813,0,0,0,1.057-3.235,4.772,4.772,0,0,0-1.057-3.209,3.347,3.347,0,0,0-5.24,0A4.772,4.772,0,0,0,243.4,32.307Z"/><path d="M256.677,38.5h-2.115V26.116h2.023v2.022h.092A3.289,3.289,0,0,1,258,26.457a3.447,3.447,0,0,1,1.965-.7,3.652,3.652,0,0,1,1.563.3l-.644,2.25a3.209,3.209,0,0,0-1.241-.177,2.636,2.636,0,0,0-2.079,1.061,3.744,3.744,0,0,0-.885,2.477Z"/><path d="M265.018,38.5H262.9V26.116h2.022v1.718h.092a3.938,3.938,0,0,1,1.482-1.516,3.816,3.816,0,0,1,4.171.025,3.644,3.644,0,0,1,1.378,1.744,4.32,4.32,0,0,1,3.884-2.376,3.642,3.642,0,0,1,3.011,1.315A5.836,5.836,0,0,1,280,30.766V38.5h-2.114v-7.38a4.284,4.284,0,0,0-.574-2.514,2.255,2.255,0,0,0-1.931-.771,2.456,2.456,0,0,0-2.044,1.137,4.43,4.43,0,0,0-.828,2.679V38.5H270.4v-7.38a4.284,4.284,0,0,0-.574-2.514,2.255,2.255,0,0,0-1.931-.771,2.457,2.457,0,0,0-2.045,1.137,4.436,4.436,0,0,0-.827,2.679Z"/></svg>