<svg id="Layer_1" data-name="Layer 1" xmlns="http://www.w3.org/2000/svg" viewBox="0 0 190 60"><path d="M65.6,21.276c-1.627-5.553-6.816-9.789-12.3-9.975h0a.548.548,0,0,1-.025-.119H41.907a.447.447,0,0,1-.023.12,3.685,3.685,0,0,0-3.177,2.685c-.328.97-.55,1.975-.815,2.965q-4.169,15.6-8.347,31.2c-.145.54-.068.663.5.652,1.8-.034,3.605-.091,5.4.007a4.228,4.228,0,0,0,4.4-3.393c2.134-8.112,4.353-16.2,6.52-24.3.125-.469.3-.652.79-.647,1.612.017,3.226-.039,4.838-.015a4.964,4.964,0,0,1,.844,9.824,19.088,19.088,0,0,1-3.494.123A3.956,3.956,0,0,0,45.2,33.554c-.495,1.8-.944,3.607-1.459,5.4-.17.588.034.64.538.637,2.665-.02,5.331-.009,8-.011a12.769,12.769,0,0,0,2.644-.262C64.025,37.386,67.526,27.851,65.6,21.276Z"/><path d="M160.427,40.353c-1.473.026-2.947.023-4.42.007-4.84-.055-9.681.138-14.519-.123-.987-.053-1.558-.688-1.324-1.61.681-2.688,1.39-5.37,2.146-8.038A2.076,2.076,0,0,1,144.58,29c2.642,0,5.287.061,7.927-.026,1.44-.048,1.956.7,1.432,2.094-.276.735-.856.721-1.425.731-1.777.032-3.554.012-5.331.041a3.85,3.85,0,0,0-3.8,2.944c-.26.943-.472,1.9-.764,2.835-.147.47-.025.562.422.561,4.631-.012,9.262.021,13.892-.024a6.123,6.123,0,0,0,5.818-4.448c.322-1.07.587-2.158.872-3.24a7.761,7.761,0,0,0-7.441-9.981c-4.208-.081-8.42-.074-12.628,0a10.437,10.437,0,0,0-10.142,7.766c-1.066,3.646-2.024,7.324-2.971,11a7.708,7.708,0,0,0,7.382,9.532c2.924.007,5.847,0,8.77,0q4.525,0,9.051,0a3.875,3.875,0,0,0,3.85-2.877c.47-1.659.893-3.332,1.358-4.992C160.969,40.5,160.909,40.344,160.427,40.353Z"/><path d="M97.684,26.594a7.744,7.744,0,0,0-7.575-6.173c-3.249-.05-6.5-.01-9.749-.01V20.4q-5.19,0-10.38,0c-.307,0-.632-.1-.744.4-.266,1.182-.651,2.338-.9,3.524a3.838,3.838,0,0,0,3.683,4.542c1.473.029,2.946,0,4.419.013,3.529.042,7.06-.114,10.587.093,1.168.068,1.253.188.954,1.319q-1.132,4.29-2.291,8.572c-.289,1.073-.67,1.355-1.8,1.356-2.642,0-5.284,0-7.926,0a5.522,5.522,0,0,1-1.321-.139.871.871,0,0,1-.724-.9.9.9,0,0,1,.686-.94,3.26,3.26,0,0,1,.9-.119q2.49,0,4.98-.014a3.976,3.976,0,0,0,4.063-3.088c.247-.9.442-1.814.728-2.7.184-.571,0-.641-.521-.638-3.905.02-7.809.013-11.713.009a9.684,9.684,0,0,0-2.089.191c-4.042.889-6.5,4.052-6.709,8.4a7.99,7.99,0,0,0,8,8.4c5.119.067,10.239.072,15.359.078a6.37,6.37,0,0,0,6.349-4.922q1.74-6.48,3.487-12.96A8.586,8.586,0,0,0,97.684,26.594Z"/><path d="M115.487,20.487c-4.138-.073-8.278-.008-12.416-.034-.479,0-.582.218-.68.588q-3.372,12.7-6.754,25.4a1.725,1.725,0,0,0,1.835,2.345q2.246,0,4.49,0a2.863,2.863,0,0,0,3.229-2.448c1.415-5.291,2.836-10.58,4.225-15.877.159-.606.4-.806,1.039-.781,1.494.056,2.992.013,4.489.021a4.88,4.88,0,0,1,4.726,3.576A6.888,6.888,0,0,1,119.426,37q-1.253,4.731-2.494,9.465a1.7,1.7,0,0,0,1.777,2.328c.8,0,1.59,0,2.385,0q1.088,0,2.175,0a2.882,2.882,0,0,0,3.246-2.516c.637-2.411,1.257-4.828,1.934-7.228a15.171,15.171,0,0,0,.528-7.4A13.726,13.726,0,0,0,115.487,20.487Z"/><path d="M24.2,29.705c1.613-.015,3.227,0,4.84-.008a3.913,3.913,0,0,0,4-3.062c.5-1.844.931-3.706,1.456-5.543.176-.618-.047-.639-.538-.633-1.73.02-3.46.008-5.19.008-.117,0-.234,0-.351,0a39.276,39.276,0,0,0-6.51.192A13.558,13.558,0,0,0,10.55,31.014a13.863,13.863,0,0,0,8.99,17.141c2.371.78,4.8.61,7.22.639.316,0,.369-.186.434-.431.58-2.16,1.189-4.313,1.752-6.477a1.716,1.716,0,0,0-1.729-2.225c-1.028-.023-2.057.006-3.086-.015a4.972,4.972,0,0,1,.072-9.941Z"/><path d="M178.609,11.3h0a.515.515,0,0,1-.023-.122h-5.894a.85.85,0,0,1-.024.12,2.926,2.926,0,0,0-2.38,2.43q-3.879,14.633-7.8,29.253c-.51,1.911-1.008,3.825-1.526,5.793.386,0,.711.021,1.034,0a12.367,12.367,0,0,0,10.785-8.783c2.406-8.811,4.762-17.637,7.133-26.458A1.682,1.682,0,0,0,178.609,11.3Z"/></svg>