<svg id="Layer_1" data-name="Layer 1" xmlns="http://www.w3.org/2000/svg" viewBox="0 0 70 60"><path d="M37.007,24.592q0-7.09,0-14.181c0-.38.01-.341.334-.341,7.809.205,16.3-.395,23.781.206-1.049,1.547-2.4,2.9-3.557,4.382-3.155,3.9-6.447,7.7-9.576,11.617-1.694,1.93-3.249,3.989-4.983,5.885-1.093,1.387-2.169,2.8-3.357,4.117A28.238,28.238,0,0,1,37.213,39.1c-.186.086-.224-.134-.206-.277V24.592Z"/><path d="M8.916,49.983c-.092-.336.334-.582.483-.852.5-.524.938-1.073,1.382-1.642,1.45-1.609,2.766-3.291,4.131-4.969,1.389-1.715,2.82-3.379,4.237-5.069.849-.926,1.5-2,2.438-2.859,2.03-2.682,4.267-5.2,6.4-7.807,1.611-1.944,3.222-3.895,4.843-5.831.514,9.262.026,19.456.167,29.022C24.971,50.017,16.942,50,8.916,49.983Z"/><path d="M20.855,10.07h11.9c.529-.119.152,1.145.1,1.42a8.94,8.94,0,0,1-.143,1.286,14.115,14.115,0,0,1-2.132,4.56,13.618,13.618,0,0,1-4.235,3.59c-.165-.022-.247.114-.371.183a12.563,12.563,0,0,0-1.388.543c-.476.048-.91.274-1.391.319a1.162,1.162,0,0,1-.525.122c-1.75-.066-3.549.223-5.231-.332a9.734,9.734,0,0,1-2.033-.821,7.932,7.932,0,0,1-2.6-1.8,13.249,13.249,0,0,1-2.97-3.724A11.293,11.293,0,0,1,8.671,10.2c3.864-.373,8.175,0,12.184-.129Z"/><path d="M49.273,49.994H37.46c-.271,0-.283-.009-.28-.28a11.114,11.114,0,0,1,2.07-6.628,12.9,12.9,0,0,1,6.384-4.607c1.593-.7,3.342-.48,5.039-.508a14.64,14.64,0,0,1,3.416.954c.042,0,.079.063.122.09.129.107.307.075.42.2.025.022.051.062.078.063.236.012.381.216.6.276a12.443,12.443,0,0,1,4.48,4.488,5.012,5.012,0,0,1,.6,1.144c.031.136.026.274.144.373a13.72,13.72,0,0,1,.8,2.889c.006.435.008.87.01,1.3,0,.235,0,.239-.241.239Z"/></svg>