<svg id="Layer_1" data-name="Layer 1" xmlns="http://www.w3.org/2000/svg" viewBox="0 0 280 60"><path d="M21.031,30.967H31.356a8.617,8.617,0,0,1,.147.938,10.392,10.392,0,0,1,.058,1.1,13.989,13.989,0,0,1-.617,4.2A9.97,9.97,0,0,1,29,40.737a9.788,9.788,0,0,1-3.382,2.555,10.663,10.663,0,0,1-4.5.906,10.489,10.489,0,0,1-4.324-.906,10.717,10.717,0,0,1-3.53-2.523,12.187,12.187,0,0,1-2.382-3.834,13.684,13.684,0,0,1,0-9.672,12.209,12.209,0,0,1,2.382-3.834,10.731,10.731,0,0,1,3.53-2.523A10.489,10.489,0,0,1,21.119,20a10.111,10.111,0,0,1,8.031,3.656L26.414,26.6a7.38,7.38,0,0,0-2.294-1.828,7.245,7.245,0,0,0-5.766-.065,6.829,6.829,0,0,0-2.265,1.6,7.71,7.71,0,0,0-1.544,2.508,9.676,9.676,0,0,0,0,6.566A7.565,7.565,0,0,0,16.1,37.89a6.974,6.974,0,0,0,2.279,1.6,6.833,6.833,0,0,0,2.765.566,6.776,6.776,0,0,0,2.839-.534,6.638,6.638,0,0,0,1.986-1.374,5.254,5.254,0,0,0,1.015-1.472,8.974,8.974,0,0,0,.661-1.99H21.031Z"/><path d="M41.063,27.311a7.378,7.378,0,0,1,3.074.631,7.264,7.264,0,0,1,2.412,1.747,8.081,8.081,0,0,1,1.589,2.669,10.353,10.353,0,0,1,0,6.793,8.071,8.071,0,0,1-1.589,2.669,7.278,7.278,0,0,1-2.412,1.747,7.8,7.8,0,0,1-6.148,0,7.264,7.264,0,0,1-2.411-1.747,8.054,8.054,0,0,1-1.589-2.669,10.336,10.336,0,0,1,0-6.793,8.065,8.065,0,0,1,1.589-2.669,7.25,7.25,0,0,1,2.411-1.747A7.378,7.378,0,0,1,41.063,27.311Zm0,12.972a3.477,3.477,0,0,0,1.427-.307,3.616,3.616,0,0,0,1.22-.89,4.26,4.26,0,0,0,.839-1.423,6.048,6.048,0,0,0,0-3.817,4.264,4.264,0,0,0-.839-1.424,3.654,3.654,0,0,0-1.22-.889,3.479,3.479,0,0,0-1.427-.308,3.441,3.441,0,0,0-1.441.308,3.694,3.694,0,0,0-1.206.889,4.279,4.279,0,0,0-.838,1.424,6.048,6.048,0,0,0,0,3.817,4.274,4.274,0,0,0,.838,1.423,3.655,3.655,0,0,0,1.206.89A3.44,3.44,0,0,0,41.063,40.283Z"/><path d="M58.006,27.311a7.375,7.375,0,0,1,3.074.631,7.254,7.254,0,0,1,2.412,1.747,8.081,8.081,0,0,1,1.589,2.669,10.353,10.353,0,0,1,0,6.793,8.071,8.071,0,0,1-1.589,2.669,7.268,7.268,0,0,1-2.412,1.747,7.8,7.8,0,0,1-6.148,0,7.264,7.264,0,0,1-2.411-1.747,8.054,8.054,0,0,1-1.589-2.669,10.353,10.353,0,0,1,0-6.793,8.065,8.065,0,0,1,1.589-2.669,7.25,7.25,0,0,1,2.411-1.747A7.378,7.378,0,0,1,58.006,27.311Zm0,12.972a3.477,3.477,0,0,0,1.427-.307,3.607,3.607,0,0,0,1.22-.89,4.26,4.26,0,0,0,.839-1.423,6.048,6.048,0,0,0,0-3.817,4.264,4.264,0,0,0-.839-1.424,3.644,3.644,0,0,0-1.22-.889,3.479,3.479,0,0,0-1.427-.308,3.441,3.441,0,0,0-1.441.308,3.694,3.694,0,0,0-1.206.889,4.279,4.279,0,0,0-.838,1.424,6.048,6.048,0,0,0,0,3.817,4.274,4.274,0,0,0,.838,1.423,3.655,3.655,0,0,0,1.206.89A3.44,3.44,0,0,0,58.006,40.283Z"/><path d="M74.773,51.186a7.877,7.877,0,0,1-2.721-.437,7.5,7.5,0,0,1-2.074-1.133,7.255,7.255,0,0,1-1.47-1.536,6.167,6.167,0,0,1-.853-1.682l3.677-1.618a3.82,3.82,0,0,0,1.353,1.958,3.433,3.433,0,0,0,2.088.7,3.519,3.519,0,0,0,2.883-1.3,5.52,5.52,0,0,0,1.059-3.583v-1.1h-.236A4.862,4.862,0,0,1,76.7,43.082a5.384,5.384,0,0,1-2.6.6,5.831,5.831,0,0,1-2.515-.576,6.613,6.613,0,0,1-2.162-1.65,8.609,8.609,0,0,1-1.529-2.579,9.155,9.155,0,0,1-.588-3.363,9.292,9.292,0,0,1,.588-3.38,8.584,8.584,0,0,1,1.529-2.595,6.624,6.624,0,0,1,2.162-1.649,5.833,5.833,0,0,1,2.515-.577,5.384,5.384,0,0,1,2.6.6,4.867,4.867,0,0,1,1.779,1.633h.236V27.829h3.677V42.548a10.92,10.92,0,0,1-.559,3.607,7.92,7.92,0,0,1-1.56,2.717,6.741,6.741,0,0,1-2.4,1.715A7.8,7.8,0,0,1,74.773,51.186Zm.147-11.323a3.636,3.636,0,0,0,1.4-.285,3.553,3.553,0,0,0,1.221-.842,4.237,4.237,0,0,0,.853-1.366,4.972,4.972,0,0,0,.324-1.858,5.1,5.1,0,0,0-.324-1.874,4.2,4.2,0,0,0-.853-1.382,3.523,3.523,0,0,0-1.221-.841,3.62,3.62,0,0,0-1.4-.287,3.507,3.507,0,0,0-1.382.287,3.464,3.464,0,0,0-1.206.857,4.409,4.409,0,0,0-.853,1.382,5.489,5.489,0,0,0,0,3.716,4.22,4.22,0,0,0,.853,1.366,3.582,3.582,0,0,0,1.206.842A3.523,3.523,0,0,0,74.92,39.863Z"/><path d="M85.686,43.68V20.518h3.853V43.68Z"/><path d="M106.335,39.863A8.6,8.6,0,0,1,103.644,43a6.982,6.982,0,0,1-4.134,1.2A7.26,7.26,0,0,1,94.039,41.8a8.13,8.13,0,0,1-1.6-2.669,9.6,9.6,0,0,1-.573-3.381,9.433,9.433,0,0,1,.559-3.251,8.421,8.421,0,0,1,1.558-2.685,7.588,7.588,0,0,1,2.368-1.827,6.683,6.683,0,0,1,3.015-.68,7.224,7.224,0,0,1,3.089.631,6.335,6.335,0,0,1,2.265,1.747,7.733,7.733,0,0,1,1.383,2.636,11.143,11.143,0,0,1,.47,3.3v.388a2.341,2.341,0,0,0-.029.356,1.962,1.962,0,0,0-.03.356H95.657a4.77,4.77,0,0,0,.485,1.666,3.956,3.956,0,0,0,.912,1.165,3.45,3.45,0,0,0,1.192.679,4.227,4.227,0,0,0,1.323.21,3.507,3.507,0,0,0,2.192-.663,4.719,4.719,0,0,0,1.368-1.666Zm-3.5-6.147a2.937,2.937,0,0,0-.249-.938,3.331,3.331,0,0,0-.647-.97,3.374,3.374,0,0,0-1.06-.744,3.6,3.6,0,0,0-1.515-.291,3.317,3.317,0,0,0-2.176.776,4.136,4.136,0,0,0-1.324,2.167Z"/><path d="M118.689,43.68h-2.706V20.518h2.706l7.324,14.1h.118l7.325-14.1h2.706V43.68h-2.706V29.932l.117-3.883h-.117l-6.59,12.714h-1.588l-6.589-12.714h-.117l.117,3.883Z"/><path d="M152.516,27.829l-9.03,22.839h-2.795l3.353-7.991L138.1,27.829h2.941l4.295,11.387h.059l4.177-11.387Z"/><path d="M161.223,43.68V20.518h7.618a5.836,5.836,0,0,1,4.295,1.811,6.07,6.07,0,0,1,1.794,4.5,4.924,4.924,0,0,1-2.853,4.82v.129a5.173,5.173,0,0,1,2.589,2.022,5.747,5.747,0,0,1,.97,3.284,6.4,6.4,0,0,1-1.882,4.723,6.029,6.029,0,0,1-4.5,1.876Zm2.706-20.315v7.084h4.912a3.129,3.129,0,0,0,2.412-1.067,3.682,3.682,0,0,0,.03-4.95,2.976,2.976,0,0,0-2.324-1.067Zm0,9.866v7.6h5.441a3.255,3.255,0,0,0,2.5-1.132,3.924,3.924,0,0,0,1-2.685,3.823,3.823,0,0,0-1.03-2.653,3.352,3.352,0,0,0-2.588-1.132Z"/><path d="M190.873,43.68h-2.588v-2.2h-.118a5.442,5.442,0,0,1-8.633,1.052,7.071,7.071,0,0,1-1.427-4.739V27.829h2.706V37.6q.089,3.882,3.559,3.881a3.277,3.277,0,0,0,2.706-1.439,5.546,5.546,0,0,0,1.089-3.445V27.829h2.706Z"/><path d="M205.052,39.281a4.448,4.448,0,0,1-1.648,3.494,6.628,6.628,0,0,1-7.972.177,6.8,6.8,0,0,1-2.352-3.283l2.412-1.133a4.9,4.9,0,0,0,1.544,2.217,3.525,3.525,0,0,0,2.221.792,3.651,3.651,0,0,0,2.162-.614,1.767,1.767,0,0,0,.868-1.456q0-1.521-2.118-2.232l-2.471-.68q-4.208-1.164-4.206-4.464a4.264,4.264,0,0,1,1.6-3.477,6.781,6.781,0,0,1,7.559-.308A5.317,5.317,0,0,1,204.816,31L202.4,32.1a3.235,3.235,0,0,0-1.338-1.569,3.9,3.9,0,0,0-2.074-.566,3.249,3.249,0,0,0-1.9.582,1.7,1.7,0,0,0-.838,1.423q0,1.36,2.324,1.942l2.177.614Q205.051,35.691,205.052,39.281Z"/><path d="M210.758,22.361a2.135,2.135,0,0,1-.558,1.489,1.8,1.8,0,0,1-2.706,0,2.26,2.26,0,0,1,0-2.976,1.8,1.8,0,0,1,2.706,0A2.134,2.134,0,0,1,210.758,22.361Zm-.558,5.468V43.68h-2.706V27.829Z"/><path d="M213.729,27.829h2.589v2.2h.117a5.443,5.443,0,0,1,8.634-1.051,7.084,7.084,0,0,1,1.426,4.739V43.68h-2.706V33.911q-.089-3.882-3.559-3.883a3.282,3.282,0,0,0-2.707,1.44,5.548,5.548,0,0,0-1.088,3.445V43.68h-2.706Z"/><path d="M236.143,44.2a6.6,6.6,0,0,1-5.236-2.394,8.95,8.95,0,0,1-2.058-6.05,9.129,9.129,0,0,1,2-6.033,6.743,6.743,0,0,1,10.222-.129,9.717,9.717,0,0,1,1.9,6.389l-.028.323H231.613a5.428,5.428,0,0,0,1.413,3.753,4.3,4.3,0,0,0,3.235,1.423q2.589,0,4.059-2.846l2.412,1.294a7.633,7.633,0,0,1-2.691,3.137A6.93,6.93,0,0,1,236.143,44.2Zm-4.324-10.352h8.266a4.1,4.1,0,0,0-1.221-2.734,4.035,4.035,0,0,0-2.956-1.084,3.713,3.713,0,0,0-2.632,1.036A5.065,5.065,0,0,0,231.819,33.846Z"/><path d="M256.616,39.281a4.447,4.447,0,0,1-1.647,3.494,6.628,6.628,0,0,1-7.972.177,6.791,6.791,0,0,1-2.353-3.283l2.412-1.133a4.891,4.891,0,0,0,1.545,2.217,3.522,3.522,0,0,0,2.22.792,3.653,3.653,0,0,0,2.162-.614,1.769,1.769,0,0,0,.868-1.456q0-1.521-2.118-2.232l-2.471-.68q-4.208-1.164-4.207-4.464a4.262,4.262,0,0,1,1.6-3.477,6.783,6.783,0,0,1,7.56-.308A5.322,5.322,0,0,1,256.381,31l-2.412,1.1a3.242,3.242,0,0,0-1.339-1.569,3.9,3.9,0,0,0-2.074-.566,3.249,3.249,0,0,0-1.9.582,1.7,1.7,0,0,0-.838,1.423q0,1.36,2.324,1.942l2.176.614Q256.616,35.691,256.616,39.281Z"/><path d="M270,39.281a4.448,4.448,0,0,1-1.648,3.494,6.628,6.628,0,0,1-7.972.177,6.8,6.8,0,0,1-2.352-3.283l2.412-1.133a4.89,4.89,0,0,0,1.544,2.217,3.525,3.525,0,0,0,2.221.792,3.653,3.653,0,0,0,2.162-.614,1.769,1.769,0,0,0,.868-1.456q0-1.521-2.118-2.232l-2.471-.68q-4.208-1.164-4.207-4.464a4.262,4.262,0,0,1,1.6-3.477,6.781,6.781,0,0,1,7.559-.308A5.322,5.322,0,0,1,269.764,31l-2.412,1.1a3.235,3.235,0,0,0-1.338-1.569,3.906,3.906,0,0,0-2.074-.566,3.247,3.247,0,0,0-1.9.582,1.7,1.7,0,0,0-.838,1.423q0,1.36,2.324,1.942l2.176.614Q270,35.691,270,39.281Z"/></svg>