<svg id="Layer_1" data-name="Layer 1" xmlns="http://www.w3.org/2000/svg" viewBox="0 0 190 60"><path d="M28.139,39.636a6.157,6.157,0,0,0,5.42,1.983,10.212,10.212,0,0,0,7.751-5.16,13.89,13.89,0,0,0,2.01-6.932A11.269,11.269,0,0,0,37.913,19.16a13.549,13.549,0,0,0-9.308-1.969,12.5,12.5,0,0,0-8.985,4.9A11.518,11.518,0,0,0,17.872,33.1a7.265,7.265,0,0,0,3.254,4.2c.595.333.756.241,1.011-.374.278-.671.317-1.385.531-2.061a1.087,1.087,0,0,0-.295-.984,8.456,8.456,0,0,1,1.586-10.828,8.612,8.612,0,0,1,5.8-2.166,9.17,9.17,0,0,1,5.164,1.217,7.425,7.425,0,0,1,3.566,5.647,12.234,12.234,0,0,1-.668,5.856,6.771,6.771,0,0,1-3.589,4.192c-1.6.663-3.685.709-4.7-1.228a3.2,3.2,0,0,1-.092-2.441A41.468,41.468,0,0,0,31,28.439c.293-2.19-.959-3.587-2.752-3.517a3.348,3.348,0,0,0-2.786,1.828,6.671,6.671,0,0,0-.525,5.322,4.085,4.085,0,0,1,0,2.164c-.551,2.214-1.015,4.449-1.568,6.662a18.15,18.15,0,0,0-.788,6.172c.034.355.051.714.112,1.065.087.492-.19.567-.521.406a22.9,22.9,0,0,1-4.418-2.649,20.337,20.337,0,0,1-4.728-5.309,21.475,21.475,0,0,1-2.5-6.074,20.67,20.67,0,0,1-.333-7.446,18.262,18.262,0,0,1,1.83-5.927,19.912,19.912,0,0,1,5.735-7.054,20.435,20.435,0,0,1,4.3-2.582,26.478,26.478,0,0,1,4.606-1.437,23.53,23.53,0,0,1,3.967-.223,15.918,15.918,0,0,1,6.01.91,20.331,20.331,0,0,1,4.805,2.4,20.149,20.149,0,0,1,8.875,19.467,19.824,19.824,0,0,1-7.037,12.841,17.97,17.97,0,0,1-6.519,3.621,19.694,19.694,0,0,1-9,.912c-1-.16-1.983-.407-2.985-.55-.405-.057-.34-.2-.173-.5a29.922,29.922,0,0,0,1.9-3.862,39.032,39.032,0,0,0,1.121-4.035A4.836,4.836,0,0,1,28.139,39.636Z"/><path d="M58.06,29.211c0-3.626.015-7.251-.014-10.876-.006-.644.187-.809.817-.8,3.116.034,6.237-.08,9.348.047,3.365.138,6.022,1.585,7.336,4.856a7.8,7.8,0,0,1,.5,3.751,7.261,7.261,0,0,1-3.116,5.558,8.048,8.048,0,0,1-4.57,1.3c-1.379.018-2.76.038-4.138,0-.628-.019-.846.16-.835.808.035,2.119-.011,4.239.028,6.357.012.626-.2.781-.784.763-1.225-.037-2.453-.048-3.677,0-.692.029-.916-.163-.909-.884C58.079,36.462,58.06,32.836,58.06,29.211Zm5.34-3.83c0,.893.02,1.786-.009,2.678-.014.439.139.563.569.555,1.352-.025,2.706-.038,4.057,0a2.763,2.763,0,0,0,1.79-.668,3.384,3.384,0,0,0,1.006-3.5,3.122,3.122,0,0,0-3-2.216c-1.275-.034-2.552,0-3.828-.022-.439-.009-.591.156-.584.574C63.41,23.646,63.4,24.513,63.4,25.381Z"/><path d="M83.433,32.625c0-2.528.024-5.056-.017-7.584-.01-.633.2-.762.774-.744,1.226.039,2.453.033,3.679,0,.515-.014.726.114.715.672-.01.479-.254,1.106.2,1.39.165.1.534-.607.847-.91a6.172,6.172,0,0,1,4.852-1.642,5.566,5.566,0,0,1,5.223,5.74c.006,3.6,0,7.2.028,10.8,0,.469-.146.625-.612.617-1.3-.024-2.607-.034-3.909,0-.562.016-.741-.136-.736-.723.029-3.09.022-6.18,0-9.269a2.614,2.614,0,0,0-1.253-2.487,2.9,2.9,0,0,0-3.825.852,4.525,4.525,0,0,0-.657,2.542c0,2.757-.02,5.515.014,8.273.007.648-.2.834-.826.813-1.3-.041-2.606-.031-3.908,0-.472.01-.6-.133-.6-.6C83.444,37.783,83.433,35.2,83.433,32.625Z"/><path d="M120.5,33.922c-1.763,0-3.526.025-5.288-.013-.651-.014-.78.213-.686.809a3.662,3.662,0,0,0,2.582,2.84,3.139,3.139,0,0,0,3.8-1.137.842.842,0,0,1,.757-.265c1.277-.009,2.554,0,3.831-.015.555-.008.7.239.487.7a7.4,7.4,0,0,1-4.622,4.1,10.477,10.477,0,0,1-6.534-.028,7.589,7.589,0,0,1-4.609-4.055,9.7,9.7,0,0,1-.342-7.783,7.825,7.825,0,0,1,3.935-4.373,8.958,8.958,0,0,1,6.2-.712,7.483,7.483,0,0,1,5.623,4.905,11.687,11.687,0,0,1,.895,4.368c-.007.5-.165.665-.665.658-1.787-.024-3.576-.009-5.364-.009Zm-2.7-3.08h1.07c.356,0,.713.011,1.069.005,1.413-.023,1.476-.121.95-1.452a3.408,3.408,0,0,0-3.248-2.026,3.628,3.628,0,0,0-3.1,2.8c-.079.5.051.7.583.68C116.015,30.817,116.907,30.84,117.8,30.842Z"/><path d="M148.568,33.92c-1.762,0-3.525.02-5.287-.009-.637-.011-.751.182-.665.809a3.729,3.729,0,0,0,4.648,2.9,3.132,3.132,0,0,0,1.689-1.138.82.82,0,0,1,.8-.317c1.3-.021,2.605,0,3.907-.021.575-.008.582.291.4.685a7.339,7.339,0,0,1-4.717,4.144,10.428,10.428,0,0,1-6.459-.056,7.767,7.767,0,0,1-4.837-4.551,9.577,9.577,0,0,1-.458-6.137A8.053,8.053,0,0,1,141.9,24.7a9.168,9.168,0,0,1,6.222-.694,7.508,7.508,0,0,1,5.623,4.909,11.261,11.261,0,0,1,.865,4.232c-.009.578-.128.8-.757.785C152.094,33.892,150.33,33.92,148.568,33.92Zm-2.64-3.08v0c.919,0,1.837,0,2.756,0,.343,0,.64-.05.548-.5-.35-1.726-1.313-2.876-3.159-2.945a3.285,3.285,0,0,0-3.43,2.8c-.109.472.037.66.528.649C144.089,30.826,145.009,30.84,145.928,30.84Z"/><path d="M162.835,41.416a9.937,9.937,0,0,1-4.754-.874,5.639,5.639,0,0,1-3.221-3.953c-.081-.351.152-.422.376-.425q2.106-.019,4.214,0a.5.5,0,0,1,.5.384c.417,1.375,2.393,1.77,3.439,1.525.542-.126,1.135-.021,1.624-.522a1.508,1.508,0,0,0-.348-2.527,3.024,3.024,0,0,0-1.146-.394,22.5,22.5,0,0,1-3.152-.566,6.448,6.448,0,0,1-4.276-2.063,5.069,5.069,0,0,1,.972-6.743,9.719,9.719,0,0,1,6.363-1.43,15.713,15.713,0,0,1,2.918.505,5.7,5.7,0,0,1,3.561,3.92c.091.564-.031.821-.691.788-1.147-.058-2.3-.03-3.448-.009a.661.661,0,0,1-.707-.429,2.835,2.835,0,0,0-3.671-1.47c-.676.222-1.282.466-1.356,1.32a1.107,1.107,0,0,0,.812,1.287c.8.214,1.594.45,2.426.591a12.792,12.792,0,0,1,5.175,1.534,4.553,4.553,0,0,1,2.007,4.733c-.285,2.413-1.855,3.679-4.076,4.406A15.328,15.328,0,0,1,162.835,41.416Z"/><path d="M106.854,31.931c0,1.226-.011,2.452,0,3.678.013,1.075.421,1.475,1.479,1.5s1.063.029,1.066,1.091c0,.715-.019,1.431.009,2.145.017.433-.1.644-.572.7a9.262,9.262,0,0,1-5.173-.526,3.32,3.32,0,0,1-1.926-3.124c-.062-2.936-.038-5.874-.047-8.811,0-1.116,0-1.131-1.121-1.152-.488-.01-.693-.2-.673-.692a15.212,15.212,0,0,0-.013-1.761c-.042-.563.207-.687.715-.683,1.09.006,1.091-.016,1.092-1.108,0-1.226.012-2.452-.006-3.678-.008-.5.129-.726.693-.707,1.251.043,2.5.036,3.756,0,.543-.014.719.186.712.707-.02,1.353.016,2.708-.013,4.061-.011.54.108.754.714.747,1.853-.02,1.854.009,1.854,1.869,0,.23-.01.46,0,.69.017.352-.132.518-.493.514-.408,0-.821.053-1.224.013-.657-.065-.894.148-.859.844.061,1.222.017,2.451.017,3.677Z"/><path d="M172.064,32.447c0-1.43-.027-2.861.013-4.289.017-.6-.172-.866-.777-.787-.667.088-.943-.187-.85-.864a6.69,6.69,0,0,0,.008-.918c0-1.15,0-1.176,1.167-1.269.485-.038.435-.329.436-.63,0-1.353.031-2.707-.007-4.059-.019-.645.217-.839.842-.819,1.225.04,2.453.036,3.678,0,.485-.014.617.169.613.609-.012,1.353.019,2.707-.013,4.059-.014.624.19.9.837.837.43-.041.87.023,1.3-.015.559-.049.715.2.675.713-.035.457-.012.919-.013,1.379,0,.99,0,1-1.024.98-2.158-.047-1.744.035-1.762,1.763-.02,2.043-.008,4.085,0,6.128,0,1.356.5,1.9,1.824,1.842.78-.034,1.047.192.98.973a20.683,20.683,0,0,0-.012,2.3c.009.359-.065.554-.472.618a9.088,9.088,0,0,1-5.467-.506c-1.464-.7-1.884-2.166-1.952-3.677-.066-1.452-.015-2.91-.015-4.365Z"/><path d="M132.521,26.843a7.48,7.48,0,0,1,2.184-2.272,2.063,2.063,0,0,1,.536-.249c2.336-.57,2.335-.573,2.329,1.824,0,.562-.03,1.126,0,1.686s-.125.831-.759.765a3.472,3.472,0,0,0-3.416,1.66,4.406,4.406,0,0,0-.754,2.424c-.028,2.478-.06,4.956-.032,7.433.008.69-.211.881-.873.857-1.251-.045-2.505-.027-3.757-.006-.464.007-.676-.083-.674-.627q.031-7.7,0-15.4c0-.441.087-.645.585-.634,1.3.031,2.608.028,3.911,0,.476-.01.617.156.608.617A6.346,6.346,0,0,0,132.521,26.843Z"/><path d="M82.206,32.629c0,2.528-.022,5.056.015,7.584.01.63-.2.774-.783.755-1.251-.04-2.5-.028-3.755-.005-.473.009-.682-.1-.68-.632q.025-7.7,0-15.4c0-.52.186-.647.674-.636,1.276.029,2.555.043,3.831,0,.609-.023.713.209.708.751C82.191,27.573,82.205,30.1,82.206,32.629Z"/><path d="M79.709,22.685a2.9,2.9,0,0,1-3.241-3,2.986,2.986,0,0,1,3.077-3.126,3.092,3.092,0,0,1,3.223,3A3.005,3.005,0,0,1,79.709,22.685Z"/></svg>