<svg id="Layer_1" data-name="Layer 1" xmlns="http://www.w3.org/2000/svg" viewBox="0 0 231.176 60"><path d="M22.959,34.7H15.084l-2.268,6.563a.3.3,0,0,1-.283.221H10.2q-.254,0-.189-.252L16.974,21.8a10.738,10.738,0,0,0,.221-1.388.139.139,0,0,1,.157-.158H20.66a.169.169,0,0,1,.188.126l7.466,20.857q.094.252-.126.252H25.573a.282.282,0,0,1-.251-.189Zm-7.245-2.24h6.647q-.033-.063-1.5-4.338t-1.842-5.569H18.99Q18.612,23.973,15.714,32.461Z"/><path d="M38.173,41.8a7.948,7.948,0,0,1-5.638-2.02,7.493,7.493,0,0,1-2.174-5.774,7.707,7.707,0,0,1,2.331-5.79,8.332,8.332,0,0,1,6.048-2.256,7.4,7.4,0,0,1,2.457.316v-7.6a.167.167,0,0,1,.189-.19h2.488c.1,0,.158.063.158.19V38.551q0,.789.063,1.609c.021.105-.032.189-.157.252A11.98,11.98,0,0,1,38.173,41.8ZM41.2,39.087V28.58a4.921,4.921,0,0,0-2.489-.536,5.117,5.117,0,0,0-3.984,1.609,6.04,6.04,0,0,0-1.465,4.228,5.582,5.582,0,0,0,1.528,4.291,5.2,5.2,0,0,0,3.67,1.42A5.823,5.823,0,0,0,41.2,39.087Z"/><path d="M55.088,25.961a6.854,6.854,0,0,1,5.339,2.209,8.135,8.135,0,0,1,2,5.679,8.071,8.071,0,0,1-2.047,5.79A7,7,0,0,1,55.057,41.8a6.72,6.72,0,0,1-5.528-2.335,8.551,8.551,0,0,1-1.906-5.585A8.022,8.022,0,0,1,49.7,28.2,7.011,7.011,0,0,1,55.088,25.961Zm-.126,2.083a3.925,3.925,0,0,0-3.244,1.561,6.636,6.636,0,0,0-1.229,4.213,6.924,6.924,0,0,0,1.229,4.26,4.014,4.014,0,0,0,3.4,1.64,4.059,4.059,0,0,0,3.134-1.467,6.339,6.339,0,0,0,1.307-4.338A7.158,7.158,0,0,0,58.4,29.7,3.93,3.93,0,0,0,54.962,28.044Z"/><path d="M66.3,18.483h2.425c.147,0,.22.063.22.19v8.109a8.575,8.575,0,0,1,3.717-.821,6.748,6.748,0,0,1,5.166,2.083,7.612,7.612,0,0,1,1.953,5.427,8.048,8.048,0,0,1-2.331,6.089A7.762,7.762,0,0,1,71.877,41.8a12.242,12.242,0,0,1-5.607-1.2.3.3,0,0,1-.189-.283V18.673C66.081,18.546,66.154,18.483,66.3,18.483ZM76.885,33.692a5.94,5.94,0,0,0-1.291-4.039,4.4,4.4,0,0,0-3.5-1.483,6.357,6.357,0,0,0-3.15.757v10.1a6.1,6.1,0,0,0,3.087.694,4.4,4.4,0,0,0,3.449-1.609A6.5,6.5,0,0,0,76.885,33.692Z"/><path d="M92.161,34.134h-6.74a5.43,5.43,0,0,0,1.26,3.912,4.92,4.92,0,0,0,3.874,1.483,8.619,8.619,0,0,0,3.906-.821c.126-.083.189-.042.189.126V40.57a.272.272,0,0,1-.158.284,9.713,9.713,0,0,1-4.5.947q-3.843,0-5.654-2.256a8.562,8.562,0,0,1-1.811-5.538,8.708,8.708,0,0,1,1.905-5.742,6.335,6.335,0,0,1,5.15-2.3,5.6,5.6,0,0,1,4.647,1.909,6.76,6.76,0,0,1,1.527,4.339,9.446,9.446,0,0,1-.094,1.577.313.313,0,0,1-.252.253A31.941,31.941,0,0,1,92.161,34.134Zm-6.74-1.862h5.607a14.487,14.487,0,0,0,1.984-.063,2.324,2.324,0,0,0,.032-.505,4.374,4.374,0,0,0-.835-2.572,3.14,3.14,0,0,0-2.756-1.183,3.424,3.424,0,0,0-2.8,1.23A5.843,5.843,0,0,0,85.421,32.272Z"/><path d="M108.509,20.155V41.3c0,.126-.053.189-.158.189h-1.165A.167.167,0,0,1,107,41.3V20.187c0-.126.052-.189.157-.189h1.2A.139.139,0,0,1,108.509,20.155Z"/><path d="M113.769,38.9V18.325c0-.083.063-.126.188-.126h1.166c.1,0,.157.043.157.126V38.866a1.96,1.96,0,0,0,.315,1.31,1.206,1.206,0,0,0,.914.331,4.264,4.264,0,0,0,.819-.095c.042-.021.068-.021.079,0a.343.343,0,0,1,.015.126v.853a.17.17,0,0,1-.125.189,2.645,2.645,0,0,1-1.261.221Q113.77,41.8,113.769,38.9Z"/><path d="M120.792,38.9V18.325c0-.083.063-.126.189-.126h1.165c.105,0,.158.043.158.126V38.866a1.961,1.961,0,0,0,.314,1.31,1.206,1.206,0,0,0,.915.331,4.272,4.272,0,0,0,.818-.095c.042-.021.067-.021.079,0a.343.343,0,0,1,.015.126v.853a.169.169,0,0,1-.126.189,2.641,2.641,0,0,1-1.26.221Q120.791,41.8,120.792,38.9Z"/><path d="M139.06,26.592V38.235a23.933,23.933,0,0,0,.158,3.092c.021.106-.021.158-.127.158h-1.165a.149.149,0,0,1-.158-.126,7,7,0,0,1-.157-1.546,6.223,6.223,0,0,1-4.756,1.988,5.352,5.352,0,0,1-3.654-1.294q-1.48-1.293-1.48-4.512v-9.4a.139.139,0,0,1,.157-.157h1.2a.139.139,0,0,1,.158.157v9.245a5.231,5.231,0,0,0,1.007,3.408,3.5,3.5,0,0,0,2.867,1.23,5.466,5.466,0,0,0,4.442-2.082v-11.8a.139.139,0,0,1,.157-.157h1.2A.139.139,0,0,1,139.06,26.592Z"/><path d="M151.124,28.391a5.522,5.522,0,0,0-3.34-1.01,3.418,3.418,0,0,0-2.456.742,2.5,2.5,0,0,0-.078,3.5,7.307,7.307,0,0,0,2.63,1.435,8.922,8.922,0,0,1,3.18,1.862,3.741,3.741,0,0,1,.978,2.714,3.629,3.629,0,0,1-1.434,3.092A5.8,5.8,0,0,1,147.03,41.8a6.957,6.957,0,0,1-4-1.073.3.3,0,0,1-.127-.253V39.119c0-.127.052-.158.158-.095a5.817,5.817,0,0,0,4,1.483,3.94,3.94,0,0,0,2.583-.757,2.4,2.4,0,0,0,.915-1.925,2.629,2.629,0,0,0-.742-1.94,8.074,8.074,0,0,0-2.661-1.5,8.611,8.611,0,0,1-3.071-1.815A3.545,3.545,0,0,1,143.123,30a3.508,3.508,0,0,1,1.276-2.793,5.092,5.092,0,0,1,3.418-1.088,6.526,6.526,0,0,1,3.37.726.256.256,0,0,1,.126.252v1.168Q151.313,28.58,151.124,28.391Z"/><path d="M161.77,40.223v.852a.368.368,0,0,1-.125.252,4.672,4.672,0,0,1-2.175.474,3.144,3.144,0,0,1-2.424-.884,4.366,4.366,0,0,1-.82-3V27.7h-2.237c-.105,0-.157-.073-.157-.221v-.883a.139.139,0,0,1,.157-.157h2.237a23.545,23.545,0,0,1,.252-4.2.283.283,0,0,1,.158-.189l1.134-.221q.189-.063.189.063a36.1,36.1,0,0,0-.221,4.544h3.591c.106,0,.158.063.158.189v.915a.139.139,0,0,1-.158.157h-3.591V38.078q0,2.428,2.079,2.429a4.667,4.667,0,0,0,1.8-.379C161.718,40.065,161.77,40.1,161.77,40.223Z"/><path d="M164.857,26.435h1.134a.175.175,0,0,1,.189.157,11.186,11.186,0,0,1,.219,2.051,6.117,6.117,0,0,1,5.009-2.524c.126,0,.189.053.189.158v1.262c0,.1-.063.157-.189.157a5.909,5.909,0,0,0-2.725.569,5.332,5.332,0,0,0-2,1.609,1.2,1.2,0,0,0-.252.82V41.327a.139.139,0,0,1-.157.158h-1.2a.139.139,0,0,1-.157-.158V30.473a31.519,31.519,0,0,0-.188-3.881C164.731,26.487,164.772,26.435,164.857,26.435Z"/><path d="M184.007,31.735v7.478q0,.726.032,1.073a.127.127,0,0,1-.063.126,10.413,10.413,0,0,1-5.324,1.389,6.3,6.3,0,0,1-4.031-1.2,4.2,4.2,0,0,1-1.512-3.5,3.77,3.77,0,0,1,1.968-3.5,9.959,9.959,0,0,1,5.025-1.136q1.8,0,2.425.063V31.388a4.884,4.884,0,0,0-.141-1.151,5.848,5.848,0,0,0-.49-1.263,2.608,2.608,0,0,0-1.149-1.1,4.161,4.161,0,0,0-1.968-.426,7.681,7.681,0,0,0-4.189,1.262c-.127.042-.19.011-.19-.094v-1.1a.169.169,0,0,1,.126-.189,8.057,8.057,0,0,1,4.411-1.2,4.621,4.621,0,0,1,3.826,1.546A6.294,6.294,0,0,1,184.007,31.735Zm-1.48,8.046V33.755q-1.26-.126-2.425-.127a7.791,7.791,0,0,0-4.095.884,2.835,2.835,0,0,0-1.417,2.556,3.3,3.3,0,0,0,1.071,2.477,4.735,4.735,0,0,0,3.37,1.025A8.364,8.364,0,0,0,182.527,39.781Z"/><path d="M194.591,40.223v.852a.361.361,0,0,1-.126.252,4.661,4.661,0,0,1-2.173.474,3.149,3.149,0,0,1-2.426-.884,4.377,4.377,0,0,1-.819-3V27.7h-2.236c-.106,0-.158-.073-.158-.221v-.883a.139.139,0,0,1,.158-.157h2.236a23.643,23.643,0,0,1,.252-4.2.285.285,0,0,1,.158-.189l1.135-.221c.125-.042.188-.021.188.063a36.1,36.1,0,0,0-.221,4.544h3.591c.1,0,.158.063.158.189v.915a.139.139,0,0,1-.158.157h-3.591V38.078q0,2.428,2.08,2.429a4.658,4.658,0,0,0,1.795-.379C194.539,40.065,194.591,40.1,194.591,40.223Z"/><path d="M198.561,28.359a6.89,6.89,0,0,1,10.095-.079,8.211,8.211,0,0,1,1.937,5.7,8.161,8.161,0,0,1-1.937,5.663,6.435,6.435,0,0,1-5.025,2.162,6.214,6.214,0,0,1-5.228-2.367,8.735,8.735,0,0,1-1.827-5.49A8.118,8.118,0,0,1,198.561,28.359Zm4.976-.978A4.88,4.88,0,0,0,199.6,29.2a7.065,7.065,0,0,0-1.512,4.686,7.48,7.48,0,0,0,1.5,4.733,4.921,4.921,0,0,0,4.111,1.924,5.11,5.11,0,0,0,3.764-1.656,6.7,6.7,0,0,0,1.622-4.875,7.772,7.772,0,0,0-1.4-4.7A4.8,4.8,0,0,0,203.537,27.381Z"/><path d="M214.435,26.435h1.134a.175.175,0,0,1,.189.157,11.028,11.028,0,0,1,.222,2.051,6.114,6.114,0,0,1,5.008-2.524c.126,0,.188.053.188.158v1.262c0,.1-.062.157-.188.157a5.907,5.907,0,0,0-2.725.569,5.34,5.34,0,0,0-2,1.609,1.193,1.193,0,0,0-.253.82V41.327a.139.139,0,0,1-.157.158h-1.2a.139.139,0,0,1-.158-.158V30.473a31.687,31.687,0,0,0-.189-3.881C214.31,26.487,214.351,26.435,214.435,26.435Z"/></svg>