<svg id="Layer_1" data-name="Layer 1" xmlns="http://www.w3.org/2000/svg" viewBox="0 0 250 60"><path d="M21.5,31.43H32.258a8.975,8.975,0,0,1,.154.978,11.017,11.017,0,0,1,.061,1.147,14.6,14.6,0,0,1-.644,4.383,10.381,10.381,0,0,1-2.023,3.675,10.2,10.2,0,0,1-3.526,2.664,11.123,11.123,0,0,1-4.691.944,10.943,10.943,0,0,1-4.507-.944,11.2,11.2,0,0,1-3.679-2.63,12.721,12.721,0,0,1-2.483-4,14.268,14.268,0,0,1,0-10.081,12.721,12.721,0,0,1,2.483-4,11.209,11.209,0,0,1,3.679-2.63A10.943,10.943,0,0,1,21.589,20a10.535,10.535,0,0,1,8.37,3.81l-2.851,3.069a7.677,7.677,0,0,0-2.392-1.905,7,7,0,0,0-3.158-.658,7.043,7.043,0,0,0-2.851.59,7.124,7.124,0,0,0-2.361,1.669,8.026,8.026,0,0,0-1.609,2.613,10.09,10.09,0,0,0,0,6.844,7.872,7.872,0,0,0,1.625,2.614,7.262,7.262,0,0,0,2.376,1.669,7.114,7.114,0,0,0,2.882.59,7.068,7.068,0,0,0,2.959-.557,6.9,6.9,0,0,0,2.069-1.432,5.472,5.472,0,0,0,1.058-1.535,9.341,9.341,0,0,0,.689-2.073H21.5Z"/><path d="M42.376,27.62a7.687,7.687,0,0,1,3.2.658,7.566,7.566,0,0,1,2.514,1.82A8.417,8.417,0,0,1,49.75,32.88a10.78,10.78,0,0,1,0,7.081,8.4,8.4,0,0,1-1.656,2.781,7.554,7.554,0,0,1-2.514,1.821,8.13,8.13,0,0,1-6.408,0,7.56,7.56,0,0,1-2.513-1.821A8.385,8.385,0,0,1,35,39.961a10.78,10.78,0,0,1,0-7.081A8.4,8.4,0,0,1,36.659,30.1a7.572,7.572,0,0,1,2.513-1.82A7.687,7.687,0,0,1,42.376,27.62Zm0,13.521a3.631,3.631,0,0,0,1.487-.32,3.782,3.782,0,0,0,1.272-.928,4.429,4.429,0,0,0,.874-1.483,6.289,6.289,0,0,0,0-3.979,4.429,4.429,0,0,0-.874-1.483,3.8,3.8,0,0,0-1.272-.928,3.65,3.65,0,0,0-2.989,0,3.852,3.852,0,0,0-1.257.928,4.462,4.462,0,0,0-.874,1.483,6.307,6.307,0,0,0,0,3.979,4.462,4.462,0,0,0,.874,1.483,3.838,3.838,0,0,0,1.257.928A3.6,3.6,0,0,0,42.376,41.141Z"/><path d="M60.035,27.62a7.692,7.692,0,0,1,3.205.658,7.572,7.572,0,0,1,2.513,1.82,8.417,8.417,0,0,1,1.656,2.782,10.78,10.78,0,0,1,0,7.081,8.4,8.4,0,0,1-1.656,2.781,7.56,7.56,0,0,1-2.513,1.821,8.13,8.13,0,0,1-6.408,0,7.554,7.554,0,0,1-2.514-1.821,8.419,8.419,0,0,1-1.656-2.781,10.78,10.78,0,0,1,0-7.081A8.434,8.434,0,0,1,54.318,30.1a7.566,7.566,0,0,1,2.514-1.82A7.682,7.682,0,0,1,60.035,27.62Zm0,13.521a3.631,3.631,0,0,0,1.487-.32,3.8,3.8,0,0,0,1.273-.928,4.462,4.462,0,0,0,.874-1.483,6.307,6.307,0,0,0,0-3.979,4.462,4.462,0,0,0-.874-1.483,3.809,3.809,0,0,0-1.273-.928,3.65,3.65,0,0,0-2.989,0,3.852,3.852,0,0,0-1.257.928,4.443,4.443,0,0,0-.873,1.483,6.307,6.307,0,0,0,0,3.979,4.443,4.443,0,0,0,.873,1.483,3.838,3.838,0,0,0,1.257.928A3.6,3.6,0,0,0,60.035,41.141Z"/><path d="M77.511,52.5a8.2,8.2,0,0,1-2.836-.456,7.8,7.8,0,0,1-2.162-1.18,7.572,7.572,0,0,1-1.532-1.6,6.431,6.431,0,0,1-.889-1.753l3.832-1.686a3.994,3.994,0,0,0,1.41,2.04,3.58,3.58,0,0,0,2.177.725,3.671,3.671,0,0,0,3.005-1.357,5.763,5.763,0,0,0,1.1-3.735V42.354h-.245a5.047,5.047,0,0,1-1.855,1.7,5.6,5.6,0,0,1-2.713.624,6.081,6.081,0,0,1-2.622-.6,6.905,6.905,0,0,1-2.253-1.72,9,9,0,0,1-1.595-2.688,9.557,9.557,0,0,1-.612-3.505,9.693,9.693,0,0,1,.612-3.523,8.967,8.967,0,0,1,1.595-2.705,6.9,6.9,0,0,1,2.253-1.718,6.069,6.069,0,0,1,2.622-.6,5.607,5.607,0,0,1,2.713.624,5.064,5.064,0,0,1,1.855,1.7h.245V28.16h3.833V43.5a11.379,11.379,0,0,1-.583,3.76,8.277,8.277,0,0,1-1.625,2.832,7.042,7.042,0,0,1-2.5,1.787A8.156,8.156,0,0,1,77.511,52.5Zm.153-11.8a3.769,3.769,0,0,0,1.456-.3,3.7,3.7,0,0,0,1.273-.877,4.415,4.415,0,0,0,.889-1.424,5.187,5.187,0,0,0,.337-1.937,5.318,5.318,0,0,0-.337-1.953,4.376,4.376,0,0,0-.889-1.44A3.7,3.7,0,0,0,79.12,31.9a3.77,3.77,0,0,0-1.456-.3,3.665,3.665,0,0,0-1.441.3,3.625,3.625,0,0,0-1.257.894,4.624,4.624,0,0,0-.889,1.44,5.732,5.732,0,0,0,0,3.873,4.432,4.432,0,0,0,.889,1.424,3.738,3.738,0,0,0,1.257.877A3.664,3.664,0,0,0,77.664,40.7Z"/><path d="M88.885,44.681V20.54H92.9V44.681Z"/><path d="M110.407,40.7a8.952,8.952,0,0,1-2.8,3.271,7.275,7.275,0,0,1-4.308,1.248,7.569,7.569,0,0,1-5.7-2.5,8.488,8.488,0,0,1-1.67-2.781,9.991,9.991,0,0,1-.6-3.524,9.843,9.843,0,0,1,.582-3.388,8.789,8.789,0,0,1,1.625-2.8,7.9,7.9,0,0,1,2.468-1.9,6.956,6.956,0,0,1,3.143-.709,7.523,7.523,0,0,1,3.219.658,6.613,6.613,0,0,1,2.361,1.82,8.073,8.073,0,0,1,1.441,2.748,11.594,11.594,0,0,1,.49,3.44v.4a2.551,2.551,0,0,0-.03.371,2.031,2.031,0,0,0-.031.371H99.278a4.948,4.948,0,0,0,.506,1.736,4.1,4.1,0,0,0,.95,1.214,3.583,3.583,0,0,0,1.242.708,4.406,4.406,0,0,0,1.379.22,3.655,3.655,0,0,0,2.285-.692,4.915,4.915,0,0,0,1.425-1.736ZM106.759,34.3a3.07,3.07,0,0,0-.261-.977,3.448,3.448,0,0,0-.674-1.012,3.532,3.532,0,0,0-1.1-.776,3.76,3.76,0,0,0-1.579-.3,3.465,3.465,0,0,0-2.269.809,4.318,4.318,0,0,0-1.38,2.259Z"/><path d="M141.954,32.611a12.9,12.9,0,0,1-3.249,8.968,10.679,10.679,0,0,1-16.065,0,12.9,12.9,0,0,1-3.25-8.968,12.9,12.9,0,0,1,3.25-8.969,10.647,10.647,0,0,1,16.065.033A12.858,12.858,0,0,1,141.954,32.611Zm-19.683,0a10.113,10.113,0,0,0,2.392,6.912,7.711,7.711,0,0,0,6.009,2.731,7.622,7.622,0,0,0,5.979-2.731,9.956,9.956,0,0,0,2.422-6.912,9.96,9.96,0,0,0-2.422-6.913,7.622,7.622,0,0,0-5.979-2.731,7.711,7.711,0,0,0-6.009,2.731A10.115,10.115,0,0,0,122.271,32.611Z"/><path d="M152.625,45.221a6.006,6.006,0,0,1-3.021-.776,5.479,5.479,0,0,1-2.1-2.057h-.123l.123,2.293v7.283h-2.821V28.16h2.7v2.292h.123a5.484,5.484,0,0,1,2.1-2.056,6.006,6.006,0,0,1,3.021-.776,6.23,6.23,0,0,1,5.027,2.563,9.563,9.563,0,0,1,2.116,6.237,9.477,9.477,0,0,1-2.116,6.238A6.227,6.227,0,0,1,152.625,45.221Zm-.461-2.833a4.231,4.231,0,0,0,3.4-1.686,6.453,6.453,0,0,0,1.379-4.282,6.54,6.54,0,0,0-1.379-4.282,4.308,4.308,0,0,0-6.836,0,6.636,6.636,0,0,0-1.35,4.282,6.686,6.686,0,0,0,1.35,4.316A4.3,4.3,0,0,0,152.164,42.388Z"/><path d="M167.679,44.951a4.074,4.074,0,0,1-3.052-1.248,4.876,4.876,0,0,1-1.241-3.472V30.992h-2.637V28.16h2.637V23.1h2.82V28.16h3.679v2.832h-3.679v8.227a3.223,3.223,0,0,0,.583,2.242,1.8,1.8,0,0,0,1.318.59,2.6,2.6,0,0,0,.659-.084,3.156,3.156,0,0,0,.6-.219l.889,2.765A6.973,6.973,0,0,1,167.679,44.951Z"/><path d="M176.384,22.461a2.219,2.219,0,0,1-.583,1.551,1.87,1.87,0,0,1-2.819,0,2.353,2.353,0,0,1,0-3.1,1.87,1.87,0,0,1,2.819,0A2.22,2.22,0,0,1,176.384,22.461Zm-.583,5.7V44.681h-2.819V28.16Z"/><path d="M182.3,44.681h-2.82V28.16h2.7v2.292h.122a5.25,5.25,0,0,1,1.977-2.023,5.095,5.095,0,0,1,5.565.034,4.873,4.873,0,0,1,1.839,2.327,5.766,5.766,0,0,1,5.182-3.17,4.859,4.859,0,0,1,4.016,1.753,7.786,7.786,0,0,1,1.411,4.99V44.681H199.47V34.836a5.707,5.707,0,0,0-.766-3.355,3.007,3.007,0,0,0-2.576-1.029A3.277,3.277,0,0,0,193.4,31.97a5.912,5.912,0,0,0-1.1,3.574v9.137h-2.821V34.836a5.714,5.714,0,0,0-.766-3.355,3.006,3.006,0,0,0-2.576-1.029,3.276,3.276,0,0,0-2.728,1.518,5.912,5.912,0,0,0-1.1,3.574Z"/><path d="M209.249,22.461a2.218,2.218,0,0,1-.582,1.551,1.871,1.871,0,0,1-2.82,0,2.356,2.356,0,0,1,0-3.1,1.871,1.871,0,0,1,2.82,0A2.219,2.219,0,0,1,209.249,22.461Zm-.582,5.7V44.681h-2.82V28.16Z"/><path d="M223.751,44.681H211.61v-2.7l8.554-10.992h-8.309V28.16h11.773v2.7l-8.553,10.992h8.676Z"/><path d="M232.887,45.221a6.882,6.882,0,0,1-5.457-2.5,9.319,9.319,0,0,1-2.145-6.3,9.512,9.512,0,0,1,2.084-6.288A7.027,7.027,0,0,1,238.023,30,10.129,10.129,0,0,1,240,36.657l-.03.337h-11.8a5.663,5.663,0,0,0,1.471,3.911,4.489,4.489,0,0,0,3.373,1.483q2.7,0,4.231-2.967l2.514,1.349a7.959,7.959,0,0,1-2.806,3.27A7.225,7.225,0,0,1,232.887,45.221Zm-4.507-10.79H237a4.271,4.271,0,0,0-1.272-2.849,4.2,4.2,0,0,0-3.081-1.13,3.867,3.867,0,0,0-2.743,1.079A5.285,5.285,0,0,0,228.38,34.431Z"/></svg>