<svg id="Layer_1" data-name="Layer 1" xmlns="http://www.w3.org/2000/svg" viewBox="0 0 240 60"><path d="M24.791,10.636H10V48.982H24.572c13.806,0,21.857-8.216,21.857-19.282v-.111C46.43,18.524,38.487,10.636,24.791,10.636ZM35.528,29.864c0,6.189-4.218,9.7-10.572,9.7H20.628v-19.5h4.328c6.354,0,10.572,3.561,10.572,9.7ZM53.5,48.98H64.178V10.636H53.5ZM88.83,25.1c-5.314-1.206-6.629-1.973-6.629-3.725v-.111c0-1.369,1.261-2.465,3.835-2.465a19.226,19.226,0,0,1,10.737,3.781l5.314-7.507C97.923,11.73,92.829,9.976,86.31,9.976c-9.2,0-14.846,5.149-14.846,12.271v.11c0,7.889,6.3,10.19,14.462,12.051,5.2,1.2,6.464,2.081,6.464,3.67v.11c0,1.643-1.534,2.629-4.382,2.629a19.749,19.749,0,0,1-12.435-4.6l-5.917,7.067A26.787,26.787,0,0,0,87.625,49.64c9.312,0,15.5-4.657,15.5-12.491V37.04c0-7.176-5.479-10.024-14.3-11.942Zm60.8,4.711V29.7c0-11.011-8.764-19.831-20.6-19.831s-20.707,8.93-20.707,19.941v.109c0,11.011,8.765,19.831,20.6,19.831a21.312,21.312,0,0,0,11.668-3.4l4.218,3.779,5.368-5.971-3.943-3.34A19.141,19.141,0,0,0,149.635,29.809Zm-10.791.219a10.449,10.449,0,0,1-.657,3.724l-5.2-4.711-5.369,6.026,5.314,4.548a10.945,10.945,0,0,1-3.888.712c-5.861,0-9.806-4.875-9.806-10.409v-.109c0-5.533,3.89-10.354,9.7-10.354,5.917,0,9.916,4.876,9.916,10.463v.109Zm42.127,2.191c0,5.367-2.8,7.887-7.069,7.887s-7.066-2.628-7.066-8.162V10.636H156.045V32.164c0,12,6.847,17.532,17.749,17.532s17.968-5.424,17.968-17.8V10.636H180.971ZM215.7,25.1c-5.314-1.206-6.629-1.973-6.629-3.725v-.111c0-1.369,1.261-2.465,3.836-2.465a19.218,19.218,0,0,1,10.736,3.781l5.315-7.5c-4.163-3.341-9.257-5.1-15.775-5.1-9.2,0-14.847,5.149-14.847,12.27v.11c0,7.89,6.3,10.19,14.462,12.051,5.2,1.206,6.464,2.082,6.464,3.672v.108c0,1.643-1.535,2.63-4.383,2.63a19.755,19.755,0,0,1-12.435-4.6l-5.915,7.066A26.782,26.782,0,0,0,214.5,49.639c9.313,0,15.5-4.656,15.5-12.49v-.11c0-7.175-5.48-10.023-14.3-11.941Z"/></svg>