<svg id="Layer_1" data-name="Layer 1" xmlns="http://www.w3.org/2000/svg" viewBox="0 0 270 60"><path d="M21.019,30.955H31.333a8.432,8.432,0,0,1,.147.937,10.389,10.389,0,0,1,.059,1.1,14,14,0,0,1-.617,4.2,9.955,9.955,0,0,1-1.94,3.523A9.769,9.769,0,0,1,25.6,43.267a10.655,10.655,0,0,1-4.5.9,10.481,10.481,0,0,1-4.319-.9,10.692,10.692,0,0,1-3.526-2.52,12.174,12.174,0,0,1-2.38-3.83,13.671,13.671,0,0,1,0-9.662,12.18,12.18,0,0,1,2.38-3.829,10.709,10.709,0,0,1,3.526-2.521A10.481,10.481,0,0,1,21.107,20a10.1,10.1,0,0,1,8.022,3.652L26.4,26.593a7.38,7.38,0,0,0-2.292-1.826,7.241,7.241,0,0,0-5.76-.065,6.814,6.814,0,0,0-2.263,1.6,7.7,7.7,0,0,0-1.542,2.5,9.674,9.674,0,0,0,0,6.56A7.563,7.563,0,0,0,16.1,37.871a6.978,6.978,0,0,0,2.277,1.6,6.836,6.836,0,0,0,2.763.565,6.776,6.776,0,0,0,2.835-.533,6.615,6.615,0,0,0,1.984-1.374,5.247,5.247,0,0,0,1.014-1.47,9,9,0,0,0,.661-1.987H21.019Z"/><path d="M41.03,27.3a7.38,7.38,0,0,1,3.071.63,7.267,7.267,0,0,1,2.41,1.746A8.061,8.061,0,0,1,48.1,32.345a10.332,10.332,0,0,1,0,6.786A8.061,8.061,0,0,1,46.511,41.8a7.25,7.25,0,0,1-2.41,1.745,7.8,7.8,0,0,1-6.141,0A7.24,7.24,0,0,1,35.55,41.8a8.044,8.044,0,0,1-1.586-2.666,10.332,10.332,0,0,1,0-6.786,8.044,8.044,0,0,1,1.586-2.666,7.257,7.257,0,0,1,2.41-1.746A7.375,7.375,0,0,1,41.03,27.3Zm0,12.959a3.465,3.465,0,0,0,1.425-.307,3.627,3.627,0,0,0,1.22-.889,4.265,4.265,0,0,0,.838-1.421,6.058,6.058,0,0,0,0-3.814,4.28,4.28,0,0,0-.838-1.422,3.651,3.651,0,0,0-1.22-.888,3.5,3.5,0,0,0-2.865,0,3.683,3.683,0,0,0-1.2.888,4.28,4.28,0,0,0-.838,1.422,6.058,6.058,0,0,0,0,3.814,4.265,4.265,0,0,0,.838,1.421,3.658,3.658,0,0,0,1.2.889A3.439,3.439,0,0,0,41.03,40.262Z"/><path d="M57.955,27.3a7.38,7.38,0,0,1,3.071.63,7.267,7.267,0,0,1,2.41,1.746,8.08,8.08,0,0,1,1.587,2.666,10.349,10.349,0,0,1,0,6.786A8.08,8.08,0,0,1,63.436,41.8a7.25,7.25,0,0,1-2.41,1.745,7.8,7.8,0,0,1-6.141,0A7.226,7.226,0,0,1,52.476,41.8a8.046,8.046,0,0,1-1.587-2.666,10.332,10.332,0,0,1,0-6.786,8.046,8.046,0,0,1,1.587-2.666,7.243,7.243,0,0,1,2.409-1.746A7.375,7.375,0,0,1,57.955,27.3Zm0,12.959a3.465,3.465,0,0,0,1.425-.307,3.617,3.617,0,0,0,1.22-.889,4.265,4.265,0,0,0,.838-1.421,6.058,6.058,0,0,0,0-3.814,4.28,4.28,0,0,0-.838-1.422,3.641,3.641,0,0,0-1.22-.888,3.493,3.493,0,0,0-2.864,0,3.677,3.677,0,0,0-1.2.888,4.261,4.261,0,0,0-.837,1.422,6.039,6.039,0,0,0,0,3.814,4.246,4.246,0,0,0,.837,1.421,3.652,3.652,0,0,0,1.2.889A3.431,3.431,0,0,0,57.955,40.262Z"/><path d="M74.705,51.153a7.859,7.859,0,0,1-2.718-.437,7.465,7.465,0,0,1-2.072-1.131,7.245,7.245,0,0,1-1.469-1.535,6.167,6.167,0,0,1-.852-1.68l3.673-1.616a3.814,3.814,0,0,0,1.351,1.955,3.431,3.431,0,0,0,2.087.7,3.516,3.516,0,0,0,2.879-1.3,5.518,5.518,0,0,0,1.058-3.58v-1.1h-.235a4.845,4.845,0,0,1-1.778,1.632,5.369,5.369,0,0,1-2.6.6,5.832,5.832,0,0,1-2.512-.575,6.613,6.613,0,0,1-2.16-1.648,8.629,8.629,0,0,1-1.528-2.577,9.157,9.157,0,0,1-.587-3.359,9.293,9.293,0,0,1,.587-3.377,8.587,8.587,0,0,1,1.528-2.592,6.61,6.61,0,0,1,2.16-1.647,5.82,5.82,0,0,1,2.512-.577,5.381,5.381,0,0,1,2.6.6,4.862,4.862,0,0,1,1.778,1.632h.235V27.821h3.673v14.7a10.892,10.892,0,0,1-.558,3.6A7.933,7.933,0,0,1,80.2,48.842a6.731,6.731,0,0,1-2.394,1.712A7.794,7.794,0,0,1,74.705,51.153Zm.146-11.311a3.635,3.635,0,0,0,1.4-.285,3.543,3.543,0,0,0,1.219-.841,4.208,4.208,0,0,0,.852-1.364,4.971,4.971,0,0,0,.324-1.857,5.093,5.093,0,0,0-.324-1.872,4.17,4.17,0,0,0-.852-1.38,3.543,3.543,0,0,0-1.219-.841,3.636,3.636,0,0,0-1.4-.286,3.523,3.523,0,0,0-1.381.286,3.479,3.479,0,0,0-1.2.857,4.409,4.409,0,0,0-.852,1.38,5.481,5.481,0,0,0,0,3.713,4.208,4.208,0,0,0,.852,1.364,3.582,3.582,0,0,0,1.2.841A3.521,3.521,0,0,0,74.851,39.842Z"/><path d="M85.605,43.655V20.517h3.85V43.655Z"/><path d="M106.233,39.842a8.565,8.565,0,0,1-2.689,3.134,6.964,6.964,0,0,1-4.128,1.2,7.254,7.254,0,0,1-5.466-2.391,8.149,8.149,0,0,1-1.6-2.666,9.586,9.586,0,0,1-.573-3.377,9.431,9.431,0,0,1,.558-3.248,8.406,8.406,0,0,1,1.558-2.682,7.55,7.55,0,0,1,2.365-1.826,6.683,6.683,0,0,1,3.012-.679,7.221,7.221,0,0,1,3.085.63,6.345,6.345,0,0,1,2.263,1.746A7.732,7.732,0,0,1,106,32.312a11.123,11.123,0,0,1,.47,3.3V36a2.341,2.341,0,0,0-.029.356,1.951,1.951,0,0,0-.03.355H95.567a4.732,4.732,0,0,0,.484,1.664,3.952,3.952,0,0,0,.911,1.164,3.442,3.442,0,0,0,1.19.679,4.255,4.255,0,0,0,1.322.21,3.5,3.5,0,0,0,2.19-.663A4.707,4.707,0,0,0,103.03,38.1Zm-3.5-6.14a2.932,2.932,0,0,0-.249-.937,3.311,3.311,0,0,0-.647-.97,3.379,3.379,0,0,0-1.058-.743,3.592,3.592,0,0,0-1.513-.291,3.315,3.315,0,0,0-2.174.776A4.129,4.129,0,0,0,95.772,33.7Z"/><path d="M115.871,43.655V20.517h6.435a9.988,9.988,0,0,1,7.743,3.2,11.927,11.927,0,0,1,2.924,8.37,11.91,11.91,0,0,1-2.924,8.386,10.014,10.014,0,0,1-7.743,3.183Zm2.7-20.294v17.45h3.732A7.457,7.457,0,0,0,128.1,38.5a9.146,9.146,0,0,0,2.115-6.415,9.163,9.163,0,0,0-2.115-6.4,7.437,7.437,0,0,0-5.789-2.326Z"/><path d="M141.17,27.3a6.34,6.34,0,0,1,4.732,1.762,6.586,6.586,0,0,1,1.733,4.831v9.759H145.05v-2.2h-.119a5.064,5.064,0,0,1-4.465,2.714,5.5,5.5,0,0,1-3.983-1.551,5.179,5.179,0,0,1-1.6-3.878,4.894,4.894,0,0,1,1.69-3.91,6.671,6.671,0,0,1,4.51-1.454,7.4,7.4,0,0,1,3.968.969V33.67a3.533,3.533,0,0,0-1.117-2.634,3.639,3.639,0,0,0-2.615-1.083,4.059,4.059,0,0,0-3.586,2.1l-2.38-1.648A6.452,6.452,0,0,1,141.17,27.3Zm-3.5,11.505a2.461,2.461,0,0,0,.9,1.939,3.111,3.111,0,0,0,2.1.775,4.119,4.119,0,0,0,3.041-1.389,4.554,4.554,0,0,0,1.338-3.264,5.206,5.206,0,0,0-3.527-1.1,4.289,4.289,0,0,0-2.748.873A2.664,2.664,0,0,0,137.674,38.808Z"/><path d="M156.1,43.914a3.9,3.9,0,0,1-2.923-1.2,4.668,4.668,0,0,1-1.19-3.328V30.535h-2.528V27.821h2.528V22.973h2.7v4.848h3.526v2.714h-3.526V38.42a3.091,3.091,0,0,0,.558,2.149,1.736,1.736,0,0,0,1.264.566,2.471,2.471,0,0,0,.631-.081,3.081,3.081,0,0,0,.573-.21l.852,2.65A6.679,6.679,0,0,1,156.1,43.914Z"/><path d="M165.971,27.3a6.338,6.338,0,0,1,4.731,1.762,6.59,6.59,0,0,1,1.733,4.831v9.759H169.85v-2.2h-.118a5.065,5.065,0,0,1-4.466,2.714,5.5,5.5,0,0,1-3.982-1.551,5.175,5.175,0,0,1-1.6-3.878,4.893,4.893,0,0,1,1.689-3.91,6.672,6.672,0,0,1,4.51-1.454,7.4,7.4,0,0,1,3.968.969V33.67a3.53,3.53,0,0,0-1.117-2.634,3.635,3.635,0,0,0-2.615-1.083,4.057,4.057,0,0,0-3.585,2.1l-2.381-1.648A6.454,6.454,0,0,1,165.971,27.3Zm-3.5,11.505a2.461,2.461,0,0,0,.9,1.939,3.111,3.111,0,0,0,2.1.775,4.12,4.12,0,0,0,3.041-1.389,4.557,4.557,0,0,0,1.337-3.264,5.2,5.2,0,0,0-3.526-1.1,4.285,4.285,0,0,0-2.748.873A2.662,2.662,0,0,0,162.474,38.808Z"/><path d="M194.531,37.483a6.275,6.275,0,0,1-2.027,4.88,7.3,7.3,0,0,1-5,1.809,6.954,6.954,0,0,1-4.613-1.68,8.682,8.682,0,0,1-2.763-4.589l2.585-1.163a7.829,7.829,0,0,0,.736,1.874,5.968,5.968,0,0,0,1.1,1.438,4.921,4.921,0,0,0,1.395.937,3.925,3.925,0,0,0,1.617.34,4.374,4.374,0,0,0,3.026-1.051,3.565,3.565,0,0,0,1.176-2.8,3.507,3.507,0,0,0-.971-2.488,8.983,8.983,0,0,0-3.408-1.939,32.773,32.773,0,0,1-3.144-1.358,5.985,5.985,0,0,1-3.349-5.525,5.881,5.881,0,0,1,1.85-4.363A6.406,6.406,0,0,1,187.362,20a6.642,6.642,0,0,1,4.173,1.358,6.3,6.3,0,0,1,2.35,3.328l-2.527,1.163a4.128,4.128,0,0,0-1.4-2.149,4.188,4.188,0,0,0-5.216.113,2.928,2.928,0,0,0-1.087,2.36,2.862,2.862,0,0,0,.852,2.068,14.14,14.14,0,0,0,4.085,2.068,10.277,10.277,0,0,1,4.569,2.924A6.641,6.641,0,0,1,194.531,37.483Z"/><path d="M202.29,43.914a3.9,3.9,0,0,1-2.924-1.2,4.673,4.673,0,0,1-1.19-3.328V30.535h-2.527V27.821h2.527V22.973h2.7v4.848h3.527v2.714h-3.527V38.42a3.09,3.09,0,0,0,.56,2.149,1.731,1.731,0,0,0,1.263.566,2.471,2.471,0,0,0,.631-.081,3.118,3.118,0,0,0,.574-.21l.852,2.65A6.69,6.69,0,0,1,202.29,43.914Z"/><path d="M219.626,43.655H217.04v-2.2h-.117a5.437,5.437,0,0,1-8.624,1.05,7.062,7.062,0,0,1-1.426-4.734V27.821h2.7V37.58q.089,3.877,3.556,3.878a3.274,3.274,0,0,0,2.7-1.438,5.543,5.543,0,0,0,1.088-3.442V27.821h2.7Z"/><path d="M228.794,44.172a6.1,6.1,0,0,1-4.848-2.456,9.249,9.249,0,0,1-2-5.978,9.254,9.254,0,0,1,2-5.979,6.106,6.106,0,0,1,4.848-2.456,5.75,5.75,0,0,1,2.895.744,5.252,5.252,0,0,1,2.012,1.971h.118l-.118-2.2v-7.3h2.7V43.655h-2.586v-2.2H233.7a5.252,5.252,0,0,1-2.012,1.971A5.759,5.759,0,0,1,228.794,44.172Zm.442-2.714a3.985,3.985,0,0,0,3.261-1.584,6.234,6.234,0,0,0,1.322-4.136,6.264,6.264,0,0,0-1.322-4.1,4.011,4.011,0,0,0-3.261-1.616,4.063,4.063,0,0,0-3.263,1.616,6.269,6.269,0,0,0-1.321,4.1,6.19,6.19,0,0,0,1.321,4.1A4.063,4.063,0,0,0,229.236,41.458Z"/><path d="M243.192,22.359a2.132,2.132,0,0,1-.558,1.487,1.794,1.794,0,0,1-2.7,0,2.259,2.259,0,0,1,0-2.973,1.793,1.793,0,0,1,2.7,0A2.131,2.131,0,0,1,243.192,22.359Zm-.558,5.462V43.655h-2.7V27.821Z"/><path d="M245.19,35.738a8.856,8.856,0,0,1,2.087-6.043A6.8,6.8,0,0,1,252.6,27.3a6.719,6.719,0,0,1,5.29,2.392A8.787,8.787,0,0,1,260,35.738a8.709,8.709,0,0,1-2.115,6.043,6.718,6.718,0,0,1-5.29,2.391,6.8,6.8,0,0,1-5.318-2.391A8.853,8.853,0,0,1,245.19,35.738Zm2.7,0a6.148,6.148,0,0,0,1.352,4.136,4.334,4.334,0,0,0,6.7,0,6.153,6.153,0,0,0,1.352-4.136,6.1,6.1,0,0,0-1.352-4.1,4.28,4.28,0,0,0-6.7,0A6.1,6.1,0,0,0,247.893,35.738Z"/></svg>