<svg id="Layer_1" data-name="Layer 1" xmlns="http://www.w3.org/2000/svg" viewBox="0 0 170 60"><path d="M130.016,24.17c.405-.167.6-.522.871-.774a6.111,6.111,0,0,1,5.031-1.6,7.149,7.149,0,0,1,1.941.44,4.161,4.161,0,0,1,2.106,1.814c.239.409.324.411.654.037a6.074,6.074,0,0,1,3.134-2.115,7.491,7.491,0,0,1,5.586.7,4.706,4.706,0,0,1,2.2,3.109,10.27,10.27,0,0,1,.286,2.6c-.021,3.371-.008,6.741-.009,10.112,0,.18-.006.361,0,.541a.367.367,0,0,1-.417.428c-1.339,0-2.677,0-4.015,0-.268,0-.356-.152-.352-.394,0-.206,0-.412,0-.618,0-3.036-.016-6.072,0-9.108a10.372,10.372,0,0,0-.278-2.136,2.227,2.227,0,0,0-1.844-1.631,4.089,4.089,0,0,0-2.188.2,3.081,3.081,0,0,0-1.664,2.6A13.592,13.592,0,0,0,141,30.147q-.007,4.167,0,8.336c0,.181-.008.361,0,.541a.366.366,0,0,1-.408.437c-1.338,0-2.676,0-4.014,0-.265,0-.364-.141-.361-.386,0-.206,0-.412,0-.618,0-3.088-.015-6.175,0-9.263a9.639,9.639,0,0,0-.277-2.058,2.1,2.1,0,0,0-1.792-1.564,3.388,3.388,0,0,0-2.576.495,3.15,3.15,0,0,0-1.347,2.4c-.065,1.1-.045,2.212-.048,3.318,0,2.316,0,4.631,0,6.947,0,.717-.009.724-.742.728q-1.737.009-3.474,0c-.544,0-.544-.016-.563-.565-.005-.129,0-.258,0-.386V23.149c0-.128,0-.257,0-.386.022-.576.031-.6.631-.6q1.582-.014,3.165,0c.637.005.666.064.7.72A2.5,2.5,0,0,0,130.016,24.17Z"/><path d="M50.549,37.616c-.262.3-.171.595-.172.864-.009,2.161,0,4.322-.006,6.483,0,.794-.006.8-.827.8-1.132,0-2.264.009-3.4,0-.532-.006-.561-.051-.582-.577-.005-.128,0-.257,0-.385V23.188c0-.155,0-.309,0-.463,0-.373.159-.57.555-.568q1.737.011,3.473,0c.392,0,.563.176.548.565-.012.308-.007.617,0,.926.005.143-.042.333.162.379.151.034.206-.119.285-.214a5.39,5.39,0,0,1,1.983-1.522,6.728,6.728,0,0,1,2.845-.558,7.26,7.26,0,0,1,7.178,5.4,12.027,12.027,0,0,1-.071,7.8,6.964,6.964,0,0,1-5.181,4.778,6.49,6.49,0,0,1-6.594-1.9C50.7,37.753,50.644,37.705,50.549,37.616Zm-.336-6.743a7.917,7.917,0,0,0,.269,2.319,4.633,4.633,0,0,0,1.07,2.013,3.868,3.868,0,0,0,6.386-1.333,8.171,8.171,0,0,0,.414-2.186,7.593,7.593,0,0,0-.6-4.139,3.806,3.806,0,0,0-6.862-.15A7.017,7.017,0,0,0,50.213,30.873Z"/><path d="M19.828,15.583h8.728c.18,0,.361.012.541,0,.364-.027.513.142.511.5-.006,1.184-.008,2.369,0,3.553,0,.348-.18.439-.484.435-.515-.007-1.03,0-1.545,0-1.493,0-2.987,0-4.48,0-.619,0-.664.043-.669.654-.011,1.441,0,2.883,0,4.325V38.331c0,.181.006.361,0,.541-.023.531-.06.587-.575.591-1.39.01-2.78,0-4.17.007-.4,0-.561-.178-.544-.561.009-.18,0-.36,0-.54V21.455c0-.206,0-.412,0-.618-.015-.762-.016-.768-.793-.77-1.853,0-3.707,0-5.561,0-.814,0-.78.078-.78-.809,0-.952,0-1.905,0-2.857,0-.811,0-.815.789-.816Z"/><path d="M75.864,31.975H70.612c-.18,0-.36,0-.54,0-.32.012-.444.186-.446.5a3.744,3.744,0,0,0,3.031,3.74,4.429,4.429,0,0,0,4.151-1.006,1.707,1.707,0,0,0,.5-.566c.2-.488.551-.533.993-.525.952.018,1.9,0,2.858.01.489.006.58.123.422.537a7.227,7.227,0,0,1-3.745,4.366,9.72,9.72,0,0,1-6.012.716,8.806,8.806,0,0,1-3.9-1.7,7.994,7.994,0,0,1-2.577-3.832,10.029,10.029,0,0,1-.5-4.022c.29-3.435,1.773-6.119,4.983-7.649a9.2,9.2,0,0,1,4.879-.748,7.445,7.445,0,0,1,5.029,2.5,9.011,9.011,0,0,1,2.168,4.683,11.216,11.216,0,0,1,.242,1.988c-.009.993,0,.994-.957,1Zm-2.479-3.009h2.542c.308,0,.617,0,.925-.006.188-.006.388-.062.349-.3A3.653,3.653,0,0,0,75.392,25.7a4.207,4.207,0,0,0-3.792.035,3.354,3.354,0,0,0-1.832,2.336c-.2.883-.228.892.69.895C71.433,28.968,72.409,28.966,73.385,28.966Z"/><path d="M35.322,33.653q1.629-5.046,3.247-10.082c.108-.34.231-.677.328-1.019a.5.5,0,0,1,.571-.394q1.969,0,3.938,0c.352,0,.47.139.347.478-.306.843-.6,1.691-.909,2.532-.749,2.017-1.51,4.03-2.261,6.046-.922,2.475-1.835,4.952-2.757,7.426-.438,1.176-.858,2.359-1.338,3.517A4.961,4.961,0,0,1,33.834,45a5.951,5.951,0,0,1-1.858.466,24.659,24.659,0,0,1-3.395-.018c-.672-.04-.742-.126-.746-.79-.006-.9.013-1.8-.007-2.7-.009-.375.132-.519.5-.483.384.039.769.069,1.153.106a4.332,4.332,0,0,0,1.382-.037,1.879,1.879,0,0,0,1.531-1.7,4,4,0,0,0-.29-1.883q-2.1-5.556-4.195-11.117c-.5-1.34-.986-2.688-1.476-4.034-.2-.545-.138-.646.43-.651,1.261-.009,2.522,0,3.784-.006a.679.679,0,0,1,.781.543c.618,1.954,1.292,3.89,1.936,5.836.539,1.629,1.065,3.263,1.6,4.893C35,33.553,35.078,33.654,35.322,33.653Z"/><path d="M92.968,31.138a9.562,9.562,0,0,1,1.667-5.979,8.055,8.055,0,0,1,5.81-3.324,10.9,10.9,0,0,1,4.053.216,7.825,7.825,0,0,1,5.8,5.282,10.75,10.75,0,0,1,.242,6.231,7.923,7.923,0,0,1-6.459,6.132,10.421,10.421,0,0,1-2.832.228A8.913,8.913,0,0,1,95.6,37.635a8.536,8.536,0,0,1-2.366-4.224A8.785,8.785,0,0,1,92.968,31.138Zm4.825-.3a12.674,12.674,0,0,0,.007,1.308A5.021,5.021,0,0,0,98.952,35.1a4.013,4.013,0,0,0,6.866-1.924,9.664,9.664,0,0,0,.017-4.574,3.982,3.982,0,0,0-7.425-1.2A6.4,6.4,0,0,0,97.793,30.836Z"/><path d="M156.63,29.99V11.147c0-.155,0-.309,0-.464.012-.667.013-.674.7-.678.953-.006,1.906-.008,2.858,0,.623,0,.623.015.636.66,0,.128,0,.257,0,.386q0,18.959,0,37.918c0,1.141.11,1.019-1.042,1.025-.85.005-1.7.009-2.549,0-.584-.007-.585-.018-.6-.619,0-.18,0-.361,0-.541Z"/><path d="M84.95,32.382q0-3.087,0-6.173c0-.8-.015-.815-.819-.825-.488,0-.977-.011-1.466,0-.337.008-.531-.078-.521-.471.02-.746.017-1.492,0-2.238-.009-.415.19-.533.569-.522.566.017,1.132,0,1.7,0,.38,0,.549-.145.545-.549a7.986,7.986,0,0,1,.17-2.22,4.661,4.661,0,0,1,3.626-3.564,9.674,9.674,0,0,1,3.905-.1c.587.1.6.1.6.655q.012,1.158,0,2.315c-.008.619-.023.628-.678.594a8.423,8.423,0,0,0-1.464-.016,1.361,1.361,0,0,0-1.363,1.312c-.23,1.485-.157,1.573,1.32,1.573.438,0,.875-.009,1.312,0,.537.014.585.053.594.565.013.72-.011,1.441.008,2.16.01.375-.151.5-.5.5-.566-.01-1.132,0-1.7,0-1.181,0-1.067-.041-1.067,1.105q0,6.02,0,12.038c0,.94.095.944-.908.941-1.029,0-2.058,0-3.088,0-.766,0-.771-.007-.772-.755Q84.948,35.546,84.95,32.382Z"/><path d="M117.138,24.973a2.923,2.923,0,0,0,.733-.857,6.129,6.129,0,0,1,4.709-2.387,2.046,2.046,0,0,1,.456.06c.618.111.627.112.632.718.007,1.055.009,2.109,0,3.164-.006.665-.021.684-.716.55a5.387,5.387,0,0,0-2.886.253,3.957,3.957,0,0,0-2.444,2.768,7.485,7.485,0,0,0-.257,2.212q0,3.472,0,6.944c0,.155,0,.309,0,.463-.019.571-.031.6-.631.6-1.183.01-2.366,0-3.549,0-.078,0-.155-.005-.232,0-.259.007-.373-.125-.371-.376,0-.154,0-.308,0-.463V23.038c0-.154,0-.308,0-.463,0-.287.145-.415.431-.414q1.814,0,3.627,0a.4.4,0,0,1,.464.471c-.008.489,0,.977,0,1.466C117.1,24.345,117.12,24.594,117.138,24.973Z"/></svg>