<svg id="Layer_1" data-name="Layer 1" xmlns="http://www.w3.org/2000/svg" viewBox="0 0 150 60"><defs><style>.cls-1{opacity:0.8;}.cls-2{opacity:0.7;}</style></defs><path d="M54.4,33.845v8.291H52.141V22.8H62.406v2.376H54.4v6.346h7.22v2.323Z"/><path d="M67.243,24.339a1.781,1.781,0,0,1-.467,1.242,1.5,1.5,0,0,1-2.259,0,1.889,1.889,0,0,1,0-2.485,1.5,1.5,0,0,1,2.259,0A1.785,1.785,0,0,1,67.243,24.339ZM66.776,28.9V42.136H64.517V28.9Z"/><path d="M71.982,42.136H69.723V28.9h2.16v2.16h.1a3.52,3.52,0,0,1,1.412-1.8,3.676,3.676,0,0,1,2.1-.742,3.9,3.9,0,0,1,1.67.324l-.687,2.4a3.437,3.437,0,0,0-1.327-.189A2.819,2.819,0,0,0,72.927,32.2a4.008,4.008,0,0,0-.945,2.646Z"/><path d="M83.3,42.568a5.511,5.511,0,0,1-4.371-2,7.467,7.467,0,0,1-1.719-5.05,7.616,7.616,0,0,1,1.67-5.036,5.629,5.629,0,0,1,8.533-.109A8.112,8.112,0,0,1,89,35.708l-.025.27H79.52A4.537,4.537,0,0,0,80.7,39.111,3.6,3.6,0,0,0,83.4,40.3a3.747,3.747,0,0,0,3.389-2.376L88.8,39a6.4,6.4,0,0,1-2.247,2.619A5.791,5.791,0,0,1,83.3,42.568Zm-3.61-8.642h6.9a3.429,3.429,0,0,0-1.02-2.282,3.369,3.369,0,0,0-2.468-.9,3.1,3.1,0,0,0-2.2.864A4.239,4.239,0,0,0,79.692,33.926Z"/><path d="M97.421,42.568A4.806,4.806,0,0,1,95,41.946,4.4,4.4,0,0,1,93.321,40.3h-.1v1.837h-2.16V22.8h2.259v6.1l-.1,1.836h.1A4.4,4.4,0,0,1,95,29.092a4.805,4.805,0,0,1,2.418-.621,4.992,4.992,0,0,1,4.028,2.052,7.663,7.663,0,0,1,1.694,5,7.591,7.591,0,0,1-1.694,5A4.993,4.993,0,0,1,97.421,42.568ZM97.053,40.3a3.394,3.394,0,0,0,2.726-1.35,5.174,5.174,0,0,0,1.105-3.43,5.245,5.245,0,0,0-1.105-3.43,3.452,3.452,0,0,0-5.476,0,5.316,5.316,0,0,0-1.081,3.43A5.356,5.356,0,0,0,94.3,38.976,3.441,3.441,0,0,0,97.053,40.3Z"/><path d="M109.773,28.471a5.3,5.3,0,0,1,3.953,1.471,5.508,5.508,0,0,1,1.449,4.038v8.156h-2.161V40.3h-.1a4.232,4.232,0,0,1-3.733,2.269,4.59,4.59,0,0,1-3.327-1.3,4.326,4.326,0,0,1-1.338-3.241,4.088,4.088,0,0,1,1.412-3.267,5.578,5.578,0,0,1,3.769-1.215,6.181,6.181,0,0,1,3.315.81v-.567a2.951,2.951,0,0,0-.933-2.2,3.043,3.043,0,0,0-2.186-.905,3.39,3.39,0,0,0-3,1.756l-1.988-1.378A5.391,5.391,0,0,1,109.773,28.471Zm-2.923,9.614a2.055,2.055,0,0,0,.749,1.62,2.6,2.6,0,0,0,1.756.648,3.446,3.446,0,0,0,2.542-1.161,3.809,3.809,0,0,0,1.117-2.728,4.347,4.347,0,0,0-2.947-.918,3.584,3.584,0,0,0-2.3.729A2.225,2.225,0,0,0,106.85,38.085Z"/><path d="M126.814,38.463a3.708,3.708,0,0,1-1.375,2.916,5.531,5.531,0,0,1-6.655.149,5.678,5.678,0,0,1-1.964-2.741l2.014-.945a4.083,4.083,0,0,0,1.289,1.85,2.943,2.943,0,0,0,1.854.661,3.046,3.046,0,0,0,1.8-.513,1.476,1.476,0,0,0,.724-1.215q0-1.269-1.768-1.864l-2.063-.567q-3.511-.972-3.511-3.727a3.562,3.562,0,0,1,1.338-2.9,5.238,5.238,0,0,1,3.426-1.093,5.185,5.185,0,0,1,2.885.837,4.439,4.439,0,0,1,1.8,2.241l-2.014.918a2.7,2.7,0,0,0-1.117-1.309,3.257,3.257,0,0,0-1.731-.473,2.708,2.708,0,0,0-1.584.486,1.419,1.419,0,0,0-.7,1.189q0,1.134,1.94,1.62l1.817.513Q126.814,35.465,126.814,38.463Z"/><path d="M134.3,42.568a5.511,5.511,0,0,1-4.371-2,7.467,7.467,0,0,1-1.719-5.05,7.621,7.621,0,0,1,1.67-5.036,5.63,5.63,0,0,1,8.534-.109A8.117,8.117,0,0,1,140,35.708l-.024.27h-9.454a4.532,4.532,0,0,0,1.178,3.133,3.6,3.6,0,0,0,2.7,1.188,3.747,3.747,0,0,0,3.389-2.376L139.8,39a6.4,6.4,0,0,1-2.247,2.619A5.791,5.791,0,0,1,134.3,42.568Zm-3.61-8.642h6.9a3.428,3.428,0,0,0-1.019-2.282,3.37,3.37,0,0,0-2.468-.9,3.1,3.1,0,0,0-2.2.864A4.239,4.239,0,0,0,130.693,33.926Z"/><g class="cls-1"><path d="M30.9,22.808l-4.383,4.361-.213.212h0L10.113,43.491h0a.89.89,0,0,1-.043-.088l10.972-21.32,1.5-2.907,2.391-4.646a1.093,1.093,0,0,1,1.954.022l3.939,8.09Z"/></g><g class="cls-2"><path d="M26.518,27.169l-.213.212h0L10.113,43.491h0a.89.89,0,0,1-.043-.088A1.309,1.309,0,0,1,10,43.226l3.7-22.847L15.716,7.892a.592.592,0,0,1,1.114-.169l5.706,11.452,3.917,7.863Z"/></g><path d="M42.3,43.489a1.52,1.52,0,0,1-.571.6l-3.977,2.361-9.4,5.585a4.075,4.075,0,0,1-4.137.013l-9.581-5.614-3.948-2.345a1.552,1.552,0,0,1-.572-.6h0l16.1-16.205.244-.247,4.367-4.4,5.548-5.585a1.116,1.116,0,0,1,1.891.6L42.468,42.5A1.544,1.544,0,0,1,42.3,43.489Z"/></svg>