<svg id="Layer_1" data-name="Layer 1" xmlns="http://www.w3.org/2000/svg" xmlns:xlink="http://www.w3.org/1999/xlink" viewBox="0 0 120 60"><defs><style>.cls-1{fill:#fff;}.cls-1,.cls-3{fill-rule:evenodd;}.cls-2{mask:url(#mask);}</style><mask id="mask" x="11.422" y="10" width="98.578" height="40.885" maskUnits="userSpaceOnUse"><g id="b"><path id="a" class="cls-1" d="M11.435,10H110V50.885H11.435Z"/></g></mask></defs><g class="cls-2"><path class="cls-3" d="M21.723,28.391c-2.124-.786-3.288-1.4-3.288-2.357,0-.815.669-1.281,1.862-1.281a14.311,14.311,0,0,1,5.966,1.6l.873-5.383a16.774,16.774,0,0,0-7.188-1.543,9.211,9.211,0,0,0-5.936,1.833,6.524,6.524,0,0,0-2.3,5.238c0,3.958,2.415,5.646,6.344,7.072,2.531.9,3.375,1.542,3.375,2.531,0,.96-.815,1.513-2.3,1.513A16.028,16.028,0,0,1,12.3,35.549l-.873,5.442a17.74,17.74,0,0,0,8.09,1.95,9.882,9.882,0,0,0,6.2-1.775,6.759,6.759,0,0,0,2.473-5.617c0-4.045-2.473-5.732-6.46-7.158ZM42.4,25.219l.873-5.354H38.659v-6.5l-6.2,1.02-.895,5.48-2.18.353-.815,5h2.986v10.5c0,2.735.7,4.627,2.124,5.791,1.193.96,2.91,1.426,5.325,1.426a13.39,13.39,0,0,0,3.783-.524V36.742a9.9,9.9,0,0,1-2.095.32c-1.426,0-2.037-.727-2.037-2.386V25.219Zm13.84-5.667a4.3,4.3,0,0,0-4.307,2.99l-.436-2.677H45.177V42.5h7.217V27.809A4.65,4.65,0,0,1,56.322,26.3a6.941,6.941,0,0,1,1.281.087V19.727A5.844,5.844,0,0,0,56.235,19.552Zm6.751-1.928a3.812,3.812,0,1,0-3.812-3.812,3.8,3.8,0,0,0,3.812,3.812Zm-3.637,2.241H66.6V42.5H59.349ZM87.128,21.9A6.34,6.34,0,0,0,81.8,19.428a7.514,7.514,0,0,0-5.646,2.706l-.378-2.269H69.435v31.02l7.217-1.193V42.417a11.036,11.036,0,0,0,3.259.524,8.611,8.611,0,0,0,6.46-2.677c1.95-2.125,2.939-5.413,2.939-9.749,0-3.841-.727-6.751-2.182-8.613Zm-6,13.967A2.833,2.833,0,0,1,78.6,37.557a4.269,4.269,0,0,1-1.95-.436V26.354a3.929,3.929,0,0,1,2.735-1.426c1.834,0,2.736,1.979,2.736,5.849a10.447,10.447,0,0,1-.99,5.092ZM110,30.981c0-3.609-.786-6.46-2.328-8.468a8.291,8.291,0,0,0-6.926-3.085c-6.14,0-9.952,4.54-9.952,11.815,0,4.074,1.019,7.129,3.027,9.079,1.8,1.746,4.394,2.619,7.74,2.619A14.625,14.625,0,0,0,109.3,41.02l-.786-4.947a12.81,12.81,0,0,1-6.169,1.484,4.411,4.411,0,0,1-3.056-.9,4.544,4.544,0,0,1-1.338-3.172h11.96c.029-.349.087-1.979.087-2.5ZM97.9,29.06c.2-3.23,1.076-4.743,2.735-4.743,1.629,0,2.473,1.542,2.59,4.743Z"/></g></svg>