<svg id="Layer_1" data-name="Layer 1" xmlns="http://www.w3.org/2000/svg" viewBox="0 0 140 60"><path d="M17.3,10.136c.22-.189.483-.1.724-.1,4.077-.006,8.154-.025,12.23.006a7.277,7.277,0,0,1,4.187,1.2,6.682,6.682,0,0,1,1.327,9.741A7.135,7.135,0,0,1,29.6,23.4q-2.811-.129-5.628.01a.1.1,0,0,1-.057-.06c0-4.181,0-8.362.021-12.543,0-.529-.173-.649-.67-.645C21.281,10.175,19.292,10.148,17.3,10.136Z"/><path d="M24.105,31.239q-.032,2.729-.061,5.456l-7.438-.044a6.646,6.646,0,0,1-.243-13.171,3.682,3.682,0,0,1,1.267-.116l6.289-.015a.1.1,0,0,0,.057.06,12.024,12.024,0,0,1,.085,2.494c.034.971.031,1.944.043,2.915A15.653,15.653,0,0,0,24.105,31.239Z"/><path d="M23.919,23.349l-6.289.015a3.682,3.682,0,0,0-1.267.116c-.7-.368-1.481-.5-2.185-.869a6.761,6.761,0,0,1-3.435-6.771,6.666,6.666,0,0,1,4.608-5.413,7.453,7.453,0,0,1,2-.427c1.99.012,3.979.039,5.968.024.5,0,.673.116.67.645C23.962,14.85,23.922,19.168,23.919,23.349Z"/><path d="M16.606,36.651l7.438.044a57.582,57.582,0,0,1-.132,7.593A6.346,6.346,0,0,1,19.521,49.6a6.638,6.638,0,0,1-7.836-9.75A6.359,6.359,0,0,1,16.1,36.833,1.022,1.022,0,0,0,16.606,36.651Z"/><path d="M24.105,31.239a15.653,15.653,0,0,1,0-2.421c.7-2.7,2.264-4.6,5.066-5.211A6.569,6.569,0,0,1,37.3,30.168a6.654,6.654,0,0,1-13.2,1.071Z"/><path d="M96.744,25.259c1.835-1.6,3.653-1.894,5.541-.886a3.692,3.692,0,0,1,1.375,1.2c.263.4.376.472.743.058a4.7,4.7,0,0,1,6.09-1.2,4.865,4.865,0,0,1,2.4,4.411c.073,2.815.026,5.633.042,8.449,0,.293-.074.434-.381.386a.53.53,0,0,0-.069,0c-.686-.012-1.583.233-2-.108-.436-.356-.127-1.288-.133-1.967-.018-2.084.007-4.168-.011-6.252a2.741,2.741,0,0,0-2.834-3,2.707,2.707,0,0,0-2.692,2.7c-.011,2.679-.017,5.359.009,8.038.005.488-.127.633-.6.591a8.764,8.764,0,0,0-1.511,0c-.443.038-.524-.124-.521-.535q.029-3.951.005-7.9a2.764,2.764,0,1,0-5.525-.159q-.021,3.951.006,7.9c0,.5-.065.769-.654.693-.626-.081-1.473.262-1.834-.136-.312-.345-.1-1.172-.1-1.787,0-3.664.009-7.328-.014-10.992,0-.484.117-.662.6-.59a4.768,4.768,0,0,0,.687.006C96.562,24.188,96.562,24.188,96.744,25.259Z"/><path d="M87.488,34.957a5.222,5.222,0,0,1-3.812,1.559,5.39,5.39,0,0,1-5.158-3.405,6.731,6.731,0,0,1,.377-6.587,5.523,5.523,0,0,1,8.274-1.441c.08.068.155.143.235.218.055-.073.1-.1.1-.135.037-.946.037-.946.991-.946,1.6,0,1.6,0,1.6,1.573q0,5.526,0,11.052a6.632,6.632,0,0,1-9.8,5.69c-.3-.164-.5-.319-.181-.645a1.321,1.321,0,0,0,.12-.241,4.433,4.433,0,0,1,.873-1.365c.448-.326.893.286,1.371.408a3.989,3.989,0,0,0,5-3.52C87.538,36.478,87.488,35.776,87.488,34.957Zm-7.02-4.789a3.533,3.533,0,1,0,7.047,0,3.535,3.535,0,1,0-7.047,0Z"/><path d="M126.666,25.538a.486.486,0,0,0,.05-.127c.061-1.223.06-1.223,1.34-1.223,1.247,0,1.247,0,1.247,1.228,0,3.891-.009,7.782.012,11.674,0,.476-.108.675-.6.592a2.7,2.7,0,0,0-.412,0,3.416,3.416,0,0,1-1.421-.058c-.439-.233-.017-.876-.245-1.356a6.567,6.567,0,0,1-3.823,1.763,6.414,6.414,0,0,1-6.87-4.758,7.336,7.336,0,0,1,2.609-8.34,6.346,6.346,0,0,1,7.449.175C126.208,25.264,126.374,25.5,126.666,25.538Zm.053,5.44c-.019-.271-.029-.476-.048-.681a4.568,4.568,0,0,0-3.344-3.875,4.238,4.238,0,0,0-4.46,1.988,4.7,4.7,0,0,0,1.935,6.754A4.3,4.3,0,0,0,126.719,30.978Z"/><path d="M57.472,27.612c0-3.135.014-6.271-.015-9.406,0-.527.141-.631.642-.627q4.743.037,9.485,0c.457,0,.665.079.618.587-.057.61.185,1.412-.122,1.789-.325.4-1.157.119-1.766.124-1.9.017-3.8.027-5.7-.007-.5-.009-.545.194-.54.6.018,1.441.027,2.884-.005,4.325-.01.472.1.619.595.609,1.7-.033,3.391,0,5.086-.024.459-.007.6.127.562.575-.048.634.2,1.47-.12,1.855-.336.406-1.2.113-1.836.123-1.214.02-2.429.031-3.642-.006-.5-.016-.653.1-.647.628.031,2.723-.011,5.447.032,8.17.011.662-.2.82-.8.759a6.763,6.763,0,0,0-1.3,0c-.434.041-.53-.112-.527-.531C57.48,33.975,57.472,30.794,57.472,27.612Z"/><path d="M71.5,30.9c0-2.053.014-4.1-.011-6.157-.005-.446.109-.6.562-.561.657.05,1.523-.207,1.923.122.421.348.122,1.243.124,1.9.013,3.588-.006,7.177.02,10.766,0,.546-.092.8-.694.721-.625-.083-1.47.27-1.829-.144-.309-.356-.092-1.174-.093-1.787C71.5,34.135,71.5,32.516,71.5,30.9Z"/><path d="M71.145,19.945a1.688,1.688,0,0,1,3.375-.053,1.689,1.689,0,1,1-3.375.053Z"/></svg>