<svg id="Layer_1" data-name="Layer 1" xmlns="http://www.w3.org/2000/svg" viewBox="0 0 140 60"><path d="M49.935,31.342a1.254,1.254,0,0,0-.06.226c-.01.133-.006.267-.006.4q0,7.217,0,14.432c0,.256,0,.512-.013.768a3.336,3.336,0,0,1-1.149,2.346,2.918,2.918,0,0,1-1.142.715,3.334,3.334,0,0,1-.962.211c-.412,0-.824,0-1.236,0q-15.78,0-31.56.006a4.139,4.139,0,0,1-1.615-.29,3.136,3.136,0,0,1-1.2-.875,3.23,3.23,0,0,1-.649-.994,6.024,6.024,0,0,1-.241-.815,11.365,11.365,0,0,1-.093-2.164q0-15.852,0-31.7a5.453,5.453,0,0,1,.128-1.29,3.619,3.619,0,0,1,.87-1.649,4.052,4.052,0,0,1,1.629-1.046.884.884,0,0,1,.262-.038c.323-.013.645-.028.968-.028H46c.245,0,.49,0,.734.016a3.2,3.2,0,0,1,2.012.91,3.276,3.276,0,0,1,.894,1.3,2.244,2.244,0,0,1,.22.856c-.008.267.013.534.013.8q0,5.045,0,10.089c0,.664.01.673.669.674H51.2c.1.261.213.51.3.766q.476,1.325.94,2.654c.208.6.4,1.2.61,1.8.16.457.343.906.509,1.36.106.292.193.59.3.881.18.5.374.988.552,1.485.108.3.193.605.294.906.15.451.3.9.458,1.35.125.355.259.707.39,1.06.068.184.138.368.238.636,1.56-4.335,3.023-8.623,4.577-12.878h3.82c.06.261-.1.459-.175.664-.242.654-.521,1.293-.78,1.941q-.489,1.226-.97,2.455-.369.939-.731,1.883c-.284.738-.557,1.481-.849,2.216-.3.769-.635,1.528-.939,2.3-.384.973-.749,1.954-1.13,2.928-.215.554-.447,1.1-.667,1.652-.147.367-.3.734-.425,1.107a.244.244,0,0,1-.27.187q-1.47,0-2.939,0a.27.27,0,0,1-.282-.183c-.109-.263-.23-.521-.335-.786-.215-.542-.419-1.089-.636-1.63-.294-.738-.6-1.47-.892-2.21-.208-.533-.391-1.076-.6-1.609-.2-.516-.424-1.023-.628-1.537-.214-.543-.4-1.1-.632-1.632C50.225,31.755,50.211,31.48,49.935,31.342Zm-16.3-6.353c-.141-.009-.239-.02-.337-.02q-2.806,0-5.611,0c-.363,0-.409.053-.511.427-.163.6-.346,1.191-.513,1.788-.091.326-.166.656-.263,1.042l2.842.017a1.133,1.133,0,0,1,0,.239c-.12.459-.251.916-.368,1.376-.164.645-.317,1.293-.477,1.938-.053.215-.116.427-.172.641q-.176.671-.348,1.342c-.046.181-.089.363-.135.544a5.282,5.282,0,0,1-.22.826,4.992,4.992,0,0,1-.938,1.517,6.222,6.222,0,0,1-1.011.857,3.688,3.688,0,0,1-2.244.69.876.876,0,0,1-.842-.848,8.115,8.115,0,0,1,.37-2.051c.1-.442.24-.877.349-1.317s.188-.887.3-1.325c.159-.617.342-1.227.5-1.842.143-.534.274-1.072.407-1.608.2-.828.4-1.658.612-2.485.059-.234.147-.462.211-.695s.125-.491.173-.74A1.367,1.367,0,0,0,25.4,25c-.136-.009-.245-.021-.353-.021H18.765c-.345,0-.393.034-.484.37-.153.564-.295,1.13-.449,1.693-.067.244-.164.479-.231.723a3.913,3.913,0,0,0-.067.457c.951.06,1.87-.012,2.821.044-.021.151-.029.27-.056.384-.079.334-.165.666-.25,1-.066.256-.138.512-.2.768-.108.416-.218.831-.319,1.249-.11.46-.2.924-.318,1.383s-.272.91-.369,1.373c-.168.791-.393,1.565-.5,2.373a4.742,4.742,0,0,0,.217,2.157,3,3,0,0,0,1.3,1.545,4.461,4.461,0,0,0,2,.536,2.935,2.935,0,0,0,1.15-.094,7.063,7.063,0,0,0,1.337-.475,5.4,5.4,0,0,0,1.687-1.272c.24-.273.456-.567.725-.905-.1.457-.18.854-.289,1.243a4.739,4.739,0,0,0-.25,1.23c.151.012.259.027.368.027q1.737,0,3.473,0a.477.477,0,0,0,.2-.014.348.348,0,0,0,.179-.159c.1-.312.194-.628.273-.947.108-.44.191-.885.3-1.324s.243-.9.368-1.346c.059-.213.13-.422.181-.637.106-.452.195-.907.307-1.358s.246-.911.368-1.368c.054-.2.106-.4.153-.607.1-.431.163-.873.3-1.291a10.977,10.977,0,0,1,.555-1.564,4.385,4.385,0,0,1,1.007-1.388,2.826,2.826,0,0,1,.773-.512A2.9,2.9,0,0,1,36.9,28.2a1.673,1.673,0,0,1,1.264,1.6,6.193,6.193,0,0,1-.312,2.451c-.043.159-.073.321-.121.479-.174.579-.356,1.157-.529,1.737-.139.467-.284.933-.4,1.407a8.95,8.95,0,0,0-.174,1.044c-.026.208-.006.422-.013.634A3.655,3.655,0,0,0,37,39.276a2.859,2.859,0,0,0,1.444,1.363c.3.138.635.185.946.3A3.4,3.4,0,0,0,41.106,41a4.005,4.005,0,0,0,1.478-.554,4.849,4.849,0,0,0,1.438-1.314,8.189,8.189,0,0,0,1.161-2.446c.035-.121.088-.237.137-.37-.5-.207-.969-.407-1.441-.592-.227-.088-.341-.018-.443.21-.179.4-.346.813-.552,1.2a2.177,2.177,0,0,1-.943,1,.847.847,0,0,1-.876-.092,1.257,1.257,0,0,1-.281-.928A9.1,9.1,0,0,1,41,35.942c.037-.172.109-.335.16-.5.167-.54.33-1.081.5-1.621.107-.348.243-.69.32-1.045.089-.408.229-.8.32-1.209a6.77,6.77,0,0,0,.243-1.6c-.008-.479.018-.959-.014-1.436a4.144,4.144,0,0,0-.19-.938,3.664,3.664,0,0,0-.362-.808,4.464,4.464,0,0,0-.752-1.044,3.6,3.6,0,0,0-1.761-.926,5.243,5.243,0,0,0-1.532-.126,4.206,4.206,0,0,0-1.549.438,9.161,9.161,0,0,0-1.227.715A9.372,9.372,0,0,0,33.1,27.965c.076-.49.172-.971.266-1.453A5.293,5.293,0,0,0,33.63,24.989ZM21.316,19.464a2.46,2.46,0,0,0,4.919.032,2.46,2.46,0,1,0-4.919-.032Z"/><path d="M112.479,32.832c0,.379.022.759-.007,1.135a6.418,6.418,0,0,1-.173.948,8.6,8.6,0,0,1-.653,1.88,8.052,8.052,0,0,1-1.323,2.01c-.291.3-.578.609-.893.89a11.234,11.234,0,0,1-1.638,1.124,7.529,7.529,0,0,1-1.754.7c-.282.089-.589.1-.873.181a8.631,8.631,0,0,1-2.251.125,2.084,2.084,0,0,1-.817-.1,4.02,4.02,0,0,0-.81-.159,5.9,5.9,0,0,1-1.645-.6,9.672,9.672,0,0,1-1.306-.784A7.851,7.851,0,0,1,96.8,38.769a9.572,9.572,0,0,1-1.187-1.832A6.362,6.362,0,0,1,95,35.157c-.045-.249-.114-.495-.169-.742a8.092,8.092,0,0,1,.142-3.7,5.671,5.671,0,0,1,.288-.982A8.718,8.718,0,0,1,97.1,26.656a8.6,8.6,0,0,1,2.426-1.826c.462-.2.925-.408,1.393-.6a2.478,2.478,0,0,1,.511-.133c.339-.06.679-.111,1.019-.157.318-.043.638-.084.958-.111a2.936,2.936,0,0,1,.5.011c.243.023.484.074.727.088a8.378,8.378,0,0,1,1.37.24,5.727,5.727,0,0,1,1.275.441,10.685,10.685,0,0,1,1.479.82,12.8,12.8,0,0,1,1.338,1.184,8.094,8.094,0,0,1,1.755,2.712,11.129,11.129,0,0,1,.506,1.719A7.365,7.365,0,0,1,112.479,32.832Zm-3.7,0h0c0-.089,0-.178,0-.267a2.653,2.653,0,0,0-.138-1.144,2.178,2.178,0,0,1-.135-.442,5.008,5.008,0,0,0-.642-1.416,5.168,5.168,0,0,0-1.01-1.178,4.805,4.805,0,0,0-2.661-1.17,5.027,5.027,0,0,0-2.791.433,4.068,4.068,0,0,0-1.577,1.191,5.781,5.781,0,0,0-1.171,2.25,7.628,7.628,0,0,0-.247,1.836c.012.321.087.638.109.959a4.252,4.252,0,0,0,.3,1.186,5.227,5.227,0,0,0,.835,1.458,4.874,4.874,0,0,0,1.578,1.391,5.125,5.125,0,0,0,4.111.357,3.989,3.989,0,0,0,1.39-.748,5.4,5.4,0,0,0,1.7-2.448,5.2,5.2,0,0,0,.13-.513,3.711,3.711,0,0,0,.215-1.134C108.771,33.23,108.78,33.03,108.78,32.829Z"/><path d="M118.72,41.412c-.178.012-.3.027-.416.028q-1.454,0-2.906,0c-.395,0-.405-.01-.405-.419q0-3.307,0-6.614,0-4.843,0-9.687c0-.153.015-.306.022-.448a28.159,28.159,0,0,1,3.678-.013c.008.108.024.227.025.345,0,.59,0,1.18,0,1.771a4.4,4.4,0,0,0,.066.482,3.245,3.245,0,0,0,.245-.27,6.963,6.963,0,0,1,1.585-1.646,5.781,5.781,0,0,1,2.118-.978c.118-.027.244-.014.365-.033a6.256,6.256,0,0,1,1.951-.011,5.6,5.6,0,0,1,2.221.792,4.326,4.326,0,0,1,.783.557,5.858,5.858,0,0,1,1.405,2.153,11.855,11.855,0,0,1,.432,1.824,13.138,13.138,0,0,1,.1,2.325c.012,3.117,0,6.235,0,9.353v.483c-.151.014-.258.033-.366.033q-1.485,0-2.972,0c-.055,0-.111,0-.167,0-.155,0-.218-.085-.219-.231,0-.112,0-.223,0-.334,0-2.94.01-5.88-.008-8.819a10.314,10.314,0,0,0-.209-1.913,3.845,3.845,0,0,0-.454-1.231,3.166,3.166,0,0,0-1.509-1.3,3.982,3.982,0,0,0-2.124-.25,3.358,3.358,0,0,0-2.173,1.119,4.284,4.284,0,0,0-.931,1.812,6.85,6.85,0,0,0-.142,1.656q0,4.476,0,8.953Z"/><path d="M72.479,39.294a3.682,3.682,0,0,1,1.608-1.37,2.22,2.22,0,0,1,1.638-.117c.483.182.968.358,1.457.524a8.191,8.191,0,0,0,2.343.453,3.209,3.209,0,0,0,1.825-.41,1.654,1.654,0,0,0,.876-1.248,2.145,2.145,0,0,0-.06-.874,1.518,1.518,0,0,0-.679-.829,11.922,11.922,0,0,0-2.8-1.093c-.53-.184-1.051-.4-1.588-.556a8.285,8.285,0,0,1-1.51-.66,4.329,4.329,0,0,1-1.975-2.03,3.025,3.025,0,0,1-.318-1.247c0-.39-.01-.779,0-1.169a4.58,4.58,0,0,1,.726-2.272,4.447,4.447,0,0,1,1.922-1.729,6.879,6.879,0,0,1,1.875-.621,9.5,9.5,0,0,1,2.061-.09c.449.02.892.148,1.341.205a6.871,6.871,0,0,1,1.115.291,10.733,10.733,0,0,1,1.888.787,8.592,8.592,0,0,1,.794.485c.2.136.213.193.077.376a3.834,3.834,0,0,1-1.767,1.4,2.622,2.622,0,0,1-1.816-.069c-.251-.082-.5-.16-.763-.22a11.615,11.615,0,0,0-1.193-.242,3.428,3.428,0,0,0-1.222.047,3.12,3.12,0,0,0-.929.325,1.512,1.512,0,0,0-.833,1.476,1.42,1.42,0,0,0,.562,1.08,7.382,7.382,0,0,0,1.919.973c.8.3,1.621.555,2.43.838a9.227,9.227,0,0,1,2.39,1.211,4.306,4.306,0,0,1,1.693,2.505c.078.31.121.63.176.946a.544.544,0,0,1-.013.165c-.041.3-.088.594-.124.892a4.209,4.209,0,0,1-.722,1.907,5.469,5.469,0,0,1-.545.744,6.714,6.714,0,0,1-.8.645,4.409,4.409,0,0,1-1.063.538,8.377,8.377,0,0,1-2,.456,7.5,7.5,0,0,1-1.353.1,3.964,3.964,0,0,1-.456-.072,1.7,1.7,0,0,0-.328-.049,5.275,5.275,0,0,1-1.759-.308,11.3,11.3,0,0,1-2.922-1.306C73.276,39.823,72.891,39.567,72.479,39.294Z"/><path d="M66.37,24.228h3.671c.013.137.034.255.034.374q0,8.217,0,16.433c0,.067,0,.134-.006.2a.191.191,0,0,1-.214.2c-.067,0-.133,0-.2,0q-1.435,0-2.872,0c-.434,0-.435,0-.435-.452q0-6.2,0-12.392,0-1.971,0-3.941C66.35,24.524,66.362,24.393,66.37,24.228Z"/><path d="M88.368,24.23h3.6l.029.035a.079.079,0,0,1,.018.028.66.66,0,0,1,.024.13q0,8.363,0,16.725a1.024,1.024,0,0,1-.016.165.243.243,0,0,1-.026.06,24.91,24.91,0,0,1-3.607.014C88.324,41.14,88.3,24.769,88.368,24.23Z"/></svg>