<svg id="Layer_1" data-name="Layer 1" xmlns="http://www.w3.org/2000/svg" viewBox="0 0 170 60"><path d="M26.5,37.674c-.018,1.566-.013,3.133,0,4.7,0,.236-.043.325-.307.324q-7.941-.012-15.88,0c-.307,0-.306-.135-.306-.361q.007-6.33,0-12.659c0-4.207,0-8.414-.01-12.621,0-.349.1-.408.421-.4q2.577.024,5.154,0c.319,0,.417.057.416.4-.013,6.594-.006,13.189-.02,19.784,0,.387.1.466.471.463,3.221-.015,6.443,0,9.665-.016C26.416,37.284,26.507,37.353,26.5,37.674Z"/><path d="M34.845,42.272c0,.362-.11.426-.441.423q-2.6-.024-5.19,0c-.281,0-.351-.063-.351-.348q.015-8.62,0-17.241c0-.282.064-.352.348-.35q2.614.023,5.229,0c.306,0,.4.063.4.388-.014,2.867-.007,5.734-.007,8.6C34.836,36.588,34.827,39.43,34.845,42.272Z"/><path d="M35.174,18.758a2.962,2.962,0,0,1-2.146,3.374,3.648,3.648,0,0,1-3.195-.4,2.911,2.911,0,0,1-1.244-3.178A2.9,2.9,0,0,1,30.9,16.225a4.271,4.271,0,0,1,1.051-.108A3.055,3.055,0,0,1,35.174,18.758Z"/><path d="M55.767,31.593c.034,3.612.018,7.225.03,10.837,0,.229-.082.263-.282.262-1.794-.007-3.588-.011-5.381,0-.273,0-.3-.1-.3-.326q.009-4.509,0-9.019a8.387,8.387,0,0,0-.233-2.139,2.96,2.96,0,0,0-5.024-1.258,3.408,3.408,0,0,0-1.014,2.408c0,3.309-.008,6.619.007,9.928,0,.343-.092.41-.416.407-1.73-.017-3.461-.014-5.191,0-.274,0-.383-.038-.383-.358.013-5.76.1-11.519.007-17.279,0-.231.052-.3.288-.3q2.691.015,5.381,0c.258,0,.314.082.309.321-.014.694,0,1.389,0,2.2a6.938,6.938,0,0,1,1.723-1.874,6.23,6.23,0,0,1,4.092-1.057A6.11,6.11,0,0,1,55,28.106,8.6,8.6,0,0,1,55.767,31.593Z"/><path d="M77.421,42.3c.078.111.153.224.232.342-.119.088-.235.048-.34.048-2.2,0-4.4,0-6.595.01a.557.557,0,0,1-.554-.328c-1.4-2.331-2.819-4.656-4.231-6.982-.071-.117-.148-.23-.239-.374-.48.6-.938,1.182-1.4,1.756a.6.6,0,0,0-.087.431c0,1.7-.006,3.411.005,5.116,0,.272-.035.386-.356.382q-2.633-.028-5.267,0c-.3,0-.344-.091-.343-.36q.011-12.658,0-25.317c0-.309.091-.369.378-.366,1.743.012,3.487.015,5.23,0,.313,0,.36.1.36.378-.008,4.8-.006,9.6-.006,14.479.925-1.316,1.8-2.574,2.691-3.827.817-1.152,1.645-2.3,2.466-3.446a.475.475,0,0,1,.419-.26c2.262.01,4.523.006,6.784.008a.6.6,0,0,1,.118.038c-.134.151-.253.287-.376.422q-3.114,3.439-6.237,6.873c-.195.213-.16.328-.019.529Q73.741,37.066,77.421,42.3Z"/><path d="M93.384,29.5a7.652,7.652,0,0,0-4.569-5.341,9.861,9.861,0,0,0-5.137-.511,8.666,8.666,0,0,0-6.3,3.883,10.886,10.886,0,0,0-1.62,7.96,8.239,8.239,0,0,0,3.546,5.834,10.775,10.775,0,0,0,5.674,1.73,20.853,20.853,0,0,0,4.38-.237,14.97,14.97,0,0,0,3.174-.829c.117-.047.268-.054.222-.27-.248-1.183-.49-2.368-.718-3.556-.042-.213-.123-.188-.279-.137a16.134,16.134,0,0,1-5.564.715,6.9,6.9,0,0,1-2.675-.6A3.563,3.563,0,0,1,81.343,35.6c-.061-.283-.063-.438.335-.433,1.933.027,3.866.012,5.8.012v.031q2.917,0,5.835,0c.168,0,.339.051.378-.23A13.12,13.12,0,0,0,93.384,29.5ZM87.425,31.17H84.776c-1.073,0-2.145-.006-3.218,0-.243,0-.321-.033-.267-.309a4.451,4.451,0,0,1,1.491-2.725,3.321,3.321,0,0,1,5.438,2.095C88.382,31.17,88.382,31.17,87.425,31.17Z"/><path d="M114.671,42.356c-.1-1.424-.141-2.851-.141-4.278q-.006-10.517,0-21.034c0-.312-.067-.4-.387-.394q-2.615.027-5.23,0c-.306,0-.37.088-.368.378.011,2.463.006,4.927.006,7.39v1.206a5.492,5.492,0,0,0-1.816-1.381A8.217,8.217,0,0,0,96.278,27.7a11.63,11.63,0,0,0-.942,9.3,7.931,7.931,0,0,0,8.613,6.058,6.464,6.464,0,0,0,4.977-2.915c.044-.068.068-.172.216-.141.072.783.159,1.571.21,2.362.017.255.08.33.346.328q2.33-.023,4.661,0C114.636,42.7,114.689,42.618,114.671,42.356Zm-6.115-9.175a12.636,12.636,0,0,1-.132,2.564,3.483,3.483,0,0,1-2.842,2.689,3.73,3.73,0,0,1-3.885-1.751,6.778,6.778,0,0,1-.775-4.237,5.8,5.8,0,0,1,.923-2.764,3.724,3.724,0,0,1,3.969-1.552,3.528,3.528,0,0,1,2.688,2.9A15.944,15.944,0,0,1,108.556,33.181Z"/><path d="M160,15.54c0-1.074.009-2.148,0-3.221a2.818,2.818,0,0,0-2.468-2.85,19.3,19.3,0,0,0-2.876-.056q-15.48-.008-30.961-.013a3.056,3.056,0,0,0-3.19,3.192c.037,11.153.019,22.308.019,33.462a2.873,2.873,0,0,0,3.065,3.084q16.676,0,33.349,0a3.3,3.3,0,0,0,.754-.058A2.875,2.875,0,0,0,160,46.123Q160,37.71,160,29.3Zm-27.5,26.833c0,.255-.079.31-.319.31q-2.673-.015-5.344,0c-.286,0-.321-.1-.32-.348q.01-4.32,0-8.641c0-2.867.005-5.735-.007-8.6,0-.3.084-.376.379-.372q2.634.02,5.268,0c.261,0,.339.064.339.334Q132.481,33.714,132.493,42.373Zm-2.509-20.112a3.254,3.254,0,0,1-3.659-2.081,3.122,3.122,0,0,1-.147-1,3,3,0,0,1,2.969-3.061,3.125,3.125,0,0,1,3.722,3.182A3.044,3.044,0,0,1,129.984,22.261Zm23.6,20.424q-2.558-.026-5.115,0c-.353,0-.462-.063-.46-.442.018-2.994.01-5.987.011-8.981a8.271,8.271,0,0,0-.223-2.026,2.958,2.958,0,0,0-5-1.34,3.549,3.549,0,0,0-1.057,2.585c.008,3.259,0,6.518.011,9.777,0,.351-.094.429-.433.426q-2.558-.027-5.115,0c-.342,0-.437-.078-.436-.431q.038-7.843.044-15.687c0-.505-.01-1.011-.034-1.515-.011-.233.034-.334.3-.333q2.689.018,5.381,0c.248,0,.29.088.286.307-.012.707-.005,1.414-.005,2.24a7.061,7.061,0,0,1,1.57-1.763,6.436,6.436,0,0,1,5.259-1.05,6.274,6.274,0,0,1,5.152,5.316,13.768,13.768,0,0,1,.252,2.747c0,3.258,0,6.517.009,9.775C153.985,42.609,153.9,42.689,153.589,42.685Z"/><path d="M160,15.54c0-1.074.009-2.148,0-3.221a2.818,2.818,0,0,0-2.468-2.85,19.3,19.3,0,0,0-2.876-.056q-15.48-.008-30.961-.013a3.056,3.056,0,0,0-3.19,3.192c.037,11.153.019,22.308.019,33.462a2.873,2.873,0,0,0,3.065,3.084q16.676,0,33.349,0a3.3,3.3,0,0,0,.754-.058A2.875,2.875,0,0,0,160,46.123Q160,37.71,160,29.3Zm-27.5,26.833c0,.255-.079.31-.319.31q-2.673-.015-5.344,0c-.286,0-.321-.1-.32-.348q.01-4.32,0-8.641c0-2.867.005-5.735-.007-8.6,0-.3.084-.376.379-.372q2.634.02,5.268,0c.261,0,.339.064.339.334Q132.481,33.714,132.493,42.373Zm-2.509-20.112a3.254,3.254,0,0,1-3.659-2.081,3.122,3.122,0,0,1-.147-1,3,3,0,0,1,2.969-3.061,3.125,3.125,0,0,1,3.722,3.182A3.044,3.044,0,0,1,129.984,22.261Zm23.6,20.424q-2.558-.026-5.115,0c-.353,0-.462-.063-.46-.442.018-2.994.01-5.987.011-8.981a8.271,8.271,0,0,0-.223-2.026,2.958,2.958,0,0,0-5-1.34,3.549,3.549,0,0,0-1.057,2.585c.008,3.259,0,6.518.011,9.777,0,.351-.094.429-.433.426q-2.558-.027-5.115,0c-.342,0-.437-.078-.436-.431q.038-7.843.044-15.687c0-.505-.01-1.011-.034-1.515-.011-.233.034-.334.3-.333q2.689.018,5.381,0c.248,0,.29.088.286.307-.012.707-.005,1.414-.005,2.24a7.061,7.061,0,0,1,1.57-1.763,6.436,6.436,0,0,1,5.259-1.05,6.274,6.274,0,0,1,5.152,5.316,13.768,13.768,0,0,1,.252,2.747c0,3.258,0,6.517.009,9.775C153.985,42.609,153.9,42.689,153.589,42.685Z"/><path d="M114.671,42.356c-.1-1.424-.141-2.851-.141-4.278q-.006-10.517,0-21.034c0-.312-.067-.4-.387-.394q-2.615.027-5.23,0c-.306,0-.37.088-.368.378.011,2.463.006,4.927.006,7.39v1.206a5.492,5.492,0,0,0-1.816-1.381A8.217,8.217,0,0,0,96.278,27.7a11.63,11.63,0,0,0-.942,9.3,7.931,7.931,0,0,0,8.613,6.058,6.464,6.464,0,0,0,4.977-2.915c.044-.068.068-.172.216-.141.072.783.159,1.571.21,2.362.017.255.08.33.346.328q2.33-.023,4.661,0C114.636,42.7,114.689,42.618,114.671,42.356Zm-6.115-9.175a12.636,12.636,0,0,1-.132,2.564,3.483,3.483,0,0,1-2.842,2.689,3.73,3.73,0,0,1-3.885-1.751,6.778,6.778,0,0,1-.775-4.237,5.8,5.8,0,0,1,.923-2.764,3.724,3.724,0,0,1,3.969-1.552,3.528,3.528,0,0,1,2.688,2.9A15.944,15.944,0,0,1,108.556,33.181Z"/><path d="M77.653,42.637c-.119.088-.235.048-.34.048-2.2,0-4.4,0-6.595.01a.557.557,0,0,1-.554-.328c-1.4-2.331-2.819-4.656-4.231-6.982-.071-.117-.148-.23-.239-.374-.48.6-.938,1.182-1.4,1.756a.6.6,0,0,0-.087.431c0,1.7-.006,3.411.005,5.116,0,.272-.035.386-.356.382q-2.633-.028-5.267,0c-.3,0-.344-.091-.343-.36q.011-12.658,0-25.317c0-.309.091-.369.378-.366,1.743.012,3.487.015,5.23,0,.313,0,.36.1.36.378-.008,4.8-.006,9.6-.006,14.479.925-1.316,1.8-2.574,2.691-3.827.817-1.152,1.645-2.3,2.466-3.446a.475.475,0,0,1,.419-.26c2.262.01,4.523.006,6.784.008a.6.6,0,0,1,.118.038c-.134.151-.253.287-.376.422q-3.114,3.439-6.237,6.873c-.195.213-.16.328-.019.529q3.691,5.221,7.372,10.451C77.5,42.406,77.574,42.519,77.653,42.637Z"/><path d="M93.384,29.5a7.652,7.652,0,0,0-4.569-5.341,9.861,9.861,0,0,0-5.137-.511,8.666,8.666,0,0,0-6.3,3.883,10.886,10.886,0,0,0-1.62,7.96,8.239,8.239,0,0,0,3.546,5.834,10.775,10.775,0,0,0,5.674,1.73,20.853,20.853,0,0,0,4.38-.237,14.97,14.97,0,0,0,3.174-.829c.117-.047.268-.054.222-.27-.248-1.183-.49-2.368-.718-3.556-.042-.213-.123-.188-.279-.137a16.134,16.134,0,0,1-5.564.715,6.9,6.9,0,0,1-2.675-.6A3.563,3.563,0,0,1,81.343,35.6c-.061-.283-.063-.438.335-.433,1.933.027,3.866.012,5.8.012v.031q2.917,0,5.835,0c.168,0,.339.051.378-.23A13.12,13.12,0,0,0,93.384,29.5ZM87.425,31.17H84.776c-1.073,0-2.145-.006-3.218,0-.243,0-.321-.033-.267-.309a4.451,4.451,0,0,1,1.491-2.725,3.321,3.321,0,0,1,5.438,2.095C88.382,31.17,88.382,31.17,87.425,31.17Z"/><path d="M55.8,42.43c0,.229-.082.263-.282.262-1.794-.007-3.588-.011-5.381,0-.273,0-.3-.1-.3-.326q.009-4.509,0-9.019a8.387,8.387,0,0,0-.233-2.139,2.96,2.96,0,0,0-5.024-1.258,3.408,3.408,0,0,0-1.014,2.408c0,3.309-.008,6.619.007,9.928,0,.343-.092.41-.416.407-1.73-.017-3.461-.014-5.191,0-.274,0-.383-.038-.383-.358.013-5.76.1-11.519.007-17.279,0-.231.052-.3.288-.3q2.691.015,5.381,0c.258,0,.314.082.309.321-.014.694,0,1.389,0,2.2a6.938,6.938,0,0,1,1.723-1.874,6.23,6.23,0,0,1,4.092-1.057A6.11,6.11,0,0,1,55,28.106a8.6,8.6,0,0,1,.768,3.487C55.8,35.205,55.785,38.818,55.8,42.43Z"/><path d="M26.5,42.373c0,.236-.043.325-.307.324q-7.941-.012-15.88,0c-.307,0-.306-.135-.306-.361q.007-6.33,0-12.659c0-4.207,0-8.414-.01-12.621,0-.349.1-.408.421-.4q2.577.024,5.154,0c.319,0,.417.057.416.4-.013,6.594-.006,13.189-.02,19.784,0,.387.1.466.471.463,3.221-.015,6.443,0,9.665-.016.309,0,.4.068.4.389C26.485,39.24,26.49,40.807,26.5,42.373Z"/><path d="M34.845,42.272c0,.362-.11.426-.441.423q-2.6-.024-5.19,0c-.281,0-.351-.063-.351-.348q.015-8.62,0-17.241c0-.282.064-.352.348-.35q2.614.023,5.229,0c.306,0,.4.063.4.388-.014,2.867-.007,5.734-.007,8.6C34.836,36.588,34.827,39.43,34.845,42.272Z"/><path d="M33.028,22.132a3.648,3.648,0,0,1-3.195-.4,2.911,2.911,0,0,1-1.244-3.178A2.9,2.9,0,0,1,30.9,16.225a4.271,4.271,0,0,1,1.051-.108,3.055,3.055,0,0,1,3.22,2.641A2.962,2.962,0,0,1,33.028,22.132Z"/></svg>