<svg id="Layer_1" data-name="Layer 1" xmlns="http://www.w3.org/2000/svg" viewBox="0 0 190 60"><path d="M113.679,32.9c-2.7,3.563-5.929,7.1-10.36,8.343-6.39,1.692-12.332-3.159-13.106-9.5-1.4-8.1,3.607-17.49,11.976-19.208,5.018-1.19,10.019,4.036,6.1,8.412-.5.729-2.681,1.236-2.252-.2,4.574-7.464-6.637-8.456-11.336-.009-2.627,4.8-3.282,11.56.387,16,2.865,3.441,8.051,3.137,11.362.511a30.794,30.794,0,0,0,7.134-7.44c.3-3.86.372-7.858,1.255-11.686.7-2.756,1.494-5.97,4.012-7.628,3.423-1.832,5.407,1.851,4.821,4.9-.436,3.809-2.445,7.2-4.527,10.342-.972,1.552-2.34,2.951-3.2,4.517a22.837,22.837,0,0,0,.46,4.484c.915-2.153,1.982-4.413,4.039-5.68a2.819,2.819,0,0,1,4.3,1.5c.782,2.209-.057,4.633.611,6.842.61,1.287,2.178.162,2.71-.649A20.582,20.582,0,0,0,130.7,31.16c.47-1.378,1.352-4.179,3.088-2.243.775,1.857-2.233,9.737,1.39,9.226,2.46-1.483,3.246-4.594,4.479-7.026.641-1.234.829-3.718,2.682-3.511.4.066.673.225.652.719-.176,2.184-.178,4.383-.362,6.564l.067.021c1.085-2.044,2.176-4.455,4.448-5.394,2.882-1.131,3.853,2.126,4.064,4.339l.07.007c.886-1.733,1.962-3.625,3.928-4.267a3.082,3.082,0,0,1,3.754,1.439c1.059,2.307.059,4.86.281,7.277.243,1.372,1.738.315,2.134-.364a24.083,24.083,0,0,0,2.8-6.109c.474-1.068.56-3.117,2.183-2.725.736.221,1.557,3.9,2.025,4.835,1.325-1.73,2.481-3.967,4.688-4.817,2.978-1.181,6.266,1.148,6.706,4.207,1.473,5.8-4.72,9.711-9.5,6.4.416,3.006,1.663,6.1,1.03,9.2-1.346,5.477-8.985,4.016-6.888-4.324a41.671,41.671,0,0,1,2.626-7.8,17.531,17.531,0,0,0-1.3-3.586c-1.205,2.934-2.683,8.265-6.612,8.031-2.118-.1-2.533-2.4-2.318-4.111.022-1.61.658-3.463-.144-4.947-.973-1.011-2.326.115-2.793,1.068a23.893,23.893,0,0,0-2.032,5.441c-.356.837-.336,2.556-1.539,2.538a.862.862,0,0,1-.874-.79c-.5-1.612.684-10.068-2.417-8.636-2.423,2.076-2.88,5.611-3.927,8.478-.19.83-1.749,1.379-2.007.277-.354-2.588.1-5.228,0-7.834l-.068-.008c-1.111,2.371-2.139,4.908-4.075,6.74-3.124,2.818-5.736.154-6.33-3.235-.98,1.358-1.938,2.947-3.579,3.639a2.8,2.8,0,0,1-3.967-1.565c-.844-2.136.131-4.451-.473-6.6-1.219-2-3.3.488-3.817,1.846-1.142,2.163-1.484,4.6-2.275,6.883a1.25,1.25,0,0,1-2.29-.634C114.033,37.508,113.971,35.2,113.679,32.9Zm63.837,2.052c-.284-4.819-4.433-5.1-6.773-1.3-.323.617-1.825,2.437-1.422,3C171.747,39.853,177.417,39.705,177.516,34.948ZM115.96,26.681l.087.008c2.057-3.11,4.149-6.3,5.158-9.931.276-1.194.873-3.224-.182-4.135-.8-.524-1.722.338-2.132,1.055C116.794,17.605,116.125,22.275,115.96,26.681Zm51.859,13.136-.069.035c-.5,2.105-3.31,9.063-.4,9.954C171.092,50.291,168.454,41.674,167.819,39.817Z"/><path d="M80.32,38.1c-4.369,4.616-9.18,3.3-10.2-3.057-1.02,1.562-1.874,3.358-3.463,4.488-2.321,1.861-5.214.526-6.038-2.164-1.274,3.465-5.7,5.938-8.438,2.48-2.505,2.6-6.915,2.329-7.739-1.59-.522-5.4,1.633-10.719,1.7-16.12.142-3.859-3.488-3.059-4.893-.467-2.921,4.749-4.4,10.218-6.4,15.388-.572,1.22-.612,3.274-2.125,3.68a.948.948,0,0,1-1.071-.679,15.681,15.681,0,0,1-.1-4.585c.183-4.651.609-9.3.442-13.956.006-5.437-3.4-6.2-5.654-1.254-2.354,5.39-3.54,11.187-5.315,16.776-.537,1.27-.587,4.007-2.218,4.228-.519,0-1.111.136-1.223-.578-.331-1.421.038-2.858.02-4.294.22-3.688.4-7.379.63-11.064.028-3.213.884-6.818-.641-9.787-3.04-3.008-5.495,1.956-6.121,4.539-.246.348-.39.538-.811.191-1.232-1.242-.528-3.268.143-4.633,1.47-3.289,6.714-4.515,8.891-1.319,2.445,4.32.23,13.461.344,18.419,1.621-4.9,3.444-17.227,9.216-18.369,7.94-.945,4.536,14.273,4.677,18.978l.061,0c1.615-5.016,2.962-10.468,6.57-14.477,4.336-3.984,8.668-1.051,7.918,4.545-.328,3.056-.933,6.078-1.383,9.118-.179,1.986-1.045,4.277,0,6.126,1.076,1.522,3.21.724,4.208-.48.344-1.089-.082-2.394.337-3.534.618-3.779,6.154-8.976,9.368-4.882.235-1.372.711-2.735,2.384-2.436,2.513-.077-1.944,8.073.2,10.172,3.4,2.615,5.855-6.567,6.883-8.682.335-.884,2.377-.952,2.376.159-.174,3.431-.909,13.061,5.01,8.525.447-.6,1.74-1.142,1.419-1.985a18.77,18.77,0,0,1-.7-3.6c-.254-5.411-.4-15.476,4.544-18.824,4.382-2.066,5.47,3.531,5.156,6.724a32.56,32.56,0,0,1-3.379,11.481,30.591,30.591,0,0,1-2.279,3.906c-.188.427-.8.806-.737,1.279.833,2.456,3.409,3.286,5.3,1.4.273-.235.534-.485.808-.719.715-.489,1.155.639.888,1.193a4.445,4.445,0,0,1-4.27,2.777C82.676,41.142,81.333,39.571,80.32,38.1Zm.869-4.663c2.745-4.309,6.005-12.989,4.1-17.953-2.156-1.871-3.62,4.928-3.914,6.3A35.592,35.592,0,0,0,81.189,33.439ZM53.732,36.472c-.272,2.228,1.641,3.395,3.467,2.065,1.653-1.184,2.328-3.165,2.99-5,1.17-2.125-1.233-3.962-3.2-2.889A6.953,6.953,0,0,0,53.732,36.472Z"/><path d="M131.808,22.615c-.081-2.088,3.583-2.223,3.439.2C135.063,25.017,131.667,24.805,131.808,22.615Z"/><path d="M72.729,21a1.7,1.7,0,0,1-.037,3.4A1.7,1.7,0,1,1,72.729,21Z"/></svg>