<svg id="Layer_1" data-name="Layer 1" xmlns="http://www.w3.org/2000/svg" viewBox="0 0 220 60"><path d="M206.546,31.273c-.929-.418-1.836-.883-2.749-1.334a8.618,8.618,0,0,1-1.7-1.01,1.743,1.743,0,0,1,.491-3.138,3.588,3.588,0,0,1,4.017,1.091,5.013,5.013,0,0,1,.98,2.293c.078.466.416.253.654.3s.356-.061.354-.329q-.012-2.346,0-4.691c0-.261-.1-.326-.353-.351-.4-.041-.539.137-.659.494-.263.777-.291.755-1,.362a5.773,5.773,0,0,0-5.2-.339,3.837,3.837,0,0,0-2.555,4.223,4.64,4.64,0,0,0,2.6,3.411c1.141.617,2.334,1.137,3.5,1.715a5.991,5.991,0,0,1,1.947,1.379,2.025,2.025,0,0,1-.7,3.257,3.776,3.776,0,0,1-2.3.208,4.867,4.867,0,0,1-4.1-4.214c-.086-.448-.314-.456-.663-.461-.463-.006-.323.317-.324.541q-.012,2.586,0,5.172c0,.2-.153.522.259.544.322.017.636.057.7-.412a2.506,2.506,0,0,1,.273-.661c.168-.362.328-.5.741-.188a6.318,6.318,0,0,0,3.45,1.243,5.54,5.54,0,0,0,5.375-3.017,13.442,13.442,0,0,0,.414-1.5v-.6A5.411,5.411,0,0,0,206.546,31.273Z"/><path d="M125.386,24.815c-3.139-.268-6.29-.069-9.438-.121-.271,0-.358.069-.4.362-.074.535.237.513.6.539,1.716.112,2.242.621,2.3,2.328.1,2.885.086,5.774,0,8.658a4.6,4.6,0,0,1-.108.772,1.711,1.711,0,0,1-1.668,1.522,5.11,5.11,0,0,1-3.881-1.087,39.712,39.712,0,0,1-4.393-4.411,6.594,6.594,0,0,0,2.807-1.215A3.886,3.886,0,0,0,111,25.871a6.018,6.018,0,0,0-3.022-1.065c-3-.237-6.011-.056-9.016-.108-.254-.008-.34.069-.362.337-.03.405.095.534.513.56,1.863.117,2.3.543,2.393,2.423.134,2.742.1,5.489.021,8.235-.06,1.962-.586,2.682-2.552,2.673-.418,0-.353.246-.371.5-.017.289.082.384.375.379q4.152-.012,8.3,0c.319,0,.367-.147.349-.4-.017-.225.078-.505-.323-.488a4.187,4.187,0,0,1-.66-.047,1.722,1.722,0,0,1-1.811-1.643,19.148,19.148,0,0,1-.133-3.3c0-.151-.069-.375.125-.423a.734.734,0,0,1,.69.074,3.173,3.173,0,0,1,.306.366c1.44,1.8,2.88,3.6,4.311,5.407a1.012,1.012,0,0,0,.893.457c4.13-.017,8.261,0,12.387-.013a15.254,15.254,0,0,0,4.277-.561,7.325,7.325,0,0,0,3.721-11.6A8.24,8.24,0,0,0,125.386,24.815ZM104.932,32.1c-.319,0-.224-.276-.224-.453-.009-.862,0-1.724,0-2.587,0-.84.008-1.685-.009-2.526,0-.315.048-.483.418-.462.643.039,1.285,0,1.923.048a2.49,2.49,0,0,1,2.242,1.729,3.106,3.106,0,0,1-1.431,4.01A7.551,7.551,0,0,1,104.932,32.1Zm24.184,2.466a4.734,4.734,0,0,1-4.7,3.807c-.418.022-.841.026-1.259.013-.983-.021-1.389-.4-1.462-1.375-.129-1.781-.021-3.566-.06-5.027,0-2.005.013-3.691-.009-5.373,0-.418.112-.56.539-.539a25,25,0,0,1,3,.121,4.6,4.6,0,0,1,3.975,3.73A9.622,9.622,0,0,1,129.116,34.563Z"/><path d="M181.854,35.52c-.44-.03-.409.319-.466.561-.25,1.052-.676,1.927-1.884,2.138a14.433,14.433,0,0,1-3.953.108c-1.065-.108-1.475-.608-1.647-1.668a16.757,16.757,0,0,1-.112-2.639c0-1.505,0-1.505,1.487-1.427,1.858.1,2.169.384,2.3,2.233.031.371.177.41.483.414s.41-.108.406-.418c-.009-1.983-.013-3.967,0-5.95,0-.336-.125-.414-.423-.4-.259.009-.479,0-.457.366a4.011,4.011,0,0,1-.056.716,1.373,1.373,0,0,1-1.276,1.432,12.009,12.009,0,0,1-2.152.172c-.293,0-.319-.142-.319-.371.009-1.444.009-2.884,0-4.329,0-.275.061-.392.362-.383,1.242.03,2.488-.009,3.726.064,1.608.1,2.138.578,2.561,2.122.043.155.086.31.12.465.087.345.363.259.587.25.3-.013.2-.25.189-.409-.082-1.121-.181-2.238-.245-3.359-.022-.405-.168-.522-.582-.517-2.924.017-5.851.008-8.779.008-1.181,0-2.367.013-3.548-.008-.375-.009-.487.108-.474.474.013.306.1.423.418.423,2.182.012,2.427.905,2.514,2.7.069,1.461.038,2.927.021,4.389a36.112,36.112,0,0,1-.09,4.264,2.021,2.021,0,0,1-2.76,1.875,6.365,6.365,0,0,1-2.682-1.414,55.687,55.687,0,0,1-3.88-4.027,7,7,0,0,0,2.121-.754,3.927,3.927,0,0,0,2.16-3.5,3.861,3.861,0,0,0-2.173-3.544,4.893,4.893,0,0,0-1.737-.634c-3.29-.487-6.6-.138-9.9-.242-.207,0-.263.1-.276.294-.026.357,0,.577.479.607,1.91.121,2.307.462,2.419,2.389a76.145,76.145,0,0,1,0,8.412c-.108,2.052-.444,2.319-2.5,2.518-.367.034-.406.185-.41.487-.009.319.1.418.414.41.642-.022,1.285,0,1.927,0,2.061,0,4.126-.013,6.192.009.4,0,.5-.112.508-.505,0-.413-.241-.375-.5-.4-1.854-.151-2.367-.69-2.419-2.561-.021-.785-.021-1.565-.013-2.346,0-.176-.133-.452.16-.5.237-.043.526-.112.72.151.069.095.151.19.224.28,1.436,1.8,2.885,3.6,4.307,5.407a1.077,1.077,0,0,0,.945.47q8.691-.02,17.379-.009c.121,0,.242-.008.363,0,.215.013.319-.069.336-.306q.1-1.83.233-3.656C182.229,35.555,182.091,35.538,181.854,35.52Zm-22-9.429h0Zm-2.31.022,0,0v0Zm-.019,5.919V31.98q.011-2.934.02-5.867h0l.027,0,2.281-.019a2.782,2.782,0,0,1,2.434,3.238,2.642,2.642,0,0,1-1.789,2.583A5.759,5.759,0,0,1,157.524,32.032Z"/><path d="M82.192,21.091c.419.017.423-.18.438-.5.018-.38-.159-.411-.466-.41q-3.789.015-7.578,0c-.344,0-.5.059-.5.455s.163.461.5.455a5.528,5.528,0,0,1,.895.089c1.2.172,1.634.781,1.4,1.962a34.392,34.392,0,0,1-1.258,4c-.715,2.168-1.459,4.327-2.225,6.588-.092-.252-.15-.4-.2-.548L69.1,20.775c-.105-.32-.162-.611-.652-.61-.473,0-.512.291-.61.583q-2.064,6.135-4.126,12.269c-.067.2-.072.437-.312.615-1.089-3.358-2.171-6.691-3.245-10.026a3.573,3.573,0,0,1-.121-.71,1.349,1.349,0,0,1,1.072-1.624,4.1,4.1,0,0,1,1.3-.18c.355.009.478-.076.479-.461s-.146-.453-.49-.449c-1.643.015-3.288.006-4.932.006-1.4,0-2.807.013-4.21-.008-.385-.006-.454.133-.468.486-.018.446.235.42.528.421A3.264,3.264,0,0,1,56.6,23.329c.175.447.361.889.51,1.344q2.514,7.691,5.017,15.385c.075.231.054.514.45.513s.379-.282.456-.513q1.543-4.633,3.082-9.268c.471-1.416.943-2.831,1.471-4.415,1.522,4.684,2.982,9.187,4.452,13.687.071.219.059.511.459.511s.389-.287.463-.508c.733-2.179,1.451-4.363,2.183-6.543q1.623-4.831,3.258-9.659A3.576,3.576,0,0,1,82.192,21.091Z"/><path d="M30.377,9.582a20.385,20.385,0,0,0-1.194,40.735h0c0,.034.007.067.009.1H31.6a.492.492,0,0,1,.008-.1,20.386,20.386,0,0,0-1.23-40.735Zm-.034,39.537A19.152,19.152,0,1,1,49.538,29.98,19.123,19.123,0,0,1,30.343,49.119Z"/><path d="M148.642,21.887a7.171,7.171,0,0,0-4.716-1.664c-3.191-.052-6.377-.03-9.563-.034-.281,0-.6-.113-.608.405-.009.478.215.483.578.5,2.009.082,2.677.707,2.9,2.686.237,2.057.052,4.126.134,6.187-.082,2.121.1,4.251-.147,6.368a2.445,2.445,0,0,1-2.738,2.535c-.06,0-.12.009-.181.005-.336-.026-.556.008-.547.461,0,.436.185.479.543.479,3.109-.013,6.213-.018,9.322,0,.465,0,.569-.142.56-.582-.017-.543-.4-.349-.642-.358-1.777-.06-2.527-.655-2.8-2.341a35.258,35.258,0,0,1-.159-4.864c-.009-.31.172-.3.384-.3.7,0,1.405.013,2.1,0a9.833,9.833,0,0,0,4.311-.893A5.161,5.161,0,0,0,148.642,21.887Zm-1.879,4.92a3.36,3.36,0,0,1-3.393,2.88c-.8.039-1.6,0-2.4.026-.341.008-.388-.138-.388-.427q.013-3.545,0-7.084c0-.31.086-.427.405-.41.418.026.841.009,1.453.009a6.774,6.774,0,0,1,1.837.142,3.469,3.469,0,0,1,2.565,3.256A5.469,5.469,0,0,1,146.763,26.807Z"/><path d="M81.754,27.147a7.39,7.39,0,0,0-.2,9.96,9.132,9.132,0,0,0,6.977,3.277,9.947,9.947,0,0,0,5.85-1.759,7.557,7.557,0,0,0,1.026-11.892A9.732,9.732,0,0,0,81.754,27.147Zm11,10.132a5.415,5.415,0,0,1-8.929-1.685,8.691,8.691,0,0,1,.039-6.782,5.1,5.1,0,0,1,4.98-3.286,5.177,5.177,0,0,1,4.971,3.4,8.459,8.459,0,0,1,.629,3.341A7.615,7.615,0,0,1,92.752,37.279Z"/><path d="M193.6,31.667c-1.127-.6-2.288-1.136-3.434-1.7a8.1,8.1,0,0,1-1.847-1.109,1.708,1.708,0,0,1,.453-3.008,3.559,3.559,0,0,1,4.128,1.019,4.871,4.871,0,0,1,.982,2.29c.077.492.448.269.707.312.3.05.313-.149.312-.37q0-2.314,0-4.63c0-.245-.07-.359-.34-.366-.328-.009-.537.036-.663.413-.285.85-.3.824-1.049.417a5.8,5.8,0,0,0-5.093-.352,3.871,3.871,0,0,0-2.5,4.821,4.923,4.923,0,0,0,2.552,2.9c1.114.584,2.266,1.094,3.393,1.652a6.1,6.1,0,0,1,1.952,1.373,2.024,2.024,0,0,1-.708,3.288,3.781,3.781,0,0,1-2.239.2,4.869,4.869,0,0,1-4.132-4.246c-.09-.473-.362-.423-.687-.431-.424-.011-.295.294-.3.5-.01.882,0,1.764,0,2.646,0,.862-.009,1.723.006,2.585,0,.2-.147.521.276.525.3,0,.6.059.671-.378a3.2,3.2,0,0,1,.269-.663c.168-.4.335-.518.775-.21a6.145,6.145,0,0,0,5.979.81,4.566,4.566,0,0,0,3.1-5.194A4.66,4.66,0,0,0,193.6,31.667Z"/><path d="M40.165,23.944A10.29,10.29,0,0,1,39.113,22a3.567,3.567,0,0,1-.22-2.289,2.88,2.88,0,0,1,2.841-2.3c-7.726-7.256-20.393-5.126-25.438,3.238.573,0,1.112.017,1.647,0,1.263-.052,2.522-.117,3.786-.185.448-.026.758.155.81.607a.667.667,0,0,1-.655.777c-.5.06-1,.112-1.5.133-.35.017-.384.138-.272.449.354,1,.677,2,1.013,3.009q2.49,7.406,4.984,14.814c.143-.056.164-.176.2-.293q1.721-5.167,3.454-10.33a1.134,1.134,0,0,0-.048-.806c-.677-1.837-1.4-3.657-1.983-5.523-.311-1.005-.772-1.544-1.854-1.4a.969.969,0,0,1-.242-.026c-.5-.052-.866-.237-.793-.824.073-.552.474-.612.936-.586a47.609,47.609,0,0,0,6.066.138c.88-.056,1.763-.091,2.643-.142a.659.659,0,0,1,.8.62.668.668,0,0,1-.669.764,11.146,11.146,0,0,1-1.2.1c-.544,0-.7.138-.5.72,1.449,4.212,2.858,8.433,4.281,12.654.539,1.609,1.078,3.217,1.66,4.963.845-2.816,1.738-5.458,2.518-8.14A9.323,9.323,0,0,0,40.165,23.944Z"/><path d="M32.831,37.344c-.7-1.927-1.4-3.854-2.122-5.825a1.876,1.876,0,0,0-.142.268q-2.431,7.042-4.859,14.085c-.116.337-.013.418.306.505a16.954,16.954,0,0,0,9.576-.242c.4-.129.362-.267.242-.586Q34.319,41.448,32.831,37.344Z"/><path d="M22.867,45.174c-.086-.5-7.692-21.381-8.028-22.019A16.945,16.945,0,0,0,22.867,45.174Z"/><path d="M40.79,39.267c-.608,1.746-1.2,3.492-1.824,5.295A16.86,16.86,0,0,0,45.3,21.943a14.81,14.81,0,0,1-.862,6.86Q42.624,34.035,40.79,39.267Z"/></svg>