<svg id="Layer_1" data-name="Layer 1" xmlns="http://www.w3.org/2000/svg" viewBox="0 0 210 60"><path d="M20.676,30.614h9.992a7.975,7.975,0,0,1,.143.908,10,10,0,0,1,.057,1.065,13.56,13.56,0,0,1-.6,4.069,9.626,9.626,0,0,1-1.879,3.413,9.468,9.468,0,0,1-3.274,2.474,10.331,10.331,0,0,1-4.356.876,10.162,10.162,0,0,1-4.185-.876A10.376,10.376,0,0,1,13.16,40.1a11.807,11.807,0,0,1-2.306-3.71,13.253,13.253,0,0,1,0-9.361,11.83,11.83,0,0,1,2.306-3.71,10.373,10.373,0,0,1,3.416-2.442A10.146,10.146,0,0,1,20.761,20a9.785,9.785,0,0,1,7.772,3.538l-2.647,2.849a7.145,7.145,0,0,0-2.221-1.769,7.013,7.013,0,0,0-5.58-.062,6.608,6.608,0,0,0-2.192,1.549A7.447,7.447,0,0,0,14.4,28.532a9.358,9.358,0,0,0,0,6.355,7.3,7.3,0,0,0,1.508,2.427,6.755,6.755,0,0,0,2.206,1.55,6.612,6.612,0,0,0,2.677.547,6.567,6.567,0,0,0,2.747-.516,6.411,6.411,0,0,0,1.922-1.33,5.09,5.09,0,0,0,.982-1.425,8.683,8.683,0,0,0,.641-1.925H20.676Z"/><path d="M40.064,27.076a7.147,7.147,0,0,1,2.975.61,7.035,7.035,0,0,1,2.334,1.691,7.827,7.827,0,0,1,1.538,2.583,10.014,10.014,0,0,1,0,6.575,7.827,7.827,0,0,1-1.538,2.583,7.035,7.035,0,0,1-2.334,1.691,7.56,7.56,0,0,1-5.95,0,7.015,7.015,0,0,1-2.334-1.691,7.81,7.81,0,0,1-1.538-2.583,10.014,10.014,0,0,1,0-6.575,7.81,7.81,0,0,1,1.538-2.583,7.015,7.015,0,0,1,2.334-1.691A7.144,7.144,0,0,1,40.064,27.076Zm0,12.555a3.364,3.364,0,0,0,1.38-.3,3.53,3.53,0,0,0,1.182-.862,4.118,4.118,0,0,0,.811-1.377,5.854,5.854,0,0,0,0-3.694,4.123,4.123,0,0,0-.811-1.378,3.527,3.527,0,0,0-1.182-.861,3.379,3.379,0,0,0-2.775,0,3.552,3.552,0,0,0-1.167.861A4.141,4.141,0,0,0,36.69,33.4a5.854,5.854,0,0,0,0,3.694,4.136,4.136,0,0,0,.812,1.377,3.555,3.555,0,0,0,1.167.862A3.334,3.334,0,0,0,40.064,39.631Z"/><path d="M56.462,27.076a7.147,7.147,0,0,1,2.975.61,7.035,7.035,0,0,1,2.334,1.691,7.808,7.808,0,0,1,1.537,2.583,10,10,0,0,1,0,6.575,7.808,7.808,0,0,1-1.537,2.583,7.035,7.035,0,0,1-2.334,1.691,7.56,7.56,0,0,1-5.95,0,7.029,7.029,0,0,1-2.335-1.691,7.808,7.808,0,0,1-1.537-2.583,10.014,10.014,0,0,1,0-6.575,7.808,7.808,0,0,1,1.537-2.583,7.029,7.029,0,0,1,2.335-1.691A7.144,7.144,0,0,1,56.462,27.076Zm0,12.555a3.367,3.367,0,0,0,1.38-.3,3.53,3.53,0,0,0,1.182-.862,4.118,4.118,0,0,0,.811-1.377,5.854,5.854,0,0,0,0-3.694,4.123,4.123,0,0,0-.811-1.378,3.527,3.527,0,0,0-1.182-.861,3.379,3.379,0,0,0-2.775,0,3.566,3.566,0,0,0-1.168.861,4.139,4.139,0,0,0-.811,1.378,5.854,5.854,0,0,0,0,3.694,4.135,4.135,0,0,0,.811,1.377,3.569,3.569,0,0,0,1.168.862A3.334,3.334,0,0,0,56.462,39.631Z"/><path d="M72.689,50.182a7.611,7.611,0,0,1-2.633-.423,7.249,7.249,0,0,1-2.008-1.1,7.015,7.015,0,0,1-1.423-1.487,6,6,0,0,1-.826-1.627l3.559-1.566a3.7,3.7,0,0,0,1.31,1.894,3.317,3.317,0,0,0,2.021.673,3.407,3.407,0,0,0,2.79-1.259A5.346,5.346,0,0,0,76.5,41.823V40.758h-.228a4.7,4.7,0,0,1-1.723,1.581,5.193,5.193,0,0,1-2.519.579,5.647,5.647,0,0,1-2.434-.557,6.407,6.407,0,0,1-2.093-1.6,8.37,8.37,0,0,1-1.48-2.5,8.87,8.87,0,0,1-.569-3.255,9,9,0,0,1,.569-3.271,8.333,8.333,0,0,1,1.48-2.512,6.418,6.418,0,0,1,2.093-1.6,5.634,5.634,0,0,1,2.434-.558,5.2,5.2,0,0,1,2.519.579,4.721,4.721,0,0,1,1.723,1.581H76.5V27.577h3.558V41.823a10.539,10.539,0,0,1-.541,3.49,7.68,7.68,0,0,1-1.509,2.63,6.528,6.528,0,0,1-2.32,1.66A7.557,7.557,0,0,1,72.689,50.182Zm.142-10.958a3.515,3.515,0,0,0,1.352-.276,3.448,3.448,0,0,0,1.182-.815,4.115,4.115,0,0,0,.825-1.322,4.817,4.817,0,0,0,.314-1.8A4.934,4.934,0,0,0,76.19,33.2a4.071,4.071,0,0,0-.825-1.337,3.435,3.435,0,0,0-1.182-.815,3.517,3.517,0,0,0-1.352-.277,3.412,3.412,0,0,0-1.338.277,3.372,3.372,0,0,0-1.167.83,4.286,4.286,0,0,0-.826,1.337,5.324,5.324,0,0,0,0,3.6,4.1,4.1,0,0,0,.826,1.322,3.478,3.478,0,0,0,1.167.815A3.411,3.411,0,0,0,72.831,39.224Z"/><path d="M83.25,42.918V20.5h3.73V42.918Z"/><path d="M103.235,39.224a8.308,8.308,0,0,1-2.605,3.037,6.749,6.749,0,0,1-4,1.158,7.021,7.021,0,0,1-5.3-2.317,7.879,7.879,0,0,1-1.551-2.582,9.293,9.293,0,0,1-.555-3.272,9.149,9.149,0,0,1,.54-3.147,8.19,8.19,0,0,1,1.509-2.6,7.336,7.336,0,0,1,2.292-1.768,6.46,6.46,0,0,1,2.918-.658,7,7,0,0,1,2.989.61,6.134,6.134,0,0,1,2.192,1.691,7.475,7.475,0,0,1,1.339,2.552,10.774,10.774,0,0,1,.455,3.193V35.5a2.3,2.3,0,0,0-.028.344,1.94,1.94,0,0,0-.029.345H92.9a4.6,4.6,0,0,0,.47,1.612,3.834,3.834,0,0,0,.882,1.128,3.351,3.351,0,0,0,1.153.657,4.105,4.105,0,0,0,1.281.2,3.392,3.392,0,0,0,2.121-.642,4.554,4.554,0,0,0,1.324-1.612Zm-3.388-5.949a2.868,2.868,0,0,0-.241-.908,3.216,3.216,0,0,0-.627-.939,3.265,3.265,0,0,0-1.025-.72,3.482,3.482,0,0,0-1.466-.282,3.216,3.216,0,0,0-2.106.751,4.005,4.005,0,0,0-1.282,2.1Z"/><path d="M132.188,32.618a10.7,10.7,0,0,1-2.534,7.482,9.383,9.383,0,0,1-7.487,3.319,9.775,9.775,0,0,1-7.516-3.381,11.921,11.921,0,0,1-3.075-8.328,11.925,11.925,0,0,1,3.075-8.329A9.775,9.775,0,0,1,122.167,20a10.412,10.412,0,0,1,4.242.877,8.522,8.522,0,0,1,3.274,2.473L127.8,25.417a6.391,6.391,0,0,0-2.434-1.957,7.415,7.415,0,0,0-3.2-.705,7.333,7.333,0,0,0-5.637,2.536,9.315,9.315,0,0,0-2.278,6.419,9.313,9.313,0,0,0,2.278,6.418,7.33,7.33,0,0,0,5.637,2.536,7.162,7.162,0,0,0,5.068-1.878,7.775,7.775,0,0,0,2.334-5.167h-7.4V30.927h9.879A10.659,10.659,0,0,1,132.188,32.618Z"/><path d="M153.368,36.938a6.08,6.08,0,0,1-1.965,4.728,7.069,7.069,0,0,1-4.839,1.753,6.737,6.737,0,0,1-4.47-1.628,8.41,8.41,0,0,1-2.676-4.446l2.5-1.127a7.5,7.5,0,0,0,.712,1.816,5.772,5.772,0,0,0,1.068,1.393,4.748,4.748,0,0,0,1.351.908,3.807,3.807,0,0,0,1.567.329,4.235,4.235,0,0,0,2.932-1.017,3.459,3.459,0,0,0,1.139-2.709,3.4,3.4,0,0,0-.94-2.41,8.706,8.706,0,0,0-3.3-1.879,31.826,31.826,0,0,1-3.046-1.315,5.8,5.8,0,0,1-3.245-5.354,5.7,5.7,0,0,1,1.794-4.227A6.2,6.2,0,0,1,146.422,20a6.437,6.437,0,0,1,4.042,1.315,6.117,6.117,0,0,1,2.278,3.225l-2.449,1.127a4,4,0,0,0-1.352-2.082,4.055,4.055,0,0,0-5.053.109,2.833,2.833,0,0,0-1.054,2.286,2.774,2.774,0,0,0,.825,2,13.682,13.682,0,0,0,3.958,2,9.961,9.961,0,0,1,4.428,2.833A6.437,6.437,0,0,1,153.368,36.938Z"/><path d="M167.887,42.918h-2.5V40.789h-.114a5.267,5.267,0,0,1-8.355,1.018,6.852,6.852,0,0,1-1.381-4.587V27.577h2.619v9.455q.084,3.758,3.445,3.757a3.174,3.174,0,0,0,2.619-1.393,5.37,5.37,0,0,0,1.053-3.334V27.577h2.619Z"/><path d="M174.464,22.286a2.072,2.072,0,0,1-.541,1.44,1.74,1.74,0,0,1-2.62,0,2.187,2.187,0,0,1,0-2.88,1.738,1.738,0,0,1,2.62,0A2.07,2.07,0,0,1,174.464,22.286Zm-.541,5.291V42.918H171.3V27.577Z"/><path d="M182.719,43.169a3.781,3.781,0,0,1-2.833-1.159,4.528,4.528,0,0,1-1.153-3.224V30.207h-2.448v-2.63h2.448v-4.7h2.62v4.7h3.416v2.63h-3.416v7.639a2.991,2.991,0,0,0,.541,2.082,1.674,1.674,0,0,0,1.224.548,2.416,2.416,0,0,0,.612-.078,2.907,2.907,0,0,0,.554-.2l.826,2.568A6.451,6.451,0,0,1,182.719,43.169Z"/><path d="M193.4,43.419a6.388,6.388,0,0,1-5.068-2.317,8.659,8.659,0,0,1-1.993-5.854,8.838,8.838,0,0,1,1.936-5.839,6.526,6.526,0,0,1,9.893-.126A9.4,9.4,0,0,1,200,35.467l-.029.313h-10.96a5.25,5.25,0,0,0,1.367,3.631,4.164,4.164,0,0,0,3.131,1.378q2.505,0,3.928-2.755l2.336,1.252a7.4,7.4,0,0,1-2.6,3.037A6.706,6.706,0,0,1,193.4,43.419ZM189.211,33.4h8a3.974,3.974,0,0,0-1.181-2.646,3.9,3.9,0,0,0-2.862-1.049,3.6,3.6,0,0,0-2.548,1A4.905,4.905,0,0,0,189.211,33.4Z"/></svg>