<svg id="Layer_1" data-name="Layer 1" xmlns="http://www.w3.org/2000/svg" viewBox="0 0 240 60"><path d="M21.037,30.973h10.33a8.431,8.431,0,0,1,.148.938,10.425,10.425,0,0,1,.058,1.1,14.009,14.009,0,0,1-.618,4.208,9.958,9.958,0,0,1-1.942,3.528,9.783,9.783,0,0,1-3.385,2.557,10.669,10.669,0,0,1-4.5.906,10.506,10.506,0,0,1-4.327-.906,10.722,10.722,0,0,1-3.531-2.525,12.207,12.207,0,0,1-2.384-3.835,13.7,13.7,0,0,1,0-9.678,12.212,12.212,0,0,1,2.384-3.836A10.751,10.751,0,0,1,16.8,20.906,10.506,10.506,0,0,1,21.125,20a10.423,10.423,0,0,1,4.577.971,10.306,10.306,0,0,1,3.458,2.687L26.423,26.6a7.393,7.393,0,0,0-2.3-1.829,7.244,7.244,0,0,0-5.768-.064,6.84,6.84,0,0,0-2.267,1.6,7.729,7.729,0,0,0-1.545,2.508,9.69,9.69,0,0,0,0,6.571,7.6,7.6,0,0,0,1.56,2.509,6.974,6.974,0,0,0,2.281,1.6,6.835,6.835,0,0,0,2.767.566A6.781,6.781,0,0,0,24,39.534a6.61,6.61,0,0,0,1.986-1.375A5.241,5.241,0,0,0,27,36.686a8.915,8.915,0,0,0,.662-1.991H21.037Z"/><path d="M41.08,27.315a7.384,7.384,0,0,1,3.076.631,7.274,7.274,0,0,1,2.413,1.748,8.076,8.076,0,0,1,1.59,2.671,10.348,10.348,0,0,1,0,6.8,8.061,8.061,0,0,1-1.59,2.67,7.26,7.26,0,0,1-2.413,1.748,7.811,7.811,0,0,1-6.151,0,7.25,7.25,0,0,1-2.413-1.748A8.078,8.078,0,0,1,34,39.162a10.348,10.348,0,0,1,0-6.8,8.093,8.093,0,0,1,1.59-2.671,7.264,7.264,0,0,1,2.413-1.748A7.38,7.38,0,0,1,41.08,27.315Zm0,12.98a3.48,3.48,0,0,0,1.428-.308,3.634,3.634,0,0,0,1.221-.89,4.264,4.264,0,0,0,.839-1.424,6.054,6.054,0,0,0,0-3.819,4.279,4.279,0,0,0-.839-1.425,3.661,3.661,0,0,0-1.221-.89,3.507,3.507,0,0,0-2.87,0,3.7,3.7,0,0,0-1.206.89,4.279,4.279,0,0,0-.839,1.425,6.054,6.054,0,0,0,0,3.819,4.264,4.264,0,0,0,.839,1.424,3.669,3.669,0,0,0,1.206.89A3.449,3.449,0,0,0,41.08,40.3Z"/><path d="M58.033,27.315a7.391,7.391,0,0,1,3.076.631,7.284,7.284,0,0,1,2.413,1.748,8.091,8.091,0,0,1,1.589,2.671,10.348,10.348,0,0,1,0,6.8,8.076,8.076,0,0,1-1.589,2.67,7.27,7.27,0,0,1-2.413,1.748,7.813,7.813,0,0,1-6.152,0,7.26,7.26,0,0,1-2.413-1.748,8.059,8.059,0,0,1-1.589-2.67,10.348,10.348,0,0,1,0-6.8,8.074,8.074,0,0,1,1.589-2.671,7.274,7.274,0,0,1,2.413-1.748A7.388,7.388,0,0,1,58.033,27.315Zm0,12.98a3.479,3.479,0,0,0,1.427-.308,3.637,3.637,0,0,0,1.222-.89,4.281,4.281,0,0,0,.839-1.424,6.054,6.054,0,0,0,0-3.819,4.3,4.3,0,0,0-.839-1.425,3.665,3.665,0,0,0-1.222-.89,3.5,3.5,0,0,0-2.869,0,3.69,3.69,0,0,0-1.207.89,4.3,4.3,0,0,0-.839,1.425,6.054,6.054,0,0,0,0,3.819,4.281,4.281,0,0,0,.839,1.424,3.662,3.662,0,0,0,1.207.89A3.445,3.445,0,0,0,58.033,40.3Z"/><path d="M74.809,51.2a7.879,7.879,0,0,1-2.722-.437,7.534,7.534,0,0,1-2.076-1.133A7.294,7.294,0,0,1,68.54,48.1a6.2,6.2,0,0,1-.854-1.682l3.679-1.619a3.829,3.829,0,0,0,1.354,1.958,3.434,3.434,0,0,0,2.09.7,3.521,3.521,0,0,0,2.884-1.3,5.528,5.528,0,0,0,1.06-3.585v-1.1h-.236a4.867,4.867,0,0,1-1.78,1.635,5.388,5.388,0,0,1-2.6.6,5.837,5.837,0,0,1-2.517-.576,6.634,6.634,0,0,1-2.163-1.651,8.629,8.629,0,0,1-1.53-2.58,9.173,9.173,0,0,1-.589-3.365,9.3,9.3,0,0,1,.589-3.382,8.579,8.579,0,0,1,1.53-2.6,6.634,6.634,0,0,1,2.163-1.651,5.838,5.838,0,0,1,2.517-.577,5.389,5.389,0,0,1,2.6.6,4.873,4.873,0,0,1,1.78,1.634h.236V27.833h3.679V42.561a10.937,10.937,0,0,1-.559,3.609,7.952,7.952,0,0,1-1.561,2.718,6.744,6.744,0,0,1-2.4,1.716A7.815,7.815,0,0,1,74.809,51.2Zm.147-11.329a3.627,3.627,0,0,0,1.4-.286,3.526,3.526,0,0,0,1.221-.842,4.249,4.249,0,0,0,.854-1.366,5,5,0,0,0,.324-1.86,5.13,5.13,0,0,0-.324-1.875,4.2,4.2,0,0,0-.854-1.382,3.526,3.526,0,0,0-1.221-.842,3.629,3.629,0,0,0-1.4-.287,3.516,3.516,0,0,0-1.383.287,3.458,3.458,0,0,0-1.207.858,4.409,4.409,0,0,0-.853,1.382,5.5,5.5,0,0,0,0,3.719,4.23,4.23,0,0,0,.853,1.366,3.558,3.558,0,0,0,1.207.842A3.515,3.515,0,0,0,74.956,39.874Z"/><path d="M85.727,43.693V20.518h3.856V43.693Z"/><path d="M106.388,39.874a8.6,8.6,0,0,1-2.693,3.14,6.978,6.978,0,0,1-4.135,1.2,7.261,7.261,0,0,1-5.474-2.395,8.147,8.147,0,0,1-1.6-2.67,9.6,9.6,0,0,1-.574-3.383,9.441,9.441,0,0,1,.559-3.253,8.43,8.43,0,0,1,1.56-2.686A7.586,7.586,0,0,1,96.4,28a6.691,6.691,0,0,1,3.017-.68,7.229,7.229,0,0,1,3.09.631,6.365,6.365,0,0,1,2.267,1.748,7.743,7.743,0,0,1,1.383,2.638,11.119,11.119,0,0,1,.471,3.3v.388a2.351,2.351,0,0,0-.03.356,2.061,2.061,0,0,0-.029.356H95.705A4.77,4.77,0,0,0,96.19,38.4a3.96,3.96,0,0,0,.912,1.166,3.455,3.455,0,0,0,1.193.679,4.23,4.23,0,0,0,1.324.211,3.511,3.511,0,0,0,2.193-.664,4.722,4.722,0,0,0,1.368-1.667Zm-3.5-6.15a2.98,2.98,0,0,0-.25-.939,3.333,3.333,0,0,0-.648-.971,3.374,3.374,0,0,0-1.06-.744,3.6,3.6,0,0,0-1.515-.291,3.327,3.327,0,0,0-2.178.776,4.132,4.132,0,0,0-1.324,2.169Z"/><path d="M117.277,43.693h-3l7.946-23.175h3.061l7.946,23.175h-3L128.2,37.414h-8.859Zm6.416-19.518L120.25,34.63h7l-3.443-10.455Z"/><path d="M135.23,27.833h2.59v2.2h.119a5.445,5.445,0,0,1,8.638-1.052,7.085,7.085,0,0,1,1.428,4.742v9.969H145.3V33.918q-.087-3.883-3.56-3.884a3.28,3.28,0,0,0-2.708,1.441,5.55,5.55,0,0,0-1.089,3.447v8.771H135.23Z"/><path d="M156.51,27.315a6.347,6.347,0,0,1,4.739,1.764,6.6,6.6,0,0,1,1.736,4.839v9.775H160.4v-2.2h-.117a5.074,5.074,0,0,1-4.474,2.719,5.51,5.51,0,0,1-3.989-1.554,5.187,5.187,0,0,1-1.6-3.884,4.9,4.9,0,0,1,1.692-3.916,6.688,6.688,0,0,1,4.519-1.457,7.406,7.406,0,0,1,3.972.971v-.679a3.538,3.538,0,0,0-1.118-2.638,3.646,3.646,0,0,0-2.619-1.085,4.063,4.063,0,0,0-3.591,2.1l-2.384-1.65A6.46,6.46,0,0,1,156.51,27.315Zm-3.5,11.523a2.459,2.459,0,0,0,.9,1.942,3.113,3.113,0,0,0,2.1.777,4.125,4.125,0,0,0,3.046-1.392A4.559,4.559,0,0,0,160.4,36.9a5.211,5.211,0,0,0-3.532-1.1,4.3,4.3,0,0,0-2.752.873A2.668,2.668,0,0,0,153.009,38.838Z"/><path d="M168.754,20.518V43.693h-2.708V20.518Z"/><path d="M184.941,27.833l-9.035,22.852h-2.8l3.356-8-5.946-14.857h2.943l4.3,11.393h.058L182,27.833Z"/><path d="M192.417,43.952a3.909,3.909,0,0,1-2.929-1.2,4.676,4.676,0,0,1-1.191-3.334V30.552h-2.532V27.833H188.3V22.978H191v4.855h3.532v2.719H191v7.9a3.1,3.1,0,0,0,.56,2.152,1.736,1.736,0,0,0,1.265.567,2.486,2.486,0,0,0,.633-.081,3.059,3.059,0,0,0,.575-.211l.853,2.655A6.687,6.687,0,0,1,192.417,43.952Z"/><path d="M200.774,22.363a2.133,2.133,0,0,1-.559,1.489,1.8,1.8,0,0,1-2.707,0,2.263,2.263,0,0,1,0-2.978,1.8,1.8,0,0,1,2.707,0A2.133,2.133,0,0,1,200.774,22.363Zm-.559,5.47v15.86h-2.707V27.833Z"/><path d="M210.193,44.211a6.809,6.809,0,0,1-5.327-2.395,9.021,9.021,0,0,1-2.09-6.053,8.873,8.873,0,0,1,2.09-6.053,6.813,6.813,0,0,1,5.327-2.395,6.325,6.325,0,0,1,3.855,1.214,7.314,7.314,0,0,1,2.473,3.35l-2.473,1.133a4.09,4.09,0,0,0-4.032-2.978,4.04,4.04,0,0,0-3.208,1.651,6.308,6.308,0,0,0-1.324,4.078,6.311,6.311,0,0,0,1.324,4.079,4.041,4.041,0,0,0,3.208,1.65,4.245,4.245,0,0,0,4.179-2.977l2.414,1.132A7.012,7.012,0,0,1,214.121,43,6.566,6.566,0,0,1,210.193,44.211Z"/><path d="M230,39.292a4.446,4.446,0,0,1-1.649,3.495,6.63,6.63,0,0,1-7.975.178,6.805,6.805,0,0,1-2.355-3.285l2.414-1.133a4.9,4.9,0,0,0,1.545,2.217,3.528,3.528,0,0,0,2.222.793,3.65,3.65,0,0,0,2.163-.615,1.767,1.767,0,0,0,.868-1.456q0-1.521-2.119-2.234l-2.472-.679q-4.209-1.166-4.209-4.467a4.267,4.267,0,0,1,1.6-3.48,6.278,6.278,0,0,1,4.106-1.311,6.213,6.213,0,0,1,3.458,1,5.312,5.312,0,0,1,2.163,2.686l-2.412,1.1a3.242,3.242,0,0,0-1.34-1.57,3.9,3.9,0,0,0-2.075-.567,3.249,3.249,0,0,0-1.9.583,1.7,1.7,0,0,0-.838,1.424q0,1.361,2.325,1.942l2.178.615Q230,35.7,230,39.292Z"/></svg>