<svg id="Layer_1" data-name="Layer 1" xmlns="http://www.w3.org/2000/svg" viewBox="0 0 270 60"><path d="M71.524,15.713h5.752c.867,4.011,1.774,8.05,2.781,12.047.647,2.459.767,5.145,2.01,7.368.968-1.885,1.012-4.045,1.684-6.051,1.191-4.453,2.389-8.873,3.429-13.371h5.69C93.918,19.9,94.88,24.1,96,28.273c.438,1.756.682,3.593,1.249,5.306.219.545.118,1.252.716,1.658,1.018-1.31.9-3.279,1.445-4.841,1-4.029,1.869-8.08,2.927-12.092.331-.776-.007-2.408.976-2.624,1.725-.015,3.449-.007,5.212-.007-2,9.5-5.15,18.894-7.465,28.382-1.761.169-3.546.027-5.317.068-.657,0-.718-.093-.841-.712Q93.434,37.554,91.934,31.7c-.319-1.749-.908-3.429-1.269-5.169-.189-.664-.2-1.33-.785-1.811-1.985,6.315-3.222,12.923-4.944,19.35-1.812.132-3.589.022-5.4.053-.671,0-.757-.113-.868-.77-.427-1.807-1.044-3.571-1.463-5.382C75.43,30.566,72.917,23.176,71.524,15.713Z"/><path d="M204.219,15.718c3.606,9.4,7.082,18.8,10.577,28.239a30.878,30.878,0,0,1-6.068.132c-.475-1.363-.989-2.8-1.461-4.18-.354-.9-.388-2.348-1.654-2.331-12.063.547-9.145-2.577-12.406,6.431a38.658,38.658,0,0,1-5.864.018c3.347-9.474,7.072-18.824,10.6-28.242A44.728,44.728,0,0,1,204.219,15.718ZM200.9,22.6a76.641,76.641,0,0,0-3.54,9.951c-.207.588-.092.831.512.836q3.1.026,6.193,0c1.77-.005-.424-3.314-.5-4.271C202.92,27.861,201.912,22.852,200.9,22.6Z"/><path d="M222,41.691c-1.114.437-.207,7.925-.573,9.645-1.752.049-3.445.022-5.118.019-.18-.546-.244-26.662-.071-27.833,1.6-.061,3.219-.019,4.843-.025.527.99-.4,2.047.733,2.737,1.588-3.285,6.014-3.572,9.137-2.718,3.678,1.109,5.517,4.789,6.041,8.347.722,5.018-1.3,11.744-7.007,12.575A7.828,7.828,0,0,1,222,41.691Zm9.79-7.714c-.016-2.595-.91-6.276-3.953-6.72-4.336-1.26-6.365,2.677-6.387,6.455C221,43.1,231.975,43.154,231.793,33.977Z"/><path d="M244.8,41.694a1.377,1.377,0,0,0-.431,1.2c.006,2.763,0,5.545,0,8.306a24.728,24.728,0,0,1-5.1.082c-.177-9.193-.084-18.43-.036-27.631a22.047,22.047,0,0,1,5.036-.042l.069,2.367a.7.7,0,0,0,.79-.468,6.262,6.262,0,0,1,5.3-2.371c7.295-.568,10.239,6.77,9.438,12.985-.507,3.316-2.15,6.658-5.444,7.934C250.925,45.223,247.283,44.622,244.8,41.694Zm9.8-7.7h0c.864-8.382-10.129-9.783-10.234-.994-.093,2.5.148,5.326,2.354,6.9a4.745,4.745,0,0,0,2.905.916C253.15,40.647,254.961,37.239,254.605,33.99Z"/><path d="M129.622,44.078h-5.3c0-4.192-.008-8.362,0-12.551.027-2.59-1.376-4.425-4.058-4.452-4.5.262-4.671,4.851-4.443,8.337-.048,2.9-.007,5.766-.012,8.666h-5.164c-.169-.521-.2-27.529-.032-28.364h5.156c.1,3.161.012,6.321.04,9.483-.142,1.127.543,1.388,1.095.378,1.879-2.638,5.707-2.873,8.6-2.081,3.426.883,4.225,4.767,4.136,7.852C129.608,35.6,129.624,39.821,129.622,44.078Z"/><path d="M138.531,29.667h-5.186c-.021-7.066,9.9-7.358,14.924-5.853a4.906,4.906,0,0,1,3.536,4.616c.255,5.214-.5,10.5.473,15.645h-5.046c-.431-.468-.348-1.237-.772-1.76-3.659,2.963-11.518,3.787-13.513-1.44-2.059-8.154,5.078-8.161,10.886-9,2.857-.225,3.732-3.511,1.171-4.932C142.65,25.678,138.675,26.561,138.531,29.667Zm7.992,4.631a1.368,1.368,0,0,0-1.23.087c-.83.215-1.711.335-2.569.508-2.7.069-5.591,1.555-4.591,4.708,1.142,1.89,3.759,1.941,5.66,1.3C146.488,39.85,146.611,36.772,146.523,34.3Z"/><path d="M186.035,29.371c-7.907.327-2.954-.146-6.4-2.346-4.681-2.322-8.954,2.237-3.236,3.957,5.858,1.613,12.958,1.876,9.516,10.151-2.122,3.5-7.168,3.858-10.817,3.3-3.853-.34-6.884-2.548-7.274-6.552,1.686-.1,3.28-.031,4.886-.048A4.754,4.754,0,0,0,178.1,41.2c2.387.162,4.94-2.961,2.257-4.59-3.228-1.557-6.985-1.521-10.1-3.329-1.985-1.123-1.949-3.558-1.723-5.536.706-3.472,4.911-4.772,8.059-4.6C180.546,22.724,186.362,24.537,186.035,29.371Z"/><path d="M166.514,40.284a30.1,30.1,0,0,1,.031,3.771c-3.134.268-7.831,1-9.164-2.693-.152-1.9-.05-3.843-.1-5.753-.019-2.616.021-5.235-.013-7.849-.153-1.369-2.448-.535-3.4-.751a13.3,13.3,0,0,1-.059-3.465c4.943-.032,3.144.194,3.472-5.943a18.487,18.487,0,0,1,5.056-.086c.622,6.177-1.832,6.043,4.084,6.015a10.4,10.4,0,0,1,.047,3.436c-1.248.368-4.36-.852-4.064,1.282.117,3.6-.306,7.259.278,10.824C163.326,40.576,165.111,40.261,166.514,40.284Z"/><path d="M10,51.282c1.353-4.351,2.918-8.667,4.335-13.008C10.754,31.7,9.59,23.555,12.493,16.417,18.092,1.273,37.757-4.338,50.48,5.62c14.289,10.611,12.506,33.236-3.259,41.489-7.51,4.181-16.392,3.535-23.875-.086C18.9,48.442,14.464,49.92,10,51.282Zm8.805-13.874c-.772,2.455-1.642,4.886-2.453,7.331-.251.585.506.146.78.1,2.4-.641,4.848-1.824,7.242-2.164A20.53,20.53,0,0,0,33.7,45.888C53.374,47.58,64.025,23.23,49.349,9.964,30.555-6.068,4.906,17,18.805,37.408Z"/><path d="M48.364,32.278c.109,3.309-3.024,5.259-6.025,5.409a22.878,22.878,0,0,1-9.17-3.6c-5.1-3.785-13.7-13.391-8.054-19.6a2.767,2.767,0,0,1,2.393-1.218c.68.166,1.641-.183,2.051.541.825,1.767,1.381,3.659,2.108,5.47a1.024,1.024,0,0,1,.027.881c-.572,1.711-3.236,2.384-1.583,4.316a17.187,17.187,0,0,0,8.29,7.241c1.245.255,2.073-1.713,2.916-2.437.818-1.859,4.059,1.023,5.4,1.477C47.315,31.179,48.489,31.338,48.364,32.278Z"/></svg>