<svg id="Layer_1" data-name="Layer 1" xmlns="http://www.w3.org/2000/svg" viewBox="0 0 200 60"><path d="M21.137,31.072H31.561a8.528,8.528,0,0,1,.149.947,10.616,10.616,0,0,1,.059,1.111,14.129,14.129,0,0,1-.624,4.246,10.05,10.05,0,0,1-1.96,3.56,9.866,9.866,0,0,1-3.415,2.58,10.763,10.763,0,0,1-4.544.915,10.591,10.591,0,0,1-4.366-.915A10.791,10.791,0,0,1,13.3,40.968a12.318,12.318,0,0,1-2.406-3.87,13.823,13.823,0,0,1,0-9.765A12.334,12.334,0,0,1,13.3,23.462a10.832,10.832,0,0,1,3.563-2.547A10.591,10.591,0,0,1,21.226,20a10.213,10.213,0,0,1,8.108,3.691l-2.762,2.972a7.444,7.444,0,0,0-2.317-1.845,7.316,7.316,0,0,0-5.821-.066,6.909,6.909,0,0,0-2.287,1.617A7.8,7.8,0,0,0,14.588,28.9a9.779,9.779,0,0,0,0,6.63,7.656,7.656,0,0,0,1.574,2.532,7.058,7.058,0,0,0,2.3,1.617,6.9,6.9,0,0,0,2.792.571,6.85,6.85,0,0,0,2.866-.539,6.669,6.669,0,0,0,2-1.388,5.29,5.29,0,0,0,1.025-1.486,9.067,9.067,0,0,0,.668-2.008H21.137Z"/><path d="M41.362,27.381a7.467,7.467,0,0,1,3.1.637A7.343,7.343,0,0,1,46.9,29.782a8.182,8.182,0,0,1,1.6,2.695,10.443,10.443,0,0,1,0,6.858,8.162,8.162,0,0,1-1.6,2.7,7.329,7.329,0,0,1-2.435,1.764,7.879,7.879,0,0,1-6.207,0,7.309,7.309,0,0,1-2.435-1.764,8.128,8.128,0,0,1-1.6-2.695,10.443,10.443,0,0,1,0-6.858,8.148,8.148,0,0,1,1.6-2.695,7.323,7.323,0,0,1,2.435-1.764A7.462,7.462,0,0,1,41.362,27.381Zm0,13.1a3.521,3.521,0,0,0,1.44-.31,3.682,3.682,0,0,0,1.233-.9,4.3,4.3,0,0,0,.846-1.437,6.107,6.107,0,0,0,0-3.854,4.3,4.3,0,0,0-.846-1.437,3.679,3.679,0,0,0-1.233-.9,3.524,3.524,0,0,0-2.9,0,3.714,3.714,0,0,0-1.218.9,4.331,4.331,0,0,0-.846,1.437,6.107,6.107,0,0,0,0,3.854,4.331,4.331,0,0,0,.846,1.437,3.717,3.717,0,0,0,1.218.9A3.487,3.487,0,0,0,41.362,40.479Z"/><path d="M58.468,27.381a7.467,7.467,0,0,1,3.1.637,7.343,7.343,0,0,1,2.435,1.764,8.182,8.182,0,0,1,1.6,2.695,10.443,10.443,0,0,1,0,6.858,8.162,8.162,0,0,1-1.6,2.7,7.329,7.329,0,0,1-2.435,1.764,7.879,7.879,0,0,1-6.207,0A7.309,7.309,0,0,1,52.93,42.03a8.128,8.128,0,0,1-1.6-2.695,10.443,10.443,0,0,1,0-6.858,8.148,8.148,0,0,1,1.6-2.695,7.323,7.323,0,0,1,2.435-1.764A7.462,7.462,0,0,1,58.468,27.381Zm0,13.1a3.521,3.521,0,0,0,1.44-.31,3.682,3.682,0,0,0,1.233-.9,4.316,4.316,0,0,0,.847-1.437,6.107,6.107,0,0,0,0-3.854,4.316,4.316,0,0,0-.847-1.437,3.679,3.679,0,0,0-1.233-.9,3.524,3.524,0,0,0-2.9,0,3.714,3.714,0,0,0-1.218.9,4.331,4.331,0,0,0-.846,1.437,6.107,6.107,0,0,0,0,3.854A4.331,4.331,0,0,0,55.8,39.27a3.717,3.717,0,0,0,1.218.9A3.487,3.487,0,0,0,58.468,40.479Z"/><path d="M75.4,51.486a7.952,7.952,0,0,1-2.747-.441A7.585,7.585,0,0,1,70.555,49.9,7.327,7.327,0,0,1,69.07,48.35a6.241,6.241,0,0,1-.861-1.7l3.713-1.633A3.859,3.859,0,0,0,73.288,47a3.464,3.464,0,0,0,2.108.7,3.556,3.556,0,0,0,2.911-1.314,5.58,5.58,0,0,0,1.069-3.618V41.654h-.238a4.908,4.908,0,0,1-1.8,1.65,5.426,5.426,0,0,1-2.628.6,5.878,5.878,0,0,1-2.539-.582,6.665,6.665,0,0,1-2.183-1.665,8.731,8.731,0,0,1-1.545-2.6,9.263,9.263,0,0,1-.593-3.4,9.392,9.392,0,0,1,.593-3.412,8.694,8.694,0,0,1,1.545-2.62,6.679,6.679,0,0,1,2.183-1.665,5.879,5.879,0,0,1,2.539-.583,5.426,5.426,0,0,1,2.628.605,4.914,4.914,0,0,1,1.8,1.649h.238V27.9h3.712V42.765a11.015,11.015,0,0,1-.564,3.642A8.034,8.034,0,0,1,80.95,49.15a6.826,6.826,0,0,1-2.421,1.731A7.874,7.874,0,0,1,75.4,51.486Zm.149-11.432a3.666,3.666,0,0,0,1.41-.288,3.58,3.58,0,0,0,1.233-.85,4.278,4.278,0,0,0,.861-1.379,5.024,5.024,0,0,0,.327-1.876,5.148,5.148,0,0,0-.327-1.892,4.239,4.239,0,0,0-.861-1.395,3.594,3.594,0,0,0-1.233-.85,3.667,3.667,0,0,0-1.41-.289,3.559,3.559,0,0,0-1.4.289,3.521,3.521,0,0,0-1.218.866,4.462,4.462,0,0,0-.861,1.395,5.545,5.545,0,0,0,0,3.752,4.261,4.261,0,0,0,.861,1.379,3.609,3.609,0,0,0,1.218.85A3.558,3.558,0,0,0,75.545,40.054Z"/><path d="M86.414,43.908V20.523H90.3V43.908Z"/><path d="M107.262,40.054a8.66,8.66,0,0,1-2.718,3.168,7.043,7.043,0,0,1-4.172,1.209,7.328,7.328,0,0,1-5.524-2.417,8.227,8.227,0,0,1-1.619-2.695,9.69,9.69,0,0,1-.579-3.413,9.529,9.529,0,0,1,.564-3.282,8.515,8.515,0,0,1,1.574-2.711,7.644,7.644,0,0,1,2.391-1.845,6.738,6.738,0,0,1,3.044-.687,7.3,7.3,0,0,1,3.118.637,6.408,6.408,0,0,1,2.287,1.764,7.812,7.812,0,0,1,1.4,2.662,11.244,11.244,0,0,1,.476,3.331v.392a2.4,2.4,0,0,0-.03.359,2.008,2.008,0,0,0-.03.36H96.481a4.806,4.806,0,0,0,.49,1.682,3.985,3.985,0,0,0,.921,1.176,3.49,3.49,0,0,0,1.2.686,4.276,4.276,0,0,0,1.336.212,3.536,3.536,0,0,0,2.213-.67,4.759,4.759,0,0,0,1.381-1.682Zm-3.534-6.206a2.987,2.987,0,0,0-.253-.947,3.353,3.353,0,0,0-.653-.979,3.419,3.419,0,0,0-1.069-.752,3.638,3.638,0,0,0-1.53-.294,3.354,3.354,0,0,0-2.2.784,4.174,4.174,0,0,0-1.337,2.188Z"/><path d="M127.01,44.431a10.24,10.24,0,0,1-7.9-3.495,12.544,12.544,0,0,1-3.149-8.72,12.428,12.428,0,0,1,3.149-8.689A10.142,10.142,0,0,1,127.01,20a9.466,9.466,0,0,1,7.81,3.822l-1.959,2.09a7.026,7.026,0,0,0-5.851-3.038,7.662,7.662,0,0,0-5.91,2.613,9.617,9.617,0,0,0-2.346,6.729,9.614,9.614,0,0,0,2.346,6.728,7.662,7.662,0,0,0,5.91,2.613,8.061,8.061,0,0,0,6.445-3.43l1.989,2.123a10.47,10.47,0,0,1-8.434,4.181Z"/><path d="M140.611,20.523V43.908h-2.732V20.523Z"/><path d="M142.958,35.906a8.956,8.956,0,0,1,2.109-6.108,6.873,6.873,0,0,1,5.375-2.417,6.787,6.787,0,0,1,5.346,2.417,8.883,8.883,0,0,1,2.139,6.108,8.805,8.805,0,0,1-2.139,6.108,6.787,6.787,0,0,1-5.346,2.417,6.873,6.873,0,0,1-5.375-2.417A8.953,8.953,0,0,1,142.958,35.906Zm2.733,0a6.215,6.215,0,0,0,1.365,4.181,4.383,4.383,0,0,0,6.772,0,6.221,6.221,0,0,0,1.366-4.181,6.17,6.17,0,0,0-1.366-4.148,4.327,4.327,0,0,0-6.772,0A6.165,6.165,0,0,0,145.691,35.906Z"/><path d="M173.043,43.908H170.43V41.687h-.12a5.493,5.493,0,0,1-8.715,1.062,7.141,7.141,0,0,1-1.441-4.785V27.9h2.733v9.864q.087,3.919,3.593,3.919a3.311,3.311,0,0,0,2.732-1.453,5.6,5.6,0,0,0,1.1-3.479V27.9h2.733Z"/><path d="M182.309,44.431a6.168,6.168,0,0,1-4.9-2.483,9.342,9.342,0,0,1-2.019-6.042,9.346,9.346,0,0,1,2.019-6.042,6.168,6.168,0,0,1,4.9-2.483,5.816,5.816,0,0,1,2.925.752,5.331,5.331,0,0,1,2.035,1.992h.118l-.118-2.221V20.523H190V43.908h-2.613V41.687h-.118a5.327,5.327,0,0,1-2.035,1.993A5.825,5.825,0,0,1,182.309,44.431Zm.445-2.744a4.027,4.027,0,0,0,3.3-1.6,6.307,6.307,0,0,0,1.336-4.181,6.334,6.334,0,0,0-1.336-4.148,4.054,4.054,0,0,0-3.3-1.633,4.106,4.106,0,0,0-3.3,1.633,6.335,6.335,0,0,0-1.337,4.148,6.255,6.255,0,0,0,1.337,4.148A4.1,4.1,0,0,0,182.754,41.687Z"/></svg>