<svg id="Layer_1" data-name="Layer 1" xmlns="http://www.w3.org/2000/svg" viewBox="0 0 170 60"><path d="M34.881,14.572c-1.257.1-1.3-.81-1.691-1.474a4.291,4.291,0,0,0-2.941-2.377A4.015,4.015,0,0,1,27.68,8.972H25.834a13.05,13.05,0,0,0-6.683,8.056c-.537,2.027-1.493,3.187-3.569,3.459-1.8.237-2.452,1.335-2.666,3.136q-1.268,10.747-2.847,21.453c-.23,1.568.068,2.051,1.655,2.336q10.413,1.88,20.763,4.065c1.39.291,1.147-.437,1.186-1.186q.373-7.132.748-14.262.516-10.01,1-20.019C35.445,15.486,35.811,14.5,34.881,14.572Zm-3.631.917c-1.717-.612-.159-2.255-1.121-3.171A2.542,2.542,0,0,1,32.29,14.89C32.325,15.431,31.574,15.606,31.25,15.489ZM18.374,40.233c1.221.354,2.569,1.316,3.528-.123.929-1.389-.2-2.39-1.2-3.291-3.171-2.873-3.8-4.859-2.562-8.03a8.3,8.3,0,0,1,7.891-4.933,3.087,3.087,0,0,1,.687.006c.923.224,2.494-.032,2.52,1.03.029,1.277-.758,2.6-1.338,3.839-.214.457-.855.1-1.267-.016a5.151,5.151,0,0,0-2.717-.2c-1.779.473-2.226,1.97-.933,3.266a25.747,25.747,0,0,0,2.17,1.687,6.838,6.838,0,0,1,1.069,9.789c-2.245,2.52-7.246,2.595-9.889.22-1.4-1.256-.376-2.52.074-3.55C17,38.569,17.723,40.046,18.374,40.233Zm6.744-23.092a6.759,6.759,0,0,1,3.265-4.7C29.964,16.723,29.028,16.59,25.118,17.141Zm2.669-6.307a9.539,9.539,0,0,0-4.22,6.2c-.431,1.733-2,1.344-3.078,1.947A8.11,8.11,0,0,1,27.787,10.834Z"/><path d="M156.79,25.074c-1.788-.272-2.566.521-3.113,2.138-1.053,3.129-2.293,6.2-3.651,9.792l-.136.36c-.013-.137-.029-.269-.042-.4-.337-3.142-.641-5.763-.887-8.39-.379-4.023.317-3.4-3.793-3.469a4.411,4.411,0,0,1-.46,0c-1.225-.139-1.364.428-1.154,1.5.849,4.282,1.458,8.613,2.469,12.853.644,2.7-.305,4.444-2.326,5.9-.677.489-1.493.794-2.164,1.289-1.688,1.244.12,2.391.214,3.58.091,1.159,1,.819,1.736.5a14.218,14.218,0,0,0,5.734-4.829c3.485-4.726,5.535-10.2,8.072-15.422.813-1.675,1.214-3.6,2.711-4.905v-.463A21.2,21.2,0,0,1,156.79,25.074Z"/><path d="M113.4,25.446c-1.166.5-1.9,1.507-2.863,2.171-.7-.736,1.075-2.475-.881-2.423-1.228.032-3.233-1.322-3.7,1.237-1.354,7.392-2.673,14.794-4.072,22.179-.263,1.383.068,1.707,1.458,1.613,4.292-.285,3.074.658,4.078-3.5a13.962,13.962,0,0,0,.437-2.255c.078-1.127.5-1.428,1.629-1.133a7.435,7.435,0,0,0,7.234-1.954A13.06,13.06,0,0,0,120.689,29C120.08,25.463,116.74,24.011,113.4,25.446ZM113,38.624a2.948,2.948,0,0,1-3.366.745c-1.464-.58-.511-1.688-.414-2.559a13.083,13.083,0,0,1,1.908-6.291c.716-1.017,1.687-1.924,3.08-1.432,1.3.46,1.364,1.7,1.455,2.912C115.36,34.416,114.852,36.784,113,38.624Z"/><path d="M79.819,24.957c-1.788.114-3.135,1.069-4.859,2.488.587-2.977,1.144-5.367,1.471-7.787.087-.651,1.16-2.187-.509-2.073-1.428.094-3.767-1.293-4.288,1.214-1.591,7.658-2.951,15.364-4.419,23.048-.129.664-.262,1.1.681,1.286,3.025.589,4.117-.052,4.69-2.977.279-1.429.492-2.873.8-4.3.428-1.94.729-3.948,2.044-5.555.69-.845,1.526-1.662,2.741-1.228,1.334.476,1.163,1.688.984,2.744C78.637,34.921,78,38,77.539,41.111c-.084.6-1.121,1.941.447,1.918,1.432-.023,3.751,1.117,4.224-.849,1.03-4.3,2.225-8.642,2.225-13.125C84.438,26.153,82.725,24.769,79.819,24.957Z"/><path d="M93.754,25.09c-4.836,1.254-8.1,6.009-7.945,11.564a6.68,6.68,0,0,0,7.783,6.734c5.329-.638,9.038-5.16,9.174-11.188C102.886,26.979,98.827,23.775,93.754,25.09Zm2.2,12.811a2.816,2.816,0,0,1-3.068,1.562c-1.477-.334-1.813-1.575-1.849-2.844a10.639,10.639,0,0,1,1.636-6.136c.741-1.163,1.765-2.057,3.249-1.639,1.542.434,1.694,1.8,1.749,3.282A12.7,12.7,0,0,1,95.957,37.9Z"/><path d="M142.058,26.172c.353-1.325-.732-1.121-1.409-1.046-2.154.239-1.824-.9-1.218-2.138a2.993,2.993,0,0,1,3.1-1.931c2.27.2,1.379-1.781,1.758-2.763.5-1.3-.8-1.2-1.545-1.3-4.016-.537-7.359,1.837-8.477,6.09-.307,1.179-.405,2.057-2.053,2.118-1.341.052-.885,1.688-1.2,2.618-.282.822.246,1.03.988,1.059,1.545.058.865,1.224.758,1.875-.551,3.327-1.076,6.664-1.876,9.932-.508,2.073-.084,2.857,2.135,2.355,2.115.709,2.7-.505,2.98-2.374.457-3.026,1.169-6.016,1.61-9.044.269-1.876.713-3.042,3.042-2.838C142.359,28.938,141.8,27.153,142.058,26.172Z"/><path d="M64.87,25.087a13.8,13.8,0,0,0-1.908-.2,19.047,19.047,0,0,0-2.436.262c-2.581.593-4.5,2.025-5.069,4.726-.544,2.569.968,4.182,2.912,5.507a13.11,13.11,0,0,1,1.493,1.066c.577.518,1.1,1.117.774,1.995a2,2,0,0,1-1.8,1.231A5.916,5.916,0,0,1,55.7,39.1c-1.807-.794-1.552.868-2,1.649-.534.933-.537,1.671.736,2.07a10.653,10.653,0,0,0,8.279-.357c3.887-1.963,4.289-6.52.885-9.225-.72-.57-1.533-1.017-2.274-1.558-.577-.421-1.089-.969-.856-1.736a1.739,1.739,0,0,1,1.763-1.228,5.519,5.519,0,0,1,2.053.136c2.378.936,2.031-1.189,2.384-2.209C67.228,25.045,65.722,25.3,64.87,25.087Z"/><path d="M125.191,25.139c-1.114.006-.965,1.043-1.095,1.72-.894,4.59-1.639,9.212-2.643,13.776-.453,2.067-.068,2.912,2.6,2.319.4-.311,1.937,1.011,2.291-.958.952-5.28,1.976-10.547,2.96-15.821.052-.278.075-.8-.022-.836A11.6,11.6,0,0,0,125.191,25.139Z"/><path d="M43.417,25.459l0-.009c-.292-2.274-.58-4.552-.878-6.825-.081-.593-.058-1.442-.878-1.371-2.18.185-3.874-.728-5.5-2.753-.159,3.476-.3,6.291-.411,9.1-.344,8.957-1.128,17.894-1.17,26.863-.149.745.088.94.859.765,3.427-.781,6.87-1.5,10.3-2.268.657-.146,1.315-.3,1.15-1.325C45.71,40.25,44.573,32.854,43.417,25.459Z"/><path d="M128.158,17.685a2.66,2.66,0,0,0-2.853,2.864,2.22,2.22,0,0,0,2.455,2.6c1.778-.075,2.688-1.212,2.786-3.078C130.419,18.68,129.733,17.669,128.158,17.685Z"/></svg>