<svg id="Layer_1" data-name="Layer 1" xmlns="http://www.w3.org/2000/svg" viewBox="0 0 200 60"><path id="text" d="M147.039,23V39.651c0,4.239,2.053,6.6,6.16,6.6q1.65,0,3.25-.145a17.076,17.076,0,0,0,2.717-.437V23h4.851V48.683a23.31,23.31,0,0,1-5.045,1.117,42.877,42.877,0,0,1-5.773.388,11.5,11.5,0,0,1-8.246-2.964q-2.814-2.719-2.814-8.252V23h4.9m-75.15,0V39.651c0,4.239,2.054,6.6,6.161,6.6q1.648,0,3.25-.145a17.042,17.042,0,0,0,2.716-.437V23h4.851V48.683A23.3,23.3,0,0,1,83.821,49.8a42.862,42.862,0,0,1-5.772.388A11.5,11.5,0,0,1,69.8,47.224Q66.99,44.5,66.989,38.972V23h4.9m55.258-8.591-4.374.793-.01,26.477c0,5.08,2.75,8.411,8.8,8.411a47.453,47.453,0,0,0,6.086-.7l-.577-3.428a28.433,28.433,0,0,1-5.9.412,4.381,4.381,0,0,1-4.061-3.486l.01-16.01H137.2V23H127.117l.029-8.587Zm-83.957-4.6-4.9.793V48.683a27.665,27.665,0,0,0,9.168,1.508c.554,0,1.09-.019,1.605-.059v-.009c9.562.046,14.511-7.536,13.231-16.334-1.006-6.206-6.156-11.447-12.184-11.447a16.189,16.189,0,0,0-5.724,1.165c-.434.164-.826.333-1.194.51V9.809Zm6.869,16.469c5.38.266,7.535,5,7.7,9.655.228,6.364-4.214,10.852-10.208,10.322a29.848,29.848,0,0,1-4.364-.529V28.207a7.731,7.731,0,0,1,2.163-1.3A11.875,11.875,0,0,1,50.058,26.278Zm50.305,23.227h-4.9V24.07a24.179,24.179,0,0,1,4.948-1.117,40.743,40.743,0,0,1,5.675-.388q10.866,0,10.866,10.824V49.505H112.1V32.71q0-6.213-6.015-6.213-1.6,0-3.1.145a22.761,22.761,0,0,0-2.62.389V49.505M14.9,23V39.651c0,4.239,2.054,6.6,6.161,6.6q1.65,0,3.25-.145a17.076,17.076,0,0,0,2.717-.437V23h4.85V48.683A23.287,23.287,0,0,1,26.833,49.8a42.877,42.877,0,0,1-5.773.388,11.5,11.5,0,0,1-8.246-2.964Q10,44.5,10,38.972V23h4.9"/><g id="logo"><path d="M179.67,12.312A10.331,10.331,0,1,0,190,22.642,10.331,10.331,0,0,0,179.67,12.312Zm2.316,3.559a1.379,1.379,0,1,1,.5,1.882A1.379,1.379,0,0,1,181.986,15.871Zm-9.341,8.152a1.379,1.379,0,1,1,1.377-1.381A1.379,1.379,0,0,1,172.645,24.023Zm1.221.122a1.935,1.935,0,0,0,0-3,5.992,5.992,0,0,1,2.479-3.484l1.008,1.69a4.027,4.027,0,0,0,0,6.59l-1.008,1.69A6,6,0,0,1,173.866,24.145Zm10,5.776a1.38,1.38,0,1,1,.5-1.885A1.379,1.379,0,0,1,183.871,29.921Zm0-3.006a1.938,1.938,0,0,0-2.6,1.5,6.015,6.015,0,0,1-4.257-.4l.961-1.715A4.032,4.032,0,0,0,183.68,23l1.966.029A5.979,5.979,0,0,1,183.868,26.915Zm-.188-4.629a4.027,4.027,0,0,0-4.01-3.672,3.982,3.982,0,0,0-1.7.375l-.961-1.715a5.969,5.969,0,0,1,4.257-.4,1.938,1.938,0,0,0,2.6,1.5,5.979,5.979,0,0,1,1.778,3.884Z"/></g></svg>