<svg id="Layer_1" data-name="Layer 1" xmlns="http://www.w3.org/2000/svg" viewBox="0 0 170 60"><path d="M20.847,30.784H31a8.192,8.192,0,0,1,.145.922,10.319,10.319,0,0,1,.057,1.082,13.761,13.761,0,0,1-.607,4.135,9.793,9.793,0,0,1-1.909,3.467A9.62,9.62,0,0,1,25.359,42.9a10.484,10.484,0,0,1-4.426.891,10.314,10.314,0,0,1-4.252-.891,10.536,10.536,0,0,1-3.47-2.481,11.991,11.991,0,0,1-2.343-3.77,13.461,13.461,0,0,1,0-9.511,12,12,0,0,1,2.343-3.769,10.55,10.55,0,0,1,3.47-2.481A10.314,10.314,0,0,1,20.933,20a9.942,9.942,0,0,1,7.9,3.595l-2.69,2.894a7.274,7.274,0,0,0-2.256-1.8,7.122,7.122,0,0,0-5.669-.063A6.709,6.709,0,0,0,15.987,26.2a7.586,7.586,0,0,0-1.518,2.465,9.522,9.522,0,0,0,0,6.457A7.446,7.446,0,0,0,16,37.591a6.862,6.862,0,0,0,2.241,1.575,6.731,6.731,0,0,0,2.719.556,6.666,6.666,0,0,0,2.792-.525,6.491,6.491,0,0,0,1.952-1.352,5.163,5.163,0,0,0,1-1.447,8.806,8.806,0,0,0,.651-1.956H20.847Z"/><path d="M40.544,27.189a7.268,7.268,0,0,1,3.023.62,7.164,7.164,0,0,1,2.372,1.718A7.957,7.957,0,0,1,47.5,32.151a10.172,10.172,0,0,1,0,6.68,7.941,7.941,0,0,1-1.562,2.625,7.133,7.133,0,0,1-2.372,1.717,7.666,7.666,0,0,1-6.045,0,7.123,7.123,0,0,1-2.372-1.717,7.941,7.941,0,0,1-1.562-2.625,10.172,10.172,0,0,1,0-6.68,7.957,7.957,0,0,1,1.562-2.624,7.154,7.154,0,0,1,2.372-1.718A7.263,7.263,0,0,1,40.544,27.189Zm0,12.756a3.426,3.426,0,0,0,1.4-.3,3.575,3.575,0,0,0,1.2-.875,4.185,4.185,0,0,0,.825-1.4,5.944,5.944,0,0,0,0-3.753,4.185,4.185,0,0,0-.825-1.4,3.575,3.575,0,0,0-1.2-.875,3.442,3.442,0,0,0-2.82,0,3.614,3.614,0,0,0-1.186.875,4.2,4.2,0,0,0-.824,1.4,5.944,5.944,0,0,0,0,3.753,4.2,4.2,0,0,0,.824,1.4,3.614,3.614,0,0,0,1.186.875A3.4,3.4,0,0,0,40.544,39.945Z"/><path d="M57.2,27.189a7.268,7.268,0,0,1,3.023.62A7.164,7.164,0,0,1,62.6,29.527a7.957,7.957,0,0,1,1.562,2.624,10.172,10.172,0,0,1,0,6.68A7.941,7.941,0,0,1,62.6,41.456a7.133,7.133,0,0,1-2.372,1.717,7.666,7.666,0,0,1-6.045,0,7.123,7.123,0,0,1-2.372-1.717,7.941,7.941,0,0,1-1.562-2.625,10.172,10.172,0,0,1,0-6.68,7.957,7.957,0,0,1,1.562-2.624,7.154,7.154,0,0,1,2.372-1.718A7.263,7.263,0,0,1,57.2,27.189Zm0,12.756a3.426,3.426,0,0,0,1.4-.3,3.575,3.575,0,0,0,1.2-.875,4.185,4.185,0,0,0,.825-1.4,5.944,5.944,0,0,0,0-3.753,4.185,4.185,0,0,0-.825-1.4,3.575,3.575,0,0,0-1.2-.875,3.442,3.442,0,0,0-2.82,0,3.614,3.614,0,0,0-1.186.875,4.217,4.217,0,0,0-.824,1.4,5.944,5.944,0,0,0,0,3.753,4.217,4.217,0,0,0,.824,1.4,3.614,3.614,0,0,0,1.186.875A3.4,3.4,0,0,0,57.2,39.945Z"/><path d="M73.691,50.665a7.746,7.746,0,0,1-2.675-.43,7.383,7.383,0,0,1-2.04-1.113,7.192,7.192,0,0,1-1.446-1.511,6.072,6.072,0,0,1-.838-1.654l3.615-1.591a3.757,3.757,0,0,0,1.331,1.925,3.371,3.371,0,0,0,2.053.684,3.462,3.462,0,0,0,2.835-1.28,5.43,5.43,0,0,0,1.041-3.523V41.09h-.232A4.765,4.765,0,0,1,75.586,42.7a5.287,5.287,0,0,1-2.56.589,5.726,5.726,0,0,1-2.473-.567A6.5,6.5,0,0,1,68.427,41.1a8.449,8.449,0,0,1-1.5-2.536,9.016,9.016,0,0,1-.578-3.307,9.137,9.137,0,0,1,.578-3.323,8.413,8.413,0,0,1,1.5-2.552,6.51,6.51,0,0,1,2.126-1.622,5.726,5.726,0,0,1,2.473-.567,5.287,5.287,0,0,1,2.56.589,4.773,4.773,0,0,1,1.749,1.606h.232V27.7h3.616V42.172a10.73,10.73,0,0,1-.55,3.546A7.811,7.811,0,0,1,79.1,48.39a6.633,6.633,0,0,1-2.357,1.686A7.687,7.687,0,0,1,73.691,50.665Zm.145-11.134a3.571,3.571,0,0,0,1.373-.28,3.5,3.5,0,0,0,1.2-.828,4.19,4.19,0,0,0,.839-1.343,4.9,4.9,0,0,0,.318-1.828,5.021,5.021,0,0,0-.318-1.842,4.141,4.141,0,0,0-.839-1.359,3.481,3.481,0,0,0-1.2-.827,3.574,3.574,0,0,0-1.373-.282,3.47,3.47,0,0,0-1.36.282,3.414,3.414,0,0,0-1.185.843,4.317,4.317,0,0,0-.839,1.359,5.391,5.391,0,0,0,0,3.654,4.139,4.139,0,0,0,.839,1.343,3.533,3.533,0,0,0,1.185.828A3.468,3.468,0,0,0,73.836,39.531Z"/><path d="M84.421,43.285V20.509h3.79V43.285Z"/><path d="M104.726,39.531a8.449,8.449,0,0,1-2.646,3.086,6.864,6.864,0,0,1-4.065,1.177,7.151,7.151,0,0,1-5.38-2.354,8.02,8.02,0,0,1-1.575-2.624,9.422,9.422,0,0,1-.565-3.325,9.286,9.286,0,0,1,.549-3.2,8.294,8.294,0,0,1,1.534-2.641,7.437,7.437,0,0,1,2.328-1.8,6.578,6.578,0,0,1,2.965-.668,7.111,7.111,0,0,1,3.036.62,6.243,6.243,0,0,1,2.228,1.718,7.628,7.628,0,0,1,1.36,2.592,10.951,10.951,0,0,1,.462,3.245v.382a2.388,2.388,0,0,0-.029.35,1.981,1.981,0,0,0-.029.35H94.227a4.652,4.652,0,0,0,.477,1.638,3.9,3.9,0,0,0,.9,1.145,3.394,3.394,0,0,0,1.172.668,4.175,4.175,0,0,0,1.3.207,3.445,3.445,0,0,0,2.155-.653,4.621,4.621,0,0,0,1.345-1.638Zm-3.442-6.044a2.888,2.888,0,0,0-.246-.922,3.254,3.254,0,0,0-.636-.954,3.317,3.317,0,0,0-1.042-.732,3.535,3.535,0,0,0-1.489-.286,3.263,3.263,0,0,0-2.14.763,4.074,4.074,0,0,0-1.3,2.131Z"/><path d="M115.428,43.285h-2.951l7.81-22.776H123.3l7.81,22.776h-2.951l-1.995-6.172h-8.706ZM121.733,24.1l-3.384,10.275h6.883L121.848,24.1Z"/><path d="M138.567,43.794a6.008,6.008,0,0,1-4.773-2.418,9.105,9.105,0,0,1-1.966-5.885,9.1,9.1,0,0,1,1.966-5.884,6.008,6.008,0,0,1,4.773-2.418,5.662,5.662,0,0,1,2.849.732,5.182,5.182,0,0,1,1.981,1.94h.116L143.4,27.7V20.509h2.661V43.285h-2.545V41.122H143.4a5.182,5.182,0,0,1-1.981,1.94A5.662,5.662,0,0,1,138.567,43.794ZM139,41.122a3.921,3.921,0,0,0,3.21-1.559,6.139,6.139,0,0,0,1.3-4.072,6.165,6.165,0,0,0-1.3-4.039A3.943,3.943,0,0,0,139,29.861a4,4,0,0,0-3.211,1.591,6.17,6.17,0,0,0-1.3,4.039,6.1,6.1,0,0,0,1.3,4.04A4,4,0,0,0,139,41.122Z"/><path d="M160,38.959a4.372,4.372,0,0,1-1.62,3.435,6.515,6.515,0,0,1-7.838.175,6.678,6.678,0,0,1-2.314-3.229l2.372-1.113a4.814,4.814,0,0,0,1.518,2.179,3.467,3.467,0,0,0,2.184.779,3.587,3.587,0,0,0,2.126-.6,1.739,1.739,0,0,0,.853-1.431q0-1.5-2.082-2.2l-2.43-.668q-4.137-1.146-4.137-4.39a4.193,4.193,0,0,1,1.577-3.419,6.669,6.669,0,0,1,7.433-.3,5.223,5.223,0,0,1,2.126,2.64L157.4,31.9a3.179,3.179,0,0,0-1.316-1.543,3.836,3.836,0,0,0-2.039-.557,3.191,3.191,0,0,0-1.866.573,1.671,1.671,0,0,0-.824,1.4q0,1.338,2.285,1.909l2.14.605Q160,35.427,160,38.959Z"/></svg>