<svg id="Layer_1" data-name="Layer 1" xmlns="http://www.w3.org/2000/svg" viewBox="0 0 240 60"><path d="M34.039,41.113A4.007,4.007,0,0,1,30.35,46.19a82.2,82.2,0,0,1-9.865-.126,11.106,11.106,0,0,1-7.619-4.075,12.3,12.3,0,0,1-2.815-6.2,3.7,3.7,0,0,1-.021-.615q0-4.384,0-8.768c0-2.821.074-5.642-.028-8.459a4.239,4.239,0,0,1,3.159-3.9,4.073,4.073,0,0,1,5,3.963c.024,1.688.03,3.375-.008,5.063-.014.577.109.76.728.755,3.519-.029,7.039-.01,10.558,0a3.723,3.723,0,0,1,3.833,3.743,3.684,3.684,0,0,1-3.792,3.772q-5.341.041-10.682.006c-.554,0-.711.142-.66.693.078.838.065,1.683.1,2.524a3.819,3.819,0,0,0,4.041,3.562c2.655,0,5.31-.017,7.965.015A3.913,3.913,0,0,1,34.039,41.113Z"/><path d="M73.124,27.044c.041,2.737.079,5.478-.006,8.214-.2,6.467-4.751,10.035-9.849,10.914a10.612,10.612,0,0,1-8.511-2.419c-.364-.281-.565-.3-.928,0a11.3,11.3,0,0,1-14.133,0,10.938,10.938,0,0,1-4.121-7.467c-.192-1.683-.052-3.372-.095-4.393,0-2-.005-3.341,0-4.679a3.821,3.821,0,1,1,7.64-.024c.015,2.574,0,5.147.005,7.722A3.677,3.677,0,0,0,46.4,38.626,3.717,3.717,0,0,0,50.351,35.8a6.757,6.757,0,0,0,.1-1.537c.035-2.448-.067-4.9.059-7.347a3.7,3.7,0,0,1,3.754-3.63,3.648,3.648,0,0,1,3.826,3.54c.173,2.672.034,5.351.073,8.025a3.663,3.663,0,1,0,7.323.086c.02-2.595.008-5.189.02-7.784a3.857,3.857,0,0,1,2.279-3.588A3.817,3.817,0,0,1,73.124,27.044Z"/><path d="M75.9,17.16a3.893,3.893,0,0,1,4.058-4.038,4.006,4.006,0,0,1,4.074,3.992,4.06,4.06,0,0,1-4.116,4.09A3.982,3.982,0,0,1,75.9,17.16Z"/><path d="M84.034,34.738h-.015c0,2.49,0,4.98,0,7.47a4.065,4.065,0,0,1-7.943,1.179,5.6,5.6,0,0,1-.2-1.647q0-7.193-.011-14.385a4.1,4.1,0,0,1,4.022-4.071,3.96,3.96,0,0,1,4.129,4.043c0,1.236.012,2.471.014,3.7S84.034,33.5,84.034,34.738Z"/><path d="M106.538,41.512a3.893,3.893,0,0,1-3.413,4.631,22.674,22.674,0,0,1-7-.21,12.09,12.09,0,0,1-9.146-9.6,29.09,29.09,0,0,1-.207-4.494q0-2.838,0-5.68,0-3.829,0-7.658a4.273,4.273,0,0,1,1.284-3.465,3.942,3.942,0,0,1,4.3-.786A3.741,3.741,0,0,1,94.884,17.8c.049,1.789.036,3.581.01,5.371-.008.5.109.669.639.66,2.078-.031,4.158-.027,6.236-.006a3.765,3.765,0,0,1,.324,7.523c-2.077.053-4.157.017-6.237.022-.994,0-.83-.067-.841.8-.009.761-.028,1.523-.009,2.283a3.694,3.694,0,0,0,3.2,3.58,36.289,36.289,0,0,0,4.375.1A4.018,4.018,0,0,1,106.538,41.512Z"/><path d="M127.577,41.132a4.184,4.184,0,0,1-1.711,4.489,3.329,3.329,0,0,1-1.5.525,24.639,24.639,0,0,1-6.881-.179,11.849,11.849,0,0,1-8.525-6.819,13.65,13.65,0,0,1-1.077-6.2c0-4.817.021-9.635.016-14.452a4.127,4.127,0,0,1,1.809-3.884,4.017,4.017,0,0,1,4.222-.151,3.777,3.777,0,0,1,2.094,3.459q.038,2.657,0,5.312c-.006.465.136.591.6.588q3.211-.029,6.423.008a3.757,3.757,0,0,1,0,7.514c-1.05.018-2.1,0-3.149,0v.015c-1.092,0-2.183.013-3.274-.008-.373-.007-.509.105-.5.488.025.86-.059,1.718-.037,2.585a3.875,3.875,0,0,0,3.943,3.7c1.315.035,2.636-.021,3.952.029A3.991,3.991,0,0,1,127.577,41.132Z"/><path d="M137.453,37q5.8-.039,11.606-.074c.371,0,.742,0,1.112-.02a2.807,2.807,0,0,0,2.64-1.875,6.729,6.729,0,0,0,.084-2.938,10.245,10.245,0,0,0-6.5-7.785,16.15,16.15,0,0,0-7.93-.94,11.086,11.086,0,0,0-4.081,1.073c-4.95,2.466-6.552,7.4-5.688,12.425a10.773,10.773,0,0,0,3.977,6.619A11.689,11.689,0,0,0,139.6,46.2c1.565.084,3.128.026,4.691.069,1.6-.037,3.209.042,4.814-.074a3.229,3.229,0,0,0,3.091-3.222,3.184,3.184,0,0,0-3.02-3.223c-2.528-.051-5.057-.068-7.584-.109a8.427,8.427,0,0,1-3.516-.781,1.9,1.9,0,0,1-1.115-1.163C136.788,37.12,136.86,37,137.453,37Zm-.419-5.866a1.9,1.9,0,0,1,1.031-1.24,5.84,5.84,0,0,1,5.709.006,1.888,1.888,0,0,1,1.027,1.312c.073.339.018.53-.415.52-1.171-.027-2.342-.008-3.513-.008-1.131,0-2.261-.023-3.39.01C136.975,31.745,136.938,31.506,137.034,31.131Z"/><path d="M171.994,31.351c-.906.024-1.811.005-2.786.005-1.1.069-2.274-.085-3.443.095a3.474,3.474,0,0,0-2.948,3.041,26.961,26.961,0,0,0-.015,3.387c-.013,1.584-.031,3.168-.079,4.752a3.772,3.772,0,0,1-7.537-.064c-.019-1.255.042-2.513-.015-3.767a32.16,32.16,0,0,1,.257-5.829,11,11,0,0,1,8.537-8.916,28.362,28.362,0,0,1,5.352-.231,16.34,16.34,0,0,1,3.324.093,3.727,3.727,0,0,1,3.051,4.2A3.767,3.767,0,0,1,171.994,31.351Z"/><path d="M230,27.994a2.278,2.278,0,0,1-.8.872,8.588,8.588,0,0,1-4.917,1.728c-.968.063-1.229.266-1.517,1.212a21.67,21.67,0,0,1-5.993,9.62,30.566,30.566,0,0,1-15.008,7.8,31.31,31.31,0,0,1-19.259-1.688A26.992,26.992,0,0,1,171.463,38.9a1.991,1.991,0,0,1-.13-.288,15.794,15.794,0,0,0,21.219-.771,6.668,6.668,0,0,0-1.355-.305,3.747,3.747,0,0,1-1.833-.811,2.069,2.069,0,0,1-.055-3.109,11.245,11.245,0,0,1,1.324-.994,11.588,11.588,0,0,1-2.768-.265,6.5,6.5,0,0,1-3.8-2.762c-.406-.606-.321-.9.346-1.2.807-.356,1.622-.692,2.481-1.056-.892-.486-1.742-.968-2.609-1.416a5.6,5.6,0,0,1-3.043-4.035c-.075-.358-.079-.539.384-.585.873-.085,1.738-.261,2.725-.418-.689-.555-1.382-.97-1.98-1.508a7.259,7.259,0,0,1-2.627-5.181c-.033-.691-.033-.689.6-.467,2.986,1.057,5.816,2.476,8.7,3.756,1.69.748,3.357,1.548,5.05,2.285a16.414,16.414,0,0,1,4.71,3.43c.451.434.581.329.81-.175,1.154-2.521,2.282-5.056,3.614-7.491a16.75,16.75,0,0,1,4.739-5.526c.195-.145.4-.273.609-.413.255.294-.176.563.057.857.928-.387,1.868-.784,2.812-1.174a2.644,2.644,0,0,1,.523-.171.461.461,0,0,1,.352.048c.134.135-.037.258-.1.371-.181.319-.38.627-.635,1.046.594-.145,1.082-.247,1.56-.386a4.012,4.012,0,0,1,1.222-.119c.324.007.645.075.725.441a.747.747,0,0,1-.4.829,8.637,8.637,0,0,1-2.035.865,10.14,10.14,0,0,0-1.738.561,22.717,22.717,0,0,1,3.656.866,13.338,13.338,0,0,1,8.059,9.341c.357,1.279.577,1.431,1.886,1.478a12.873,12.873,0,0,0,5.413-1.031c-1.236,2.5-3.378,3.39-5.8,3.88a6.876,6.876,0,0,0,2.845.688C227.968,28.028,228.955,27.994,230,27.994Z"/><path d="M230,27.994a2.278,2.278,0,0,1-.8.872,8.588,8.588,0,0,1-4.917,1.728c-.968.063-1.229.266-1.517,1.212a21.67,21.67,0,0,1-5.993,9.62,30.566,30.566,0,0,1-15.008,7.8,31.31,31.31,0,0,1-19.259-1.688A26.992,26.992,0,0,1,171.463,38.9a1.991,1.991,0,0,1-.13-.288,15.794,15.794,0,0,0,21.219-.771,6.668,6.668,0,0,0-1.355-.305,3.747,3.747,0,0,1-1.833-.811,2.069,2.069,0,0,1-.055-3.109,11.245,11.245,0,0,1,1.324-.994,11.588,11.588,0,0,1-2.768-.265,6.5,6.5,0,0,1-3.8-2.762c-.406-.606-.321-.9.346-1.2.807-.356,1.622-.692,2.481-1.056-.892-.486-1.742-.968-2.609-1.416a5.6,5.6,0,0,1-3.043-4.035c-.075-.358-.079-.539.384-.585.873-.085,1.738-.261,2.725-.418-.689-.555-1.382-.97-1.98-1.508a7.259,7.259,0,0,1-2.627-5.181c-.033-.691-.033-.689.6-.467,2.986,1.057,5.816,2.476,8.7,3.756,1.69.748,3.357,1.548,5.05,2.285a16.414,16.414,0,0,1,4.71,3.43c.451.434.581.329.81-.175,1.154-2.521,2.282-5.056,3.614-7.491a16.75,16.75,0,0,1,4.739-5.526c.195-.145.4-.273.609-.413.255.294-.176.563.057.857.928-.387,1.868-.784,2.812-1.174a2.644,2.644,0,0,1,.523-.171.461.461,0,0,1,.352.048c.134.135-.037.258-.1.371-.181.319-.38.627-.635,1.046.594-.145,1.082-.247,1.56-.386a4.012,4.012,0,0,1,1.222-.119c.324.007.645.075.725.441a.747.747,0,0,1-.4.829,8.637,8.637,0,0,1-2.035.865,10.14,10.14,0,0,0-1.738.561,22.717,22.717,0,0,1,3.656.866,13.338,13.338,0,0,1,8.059,9.341c.357,1.279.577,1.431,1.886,1.478a12.873,12.873,0,0,0,5.413-1.031c-1.236,2.5-3.378,3.39-5.8,3.88a6.876,6.876,0,0,0,2.845.688C227.968,28.028,228.955,27.994,230,27.994Z"/><path d="M73.118,35.258c-.2,6.467-4.751,10.035-9.849,10.914a10.612,10.612,0,0,1-8.511-2.419c-.364-.281-.565-.3-.928,0a11.3,11.3,0,0,1-14.133,0,10.938,10.938,0,0,1-4.121-7.467c-.192-1.683-.052-3.372-.095-4.393,0-2-.005-3.341,0-4.679a3.821,3.821,0,1,1,7.64-.024c.015,2.574,0,5.147.005,7.722A3.677,3.677,0,0,0,46.4,38.626,3.717,3.717,0,0,0,50.351,35.8a6.757,6.757,0,0,0,.1-1.537c.035-2.448-.067-4.9.059-7.347a3.7,3.7,0,0,1,3.754-3.63,3.648,3.648,0,0,1,3.826,3.54c.173,2.672.034,5.351.073,8.025a3.663,3.663,0,1,0,7.323.086c.02-2.595.008-5.189.02-7.784a3.857,3.857,0,0,1,2.279-3.588,3.817,3.817,0,0,1,5.341,3.479C73.165,29.781,73.2,32.522,73.118,35.258Z"/><path d="M30.35,46.19a82.2,82.2,0,0,1-9.865-.126,11.106,11.106,0,0,1-7.619-4.075,12.3,12.3,0,0,1-2.815-6.2,3.7,3.7,0,0,1-.021-.615q0-4.384,0-8.768c0-2.821.074-5.642-.028-8.459a4.239,4.239,0,0,1,3.159-3.9,4.073,4.073,0,0,1,5,3.963c.024,1.688.03,3.375-.008,5.063-.014.577.109.76.728.755,3.519-.029,7.039-.01,10.558,0a3.723,3.723,0,0,1,3.833,3.743,3.684,3.684,0,0,1-3.792,3.772q-5.341.041-10.682.006c-.554,0-.711.142-.66.693.078.838.065,1.683.1,2.524a3.819,3.819,0,0,0,4.041,3.562c2.655,0,5.31-.017,7.965.015a3.913,3.913,0,0,1,3.791,2.968A4.007,4.007,0,0,1,30.35,46.19Z"/><path d="M137.453,37q5.8-.039,11.606-.074c.371,0,.742,0,1.112-.02a2.807,2.807,0,0,0,2.64-1.875,6.729,6.729,0,0,0,.084-2.938,10.245,10.245,0,0,0-6.5-7.785,16.15,16.15,0,0,0-7.93-.94,11.086,11.086,0,0,0-4.081,1.073c-4.95,2.466-6.552,7.4-5.688,12.425a10.773,10.773,0,0,0,3.977,6.619A11.689,11.689,0,0,0,139.6,46.2c1.565.084,3.128.026,4.691.069,1.6-.037,3.209.042,4.814-.074a3.229,3.229,0,0,0,3.091-3.222,3.184,3.184,0,0,0-3.02-3.223c-2.528-.051-5.057-.068-7.584-.109a8.427,8.427,0,0,1-3.516-.781,1.9,1.9,0,0,1-1.115-1.163C136.788,37.12,136.86,37,137.453,37Zm-.419-5.866a1.9,1.9,0,0,1,1.031-1.24,5.84,5.84,0,0,1,5.709.006,1.888,1.888,0,0,1,1.027,1.312c.073.339.018.53-.415.52-1.171-.027-2.342-.008-3.513-.008-1.131,0-2.261-.023-3.39.01C136.975,31.745,136.938,31.506,137.034,31.131Z"/><path d="M103.125,46.143a22.674,22.674,0,0,1-7-.21,12.09,12.09,0,0,1-9.146-9.6,29.09,29.09,0,0,1-.207-4.494q0-2.838,0-5.68,0-3.829,0-7.658a4.273,4.273,0,0,1,1.284-3.465,3.942,3.942,0,0,1,4.3-.786A3.741,3.741,0,0,1,94.884,17.8c.049,1.789.036,3.581.01,5.371-.008.5.109.669.639.66,2.078-.031,4.158-.027,6.236-.006a3.765,3.765,0,0,1,.324,7.523c-2.077.053-4.157.017-6.237.022-.994,0-.83-.067-.841.8-.009.761-.028,1.523-.009,2.283a3.694,3.694,0,0,0,3.2,3.58,36.289,36.289,0,0,0,4.375.1,4.018,4.018,0,0,1,3.958,3.382A3.893,3.893,0,0,1,103.125,46.143Z"/><path d="M125.866,45.621a3.329,3.329,0,0,1-1.5.525,24.639,24.639,0,0,1-6.881-.179,11.849,11.849,0,0,1-8.525-6.819,13.65,13.65,0,0,1-1.077-6.2c0-4.817.021-9.635.016-14.452a4.127,4.127,0,0,1,1.809-3.884,4.017,4.017,0,0,1,4.222-.151,3.777,3.777,0,0,1,2.094,3.459q.038,2.657,0,5.312c-.006.465.136.591.6.588q3.211-.029,6.423.008a3.757,3.757,0,0,1,0,7.514c-1.05.018-2.1,0-3.149,0v.015c-1.092,0-2.183.013-3.274-.008-.373-.007-.509.105-.5.488.025.86-.059,1.718-.037,2.585a3.875,3.875,0,0,0,3.943,3.7c1.315.035,2.636-.021,3.952.029a3.991,3.991,0,0,1,3.6,2.978A4.184,4.184,0,0,1,125.866,45.621Z"/><path d="M175.692,28.113a3.767,3.767,0,0,1-3.7,3.238c-.906.024-1.811.005-2.786.005-1.1.069-2.274-.085-3.443.095a3.474,3.474,0,0,0-2.948,3.041,26.961,26.961,0,0,0-.015,3.387c-.013,1.584-.031,3.168-.079,4.752a3.772,3.772,0,0,1-7.537-.064c-.019-1.255.042-2.513-.015-3.767a32.16,32.16,0,0,1,.257-5.829,11,11,0,0,1,8.537-8.916,28.362,28.362,0,0,1,5.352-.231,16.34,16.34,0,0,1,3.324.093A3.727,3.727,0,0,1,175.692,28.113Z"/><path d="M84.019,34.738c0,2.49,0,4.98,0,7.47a4.065,4.065,0,0,1-7.943,1.179,5.6,5.6,0,0,1-.2-1.647q0-7.193-.011-14.385a4.1,4.1,0,0,1,4.022-4.071,3.96,3.96,0,0,1,4.129,4.043c0,1.236.012,2.471.014,3.7s0,2.47,0,3.706Z"/><path d="M84.029,17.114a4.06,4.06,0,0,1-4.116,4.09A3.982,3.982,0,0,1,75.9,17.16a3.893,3.893,0,0,1,4.058-4.038A4.006,4.006,0,0,1,84.029,17.114Z"/></svg>