<svg id="Layer_1" data-name="Layer 1" xmlns="http://www.w3.org/2000/svg" viewBox="0 0 250 60"><path d="M38.054,17.2a6.681,6.681,0,0,0-4-5.99A12.458,12.458,0,0,0,28.6,10.032c-3.98-.042-7.961-.014-11.942-.013a1.677,1.677,0,0,0-1.913,1.625q-.97,6.021-1.919,12.047Q11.509,32.036,10.2,40.382c-.022.14-.006.3-.2.324v.869a1.509,1.509,0,0,0,1.4.66c1.64-.032,3.281-.007,4.922-.012,1.18,0,1.682-.411,1.87-1.558.4-2.446.778-4.895,1.17-7.342.224-1.4.763-1.832,2.183-1.861a52.618,52.618,0,0,0,5.848-.147,11.172,11.172,0,0,0,7.551-3.79A14.467,14.467,0,0,0,38.054,17.2ZM26.305,24.717a10.268,10.268,0,0,1-2.132.327c-.48.033-.964.006-1.446.006v.018H21.714c-1.075,0-1.061,0-.894-1.028.347-2.136.691-4.272,1.006-6.412.1-.687.405-1.184,1.115-1.187a17.583,17.583,0,0,1,4.236.28A2.642,2.642,0,0,1,29.4,19.3C29.526,21.666,28.777,24.009,26.305,24.717Z"/><path d="M239.6,21.818a11.272,11.272,0,0,0-7.591-1.372,8.169,8.169,0,0,0-6.922,7.333c-.376,2.5.482,4,2.844,4.937.536.213,1.09.38,1.637.564a13.4,13.4,0,0,1,2.3.829,1.853,1.853,0,0,1,.331,3.259,3.423,3.423,0,0,1-2.054.789,6.113,6.113,0,0,1-4.35-1.637c-.4-.331-.681-.355-.993.122-.687,1.048-1.393,2.086-2.134,3.1-.373.509-.237.774.245,1.092a11.406,11.406,0,0,0,7.719,1.813,9.264,9.264,0,0,0,5.892-2.752,9.326,9.326,0,0,0,2.265-5.277,4,4,0,0,0-1.086-3.578,7.6,7.6,0,0,0-3.37-1.863,11.414,11.414,0,0,1-2.623-1,1.5,1.5,0,0,1-.06-2.7,4.277,4.277,0,0,1,4.875.221c.51.367.727.248,1.015-.2.681-1.047,1.389-2.078,2.08-3.118.095-.143.113-.392.377-.2v-.289C239.82,22.134,239.722,21.884,239.6,21.818Z"/><path d="M120.892,17.114a6.68,6.68,0,0,0-1.653-4.15,9.19,9.19,0,0,0-6.091-2.8c-2.523-.322-5.062-.061-7.146-.147H99.546a1.709,1.709,0,0,0-1.983,1.64q-.668,4.173-1.32,8.347-1.63,10.38-3.258,20.76c-.171,1.085.136,1.461,1.258,1.465q2.607.007,5.213,0c1,0,1.374-.3,1.531-1.26.375-2.3.728-4.611,1.09-6.917.045-.286.094-.571.145-.856a1.789,1.789,0,0,1,2.074-1.732c2.525-.041,5.061.168,7.558-.442a10.574,10.574,0,0,0,6.668-4.476A15.158,15.158,0,0,0,120.892,17.114ZM109.13,24.72a10.413,10.413,0,0,1-2.2.327c-.456.031-.915.006-1.373.006-.644-.038-1.479.291-1.882-.108s.051-1.174.136-1.78c.269-1.926.6-3.845.9-5.767a1,1,0,0,1,1.012-.948,17.319,17.319,0,0,1,4.371.3,2.622,2.622,0,0,1,2.147,2.568C112.36,21.8,111.544,24.022,109.13,24.72Z"/><path d="M62.529,20.747c-1.737-.022-3.475-.011-5.212,0a1.081,1.081,0,0,0-1.167,1.04,3.32,3.32,0,0,1-.3,1.19,5.3,5.3,0,0,0-2.981-2.209A12.81,12.81,0,0,0,36.46,34.482a8.514,8.514,0,0,0,3.546,6.674c2.793,1.936,5.893,1.968,9.057,1.055a12.38,12.38,0,0,0,4.109-2.36,2.162,2.162,0,0,1-.028.976c-.173.914.2,1.386,1.133,1.393q2.352.018,4.7,0a1.548,1.548,0,0,0,1.667-1.455c.113-.664.208-1.331.313-2q1.324-8.341,2.648-16.682A1.032,1.032,0,0,0,62.529,20.747ZM54.7,32.629a6.277,6.277,0,0,1-7.635,4.041A3.96,3.96,0,0,1,43.989,33,6.338,6.338,0,0,1,50.326,26.1C53.907,26.108,55.893,29.075,54.7,32.629Z"/><path d="M145.317,20.745q-2.568-.024-5.137,0a1.1,1.1,0,0,0-1.209,1.077,3.422,3.422,0,0,1-.273,1.142,5.358,5.358,0,0,0-2.981-2.2,12.887,12.887,0,0,0-7.124-.072,13.172,13.172,0,0,0-9.349,13.051,9.158,9.158,0,0,0,2.965,6.9c2.534,2.233,5.558,2.417,8.7,1.834a12.517,12.517,0,0,0,5.043-2.545c.024.025.049.049.074.073a5.863,5.863,0,0,1-.031.715c-.171,1.076.168,1.505,1.233,1.51,1.52.007,3.039.016,4.559,0a1.61,1.61,0,0,0,1.7-1.516q.774-4.913,1.558-9.826.7-4.415,1.378-8.831A1.017,1.017,0,0,0,145.317,20.745Zm-7.476,10.167a6.08,6.08,0,0,1-6.076,5.969c-2.7.157-4.967-1.255-4.936-4.44a6.234,6.234,0,0,1,8.155-6.031A4.076,4.076,0,0,1,137.841,30.912Z"/><path d="M93.152,21.27a1.157,1.157,0,0,0-1.177-.532c-1.593.006-3.186.027-4.777-.008a2.208,2.208,0,0,0-2.052,1.077q-3.195,4.778-6.449,9.515a4.975,4.975,0,0,1-1.027,1.341c-.091-.266-.175-.486-.243-.711q-1.451-4.841-2.9-9.681a1.834,1.834,0,0,0-2.052-1.53c-1.616,0-3.233-.012-4.849,0-1,.009-1.4.58-1.081,1.508q2.916,8.577,5.846,17.15a1.266,1.266,0,0,1-.2,1.31c-1.752,2.42-3.471,4.865-5.2,7.305-.575.814-.44,1.308.442,1.688l-.081.121h6.228l-.112-.134a1.864,1.864,0,0,0,1.282-.97q2.087-3,4.171-5.99,7-10.1,14-20.195A1.144,1.144,0,0,0,93.152,21.27Z"/><path d="M222.665,20.861c-1.231,0-2.461.011-3.691,0a.9.9,0,0,0-1.008.887c-.575,3.732-1.143,7.464-1.751,11.19a7.38,7.38,0,0,1-1.5,3.779,4.4,4.4,0,0,1-4.656,1.043c-1.26-.5-1.857-1.743-1.717-3.57,0-.047.013-.095.02-.143q.941-6.165,1.886-12.33c.115-.742.069-.838-.7-.85-.6-.009-1.206,0-1.809,0-.555,0-1.11,0-1.665,0-1.031,0-1.141.117-1.3,1.12-.4,2.613-.845,5.221-1.234,7.837a41.09,41.09,0,0,0-.8,6.653,5.742,5.742,0,0,0,4.437,5.769,13.709,13.709,0,0,0,6.431.218,9.114,9.114,0,0,0,7.73-7.9c.275-1.514.506-3.036.747-4.555.441-2.778.861-5.56,1.321-8.334C223.514,21.014,223.223,20.858,222.665,20.861Z"/><path d="M158.245,10.022c-.821-.012-1.642,0-2.462,0-.8,0-1.593,0-2.39,0-.91,0-1.213.239-1.359,1.14-.361,2.233-.7,4.469-1.052,6.7q-1.2,7.632-2.4,15.265c-.4,2.543-.816,5.084-1.209,7.629-.168,1.089.176,1.47,1.277,1.474,1.062,0,2.124,0,3.186,0,2.47,0,2.589-.071,2.984-2.474.732-4.46,1.431-8.926,2.139-13.391q1.192-7.518,2.376-15.037A1.018,1.018,0,0,0,158.245,10.022Z"/><path d="M182.522,20.937c-1.659-.165-3.327-.043-4.717-.075-1.6,0-2.928.014-4.255-.006-.658-.01-1.011.208-1.115.918-.368,2.522-.79,5.037-1.191,7.555q-.965,6.057-1.932,12.115c-.079.492.087.731.6.722,1.278-.02,2.557-.051,3.834-.03.679.012.939-.309,1.031-.929.25-1.689.538-3.371.792-5.058.123-.816.437-1.127,1.293-1.14,1.013-.016,2.027,0,3.04-.011a9.11,9.11,0,0,0,3.365-.724c3.7-1.513,5.04-6.289,4.334-9.581C187.083,22.259,184.931,21.178,182.522,20.937Zm-3.634,9.706c-.36.006-.719.047-1.078.071v-.02h-.072c-1.286,0-1.27,0-1.056-1.295.184-1.113.335-2.23.485-3.348a.9.9,0,0,1,1.059-.9,8.516,8.516,0,0,1,2.634.294A1.6,1.6,0,0,1,182.042,27C182.127,28.819,181.488,30.6,178.888,30.643Z"/><path d="M199.783,37.57c-1.737.026-3.475,0-5.212.016-.473.005-.645-.125-.563-.628q.865-5.338,1.7-10.684c.25-1.59.478-3.184.738-4.773.082-.5-.127-.646-.585-.642q-1.917.015-3.836,0c-.64-.006-.923.254-1.026.921-1,6.466-2.027,12.926-3.049,19.388-.14.886-.059.992.867,1,1.665.007,3.33,0,5,0s3.33-.016,5,.007c.718.011,1.137-.241,1.235-.992.125-.953.284-1.9.448-2.85C200.587,37.747,200.358,37.562,199.783,37.57Z"/></svg>