<svg id="Layer_1" data-name="Layer 1" xmlns="http://www.w3.org/2000/svg" viewBox="0 0 210 60"><path d="M17.349,19.372c.757-.912,1.728-1.639,2.5-2.529.345-.2.565.223.787.422,2.8,2.926,5.742,5.709,8.55,8.631.62.608,1.055,1.02,1.988.856.789.136.633-1.628.231-1.9-3.136-3.106-6.229-6.256-9.381-9.345-1.051-.73,2-2.35,2.314-3.223-2.368-.148-4.778-.033-7.162-.045-.042,2.316,0,4.627-.016,6.943C17.108,19.311,17.274,19.39,17.349,19.372Z"/><path d="M46.322,13.093c.656.57,1.187,1.254,1.861,1.808.223.339-.241.578-.438.8q-3.31,3.206-6.512,6.515c-.757.625-1.354,1.4-2.109,2.026-.259.475-.918.7-.871,1.294-.084,1.222.111,1.266,1.285,1.224.43.062.59-.31.852-.5.7-.723,1.413-1.476,2.173-2.156,2.322-2.461,4.789-4.793,7.175-7.213.7-.3,2.253,2.212,2.978,2.512.2-2.309.037-4.795.056-7.16H45.643L45.6,12.3C45.851,12.549,46.069,12.838,46.322,13.093Z"/><path d="M23.922,47.316c-1.631-2.123-3.323-1.716-.882-3.771,2.669-2.516,5.17-5.195,7.8-7.745.638-.639,1-.99.847-1.96.148-.773-1.619-.631-1.888-.249-3.142,3.245-6.428,6.35-9.578,9.612-.9.25-2.153-2.3-3.063-2.506.208.977-.478,7.455.38,7.162,2.256-.065,4.571.128,6.8-.072A2,2,0,0,0,23.922,47.316Z"/><path d="M52.07,41.3c-.928.481-1.866,2.99-2.812,1.387q-3.864-3.759-7.611-7.612c-.738-.491-1.209-1.462-2.028-1.753-.482.03-1.472-.189-1.362.577.04.5-.168,1.046.417,1.418.86.846,1.686,1.785,2.6,2.584,2.242,2.359,4.6,4.676,6.923,6.939.1.832-2.628,2.347-2.473,3.012,2.331.007,4.7.031,7.045-.011V40.658C52.446,40.777,52.321,41.085,52.07,41.3Z"/><path d="M54.966,25.07v3.886H40.438c-.277.519-1.428.962-.585,1.518.373.206.487.765.995.669q7.065,0,14.129,0a30.689,30.689,0,0,0,.087,3.888c1.7-1.535,3.21-3.275,4.9-4.848v-.267l-4.9-4.895Z"/><path d="M39.891,50.06c-1.267-.056-2.541.025-3.816-.034V35.593l-.987-.986c-.1.006-.266-.085-.367.178a3.431,3.431,0,0,1-.844.763v14.5a30.024,30.024,0,0,0-3.883.089c1.446,1.558,3.06,3.061,4.549,4.612.807.885,1.443-.993,2.165-1.287.963-1.048,1.993-2.017,3.016-3.007C39.832,50.361,40.043,50.2,39.891,50.06Z"/><path d="M29.384,31.134c.434-.168.658-.651,1.02-.988a.321.321,0,0,0-.19-.383,4.629,4.629,0,0,1-.745-.813H14.994c-.067-1.274.025-2.548-.04-3.816a.19.19,0,0,0-.165-.051c-1.6,1.593-3.169,3.193-4.758,4.767-.157.463.327.616.58.89,1.317,1.514,2.88,2.783,4.195,4.277.47-1-.01-2.657.189-3.875C19.793,31.135,24.587,31.155,29.384,31.134Z"/><path d="M33.894,24.541c.54.336,1.032,1.521,1.552.527.221-.281.7-.384.632-.829q-.006-7.1,0-14.2c6.351.121,3.7.323-.532-4.556-.261-.135-.45-.632-.737-.4-1.536,1.665-3.489,3.2-4.817,4.961h3.9Z"/><path d="M25.162,15.5c1.8,1.915,3.748,3.679,5.531,5.606.388.19.574.743.984.663.031-3.054,0-6.106.011-9.16,0-.369-.014-.384-.4-.384-1.706.122-3.705-.541-4.788,1.143C26.26,14.06,24.108,15.047,25.162,15.5Z"/><path d="M17.159,26.353c0,.386.014.4.391.4,3.057-.011,6.11.024,9.167-.013l-.023-.348-.053.028c-2.194-2.1-4.4-4.691-6.649-6.516C17.03,22.914,17.008,21.93,17.159,26.353Z"/><path d="M52.172,22.176c-.432-.271-2.317-2.813-2.466-2.131-1.917,1.826-3.781,3.72-5.61,5.6-.273.358-.962.546-.817,1.09,3.076.036,6.156,0,9.234.018.261,0,.278-.145.278-.328C52.553,25.057,53.412,23.081,52.172,22.176Z"/><path d="M31.688,47.45c0-3.053,0-6.094,0-9.148-.419-.061-.562.243-.809.5-.658.735-1.393,1.384-2.059,2.115-1.313,1.33-2.874,2.7-4.014,4.082,1.049.906,1.883,2.221,3.089,2.873C28.58,47.667,31.921,48.3,31.688,47.45Z"/><path d="M38.257,12.635c.1,3.015-.207,6.2.111,9.135,1.07-.6,1.918-1.85,2.9-2.683,1.188-1.39,2.835-2.565,3.886-4-1.111-.848-1.872-2.21-3.065-2.876C41.349,12.426,38.144,11.756,38.257,12.635Z"/><path d="M17.342,37.506c.843.774,1.589,1.719,2.449,2.477.07.044.177.526.448.083,1.155-1.145,2.366-2.289,3.474-3.5.85-1.036,2.466-2.057,2.986-3.141-2.965-.3-6.131-.011-9.158-.106-.781,0-.223,1.562-.382,2.115C17.267,36.117,16.911,36.947,17.342,37.506Z"/><path d="M52.792,33.747c0-.406-.018-.423-.427-.424-2.963,0-5.926-.007-8.889,0-.916.142,1.5,1.834,1.719,2.189a55.454,55.454,0,0,0,4.75,4.663C52.886,37.193,52.955,38.135,52.792,33.747Z"/><path d="M44.694,44.411c-8.568-8.189-6.056-8.417-6.438,2.964,0,.48,0,.484.472.484,1.223-.177,2.8.374,3.85-.274.831-.889,1.714-1.737,2.575-2.6C45.163,44.752,44.832,44.591,44.694,44.411Z"/><path d="M199.914,34.257a5.8,5.8,0,0,0-2.2-4.773c-.536-.247-.868-.877-1.419-.94a2.171,2.171,0,0,0-1.157-.427c-.113-.311-.388-.222-.613-.248-.687.065-1.215-.38-1.868-.286-3.354-.22-6.834.444-10.094-.293-.7-.477-1.609-.959-1.689-1.894.045-.253.095-.591-.225-.783a.189.189,0,0,1,.007-.17c.509-.349-.07-1.062.5-1.352a3.592,3.592,0,0,1,2.972-1.572c4.595.038,9.191.017,13.787.026.919.084.281-3.626.387-4.423-5.787-.044-11.572-.01-17.359,0-2.5.145-5.245,1.365-6.462,3.679a4.419,4.419,0,0,0-.935,2.51c-.5.5-.189,2.173-.185,2.888.336.167.2.479.253.731a9.047,9.047,0,0,0,1.018,2.114,10.693,10.693,0,0,0,2.94,2.26,2.266,2.266,0,0,0,1.349.434c.1.329.385.228.6.23,3.046.058,6.154-.043,9.175.082.212.276.505.229.763.2a3.346,3.346,0,0,1,3.449,2.42,3.124,3.124,0,0,1-3.284,3.62c-4.909.027-9.812-.048-14.72.034.2.794-.532,5.11.537,4.713,5.887,0,11.774.01,17.661-.015a7.3,7.3,0,0,0,6.262-4.706c.416-.057.1-.73.308-.9.238-.12.2-.3.2-.479A13.467,13.467,0,0,0,199.914,34.257Z"/><path d="M171.419,25.849c.084-.737-.359-1.407-.394-2.1-.382-.144-.158-.631-.3-.87-.4-.2-.244-.678-.521-.962a3.189,3.189,0,0,1-.438-.91,14.533,14.533,0,0,0-2.951-2.607c-.337-.182-.755-.231-1.091-.4-.08-.3-.343-.227-.55-.27-.111-.023-.282-.016-.32-.084-.172-.3-.451-.218-.7-.243a16.278,16.278,0,0,0-5.645-.6V16.8c-1.149.023-2.355-.044-3.485.023-.372.422-.872.213-1.312.291a22.107,22.107,0,0,0-4.1,1.637c-.338.572-1.074.64-1.409,1.225a7.717,7.717,0,0,0-1.815,2.395,4.32,4.32,0,0,0-.977,2.2,4.756,4.756,0,0,0-.371,1.3c-.529.631-.017,1.555-.347,2.275a10.825,10.825,0,0,0-.108,3.412c.277.19.2.467.21.72a13.157,13.157,0,0,0,1.371,5.4c.347.02.166.43.3.6.376.138.189.657.561.8,1.392,1.508,2.914,2.991,4.99,3.385a.624.624,0,0,0,.634.281,11.356,11.356,0,0,0,2.028.336c2.066.6,4.378.121,6.54.267.088,0,.221.022.258-.026.336-.43.813-.192,1.22-.275C171.269,41.5,172.565,33.205,171.419,25.849Zm-6.033,4.314h-.006a12.188,12.188,0,0,1-.3,3.8c-.034.224.063.493-.238.618-.151.432-.273.93-.445,1.371-.474.476-.671,1.223-1.376,1.476-.212.049-.375.376-.557.535-2.615,1.3-5.659.929-8.319,0A6.977,6.977,0,0,1,152.11,36.1c-.041-.142.025-.356-.24-.342-1.3-3.364-1.724-7.894.156-11.078,1.419-3.057,5.421-4.041,8.494-3.084C164.174,22.619,165.8,26.64,165.386,30.163Z"/><path d="M89.972,38.292c-3.367,0-6.735,0-10.1-.022a2.677,2.677,0,0,1-1.708-.858A3.265,3.265,0,0,1,77.105,36.2c-.137-.346-.419-.617-.44-1-.383-.038-.15-.5-.268-.688-.38-.179-.215-.527-.264-.8-.5-1.842-.245-3.766-.286-5.707,0-.112-.015-.287.045-.326.582-.5-.113-1.3.507-1.809a7.085,7.085,0,0,1,.768-2.077c.639-.419.95-1.287,1.749-1.368.1-.359.4-.252.627-.253q5.2-.02,10.4-.022c1.394-.136.377-3.455.682-4.552.005-.37-.152-.493-.494-.493q-5.3.013-10.595.021a14.975,14.975,0,0,0-4.1,1.228,4.37,4.37,0,0,1-.846.377,2.257,2.257,0,0,1-.445.532c-.717.327-1.016,1.066-1.556,1.588a1.806,1.806,0,0,0-.658.987c-.379.164-.33.593-.5.88s-.511.579-.411,1c-.33.14-.271.384-.285.654-.016.086.014.229-.03.255-.414.241-.214.646-.282.978-.744,2.007-.594,4.389-.606,6.6.035.719.4,1.255.314,2.016.012.086,0,.221.044.251.44.273.146.917.322,1.248.311.088.187.339.243.523a9.978,9.978,0,0,0,.9,1.986,10.455,10.455,0,0,0,3.668,3.815c4.478,1.789,9.561.71,14.326.988.378-.033,1.043.166,1.023-.411,0-1.465,0-2.808,0-4.335Z"/><path d="M128.881,28.988c-.463-1.693-1.158-3.613-2.875-4.325-.046,0-.122-.019-.133-.048-.158-.412-.709-.143-.885-.516-4.313-.581-8.71-.24-13.056-.284v19.2h4.7c.158-4.78.014-9.57.058-14.355,0-.28.01-.493.381-.49,2.4.227,7.07-1.082,6.862,2.639q0,5.829,0,11.659c-.3,1.143,3.707.343,4.549.569.343,0,.5-.151.5-.5C128.9,38.026,129.121,33.483,128.881,28.988Z"/><path d="M108.216,31.687q-4.576.023-9.153.006c-.953,0-.854.168-.8-.883a3.149,3.149,0,0,1,2.524-2.7c.093-.317.36-.231.566-.233,2.447-.015,4.888-.024,7.337-.029V23.819c-3.978.19-8.47-.927-11.968,1.261a11.815,11.815,0,0,0-2.936,3.39c-.407.168-.213.633-.515.88a8.577,8.577,0,0,0-.639,1.837A10.4,10.4,0,0,0,96.056,41.56a1.426,1.426,0,0,0,.938.6c.02.308.279.225.451.284.058.02.163.025.17.055.115.435.643.14.891.3,3.215.664,6.854.1,10.208.234v-3.47c-2.776-.123-5.744.307-8.358-.316-.727-.1-1.039-.774-1.5-1.194-.742-.6-.6-1.413-.622-2.289h10.492C108.488,34.86,109.282,31.7,108.216,31.687Z"/><path d="M140.79,39.247a2.874,2.874,0,0,1-2.6-2.829c.008-2.854-.044-5.694.016-8.549h4.677V23.787c-6.913.059-4.127.775-4.735-6.66h-4.738v6.637c-4.463-.022-2.895-.292-3.109,4.1h3.11c.006,3.566-.018,7.116.021,10.68-.061.411.43.527.273.914-.063.52.381.867.474,1.315,2.071,2.866,5.046,2.257,8.162,2.264,1.135-.39.305-2.681.542-3.787C142.15,39.249,141.47,39.253,140.79,39.247Z"/></svg>