<svg id="Layer_1" data-name="Layer 1" xmlns="http://www.w3.org/2000/svg" viewBox="0 0 240 60"><path d="M21.219,31.153h10.5a8.657,8.657,0,0,1,.15.954,10.769,10.769,0,0,1,.059,1.119A14.23,14.23,0,0,1,31.3,37.5a10.122,10.122,0,0,1-1.974,3.586,9.945,9.945,0,0,1-3.441,2.6,10.847,10.847,0,0,1-4.577.922,10.678,10.678,0,0,1-4.4-.922,10.9,10.9,0,0,1-3.589-2.566,12.392,12.392,0,0,1-2.423-3.9,13.919,13.919,0,0,1,0-9.837,12.4,12.4,0,0,1,2.423-3.9,10.913,10.913,0,0,1,3.589-2.567,10.677,10.677,0,0,1,4.4-.921,10.284,10.284,0,0,1,8.167,3.718l-2.782,2.994a7.51,7.51,0,0,0-2.333-1.859,7.364,7.364,0,0,0-5.864-.066,6.947,6.947,0,0,0-2.3,1.629,7.845,7.845,0,0,0-1.57,2.55,9.853,9.853,0,0,0,0,6.678,7.7,7.7,0,0,0,1.585,2.55,7.11,7.11,0,0,0,2.319,1.629,6.952,6.952,0,0,0,2.812.575,6.89,6.89,0,0,0,2.887-.543,6.688,6.688,0,0,0,2.019-1.4,5.319,5.319,0,0,0,1.033-1.5,9.116,9.116,0,0,0,.673-2.023H21.219Z"/><path d="M41.592,27.435a7.5,7.5,0,0,1,3.126.642,7.388,7.388,0,0,1,2.453,1.777,8.216,8.216,0,0,1,1.616,2.714,10.526,10.526,0,0,1,0,6.909,8.206,8.206,0,0,1-1.616,2.714,7.388,7.388,0,0,1-2.453,1.777,7.931,7.931,0,0,1-6.252,0,7.378,7.378,0,0,1-2.453-1.777A8.189,8.189,0,0,1,34.4,39.477a10.526,10.526,0,0,1,0-6.909,8.2,8.2,0,0,1,1.616-2.714,7.378,7.378,0,0,1,2.453-1.777A7.5,7.5,0,0,1,41.592,27.435Zm0,13.194a3.53,3.53,0,0,0,1.451-.313,3.692,3.692,0,0,0,1.241-.905,4.322,4.322,0,0,0,.853-1.447,6.156,6.156,0,0,0,0-3.882,4.317,4.317,0,0,0-.853-1.448,3.706,3.706,0,0,0-1.241-.905,3.546,3.546,0,0,0-1.451-.313,3.509,3.509,0,0,0-1.466.313,3.745,3.745,0,0,0-1.227.905,4.332,4.332,0,0,0-.852,1.448,6.156,6.156,0,0,0,0,3.882,4.337,4.337,0,0,0,.852,1.447,3.731,3.731,0,0,0,1.227.905A3.494,3.494,0,0,0,41.592,40.629Z"/><path d="M58.823,27.435a7.51,7.51,0,0,1,3.127.642A7.4,7.4,0,0,1,64.4,29.854a8.214,8.214,0,0,1,1.615,2.714,10.526,10.526,0,0,1,0,6.909A8.2,8.2,0,0,1,64.4,42.191a7.4,7.4,0,0,1-2.453,1.777,7.934,7.934,0,0,1-6.253,0,7.388,7.388,0,0,1-2.453-1.777,8.187,8.187,0,0,1-1.615-2.714,10.509,10.509,0,0,1,0-6.909,8.2,8.2,0,0,1,1.615-2.714A7.388,7.388,0,0,1,55.7,28.077,7.506,7.506,0,0,1,58.823,27.435Zm0,13.194a3.523,3.523,0,0,0,1.451-.313,3.682,3.682,0,0,0,1.241-.905,4.322,4.322,0,0,0,.853-1.447,6.138,6.138,0,0,0,0-3.882,4.317,4.317,0,0,0-.853-1.448,3.7,3.7,0,0,0-1.241-.905,3.555,3.555,0,0,0-2.917,0,3.741,3.741,0,0,0-1.226.905,4.35,4.35,0,0,0-.853,1.448,6.156,6.156,0,0,0,0,3.882,4.355,4.355,0,0,0,.853,1.447,3.727,3.727,0,0,0,1.226.905A3.5,3.5,0,0,0,58.823,40.629Z"/><path d="M75.875,51.716a8.011,8.011,0,0,1-2.767-.444A7.586,7.586,0,0,1,71,50.12a7.408,7.408,0,0,1-1.5-1.562,6.291,6.291,0,0,1-.867-1.711L72.375,45.2a3.9,3.9,0,0,0,1.376,1.991,3.493,3.493,0,0,0,2.124.707,3.58,3.58,0,0,0,2.932-1.324,5.616,5.616,0,0,0,1.077-3.644V41.813h-.24a4.934,4.934,0,0,1-1.809,1.662,5.471,5.471,0,0,1-2.648.608,5.925,5.925,0,0,1-2.558-.586,6.713,6.713,0,0,1-2.2-1.678A8.776,8.776,0,0,1,68.875,39.2a9.3,9.3,0,0,1-.6-3.42,9.433,9.433,0,0,1,.6-3.437A8.727,8.727,0,0,1,70.43,29.7a6.727,6.727,0,0,1,2.2-1.678,5.926,5.926,0,0,1,2.558-.587,5.482,5.482,0,0,1,2.648.609,4.943,4.943,0,0,1,1.809,1.662h.24V27.962h3.74v14.97a11.088,11.088,0,0,1-.569,3.668,8.072,8.072,0,0,1-1.586,2.764,6.862,6.862,0,0,1-2.437,1.743A7.942,7.942,0,0,1,75.875,51.716Zm.15-11.515a3.708,3.708,0,0,0,1.421-.29,3.618,3.618,0,0,0,1.241-.856,4.324,4.324,0,0,0,.868-1.389,5.079,5.079,0,0,0,.329-1.89,5.2,5.2,0,0,0-.329-1.906,4.274,4.274,0,0,0-.868-1.4,3.6,3.6,0,0,0-1.241-.856,3.69,3.69,0,0,0-1.421-.291,3.574,3.574,0,0,0-1.406.291,3.535,3.535,0,0,0-1.227.872,4.484,4.484,0,0,0-.867,1.405,5.577,5.577,0,0,0,0,3.78,4.3,4.3,0,0,0,.867,1.389,3.652,3.652,0,0,0,1.227.856A3.591,3.591,0,0,0,76.025,40.2Z"/><path d="M86.973,44.083V20.527h3.92V44.083Z"/><path d="M107.974,40.2a8.73,8.73,0,0,1-2.737,3.191,7.1,7.1,0,0,1-4.2,1.218,7.388,7.388,0,0,1-5.565-2.435,8.293,8.293,0,0,1-1.63-2.714,9.76,9.76,0,0,1-.583-3.438,9.6,9.6,0,0,1,.568-3.307,8.59,8.59,0,0,1,1.585-2.731,7.7,7.7,0,0,1,2.409-1.858,6.789,6.789,0,0,1,3.066-.692,7.345,7.345,0,0,1,3.141.642,6.46,6.46,0,0,1,2.3,1.777,7.86,7.86,0,0,1,1.406,2.681,11.309,11.309,0,0,1,.479,3.356v.4a2.3,2.3,0,0,0-.03.362,2.015,2.015,0,0,0-.03.362H97.115a4.847,4.847,0,0,0,.493,1.694,4.02,4.02,0,0,0,.928,1.185,3.512,3.512,0,0,0,1.211.69,4.321,4.321,0,0,0,1.346.214,3.567,3.567,0,0,0,2.229-.674,4.8,4.8,0,0,0,1.391-1.7Zm-3.56-6.251A3,3,0,0,0,104.16,33a3.353,3.353,0,0,0-.658-.987,3.456,3.456,0,0,0-1.077-.757,3.671,3.671,0,0,0-1.541-.3,3.378,3.378,0,0,0-2.213.789,4.206,4.206,0,0,0-1.347,2.205Z"/><path d="M119.043,44.083h-3.052l8.078-23.556h3.111l8.077,23.556h-3.051L130.142,37.7h-9Zm6.521-19.839-3.5,10.627h7.12l-3.5-10.627Z"/><path d="M142.976,44.61a6.213,6.213,0,0,1-4.936-2.5,9.412,9.412,0,0,1-2.035-6.086,9.415,9.415,0,0,1,2.035-6.087,6.213,6.213,0,0,1,4.936-2.5,5.859,5.859,0,0,1,2.946.757,5.367,5.367,0,0,1,2.05,2.007h.119l-.119-2.237V20.527h2.752V44.083h-2.633V41.846h-.119a5.353,5.353,0,0,1-2.05,2.007A5.859,5.859,0,0,1,142.976,44.61Zm.448-2.764a4.056,4.056,0,0,0,3.321-1.612,6.352,6.352,0,0,0,1.346-4.211,6.386,6.386,0,0,0-1.346-4.179,4.082,4.082,0,0,0-3.321-1.645,4.136,4.136,0,0,0-3.32,1.645,6.381,6.381,0,0,0-1.346,4.179A6.3,6.3,0,0,0,140.1,40.2,4.133,4.133,0,0,0,143.424,41.846Z"/><path d="M167.775,37.8a6.385,6.385,0,0,1-2.064,4.968,7.424,7.424,0,0,1-5.084,1.843,7.08,7.08,0,0,1-4.7-1.711,8.833,8.833,0,0,1-2.814-4.672l2.633-1.184a7.954,7.954,0,0,0,.749,1.908,6.049,6.049,0,0,0,1.122,1.464,5.006,5.006,0,0,0,1.42.954,4.012,4.012,0,0,0,1.646.345,4.45,4.45,0,0,0,3.081-1.069,3.632,3.632,0,0,0,1.2-2.846,3.569,3.569,0,0,0-.988-2.533,9.146,9.146,0,0,0-3.47-1.974,33.49,33.49,0,0,1-3.2-1.382,6.094,6.094,0,0,1-3.409-5.626,5.989,5.989,0,0,1,1.883-4.442,6.52,6.52,0,0,1,4.7-1.842,6.765,6.765,0,0,1,4.249,1.382,6.431,6.431,0,0,1,2.393,3.389l-2.574,1.184a4.2,4.2,0,0,0-1.42-2.188,4.263,4.263,0,0,0-5.311.115,2.98,2.98,0,0,0-1.106,2.4,2.914,2.914,0,0,0,.867,2.106,14.381,14.381,0,0,0,4.159,2.105,10.469,10.469,0,0,1,4.652,2.978A6.76,6.76,0,0,1,167.775,37.8Z"/><path d="M177.2,44.61a6.717,6.717,0,0,1-5.325-2.435,9.1,9.1,0,0,1-2.094-6.152,9.282,9.282,0,0,1,2.035-6.136,6.856,6.856,0,0,1,10.4-.132,9.884,9.884,0,0,1,1.928,6.5l-.029.329H172.593a5.517,5.517,0,0,0,1.436,3.816,4.378,4.378,0,0,0,3.291,1.448q2.631,0,4.127-2.895l2.453,1.316a7.768,7.768,0,0,1-2.737,3.191A7.046,7.046,0,0,1,177.2,44.61Zm-4.4-10.528h8.405a4.165,4.165,0,0,0-1.24-2.78,4.105,4.105,0,0,0-3.007-1.1,3.775,3.775,0,0,0-2.677,1.053A5.155,5.155,0,0,0,172.8,34.082Z"/><path d="M186.653,27.962h2.633V30.2h.12a5.534,5.534,0,0,1,8.78-1.069,7.2,7.2,0,0,1,1.451,4.82V44.083h-2.752V34.147q-.091-3.948-3.621-3.948a3.338,3.338,0,0,0-2.752,1.464,5.644,5.644,0,0,0-1.106,3.5v8.916h-2.753Z"/><path d="M213.937,39.609a4.521,4.521,0,0,1-1.675,3.553,6.74,6.74,0,0,1-8.108.181A6.925,6.925,0,0,1,201.76,40l2.454-1.152a5,5,0,0,0,1.57,2.254,3.589,3.589,0,0,0,2.26.806,3.712,3.712,0,0,0,2.2-.625,1.8,1.8,0,0,0,.882-1.481q0-1.545-2.153-2.27l-2.514-.691q-4.276-1.184-4.277-4.54a4.334,4.334,0,0,1,1.631-3.537,6.379,6.379,0,0,1,4.172-1.333,6.314,6.314,0,0,1,3.515,1.021,5.4,5.4,0,0,1,2.2,2.73l-2.453,1.119a3.285,3.285,0,0,0-1.361-1.6,3.974,3.974,0,0,0-2.109-.576,3.3,3.3,0,0,0-1.929.593,1.727,1.727,0,0,0-.854,1.447q0,1.383,2.364,1.974l2.215.625Q213.935,35.957,213.937,39.609Z"/><path d="M223.06,44.61a6.715,6.715,0,0,1-5.325-2.435,9.1,9.1,0,0,1-2.094-6.152,9.287,9.287,0,0,1,2.034-6.136,6.856,6.856,0,0,1,10.4-.132,9.884,9.884,0,0,1,1.929,6.5l-.029.329H218.453a5.526,5.526,0,0,0,1.436,3.816,4.38,4.38,0,0,0,3.292,1.448q2.631,0,4.127-2.895l2.453,1.316a7.775,7.775,0,0,1-2.737,3.191A7.049,7.049,0,0,1,223.06,44.61Zm-4.4-10.528h8.406a4.166,4.166,0,0,0-1.241-2.78,4.1,4.1,0,0,0-3.006-1.1,3.777,3.777,0,0,0-2.678,1.053A5.155,5.155,0,0,0,218.662,34.082Z"/></svg>