<svg id="Layer_1" data-name="Layer 1" xmlns="http://www.w3.org/2000/svg" xmlns:xlink="http://www.w3.org/1999/xlink" viewBox="0 0 250 60"><defs><style>.cls-1{fill:none;}.cls-2{clip-path:url(#clip-path);}</style><clipPath id="clip-path"><rect class="cls-1" width="250" height="60"/></clipPath></defs><g class="cls-2"><path d="M23.34,34.682H15.234L12.9,41.438a.313.313,0,0,1-.292.227h-2.4c-.174,0-.238-.086-.2-.26L17.179,21.4a11.067,11.067,0,0,0,.227-1.43.143.143,0,0,1,.162-.162h3.4a.174.174,0,0,1,.194.13l7.685,21.469c.065.174.021.26-.13.26H26.031a.291.291,0,0,1-.259-.2Zm-7.458-2.306h6.842q-.033-.065-1.54-4.466t-1.9-5.733h-.033Q18.866,23.64,15.882,32.376Z"/><path d="M39,41.99a8.185,8.185,0,0,1-5.8-2.079,7.71,7.71,0,0,1-2.237-5.944,7.929,7.929,0,0,1,2.4-5.959,8.575,8.575,0,0,1,6.226-2.323,7.629,7.629,0,0,1,2.529.325V18.182a.172.172,0,0,1,.194-.2H44.87q.162,0,.162.2V38.645q0,.811.065,1.656c.021.109-.033.2-.162.26A12.331,12.331,0,0,1,39,41.99ZM42.114,39.2V28.381a5.06,5.06,0,0,0-2.562-.552,5.27,5.27,0,0,0-4.1,1.656,6.217,6.217,0,0,0-1.508,4.352,5.747,5.747,0,0,0,1.573,4.418,5.353,5.353,0,0,0,3.777,1.461A6.009,6.009,0,0,0,42.114,39.2Z"/><path d="M56.413,25.685a7.055,7.055,0,0,1,5.5,2.274,8.377,8.377,0,0,1,2.058,5.846,8.31,8.31,0,0,1-2.107,5.96,7.2,7.2,0,0,1-5.48,2.225,6.916,6.916,0,0,1-5.69-2.4,8.8,8.8,0,0,1-1.962-5.749,8.259,8.259,0,0,1,2.14-5.846A7.217,7.217,0,0,1,56.413,25.685Zm-.13,2.144a4.039,4.039,0,0,0-3.339,1.607,6.831,6.831,0,0,0-1.265,4.337,7.128,7.128,0,0,0,1.265,4.385,4.129,4.129,0,0,0,3.5,1.688,4.176,4.176,0,0,0,3.226-1.51,6.524,6.524,0,0,0,1.346-4.466,7.359,7.359,0,0,0-1.2-4.336A4.044,4.044,0,0,0,56.283,27.829Z"/><path d="M67.957,17.987h2.5c.151,0,.227.065.227.2V26.53a8.83,8.83,0,0,1,3.826-.845,6.95,6.95,0,0,1,5.318,2.144,7.838,7.838,0,0,1,2.01,5.586,8.288,8.288,0,0,1-2.4,6.269A8,8,0,0,1,73.7,41.99a12.607,12.607,0,0,1-5.772-1.234.311.311,0,0,1-.194-.292V18.182C67.73,18.052,67.805,17.987,67.957,17.987ZM78.851,33.643a6.117,6.117,0,0,0-1.329-4.158,4.532,4.532,0,0,0-3.6-1.526,6.542,6.542,0,0,0-3.243.779V39.132a6.283,6.283,0,0,0,3.178.714,4.528,4.528,0,0,0,3.55-1.656A6.689,6.689,0,0,0,78.851,33.643Z"/><path d="M94.577,34.1H87.638a5.589,5.589,0,0,0,1.3,4.027,5.065,5.065,0,0,0,3.988,1.526,8.889,8.889,0,0,0,4.021-.844c.129-.086.194-.043.194.13v1.786a.279.279,0,0,1-.162.293,10.008,10.008,0,0,1-4.637.974q-3.956,0-5.82-2.322a8.815,8.815,0,0,1-1.864-5.7,8.964,8.964,0,0,1,1.961-5.911,6.524,6.524,0,0,1,5.3-2.371A5.755,5.755,0,0,1,96.7,27.65a6.96,6.96,0,0,1,1.573,4.466,9.7,9.7,0,0,1-.1,1.624.321.321,0,0,1-.26.26A32.781,32.781,0,0,1,94.577,34.1Zm-6.939-1.917h5.771a14.774,14.774,0,0,0,2.043-.065,2.365,2.365,0,0,0,.033-.52,4.5,4.5,0,0,0-.86-2.647,3.229,3.229,0,0,0-2.837-1.218A3.524,3.524,0,0,0,88.9,29,6.014,6.014,0,0,0,87.638,32.181Z"/><path d="M121.618,41.665H110.075a.2.2,0,0,1-.227-.227v-21.7q0-.2.162-.2h1.265c.086,0,.129.055.129.163V40.333h10.571c.13,0,.173.055.13.163l-.26,1.007C121.824,41.612,121.748,41.665,121.618,41.665Z"/><path d="M126.708,21.755a.945.945,0,0,1-.745-.292,1.079,1.079,0,0,1-.26-.747,1.1,1.1,0,0,1,.276-.763,1.016,1.016,0,0,1,1.459,0,1.1,1.1,0,0,1,.275.763,1.061,1.061,0,0,1-.275.73A.931.931,0,0,1,126.708,21.755ZM125.93,41.47V26.334a.143.143,0,0,1,.162-.162h1.2c.13,0,.194.054.194.162V41.5c0,.109-.064.162-.194.162h-1.167A.172.172,0,0,1,125.93,41.47Z"/><path d="M144.866,26.334v1.04a.142.142,0,0,1-.162.162l-3.4-.032a4.772,4.772,0,0,1,1.491,3.8,5.074,5.074,0,0,1-1.6,4,6.463,6.463,0,0,1-5.756,1.2,2.277,2.277,0,0,0-1.329,1.884A2.01,2.01,0,0,0,135.5,40.2q.974-.066,3.438-.065,6.42,0,6.42,4.45a5.109,5.109,0,0,1-2.027,4.011,9.591,9.591,0,0,1-10.522.26,4.395,4.395,0,0,1-1.848-3.589q0-2.178,3.21-4.19a2.882,2.882,0,0,1-1.556-2.5,3.18,3.18,0,0,1,1.621-2.566,4.972,4.972,0,0,1-2.562-4.71,5.313,5.313,0,0,1,1.556-3.881,5.534,5.534,0,0,1,4.119-1.576,7.807,7.807,0,0,1,2.107.228,2.7,2.7,0,0,0,.616.1H144.7A.143.143,0,0,1,144.866,26.334ZM143.8,44.751q0-3.216-5.123-3.216a27.188,27.188,0,0,0-3.34.13q-2.885,1.689-2.885,3.508A3.307,3.307,0,0,0,134.02,47.9a6.607,6.607,0,0,0,3.972,1.137,6.348,6.348,0,0,0,4.28-1.315A3.868,3.868,0,0,0,143.8,44.751ZM141.267,31.3a4.62,4.62,0,0,0-1-3.037,3.606,3.606,0,0,0-2.951-1.218,4.011,4.011,0,0,0-2.966,1.153,4.147,4.147,0,0,0-1.151,3.07,4.37,4.37,0,0,0,1.1,3.1,3.836,3.836,0,0,0,2.951,1.185,3.9,3.9,0,0,0,2.934-1.12A4.319,4.319,0,0,0,141.267,31.3Z"/><path d="M147.882,41.47V17.858a.143.143,0,0,1,.162-.163h1.232c.108,0,.162.044.162.13V27.8a7.225,7.225,0,0,1,5.026-1.949,5.722,5.722,0,0,1,1.783.276,5.9,5.9,0,0,1,1.686.91,4.273,4.273,0,0,1,1.346,1.916,8.522,8.522,0,0,1,.5,3.1V41.47q0,.2-.162.2h-1.233c-.108,0-.161-.065-.161-.2V32.116a5.524,5.524,0,0,0-1.071-3.589,3.6,3.6,0,0,0-2.95-1.315,6.55,6.55,0,0,0-4.767,2.078V41.5a.143.143,0,0,1-.162.162h-1.2A.172.172,0,0,1,147.882,41.47Z"/><path d="M170.774,40.366v.877a.375.375,0,0,1-.13.26,4.8,4.8,0,0,1-2.237.487,3.243,3.243,0,0,1-2.5-.909,4.5,4.5,0,0,1-.843-3.086V27.471h-2.3c-.108,0-.162-.075-.162-.227v-.91a.143.143,0,0,1,.162-.162h2.3a24.142,24.142,0,0,1,.259-4.32.293.293,0,0,1,.162-.2l1.167-.227c.131-.043.194-.021.194.065a37.468,37.468,0,0,0-.226,4.677h3.7c.108,0,.161.065.161.2v.942a.142.142,0,0,1-.161.162h-3.7V38.158q0,2.5,2.139,2.5a4.793,4.793,0,0,0,1.85-.39C170.719,40.2,170.774,40.236,170.774,40.366Z"/><path d="M173.95,26.172h1.168a.18.18,0,0,1,.194.162,11.379,11.379,0,0,1,.227,2.112,6.3,6.3,0,0,1,5.156-2.6c.13,0,.194.055.194.163v1.3c0,.109-.064.162-.194.162a6.085,6.085,0,0,0-2.805.585,5.494,5.494,0,0,0-2.058,1.657,1.22,1.22,0,0,0-.26.844V41.5a.143.143,0,0,1-.162.162h-1.233a.142.142,0,0,1-.161-.162V30.33a32.792,32.792,0,0,0-.194-4C173.822,26.226,173.863,26.172,173.95,26.172Z"/><path d="M184.553,28.153a7.092,7.092,0,0,1,10.393-.08,8.453,8.453,0,0,1,1.994,5.862,8.4,8.4,0,0,1-1.994,5.83,6.623,6.623,0,0,1-5.172,2.225,6.394,6.394,0,0,1-5.382-2.436,8.982,8.982,0,0,1-1.881-5.652A8.36,8.36,0,0,1,184.553,28.153Zm5.124-1.006a5.029,5.029,0,0,0-4.054,1.867,7.286,7.286,0,0,0-1.556,4.823,7.7,7.7,0,0,0,1.54,4.873,5.065,5.065,0,0,0,4.232,1.981,5.267,5.267,0,0,0,3.874-1.705,6.894,6.894,0,0,0,1.67-5.019,7.991,7.991,0,0,0-1.443-4.839A4.937,4.937,0,0,0,189.677,27.147Z"/><path d="M202.031,28.153a7.091,7.091,0,0,1,10.392-.08,8.453,8.453,0,0,1,1.994,5.862,8.4,8.4,0,0,1-1.994,5.83,6.622,6.622,0,0,1-5.172,2.225,6.394,6.394,0,0,1-5.382-2.436,8.982,8.982,0,0,1-1.881-5.652A8.356,8.356,0,0,1,202.031,28.153Zm5.123-1.006a5.029,5.029,0,0,0-4.054,1.867,7.286,7.286,0,0,0-1.556,4.823,7.7,7.7,0,0,0,1.54,4.873,5.065,5.065,0,0,0,4.232,1.981,5.267,5.267,0,0,0,3.874-1.705,6.89,6.89,0,0,0,1.671-5.019,7.991,7.991,0,0,0-1.444-4.839A4.937,4.937,0,0,0,207.154,27.147Z"/><path d="M219.8,41.665h-1.233q-.162,0-.162-.2V29.485a30.213,30.213,0,0,0-.129-3.151.143.143,0,0,1,.162-.162h1.134a.262.262,0,0,1,.195.13,7.915,7.915,0,0,1,.162,1.819,6.76,6.76,0,0,1,5.025-2.274,4.516,4.516,0,0,1,4.379,2.6,7.447,7.447,0,0,1,5.577-2.6,5.6,5.6,0,0,1,1.718.26,5.476,5.476,0,0,1,1.622.877,4.087,4.087,0,0,1,1.28,1.868,8.565,8.565,0,0,1,.47,3V41.5c0,.109-.064.162-.194.162h-1.2c-.108,0-.161-.065-.161-.2V31.857a5.378,5.378,0,0,0-.988-3.346,3.356,3.356,0,0,0-2.838-1.3,6.047,6.047,0,0,0-4.831,2.468,10.216,10.216,0,0,1,.194,2.209V41.47c0,.13-.055.2-.162.2h-1.2a.172.172,0,0,1-.194-.2V31.791a5.214,5.214,0,0,0-.973-3.313,3.343,3.343,0,0,0-2.789-1.234,5.92,5.92,0,0,0-4.7,2.4V41.5A.143.143,0,0,1,219.8,41.665Z"/></g></svg>