<svg id="Layer_1" data-name="Layer 1" xmlns="http://www.w3.org/2000/svg" viewBox="0 0 150 60"><path d="M22.822,34.623H15.031l-2.245,6.493a.3.3,0,0,1-.28.219H10.2c-.167,0-.229-.083-.187-.25L16.9,21.855a10.547,10.547,0,0,0,.218-1.374.138.138,0,0,1,.156-.156h3.273a.167.167,0,0,1,.186.125L28.12,41.085c.062.167.02.25-.125.25H25.408a.281.281,0,0,1-.249-.188Zm-7.168-2.217H22.23q-.032-.061-1.481-4.292T18.926,22.6H18.9Q18.522,24.01,15.654,32.406Z"/><path d="M37.874,41.647a7.866,7.866,0,0,1-5.578-2,7.412,7.412,0,0,1-2.15-5.713,7.621,7.621,0,0,1,2.306-5.728,8.24,8.24,0,0,1,5.983-2.232,7.321,7.321,0,0,1,2.431.312V18.764a.165.165,0,0,1,.187-.187h2.462c.1,0,.156.062.156.187V38.432q0,.78.062,1.592c.021.1-.031.187-.155.249A11.852,11.852,0,0,1,37.874,41.647Zm2.992-2.685v-10.4a4.859,4.859,0,0,0-2.462-.531,5.066,5.066,0,0,0-3.942,1.592,5.975,5.975,0,0,0-1.449,4.183,5.524,5.524,0,0,0,1.511,4.246,5.149,5.149,0,0,0,3.631,1.405A5.765,5.765,0,0,0,40.866,38.962Z"/><path d="M54.61,25.976a6.78,6.78,0,0,1,5.283,2.185,8.051,8.051,0,0,1,1.978,5.619,7.992,7.992,0,0,1-2.025,5.729,6.929,6.929,0,0,1-5.267,2.138,6.649,6.649,0,0,1-5.469-2.31,8.458,8.458,0,0,1-1.886-5.526,7.939,7.939,0,0,1,2.057-5.619A6.935,6.935,0,0,1,54.61,25.976Zm-.125,2.06a3.883,3.883,0,0,0-3.209,1.545,6.561,6.561,0,0,0-1.216,4.168,6.849,6.849,0,0,0,1.216,4.215,3.968,3.968,0,0,0,3.365,1.622,4.013,4.013,0,0,0,3.1-1.451,6.27,6.27,0,0,0,1.293-4.292,7.074,7.074,0,0,0-1.153-4.168A3.885,3.885,0,0,0,54.485,28.036Z"/><path d="M65.705,18.577h2.4c.145,0,.218.062.218.187v8.023A8.488,8.488,0,0,1,72,25.976a6.677,6.677,0,0,1,5.11,2.06,7.534,7.534,0,0,1,1.932,5.369,7.963,7.963,0,0,1-2.305,6.026,7.684,7.684,0,0,1-5.516,2.216,12.12,12.12,0,0,1-5.548-1.186.3.3,0,0,1-.187-.281V18.764C65.486,18.639,65.559,18.577,65.705,18.577ZM76.176,33.624a5.877,5.877,0,0,0-1.278-4,4.353,4.353,0,0,0-3.459-1.467,6.287,6.287,0,0,0-3.117.749V38.9a6.035,6.035,0,0,0,3.055.686,4.35,4.35,0,0,0,3.412-1.592A6.431,6.431,0,0,0,76.176,33.624Z"/><path d="M91.29,34.061H84.621a5.376,5.376,0,0,0,1.247,3.871A4.87,4.87,0,0,0,89.7,39.4a8.539,8.539,0,0,0,3.864-.811c.126-.083.188-.042.188.124V40.43a.269.269,0,0,1-.156.281,9.616,9.616,0,0,1-4.456.936q-3.8,0-5.594-2.232a8.466,8.466,0,0,1-1.793-5.479,8.614,8.614,0,0,1,1.886-5.681,6.265,6.265,0,0,1,5.095-2.279,5.534,5.534,0,0,1,4.6,1.888,6.691,6.691,0,0,1,1.512,4.293,9.5,9.5,0,0,1-.093,1.561.309.309,0,0,1-.25.249A31.393,31.393,0,0,1,91.29,34.061Zm-6.669-1.842h5.548a14.311,14.311,0,0,0,1.964-.062,2.34,2.34,0,0,0,.03-.5,4.326,4.326,0,0,0-.825-2.544,3.107,3.107,0,0,0-2.727-1.171,3.387,3.387,0,0,0-2.774,1.218A5.78,5.78,0,0,0,84.621,32.219Z"/><path d="M119.775,20.263,113.043,30.44l7.2,10.676q.123.219-.093.219h-1.4a.387.387,0,0,1-.281-.125l-6.513-9.772h-.031l-6.14,9.741a.339.339,0,0,1-.249.156h-1.341c-.145,0-.176-.073-.094-.219l6.888-10.583-6.731-10.27c-.084-.125-.042-.188.124-.188h1.371a.542.542,0,0,1,.25.094l6.046,9.428h.031l6.078-9.4a.36.36,0,0,1,.249-.125h1.277C119.807,20.075,119.837,20.138,119.775,20.263Z"/><path d="M123.951,41.116V20.294c0-.125.051-.2.156-.219q1.869-.061,5.39-.062,5.173,0,7.839,2.841A10.6,10.6,0,0,1,140,30.409a12.929,12.929,0,0,1-1.028,5.385,8.016,8.016,0,0,1-2.758,3.434,12.282,12.282,0,0,1-3.569,1.686,14.266,14.266,0,0,1-3.864.514q-2.15,0-4.674-.093C124,41.335,123.951,41.262,123.951,41.116Zm1.5-19.761v18.7q1.12.095,3.334.094a9.964,9.964,0,0,0,7.138-2.451q2.584-2.451,2.585-7.258,0-4.464-2.446-6.806a9.179,9.179,0,0,0-6.622-2.341Q126.193,21.293,125.447,21.355Z"/></svg>