<svg id="Layer_1" data-name="Layer 1" xmlns="http://www.w3.org/2000/svg" viewBox="0 0 230 60"><path d="M206.417,49.12c-.444-.088-.887-.18-1.332-.263A12.728,12.728,0,1,1,219.9,34.518c.206,1.414.205,1.406-1.215,1.729q-8.241,1.872-16.48,3.755c-.194.044-.38.124-.665.218.22.288.372.528.562.731a6.886,6.886,0,0,0,10.375-.114,1.205,1.205,0,0,1,1.39-.437c1.645.43,3.308.789,5.137,1.217a30.1,30.1,0,0,1-1.693,2.561,12.649,12.649,0,0,1-8.736,4.791,3.147,3.147,0,0,0-.533.151Zm-5.949-14.03a107.9,107.9,0,0,0,12.382-2.947,7.048,7.048,0,0,0-7.905-2.44C202.537,30.492,200.545,33.023,200.468,35.09Z"/><path d="M69.573,49.12c-.465-.09-.929-.188-1.395-.27A12.737,12.737,0,1,1,83.033,34.387c.081.49.1.988.16,1.563-3.1.7-6.169,1.4-9.24,2.1-3.056.7-6.11,1.4-9.322,2.129.308.382.5.666.738.91A6.926,6.926,0,0,0,75.662,40.8a1.089,1.089,0,0,1,1.28-.409c1.669.427,3.354.791,5.229,1.225a31.575,31.575,0,0,1-1.865,2.745,12.593,12.593,0,0,1-8.636,4.612,2.426,2.426,0,0,0-.47.146ZM63.567,35.225,76.04,32.348c-.965-2-4.267-3.407-6.768-2.956A6.831,6.831,0,0,0,63.567,35.225Z"/><path d="M22,49.12c-.488-.09-.975-.182-1.463-.27a12.737,12.737,0,1,1,14.845-14.4c.209,1.479.209,1.478-1.22,1.8Q25.947,38.126,17.734,40c-.2.045-.39.119-.678.209.172.247.292.455.446.634a6.929,6.929,0,0,0,10.5-.026,1.121,1.121,0,0,1,1.329-.417c1.65.425,3.317.786,5.016,1.182a2.125,2.125,0,0,1-.112.382A12.722,12.722,0,0,1,24.1,48.967a4.856,4.856,0,0,0-.6.153ZM28.43,32.338A7,7,0,0,0,20.438,29.7c-2.888.955-4.642,3.994-4.494,5.505Z"/><path d="M133,46.8v1.531h-2.365c-1.043,0-2.088-.036-3.128.014-.6.029-.733-.185-.731-.741.015-5.238,0-10.477.006-15.716,0-6.3.021-12.6.008-18.9,0-.559.148-.794.714-.908,1.692-.342,3.371-.75,5.056-1.131.118-.026.239-.039.443-.071V25.741a11.829,11.829,0,0,1,10.815-1.6,12.259,12.259,0,0,1,6.735,4.909,12.783,12.783,0,0,1-.816,15.453C146.452,48.4,138.855,51.03,133,46.8Zm-.121-10.6a6.966,6.966,0,1,0,6.939-6.905A6.977,6.977,0,0,0,132.88,36.2Z"/><path d="M85.443,23.958c1.966,0,3.881-.008,5.8.019.122,0,.322.272.343.435a11.585,11.585,0,0,1,.017,1.361c.594-.381,1.021-.664,1.457-.933,3.778-2.333,9.771-1.514,12.589,1.745a9.133,9.133,0,0,1,2.308,5.857c.111,5.173.1,10.348.135,15.522a2.223,2.223,0,0,1-.047.328c-.208.015-.391.037-.573.038-1.648,0-3.3-.02-4.943.013-.538.011-.665-.179-.663-.68q.025-6.019,0-12.038a12.981,12.981,0,0,0-.227-2.475,4.26,4.26,0,0,0-4.284-3.64,8.754,8.754,0,0,0-2.292.176A4.379,4.379,0,0,0,91.7,34.157c-.064,4.385-.07,8.771-.1,13.157-.008,1.2.082,1.008-1.049,1.015-1.686.01-3.372,0-5.108,0Z"/><path d="M59.638,23.955c-.534,1.345-1.018,2.578-1.513,3.807q-4,9.936-7.99,19.875a.921.921,0,0,1-1.031.712c-1.688-.05-3.38-.047-5.068,0a.972.972,0,0,1-1.091-.728Q38.9,37.432,34.813,27.26c-.422-1.054-.849-2.107-1.308-3.245.249-.024.423-.056.6-.056,1.877,0,3.755.013,5.632-.015a.685.685,0,0,1,.754.552q2.832,7.614,5.685,15.221c.083.222.194.434.373.831.174-.387.281-.6.364-.813q2.877-7.6,5.737-15.2a.757.757,0,0,1,.854-.587C55.5,23.969,57.5,23.955,59.638,23.955Z"/><path d="M109.3,23.956c1.121,0,2.16-.026,3.2.011.528.019.678-.164.674-.674-.021-2.433-.006-4.867-.01-7.3,0-.347-.007-.613.463-.716,1.866-.4,3.722-.861,5.582-1.294a2.147,2.147,0,0,1,.4,0v9.977c1.355,0,2.621-.009,3.886,0,1.134.01,1.025-.19,1.03,1.028.006,1.456-.017,2.912.011,4.367.01.5-.158.643-.648.63-1.168-.03-2.337-.006-3.5,0h-.761v.858c0,5.553-.009,11.106.013,16.659,0,.593-.15.793-.763.779-1.668-.039-3.338-.032-5.007,0-.55.01-.712-.168-.71-.715.018-5.553.012-11.106.012-16.658,0-.92,0-.92-.909-.92-.835,0-1.67-.009-2.5,0-.313,0-.453-.093-.451-.426C109.3,27.729,109.3,25.9,109.3,23.956Z"/><path d="M179.162,23.956c1.155,0,2.2-.025,3.237.011.506.018.643-.16.639-.641-.018-2.412.006-4.824-.018-7.235-.005-.52.157-.679.674-.672,1.731.026,3.463.021,5.194,0,.474-.006.6.159.6.616-.018,2.432,0,4.865-.017,7.3,0,.484.129.652.633.638,1.23-.034,2.461,0,3.692-.019.408-.007.6.08.6.542-.019,1.663-.013,3.326,0,4.989,0,.4-.14.553-.545.548-1.189-.016-2.379.023-3.567-.016-.615-.02-.823.15-.82.8.026,5.551,0,11.1.029,16.654,0,.625-.154.828-.8.812-1.647-.042-3.3-.035-4.943,0-.576.011-.738-.176-.736-.746.02-5.552.013-11.1.012-16.654,0-.848,0-.85-.876-.851-.834,0-1.669.02-2.5-.011-.167-.007-.466-.2-.468-.315C179.154,27.811,179.162,25.925,179.162,23.956Z"/><path d="M161.242,26.075c3.255-1.554,5.6-2.189,7.065-1.917.011.209.033.431.034.654,0,1.538-.023,3.077.018,4.614.016.61-.144.792-.788.838a14.331,14.331,0,0,0-3.117.533,4.172,4.172,0,0,0-3.146,4.282c-.039,4.115-.048,8.23-.069,12.345,0,.907,0,.907-.922.907-1.585,0-3.17-.014-4.754.009-.445.006-.563-.146-.563-.574q.017-11.628,0-23.258c0-.447.149-.565.577-.56,1.689.02,3.379.025,5.067,0,.483-.007.626.171.6.616C161.224,25.032,161.242,25.5,161.242,26.075Z"/><path d="M170.694,23.957c1.941,0,3.816,0,5.691,0,.122,0,.243.021.425.038.013.26.037.5.037.743q0,11.417.014,22.832c0,.584-.126.793-.751.775-1.584-.045-3.171-.015-4.756-.015h-.66Z"/><path d="M173.779,11.212a4.028,4.028,0,0,1,4.179,4.169A4.127,4.127,0,0,1,173.85,19.6a4.256,4.256,0,0,1-4.311-4.257A4.058,4.058,0,0,1,173.779,11.212Z"/></svg>