<svg id="Layer_1" data-name="Layer 1" xmlns="http://www.w3.org/2000/svg" viewBox="0 0 170 60"><path d="M125.4,9.7h-6.555c.01.11.023.223.023.336q0,8.64,0,17.286a.516.516,0,0,1-.052.349,1.107,1.107,0,0,1-.091-.116A4.734,4.734,0,0,0,116.4,25.67a11.647,11.647,0,0,0-6.471-.546,9.525,9.525,0,0,0-7.469,6.329,13.176,13.176,0,0,0-.43,8.132,10.191,10.191,0,0,0,4.677,6.561,10.433,10.433,0,0,0,8.733.935,7.785,7.785,0,0,0,2.761-1.319c.216-.175.41-.378.672-.624,0,.6.023,1.125-.007,1.645-.022.356.075.469.446.466q2.827-.03,5.65,0c.366.006.45-.091.45-.453Q125.393,28.252,125.4,9.7Zm-7.712,31.178a6.465,6.465,0,0,1-3.326,1.949,4.413,4.413,0,0,1-4.748-1.952,7.965,7.965,0,0,1-.326-8.743,4.727,4.727,0,0,1,7.324-1.277,7.376,7.376,0,0,1,1.745,2,3.866,3.866,0,0,1,.511,1.975c-.01.578,0,1.157,0,1.732,0,.491-.032.983.006,1.468A3.444,3.444,0,0,1,117.689,40.881Z"/><path d="M134.454,10.115c0-.137-.009-.275-.014-.413h-6.7c.007.163.021.325.021.487q0,18.285,0,36.569c0,.484,0,.484.488.484q2.844,0,5.687,0c.595,0,.52.068.52-.521Q134.456,28.418,134.454,10.115Z"/><path d="M159.572,40.671c-2.071.019-4.143.045-6.212.062-.194,0-.313.012-.346.258a1.354,1.354,0,0,1-.439.769,5.022,5.022,0,0,1-1.8,1.057,5.9,5.9,0,0,1-3.781.43,6.305,6.305,0,0,1-4.416-4.48c-.113-.346,0-.4.33-.4,2.776.013,5.55.007,8.323.007v0h4.519c1.305,0,2.611,0,3.914,0,.2,0,.31-.019.32-.278a14.132,14.132,0,0,0-1.06-6.244,10.586,10.586,0,0,0-6.575-6.3,14.442,14.442,0,0,0-9.1.007,10.358,10.358,0,0,0-6.823,6.409,12.974,12.974,0,0,0-.64,6.226,10.4,10.4,0,0,0,2.663,5.97,11.628,11.628,0,0,0,7.984,3.778,15.2,15.2,0,0,0,8.429-1.72,11.031,11.031,0,0,0,5.007-5.071C160.077,40.729,160.038,40.665,159.572,40.671Zm-16.817-6.836a6.885,6.885,0,0,1,2.327-3.643,5.036,5.036,0,0,1,6.988.954,7.1,7.1,0,0,1,1.29,2.64c.11.395-.026.427-.355.424-1.655-.013-3.31-.007-4.965,0s-3.336-.01-5,.006C142.707,34.216,142.668,34.116,142.755,33.835Z"/><path d="M72.325,27.306a11.94,11.94,0,0,0-7.861-2.483A11.614,11.614,0,0,0,53.9,31.492a11.964,11.964,0,0,0-.746,7.11,10.558,10.558,0,0,0,6.626,8.314,12.426,12.426,0,0,0,9.952-.02,10.548,10.548,0,0,0,6.131-6.448,12.834,12.834,0,0,0,.585-5.343A10.707,10.707,0,0,0,72.325,27.306ZM68.078,41.2a4.711,4.711,0,0,1-7.376-.756,8.1,8.1,0,0,1,.336-8.5,4.182,4.182,0,0,1,3.006-1.726,4.5,4.5,0,0,1,4,1.28,6.243,6.243,0,0,1,1.542,3.126,7.528,7.528,0,0,1,.161,1.726A6.953,6.953,0,0,1,68.078,41.2Z"/><path d="M93.777,25.7a12.53,12.53,0,0,0-8.478-.384,10.717,10.717,0,0,0-7.405,6.8,12.234,12.234,0,0,0-.634,5.443,10.761,10.761,0,0,0,2.984,6.771,11.808,11.808,0,0,0,8.921,3.556,13.565,13.565,0,0,0,2.6-.294,11,11,0,0,0,7.945-6.177,11.966,11.966,0,0,0,.908-6.911A10.61,10.61,0,0,0,93.777,25.7Zm.217,10.573a7.29,7.29,0,0,1-1.49,4.719,4.7,4.7,0,0,1-7.687-.766,8.072,8.072,0,0,1-.872-4.69,6.875,6.875,0,0,1,1.519-3.811,4.188,4.188,0,0,1,3.148-1.532,4.4,4.4,0,0,1,3.636,1.274,6.249,6.249,0,0,1,1.59,3.222A6.83,6.83,0,0,1,93.994,36.272Z"/><path d="M50.96,29.105a8.058,8.058,0,0,0-5.206-3.728A15.82,15.82,0,0,0,40.338,25c-1.971.179-3.844.607-5.273,2.283a2.657,2.657,0,0,0-.313-.4,2.943,2.943,0,0,0-1.1-.748h0c-.107-.031-.148-.18-.283-.162a7.543,7.543,0,0,0-2.585-1.724c.057-.154.21-.2.326-.289q3.232-2.349,6.467-4.693c.077-.056.267-.074.154-.268s-.21-.036-.317-.015a2.29,2.29,0,0,0-.262,0c-2.413.263-4.827.528-7.225.912-1.048.168-2.1.32-3.13.584-.281.051-.565.086-.841.156A30.737,30.737,0,0,0,22.2,21.682a.513.513,0,0,0-.147.005A39.457,39.457,0,0,0,18.063,23.2,42.84,42.84,0,0,0,13.7,25.318c-1.106.541-2.151,1.192-3.21,1.816a.616.616,0,0,1-.487.119v.3l1.048-.063h0c0,.1.006.2,0,.3a38,38,0,0,0-.04,5.073,2.4,2.4,0,0,1-.106.844,7.7,7.7,0,0,0-.361,2.48,12.156,12.156,0,0,0,.943,4.225c.161.414.325.827.488,1.241.071-.739.067-1.454.071-2.168a24.362,24.362,0,0,0-.311-4.531,18.825,18.825,0,0,1-.425-2.092,28.507,28.507,0,0,1,.067-5.37l2.557-.027,4.281.168,0,.287c0,.037-.007.073-.012.11a.724.724,0,0,0-.022.2,13.171,13.171,0,0,0,.191,3.164c-.093.157-.164.309.081.4h0a7.276,7.276,0,0,0-.078.747q-.02,7.226-.036,14.452c0,.3.132.311.361.31,1.982-.006,3.964-.012,5.947.005.327,0,.385-.1.384-.405q-.014-6.1-.007-12.194a10.653,10.653,0,0,1,.2-2.316h0c.341-.075.684-.145,1.023-.228a12.319,12.319,0,0,0,3.89-1.78h0a2.546,2.546,0,0,1,1.187,1.261,5.324,5.324,0,0,1,.454,2.269q.008,6.477,0,12.956c0,.331.067.443.423.439,1.959-.019,3.917-.008,5.876-.011.544,0,.475.059.476-.486.005-4.381,0-8.763.016-13.144a4.308,4.308,0,0,1,.608-2.3c.774-1.247,2.072-1.5,3.591-1.291a2.606,2.606,0,0,1,1.6.832,4.119,4.119,0,0,1,.965,2.893q.025,6.591.006,13.182c0,.273.038.391.359.388,1.983-.017,3.967-.013,5.951,0,.259,0,.339-.062.338-.331-.012-4.758,0-9.516-.028-14.274A7.225,7.225,0,0,0,50.96,29.105Z"/></svg>