<svg id="Layer_1" data-name="Layer 1" xmlns="http://www.w3.org/2000/svg" viewBox="0 0 190 60"><path d="M179.351,45.752c-3.037,0-5.866-.013-8.695.012-.5,0-.681-.323-.915-.611q-3.774-4.665-7.534-9.341c-.094-.117-.147-.292-.438-.273v8.269c0,.456-.017.914,0,1.369.019.379-.034.591-.51.585-2.056-.024-4.112-.018-6.168,0-.4,0-.523-.157-.491-.521.014-.162,0-.326,0-.489q0-16.481-.021-32.962c0-.874.228-1.1,1.087-1.067,1.694.072,3.4.067,5.089,0,.795-.031,1.034.152,1.029.991-.041,6.129-.022,12.259-.022,18.388v1.19c1.476-1.752,2.787-3.3,4.092-4.857,1.192-1.421,2.375-2.848,3.568-4.268.2-.239.357-.506.768-.5,2.725.02,5.451.011,8.376.011l-4.1,4.788c-1.8,2.1-3.583,4.216-5.4,6.3-.36.412-.41.646-.021,1.091,3.238,3.7,6.444,7.419,9.66,11.134C178.882,45.18,179.043,45.381,179.351,45.752Z"/><path d="M116.593,43.085c-3.943,4.5-11.15,4.15-15.178-.636a13.694,13.694,0,0,1-.083-17.373,10.351,10.351,0,0,1,13.874-2,17.814,17.814,0,0,1,1.387,1.282c0-.771.023-1.406-.008-2.039-.022-.451.1-.629.593-.623,1.991.026,3.984.042,5.976-.005.8-.018.595.5.6.9q.009,9.346,0,18.694c0,1.3-.02,2.61.011,3.914.011.474-.136.605-.6.6q-2.988-.036-5.976,0c-.489.006-.622-.177-.6-.629C116.615,44.566,116.593,43.962,116.593,43.085Zm0-9.272a7.375,7.375,0,0,1,.009-1.171c.336-2.059-.846-3.2-2.437-4.108a6.919,6.919,0,0,0-2.021-.671,5.971,5.971,0,0,0-6.857,7.5A6.225,6.225,0,0,0,115.26,38.2a2.914,2.914,0,0,0,1.346-2.822A10.7,10.7,0,0,1,116.593,33.813Z"/><path d="M140.209,21.241a12.382,12.382,0,0,1,10.442,5.835c.335.5.223.663-.235.909q-2.231,1.2-4.427,2.47c-.485.279-.733.31-1.142-.234a5.606,5.606,0,0,0-5.923-2.292,5.757,5.757,0,0,0-4.566,4.2,5.949,5.949,0,0,0,2.94,6.878,5.828,5.828,0,0,0,7.519-1.647c.483-.665.774-.515,1.286-.228,1.389.778,2.771,1.573,4.195,2.282.667.333.62.62.267,1.163a12.5,12.5,0,1,1-13.371-19.011A11.2,11.2,0,0,1,140.209,21.241Z"/><path d="M73.745,46.18A18.544,18.544,0,0,1,64.239,43.7c-.592-.363-.758-.645-.449-1.282.536-1.108,1.052-2.231,1.474-3.385.234-.639.459-.522.891-.241a13.287,13.287,0,0,0,8.181,2.064,3.576,3.576,0,0,0,1.926-.588,1.59,1.59,0,0,0,.87-1.416,1.637,1.637,0,0,0-1.151-1.441,24.478,24.478,0,0,0-3.933-1.07,18.883,18.883,0,0,1-4.6-1.556c-4.293-2.164-4.218-8.079-1.07-10.943a10.477,10.477,0,0,1,7.24-2.653,15.53,15.53,0,0,1,7.97,1.862c1.336.754,1.355.731.819,2.116-.375.968-.8,1.918-1.131,2.9-.2.6-.394.749-.984.387a13.869,13.869,0,0,0-6.251-2.006,4.8,4.8,0,0,0-2.292.321,1.67,1.67,0,0,0-1.2,1.512A1.6,1.6,0,0,0,71.71,29.81a29.837,29.837,0,0,0,3.23,1.065,33.84,33.84,0,0,1,4.343,1.43c2.685,1.148,4.371,3.092,4.428,6.08a6.882,6.882,0,0,1-3.442,6.182A11.206,11.206,0,0,1,73.745,46.18Z"/><path d="M87.467,28.307c0-5.512.013-11.024-.016-16.535,0-.731.132-1.02.945-.99,1.793.068,3.591.046,5.386.008.625-.013.828.139.827.805q-.034,16.731,0,33.463c0,.546-.133.717-.7.706-1.893-.034-3.788-.048-5.68.006-.69.02-.776-.238-.774-.83C87.475,39.4,87.467,33.851,87.467,28.307Z"/><path d="M42.614,32.422c1.794,0,3.588,0,5.381,0a4.178,4.178,0,0,1,.227,8.353c-3.847.064-7.7.057-11.544,0a4.241,4.241,0,0,1-3.976-4.37,4.191,4.191,0,0,1,4.042-3.98C38.7,32.4,40.657,32.422,42.614,32.422Z"/><path d="M41.085,19.9c0,1.886.035,3.774-.009,5.66a4.146,4.146,0,0,1-4.063,4.048,4.1,4.1,0,0,1-4.2-3.686c-.261-4.032-.16-8.077-.057-12.112a4.169,4.169,0,0,1,8.321.234c.064,1.95.013,3.9.013,5.856Z"/><path d="M29.957,42.228c0,1.792.015,3.585,0,5.378a4.159,4.159,0,0,1-4.143,4.372A4.108,4.108,0,0,1,21.6,47.593q-.028-5.525,0-11.049a4.154,4.154,0,0,1,8.3-.279c.092,1.984.019,3.975.019,5.963Z"/><path d="M20.072,29.558c-1.762,0-3.523.013-5.285,0a4.167,4.167,0,1,1,.01-8.325q5.431-.007,10.862,0a4.161,4.161,0,1,1,.088,8.321C23.856,29.582,21.964,29.558,20.072,29.558Z"/><path d="M43.89,27.026c.016-1.319-.129-2.647.651-3.864a4.276,4.276,0,0,1,4.839-1.773,4.152,4.152,0,0,1,2.877,4.361,4.091,4.091,0,0,1-3.386,3.757,34.041,34.041,0,0,1-4.39.125c-.474.017-.621-.2-.6-.657C43.913,28.327,43.89,27.676,43.89,27.026Z"/><path d="M35.308,43.6a7.432,7.432,0,0,1,3.542.478,4.2,4.2,0,0,1-1.595,7.916,4.142,4.142,0,0,1-4.25-2.768c-.574-1.718-.212-3.492-.3-5.24-.018-.37.266-.387.542-.386C33.937,43.6,34.623,43.6,35.308,43.6Z"/><path d="M16.4,32.412c.669.1,1.779-.383,2.255.211.4.5.111,1.556.114,2.366,0,.65.015,1.3-.024,1.948A4.085,4.085,0,0,1,14.3,40.726a4.165,4.165,0,0,1-.007-8.309C14.939,32.384,15.592,32.412,16.4,32.412Z"/><path d="M27.268,18.384c-.52,0-1.041.006-1.562,0a4.069,4.069,0,0,1-4.065-3.37,4.167,4.167,0,1,1,8.241-1.163c.086,1.3.015,2.6.053,3.9.017.552-.255.652-.715.638C28.57,18.369,27.919,18.383,27.268,18.384Z"/></svg>