<svg xmlns="http://www.w3.org/2000/svg" width="56" height="54" viewBox="0 0 56 54">
  <g fill="#F08230" transform="translate(.7 -.2)">
    <path d="M43.9866026,16.3929469 L43.974313,41.1972538 C43.974313,42.35247 43.0157294,43.2987641 41.8482237,43.2987641 L2.12608937,43.2987641 C0.958583648,43.2987641 0,42.35247 0,41.1972538 L0,2.53222656 C0,1.37701037 0.958583648,0.430716258 2.12608937,0.430716258 L28.9132459,0.430716258 C30.0807516,0.430716258 31.0393353,1.37701037 31.0393353,2.53222656 L31.0393353,8.7571188 C31.0393353,11.0921303 32.8458968,12.9478499 35.2300663,12.9478499 L41.8605132,12.9478499 C43.0280189,12.9478499 43.9866026,13.894144 43.9866026,15.0493602 L43.9866026,16.3929469 Z" opacity=".1"/>
    <path d="M54.5518874,16.5040079 L44.7432928,6.7812571 C44.3753906,6.41335494 43.872591,6.20487704 43.357528,6.20487704 L39.5068186,6.20487704 L11.1365532,6.20487704 C8.9781938,6.20487704 7.24905362,7.94628063 7.24905362,10.0923766 L7.24905362,49.8937504 C7.24905362,52.0398464 8.99045721,53.78125 11.1365532,53.78125 L51.2162411,53.78125 C53.3746005,53.78125 55.0914773,52.0643732 55.1037407,49.9428041 L55.1405309,17.8897727 C55.1282675,17.3869731 54.9197896,16.8841735 54.5518874,16.5040079 Z M43.087733,8.80471902 L52.1605233,17.8652459 C52.5406889,18.2454115 52.270894,18.8831086 51.7435676,18.8831086 L44.4734979,18.8831086 C43.1490501,18.8831086 42.0698704,17.8039289 42.0698704,16.4794811 L42.0698704,9.2216748 C42.0698704,8.68208496 42.7198309,8.42455344 43.087733,8.80471902 Z M26.4,28.1426584 C25.553825,28.1426584 24.8670743,28.8294091 24.8670743,29.675584 L24.8670743,39.2778306 C24.8670743,40.1240056 25.553825,40.8107563 26.4,40.8107563 L52.9012194,40.8107563 L52.72464,49.2069997 C52.72464,50.3597599 51.7680944,51.3040421 50.6030708,51.3040421 L11.7619869,51.3040421 C10.5969633,51.3040421 9.6404177,50.3597599 9.6404177,49.2069997 L9.6404177,10.6564933 C9.6404177,9.50373313 10.5969633,8.55945091 11.7619869,8.55945091 L37.704098,8.55945091 C38.8691215,8.55945091 39.8256672,9.50373313 39.8256672,10.6564933 L39.8256672,16.8596467 C39.8256672,19.1896937 41.6283878,21.041468 44.0074885,21.041468 L50.6153343,21.041468 C51.7803578,21.041468 52.7369034,21.9857502 52.7369034,23.1385103 L52.9134828,28.1426584 L26.4,28.1426584 Z M52.1286248,38.05149 L46.8308336,38.05149 L46.8308336,30.6934467 L48.6458176,30.6934467 L48.6458176,36.7638325 L52.1286248,36.7638325 L52.1286248,38.05149 Z M43.0169145,32.2876894 L40.7972381,38.05149 L39.129415,38.05149 L37.0691628,32.275426 L37.0201092,32.275426 C37.0936896,33.452713 37.1304798,34.2253075 37.1304798,34.6177365 L37.1304798,38.05149 L35.4994469,38.05149 L35.4994469,30.6934467 L37.9766548,30.6934467 L40.0123801,36.3223499 L40.0491704,36.3223499 L42.2075297,30.6934467 L44.6847377,30.6934467 L44.6847377,38.05149 L42.9923877,38.05149 L42.9923877,34.5686829 C42.9923877,34.3969952 42.9923877,34.2130441 43.0046511,34.0045662 C43.0046511,33.7960883 43.0414413,33.2197083 43.0782315,32.2876894 L43.0169145,32.2876894 Z M26.5962145,30.6934467 L28.607413,30.6934467 L30.4591872,33.3423423 L32.2741713,30.6934467 L34.2363161,30.6934467 L31.5383669,34.3356782 L34.4202672,38.05149 L32.3477517,38.05149 L30.3488166,35.267697 L28.3621449,38.05149 L26.4122634,38.05149 L29.2573735,34.2620977 L26.5962145,30.6934467 Z"/>
  </g>
</svg>
