<svg xmlns="http://www.w3.org/2000/svg" width="57" height="54" viewBox="0 0 57 54">
  <g fill="none" fill-rule="evenodd" transform="translate(.9 -.2)">
    <path fill="#686E73" fill-rule="nonzero" d="M54.6510709,16.4007223 L44.8130556,6.64873384 C44.4443696,6.28004782 43.9404987,6.07112574 43.4243383,6.07112574 L39.5654246,6.07112574 L11.1449404,6.07112574 C8.98198242,6.07112574 7.24915814,7.81623956 7.24915814,9.966908 L7.24915814,49.8854677 C7.24915814,52.0361362 8.99427196,53.78125 11.1449404,53.78125 L51.3083176,53.78125 C53.4712756,53.78125 55.1918103,52.0607152 55.2040999,49.9346259 L55.2409685,17.7894397 C55.2286789,17.2855688 55.0197569,16.7816979 54.6510709,16.4007223 Z M43.1539685,8.67650694 L52.2546117,17.7648606 C52.6355873,18.1458361 52.3652175,18.7848919 51.8367676,18.7848919 L44.5426859,18.7848919 C43.2154162,18.7848919 42.1339372,17.7034129 42.1339372,16.3761433 L42.1339372,9.09435109 C42.1339372,8.5536116 42.7852825,8.29553138 43.1539685,8.67650694 Z M52.8322198,28.3929469 L26.2622474,28.3929469 C25.4142696,28.3929469 24.7260557,29.0811608 24.7260557,29.9291386 L24.7260557,39.5518437 C24.7260557,40.3998215 25.4142696,41.0880354 26.2622474,41.0880354 L52.8199303,41.0880354 L52.8199303,49.1972538 C52.8199303,50.35247 51.8613466,51.2987641 50.6938409,51.2987641 L11.7717066,51.2987641 C10.6042009,51.2987641 9.64561725,50.35247 9.64561725,49.1972538 L9.64561725,10.5322266 C9.64561725,9.37701037 10.6042009,8.43071626 11.7717066,8.43071626 L37.7588631,8.43071626 C38.9263689,8.43071626 39.8849525,9.37701037 39.8849525,10.5322266 L39.8849525,16.7571188 C39.8849525,19.0921303 41.691514,20.9478499 44.0756836,20.9478499 L50.7061305,20.9478499 C51.8736362,20.9478499 52.8322198,21.894144 52.8322198,23.0493602 L52.8322198,28.3929469 Z"/>
    <path fill="#FFF" d="M42.7049279,31.5508987 L46.1540835,31.5508987 L46.1540835,35.0000544 L42.7049279,35.0000544 L42.7049279,31.5508987 Z M35.8066165,31.5508987 L39.2557722,31.5508987 L39.2557722,35.0000544 L35.8066165,35.0000544 L35.8066165,31.5508987 Z M49.6032392,31.5508987 L53.0523949,31.5508987 L53.0523949,35.0000544 L49.6032392,35.0000544 L49.6032392,31.5508987 Z M46.1540835,35.0000544 L49.6032392,35.0000544 L49.6032392,38.4492101 L46.1540835,38.4492101 L46.1540835,35.0000544 Z M39.2557722,35.0000544 L42.7049279,35.0000544 L42.7049279,38.4492101 L39.2557722,38.4492101 L39.2557722,35.0000544 Z M28.9083051,31.5508987 L32.3574608,31.5508987 L32.3574608,35.0000544 L28.9083051,35.0000544 L28.9083051,31.5508987 Z M32.3574608,35.0000544 L35.8066165,35.0000544 L35.8066165,38.4492101 L32.3574608,38.4492101 L32.3574608,35.0000544 Z"/>
    <path fill="#686E73" fill-rule="nonzero" d="M43.9866026,16.3929469 L43.974313,41.1972538 C43.974313,42.35247 43.0157294,43.2987641 41.8482237,43.2987641 L2.12608937,43.2987641 C0.958583648,43.2987641 0,42.35247 0,41.1972538 L0,2.53222656 C0,1.37701037 0.958583648,0.430716258 2.12608937,0.430716258 L28.9132459,0.430716258 C30.0807516,0.430716258 31.0393353,1.37701037 31.0393353,2.53222656 L31.0393353,8.7571188 C31.0393353,11.0921303 32.8458968,12.9478499 35.2300663,12.9478499 L41.8605132,12.9478499 C43.0280189,12.9478499 43.9866026,13.894144 43.9866026,15.0493602 L43.9866026,16.3929469 Z" opacity=".1"/>
  </g>
</svg>
